# MagicaVoxel @ Ephtracy

# group
o 

# material
mtllib Button_Press.mtl
usemtl palette

# normals
vn -1 0 0
vn 1 0 0
vn 0 0 1
vn 0 0 -1
vn 0 -1 0
vn 0 1 0

# texcoords
vt 0.0253906 0.5
vt 0.0292969 0.5
vt 0.306641 0.5

# verts
v -1 0 1
v -1 0 -1
v -1 0.2 1
v -1 0.2 0.6
v -1 0.2 0.3
v -1 0.2 -0.3
v -1 0.2 -0.6
v -1 0.2 -1
v -1 0.3 1
v -1 0.3 0.6
v -1 0.3 0.3
v -1 0.3 -0.3
v -1 0.3 -0.6
v -1 0.3 -1
v -0.9 0.2 0.5
v -0.9 0.2 0.3
v -0.9 0.2 -0.3
v -0.9 0.2 -0.5
v -0.9 0.3 0.5
v -0.9 0.3 0.3
v -0.9 0.3 -0.3
v -0.9 0.3 -0.5
v -0.8 0.2 0.7
v -0.8 0.2 0.5
v -0.8 0.2 -0.5
v -0.8 0.2 -0.7
v -0.8 0.3 0.7
v -0.8 0.3 0.5
v -0.8 0.3 -0.5
v -0.8 0.3 -0.7
v -0.7 0.2 0.8
v -0.7 0.2 0.7
v -0.7 0.2 0.3
v -0.7 0.2 -0.3
v -0.7 0.2 -0.7
v -0.7 0.2 -0.8
v -0.7 0.3 0.8
v -0.7 0.3 0.7
v -0.7 0.3 0.3
v -0.7 0.3 -0.3
v -0.7 0.3 -0.7
v -0.7 0.3 -0.8
v -0.7 0.6 0.3
v -0.7 0.6 -0.3
v -0.7 0.7 0.3
v -0.7 0.7 -0.3
v -0.7 0.8 0.3
v -0.7 0.8 -0.3
v -0.6 0.2 0.5
v -0.6 0.2 0.3
v -0.6 0.2 -0.3
v -0.6 0.2 -0.5
v -0.6 0.3 0.5
v -0.6 0.3 -0.5
v -0.6 0.6 0.5
v -0.6 0.6 0.3
v -0.6 0.6 -0.3
v -0.6 0.6 -0.5
v -0.6 0.7 0.5
v -0.6 0.7 0.3
v -0.6 0.7 -0.3
v -0.6 0.7 -0.5
v -0.6 0.8 0.5
v -0.6 0.8 0.3
v -0.6 0.8 -0.3
v -0.6 0.8 -0.5
v -0.5 0.2 0.9
v -0.5 0.2 0.8
v -0.5 0.2 0.6
v -0.5 0.2 0.5
v -0.5 0.2 -0.5
v -0.5 0.2 -0.6
v -0.5 0.2 -0.8
v -0.5 0.2 -0.9
v -0.5 0.3 0.9
v -0.5 0.3 0.8
v -0.5 0.3 0.6
v -0.5 0.3 -0.6
v -0.5 0.3 -0.8
v -0.5 0.3 -0.9
v -0.5 0.6 0.6
v -0.5 0.6 0.5
v -0.5 0.6 0.4
v -0.5 0.6 0.3
v -0.5 0.6 -0.3
v -0.5 0.6 -0.4
v -0.5 0.6 -0.5
v -0.5 0.6 -0.6
v -0.5 0.7 0.6
v -0.5 0.7 0.5
v -0.5 0.7 0.4
v -0.5 0.7 0.3
v -0.5 0.7 -0.3
v -0.5 0.7 -0.4
v -0.5 0.7 -0.5
v -0.5 0.7 -0.6
v -0.5 0.8 0.6
v -0.5 0.8 0.5
v -0.5 0.8 -0.5
v -0.5 0.8 -0.6
v -0.4 0.6 0.5
v -0.4 0.6 0.4
v -0.4 0.6 -0.4
v -0.4 0.6 -0.5
v -0.4 0.7 0.5
v -0.4 0.7 0.4
v -0.4 0.7 -0.4
v -0.4 0.7 -0.5
v -0.3 0.2 1
v -0.3 0.2 0.9
v -0.3 0.2 0.7
v -0.3 0.2 0.6
v -0.3 0.2 -0.6
v -0.3 0.2 -0.7
v -0.3 0.2 -0.9
v -0.3 0.2 -1
v -0.3 0.3 1
v -0.3 0.3 0.9
v -0.3 0.3 0.7
v -0.3 0.3 -0.7
v -0.3 0.3 -0.9
v -0.3 0.3 -1
v -0.3 0.6 0.7
v -0.3 0.6 0.6
v -0.3 0.6 0.5
v -0.3 0.6 -0.5
v -0.3 0.6 -0.6
v -0.3 0.6 -0.7
v -0.3 0.7 0.7
v -0.3 0.7 0.6
v -0.3 0.7 0.5
v -0.3 0.7 -0.5
v -0.3 0.7 -0.6
v -0.3 0.7 -0.7
v -0.3 0.8 0.7
v -0.3 0.8 0.6
v -0.3 0.8 -0.6
v -0.3 0.8 -0.7
v 0.3 0.2 0.8
v 0.3 0.2 0.7
v 0.3 0.2 -0.7
v 0.3 0.2 -0.8
v 0.3 0.3 0.8
v 0.3 0.3 0.7
v 0.3 0.3 -0.7
v 0.3 0.3 -0.8
v 0.5 0.2 0.7
v 0.5 0.2 0.6
v 0.5 0.2 -0.6
v 0.5 0.2 -0.7
v 0.5 0.3 0.7
v 0.5 0.3 0.6
v 0.5 0.3 -0.6
v 0.5 0.3 -0.7
v 0.6 0.2 1
v 0.6 0.2 0.9
v 0.6 0.2 0.6
v 0.6 0.2 0.5
v 0.6 0.2 -0.5
v 0.6 0.2 -0.6
v 0.6 0.2 -0.9
v 0.6 0.2 -1
v 0.6 0.3 1
v 0.6 0.3 0.9
v 0.6 0.3 0.6
v 0.6 0.3 0.5
v 0.6 0.3 -0.5
v 0.6 0.3 -0.6
v 0.6 0.3 -0.9
v 0.6 0.3 -1
v 0.7 0.2 0.5
v 0.7 0.2 0.3
v 0.7 0.2 -0.3
v 0.7 0.2 -0.5
v 0.7 0.3 0.5
v 0.7 0.3 0.3
v 0.7 0.3 -0.3
v 0.7 0.3 -0.5
v 0.8 0.2 0.9
v 0.8 0.2 0.8
v 0.8 0.2 0.3
v 0.8 0.2 -0.3
v 0.8 0.2 -0.8
v 0.8 0.2 -0.9
v 0.8 0.3 0.9
v 0.8 0.3 0.8
v 0.8 0.3 0.3
v 0.8 0.3 -0.3
v 0.8 0.3 -0.8
v 0.8 0.3 -0.9
v 0.9 0.2 0.8
v 0.9 0.2 0.6
v 0.9 0.2 -0.6
v 0.9 0.2 -0.8
v 0.9 0.3 0.8
v 0.9 0.3 0.6
v 0.9 0.3 -0.6
v 0.9 0.3 -0.8
v -0.9 0.2 0.8
v -0.9 0.2 0.6
v -0.9 0.2 -0.6
v -0.9 0.2 -0.8
v -0.9 0.3 0.8
v -0.9 0.3 0.6
v -0.9 0.3 -0.6
v -0.9 0.3 -0.8
v -0.8 0.2 0.9
v -0.8 0.2 0.8
v -0.8 0.2 0.3
v -0.8 0.2 -0.3
v -0.8 0.2 -0.8
v -0.8 0.2 -0.9
v -0.8 0.3 0.9
v -0.8 0.3 0.8
v -0.8 0.3 0.3
v -0.8 0.3 -0.3
v -0.8 0.3 -0.8
v -0.8 0.3 -0.9
v -0.7 0.2 0.5
v -0.7 0.2 0.3
v -0.7 0.2 -0.3
v -0.7 0.2 -0.5
v -0.7 0.3 0.5
v -0.7 0.3 0.3
v -0.7 0.3 -0.3
v -0.7 0.3 -0.5
v -0.6 0.2 1
v -0.6 0.2 0.9
v -0.6 0.2 0.6
v -0.6 0.2 0.5
v -0.6 0.2 -0.5
v -0.6 0.2 -0.6
v -0.6 0.2 -0.9
v -0.6 0.2 -1
v -0.6 0.3 1
v -0.6 0.3 0.9
v -0.6 0.3 0.6
v -0.6 0.3 0.5
v -0.6 0.3 -0.5
v -0.6 0.3 -0.6
v -0.6 0.3 -0.9
v -0.6 0.3 -1
v -0.5 0.2 0.7
v -0.5 0.2 0.6
v -0.5 0.2 -0.6
v -0.5 0.2 -0.7
v -0.5 0.3 0.7
v -0.5 0.3 0.6
v -0.5 0.3 -0.6
v -0.5 0.3 -0.7
v -0.3 0.2 0.8
v -0.3 0.2 0.7
v -0.3 0.2 -0.7
v -0.3 0.2 -0.8
v -0.3 0.3 0.8
v -0.3 0.3 0.7
v -0.3 0.3 -0.7
v -0.3 0.3 -0.8
v 0.3 0.2 1
v 0.3 0.2 0.9
v 0.3 0.2 0.7
v 0.3 0.2 0.6
v 0.3 0.2 -0.6
v 0.3 0.2 -0.7
v 0.3 0.2 -0.9
v 0.3 0.2 -1
v 0.3 0.3 1
v 0.3 0.3 0.9
v 0.3 0.3 0.7
v 0.3 0.3 -0.7
v 0.3 0.3 -0.9
v 0.3 0.3 -1
v 0.3 0.6 0.7
v 0.3 0.6 0.6
v 0.3 0.6 0.5
v 0.3 0.6 -0.5
v 0.3 0.6 -0.6
v 0.3 0.6 -0.7
v 0.3 0.7 0.7
v 0.3 0.7 0.6
v 0.3 0.7 0.5
v 0.3 0.7 -0.5
v 0.3 0.7 -0.6
v 0.3 0.7 -0.7
v 0.3 0.8 0.7
v 0.3 0.8 0.6
v 0.3 0.8 -0.6
v 0.3 0.8 -0.7
v 0.4 0.6 0.5
v 0.4 0.6 0.4
v 0.4 0.6 -0.4
v 0.4 0.6 -0.5
v 0.4 0.7 0.5
v 0.4 0.7 0.4
v 0.4 0.7 -0.4
v 0.4 0.7 -0.5
v 0.5 0.2 0.9
v 0.5 0.2 0.8
v 0.5 0.2 0.6
v 0.5 0.2 0.5
v 0.5 0.2 -0.5
v 0.5 0.2 -0.6
v 0.5 0.2 -0.8
v 0.5 0.2 -0.9
v 0.5 0.3 0.9
v 0.5 0.3 0.8
v 0.5 0.3 0.6
v 0.5 0.3 -0.6
v 0.5 0.3 -0.8
v 0.5 0.3 -0.9
v 0.5 0.6 0.6
v 0.5 0.6 0.5
v 0.5 0.6 0.4
v 0.5 0.6 0.3
v 0.5 0.6 -0.3
v 0.5 0.6 -0.4
v 0.5 0.6 -0.5
v 0.5 0.6 -0.6
v 0.5 0.7 0.6
v 0.5 0.7 0.5
v 0.5 0.7 0.4
v 0.5 0.7 0.3
v 0.5 0.7 -0.3
v 0.5 0.7 -0.4
v 0.5 0.7 -0.5
v 0.5 0.7 -0.6
v 0.5 0.8 0.6
v 0.5 0.8 0.5
v 0.5 0.8 -0.5
v 0.5 0.8 -0.6
v 0.6 0.2 0.5
v 0.6 0.2 0.3
v 0.6 0.2 -0.3
v 0.6 0.2 -0.5
v 0.6 0.3 0.5
v 0.6 0.3 -0.5
v 0.6 0.6 0.5
v 0.6 0.6 0.3
v 0.6 0.6 -0.3
v 0.6 0.6 -0.5
v 0.6 0.7 0.5
v 0.6 0.7 0.3
v 0.6 0.7 -0.3
v 0.6 0.7 -0.5
v 0.6 0.8 0.5
v 0.6 0.8 0.3
v 0.6 0.8 -0.3
v 0.6 0.8 -0.5
v 0.7 0.2 0.8
v 0.7 0.2 0.7
v 0.7 0.2 0.3
v 0.7 0.2 -0.3
v 0.7 0.2 -0.7
v 0.7 0.2 -0.8
v 0.7 0.3 0.8
v 0.7 0.3 0.7
v 0.7 0.3 0.3
v 0.7 0.3 -0.3
v 0.7 0.3 -0.7
v 0.7 0.3 -0.8
v 0.7 0.6 0.3
v 0.7 0.6 -0.3
v 0.7 0.7 0.3
v 0.7 0.7 -0.3
v 0.7 0.8 0.3
v 0.7 0.8 -0.3
v 0.8 0.2 0.7
v 0.8 0.2 0.5
v 0.8 0.2 -0.5
v 0.8 0.2 -0.7
v 0.8 0.3 0.7
v 0.8 0.3 0.5
v 0.8 0.3 -0.5
v 0.8 0.3 -0.7
v 0.9 0.2 0.5
v 0.9 0.2 0.3
v 0.9 0.2 -0.3
v 0.9 0.2 -0.5
v 0.9 0.3 0.5
v 0.9 0.3 0.3
v 0.9 0.3 -0.3
v 0.9 0.3 -0.5
v 1 0 1
v 1 0 -1
v 1 0.2 1
v 1 0.2 0.6
v 1 0.2 0.3
v 1 0.2 -0.3
v 1 0.2 -0.6
v 1 0.2 -1
v 1 0.3 1
v 1 0.3 0.6
v 1 0.3 0.3
v 1 0.3 -0.3
v 1 0.3 -0.6
v 1 0.3 -1
v -1 0 1
v -1 0.2 1
v -1 0.3 1
v -0.6 0.2 1
v -0.6 0.3 1
v -0.3 0.2 1
v -0.3 0.3 1
v 0.3 0.2 1
v 0.3 0.3 1
v 0.6 0.2 1
v 0.6 0.3 1
v 1 0 1
v 1 0.2 1
v 1 0.3 1
v -0.5 0.2 0.9
v -0.5 0.3 0.9
v -0.3 0.2 0.9
v -0.3 0.3 0.9
v 0.3 0.2 0.9
v 0.3 0.3 0.9
v 0.5 0.2 0.9
v 0.5 0.3 0.9
v -0.7 0.2 0.8
v -0.7 0.3 0.8
v -0.5 0.2 0.8
v -0.5 0.3 0.8
v 0.5 0.2 0.8
v 0.5 0.3 0.8
v 0.7 0.2 0.8
v 0.7 0.3 0.8
v -0.8 0.2 0.7
v -0.8 0.3 0.7
v -0.7 0.2 0.7
v -0.7 0.3 0.7
v -0.3 0.2 0.7
v -0.3 0.3 0.7
v -0.3 0.6 0.7
v -0.3 0.7 0.7
v -0.3 0.8 0.7
v 0.3 0.2 0.7
v 0.3 0.3 0.7
v 0.3 0.6 0.7
v 0.3 0.7 0.7
v 0.3 0.8 0.7
v 0.7 0.2 0.7
v 0.7 0.3 0.7
v 0.8 0.2 0.7
v 0.8 0.3 0.7
v -0.5 0.2 0.6
v -0.5 0.3 0.6
v -0.5 0.6 0.6
v -0.5 0.7 0.6
v -0.5 0.8 0.6
v -0.3 0.2 0.6
v -0.3 0.6 0.6
v -0.3 0.7 0.6
v -0.3 0.8 0.6
v 0.3 0.2 0.6
v 0.3 0.6 0.6
v 0.3 0.7 0.6
v 0.3 0.8 0.6
v 0.5 0.2 0.6
v 0.5 0.3 0.6
v 0.5 0.6 0.6
v 0.5 0.7 0.6
v 0.5 0.8 0.6
v -0.9 0.2 0.5
v -0.9 0.3 0.5
v -0.8 0.2 0.5
v -0.8 0.3 0.5
v -0.6 0.2 0.5
v -0.6 0.3 0.5
v -0.6 0.6 0.5
v -0.6 0.7 0.5
v -0.6 0.8 0.5
v -0.5 0.2 0.5
v -0.5 0.6 0.5
v -0.5 0.7 0.5
v -0.5 0.8 0.5
v -0.4 0.6 0.5
v -0.4 0.7 0.5
v -0.3 0.6 0.5
v -0.3 0.7 0.5
v 0.3 0.6 0.5
v 0.3 0.7 0.5
v 0.4 0.6 0.5
v 0.4 0.7 0.5
v 0.5 0.2 0.5
v 0.5 0.6 0.5
v 0.5 0.7 0.5
v 0.5 0.8 0.5
v 0.6 0.2 0.5
v 0.6 0.3 0.5
v 0.6 0.6 0.5
v 0.6 0.7 0.5
v 0.6 0.8 0.5
v 0.8 0.2 0.5
v 0.8 0.3 0.5
v 0.9 0.2 0.5
v 0.9 0.3 0.5
v -0.5 0.6 0.4
v -0.5 0.7 0.4
v -0.4 0.6 0.4
v -0.4 0.7 0.4
v 0.4 0.6 0.4
v 0.4 0.7 0.4
v 0.5 0.6 0.4
v 0.5 0.7 0.4
v -1 0.2 0.3
v -1 0.3 0.3
v -0.9 0.2 0.3
v -0.9 0.3 0.3
v -0.7 0.2 0.3
v -0.7 0.3 0.3
v -0.7 0.6 0.3
v -0.7 0.7 0.3
v -0.7 0.8 0.3
v -0.6 0.2 0.3
v -0.6 0.6 0.3
v -0.6 0.7 0.3
v -0.6 0.8 0.3
v -0.5 0.6 0.3
v -0.5 0.7 0.3
v 0.5 0.6 0.3
v 0.5 0.7 0.3
v 0.6 0.2 0.3
v 0.6 0.6 0.3
v 0.6 0.7 0.3
v 0.6 0.8 0.3
v 0.7 0.2 0.3
v 0.7 0.3 0.3
v 0.7 0.6 0.3
v 0.7 0.7 0.3
v 0.7 0.8 0.3
v 0.9 0.2 0.3
v 0.9 0.3 0.3
v 1 0.2 0.3
v 1 0.3 0.3
v -0.8 0.2 -0.3
v -0.8 0.3 -0.3
v -0.7 0.2 -0.3
v -0.7 0.3 -0.3
v 0.7 0.2 -0.3
v 0.7 0.3 -0.3
v 0.8 0.2 -0.3
v 0.8 0.3 -0.3
v -0.7 0.2 -0.5
v -0.7 0.3 -0.5
v -0.6 0.2 -0.5
v -0.6 0.3 -0.5
v 0.6 0.2 -0.5
v 0.6 0.3 -0.5
v 0.7 0.2 -0.5
v 0.7 0.3 -0.5
v -1 0.2 -0.6
v -1 0.3 -0.6
v -0.9 0.2 -0.6
v -0.9 0.3 -0.6
v -0.6 0.2 -0.6
v -0.6 0.3 -0.6
v -0.5 0.2 -0.6
v -0.5 0.3 -0.6
v 0.5 0.2 -0.6
v 0.5 0.3 -0.6
v 0.6 0.2 -0.6
v 0.6 0.3 -0.6
v 0.9 0.2 -0.6
v 0.9 0.3 -0.6
v 1 0.2 -0.6
v 1 0.3 -0.6
v -0.5 0.2 -0.7
v -0.5 0.3 -0.7
v -0.3 0.2 -0.7
v -0.3 0.3 -0.7
v 0.3 0.2 -0.7
v 0.3 0.3 -0.7
v 0.5 0.2 -0.7
v 0.5 0.3 -0.7
v -0.9 0.2 -0.8
v -0.9 0.3 -0.8
v -0.8 0.2 -0.8
v -0.8 0.3 -0.8
v -0.3 0.2 -0.8
v -0.3 0.3 -0.8
v 0.3 0.2 -0.8
v 0.3 0.3 -0.8
v 0.8 0.2 -0.8
v 0.8 0.3 -0.8
v 0.9 0.2 -0.8
v 0.9 0.3 -0.8
v -0.8 0.2 -0.9
v -0.8 0.3 -0.9
v -0.6 0.2 -0.9
v -0.6 0.3 -0.9
v 0.6 0.2 -0.9
v 0.6 0.3 -0.9
v 0.8 0.2 -0.9
v 0.8 0.3 -0.9
v -0.8 0.2 0.9
v -0.8 0.3 0.9
v -0.6 0.2 0.9
v -0.6 0.3 0.9
v 0.6 0.2 0.9
v 0.6 0.3 0.9
v 0.8 0.2 0.9
v 0.8 0.3 0.9
v -0.9 0.2 0.8
v -0.9 0.3 0.8
v -0.8 0.2 0.8
v -0.8 0.3 0.8
v -0.3 0.2 0.8
v -0.3 0.3 0.8
v 0.3 0.2 0.8
v 0.3 0.3 0.8
v 0.8 0.2 0.8
v 0.8 0.3 0.8
v 0.9 0.2 0.8
v 0.9 0.3 0.8
v -0.5 0.2 0.7
v -0.5 0.3 0.7
v -0.3 0.2 0.7
v -0.3 0.3 0.7
v 0.3 0.2 0.7
v 0.3 0.3 0.7
v 0.5 0.2 0.7
v 0.5 0.3 0.7
v -1 0.2 0.6
v -1 0.3 0.6
v -0.9 0.2 0.6
v -0.9 0.3 0.6
v -0.6 0.2 0.6
v -0.6 0.3 0.6
v -0.5 0.2 0.6
v -0.5 0.3 0.6
v 0.5 0.2 0.6
v 0.5 0.3 0.6
v 0.6 0.2 0.6
v 0.6 0.3 0.6
v 0.9 0.2 0.6
v 0.9 0.3 0.6
v 1 0.2 0.6
v 1 0.3 0.6
v -0.7 0.2 0.5
v -0.7 0.3 0.5
v -0.6 0.2 0.5
v -0.6 0.3 0.5
v 0.6 0.2 0.5
v 0.6 0.3 0.5
v 0.7 0.2 0.5
v 0.7 0.3 0.5
v -0.8 0.2 0.3
v -0.8 0.3 0.3
v -0.7 0.2 0.3
v -0.7 0.3 0.3
v 0.7 0.2 0.3
v 0.7 0.3 0.3
v 0.8 0.2 0.3
v 0.8 0.3 0.3
v -1 0.2 -0.3
v -1 0.3 -0.3
v -0.9 0.2 -0.3
v -0.9 0.3 -0.3
v -0.7 0.2 -0.3
v -0.7 0.3 -0.3
v -0.7 0.6 -0.3
v -0.7 0.7 -0.3
v -0.7 0.8 -0.3
v -0.6 0.2 -0.3
v -0.6 0.6 -0.3
v -0.6 0.7 -0.3
v -0.6 0.8 -0.3
v -0.5 0.6 -0.3
v -0.5 0.7 -0.3
v 0.5 0.6 -0.3
v 0.5 0.7 -0.3
v 0.6 0.2 -0.3
v 0.6 0.6 -0.3
v 0.6 0.7 -0.3
v 0.6 0.8 -0.3
v 0.7 0.2 -0.3
v 0.7 0.3 -0.3
v 0.7 0.6 -0.3
v 0.7 0.7 -0.3
v 0.7 0.8 -0.3
v 0.9 0.2 -0.3
v 0.9 0.3 -0.3
v 1 0.2 -0.3
v 1 0.3 -0.3
v -0.5 0.6 -0.4
v -0.5 0.7 -0.4
v -0.4 0.6 -0.4
v -0.4 0.7 -0.4
v 0.4 0.6 -0.4
v 0.4 0.7 -0.4
v 0.5 0.6 -0.4
v 0.5 0.7 -0.4
v -0.9 0.2 -0.5
v -0.9 0.3 -0.5
v -0.8 0.2 -0.5
v -0.8 0.3 -0.5
v -0.6 0.2 -0.5
v -0.6 0.3 -0.5
v -0.6 0.6 -0.5
v -0.6 0.7 -0.5
v -0.6 0.8 -0.5
v -0.5 0.2 -0.5
v -0.5 0.6 -0.5
v -0.5 0.7 -0.5
v -0.5 0.8 -0.5
v -0.4 0.6 -0.5
v -0.4 0.7 -0.5
v -0.3 0.6 -0.5
v -0.3 0.7 -0.5
v 0.3 0.6 -0.5
v 0.3 0.7 -0.5
v 0.4 0.6 -0.5
v 0.4 0.7 -0.5
v 0.5 0.2 -0.5
v 0.5 0.6 -0.5
v 0.5 0.7 -0.5
v 0.5 0.8 -0.5
v 0.6 0.2 -0.5
v 0.6 0.3 -0.5
v 0.6 0.6 -0.5
v 0.6 0.7 -0.5
v 0.6 0.8 -0.5
v 0.8 0.2 -0.5
v 0.8 0.3 -0.5
v 0.9 0.2 -0.5
v 0.9 0.3 -0.5
v -0.5 0.2 -0.6
v -0.5 0.3 -0.6
v -0.5 0.6 -0.6
v -0.5 0.7 -0.6
v -0.5 0.8 -0.6
v -0.3 0.2 -0.6
v -0.3 0.6 -0.6
v -0.3 0.7 -0.6
v -0.3 0.8 -0.6
v 0.3 0.2 -0.6
v 0.3 0.6 -0.6
v 0.3 0.7 -0.6
v 0.3 0.8 -0.6
v 0.5 0.2 -0.6
v 0.5 0.3 -0.6
v 0.5 0.6 -0.6
v 0.5 0.7 -0.6
v 0.5 0.8 -0.6
v -0.8 0.2 -0.7
v -0.8 0.3 -0.7
v -0.7 0.2 -0.7
v -0.7 0.3 -0.7
v -0.3 0.2 -0.7
v -0.3 0.3 -0.7
v -0.3 0.6 -0.7
v -0.3 0.7 -0.7
v -0.3 0.8 -0.7
v 0.3 0.2 -0.7
v 0.3 0.3 -0.7
v 0.3 0.6 -0.7
v 0.3 0.7 -0.7
v 0.3 0.8 -0.7
v 0.7 0.2 -0.7
v 0.7 0.3 -0.7
v 0.8 0.2 -0.7
v 0.8 0.3 -0.7
v -0.7 0.2 -0.8
v -0.7 0.3 -0.8
v -0.5 0.2 -0.8
v -0.5 0.3 -0.8
v 0.5 0.2 -0.8
v 0.5 0.3 -0.8
v 0.7 0.2 -0.8
v 0.7 0.3 -0.8
v -0.5 0.2 -0.9
v -0.5 0.3 -0.9
v -0.3 0.2 -0.9
v -0.3 0.3 -0.9
v 0.3 0.2 -0.9
v 0.3 0.3 -0.9
v 0.5 0.2 -0.9
v 0.5 0.3 -0.9
v -1 0 -1
v -1 0.2 -1
v -1 0.3 -1
v -0.6 0.2 -1
v -0.6 0.3 -1
v -0.3 0.2 -1
v -0.3 0.3 -1
v 0.3 0.2 -1
v 0.3 0.3 -1
v 0.6 0.2 -1
v 0.6 0.3 -1
v 1 0 -1
v 1 0.2 -1
v 1 0.3 -1
v -1 0 1
v 1 0 1
v -1 0 -1
v 1 0 -1
v -0.3 0.7 0.7
v 0.3 0.7 0.7
v -0.5 0.7 0.6
v -0.3 0.7 0.6
v 0.3 0.7 0.6
v 0.5 0.7 0.6
v -0.6 0.7 0.5
v -0.5 0.7 0.5
v -0.4 0.7 0.5
v -0.3 0.7 0.5
v 0.3 0.7 0.5
v 0.4 0.7 0.5
v 0.5 0.7 0.5
v 0.6 0.7 0.5
v -0.5 0.7 0.4
v -0.4 0.7 0.4
v 0.4 0.7 0.4
v 0.5 0.7 0.4
v -0.7 0.7 0.3
v -0.6 0.7 0.3
v -0.5 0.7 0.3
v 0.5 0.7 0.3
v 0.6 0.7 0.3
v 0.7 0.7 0.3
v -0.7 0.7 -0.3
v -0.6 0.7 -0.3
v -0.5 0.7 -0.3
v 0.5 0.7 -0.3
v 0.6 0.7 -0.3
v 0.7 0.7 -0.3
v -0.5 0.7 -0.4
v -0.4 0.7 -0.4
v 0.4 0.7 -0.4
v 0.5 0.7 -0.4
v -0.6 0.7 -0.5
v -0.5 0.7 -0.5
v -0.4 0.7 -0.5
v -0.3 0.7 -0.5
v 0.3 0.7 -0.5
v 0.4 0.7 -0.5
v 0.5 0.7 -0.5
v 0.6 0.7 -0.5
v -0.5 0.7 -0.6
v -0.3 0.7 -0.6
v 0.3 0.7 -0.6
v 0.5 0.7 -0.6
v -0.3 0.7 -0.7
v 0.3 0.7 -0.7
v -0.6 0.2 1
v -0.3 0.2 1
v 0.3 0.2 1
v 0.6 0.2 1
v -0.8 0.2 0.9
v -0.6 0.2 0.9
v -0.5 0.2 0.9
v -0.3 0.2 0.9
v 0.3 0.2 0.9
v 0.5 0.2 0.9
v 0.6 0.2 0.9
v 0.8 0.2 0.9
v -0.9 0.2 0.8
v -0.8 0.2 0.8
v -0.7 0.2 0.8
v -0.5 0.2 0.8
v -0.3 0.2 0.8
v 0.3 0.2 0.8
v 0.5 0.2 0.8
v 0.7 0.2 0.8
v 0.8 0.2 0.8
v 0.9 0.2 0.8
v -0.8 0.2 0.7
v -0.7 0.2 0.7
v -0.5 0.2 0.7
v -0.3 0.2 0.7
v 0.3 0.2 0.7
v 0.5 0.2 0.7
v 0.7 0.2 0.7
v 0.8 0.2 0.7
v -1 0.2 0.6
v -0.9 0.2 0.6
v -0.6 0.2 0.6
v -0.5 0.2 0.6
v -0.3 0.2 0.6
v 0.3 0.2 0.6
v 0.5 0.2 0.6
v 0.6 0.2 0.6
v 0.9 0.2 0.6
v 1 0.2 0.6
v -0.9 0.2 0.5
v -0.8 0.2 0.5
v -0.7 0.2 0.5
v -0.6 0.2 0.5
v -0.5 0.2 0.5
v 0.5 0.2 0.5
v 0.6 0.2 0.5
v 0.7 0.2 0.5
v 0.8 0.2 0.5
v 0.9 0.2 0.5
v -1 0.2 0.3
v -0.9 0.2 0.3
v -0.8 0.2 0.3
v -0.7 0.2 0.3
v -0.6 0.2 0.3
v 0.6 0.2 0.3
v 0.7 0.2 0.3
v 0.8 0.2 0.3
v 0.9 0.2 0.3
v 1 0.2 0.3
v -1 0.2 -0.3
v -0.9 0.2 -0.3
v -0.8 0.2 -0.3
v -0.7 0.2 -0.3
v -0.6 0.2 -0.3
v 0.6 0.2 -0.3
v 0.7 0.2 -0.3
v 0.8 0.2 -0.3
v 0.9 0.2 -0.3
v 1 0.2 -0.3
v -0.9 0.2 -0.5
v -0.8 0.2 -0.5
v -0.7 0.2 -0.5
v -0.6 0.2 -0.5
v -0.5 0.2 -0.5
v 0.5 0.2 -0.5
v 0.6 0.2 -0.5
v 0.7 0.2 -0.5
v 0.8 0.2 -0.5
v 0.9 0.2 -0.5
v -1 0.2 -0.6
v -0.9 0.2 -0.6
v -0.6 0.2 -0.6
v -0.5 0.2 -0.6
v -0.3 0.2 -0.6
v 0.3 0.2 -0.6
v 0.5 0.2 -0.6
v 0.6 0.2 -0.6
v 0.9 0.2 -0.6
v 1 0.2 -0.6
v -0.8 0.2 -0.7
v -0.7 0.2 -0.7
v -0.5 0.2 -0.7
v -0.3 0.2 -0.7
v 0.3 0.2 -0.7
v 0.5 0.2 -0.7
v 0.7 0.2 -0.7
v 0.8 0.2 -0.7
v -0.9 0.2 -0.8
v -0.8 0.2 -0.8
v -0.7 0.2 -0.8
v -0.5 0.2 -0.8
v -0.3 0.2 -0.8
v 0.3 0.2 -0.8
v 0.5 0.2 -0.8
v 0.7 0.2 -0.8
v 0.8 0.2 -0.8
v 0.9 0.2 -0.8
v -0.8 0.2 -0.9
v -0.6 0.2 -0.9
v -0.5 0.2 -0.9
v -0.3 0.2 -0.9
v 0.3 0.2 -0.9
v 0.5 0.2 -0.9
v 0.6 0.2 -0.9
v 0.8 0.2 -0.9
v -0.6 0.2 -1
v -0.3 0.2 -1
v 0.3 0.2 -1
v 0.6 0.2 -1
v -1 0.3 1
v -0.6 0.3 1
v -0.3 0.3 1
v 0.3 0.3 1
v 0.6 0.3 1
v 1 0.3 1
v -0.8 0.3 0.9
v -0.6 0.3 0.9
v -0.5 0.3 0.9
v -0.3 0.3 0.9
v 0.3 0.3 0.9
v 0.5 0.3 0.9
v 0.6 0.3 0.9
v 0.8 0.3 0.9
v -0.9 0.3 0.8
v -0.8 0.3 0.8
v -0.7 0.3 0.8
v -0.5 0.3 0.8
v -0.3 0.3 0.8
v 0.3 0.3 0.8
v 0.5 0.3 0.8
v 0.7 0.3 0.8
v 0.8 0.3 0.8
v 0.9 0.3 0.8
v -0.8 0.3 0.7
v -0.7 0.3 0.7
v -0.5 0.3 0.7
v -0.3 0.3 0.7
v 0.3 0.3 0.7
v 0.5 0.3 0.7
v 0.7 0.3 0.7
v 0.8 0.3 0.7
v -1 0.3 0.6
v -0.9 0.3 0.6
v -0.6 0.3 0.6
v -0.5 0.3 0.6
v 0.5 0.3 0.6
v 0.6 0.3 0.6
v 0.9 0.3 0.6
v 1 0.3 0.6
v -0.9 0.3 0.5
v -0.8 0.3 0.5
v -0.7 0.3 0.5
v -0.6 0.3 0.5
v 0.6 0.3 0.5
v 0.7 0.3 0.5
v 0.8 0.3 0.5
v 0.9 0.3 0.5
v -1 0.3 0.3
v -0.9 0.3 0.3
v -0.8 0.3 0.3
v -0.7 0.3 0.3
v 0.7 0.3 0.3
v 0.8 0.3 0.3
v 0.9 0.3 0.3
v 1 0.3 0.3
v -1 0.3 -0.3
v -0.9 0.3 -0.3
v -0.8 0.3 -0.3
v -0.7 0.3 -0.3
v 0.7 0.3 -0.3
v 0.8 0.3 -0.3
v 0.9 0.3 -0.3
v 1 0.3 -0.3
v -0.9 0.3 -0.5
v -0.8 0.3 -0.5
v -0.7 0.3 -0.5
v -0.6 0.3 -0.5
v 0.6 0.3 -0.5
v 0.7 0.3 -0.5
v 0.8 0.3 -0.5
v 0.9 0.3 -0.5
v -1 0.3 -0.6
v -0.9 0.3 -0.6
v -0.6 0.3 -0.6
v -0.5 0.3 -0.6
v 0.5 0.3 -0.6
v 0.6 0.3 -0.6
v 0.9 0.3 -0.6
v 1 0.3 -0.6
v -0.8 0.3 -0.7
v -0.7 0.3 -0.7
v -0.5 0.3 -0.7
v -0.3 0.3 -0.7
v 0.3 0.3 -0.7
v 0.5 0.3 -0.7
v 0.7 0.3 -0.7
v 0.8 0.3 -0.7
v -0.9 0.3 -0.8
v -0.8 0.3 -0.8
v -0.7 0.3 -0.8
v -0.5 0.3 -0.8
v -0.3 0.3 -0.8
v 0.3 0.3 -0.8
v 0.5 0.3 -0.8
v 0.7 0.3 -0.8
v 0.8 0.3 -0.8
v 0.9 0.3 -0.8
v -0.8 0.3 -0.9
v -0.6 0.3 -0.9
v -0.5 0.3 -0.9
v -0.3 0.3 -0.9
v 0.3 0.3 -0.9
v 0.5 0.3 -0.9
v 0.6 0.3 -0.9
v 0.8 0.3 -0.9
v -1 0.3 -1
v -0.6 0.3 -1
v -0.3 0.3 -1
v 0.3 0.3 -1
v 0.6 0.3 -1
v 1 0.3 -1
v -0.3 0.6 0.7
v 0.3 0.6 0.7
v -0.5 0.6 0.6
v -0.3 0.6 0.6
v 0.3 0.6 0.6
v 0.5 0.6 0.6
v -0.6 0.6 0.5
v -0.5 0.6 0.5
v -0.4 0.6 0.5
v -0.3 0.6 0.5
v 0.3 0.6 0.5
v 0.4 0.6 0.5
v 0.5 0.6 0.5
v 0.6 0.6 0.5
v -0.5 0.6 0.4
v -0.4 0.6 0.4
v 0.4 0.6 0.4
v 0.5 0.6 0.4
v -0.7 0.6 0.3
v -0.6 0.6 0.3
v -0.5 0.6 0.3
v 0.5 0.6 0.3
v 0.6 0.6 0.3
v 0.7 0.6 0.3
v -0.7 0.6 -0.3
v -0.6 0.6 -0.3
v -0.5 0.6 -0.3
v 0.5 0.6 -0.3
v 0.6 0.6 -0.3
v 0.7 0.6 -0.3
v -0.5 0.6 -0.4
v -0.4 0.6 -0.4
v 0.4 0.6 -0.4
v 0.5 0.6 -0.4
v -0.6 0.6 -0.5
v -0.5 0.6 -0.5
v -0.4 0.6 -0.5
v -0.3 0.6 -0.5
v 0.3 0.6 -0.5
v 0.4 0.6 -0.5
v 0.5 0.6 -0.5
v 0.6 0.6 -0.5
v -0.5 0.6 -0.6
v -0.3 0.6 -0.6
v 0.3 0.6 -0.6
v 0.5 0.6 -0.6
v -0.3 0.6 -0.7
v 0.3 0.6 -0.7
v -0.3 0.8 0.7
v 0.3 0.8 0.7
v -0.5 0.8 0.6
v -0.3 0.8 0.6
v 0.3 0.8 0.6
v 0.5 0.8 0.6
v -0.6 0.8 0.5
v -0.5 0.8 0.5
v 0.5 0.8 0.5
v 0.6 0.8 0.5
v -0.7 0.8 0.3
v -0.6 0.8 0.3
v 0.6 0.8 0.3
v 0.7 0.8 0.3
v -0.7 0.8 -0.3
v -0.6 0.8 -0.3
v 0.6 0.8 -0.3
v 0.7 0.8 -0.3
v -0.6 0.8 -0.5
v -0.5 0.8 -0.5
v 0.5 0.8 -0.5
v 0.6 0.8 -0.5
v -0.5 0.8 -0.6
v -0.3 0.8 -0.6
v 0.3 0.8 -0.6
v 0.5 0.8 -0.6
v -0.3 0.8 -0.7
v 0.3 0.8 -0.7

# faces
f 3/3/1 2/3/1 1/3/1
f 4/3/1 2/3/1 3/3/1
f 5/3/1 2/3/1 4/3/1
f 6/3/1 2/3/1 5/3/1
f 7/3/1 2/3/1 6/3/1
f 8/3/1 2/3/1 7/3/1
f 9/2/1 4/2/1 3/2/1
f 10/2/1 4/2/1 9/2/1
f 11/2/1 6/2/1 5/2/1
f 12/2/1 6/2/1 11/2/1
f 13/2/1 8/2/1 7/2/1
f 14/2/1 8/2/1 13/2/1
f 19/2/1 16/2/1 15/2/1
f 20/2/1 16/2/1 19/2/1
f 21/2/1 18/2/1 17/2/1
f 22/2/1 18/2/1 21/2/1
f 27/2/1 24/2/1 23/2/1
f 28/2/1 24/2/1 27/2/1
f 29/2/1 26/2/1 25/2/1
f 30/2/1 26/2/1 29/2/1
f 37/2/1 32/2/1 31/2/1
f 38/2/1 32/2/1 37/2/1
f 39/2/1 34/2/1 33/2/1
f 40/2/1 34/2/1 39/2/1
f 41/2/1 36/2/1 35/2/1
f 42/2/1 36/2/1 41/2/1
f 43/2/1 40/2/1 39/2/1
f 44/2/1 40/2/1 43/2/1
f 47/1/1 46/1/1 45/1/1
f 48/1/1 46/1/1 47/1/1
f 53/2/1 50/2/1 49/2/1
f 54/2/1 52/2/1 51/2/1
f 55/2/1 50/2/1 53/2/1
f 56/2/1 50/2/1 55/2/1
f 57/2/1 54/2/1 51/2/1
f 58/2/1 54/2/1 57/2/1
f 60/2/1 57/2/1 56/2/1
f 61/2/1 57/2/1 60/2/1
f 63/1/1 60/1/1 59/1/1
f 64/1/1 60/1/1 63/1/1
f 65/1/1 62/1/1 61/1/1
f 66/1/1 62/1/1 65/1/1
f 75/2/1 68/2/1 67/2/1
f 76/2/1 68/2/1 75/2/1
f 77/2/1 70/2/1 69/2/1
f 78/2/1 72/2/1 71/2/1
f 79/2/1 74/2/1 73/2/1
f 80/2/1 74/2/1 79/2/1
f 81/2/1 70/2/1 77/2/1
f 82/2/1 70/2/1 81/2/1
f 87/2/1 78/2/1 71/2/1
f 88/2/1 78/2/1 87/2/1
f 91/2/1 84/2/1 83/2/1
f 92/2/1 84/2/1 91/2/1
f 93/2/1 86/2/1 85/2/1
f 94/2/1 86/2/1 93/2/1
f 97/1/1 90/1/1 89/1/1
f 98/1/1 90/1/1 97/1/1
f 99/1/1 96/1/1 95/1/1
f 100/1/1 96/1/1 99/1/1
f 105/2/1 102/2/1 101/2/1
f 106/2/1 102/2/1 105/2/1
f 107/2/1 104/2/1 103/2/1
f 108/2/1 104/2/1 107/2/1
f 117/2/1 110/2/1 109/2/1
f 118/2/1 110/2/1 117/2/1
f 119/2/1 112/2/1 111/2/1
f 120/2/1 114/2/1 113/2/1
f 121/2/1 116/2/1 115/2/1
f 122/2/1 116/2/1 121/2/1
f 123/2/1 112/2/1 119/2/1
f 124/2/1 112/2/1 123/2/1
f 127/2/1 120/2/1 113/2/1
f 128/2/1 120/2/1 127/2/1
f 130/2/1 125/2/1 124/2/1
f 131/2/1 125/2/1 130/2/1
f 132/2/1 127/2/1 126/2/1
f 133/2/1 127/2/1 132/2/1
f 135/1/1 130/1/1 129/1/1
f 136/1/1 130/1/1 135/1/1
f 137/1/1 134/1/1 133/1/1
f 138/1/1 134/1/1 137/1/1
f 143/2/1 140/2/1 139/2/1
f 144/2/1 140/2/1 143/2/1
f 145/2/1 142/2/1 141/2/1
f 146/2/1 142/2/1 145/2/1
f 151/2/1 148/2/1 147/2/1
f 152/2/1 148/2/1 151/2/1
f 153/2/1 150/2/1 149/2/1
f 154/2/1 150/2/1 153/2/1
f 163/2/1 156/2/1 155/2/1
f 164/2/1 156/2/1 163/2/1
f 165/2/1 158/2/1 157/2/1
f 166/2/1 158/2/1 165/2/1
f 167/2/1 160/2/1 159/2/1
f 168/2/1 160/2/1 167/2/1
f 169/2/1 162/2/1 161/2/1
f 170/2/1 162/2/1 169/2/1
f 175/2/1 172/2/1 171/2/1
f 176/2/1 172/2/1 175/2/1
f 177/2/1 174/2/1 173/2/1
f 178/2/1 174/2/1 177/2/1
f 185/2/1 180/2/1 179/2/1
f 186/2/1 180/2/1 185/2/1
f 187/2/1 182/2/1 181/2/1
f 188/2/1 182/2/1 187/2/1
f 189/2/1 184/2/1 183/2/1
f 190/2/1 184/2/1 189/2/1
f 195/2/1 192/2/1 191/2/1
f 196/2/1 192/2/1 195/2/1
f 197/2/1 194/2/1 193/2/1
f 198/2/1 194/2/1 197/2/1
f 199/2/2 200/2/2 203/2/2
f 203/2/2 200/2/2 204/2/2
f 201/2/2 202/2/2 205/2/2
f 205/2/2 202/2/2 206/2/2
f 207/2/2 208/2/2 213/2/2
f 213/2/2 208/2/2 214/2/2
f 209/2/2 210/2/2 215/2/2
f 215/2/2 210/2/2 216/2/2
f 211/2/2 212/2/2 217/2/2
f 217/2/2 212/2/2 218/2/2
f 219/2/2 220/2/2 223/2/2
f 223/2/2 220/2/2 224/2/2
f 221/2/2 222/2/2 225/2/2
f 225/2/2 222/2/2 226/2/2
f 227/2/2 228/2/2 235/2/2
f 235/2/2 228/2/2 236/2/2
f 229/2/2 230/2/2 237/2/2
f 237/2/2 230/2/2 238/2/2
f 231/2/2 232/2/2 239/2/2
f 239/2/2 232/2/2 240/2/2
f 233/2/2 234/2/2 241/2/2
f 241/2/2 234/2/2 242/2/2
f 243/2/2 244/2/2 247/2/2
f 247/2/2 244/2/2 248/2/2
f 245/2/2 246/2/2 249/2/2
f 249/2/2 246/2/2 250/2/2
f 251/2/2 252/2/2 255/2/2
f 255/2/2 252/2/2 256/2/2
f 253/2/2 254/2/2 257/2/2
f 257/2/2 254/2/2 258/2/2
f 259/2/2 260/2/2 267/2/2
f 267/2/2 260/2/2 268/2/2
f 261/2/2 262/2/2 269/2/2
f 263/2/2 264/2/2 270/2/2
f 265/2/2 266/2/2 271/2/2
f 271/2/2 266/2/2 272/2/2
f 269/2/2 262/2/2 273/2/2
f 273/2/2 262/2/2 274/2/2
f 263/2/2 270/2/2 277/2/2
f 277/2/2 270/2/2 278/2/2
f 274/2/2 275/2/2 280/2/2
f 280/2/2 275/2/2 281/2/2
f 276/2/2 277/2/2 282/2/2
f 282/2/2 277/2/2 283/2/2
f 279/1/2 280/1/2 285/1/2
f 285/1/2 280/1/2 286/1/2
f 283/1/2 284/1/2 287/1/2
f 287/1/2 284/1/2 288/1/2
f 289/2/2 290/2/2 293/2/2
f 293/2/2 290/2/2 294/2/2
f 291/2/2 292/2/2 295/2/2
f 295/2/2 292/2/2 296/2/2
f 297/2/2 298/2/2 305/2/2
f 305/2/2 298/2/2 306/2/2
f 299/2/2 300/2/2 307/2/2
f 301/2/2 302/2/2 308/2/2
f 303/2/2 304/2/2 309/2/2
f 309/2/2 304/2/2 310/2/2
f 307/2/2 300/2/2 311/2/2
f 311/2/2 300/2/2 312/2/2
f 301/2/2 308/2/2 317/2/2
f 317/2/2 308/2/2 318/2/2
f 313/2/2 314/2/2 321/2/2
f 321/2/2 314/2/2 322/2/2
f 315/2/2 316/2/2 323/2/2
f 323/2/2 316/2/2 324/2/2
f 319/1/2 320/1/2 327/1/2
f 327/1/2 320/1/2 328/1/2
f 325/1/2 326/1/2 329/1/2
f 329/1/2 326/1/2 330/1/2
f 331/2/2 332/2/2 335/2/2
f 333/2/2 334/2/2 336/2/2
f 335/2/2 332/2/2 337/2/2
f 337/2/2 332/2/2 338/2/2
f 333/2/2 336/2/2 339/2/2
f 339/2/2 336/2/2 340/2/2
f 338/2/2 339/2/2 342/2/2
f 342/2/2 339/2/2 343/2/2
f 341/1/2 342/1/2 345/1/2
f 345/1/2 342/1/2 346/1/2
f 343/1/2 344/1/2 347/1/2
f 347/1/2 344/1/2 348/1/2
f 349/2/2 350/2/2 355/2/2
f 355/2/2 350/2/2 356/2/2
f 351/2/2 352/2/2 357/2/2
f 357/2/2 352/2/2 358/2/2
f 353/2/2 354/2/2 359/2/2
f 359/2/2 354/2/2 360/2/2
f 357/2/2 358/2/2 361/2/2
f 361/2/2 358/2/2 362/2/2
f 363/1/2 364/1/2 365/1/2
f 365/1/2 364/1/2 366/1/2
f 367/2/2 368/2/2 371/2/2
f 371/2/2 368/2/2 372/2/2
f 369/2/2 370/2/2 373/2/2
f 373/2/2 370/2/2 374/2/2
f 375/2/2 376/2/2 379/2/2
f 379/2/2 376/2/2 380/2/2
f 377/2/2 378/2/2 381/2/2
f 381/2/2 378/2/2 382/2/2
f 383/3/2 384/3/2 385/3/2
f 385/3/2 384/3/2 386/3/2
f 386/3/2 384/3/2 387/3/2
f 387/3/2 384/3/2 388/3/2
f 388/3/2 384/3/2 389/3/2
f 389/3/2 384/3/2 390/3/2
f 385/2/2 386/2/2 391/2/2
f 391/2/2 386/2/2 392/2/2
f 387/2/2 388/2/2 393/2/2
f 393/2/2 388/2/2 394/2/2
f 389/2/2 390/2/2 395/2/2
f 395/2/2 390/2/2 396/2/2
f 400/3/3 398/3/3 397/3/3
f 400/2/3 399/2/3 398/2/3
f 401/2/3 399/2/3 400/2/3
f 402/3/3 400/3/3 397/3/3
f 404/3/3 402/3/3 397/3/3
f 404/2/3 403/2/3 402/2/3
f 405/2/3 403/2/3 404/2/3
f 406/3/3 404/3/3 397/3/3
f 408/3/3 406/3/3 397/3/3
f 409/2/3 407/2/3 406/2/3
f 409/3/3 406/3/3 408/3/3
f 410/2/3 407/2/3 409/2/3
f 413/2/3 412/2/3 411/2/3
f 414/2/3 412/2/3 413/2/3
f 417/2/3 416/2/3 415/2/3
f 418/2/3 416/2/3 417/2/3
f 421/2/3 420/2/3 419/2/3
f 422/2/3 420/2/3 421/2/3
f 425/2/3 424/2/3 423/2/3
f 426/2/3 424/2/3 425/2/3
f 429/2/3 428/2/3 427/2/3
f 430/2/3 428/2/3 429/2/3
f 436/2/3 432/2/3 431/2/3
f 436/2/3 433/2/3 432/2/3
f 437/2/3 433/2/3 436/2/3
f 438/2/3 433/2/3 437/2/3
f 439/1/3 435/1/3 434/1/3
f 440/1/3 435/1/3 439/1/3
f 443/2/3 442/2/3 441/2/3
f 444/2/3 442/2/3 443/2/3
f 450/2/3 446/2/3 445/2/3
f 450/2/3 447/2/3 446/2/3
f 451/2/3 447/2/3 450/2/3
f 452/1/3 449/1/3 448/1/3
f 453/1/3 449/1/3 452/1/3
f 455/2/3 452/2/3 451/2/3
f 456/2/3 452/2/3 455/2/3
f 458/2/3 455/2/3 454/2/3
f 459/2/3 455/2/3 458/2/3
f 460/2/3 455/2/3 459/2/3
f 461/1/3 457/1/3 456/1/3
f 462/1/3 457/1/3 461/1/3
f 465/2/3 464/2/3 463/2/3
f 466/2/3 464/2/3 465/2/3
f 472/2/3 468/2/3 467/2/3
f 472/2/3 469/2/3 468/2/3
f 473/2/3 469/2/3 472/2/3
f 474/1/3 471/1/3 470/1/3
f 475/1/3 471/1/3 474/1/3
f 478/2/3 477/2/3 476/2/3
f 479/2/3 477/2/3 478/2/3
f 482/2/3 481/2/3 480/2/3
f 483/2/3 481/2/3 482/2/3
f 488/2/3 485/2/3 484/2/3
f 489/2/3 485/2/3 488/2/3
f 490/2/3 485/2/3 489/2/3
f 491/1/3 487/1/3 486/1/3
f 492/1/3 487/1/3 491/1/3
f 495/2/3 494/2/3 493/2/3
f 496/2/3 494/2/3 495/2/3
f 499/2/3 498/2/3 497/2/3
f 500/2/3 498/2/3 499/2/3
f 503/2/3 502/2/3 501/2/3
f 504/2/3 502/2/3 503/2/3
f 507/2/3 506/2/3 505/2/3
f 508/2/3 506/2/3 507/2/3
f 514/2/3 510/2/3 509/2/3
f 514/2/3 511/2/3 510/2/3
f 515/2/3 511/2/3 514/2/3
f 516/1/3 513/1/3 512/1/3
f 517/1/3 513/1/3 516/1/3
f 518/2/3 516/2/3 515/2/3
f 519/2/3 516/2/3 518/2/3
f 523/2/3 521/2/3 520/2/3
f 524/2/3 521/2/3 523/2/3
f 526/2/3 523/2/3 522/2/3
f 527/2/3 523/2/3 526/2/3
f 528/2/3 523/2/3 527/2/3
f 529/1/3 525/1/3 524/1/3
f 530/1/3 525/1/3 529/1/3
f 533/2/3 532/2/3 531/2/3
f 534/2/3 532/2/3 533/2/3
f 537/2/3 536/2/3 535/2/3
f 538/2/3 536/2/3 537/2/3
f 541/2/3 540/2/3 539/2/3
f 542/2/3 540/2/3 541/2/3
f 545/2/3 544/2/3 543/2/3
f 546/2/3 544/2/3 545/2/3
f 549/2/3 548/2/3 547/2/3
f 550/2/3 548/2/3 549/2/3
f 553/2/3 552/2/3 551/2/3
f 554/2/3 552/2/3 553/2/3
f 557/2/3 556/2/3 555/2/3
f 558/2/3 556/2/3 557/2/3
f 561/2/3 560/2/3 559/2/3
f 562/2/3 560/2/3 561/2/3
f 565/2/3 564/2/3 563/2/3
f 566/2/3 564/2/3 565/2/3
f 569/2/3 568/2/3 567/2/3
f 570/2/3 568/2/3 569/2/3
f 573/2/3 572/2/3 571/2/3
f 574/2/3 572/2/3 573/2/3
f 577/2/3 576/2/3 575/2/3
f 578/2/3 576/2/3 577/2/3
f 581/2/3 580/2/3 579/2/3
f 582/2/3 580/2/3 581/2/3
f 585/2/3 584/2/3 583/2/3
f 586/2/3 584/2/3 585/2/3
f 589/2/3 588/2/3 587/2/3
f 590/2/3 588/2/3 589/2/3
f 593/2/3 592/2/3 591/2/3
f 594/2/3 592/2/3 593/2/3
f 595/2/4 596/2/4 597/2/4
f 597/2/4 596/2/4 598/2/4
f 599/2/4 600/2/4 601/2/4
f 601/2/4 600/2/4 602/2/4
f 603/2/4 604/2/4 605/2/4
f 605/2/4 604/2/4 606/2/4
f 607/2/4 608/2/4 609/2/4
f 609/2/4 608/2/4 610/2/4
f 611/2/4 612/2/4 613/2/4
f 613/2/4 612/2/4 614/2/4
f 615/2/4 616/2/4 617/2/4
f 617/2/4 616/2/4 618/2/4
f 619/2/4 620/2/4 621/2/4
f 621/2/4 620/2/4 622/2/4
f 623/2/4 624/2/4 625/2/4
f 625/2/4 624/2/4 626/2/4
f 627/2/4 628/2/4 629/2/4
f 629/2/4 628/2/4 630/2/4
f 631/2/4 632/2/4 633/2/4
f 633/2/4 632/2/4 634/2/4
f 635/2/4 636/2/4 637/2/4
f 637/2/4 636/2/4 638/2/4
f 639/2/4 640/2/4 641/2/4
f 641/2/4 640/2/4 642/2/4
f 643/2/4 644/2/4 645/2/4
f 645/2/4 644/2/4 646/2/4
f 647/2/4 648/2/4 649/2/4
f 649/2/4 648/2/4 650/2/4
f 651/2/4 652/2/4 653/2/4
f 653/2/4 652/2/4 654/2/4
f 655/2/4 656/2/4 657/2/4
f 657/2/4 656/2/4 658/2/4
f 659/2/4 660/2/4 664/2/4
f 660/2/4 661/2/4 664/2/4
f 664/2/4 661/2/4 665/2/4
f 662/1/4 663/1/4 666/1/4
f 666/1/4 663/1/4 667/1/4
f 665/2/4 666/2/4 668/2/4
f 668/2/4 666/2/4 669/2/4
f 670/2/4 671/2/4 673/2/4
f 673/2/4 671/2/4 674/2/4
f 672/2/4 673/2/4 676/2/4
f 676/2/4 673/2/4 677/2/4
f 677/2/4 673/2/4 678/2/4
f 674/1/4 675/1/4 679/1/4
f 679/1/4 675/1/4 680/1/4
f 681/2/4 682/2/4 683/2/4
f 683/2/4 682/2/4 684/2/4
f 685/2/4 686/2/4 687/2/4
f 687/2/4 686/2/4 688/2/4
f 689/2/4 690/2/4 691/2/4
f 691/2/4 690/2/4 692/2/4
f 693/2/4 694/2/4 695/2/4
f 695/2/4 694/2/4 696/2/4
f 697/2/4 698/2/4 702/2/4
f 698/2/4 699/2/4 702/2/4
f 702/2/4 699/2/4 703/2/4
f 700/1/4 701/1/4 704/1/4
f 704/1/4 701/1/4 705/1/4
f 706/2/4 707/2/4 708/2/4
f 708/2/4 707/2/4 709/2/4
f 710/2/4 711/2/4 712/2/4
f 712/2/4 711/2/4 713/2/4
f 714/2/4 715/2/4 718/2/4
f 718/2/4 715/2/4 719/2/4
f 719/2/4 715/2/4 720/2/4
f 716/1/4 717/1/4 721/1/4
f 721/1/4 717/1/4 722/1/4
f 723/2/4 724/2/4 725/2/4
f 725/2/4 724/2/4 726/2/4
f 727/2/4 728/2/4 732/2/4
f 728/2/4 729/2/4 732/2/4
f 732/2/4 729/2/4 733/2/4
f 730/1/4 731/1/4 734/1/4
f 734/1/4 731/1/4 735/1/4
f 733/2/4 734/2/4 737/2/4
f 737/2/4 734/2/4 738/2/4
f 736/2/4 737/2/4 740/2/4
f 740/2/4 737/2/4 741/2/4
f 741/2/4 737/2/4 742/2/4
f 738/1/4 739/1/4 743/1/4
f 743/1/4 739/1/4 744/1/4
f 745/2/4 746/2/4 747/2/4
f 747/2/4 746/2/4 748/2/4
f 749/2/4 750/2/4 754/2/4
f 750/2/4 751/2/4 754/2/4
f 754/2/4 751/2/4 755/2/4
f 755/2/4 751/2/4 756/2/4
f 752/1/4 753/1/4 757/1/4
f 757/1/4 753/1/4 758/1/4
f 759/2/4 760/2/4 761/2/4
f 761/2/4 760/2/4 762/2/4
f 763/2/4 764/2/4 765/2/4
f 765/2/4 764/2/4 766/2/4
f 767/2/4 768/2/4 769/2/4
f 769/2/4 768/2/4 770/2/4
f 771/2/4 772/2/4 773/2/4
f 773/2/4 772/2/4 774/2/4
f 775/2/4 776/2/4 777/2/4
f 777/2/4 776/2/4 778/2/4
f 779/3/4 780/3/4 782/3/4
f 780/2/4 781/2/4 782/2/4
f 782/2/4 781/2/4 783/2/4
f 779/3/4 782/3/4 784/3/4
f 779/3/4 784/3/4 786/3/4
f 784/2/4 785/2/4 786/2/4
f 786/2/4 785/2/4 787/2/4
f 779/3/4 786/3/4 788/3/4
f 779/3/4 788/3/4 790/3/4
f 788/2/4 789/2/4 791/2/4
f 790/3/4 788/3/4 791/3/4
f 791/2/4 789/2/4 792/2/4
f 795/3/5 794/3/5 793/3/5
f 796/3/5 794/3/5 795/3/5
f 800/1/5 798/1/5 797/1/5
f 801/1/5 798/1/5 800/1/5
f 804/1/5 800/1/5 799/1/5
f 805/1/5 800/1/5 804/1/5
f 806/1/5 800/1/5 805/1/5
f 807/1/5 802/1/5 801/1/5
f 808/1/5 802/1/5 807/1/5
f 809/1/5 802/1/5 808/1/5
f 811/1/5 804/1/5 803/1/5
f 811/1/5 805/1/5 804/1/5
f 812/1/5 805/1/5 811/1/5
f 813/1/5 810/1/5 809/1/5
f 813/1/5 809/1/5 808/1/5
f 814/1/5 810/1/5 813/1/5
f 816/1/5 811/1/5 803/1/5
f 817/1/5 811/1/5 816/1/5
f 818/1/5 810/1/5 814/1/5
f 819/1/5 810/1/5 818/1/5
f 821/1/5 816/1/5 815/1/5
f 822/1/5 816/1/5 821/1/5
f 825/1/5 820/1/5 819/1/5
f 826/1/5 820/1/5 825/1/5
f 827/1/5 823/1/5 822/1/5
f 830/1/5 825/1/5 824/1/5
f 831/1/5 828/1/5 827/1/5
f 831/1/5 827/1/5 822/1/5
f 832/1/5 828/1/5 831/1/5
f 833/1/5 828/1/5 832/1/5
f 836/1/5 830/1/5 829/1/5
f 837/1/5 825/1/5 830/1/5
f 837/1/5 830/1/5 836/1/5
f 838/1/5 825/1/5 837/1/5
f 839/1/5 834/1/5 833/1/5
f 839/1/5 833/1/5 832/1/5
f 840/1/5 834/1/5 839/1/5
f 841/1/5 836/1/5 835/1/5
f 841/1/5 837/1/5 836/1/5
f 842/1/5 837/1/5 841/1/5
f 843/1/5 841/1/5 840/1/5
f 844/1/5 841/1/5 843/1/5
f 845/3/6 846/3/6 850/3/6
f 850/3/6 846/3/6 851/3/6
f 851/3/6 846/3/6 852/3/6
f 847/3/6 848/3/6 853/3/6
f 853/3/6 848/3/6 854/3/6
f 854/3/6 848/3/6 855/3/6
f 849/3/6 850/3/6 858/3/6
f 850/3/6 851/3/6 858/3/6
f 858/3/6 851/3/6 859/3/6
f 859/3/6 851/3/6 860/3/6
f 855/3/6 856/3/6 863/3/6
f 854/3/6 855/3/6 863/3/6
f 863/3/6 856/3/6 864/3/6
f 864/3/6 856/3/6 865/3/6
f 857/3/6 858/3/6 867/3/6
f 858/3/6 859/3/6 867/3/6
f 867/3/6 859/3/6 868/3/6
f 861/3/6 862/3/6 870/3/6
f 870/3/6 862/3/6 871/3/6
f 865/3/6 866/3/6 873/3/6
f 864/3/6 865/3/6 873/3/6
f 873/3/6 866/3/6 874/3/6
f 857/3/6 867/3/6 876/3/6
f 869/3/6 870/3/6 878/3/6
f 878/3/6 870/3/6 879/3/6
f 871/3/6 872/3/6 880/3/6
f 880/3/6 872/3/6 881/3/6
f 874/3/6 866/3/6 883/3/6
f 875/3/6 876/3/6 885/3/6
f 876/3/6 867/3/6 885/3/6
f 885/3/6 867/3/6 886/3/6
f 877/3/6 878/3/6 888/3/6
f 888/3/6 878/3/6 889/3/6
f 881/3/6 882/3/6 890/3/6
f 890/3/6 882/3/6 891/3/6
f 883/3/6 884/3/6 893/3/6
f 874/3/6 883/3/6 893/3/6
f 893/3/6 884/3/6 894/3/6
f 875/3/6 885/3/6 895/3/6
f 895/3/6 885/3/6 896/3/6
f 887/3/6 888/3/6 898/3/6
f 898/3/6 888/3/6 899/3/6
f 891/3/6 892/3/6 900/3/6
f 900/3/6 892/3/6 901/3/6
f 894/3/6 884/3/6 903/3/6
f 903/3/6 884/3/6 904/3/6
f 897/3/6 898/3/6 907/3/6
f 907/3/6 898/3/6 908/3/6
f 901/3/6 902/3/6 911/3/6
f 911/3/6 902/3/6 912/3/6
f 905/3/6 906/3/6 915/3/6
f 908/3/6 909/3/6 917/3/6
f 917/3/6 909/3/6 918/3/6
f 910/3/6 911/3/6 921/3/6
f 921/3/6 911/3/6 922/3/6
f 913/3/6 914/3/6 924/3/6
f 915/3/6 916/3/6 925/3/6
f 905/3/6 915/3/6 925/3/6
f 925/3/6 916/3/6 926/3/6
f 918/3/6 919/3/6 927/3/6
f 927/3/6 919/3/6 928/3/6
f 920/3/6 921/3/6 931/3/6
f 931/3/6 921/3/6 932/3/6
f 923/3/6 924/3/6 933/3/6
f 924/3/6 914/3/6 933/3/6
f 933/3/6 914/3/6 934/3/6
f 926/3/6 916/3/6 935/3/6
f 928/3/6 929/3/6 937/3/6
f 937/3/6 929/3/6 938/3/6
f 930/3/6 931/3/6 939/3/6
f 939/3/6 931/3/6 940/3/6
f 923/3/6 933/3/6 942/3/6
f 935/3/6 936/3/6 943/3/6
f 926/3/6 935/3/6 943/3/6
f 943/3/6 936/3/6 944/3/6
f 944/3/6 936/3/6 945/3/6
f 938/3/6 939/3/6 947/3/6
f 947/3/6 939/3/6 948/3/6
f 941/3/6 942/3/6 950/3/6
f 942/3/6 933/3/6 951/3/6
f 950/3/6 942/3/6 951/3/6
f 951/3/6 933/3/6 952/3/6
f 945/3/6 946/3/6 953/3/6
f 944/3/6 945/3/6 953/3/6
f 953/3/6 946/3/6 954/3/6
f 954/3/6 946/3/6 955/3/6
f 949/3/6 950/3/6 958/3/6
f 950/3/6 951/3/6 958/3/6
f 958/3/6 951/3/6 959/3/6
f 959/3/6 951/3/6 960/3/6
f 955/3/6 956/3/6 961/3/6
f 954/3/6 955/3/6 961/3/6
f 961/3/6 956/3/6 962/3/6
f 958/3/6 959/3/6 963/3/6
f 957/3/6 958/3/6 963/3/6
f 963/3/6 959/3/6 964/3/6
f 965/2/6 966/2/6 971/2/6
f 971/2/6 966/2/6 972/2/6
f 967/2/6 968/2/6 974/2/6
f 974/2/6 968/2/6 975/2/6
f 969/2/6 970/2/6 977/2/6
f 977/2/6 970/2/6 978/2/6
f 965/2/6 971/2/6 979/2/6
f 979/2/6 971/2/6 980/2/6
f 975/2/6 976/2/6 982/2/6
f 973/2/6 974/2/6 982/2/6
f 974/2/6 975/2/6 982/2/6
f 982/2/6 976/2/6 983/2/6
f 983/2/6 976/2/6 984/2/6
f 984/2/6 976/2/6 985/2/6
f 978/2/6 970/2/6 987/2/6
f 987/2/6 970/2/6 988/2/6
f 981/2/6 982/2/6 990/2/6
f 982/2/6 983/2/6 990/2/6
f 990/2/6 983/2/6 991/2/6
f 991/2/6 983/2/6 992/2/6
f 985/2/6 986/2/6 993/2/6
f 984/2/6 985/2/6 993/2/6
f 993/2/6 986/2/6 994/2/6
f 994/2/6 986/2/6 995/2/6
f 965/2/6 979/2/6 997/2/6
f 997/2/6 979/2/6 998/2/6
f 990/2/6 991/2/6 999/2/6
f 989/2/6 990/2/6 999/2/6
f 999/2/6 991/2/6 1000/2/6
f 995/2/6 996/2/6 1001/2/6
f 994/2/6 995/2/6 1001/2/6
f 1001/2/6 996/2/6 1002/2/6
f 988/2/6 970/2/6 1003/2/6
f 1003/2/6 970/2/6 1004/2/6
f 989/2/6 999/2/6 1006/2/6
f 1006/2/6 999/2/6 1007/2/6
f 1007/2/6 999/2/6 1008/2/6
f 1002/2/6 996/2/6 1009/2/6
f 1009/2/6 996/2/6 1010/2/6
f 1010/2/6 996/2/6 1011/2/6
f 1005/2/6 1006/2/6 1014/2/6
f 1006/2/6 1007/2/6 1014/2/6
f 1014/2/6 1007/2/6 1015/2/6
f 1015/2/6 1007/2/6 1016/2/6
f 1011/2/6 1012/2/6 1017/2/6
f 1010/2/6 1011/2/6 1017/2/6
f 1017/2/6 1012/2/6 1018/2/6
f 1018/2/6 1012/2/6 1019/2/6
f 1014/2/6 1015/2/6 1021/2/6
f 1013/2/6 1014/2/6 1021/2/6
f 1021/2/6 1015/2/6 1022/2/6
f 1022/2/6 1015/2/6 1023/2/6
f 1019/2/6 1020/2/6 1026/2/6
f 1018/2/6 1019/2/6 1026/2/6
f 1026/2/6 1020/2/6 1027/2/6
f 1027/2/6 1020/2/6 1028/2/6
f 1023/2/6 1024/2/6 1029/2/6
f 1022/2/6 1023/2/6 1029/2/6
f 1029/2/6 1024/2/6 1030/2/6
f 1030/2/6 1024/2/6 1031/2/6
f 1026/2/6 1027/2/6 1034/2/6
f 1025/2/6 1026/2/6 1034/2/6
f 1034/2/6 1027/2/6 1035/2/6
f 1035/2/6 1027/2/6 1036/2/6
f 1031/2/6 1032/2/6 1039/2/6
f 1030/2/6 1031/2/6 1039/2/6
f 1034/2/6 1035/2/6 1042/2/6
f 1033/2/6 1034/2/6 1042/2/6
f 1039/2/6 1040/2/6 1045/2/6
f 1030/2/6 1039/2/6 1045/2/6
f 1045/2/6 1040/2/6 1046/2/6
f 1046/2/6 1040/2/6 1047/2/6
f 1041/2/6 1042/2/6 1050/2/6
f 1042/2/6 1035/2/6 1051/2/6
f 1050/2/6 1042/2/6 1051/2/6
f 1051/2/6 1035/2/6 1052/2/6
f 1037/2/6 1038/2/6 1053/2/6
f 1047/2/6 1048/2/6 1055/2/6
f 1046/2/6 1047/2/6 1055/2/6
f 1055/2/6 1048/2/6 1056/2/6
f 1056/2/6 1048/2/6 1057/2/6
f 1049/2/6 1050/2/6 1058/2/6
f 1050/2/6 1051/2/6 1058/2/6
f 1058/2/6 1051/2/6 1059/2/6
f 1059/2/6 1051/2/6 1060/2/6
f 1043/2/6 1044/2/6 1062/2/6
f 1053/2/6 1054/2/6 1063/2/6
f 1058/2/6 1059/2/6 1065/2/6
f 1056/2/6 1057/2/6 1065/2/6
f 1057/2/6 1058/2/6 1065/2/6
f 1065/2/6 1059/2/6 1066/2/6
f 1066/2/6 1059/2/6 1067/2/6
f 1067/2/6 1059/2/6 1068/2/6
f 1061/2/6 1062/2/6 1070/2/6
f 1063/2/6 1064/2/6 1071/2/6
f 1053/2/6 1063/2/6 1071/2/6
f 1037/2/6 1053/2/6 1071/2/6
f 1071/2/6 1064/2/6 1072/2/6
f 1066/2/6 1067/2/6 1073/2/6
f 1073/2/6 1067/2/6 1074/2/6
f 1069/2/6 1070/2/6 1075/2/6
f 1070/2/6 1062/2/6 1076/2/6
f 1075/2/6 1070/2/6 1076/2/6
f 1062/2/6 1044/2/6 1076/2/6
f 1077/2/6 1078/2/6 1080/2/6
f 1080/2/6 1078/2/6 1081/2/6
f 1079/2/6 1080/2/6 1084/2/6
f 1084/2/6 1080/2/6 1085/2/6
f 1085/2/6 1080/2/6 1086/2/6
f 1081/2/6 1082/2/6 1087/2/6
f 1087/2/6 1082/2/6 1088/2/6
f 1088/2/6 1082/2/6 1089/2/6
f 1083/2/6 1084/2/6 1091/2/6
f 1084/2/6 1085/2/6 1091/2/6
f 1091/2/6 1085/2/6 1092/2/6
f 1089/2/6 1090/2/6 1093/2/6
f 1088/2/6 1089/2/6 1093/2/6
f 1093/2/6 1090/2/6 1094/2/6
f 1083/2/6 1091/2/6 1096/2/6
f 1096/2/6 1091/2/6 1097/2/6
f 1094/2/6 1090/2/6 1098/2/6
f 1098/2/6 1090/2/6 1099/2/6
f 1095/2/6 1096/2/6 1101/2/6
f 1101/2/6 1096/2/6 1102/2/6
f 1099/2/6 1100/2/6 1105/2/6
f 1105/2/6 1100/2/6 1106/2/6
f 1102/2/6 1103/2/6 1107/2/6
f 1104/2/6 1105/2/6 1110/2/6
f 1107/2/6 1108/2/6 1111/2/6
f 1102/2/6 1107/2/6 1111/2/6
f 1111/2/6 1108/2/6 1112/2/6
f 1112/2/6 1108/2/6 1113/2/6
f 1109/2/6 1110/2/6 1116/2/6
f 1110/2/6 1105/2/6 1117/2/6
f 1116/2/6 1110/2/6 1117/2/6
f 1117/2/6 1105/2/6 1118/2/6
f 1113/2/6 1114/2/6 1119/2/6
f 1112/2/6 1113/2/6 1119/2/6
f 1119/2/6 1114/2/6 1120/2/6
f 1115/2/6 1116/2/6 1121/2/6
f 1116/2/6 1117/2/6 1121/2/6
f 1121/2/6 1117/2/6 1122/2/6
f 1120/2/6 1121/2/6 1123/2/6
f 1123/2/6 1121/2/6 1124/2/6
f 1125/1/6 1126/1/6 1128/1/6
f 1128/1/6 1126/1/6 1129/1/6
f 1127/1/6 1128/1/6 1132/1/6
f 1129/1/6 1130/1/6 1132/1/6
f 1128/1/6 1129/1/6 1132/1/6
f 1132/1/6 1130/1/6 1133/1/6
f 1131/1/6 1132/1/6 1136/1/6
f 1133/1/6 1134/1/6 1136/1/6
f 1132/1/6 1133/1/6 1136/1/6
f 1136/1/6 1134/1/6 1137/1/6
f 1135/1/6 1136/1/6 1139/1/6
f 1137/1/6 1138/1/6 1139/1/6
f 1136/1/6 1137/1/6 1139/1/6
f 1139/1/6 1138/1/6 1140/1/6
f 1140/1/6 1138/1/6 1141/1/6
f 1141/1/6 1138/1/6 1142/1/6
f 1140/1/6 1141/1/6 1143/1/6
f 1143/1/6 1141/1/6 1144/1/6
f 1144/1/6 1141/1/6 1145/1/6
f 1145/1/6 1141/1/6 1146/1/6
f 1144/1/6 1145/1/6 1147/1/6
f 1147/1/6 1145/1/6 1148/1/6
f 1148/1/6 1145/1/6 1149/1/6
f 1149/1/6 1145/1/6 1150/1/6
f 1148/1/6 1149/1/6 1151/1/6
f 1151/1/6 1149/1/6 1152/1/6
