# MagicaVoxel @ Ephtracy

# group
o 

# material
mtllib Button.mtl
usemtl palette

# normals
vn -1 0 0
vn 1 0 0
vn 0 0 1
vn 0 0 -1
vn 0 -1 0
vn 0 1 0

# texcoords
vt 0.0253906 0.5
vt 0.0292969 0.5
vt 0.306641 0.5

# verts
v -1 0 1
v -1 0 -1
v -1 0.2 1
v -1 0.2 0.6
v -1 0.2 0.3
v -1 0.2 -0.3
v -1 0.2 -0.6
v -1 0.2 -1
v -1 0.3 1
v -1 0.3 0.6
v -1 0.3 0.3
v -1 0.3 -0.3
v -1 0.3 -0.6
v -1 0.3 -1
v -0.9 0.2 0.5
v -0.9 0.2 0.3
v -0.9 0.2 -0.3
v -0.9 0.2 -0.5
v -0.9 0.3 0.5
v -0.9 0.3 0.3
v -0.9 0.3 -0.3
v -0.9 0.3 -0.5
v -0.8 0.2 0.7
v -0.8 0.2 0.5
v -0.8 0.2 -0.5
v -0.8 0.2 -0.7
v -0.8 0.3 0.7
v -0.8 0.3 0.5
v -0.8 0.3 -0.5
v -0.8 0.3 -0.7
v -0.7 0.2 0.8
v -0.7 0.2 0.7
v -0.7 0.2 0.3
v -0.7 0.2 -0.3
v -0.7 0.2 -0.7
v -0.7 0.2 -0.8
v -0.7 0.3 0.8
v -0.7 0.3 0.7
v -0.7 0.3 0.3
v -0.7 0.3 -0.3
v -0.7 0.3 -0.7
v -0.7 0.3 -0.8
v -0.7 0.6 0.3
v -0.7 0.6 -0.3
v -0.7 0.9 0.3
v -0.7 0.9 -0.3
v -0.7 1 0.3
v -0.7 1 -0.3
v -0.6 0.2 0.5
v -0.6 0.2 0.3
v -0.6 0.2 -0.3
v -0.6 0.2 -0.5
v -0.6 0.3 0.5
v -0.6 0.3 -0.5
v -0.6 0.6 0.5
v -0.6 0.6 0.3
v -0.6 0.6 -0.3
v -0.6 0.6 -0.5
v -0.6 0.7 0.3
v -0.6 0.7 -0.3
v -0.6 0.9 0.5
v -0.6 0.9 0.3
v -0.6 0.9 -0.3
v -0.6 0.9 -0.5
v -0.6 1 0.5
v -0.6 1 0.3
v -0.6 1 -0.3
v -0.6 1 -0.5
v -0.5 0.2 0.9
v -0.5 0.2 0.8
v -0.5 0.2 0.6
v -0.5 0.2 0.5
v -0.5 0.2 -0.5
v -0.5 0.2 -0.6
v -0.5 0.2 -0.8
v -0.5 0.2 -0.9
v -0.5 0.3 0.9
v -0.5 0.3 0.8
v -0.5 0.3 0.6
v -0.5 0.3 -0.6
v -0.5 0.3 -0.8
v -0.5 0.3 -0.9
v -0.5 0.6 0.6
v -0.5 0.6 0.5
v -0.5 0.6 0.4
v -0.5 0.6 0.3
v -0.5 0.6 -0.3
v -0.5 0.6 -0.4
v -0.5 0.6 -0.5
v -0.5 0.6 -0.6
v -0.5 0.7 0.4
v -0.5 0.7 0.3
v -0.5 0.7 -0.3
v -0.5 0.7 -0.4
v -0.5 0.9 0.6
v -0.5 0.9 0.5
v -0.5 0.9 -0.5
v -0.5 0.9 -0.6
v -0.5 1 0.6
v -0.5 1 0.5
v -0.5 1 -0.5
v -0.5 1 -0.6
v -0.4 0.6 0.5
v -0.4 0.6 0.4
v -0.4 0.6 -0.4
v -0.4 0.6 -0.5
v -0.4 0.7 0.5
v -0.4 0.7 0.4
v -0.4 0.7 -0.4
v -0.4 0.7 -0.5
v -0.3 0.2 1
v -0.3 0.2 0.9
v -0.3 0.2 0.7
v -0.3 0.2 0.6
v -0.3 0.2 -0.6
v -0.3 0.2 -0.7
v -0.3 0.2 -0.9
v -0.3 0.2 -1
v -0.3 0.3 1
v -0.3 0.3 0.9
v -0.3 0.3 0.7
v -0.3 0.3 -0.7
v -0.3 0.3 -0.9
v -0.3 0.3 -1
v -0.3 0.6 0.7
v -0.3 0.6 0.6
v -0.3 0.6 0.5
v -0.3 0.6 -0.5
v -0.3 0.6 -0.6
v -0.3 0.6 -0.7
v -0.3 0.7 0.6
v -0.3 0.7 0.5
v -0.3 0.7 -0.5
v -0.3 0.7 -0.6
v -0.3 0.9 0.7
v -0.3 0.9 0.6
v -0.3 0.9 -0.6
v -0.3 0.9 -0.7
v -0.3 1 0.7
v -0.3 1 0.6
v -0.3 1 -0.6
v -0.3 1 -0.7
v -0.1 0.7 0.1
v -0.1 0.7 -0.1
v -0.1 0.9 0.1
v -0.1 0.9 -0.1
v 0.3 0.2 0.8
v 0.3 0.2 0.7
v 0.3 0.2 -0.7
v 0.3 0.2 -0.8
v 0.3 0.3 0.8
v 0.3 0.3 0.7
v 0.3 0.3 -0.7
v 0.3 0.3 -0.8
v 0.5 0.2 0.7
v 0.5 0.2 0.6
v 0.5 0.2 -0.6
v 0.5 0.2 -0.7
v 0.5 0.3 0.7
v 0.5 0.3 0.6
v 0.5 0.3 -0.6
v 0.5 0.3 -0.7
v 0.6 0.2 1
v 0.6 0.2 0.9
v 0.6 0.2 0.6
v 0.6 0.2 0.5
v 0.6 0.2 -0.5
v 0.6 0.2 -0.6
v 0.6 0.2 -0.9
v 0.6 0.2 -1
v 0.6 0.3 1
v 0.6 0.3 0.9
v 0.6 0.3 0.6
v 0.6 0.3 0.5
v 0.6 0.3 -0.5
v 0.6 0.3 -0.6
v 0.6 0.3 -0.9
v 0.6 0.3 -1
v 0.7 0.2 0.5
v 0.7 0.2 0.3
v 0.7 0.2 -0.3
v 0.7 0.2 -0.5
v 0.7 0.3 0.5
v 0.7 0.3 0.3
v 0.7 0.3 -0.3
v 0.7 0.3 -0.5
v 0.8 0.2 0.9
v 0.8 0.2 0.8
v 0.8 0.2 0.3
v 0.8 0.2 -0.3
v 0.8 0.2 -0.8
v 0.8 0.2 -0.9
v 0.8 0.3 0.9
v 0.8 0.3 0.8
v 0.8 0.3 0.3
v 0.8 0.3 -0.3
v 0.8 0.3 -0.8
v 0.8 0.3 -0.9
v 0.9 0.2 0.8
v 0.9 0.2 0.6
v 0.9 0.2 -0.6
v 0.9 0.2 -0.8
v 0.9 0.3 0.8
v 0.9 0.3 0.6
v 0.9 0.3 -0.6
v 0.9 0.3 -0.8
v -0.9 0.2 0.8
v -0.9 0.2 0.6
v -0.9 0.2 -0.6
v -0.9 0.2 -0.8
v -0.9 0.3 0.8
v -0.9 0.3 0.6
v -0.9 0.3 -0.6
v -0.9 0.3 -0.8
v -0.8 0.2 0.9
v -0.8 0.2 0.8
v -0.8 0.2 0.3
v -0.8 0.2 -0.3
v -0.8 0.2 -0.8
v -0.8 0.2 -0.9
v -0.8 0.3 0.9
v -0.8 0.3 0.8
v -0.8 0.3 0.3
v -0.8 0.3 -0.3
v -0.8 0.3 -0.8
v -0.8 0.3 -0.9
v -0.7 0.2 0.5
v -0.7 0.2 0.3
v -0.7 0.2 -0.3
v -0.7 0.2 -0.5
v -0.7 0.3 0.5
v -0.7 0.3 0.3
v -0.7 0.3 -0.3
v -0.7 0.3 -0.5
v -0.6 0.2 1
v -0.6 0.2 0.9
v -0.6 0.2 0.6
v -0.6 0.2 0.5
v -0.6 0.2 -0.5
v -0.6 0.2 -0.6
v -0.6 0.2 -0.9
v -0.6 0.2 -1
v -0.6 0.3 1
v -0.6 0.3 0.9
v -0.6 0.3 0.6
v -0.6 0.3 0.5
v -0.6 0.3 -0.5
v -0.6 0.3 -0.6
v -0.6 0.3 -0.9
v -0.6 0.3 -1
v -0.5 0.2 0.7
v -0.5 0.2 0.6
v -0.5 0.2 -0.6
v -0.5 0.2 -0.7
v -0.5 0.3 0.7
v -0.5 0.3 0.6
v -0.5 0.3 -0.6
v -0.5 0.3 -0.7
v -0.3 0.2 0.8
v -0.3 0.2 0.7
v -0.3 0.2 -0.7
v -0.3 0.2 -0.8
v -0.3 0.3 0.8
v -0.3 0.3 0.7
v -0.3 0.3 -0.7
v -0.3 0.3 -0.8
v 0.1 0.7 0.1
v 0.1 0.7 -0.1
v 0.1 0.9 0.1
v 0.1 0.9 -0.1
v 0.3 0.2 1
v 0.3 0.2 0.9
v 0.3 0.2 0.7
v 0.3 0.2 0.6
v 0.3 0.2 -0.6
v 0.3 0.2 -0.7
v 0.3 0.2 -0.9
v 0.3 0.2 -1
v 0.3 0.3 1
v 0.3 0.3 0.9
v 0.3 0.3 0.7
v 0.3 0.3 -0.7
v 0.3 0.3 -0.9
v 0.3 0.3 -1
v 0.3 0.6 0.7
v 0.3 0.6 0.6
v 0.3 0.6 0.5
v 0.3 0.6 -0.5
v 0.3 0.6 -0.6
v 0.3 0.6 -0.7
v 0.3 0.7 0.6
v 0.3 0.7 0.5
v 0.3 0.7 -0.5
v 0.3 0.7 -0.6
v 0.3 0.9 0.7
v 0.3 0.9 0.6
v 0.3 0.9 -0.6
v 0.3 0.9 -0.7
v 0.3 1 0.7
v 0.3 1 0.6
v 0.3 1 -0.6
v 0.3 1 -0.7
v 0.4 0.6 0.5
v 0.4 0.6 0.4
v 0.4 0.6 -0.4
v 0.4 0.6 -0.5
v 0.4 0.7 0.5
v 0.4 0.7 0.4
v 0.4 0.7 -0.4
v 0.4 0.7 -0.5
v 0.5 0.2 0.9
v 0.5 0.2 0.8
v 0.5 0.2 0.6
v 0.5 0.2 0.5
v 0.5 0.2 -0.5
v 0.5 0.2 -0.6
v 0.5 0.2 -0.8
v 0.5 0.2 -0.9
v 0.5 0.3 0.9
v 0.5 0.3 0.8
v 0.5 0.3 0.6
v 0.5 0.3 -0.6
v 0.5 0.3 -0.8
v 0.5 0.3 -0.9
v 0.5 0.6 0.6
v 0.5 0.6 0.5
v 0.5 0.6 0.4
v 0.5 0.6 0.3
v 0.5 0.6 -0.3
v 0.5 0.6 -0.4
v 0.5 0.6 -0.5
v 0.5 0.6 -0.6
v 0.5 0.7 0.4
v 0.5 0.7 0.3
v 0.5 0.7 -0.3
v 0.5 0.7 -0.4
v 0.5 0.9 0.6
v 0.5 0.9 0.5
v 0.5 0.9 -0.5
v 0.5 0.9 -0.6
v 0.5 1 0.6
v 0.5 1 0.5
v 0.5 1 -0.5
v 0.5 1 -0.6
v 0.6 0.2 0.5
v 0.6 0.2 0.3
v 0.6 0.2 -0.3
v 0.6 0.2 -0.5
v 0.6 0.3 0.5
v 0.6 0.3 -0.5
v 0.6 0.6 0.5
v 0.6 0.6 0.3
v 0.6 0.6 -0.3
v 0.6 0.6 -0.5
v 0.6 0.7 0.3
v 0.6 0.7 -0.3
v 0.6 0.9 0.5
v 0.6 0.9 0.3
v 0.6 0.9 -0.3
v 0.6 0.9 -0.5
v 0.6 1 0.5
v 0.6 1 0.3
v 0.6 1 -0.3
v 0.6 1 -0.5
v 0.7 0.2 0.8
v 0.7 0.2 0.7
v 0.7 0.2 0.3
v 0.7 0.2 -0.3
v 0.7 0.2 -0.7
v 0.7 0.2 -0.8
v 0.7 0.3 0.8
v 0.7 0.3 0.7
v 0.7 0.3 0.3
v 0.7 0.3 -0.3
v 0.7 0.3 -0.7
v 0.7 0.3 -0.8
v 0.7 0.6 0.3
v 0.7 0.6 -0.3
v 0.7 0.9 0.3
v 0.7 0.9 -0.3
v 0.7 1 0.3
v 0.7 1 -0.3
v 0.8 0.2 0.7
v 0.8 0.2 0.5
v 0.8 0.2 -0.5
v 0.8 0.2 -0.7
v 0.8 0.3 0.7
v 0.8 0.3 0.5
v 0.8 0.3 -0.5
v 0.8 0.3 -0.7
v 0.9 0.2 0.5
v 0.9 0.2 0.3
v 0.9 0.2 -0.3
v 0.9 0.2 -0.5
v 0.9 0.3 0.5
v 0.9 0.3 0.3
v 0.9 0.3 -0.3
v 0.9 0.3 -0.5
v 1 0 1
v 1 0 -1
v 1 0.2 1
v 1 0.2 0.6
v 1 0.2 0.3
v 1 0.2 -0.3
v 1 0.2 -0.6
v 1 0.2 -1
v 1 0.3 1
v 1 0.3 0.6
v 1 0.3 0.3
v 1 0.3 -0.3
v 1 0.3 -0.6
v 1 0.3 -1
v -1 0 1
v -1 0.2 1
v -1 0.3 1
v -0.6 0.2 1
v -0.6 0.3 1
v -0.3 0.2 1
v -0.3 0.3 1
v 0.3 0.2 1
v 0.3 0.3 1
v 0.6 0.2 1
v 0.6 0.3 1
v 1 0 1
v 1 0.2 1
v 1 0.3 1
v -0.5 0.2 0.9
v -0.5 0.3 0.9
v -0.3 0.2 0.9
v -0.3 0.3 0.9
v 0.3 0.2 0.9
v 0.3 0.3 0.9
v 0.5 0.2 0.9
v 0.5 0.3 0.9
v -0.7 0.2 0.8
v -0.7 0.3 0.8
v -0.5 0.2 0.8
v -0.5 0.3 0.8
v 0.5 0.2 0.8
v 0.5 0.3 0.8
v 0.7 0.2 0.8
v 0.7 0.3 0.8
v -0.8 0.2 0.7
v -0.8 0.3 0.7
v -0.7 0.2 0.7
v -0.7 0.3 0.7
v -0.3 0.2 0.7
v -0.3 0.3 0.7
v -0.3 0.6 0.7
v -0.3 0.9 0.7
v -0.3 1 0.7
v 0.3 0.2 0.7
v 0.3 0.3 0.7
v 0.3 0.6 0.7
v 0.3 0.9 0.7
v 0.3 1 0.7
v 0.7 0.2 0.7
v 0.7 0.3 0.7
v 0.8 0.2 0.7
v 0.8 0.3 0.7
v -0.5 0.2 0.6
v -0.5 0.3 0.6
v -0.5 0.6 0.6
v -0.5 0.9 0.6
v -0.5 1 0.6
v -0.3 0.2 0.6
v -0.3 0.6 0.6
v -0.3 0.7 0.6
v -0.3 0.9 0.6
v -0.3 1 0.6
v 0.3 0.2 0.6
v 0.3 0.6 0.6
v 0.3 0.7 0.6
v 0.3 0.9 0.6
v 0.3 1 0.6
v 0.5 0.2 0.6
v 0.5 0.3 0.6
v 0.5 0.6 0.6
v 0.5 0.9 0.6
v 0.5 1 0.6
v -0.9 0.2 0.5
v -0.9 0.3 0.5
v -0.8 0.2 0.5
v -0.8 0.3 0.5
v -0.6 0.2 0.5
v -0.6 0.3 0.5
v -0.6 0.6 0.5
v -0.6 0.9 0.5
v -0.6 1 0.5
v -0.5 0.2 0.5
v -0.5 0.6 0.5
v -0.5 0.9 0.5
v -0.5 1 0.5
v -0.4 0.6 0.5
v -0.4 0.7 0.5
v -0.3 0.6 0.5
v -0.3 0.7 0.5
v 0.3 0.6 0.5
v 0.3 0.7 0.5
v 0.4 0.6 0.5
v 0.4 0.7 0.5
v 0.5 0.2 0.5
v 0.5 0.6 0.5
v 0.5 0.9 0.5
v 0.5 1 0.5
v 0.6 0.2 0.5
v 0.6 0.3 0.5
v 0.6 0.6 0.5
v 0.6 0.9 0.5
v 0.6 1 0.5
v 0.8 0.2 0.5
v 0.8 0.3 0.5
v 0.9 0.2 0.5
v 0.9 0.3 0.5
v -0.5 0.6 0.4
v -0.5 0.7 0.4
v -0.4 0.6 0.4
v -0.4 0.7 0.4
v 0.4 0.6 0.4
v 0.4 0.7 0.4
v 0.5 0.6 0.4
v 0.5 0.7 0.4
v -1 0.2 0.3
v -1 0.3 0.3
v -0.9 0.2 0.3
v -0.9 0.3 0.3
v -0.7 0.2 0.3
v -0.7 0.3 0.3
v -0.7 0.6 0.3
v -0.7 0.9 0.3
v -0.7 1 0.3
v -0.6 0.2 0.3
v -0.6 0.6 0.3
v -0.6 0.7 0.3
v -0.6 0.9 0.3
v -0.6 1 0.3
v -0.5 0.6 0.3
v -0.5 0.7 0.3
v 0.5 0.6 0.3
v 0.5 0.7 0.3
v 0.6 0.2 0.3
v 0.6 0.6 0.3
v 0.6 0.7 0.3
v 0.6 0.9 0.3
v 0.6 1 0.3
v 0.7 0.2 0.3
v 0.7 0.3 0.3
v 0.7 0.6 0.3
v 0.7 0.9 0.3
v 0.7 1 0.3
v 0.9 0.2 0.3
v 0.9 0.3 0.3
v 1 0.2 0.3
v 1 0.3 0.3
v -0.1 0.7 0.1
v -0.1 0.9 0.1
v 0.1 0.7 0.1
v 0.1 0.9 0.1
v -0.8 0.2 -0.3
v -0.8 0.3 -0.3
v -0.7 0.2 -0.3
v -0.7 0.3 -0.3
v 0.7 0.2 -0.3
v 0.7 0.3 -0.3
v 0.8 0.2 -0.3
v 0.8 0.3 -0.3
v -0.7 0.2 -0.5
v -0.7 0.3 -0.5
v -0.6 0.2 -0.5
v -0.6 0.3 -0.5
v 0.6 0.2 -0.5
v 0.6 0.3 -0.5
v 0.7 0.2 -0.5
v 0.7 0.3 -0.5
v -1 0.2 -0.6
v -1 0.3 -0.6
v -0.9 0.2 -0.6
v -0.9 0.3 -0.6
v -0.6 0.2 -0.6
v -0.6 0.3 -0.6
v -0.5 0.2 -0.6
v -0.5 0.3 -0.6
v 0.5 0.2 -0.6
v 0.5 0.3 -0.6
v 0.6 0.2 -0.6
v 0.6 0.3 -0.6
v 0.9 0.2 -0.6
v 0.9 0.3 -0.6
v 1 0.2 -0.6
v 1 0.3 -0.6
v -0.5 0.2 -0.7
v -0.5 0.3 -0.7
v -0.3 0.2 -0.7
v -0.3 0.3 -0.7
v 0.3 0.2 -0.7
v 0.3 0.3 -0.7
v 0.5 0.2 -0.7
v 0.5 0.3 -0.7
v -0.9 0.2 -0.8
v -0.9 0.3 -0.8
v -0.8 0.2 -0.8
v -0.8 0.3 -0.8
v -0.3 0.2 -0.8
v -0.3 0.3 -0.8
v 0.3 0.2 -0.8
v 0.3 0.3 -0.8
v 0.8 0.2 -0.8
v 0.8 0.3 -0.8
v 0.9 0.2 -0.8
v 0.9 0.3 -0.8
v -0.8 0.2 -0.9
v -0.8 0.3 -0.9
v -0.6 0.2 -0.9
v -0.6 0.3 -0.9
v 0.6 0.2 -0.9
v 0.6 0.3 -0.9
v 0.8 0.2 -0.9
v 0.8 0.3 -0.9
v -0.8 0.2 0.9
v -0.8 0.3 0.9
v -0.6 0.2 0.9
v -0.6 0.3 0.9
v 0.6 0.2 0.9
v 0.6 0.3 0.9
v 0.8 0.2 0.9
v 0.8 0.3 0.9
v -0.9 0.2 0.8
v -0.9 0.3 0.8
v -0.8 0.2 0.8
v -0.8 0.3 0.8
v -0.3 0.2 0.8
v -0.3 0.3 0.8
v 0.3 0.2 0.8
v 0.3 0.3 0.8
v 0.8 0.2 0.8
v 0.8 0.3 0.8
v 0.9 0.2 0.8
v 0.9 0.3 0.8
v -0.5 0.2 0.7
v -0.5 0.3 0.7
v -0.3 0.2 0.7
v -0.3 0.3 0.7
v 0.3 0.2 0.7
v 0.3 0.3 0.7
v 0.5 0.2 0.7
v 0.5 0.3 0.7
v -1 0.2 0.6
v -1 0.3 0.6
v -0.9 0.2 0.6
v -0.9 0.3 0.6
v -0.6 0.2 0.6
v -0.6 0.3 0.6
v -0.5 0.2 0.6
v -0.5 0.3 0.6
v 0.5 0.2 0.6
v 0.5 0.3 0.6
v 0.6 0.2 0.6
v 0.6 0.3 0.6
v 0.9 0.2 0.6
v 0.9 0.3 0.6
v 1 0.2 0.6
v 1 0.3 0.6
v -0.7 0.2 0.5
v -0.7 0.3 0.5
v -0.6 0.2 0.5
v -0.6 0.3 0.5
v 0.6 0.2 0.5
v 0.6 0.3 0.5
v 0.7 0.2 0.5
v 0.7 0.3 0.5
v -0.8 0.2 0.3
v -0.8 0.3 0.3
v -0.7 0.2 0.3
v -0.7 0.3 0.3
v 0.7 0.2 0.3
v 0.7 0.3 0.3
v 0.8 0.2 0.3
v 0.8 0.3 0.3
v -0.1 0.7 -0.1
v -0.1 0.9 -0.1
v 0.1 0.7 -0.1
v 0.1 0.9 -0.1
v -1 0.2 -0.3
v -1 0.3 -0.3
v -0.9 0.2 -0.3
v -0.9 0.3 -0.3
v -0.7 0.2 -0.3
v -0.7 0.3 -0.3
v -0.7 0.6 -0.3
v -0.7 0.9 -0.3
v -0.7 1 -0.3
v -0.6 0.2 -0.3
v -0.6 0.6 -0.3
v -0.6 0.7 -0.3
v -0.6 0.9 -0.3
v -0.6 1 -0.3
v -0.5 0.6 -0.3
v -0.5 0.7 -0.3
v 0.5 0.6 -0.3
v 0.5 0.7 -0.3
v 0.6 0.2 -0.3
v 0.6 0.6 -0.3
v 0.6 0.7 -0.3
v 0.6 0.9 -0.3
v 0.6 1 -0.3
v 0.7 0.2 -0.3
v 0.7 0.3 -0.3
v 0.7 0.6 -0.3
v 0.7 0.9 -0.3
v 0.7 1 -0.3
v 0.9 0.2 -0.3
v 0.9 0.3 -0.3
v 1 0.2 -0.3
v 1 0.3 -0.3
v -0.5 0.6 -0.4
v -0.5 0.7 -0.4
v -0.4 0.6 -0.4
v -0.4 0.7 -0.4
v 0.4 0.6 -0.4
v 0.4 0.7 -0.4
v 0.5 0.6 -0.4
v 0.5 0.7 -0.4
v -0.9 0.2 -0.5
v -0.9 0.3 -0.5
v -0.8 0.2 -0.5
v -0.8 0.3 -0.5
v -0.6 0.2 -0.5
v -0.6 0.3 -0.5
v -0.6 0.6 -0.5
v -0.6 0.9 -0.5
v -0.6 1 -0.5
v -0.5 0.2 -0.5
v -0.5 0.6 -0.5
v -0.5 0.9 -0.5
v -0.5 1 -0.5
v -0.4 0.6 -0.5
v -0.4 0.7 -0.5
v -0.3 0.6 -0.5
v -0.3 0.7 -0.5
v 0.3 0.6 -0.5
v 0.3 0.7 -0.5
v 0.4 0.6 -0.5
v 0.4 0.7 -0.5
v 0.5 0.2 -0.5
v 0.5 0.6 -0.5
v 0.5 0.9 -0.5
v 0.5 1 -0.5
v 0.6 0.2 -0.5
v 0.6 0.3 -0.5
v 0.6 0.6 -0.5
v 0.6 0.9 -0.5
v 0.6 1 -0.5
v 0.8 0.2 -0.5
v 0.8 0.3 -0.5
v 0.9 0.2 -0.5
v 0.9 0.3 -0.5
v -0.5 0.2 -0.6
v -0.5 0.3 -0.6
v -0.5 0.6 -0.6
v -0.5 0.9 -0.6
v -0.5 1 -0.6
v -0.3 0.2 -0.6
v -0.3 0.6 -0.6
v -0.3 0.7 -0.6
v -0.3 0.9 -0.6
v -0.3 1 -0.6
v 0.3 0.2 -0.6
v 0.3 0.6 -0.6
v 0.3 0.7 -0.6
v 0.3 0.9 -0.6
v 0.3 1 -0.6
v 0.5 0.2 -0.6
v 0.5 0.3 -0.6
v 0.5 0.6 -0.6
v 0.5 0.9 -0.6
v 0.5 1 -0.6
v -0.8 0.2 -0.7
v -0.8 0.3 -0.7
v -0.7 0.2 -0.7
v -0.7 0.3 -0.7
v -0.3 0.2 -0.7
v -0.3 0.3 -0.7
v -0.3 0.6 -0.7
v -0.3 0.9 -0.7
v -0.3 1 -0.7
v 0.3 0.2 -0.7
v 0.3 0.3 -0.7
v 0.3 0.6 -0.7
v 0.3 0.9 -0.7
v 0.3 1 -0.7
v 0.7 0.2 -0.7
v 0.7 0.3 -0.7
v 0.8 0.2 -0.7
v 0.8 0.3 -0.7
v -0.7 0.2 -0.8
v -0.7 0.3 -0.8
v -0.5 0.2 -0.8
v -0.5 0.3 -0.8
v 0.5 0.2 -0.8
v 0.5 0.3 -0.8
v 0.7 0.2 -0.8
v 0.7 0.3 -0.8
v -0.5 0.2 -0.9
v -0.5 0.3 -0.9
v -0.3 0.2 -0.9
v -0.3 0.3 -0.9
v 0.3 0.2 -0.9
v 0.3 0.3 -0.9
v 0.5 0.2 -0.9
v 0.5 0.3 -0.9
v -1 0 -1
v -1 0.2 -1
v -1 0.3 -1
v -0.6 0.2 -1
v -0.6 0.3 -1
v -0.3 0.2 -1
v -0.3 0.3 -1
v 0.3 0.2 -1
v 0.3 0.3 -1
v 0.6 0.2 -1
v 0.6 0.3 -1
v 1 0 -1
v 1 0.2 -1
v 1 0.3 -1
v -1 0 1
v 1 0 1
v -1 0 -1
v 1 0 -1
v -0.3 0.9 0.7
v 0.3 0.9 0.7
v -0.5 0.9 0.6
v -0.3 0.9 0.6
v 0.3 0.9 0.6
v 0.5 0.9 0.6
v -0.6 0.9 0.5
v -0.5 0.9 0.5
v 0.5 0.9 0.5
v 0.6 0.9 0.5
v -0.7 0.9 0.3
v -0.6 0.9 0.3
v 0.6 0.9 0.3
v 0.7 0.9 0.3
v -0.1 0.9 0.1
v 0.1 0.9 0.1
v -0.1 0.9 -0.1
v 0.1 0.9 -0.1
v -0.7 0.9 -0.3
v -0.6 0.9 -0.3
v 0.6 0.9 -0.3
v 0.7 0.9 -0.3
v -0.6 0.9 -0.5
v -0.5 0.9 -0.5
v 0.5 0.9 -0.5
v 0.6 0.9 -0.5
v -0.5 0.9 -0.6
v -0.3 0.9 -0.6
v 0.3 0.9 -0.6
v 0.5 0.9 -0.6
v -0.3 0.9 -0.7
v 0.3 0.9 -0.7
v -0.6 0.2 1
v -0.3 0.2 1
v 0.3 0.2 1
v 0.6 0.2 1
v -0.8 0.2 0.9
v -0.6 0.2 0.9
v -0.5 0.2 0.9
v -0.3 0.2 0.9
v 0.3 0.2 0.9
v 0.5 0.2 0.9
v 0.6 0.2 0.9
v 0.8 0.2 0.9
v -0.9 0.2 0.8
v -0.8 0.2 0.8
v -0.7 0.2 0.8
v -0.5 0.2 0.8
v -0.3 0.2 0.8
v 0.3 0.2 0.8
v 0.5 0.2 0.8
v 0.7 0.2 0.8
v 0.8 0.2 0.8
v 0.9 0.2 0.8
v -0.8 0.2 0.7
v -0.7 0.2 0.7
v -0.5 0.2 0.7
v -0.3 0.2 0.7
v 0.3 0.2 0.7
v 0.5 0.2 0.7
v 0.7 0.2 0.7
v 0.8 0.2 0.7
v -1 0.2 0.6
v -0.9 0.2 0.6
v -0.6 0.2 0.6
v -0.5 0.2 0.6
v -0.3 0.2 0.6
v 0.3 0.2 0.6
v 0.5 0.2 0.6
v 0.6 0.2 0.6
v 0.9 0.2 0.6
v 1 0.2 0.6
v -0.9 0.2 0.5
v -0.8 0.2 0.5
v -0.7 0.2 0.5
v -0.6 0.2 0.5
v -0.5 0.2 0.5
v 0.5 0.2 0.5
v 0.6 0.2 0.5
v 0.7 0.2 0.5
v 0.8 0.2 0.5
v 0.9 0.2 0.5
v -1 0.2 0.3
v -0.9 0.2 0.3
v -0.8 0.2 0.3
v -0.7 0.2 0.3
v -0.6 0.2 0.3
v 0.6 0.2 0.3
v 0.7 0.2 0.3
v 0.8 0.2 0.3
v 0.9 0.2 0.3
v 1 0.2 0.3
v -1 0.2 -0.3
v -0.9 0.2 -0.3
v -0.8 0.2 -0.3
v -0.7 0.2 -0.3
v -0.6 0.2 -0.3
v 0.6 0.2 -0.3
v 0.7 0.2 -0.3
v 0.8 0.2 -0.3
v 0.9 0.2 -0.3
v 1 0.2 -0.3
v -0.9 0.2 -0.5
v -0.8 0.2 -0.5
v -0.7 0.2 -0.5
v -0.6 0.2 -0.5
v -0.5 0.2 -0.5
v 0.5 0.2 -0.5
v 0.6 0.2 -0.5
v 0.7 0.2 -0.5
v 0.8 0.2 -0.5
v 0.9 0.2 -0.5
v -1 0.2 -0.6
v -0.9 0.2 -0.6
v -0.6 0.2 -0.6
v -0.5 0.2 -0.6
v -0.3 0.2 -0.6
v 0.3 0.2 -0.6
v 0.5 0.2 -0.6
v 0.6 0.2 -0.6
v 0.9 0.2 -0.6
v 1 0.2 -0.6
v -0.8 0.2 -0.7
v -0.7 0.2 -0.7
v -0.5 0.2 -0.7
v -0.3 0.2 -0.7
v 0.3 0.2 -0.7
v 0.5 0.2 -0.7
v 0.7 0.2 -0.7
v 0.8 0.2 -0.7
v -0.9 0.2 -0.8
v -0.8 0.2 -0.8
v -0.7 0.2 -0.8
v -0.5 0.2 -0.8
v -0.3 0.2 -0.8
v 0.3 0.2 -0.8
v 0.5 0.2 -0.8
v 0.7 0.2 -0.8
v 0.8 0.2 -0.8
v 0.9 0.2 -0.8
v -0.8 0.2 -0.9
v -0.6 0.2 -0.9
v -0.5 0.2 -0.9
v -0.3 0.2 -0.9
v 0.3 0.2 -0.9
v 0.5 0.2 -0.9
v 0.6 0.2 -0.9
v 0.8 0.2 -0.9
v -0.6 0.2 -1
v -0.3 0.2 -1
v 0.3 0.2 -1
v 0.6 0.2 -1
v -1 0.3 1
v -0.6 0.3 1
v -0.3 0.3 1
v 0.3 0.3 1
v 0.6 0.3 1
v 1 0.3 1
v -0.8 0.3 0.9
v -0.6 0.3 0.9
v -0.5 0.3 0.9
v -0.3 0.3 0.9
v 0.3 0.3 0.9
v 0.5 0.3 0.9
v 0.6 0.3 0.9
v 0.8 0.3 0.9
v -0.9 0.3 0.8
v -0.8 0.3 0.8
v -0.7 0.3 0.8
v -0.5 0.3 0.8
v -0.3 0.3 0.8
v 0.3 0.3 0.8
v 0.5 0.3 0.8
v 0.7 0.3 0.8
v 0.8 0.3 0.8
v 0.9 0.3 0.8
v -0.8 0.3 0.7
v -0.7 0.3 0.7
v -0.5 0.3 0.7
v -0.3 0.3 0.7
v 0.3 0.3 0.7
v 0.5 0.3 0.7
v 0.7 0.3 0.7
v 0.8 0.3 0.7
v -1 0.3 0.6
v -0.9 0.3 0.6
v -0.6 0.3 0.6
v -0.5 0.3 0.6
v 0.5 0.3 0.6
v 0.6 0.3 0.6
v 0.9 0.3 0.6
v 1 0.3 0.6
v -0.9 0.3 0.5
v -0.8 0.3 0.5
v -0.7 0.3 0.5
v -0.6 0.3 0.5
v 0.6 0.3 0.5
v 0.7 0.3 0.5
v 0.8 0.3 0.5
v 0.9 0.3 0.5
v -1 0.3 0.3
v -0.9 0.3 0.3
v -0.8 0.3 0.3
v -0.7 0.3 0.3
v 0.7 0.3 0.3
v 0.8 0.3 0.3
v 0.9 0.3 0.3
v 1 0.3 0.3
v -1 0.3 -0.3
v -0.9 0.3 -0.3
v -0.8 0.3 -0.3
v -0.7 0.3 -0.3
v 0.7 0.3 -0.3
v 0.8 0.3 -0.3
v 0.9 0.3 -0.3
v 1 0.3 -0.3
v -0.9 0.3 -0.5
v -0.8 0.3 -0.5
v -0.7 0.3 -0.5
v -0.6 0.3 -0.5
v 0.6 0.3 -0.5
v 0.7 0.3 -0.5
v 0.8 0.3 -0.5
v 0.9 0.3 -0.5
v -1 0.3 -0.6
v -0.9 0.3 -0.6
v -0.6 0.3 -0.6
v -0.5 0.3 -0.6
v 0.5 0.3 -0.6
v 0.6 0.3 -0.6
v 0.9 0.3 -0.6
v 1 0.3 -0.6
v -0.8 0.3 -0.7
v -0.7 0.3 -0.7
v -0.5 0.3 -0.7
v -0.3 0.3 -0.7
v 0.3 0.3 -0.7
v 0.5 0.3 -0.7
v 0.7 0.3 -0.7
v 0.8 0.3 -0.7
v -0.9 0.3 -0.8
v -0.8 0.3 -0.8
v -0.7 0.3 -0.8
v -0.5 0.3 -0.8
v -0.3 0.3 -0.8
v 0.3 0.3 -0.8
v 0.5 0.3 -0.8
v 0.7 0.3 -0.8
v 0.8 0.3 -0.8
v 0.9 0.3 -0.8
v -0.8 0.3 -0.9
v -0.6 0.3 -0.9
v -0.5 0.3 -0.9
v -0.3 0.3 -0.9
v 0.3 0.3 -0.9
v 0.5 0.3 -0.9
v 0.6 0.3 -0.9
v 0.8 0.3 -0.9
v -1 0.3 -1
v -0.6 0.3 -1
v -0.3 0.3 -1
v 0.3 0.3 -1
v 0.6 0.3 -1
v 1 0.3 -1
v -0.3 0.6 0.7
v 0.3 0.6 0.7
v -0.5 0.6 0.6
v -0.3 0.6 0.6
v 0.3 0.6 0.6
v 0.5 0.6 0.6
v -0.6 0.6 0.5
v -0.5 0.6 0.5
v -0.4 0.6 0.5
v -0.3 0.6 0.5
v 0.3 0.6 0.5
v 0.4 0.6 0.5
v 0.5 0.6 0.5
v 0.6 0.6 0.5
v -0.5 0.6 0.4
v -0.4 0.6 0.4
v 0.4 0.6 0.4
v 0.5 0.6 0.4
v -0.7 0.6 0.3
v -0.6 0.6 0.3
v -0.5 0.6 0.3
v 0.5 0.6 0.3
v 0.6 0.6 0.3
v 0.7 0.6 0.3
v -0.7 0.6 -0.3
v -0.6 0.6 -0.3
v -0.5 0.6 -0.3
v 0.5 0.6 -0.3
v 0.6 0.6 -0.3
v 0.7 0.6 -0.3
v -0.5 0.6 -0.4
v -0.4 0.6 -0.4
v 0.4 0.6 -0.4
v 0.5 0.6 -0.4
v -0.6 0.6 -0.5
v -0.5 0.6 -0.5
v -0.4 0.6 -0.5
v -0.3 0.6 -0.5
v 0.3 0.6 -0.5
v 0.4 0.6 -0.5
v 0.5 0.6 -0.5
v 0.6 0.6 -0.5
v -0.5 0.6 -0.6
v -0.3 0.6 -0.6
v 0.3 0.6 -0.6
v 0.5 0.6 -0.6
v -0.3 0.6 -0.7
v 0.3 0.6 -0.7
v -0.3 0.7 0.6
v 0.3 0.7 0.6
v -0.4 0.7 0.5
v -0.3 0.7 0.5
v 0.3 0.7 0.5
v 0.4 0.7 0.5
v -0.5 0.7 0.4
v -0.4 0.7 0.4
v 0.4 0.7 0.4
v 0.5 0.7 0.4
v -0.6 0.7 0.3
v -0.5 0.7 0.3
v 0.5 0.7 0.3
v 0.6 0.7 0.3
v -0.1 0.7 0.1
v 0.1 0.7 0.1
v -0.1 0.7 -0.1
v 0.1 0.7 -0.1
v -0.6 0.7 -0.3
v -0.5 0.7 -0.3
v 0.5 0.7 -0.3
v 0.6 0.7 -0.3
v -0.5 0.7 -0.4
v -0.4 0.7 -0.4
v 0.4 0.7 -0.4
v 0.5 0.7 -0.4
v -0.4 0.7 -0.5
v -0.3 0.7 -0.5
v 0.3 0.7 -0.5
v 0.4 0.7 -0.5
v -0.3 0.7 -0.6
v 0.3 0.7 -0.6
v -0.3 1 0.7
v 0.3 1 0.7
v -0.5 1 0.6
v -0.3 1 0.6
v 0.3 1 0.6
v 0.5 1 0.6
v -0.6 1 0.5
v -0.5 1 0.5
v 0.5 1 0.5
v 0.6 1 0.5
v -0.7 1 0.3
v -0.6 1 0.3
v 0.6 1 0.3
v 0.7 1 0.3
v -0.7 1 -0.3
v -0.6 1 -0.3
v 0.6 1 -0.3
v 0.7 1 -0.3
v -0.6 1 -0.5
v -0.5 1 -0.5
v 0.5 1 -0.5
v 0.6 1 -0.5
v -0.5 1 -0.6
v -0.3 1 -0.6
v 0.3 1 -0.6
v 0.5 1 -0.6
v -0.3 1 -0.7
v 0.3 1 -0.7

# faces
f 3/3/1 2/3/1 1/3/1
f 4/3/1 2/3/1 3/3/1
f 5/3/1 2/3/1 4/3/1
f 6/3/1 2/3/1 5/3/1
f 7/3/1 2/3/1 6/3/1
f 8/3/1 2/3/1 7/3/1
f 9/2/1 4/2/1 3/2/1
f 10/2/1 4/2/1 9/2/1
f 11/2/1 6/2/1 5/2/1
f 12/2/1 6/2/1 11/2/1
f 13/2/1 8/2/1 7/2/1
f 14/2/1 8/2/1 13/2/1
f 19/2/1 16/2/1 15/2/1
f 20/2/1 16/2/1 19/2/1
f 21/2/1 18/2/1 17/2/1
f 22/2/1 18/2/1 21/2/1
f 27/2/1 24/2/1 23/2/1
f 28/2/1 24/2/1 27/2/1
f 29/2/1 26/2/1 25/2/1
f 30/2/1 26/2/1 29/2/1
f 37/2/1 32/2/1 31/2/1
f 38/2/1 32/2/1 37/2/1
f 39/2/1 34/2/1 33/2/1
f 40/2/1 34/2/1 39/2/1
f 41/2/1 36/2/1 35/2/1
f 42/2/1 36/2/1 41/2/1
f 43/2/1 40/2/1 39/2/1
f 44/2/1 40/2/1 43/2/1
f 47/1/1 46/1/1 45/1/1
f 48/1/1 46/1/1 47/1/1
f 53/2/1 50/2/1 49/2/1
f 54/2/1 52/2/1 51/2/1
f 55/2/1 50/2/1 53/2/1
f 56/2/1 50/2/1 55/2/1
f 57/2/1 54/2/1 51/2/1
f 58/2/1 54/2/1 57/2/1
f 59/2/1 57/2/1 56/2/1
f 60/2/1 57/2/1 59/2/1
f 65/1/1 62/1/1 61/1/1
f 66/1/1 62/1/1 65/1/1
f 67/1/1 64/1/1 63/1/1
f 68/1/1 64/1/1 67/1/1
f 77/2/1 70/2/1 69/2/1
f 78/2/1 70/2/1 77/2/1
f 79/2/1 72/2/1 71/2/1
f 80/2/1 74/2/1 73/2/1
f 81/2/1 76/2/1 75/2/1
f 82/2/1 76/2/1 81/2/1
f 83/2/1 72/2/1 79/2/1
f 84/2/1 72/2/1 83/2/1
f 89/2/1 80/2/1 73/2/1
f 90/2/1 80/2/1 89/2/1
f 91/2/1 86/2/1 85/2/1
f 92/2/1 86/2/1 91/2/1
f 93/2/1 88/2/1 87/2/1
f 94/2/1 88/2/1 93/2/1
f 99/1/1 96/1/1 95/1/1
f 100/1/1 96/1/1 99/1/1
f 101/1/1 98/1/1 97/1/1
f 102/1/1 98/1/1 101/1/1
f 107/2/1 104/2/1 103/2/1
f 108/2/1 104/2/1 107/2/1
f 109/2/1 106/2/1 105/2/1
f 110/2/1 106/2/1 109/2/1
f 119/2/1 112/2/1 111/2/1
f 120/2/1 112/2/1 119/2/1
f 121/2/1 114/2/1 113/2/1
f 122/2/1 116/2/1 115/2/1
f 123/2/1 118/2/1 117/2/1
f 124/2/1 118/2/1 123/2/1
f 125/2/1 114/2/1 121/2/1
f 126/2/1 114/2/1 125/2/1
f 129/2/1 122/2/1 115/2/1
f 130/2/1 122/2/1 129/2/1
f 131/2/1 127/2/1 126/2/1
f 132/2/1 127/2/1 131/2/1
f 133/2/1 129/2/1 128/2/1
f 134/2/1 129/2/1 133/2/1
f 139/1/1 136/1/1 135/1/1
f 140/1/1 136/1/1 139/1/1
f 141/1/1 138/1/1 137/1/1
f 142/1/1 138/1/1 141/1/1
f 145/3/1 144/3/1 143/3/1
f 146/3/1 144/3/1 145/3/1
f 151/2/1 148/2/1 147/2/1
f 152/2/1 148/2/1 151/2/1
f 153/2/1 150/2/1 149/2/1
f 154/2/1 150/2/1 153/2/1
f 159/2/1 156/2/1 155/2/1
f 160/2/1 156/2/1 159/2/1
f 161/2/1 158/2/1 157/2/1
f 162/2/1 158/2/1 161/2/1
f 171/2/1 164/2/1 163/2/1
f 172/2/1 164/2/1 171/2/1
f 173/2/1 166/2/1 165/2/1
f 174/2/1 166/2/1 173/2/1
f 175/2/1 168/2/1 167/2/1
f 176/2/1 168/2/1 175/2/1
f 177/2/1 170/2/1 169/2/1
f 178/2/1 170/2/1 177/2/1
f 183/2/1 180/2/1 179/2/1
f 184/2/1 180/2/1 183/2/1
f 185/2/1 182/2/1 181/2/1
f 186/2/1 182/2/1 185/2/1
f 193/2/1 188/2/1 187/2/1
f 194/2/1 188/2/1 193/2/1
f 195/2/1 190/2/1 189/2/1
f 196/2/1 190/2/1 195/2/1
f 197/2/1 192/2/1 191/2/1
f 198/2/1 192/2/1 197/2/1
f 203/2/1 200/2/1 199/2/1
f 204/2/1 200/2/1 203/2/1
f 205/2/1 202/2/1 201/2/1
f 206/2/1 202/2/1 205/2/1
f 207/2/2 208/2/2 211/2/2
f 211/2/2 208/2/2 212/2/2
f 209/2/2 210/2/2 213/2/2
f 213/2/2 210/2/2 214/2/2
f 215/2/2 216/2/2 221/2/2
f 221/2/2 216/2/2 222/2/2
f 217/2/2 218/2/2 223/2/2
f 223/2/2 218/2/2 224/2/2
f 219/2/2 220/2/2 225/2/2
f 225/2/2 220/2/2 226/2/2
f 227/2/2 228/2/2 231/2/2
f 231/2/2 228/2/2 232/2/2
f 229/2/2 230/2/2 233/2/2
f 233/2/2 230/2/2 234/2/2
f 235/2/2 236/2/2 243/2/2
f 243/2/2 236/2/2 244/2/2
f 237/2/2 238/2/2 245/2/2
f 245/2/2 238/2/2 246/2/2
f 239/2/2 240/2/2 247/2/2
f 247/2/2 240/2/2 248/2/2
f 241/2/2 242/2/2 249/2/2
f 249/2/2 242/2/2 250/2/2
f 251/2/2 252/2/2 255/2/2
f 255/2/2 252/2/2 256/2/2
f 253/2/2 254/2/2 257/2/2
f 257/2/2 254/2/2 258/2/2
f 259/2/2 260/2/2 263/2/2
f 263/2/2 260/2/2 264/2/2
f 261/2/2 262/2/2 265/2/2
f 265/2/2 262/2/2 266/2/2
f 267/3/2 268/3/2 269/3/2
f 269/3/2 268/3/2 270/3/2
f 271/2/2 272/2/2 279/2/2
f 279/2/2 272/2/2 280/2/2
f 273/2/2 274/2/2 281/2/2
f 275/2/2 276/2/2 282/2/2
f 277/2/2 278/2/2 283/2/2
f 283/2/2 278/2/2 284/2/2
f 281/2/2 274/2/2 285/2/2
f 285/2/2 274/2/2 286/2/2
f 275/2/2 282/2/2 289/2/2
f 289/2/2 282/2/2 290/2/2
f 286/2/2 287/2/2 291/2/2
f 291/2/2 287/2/2 292/2/2
f 288/2/2 289/2/2 293/2/2
f 293/2/2 289/2/2 294/2/2
f 295/1/2 296/1/2 299/1/2
f 299/1/2 296/1/2 300/1/2
f 297/1/2 298/1/2 301/1/2
f 301/1/2 298/1/2 302/1/2
f 303/2/2 304/2/2 307/2/2
f 307/2/2 304/2/2 308/2/2
f 305/2/2 306/2/2 309/2/2
f 309/2/2 306/2/2 310/2/2
f 311/2/2 312/2/2 319/2/2
f 319/2/2 312/2/2 320/2/2
f 313/2/2 314/2/2 321/2/2
f 315/2/2 316/2/2 322/2/2
f 317/2/2 318/2/2 323/2/2
f 323/2/2 318/2/2 324/2/2
f 321/2/2 314/2/2 325/2/2
f 325/2/2 314/2/2 326/2/2
f 315/2/2 322/2/2 331/2/2
f 331/2/2 322/2/2 332/2/2
f 327/2/2 328/2/2 333/2/2
f 333/2/2 328/2/2 334/2/2
f 329/2/2 330/2/2 335/2/2
f 335/2/2 330/2/2 336/2/2
f 337/1/2 338/1/2 341/1/2
f 341/1/2 338/1/2 342/1/2
f 339/1/2 340/1/2 343/1/2
f 343/1/2 340/1/2 344/1/2
f 345/2/2 346/2/2 349/2/2
f 347/2/2 348/2/2 350/2/2
f 349/2/2 346/2/2 351/2/2
f 351/2/2 346/2/2 352/2/2
f 347/2/2 350/2/2 353/2/2
f 353/2/2 350/2/2 354/2/2
f 352/2/2 353/2/2 355/2/2
f 355/2/2 353/2/2 356/2/2
f 357/1/2 358/1/2 361/1/2
f 361/1/2 358/1/2 362/1/2
f 359/1/2 360/1/2 363/1/2
f 363/1/2 360/1/2 364/1/2
f 365/2/2 366/2/2 371/2/2
f 371/2/2 366/2/2 372/2/2
f 367/2/2 368/2/2 373/2/2
f 373/2/2 368/2/2 374/2/2
f 369/2/2 370/2/2 375/2/2
f 375/2/2 370/2/2 376/2/2
f 373/2/2 374/2/2 377/2/2
f 377/2/2 374/2/2 378/2/2
f 379/1/2 380/1/2 381/1/2
f 381/1/2 380/1/2 382/1/2
f 383/2/2 384/2/2 387/2/2
f 387/2/2 384/2/2 388/2/2
f 385/2/2 386/2/2 389/2/2
f 389/2/2 386/2/2 390/2/2
f 391/2/2 392/2/2 395/2/2
f 395/2/2 392/2/2 396/2/2
f 393/2/2 394/2/2 397/2/2
f 397/2/2 394/2/2 398/2/2
f 399/3/2 400/3/2 401/3/2
f 401/3/2 400/3/2 402/3/2
f 402/3/2 400/3/2 403/3/2
f 403/3/2 400/3/2 404/3/2
f 404/3/2 400/3/2 405/3/2
f 405/3/2 400/3/2 406/3/2
f 401/2/2 402/2/2 407/2/2
f 407/2/2 402/2/2 408/2/2
f 403/2/2 404/2/2 409/2/2
f 409/2/2 404/2/2 410/2/2
f 405/2/2 406/2/2 411/2/2
f 411/2/2 406/2/2 412/2/2
f 416/3/3 414/3/3 413/3/3
f 416/2/3 415/2/3 414/2/3
f 417/2/3 415/2/3 416/2/3
f 418/3/3 416/3/3 413/3/3
f 420/3/3 418/3/3 413/3/3
f 420/2/3 419/2/3 418/2/3
f 421/2/3 419/2/3 420/2/3
f 422/3/3 420/3/3 413/3/3
f 424/3/3 422/3/3 413/3/3
f 425/2/3 423/2/3 422/2/3
f 425/3/3 422/3/3 424/3/3
f 426/2/3 423/2/3 425/2/3
f 429/2/3 428/2/3 427/2/3
f 430/2/3 428/2/3 429/2/3
f 433/2/3 432/2/3 431/2/3
f 434/2/3 432/2/3 433/2/3
f 437/2/3 436/2/3 435/2/3
f 438/2/3 436/2/3 437/2/3
f 441/2/3 440/2/3 439/2/3
f 442/2/3 440/2/3 441/2/3
f 445/2/3 444/2/3 443/2/3
f 446/2/3 444/2/3 445/2/3
f 452/2/3 448/2/3 447/2/3
f 452/2/3 449/2/3 448/2/3
f 453/2/3 449/2/3 452/2/3
f 454/2/3 449/2/3 453/2/3
f 455/1/3 451/1/3 450/1/3
f 456/1/3 451/1/3 455/1/3
f 459/2/3 458/2/3 457/2/3
f 460/2/3 458/2/3 459/2/3
f 466/2/3 462/2/3 461/2/3
f 466/2/3 463/2/3 462/2/3
f 467/2/3 463/2/3 466/2/3
f 469/1/3 465/1/3 464/1/3
f 470/1/3 465/1/3 469/1/3
f 472/2/3 468/2/3 467/2/3
f 473/2/3 468/2/3 472/2/3
f 476/2/3 472/2/3 471/2/3
f 477/2/3 472/2/3 476/2/3
f 478/2/3 472/2/3 477/2/3
f 479/1/3 475/1/3 474/1/3
f 480/1/3 475/1/3 479/1/3
f 483/2/3 482/2/3 481/2/3
f 484/2/3 482/2/3 483/2/3
f 490/2/3 486/2/3 485/2/3
f 490/2/3 487/2/3 486/2/3
f 491/2/3 487/2/3 490/2/3
f 492/1/3 489/1/3 488/1/3
f 493/1/3 489/1/3 492/1/3
f 496/2/3 495/2/3 494/2/3
f 497/2/3 495/2/3 496/2/3
f 500/2/3 499/2/3 498/2/3
f 501/2/3 499/2/3 500/2/3
f 506/2/3 503/2/3 502/2/3
f 507/2/3 503/2/3 506/2/3
f 508/2/3 503/2/3 507/2/3
f 509/1/3 505/1/3 504/1/3
f 510/1/3 505/1/3 509/1/3
f 513/2/3 512/2/3 511/2/3
f 514/2/3 512/2/3 513/2/3
f 517/2/3 516/2/3 515/2/3
f 518/2/3 516/2/3 517/2/3
f 521/2/3 520/2/3 519/2/3
f 522/2/3 520/2/3 521/2/3
f 525/2/3 524/2/3 523/2/3
f 526/2/3 524/2/3 525/2/3
f 532/2/3 528/2/3 527/2/3
f 532/2/3 529/2/3 528/2/3
f 533/2/3 529/2/3 532/2/3
f 535/1/3 531/1/3 530/1/3
f 536/1/3 531/1/3 535/1/3
f 537/2/3 534/2/3 533/2/3
f 538/2/3 534/2/3 537/2/3
f 542/2/3 540/2/3 539/2/3
f 543/2/3 540/2/3 542/2/3
f 546/2/3 542/2/3 541/2/3
f 547/2/3 542/2/3 546/2/3
f 548/2/3 542/2/3 547/2/3
f 549/1/3 545/1/3 544/1/3
f 550/1/3 545/1/3 549/1/3
f 553/2/3 552/2/3 551/2/3
f 554/2/3 552/2/3 553/2/3
f 557/3/3 556/3/3 555/3/3
f 558/3/3 556/3/3 557/3/3
f 561/2/3 560/2/3 559/2/3
f 562/2/3 560/2/3 561/2/3
f 565/2/3 564/2/3 563/2/3
f 566/2/3 564/2/3 565/2/3
f 569/2/3 568/2/3 567/2/3
f 570/2/3 568/2/3 569/2/3
f 573/2/3 572/2/3 571/2/3
f 574/2/3 572/2/3 573/2/3
f 577/2/3 576/2/3 575/2/3
f 578/2/3 576/2/3 577/2/3
f 581/2/3 580/2/3 579/2/3
f 582/2/3 580/2/3 581/2/3
f 585/2/3 584/2/3 583/2/3
f 586/2/3 584/2/3 585/2/3
f 589/2/3 588/2/3 587/2/3
f 590/2/3 588/2/3 589/2/3
f 593/2/3 592/2/3 591/2/3
f 594/2/3 592/2/3 593/2/3
f 597/2/3 596/2/3 595/2/3
f 598/2/3 596/2/3 597/2/3
f 601/2/3 600/2/3 599/2/3
f 602/2/3 600/2/3 601/2/3
f 605/2/3 604/2/3 603/2/3
f 606/2/3 604/2/3 605/2/3
f 609/2/3 608/2/3 607/2/3
f 610/2/3 608/2/3 609/2/3
f 613/2/3 612/2/3 611/2/3
f 614/2/3 612/2/3 613/2/3
f 617/2/3 616/2/3 615/2/3
f 618/2/3 616/2/3 617/2/3
f 619/2/4 620/2/4 621/2/4
f 621/2/4 620/2/4 622/2/4
f 623/2/4 624/2/4 625/2/4
f 625/2/4 624/2/4 626/2/4
f 627/2/4 628/2/4 629/2/4
f 629/2/4 628/2/4 630/2/4
f 631/2/4 632/2/4 633/2/4
f 633/2/4 632/2/4 634/2/4
f 635/2/4 636/2/4 637/2/4
f 637/2/4 636/2/4 638/2/4
f 639/2/4 640/2/4 641/2/4
f 641/2/4 640/2/4 642/2/4
f 643/2/4 644/2/4 645/2/4
f 645/2/4 644/2/4 646/2/4
f 647/2/4 648/2/4 649/2/4
f 649/2/4 648/2/4 650/2/4
f 651/2/4 652/2/4 653/2/4
f 653/2/4 652/2/4 654/2/4
f 655/2/4 656/2/4 657/2/4
f 657/2/4 656/2/4 658/2/4
f 659/2/4 660/2/4 661/2/4
f 661/2/4 660/2/4 662/2/4
f 663/2/4 664/2/4 665/2/4
f 665/2/4 664/2/4 666/2/4
f 667/2/4 668/2/4 669/2/4
f 669/2/4 668/2/4 670/2/4
f 671/2/4 672/2/4 673/2/4
f 673/2/4 672/2/4 674/2/4
f 675/2/4 676/2/4 677/2/4
f 677/2/4 676/2/4 678/2/4
f 679/3/4 680/3/4 681/3/4
f 681/3/4 680/3/4 682/3/4
f 683/2/4 684/2/4 685/2/4
f 685/2/4 684/2/4 686/2/4
f 687/2/4 688/2/4 692/2/4
f 688/2/4 689/2/4 692/2/4
f 692/2/4 689/2/4 693/2/4
f 690/1/4 691/1/4 695/1/4
f 695/1/4 691/1/4 696/1/4
f 693/2/4 694/2/4 697/2/4
f 697/2/4 694/2/4 698/2/4
f 699/2/4 700/2/4 702/2/4
f 702/2/4 700/2/4 703/2/4
f 701/2/4 702/2/4 706/2/4
f 706/2/4 702/2/4 707/2/4
f 707/2/4 702/2/4 708/2/4
f 704/1/4 705/1/4 709/1/4
f 709/1/4 705/1/4 710/1/4
f 711/2/4 712/2/4 713/2/4
f 713/2/4 712/2/4 714/2/4
f 715/2/4 716/2/4 717/2/4
f 717/2/4 716/2/4 718/2/4
f 719/2/4 720/2/4 721/2/4
f 721/2/4 720/2/4 722/2/4
f 723/2/4 724/2/4 725/2/4
f 725/2/4 724/2/4 726/2/4
f 727/2/4 728/2/4 732/2/4
f 728/2/4 729/2/4 732/2/4
f 732/2/4 729/2/4 733/2/4
f 730/1/4 731/1/4 734/1/4
f 734/1/4 731/1/4 735/1/4
f 736/2/4 737/2/4 738/2/4
f 738/2/4 737/2/4 739/2/4
f 740/2/4 741/2/4 742/2/4
f 742/2/4 741/2/4 743/2/4
f 744/2/4 745/2/4 748/2/4
f 748/2/4 745/2/4 749/2/4
f 749/2/4 745/2/4 750/2/4
f 746/1/4 747/1/4 751/1/4
f 751/1/4 747/1/4 752/1/4
f 753/2/4 754/2/4 755/2/4
f 755/2/4 754/2/4 756/2/4
f 757/2/4 758/2/4 762/2/4
f 758/2/4 759/2/4 762/2/4
f 762/2/4 759/2/4 763/2/4
f 760/1/4 761/1/4 765/1/4
f 765/1/4 761/1/4 766/1/4
f 763/2/4 764/2/4 768/2/4
f 768/2/4 764/2/4 769/2/4
f 767/2/4 768/2/4 772/2/4
f 772/2/4 768/2/4 773/2/4
f 773/2/4 768/2/4 774/2/4
f 770/1/4 771/1/4 775/1/4
f 775/1/4 771/1/4 776/1/4
f 777/2/4 778/2/4 779/2/4
f 779/2/4 778/2/4 780/2/4
f 781/2/4 782/2/4 786/2/4
f 782/2/4 783/2/4 786/2/4
f 786/2/4 783/2/4 787/2/4
f 787/2/4 783/2/4 788/2/4
f 784/1/4 785/1/4 789/1/4
f 789/1/4 785/1/4 790/1/4
f 791/2/4 792/2/4 793/2/4
f 793/2/4 792/2/4 794/2/4
f 795/2/4 796/2/4 797/2/4
f 797/2/4 796/2/4 798/2/4
f 799/2/4 800/2/4 801/2/4
f 801/2/4 800/2/4 802/2/4
f 803/2/4 804/2/4 805/2/4
f 805/2/4 804/2/4 806/2/4
f 807/2/4 808/2/4 809/2/4
f 809/2/4 808/2/4 810/2/4
f 811/3/4 812/3/4 814/3/4
f 812/2/4 813/2/4 814/2/4
f 814/2/4 813/2/4 815/2/4
f 811/3/4 814/3/4 816/3/4
f 811/3/4 816/3/4 818/3/4
f 816/2/4 817/2/4 818/2/4
f 818/2/4 817/2/4 819/2/4
f 811/3/4 818/3/4 820/3/4
f 811/3/4 820/3/4 822/3/4
f 820/2/4 821/2/4 823/2/4
f 822/3/4 820/3/4 823/3/4
f 823/2/4 821/2/4 824/2/4
f 827/3/5 826/3/5 825/3/5
f 828/3/5 826/3/5 827/3/5
f 832/1/5 830/1/5 829/1/5
f 833/1/5 830/1/5 832/1/5
f 836/1/5 832/1/5 831/1/5
f 836/1/5 834/1/5 833/1/5
f 836/1/5 833/1/5 832/1/5
f 837/1/5 834/1/5 836/1/5
f 840/1/5 836/1/5 835/1/5
f 840/1/5 838/1/5 837/1/5
f 840/1/5 837/1/5 836/1/5
f 841/1/5 838/1/5 840/1/5
f 843/1/5 840/1/5 839/1/5
f 843/1/5 842/1/5 841/1/5
f 843/1/5 841/1/5 840/1/5
f 844/1/5 842/1/5 843/1/5
f 845/1/5 843/1/5 839/1/5
f 846/1/5 842/1/5 844/1/5
f 847/1/5 845/1/5 839/1/5
f 847/1/5 846/1/5 845/1/5
f 848/1/5 846/1/5 847/1/5
f 849/1/5 842/1/5 846/1/5
f 849/1/5 846/1/5 848/1/5
f 850/1/5 842/1/5 849/1/5
f 851/1/5 849/1/5 848/1/5
f 852/1/5 849/1/5 851/1/5
f 853/1/5 849/1/5 852/1/5
f 854/1/5 849/1/5 853/1/5
f 855/1/5 853/1/5 852/1/5
f 856/1/5 853/1/5 855/1/5
f 857/1/5 853/1/5 856/1/5
f 858/1/5 853/1/5 857/1/5
f 859/1/5 857/1/5 856/1/5
f 860/1/5 857/1/5 859/1/5
f 861/3/6 862/3/6 866/3/6
f 866/3/6 862/3/6 867/3/6
f 867/3/6 862/3/6 868/3/6
f 863/3/6 864/3/6 869/3/6
f 869/3/6 864/3/6 870/3/6
f 870/3/6 864/3/6 871/3/6
f 865/3/6 866/3/6 874/3/6
f 866/3/6 867/3/6 874/3/6
f 874/3/6 867/3/6 875/3/6
f 875/3/6 867/3/6 876/3/6
f 871/3/6 872/3/6 879/3/6
f 870/3/6 871/3/6 879/3/6
f 879/3/6 872/3/6 880/3/6
f 880/3/6 872/3/6 881/3/6
f 873/3/6 874/3/6 883/3/6
f 874/3/6 875/3/6 883/3/6
f 883/3/6 875/3/6 884/3/6
f 877/3/6 878/3/6 886/3/6
f 886/3/6 878/3/6 887/3/6
f 881/3/6 882/3/6 889/3/6
f 880/3/6 881/3/6 889/3/6
f 889/3/6 882/3/6 890/3/6
f 873/3/6 883/3/6 892/3/6
f 885/3/6 886/3/6 894/3/6
f 894/3/6 886/3/6 895/3/6
f 887/3/6 888/3/6 896/3/6
f 896/3/6 888/3/6 897/3/6
f 890/3/6 882/3/6 899/3/6
f 891/3/6 892/3/6 901/3/6
f 892/3/6 883/3/6 901/3/6
f 901/3/6 883/3/6 902/3/6
f 893/3/6 894/3/6 904/3/6
f 904/3/6 894/3/6 905/3/6
f 897/3/6 898/3/6 906/3/6
f 906/3/6 898/3/6 907/3/6
f 899/3/6 900/3/6 909/3/6
f 890/3/6 899/3/6 909/3/6
f 909/3/6 900/3/6 910/3/6
f 891/3/6 901/3/6 911/3/6
f 911/3/6 901/3/6 912/3/6
f 903/3/6 904/3/6 914/3/6
f 914/3/6 904/3/6 915/3/6
f 907/3/6 908/3/6 916/3/6
f 916/3/6 908/3/6 917/3/6
f 910/3/6 900/3/6 919/3/6
f 919/3/6 900/3/6 920/3/6
f 913/3/6 914/3/6 923/3/6
f 923/3/6 914/3/6 924/3/6
f 917/3/6 918/3/6 927/3/6
f 927/3/6 918/3/6 928/3/6
f 921/3/6 922/3/6 931/3/6
f 924/3/6 925/3/6 933/3/6
f 933/3/6 925/3/6 934/3/6
f 926/3/6 927/3/6 937/3/6
f 937/3/6 927/3/6 938/3/6
f 929/3/6 930/3/6 940/3/6
f 931/3/6 932/3/6 941/3/6
f 921/3/6 931/3/6 941/3/6
f 941/3/6 932/3/6 942/3/6
f 934/3/6 935/3/6 943/3/6
f 943/3/6 935/3/6 944/3/6
f 936/3/6 937/3/6 947/3/6
f 947/3/6 937/3/6 948/3/6
f 939/3/6 940/3/6 949/3/6
f 940/3/6 930/3/6 949/3/6
f 949/3/6 930/3/6 950/3/6
f 942/3/6 932/3/6 951/3/6
f 944/3/6 945/3/6 953/3/6
f 953/3/6 945/3/6 954/3/6
f 946/3/6 947/3/6 955/3/6
f 955/3/6 947/3/6 956/3/6
f 939/3/6 949/3/6 958/3/6
f 951/3/6 952/3/6 959/3/6
f 942/3/6 951/3/6 959/3/6
f 959/3/6 952/3/6 960/3/6
f 960/3/6 952/3/6 961/3/6
f 954/3/6 955/3/6 963/3/6
f 963/3/6 955/3/6 964/3/6
f 957/3/6 958/3/6 966/3/6
f 958/3/6 949/3/6 967/3/6
f 966/3/6 958/3/6 967/3/6
f 967/3/6 949/3/6 968/3/6
f 961/3/6 962/3/6 969/3/6
f 960/3/6 961/3/6 969/3/6
f 969/3/6 962/3/6 970/3/6
f 970/3/6 962/3/6 971/3/6
f 965/3/6 966/3/6 974/3/6
f 966/3/6 967/3/6 974/3/6
f 974/3/6 967/3/6 975/3/6
f 975/3/6 967/3/6 976/3/6
f 971/3/6 972/3/6 977/3/6
f 970/3/6 971/3/6 977/3/6
f 977/3/6 972/3/6 978/3/6
f 974/3/6 975/3/6 979/3/6
f 973/3/6 974/3/6 979/3/6
f 979/3/6 975/3/6 980/3/6
f 981/2/6 982/2/6 987/2/6
f 987/2/6 982/2/6 988/2/6
f 983/2/6 984/2/6 990/2/6
f 990/2/6 984/2/6 991/2/6
f 985/2/6 986/2/6 993/2/6
f 993/2/6 986/2/6 994/2/6
f 981/2/6 987/2/6 995/2/6
f 995/2/6 987/2/6 996/2/6
f 991/2/6 992/2/6 998/2/6
f 989/2/6 990/2/6 998/2/6
f 990/2/6 991/2/6 998/2/6
f 998/2/6 992/2/6 999/2/6
f 999/2/6 992/2/6 1000/2/6
f 1000/2/6 992/2/6 1001/2/6
f 994/2/6 986/2/6 1003/2/6
f 1003/2/6 986/2/6 1004/2/6
f 997/2/6 998/2/6 1006/2/6
f 998/2/6 999/2/6 1006/2/6
f 1006/2/6 999/2/6 1007/2/6
f 1007/2/6 999/2/6 1008/2/6
f 1001/2/6 1002/2/6 1009/2/6
f 1000/2/6 1001/2/6 1009/2/6
f 1009/2/6 1002/2/6 1010/2/6
f 1010/2/6 1002/2/6 1011/2/6
f 981/2/6 995/2/6 1013/2/6
f 1013/2/6 995/2/6 1014/2/6
f 1006/2/6 1007/2/6 1015/2/6
f 1005/2/6 1006/2/6 1015/2/6
f 1015/2/6 1007/2/6 1016/2/6
f 1011/2/6 1012/2/6 1017/2/6
f 1010/2/6 1011/2/6 1017/2/6
f 1017/2/6 1012/2/6 1018/2/6
f 1004/2/6 986/2/6 1019/2/6
f 1019/2/6 986/2/6 1020/2/6
f 1005/2/6 1015/2/6 1022/2/6
f 1022/2/6 1015/2/6 1023/2/6
f 1023/2/6 1015/2/6 1024/2/6
f 1018/2/6 1012/2/6 1025/2/6
f 1025/2/6 1012/2/6 1026/2/6
f 1026/2/6 1012/2/6 1027/2/6
f 1021/2/6 1022/2/6 1030/2/6
f 1022/2/6 1023/2/6 1030/2/6
f 1030/2/6 1023/2/6 1031/2/6
f 1031/2/6 1023/2/6 1032/2/6
f 1027/2/6 1028/2/6 1033/2/6
f 1026/2/6 1027/2/6 1033/2/6
f 1033/2/6 1028/2/6 1034/2/6
f 1034/2/6 1028/2/6 1035/2/6
f 1030/2/6 1031/2/6 1037/2/6
f 1029/2/6 1030/2/6 1037/2/6
f 1037/2/6 1031/2/6 1038/2/6
f 1038/2/6 1031/2/6 1039/2/6
f 1035/2/6 1036/2/6 1042/2/6
f 1034/2/6 1035/2/6 1042/2/6
f 1042/2/6 1036/2/6 1043/2/6
f 1043/2/6 1036/2/6 1044/2/6
f 1039/2/6 1040/2/6 1045/2/6
f 1038/2/6 1039/2/6 1045/2/6
f 1045/2/6 1040/2/6 1046/2/6
f 1046/2/6 1040/2/6 1047/2/6
f 1042/2/6 1043/2/6 1050/2/6
f 1041/2/6 1042/2/6 1050/2/6
f 1050/2/6 1043/2/6 1051/2/6
f 1051/2/6 1043/2/6 1052/2/6
f 1047/2/6 1048/2/6 1055/2/6
f 1046/2/6 1047/2/6 1055/2/6
f 1050/2/6 1051/2/6 1058/2/6
f 1049/2/6 1050/2/6 1058/2/6
f 1055/2/6 1056/2/6 1061/2/6
f 1046/2/6 1055/2/6 1061/2/6
f 1061/2/6 1056/2/6 1062/2/6
f 1062/2/6 1056/2/6 1063/2/6
f 1057/2/6 1058/2/6 1066/2/6
f 1058/2/6 1051/2/6 1067/2/6
f 1066/2/6 1058/2/6 1067/2/6
f 1067/2/6 1051/2/6 1068/2/6
f 1053/2/6 1054/2/6 1069/2/6
f 1063/2/6 1064/2/6 1071/2/6
f 1062/2/6 1063/2/6 1071/2/6
f 1071/2/6 1064/2/6 1072/2/6
f 1072/2/6 1064/2/6 1073/2/6
f 1065/2/6 1066/2/6 1074/2/6
f 1066/2/6 1067/2/6 1074/2/6
f 1074/2/6 1067/2/6 1075/2/6
f 1075/2/6 1067/2/6 1076/2/6
f 1059/2/6 1060/2/6 1078/2/6
f 1069/2/6 1070/2/6 1079/2/6
f 1074/2/6 1075/2/6 1081/2/6
f 1072/2/6 1073/2/6 1081/2/6
f 1073/2/6 1074/2/6 1081/2/6
f 1081/2/6 1075/2/6 1082/2/6
f 1082/2/6 1075/2/6 1083/2/6
f 1083/2/6 1075/2/6 1084/2/6
f 1077/2/6 1078/2/6 1086/2/6
f 1079/2/6 1080/2/6 1087/2/6
f 1069/2/6 1079/2/6 1087/2/6
f 1053/2/6 1069/2/6 1087/2/6
f 1087/2/6 1080/2/6 1088/2/6
f 1082/2/6 1083/2/6 1089/2/6
f 1089/2/6 1083/2/6 1090/2/6
f 1085/2/6 1086/2/6 1091/2/6
f 1086/2/6 1078/2/6 1092/2/6
f 1091/2/6 1086/2/6 1092/2/6
f 1078/2/6 1060/2/6 1092/2/6
f 1093/2/6 1094/2/6 1096/2/6
f 1096/2/6 1094/2/6 1097/2/6
f 1095/2/6 1096/2/6 1100/2/6
f 1100/2/6 1096/2/6 1101/2/6
f 1101/2/6 1096/2/6 1102/2/6
f 1097/2/6 1098/2/6 1103/2/6
f 1103/2/6 1098/2/6 1104/2/6
f 1104/2/6 1098/2/6 1105/2/6
f 1099/2/6 1100/2/6 1107/2/6
f 1100/2/6 1101/2/6 1107/2/6
f 1107/2/6 1101/2/6 1108/2/6
f 1105/2/6 1106/2/6 1109/2/6
f 1104/2/6 1105/2/6 1109/2/6
f 1109/2/6 1106/2/6 1110/2/6
f 1099/2/6 1107/2/6 1112/2/6
f 1112/2/6 1107/2/6 1113/2/6
f 1110/2/6 1106/2/6 1114/2/6
f 1114/2/6 1106/2/6 1115/2/6
f 1111/2/6 1112/2/6 1117/2/6
f 1117/2/6 1112/2/6 1118/2/6
f 1115/2/6 1116/2/6 1121/2/6
f 1121/2/6 1116/2/6 1122/2/6
f 1118/2/6 1119/2/6 1123/2/6
f 1120/2/6 1121/2/6 1126/2/6
f 1123/2/6 1124/2/6 1127/2/6
f 1118/2/6 1123/2/6 1127/2/6
f 1127/2/6 1124/2/6 1128/2/6
f 1128/2/6 1124/2/6 1129/2/6
f 1125/2/6 1126/2/6 1132/2/6
f 1126/2/6 1121/2/6 1133/2/6
f 1132/2/6 1126/2/6 1133/2/6
f 1133/2/6 1121/2/6 1134/2/6
f 1129/2/6 1130/2/6 1135/2/6
f 1128/2/6 1129/2/6 1135/2/6
f 1135/2/6 1130/2/6 1136/2/6
f 1131/2/6 1132/2/6 1137/2/6
f 1132/2/6 1133/2/6 1137/2/6
f 1137/2/6 1133/2/6 1138/2/6
f 1136/2/6 1137/2/6 1139/2/6
f 1139/2/6 1137/2/6 1140/2/6
f 1141/2/6 1142/2/6 1144/2/6
f 1144/2/6 1142/2/6 1145/2/6
f 1143/2/6 1144/2/6 1148/2/6
f 1145/2/6 1146/2/6 1148/2/6
f 1144/2/6 1145/2/6 1148/2/6
f 1148/2/6 1146/2/6 1149/2/6
f 1147/2/6 1148/2/6 1152/2/6
f 1149/2/6 1150/2/6 1152/2/6
f 1148/2/6 1149/2/6 1152/2/6
f 1152/2/6 1150/2/6 1153/2/6
f 1151/2/6 1152/2/6 1155/2/6
f 1153/2/6 1154/2/6 1155/2/6
f 1152/2/6 1153/2/6 1155/2/6
f 1155/2/6 1154/2/6 1156/2/6
f 1151/2/6 1155/2/6 1157/2/6
f 1156/2/6 1154/2/6 1158/2/6
f 1151/2/6 1157/2/6 1159/2/6
f 1157/2/6 1158/2/6 1159/2/6
f 1159/2/6 1158/2/6 1160/2/6
f 1158/2/6 1154/2/6 1161/2/6
f 1160/2/6 1158/2/6 1161/2/6
f 1161/2/6 1154/2/6 1162/2/6
f 1160/2/6 1161/2/6 1163/2/6
f 1163/2/6 1161/2/6 1164/2/6
f 1164/2/6 1161/2/6 1165/2/6
f 1165/2/6 1161/2/6 1166/2/6
f 1164/2/6 1165/2/6 1167/2/6
f 1167/2/6 1165/2/6 1168/2/6
f 1168/2/6 1165/2/6 1169/2/6
f 1169/2/6 1165/2/6 1170/2/6
f 1168/2/6 1169/2/6 1171/2/6
f 1171/2/6 1169/2/6 1172/2/6
f 1173/1/6 1174/1/6 1176/1/6
f 1176/1/6 1174/1/6 1177/1/6
f 1175/1/6 1176/1/6 1180/1/6
f 1177/1/6 1178/1/6 1180/1/6
f 1176/1/6 1177/1/6 1180/1/6
f 1180/1/6 1178/1/6 1181/1/6
f 1179/1/6 1180/1/6 1184/1/6
f 1181/1/6 1182/1/6 1184/1/6
f 1180/1/6 1181/1/6 1184/1/6
f 1184/1/6 1182/1/6 1185/1/6
f 1183/1/6 1184/1/6 1187/1/6
f 1185/1/6 1186/1/6 1187/1/6
f 1184/1/6 1185/1/6 1187/1/6
f 1187/1/6 1186/1/6 1188/1/6
f 1188/1/6 1186/1/6 1189/1/6
f 1189/1/6 1186/1/6 1190/1/6
f 1188/1/6 1189/1/6 1191/1/6
f 1191/1/6 1189/1/6 1192/1/6
f 1192/1/6 1189/1/6 1193/1/6
f 1193/1/6 1189/1/6 1194/1/6
f 1192/1/6 1193/1/6 1195/1/6
f 1195/1/6 1193/1/6 1196/1/6
f 1196/1/6 1193/1/6 1197/1/6
f 1197/1/6 1193/1/6 1198/1/6
f 1196/1/6 1197/1/6 1199/1/6
f 1199/1/6 1197/1/6 1200/1/6
