# MagicaVoxel @ Ephtracy

# group
o 

# material
mtllib RespawnPedestal.mtl
usemtl palette

# normals
vn -1 0 0
vn 1 0 0
vn 0 0 1
vn 0 0 -1
vn 0 -1 0
vn 0 1 0

# texcoords
vt 0.0253906 0.5
vt 0.0292969 0.5
vt 0.0566406 0.5
vt 0.0605469 0.5

# verts
v -4 0 2
v -4 0 1
v -4 0 -1
v -4 0 -2
v -4 0.2 1.8
v -4 0.2 1.2
v -4 0.2 -1.2
v -4 0.2 -1.8
v -4 0.3 2
v -4 0.3 1.8
v -4 0.3 1.2
v -4 0.3 1
v -4 0.3 -1
v -4 0.3 -1.2
v -4 0.3 -1.8
v -4 0.3 -2
v -4 0.5 2
v -4 0.5 1
v -4 0.5 -1
v -4 0.5 -2
v -4 1.5 2
v -4 1.5 1
v -4 1.5 -1
v -4 1.5 -2
v -4 1.7 1.7
v -4 1.7 1.2
v -4 1.7 -1.2
v -4 1.7 -1.7
v -4 1.8 1.9
v -4 1.8 1.7
v -4 1.8 1.2
v -4 1.8 1
v -4 1.8 -1
v -4 1.8 -1.2
v -4 1.8 -1.7
v -4 1.8 -1.9
v -4 1.9 2
v -4 1.9 1.9
v -4 1.9 -1.9
v -4 1.9 -2
v -4 2 2
v -4 2 1
v -4 2 -1
v -4 2 -2
v -3.9 0 1
v -3.9 0 -1
v -3.9 0.2 0.6
v -3.9 0.2 -0.6
v -3.9 0.3 1
v -3.9 0.3 0.8
v -3.9 0.3 0.6
v -3.9 0.3 -0.6
v -3.9 0.3 -0.8
v -3.9 0.3 -1
v -3.9 0.4 1
v -3.9 0.4 0.8
v -3.9 0.4 -0.8
v -3.9 0.4 -1
v -3.9 0.5 1.9
v -3.9 0.5 1.1
v -3.9 0.5 -1.1
v -3.9 0.5 -1.9
v -3.9 0.6 1.9
v -3.9 0.6 1.1
v -3.9 0.6 -1.1
v -3.9 0.6 -1.9
v -3.9 0.7 1.9
v -3.9 0.7 1.1
v -3.9 0.7 -1.1
v -3.9 0.7 -1.9
v -3.9 1.3 1.9
v -3.9 1.3 1.1
v -3.9 1.3 -1.1
v -3.9 1.3 -1.9
v -3.9 1.5 1.9
v -3.9 1.5 1.1
v -3.9 1.5 -1.1
v -3.9 1.5 -1.9
v -3.9 1.6 1
v -3.9 1.6 0.9
v -3.9 1.6 -0.9
v -3.9 1.6 -1
v -3.9 1.7 1
v -3.9 1.7 0.9
v -3.9 1.7 0.7
v -3.9 1.7 -0.7
v -3.9 1.7 -0.9
v -3.9 1.7 -1
v -3.9 1.8 1
v -3.9 1.8 0.7
v -3.9 1.8 -0.7
v -3.9 1.8 -1
v -3.9 1.9 1
v -3.9 1.9 -1
v -3.8 0.7 1.8
v -3.8 0.7 1.2
v -3.8 0.7 -1.2
v -3.8 0.7 -1.8
v -3.8 1.1 1.8
v -3.8 1.1 1.2
v -3.8 1.1 -1.2
v -3.8 1.1 -1.8
v -3.8 1.3 1.8
v -3.8 1.3 1.2
v -3.8 1.3 -1.2
v -3.8 1.3 -1.8
v -3.7 0.4 1
v -3.7 0.4 -1
v -3.7 0.5 1.1
v -3.7 0.5 1
v -3.7 0.5 0.8
v -3.7 0.5 -0.8
v -3.7 0.5 -1
v -3.7 0.5 -1.1
v -3.7 0.6 1.1
v -3.7 0.6 0.8
v -3.7 0.6 -0.8
v -3.7 0.6 -1.1
v -3.7 1.4 1.1
v -3.7 1.4 -1.1
v -3.7 1.5 1.1
v -3.7 1.5 1
v -3.7 1.5 -1
v -3.7 1.5 -1.1
v -3.7 1.6 1
v -3.7 1.6 -1
v -3.3 0.6 1.1
v -3.3 0.6 1
v -3.3 0.6 -1.1
v -3.3 0.7 1.2
v -3.3 0.7 1.1
v -3.3 0.7 0.9
v -3.3 0.7 -0.9
v -3.3 0.7 -1.1
v -3.3 0.7 -1.2
v -3.3 0.8 1
v -3.3 0.8 0.9
v -3.3 0.8 -0.9
v -3.3 0.8 -1
v -3.3 1.1 1
v -3.3 1.1 0.9
v -3.3 1.1 -0.9
v -3.3 1.1 -1
v -3.3 1.2 0.9
v -3.3 1.2 -0.9
v -3.3 1.3 1.2
v -3.3 1.3 1.1
v -3.3 1.3 -1.1
v -3.3 1.3 -1.2
v -3.3 1.4 1.1
v -3.3 1.4 -1.1
v -1.7 1.3 0.7
v -1.7 1.3 0.6
v -1.7 1.3 -0.6
v -1.7 1.3 -0.7
v -1.7 1.6 0.8
v -1.7 1.6 0.7
v -1.7 1.6 0.6
v -1.7 1.6 -0.6
v -1.7 1.6 -0.7
v -1.7 1.6 -0.8
v -1.7 1.7 0.8
v -1.7 1.7 0.7
v -1.7 1.7 -0.7
v -1.7 1.7 -0.8
v -1.6 1.7 1
v -1.6 1.7 0.9
v -1.6 1.7 -0.9
v -1.6 1.7 -1
v -1.6 1.8 1
v -1.6 1.8 0.9
v -1.6 1.8 -0.9
v -1.6 1.8 -1
v -1.5 1.3 0.6
v -1.5 1.3 0.5
v -1.5 1.3 -0.5
v -1.5 1.3 -0.6
v -1.5 1.6 0.7
v -1.5 1.6 0.6
v -1.5 1.6 0.5
v -1.5 1.6 -0.5
v -1.5 1.6 -0.6
v -1.5 1.6 -0.7
v -1.5 1.7 0.7
v -1.5 1.7 0.6
v -1.5 1.7 -0.6
v -1.5 1.7 -0.7
v -1.4 1.3 0.5
v -1.4 1.3 0.3
v -1.4 1.3 -0.3
v -1.4 1.3 -0.5
v -1.4 1.6 0.6
v -1.4 1.6 0.5
v -1.4 1.6 0.3
v -1.4 1.6 -0.3
v -1.4 1.6 -0.5
v -1.4 1.6 -0.6
v -1.4 1.7 0.9
v -1.4 1.7 0.8
v -1.4 1.7 0.6
v -1.4 1.7 0.5
v -1.4 1.7 -0.5
v -1.4 1.7 -0.6
v -1.4 1.7 -0.8
v -1.4 1.7 -0.9
v -1.4 1.8 0.9
v -1.4 1.8 0.8
v -1.4 1.8 -0.8
v -1.4 1.8 -0.9
v -1.3 1.3 0.3
v -1.3 1.3 -0.3
v -1.3 1.6 0.5
v -1.3 1.6 0.3
v -1.3 1.6 -0.3
v -1.3 1.6 -0.5
v -1.3 1.7 0.8
v -1.3 1.7 0.7
v -1.3 1.7 0.5
v -1.3 1.7 0.3
v -1.3 1.7 -0.3
v -1.3 1.7 -0.5
v -1.3 1.7 -0.7
v -1.3 1.7 -0.8
v -1.3 1.8 0.8
v -1.3 1.8 0.7
v -1.3 1.8 -0.7
v -1.3 1.8 -0.8
v -1.2 1.6 0.3
v -1.2 1.6 -0.3
v -1.2 1.7 0.7
v -1.2 1.7 0.6
v -1.2 1.7 0.3
v -1.2 1.7 -0.3
v -1.2 1.7 -0.6
v -1.2 1.7 -0.7
v -1.2 1.8 0.7
v -1.2 1.8 0.6
v -1.2 1.8 -0.6
v -1.2 1.8 -0.7
v -1.1 1.7 0.6
v -1.1 1.7 0.4
v -1.1 1.7 -0.4
v -1.1 1.7 -0.6
v -1.1 1.8 0.6
v -1.1 1.8 0.4
v -1.1 1.8 -0.4
v -1.1 1.8 -0.6
v -1 0 2
v -1 0 1.9
v -1 0 -1.9
v -1 0 -2
v -1 0.3 2
v -1 0.3 1.9
v -1 0.3 -1.9
v -1 0.3 -2
v -1 0.4 1.9
v -1 0.4 1.7
v -1 0.4 -1.7
v -1 0.4 -1.9
v -1 0.5 2
v -1 0.5 1.9
v -1 0.5 1.7
v -1 0.5 -1.7
v -1 0.5 -1.9
v -1 0.5 -2
v -1 1.5 2
v -1 1.5 1.9
v -1 1.5 1.7
v -1 1.5 -1.7
v -1 1.5 -1.9
v -1 1.5 -2
v -1 1.6 1.9
v -1 1.6 1.7
v -1 1.6 -1.7
v -1 1.6 -1.9
v -1 1.7 1.9
v -1 1.7 0.4
v -1 1.7 -0.4
v -1 1.7 -1.9
v -1 1.8 2
v -1 1.8 1.9
v -1 1.8 1.1
v -1 1.8 1
v -1 1.8 0.4
v -1 1.8 -0.4
v -1 1.8 -1
v -1 1.8 -1.1
v -1 1.8 -1.9
v -1 1.8 -2
v -1 1.9 1.9
v -1 1.9 1.6
v -1 1.9 1.5
v -1 1.9 1.1
v -1 1.9 -1.1
v -1 1.9 -1.5
v -1 1.9 -1.6
v -1 1.9 -1.9
v -1 2 2
v -1 2 1.5
v -1 2 1
v -1 2 -1
v -1 2 -1.5
v -1 2 -2
v -0.9 0.5 1.9
v -0.9 0.5 1.7
v -0.9 0.5 -1.7
v -0.9 0.5 -1.9
v -0.9 0.6 1.9
v -0.9 0.6 1.7
v -0.9 0.6 1.4
v -0.9 0.6 1.3
v -0.9 0.6 -1.3
v -0.9 0.6 -1.4
v -0.9 0.6 -1.7
v -0.9 0.6 -1.9
v -0.9 0.7 1.9
v -0.9 0.7 1.7
v -0.9 0.7 1.4
v -0.9 0.7 1.3
v -0.9 0.7 -1.3
v -0.9 0.7 -1.4
v -0.9 0.7 -1.7
v -0.9 0.7 -1.9
v -0.9 1.3 1.9
v -0.9 1.3 1.3
v -0.9 1.3 -1.3
v -0.9 1.3 -1.9
v -0.9 1.4 1.7
v -0.9 1.4 1.3
v -0.9 1.4 -1.3
v -0.9 1.4 -1.7
v -0.9 1.5 1.9
v -0.9 1.5 1.7
v -0.9 1.5 -1.7
v -0.9 1.5 -1.9
v -0.9 1.8 1
v -0.9 1.8 -1
v -0.9 1.9 1
v -0.9 1.9 -1
v -0.8 0.7 1.8
v -0.8 0.7 1.7
v -0.8 0.7 1.4
v -0.8 0.7 1.3
v -0.8 0.7 -1.3
v -0.8 0.7 -1.4
v -0.8 0.7 -1.7
v -0.8 0.7 -1.8
v -0.8 1.1 1.8
v -0.8 1.1 1.4
v -0.8 1.1 -1.4
v -0.8 1.1 -1.8
v -0.8 1.3 1.8
v -0.8 1.3 1.3
v -0.8 1.3 -1.3
v -0.8 1.3 -1.8
v -3.2 0.7 1.8
v -3.2 0.7 1.7
v -3.2 0.7 1.4
v -3.2 0.7 1.3
v -3.2 0.7 -1.3
v -3.2 0.7 -1.4
v -3.2 0.7 -1.7
v -3.2 0.7 -1.8
v -3.2 1.1 1.8
v -3.2 1.1 1.4
v -3.2 1.1 -1.4
v -3.2 1.1 -1.8
v -3.2 1.3 1.8
v -3.2 1.3 1.3
v -3.2 1.3 -1.3
v -3.2 1.3 -1.8
v -3.1 0.5 1.9
v -3.1 0.5 1.7
v -3.1 0.5 -1.7
v -3.1 0.5 -1.9
v -3.1 0.6 1.9
v -3.1 0.6 1.7
v -3.1 0.6 1.4
v -3.1 0.6 1.3
v -3.1 0.6 -1.3
v -3.1 0.6 -1.4
v -3.1 0.6 -1.7
v -3.1 0.6 -1.9
v -3.1 0.7 1.9
v -3.1 0.7 1.7
v -3.1 0.7 1.4
v -3.1 0.7 1.3
v -3.1 0.7 -1.3
v -3.1 0.7 -1.4
v -3.1 0.7 -1.7
v -3.1 0.7 -1.9
v -3.1 1.3 1.9
v -3.1 1.3 1.3
v -3.1 1.3 -1.3
v -3.1 1.3 -1.9
v -3.1 1.4 1.7
v -3.1 1.4 1.3
v -3.1 1.4 -1.3
v -3.1 1.4 -1.7
v -3.1 1.5 1.9
v -3.1 1.5 1.7
v -3.1 1.5 -1.7
v -3.1 1.5 -1.9
v -3.1 1.8 1
v -3.1 1.8 -1
v -3.1 1.9 1
v -3.1 1.9 -1
v -3 0 2
v -3 0 1.9
v -3 0 -1.9
v -3 0 -2
v -3 0.3 2
v -3 0.3 1.9
v -3 0.3 -1.9
v -3 0.3 -2
v -3 0.4 1.9
v -3 0.4 1.7
v -3 0.4 -1.7
v -3 0.4 -1.9
v -3 0.5 2
v -3 0.5 1.9
v -3 0.5 1.7
v -3 0.5 -1.7
v -3 0.5 -1.9
v -3 0.5 -2
v -3 1.5 2
v -3 1.5 1.9
v -3 1.5 1.7
v -3 1.5 -1.7
v -3 1.5 -1.9
v -3 1.5 -2
v -3 1.6 1.9
v -3 1.6 1.7
v -3 1.6 -1.7
v -3 1.6 -1.9
v -3 1.7 1.9
v -3 1.7 0.4
v -3 1.7 -0.4
v -3 1.7 -1.9
v -3 1.8 2
v -3 1.8 1.9
v -3 1.8 1.1
v -3 1.8 1
v -3 1.8 0.4
v -3 1.8 -0.4
v -3 1.8 -1
v -3 1.8 -1.1
v -3 1.8 -1.9
v -3 1.8 -2
v -3 1.9 1.9
v -3 1.9 1.6
v -3 1.9 1.5
v -3 1.9 1.1
v -3 1.9 -1.1
v -3 1.9 -1.5
v -3 1.9 -1.6
v -3 1.9 -1.9
v -3 2 2
v -3 2 1.5
v -3 2 1
v -3 2 -1
v -3 2 -1.5
v -3 2 -2
v -2.9 1.7 0.6
v -2.9 1.7 0.4
v -2.9 1.7 -0.4
v -2.9 1.7 -0.6
v -2.9 1.8 0.6
v -2.9 1.8 0.4
v -2.9 1.8 -0.4
v -2.9 1.8 -0.6
v -2.8 1.6 0.3
v -2.8 1.6 -0.3
v -2.8 1.7 0.7
v -2.8 1.7 0.6
v -2.8 1.7 0.3
v -2.8 1.7 -0.3
v -2.8 1.7 -0.6
v -2.8 1.7 -0.7
v -2.8 1.8 0.7
v -2.8 1.8 0.6
v -2.8 1.8 -0.6
v -2.8 1.8 -0.7
v -2.7 1.3 0.3
v -2.7 1.3 -0.3
v -2.7 1.6 0.5
v -2.7 1.6 0.3
v -2.7 1.6 -0.3
v -2.7 1.6 -0.5
v -2.7 1.7 0.8
v -2.7 1.7 0.7
v -2.7 1.7 0.5
v -2.7 1.7 0.3
v -2.7 1.7 -0.3
v -2.7 1.7 -0.5
v -2.7 1.7 -0.7
v -2.7 1.7 -0.8
v -2.7 1.8 0.8
v -2.7 1.8 0.7
v -2.7 1.8 -0.7
v -2.7 1.8 -0.8
v -2.6 1.3 0.5
v -2.6 1.3 0.3
v -2.6 1.3 -0.3
v -2.6 1.3 -0.5
v -2.6 1.6 0.6
v -2.6 1.6 0.5
v -2.6 1.6 0.3
v -2.6 1.6 -0.3
v -2.6 1.6 -0.5
v -2.6 1.6 -0.6
v -2.6 1.7 0.9
v -2.6 1.7 0.8
v -2.6 1.7 0.6
v -2.6 1.7 0.5
v -2.6 1.7 -0.5
v -2.6 1.7 -0.6
v -2.6 1.7 -0.8
v -2.6 1.7 -0.9
v -2.6 1.8 0.9
v -2.6 1.8 0.8
v -2.6 1.8 -0.8
v -2.6 1.8 -0.9
v -2.5 1.3 0.6
v -2.5 1.3 0.5
v -2.5 1.3 -0.5
v -2.5 1.3 -0.6
v -2.5 1.6 0.7
v -2.5 1.6 0.6
v -2.5 1.6 0.5
v -2.5 1.6 -0.5
v -2.5 1.6 -0.6
v -2.5 1.6 -0.7
v -2.5 1.7 0.7
v -2.5 1.7 0.6
v -2.5 1.7 -0.6
v -2.5 1.7 -0.7
v -2.4 1.7 1
v -2.4 1.7 0.9
v -2.4 1.7 -0.9
v -2.4 1.7 -1
v -2.4 1.8 1
v -2.4 1.8 0.9
v -2.4 1.8 -0.9
v -2.4 1.8 -1
v -2.3 1.3 0.7
v -2.3 1.3 0.6
v -2.3 1.3 -0.6
v -2.3 1.3 -0.7
v -2.3 1.6 0.8
v -2.3 1.6 0.7
v -2.3 1.6 0.6
v -2.3 1.6 -0.6
v -2.3 1.6 -0.7
v -2.3 1.6 -0.8
v -2.3 1.7 0.8
v -2.3 1.7 0.7
v -2.3 1.7 -0.7
v -2.3 1.7 -0.8
v -0.7 0.6 1.1
v -0.7 0.6 -1
v -0.7 0.6 -1.1
v -0.7 0.7 1.2
v -0.7 0.7 1.1
v -0.7 0.7 0.9
v -0.7 0.7 -0.9
v -0.7 0.7 -1.1
v -0.7 0.7 -1.2
v -0.7 0.8 1
v -0.7 0.8 0.9
v -0.7 0.8 -0.9
v -0.7 0.8 -1
v -0.7 1.1 1
v -0.7 1.1 0.9
v -0.7 1.1 -0.9
v -0.7 1.1 -1
v -0.7 1.2 0.9
v -0.7 1.2 -0.9
v -0.7 1.3 1.2
v -0.7 1.3 1.1
v -0.7 1.3 -1.1
v -0.7 1.3 -1.2
v -0.7 1.4 1.1
v -0.7 1.4 -1.1
v -0.3 0.4 1
v -0.3 0.4 -1
v -0.3 0.5 1.1
v -0.3 0.5 1
v -0.3 0.5 0.8
v -0.3 0.5 -0.8
v -0.3 0.5 -1
v -0.3 0.5 -1.1
v -0.3 0.6 1.1
v -0.3 0.6 0.8
v -0.3 0.6 -0.8
v -0.3 0.6 -1.1
v -0.3 1.4 1.1
v -0.3 1.4 -1.1
v -0.3 1.5 1.1
v -0.3 1.5 1
v -0.3 1.5 -1
v -0.3 1.5 -1.1
v -0.3 1.6 1
v -0.3 1.6 -1
v -0.2 0.7 1.8
v -0.2 0.7 1.2
v -0.2 0.7 -1.2
v -0.2 0.7 -1.8
v -0.2 1.1 1.8
v -0.2 1.1 1.2
v -0.2 1.1 -1.2
v -0.2 1.1 -1.8
v -0.2 1.3 1.8
v -0.2 1.3 1.2
v -0.2 1.3 -1.2
v -0.2 1.3 -1.8
v -0.0999999 0 1
v -0.0999999 0 -1
v -0.0999999 0.2 0.6
v -0.0999999 0.2 -0.6
v -0.0999999 0.3 1
v -0.0999999 0.3 0.8
v -0.0999999 0.3 0.6
v -0.0999999 0.3 -0.6
v -0.0999999 0.3 -0.8
v -0.0999999 0.3 -1
v -0.0999999 0.4 1
v -0.0999999 0.4 0.8
v -0.0999999 0.4 -0.8
v -0.0999999 0.4 -1
v -0.0999999 0.5 1.9
v -0.0999999 0.5 1.1
v -0.0999999 0.5 -1.1
v -0.0999999 0.5 -1.9
v -0.0999999 0.6 1.9
v -0.0999999 0.6 1.1
v -0.0999999 0.6 -1.1
v -0.0999999 0.6 -1.9
v -0.0999999 0.7 1.9
v -0.0999999 0.7 1.1
v -0.0999999 0.7 -1.1
v -0.0999999 0.7 -1.9
v -0.0999999 1.3 1.9
v -0.0999999 1.3 1.1
v -0.0999999 1.3 -1.1
v -0.0999999 1.3 -1.9
v -0.0999999 1.5 1.9
v -0.0999999 1.5 1.1
v -0.0999999 1.5 -1.1
v -0.0999999 1.5 -1.9
v -0.0999999 1.6 1
v -0.0999999 1.6 0.9
v -0.0999999 1.6 -0.9
v -0.0999999 1.6 -1
v -0.0999999 1.7 1
v -0.0999999 1.7 0.9
v -0.0999999 1.7 0.7
v -0.0999999 1.7 -0.7
v -0.0999999 1.7 -0.9
v -0.0999999 1.7 -1
v -0.0999999 1.8 1
v -0.0999999 1.8 0.7
v -0.0999999 1.8 -0.7
v -0.0999999 1.8 -1
v -0.0999999 1.9 1
v -0.0999999 1.9 -1
v 0 0 2
v 0 0 1
v 0 0 -1
v 0 0 -2
v 0 0.2 1.8
v 0 0.2 1.2
v 0 0.2 -1.2
v 0 0.2 -1.8
v 0 0.3 2
v 0 0.3 1.8
v 0 0.3 1.2
v 0 0.3 1
v 0 0.3 -1
v 0 0.3 -1.2
v 0 0.3 -1.8
v 0 0.3 -2
v 0 0.5 2
v 0 0.5 1
v 0 0.5 -1
v 0 0.5 -2
v 0 1.5 2
v 0 1.5 1
v 0 1.5 -1
v 0 1.5 -2
v 0 1.7 1.7
v 0 1.7 1.2
v 0 1.7 -1.2
v 0 1.7 -1.7
v 0 1.8 1.9
v 0 1.8 1.7
v 0 1.8 1.2
v 0 1.8 1
v 0 1.8 -1
v 0 1.8 -1.2
v 0 1.8 -1.7
v 0 1.8 -1.9
v 0 1.9 2
v 0 1.9 1.9
v 0 1.9 -1.9
v 0 1.9 -2
v 0 2 2
v 0 2 1
v 0 2 -1
v 0 2 -2
v -4 0 2
v -4 0.3 2
v -4 0.5 2
v -4 1.5 2
v -4 1.9 2
v -4 2 2
v -3.9 1.8 2
v -3.9 1.9 2
v -3.8 0.2 2
v -3.8 0.3 2
v -3.7 1.7 2
v -3.7 1.8 2
v -3.2 0.2 2
v -3.2 0.3 2
v -3.2 1.7 2
v -3.2 1.8 2
v -3 0 2
v -3 0.3 2
v -3 0.5 2
v -3 1.5 2
v -3 1.8 2
v -3 2 2
v -1 0 2
v -1 0.3 2
v -1 0.5 2
v -1 1.5 2
v -1 1.8 2
v -1 2 2
v -0.8 0.2 2
v -0.8 0.3 2
v -0.8 1.7 2
v -0.8 1.8 2
v -0.3 1.7 2
v -0.3 1.8 2
v -0.2 0.2 2
v -0.2 0.3 2
v -0.0999999 1.8 2
v -0.0999999 1.9 2
v 0 0 2
v 0 0.3 2
v 0 0.5 2
v 0 1.5 2
v 0 1.9 2
v 0 2 2
v -3.9 0.5 1.9
v -3.9 0.6 1.9
v -3.9 0.7 1.9
v -3.9 1.3 1.9
v -3.9 1.5 1.9
v -3.1 0.5 1.9
v -3.1 0.6 1.9
v -3.1 0.7 1.9
v -3.1 1.3 1.9
v -3.1 1.5 1.9
v -3 0 1.9
v -3 0.3 1.9
v -3 0.4 1.9
v -3 1.6 1.9
v -3 1.7 1.9
v -3 1.8 1.9
v -3 1.9 1.9
v -2.9 1.6 1.9
v -2.9 1.7 1.9
v -2.8 0.3 1.9
v -2.8 0.4 1.9
v -2.7 1.7 1.9
v -2.7 1.8 1.9
v -2.6 0.2 1.9
v -2.6 0.3 1.9
v -1.4 0.2 1.9
v -1.4 0.3 1.9
v -1.3 1.7 1.9
v -1.3 1.8 1.9
v -1.2 0.3 1.9
v -1.2 0.4 1.9
v -1.1 1.6 1.9
v -1.1 1.7 1.9
v -1 0 1.9
v -1 0.3 1.9
v -1 0.4 1.9
v -1 1.6 1.9
v -1 1.7 1.9
v -1 1.8 1.9
v -1 1.9 1.9
v -0.9 0.5 1.9
v -0.9 0.6 1.9
v -0.9 0.7 1.9
v -0.9 1.3 1.9
v -0.9 1.5 1.9
v -0.0999999 0.5 1.9
v -0.0999999 0.6 1.9
v -0.0999999 0.7 1.9
v -0.0999999 1.3 1.9
v -0.0999999 1.5 1.9
v -3.8 0.7 1.8
v -3.8 1.1 1.8
v -3.8 1.3 1.8
v -3.2 0.7 1.8
v -3.2 1.1 1.8
v -3.2 1.3 1.8
v -0.8 0.7 1.8
v -0.8 1.1 1.8
v -0.8 1.3 1.8
v -0.2 0.7 1.8
v -0.2 1.1 1.8
v -0.2 1.3 1.8
v -3.1 0.5 1.7
v -3.1 0.6 1.7
v -3.1 1.4 1.7
v -3.1 1.5 1.7
v -3 0.4 1.7
v -3 0.5 1.7
v -3 1.5 1.7
v -3 1.6 1.7
v -2.8 0.5 1.7
v -2.8 0.6 1.7
v -1.2 0.5 1.7
v -1.2 0.6 1.7
v -1 0.4 1.7
v -1 0.5 1.7
v -1 1.5 1.7
v -1 1.6 1.7
v -0.9 0.5 1.7
v -0.9 0.6 1.7
v -0.9 1.4 1.7
v -0.9 1.5 1.7
v -3.2 0.7 1.3
v -3.2 1.3 1.3
v -3.1 0.6 1.3
v -3.1 0.7 1.3
v -3.1 1.3 1.3
v -3.1 1.4 1.3
v -3 0.8 1.3
v -3 1.1 1.3
v -2.9 0.7 1.3
v -2.9 0.8 1.3
v -2.9 1.1 1.3
v -2.9 1.2 1.3
v -1.1 0.7 1.3
v -1.1 0.8 1.3
v -1.1 1.1 1.3
v -1.1 1.2 1.3
v -1 0.6 1.3
v -1 0.8 1.3
v -1 1.1 1.3
v -0.9 0.6 1.3
v -0.9 0.7 1.3
v -0.9 1.3 1.3
v -0.9 1.4 1.3
v -0.8 0.7 1.3
v -0.8 1.3 1.3
v -2.8 1.6 -0.3
v -2.8 1.7 -0.3
v -2.7 1.3 -0.3
v -2.7 1.6 -0.3
v -2.7 1.7 -0.3
v -2.6 1.3 -0.3
v -2.6 1.6 -0.3
v -1.4 1.3 -0.3
v -1.4 1.6 -0.3
v -1.3 1.3 -0.3
v -1.3 1.6 -0.3
v -1.3 1.7 -0.3
v -1.2 1.6 -0.3
v -1.2 1.7 -0.3
v -3 1.7 -0.4
v -3 1.8 -0.4
v -2.9 1.7 -0.4
v -2.9 1.8 -0.4
v -1.1 1.7 -0.4
v -1.1 1.8 -0.4
v -1 1.7 -0.4
v -1 1.8 -0.4
v -2.7 1.6 -0.5
v -2.7 1.7 -0.5
v -2.6 1.3 -0.5
v -2.6 1.6 -0.5
v -2.6 1.7 -0.5
v -2.5 1.3 -0.5
v -2.5 1.6 -0.5
v -1.5 1.3 -0.5
v -1.5 1.6 -0.5
v -1.4 1.3 -0.5
v -1.4 1.6 -0.5
v -1.4 1.7 -0.5
v -1.3 1.6 -0.5
v -1.3 1.7 -0.5
v -2.9 1.7 -0.6
v -2.9 1.8 -0.6
v -2.8 1.7 -0.6
v -2.8 1.8 -0.6
v -2.6 1.6 -0.6
v -2.6 1.7 -0.6
v -2.5 1.3 -0.6
v -2.5 1.6 -0.6
v -2.5 1.7 -0.6
v -2.3 1.3 -0.6
v -2.3 1.6 -0.6
v -1.7 1.3 -0.6
v -1.7 1.6 -0.6
v -1.5 1.3 -0.6
v -1.5 1.6 -0.6
v -1.5 1.7 -0.6
v -1.4 1.6 -0.6
v -1.4 1.7 -0.6
v -1.2 1.7 -0.6
v -1.2 1.8 -0.6
v -1.1 1.7 -0.6
v -1.1 1.8 -0.6
v -2.8 1.7 -0.7
v -2.8 1.8 -0.7
v -2.7 1.7 -0.7
v -2.7 1.8 -0.7
v -2.5 1.6 -0.7
v -2.5 1.7 -0.7
v -2.3 1.3 -0.7
v -2.3 1.6 -0.7
v -2.3 1.7 -0.7
v -1.7 1.3 -0.7
v -1.7 1.6 -0.7
v -1.7 1.7 -0.7
v -1.5 1.6 -0.7
v -1.5 1.7 -0.7
v -1.3 1.7 -0.7
v -1.3 1.8 -0.7
v -1.2 1.7 -0.7
v -1.2 1.8 -0.7
v -2.7 1.7 -0.8
v -2.7 1.8 -0.8
v -2.6 1.7 -0.8
v -2.6 1.8 -0.8
v -2.3 1.6 -0.8
v -2.3 1.7 -0.8
v -1.7 1.6 -0.8
v -1.7 1.7 -0.8
v -1.4 1.7 -0.8
v -1.4 1.8 -0.8
v -1.3 1.7 -0.8
v -1.3 1.8 -0.8
v -2.6 1.7 -0.9
v -2.6 1.8 -0.9
v -2.4 1.7 -0.9
v -2.4 1.8 -0.9
v -1.6 1.7 -0.9
v -1.6 1.8 -0.9
v -1.4 1.7 -0.9
v -1.4 1.8 -0.9
v -4 0 -1
v -4 0.3 -1
v -4 0.5 -1
v -4 1.5 -1
v -4 1.8 -1
v -4 2 -1
v -3.9 0 -1
v -3.9 0.3 -1
v -3.9 0.4 -1
v -3.9 0.5 -1
v -3.9 1.5 -1
v -3.9 1.6 -1
v -3.9 1.7 -1
v -3.9 1.8 -1
v -3.9 1.9 -1
v -3.7 0.4 -1
v -3.7 0.5 -1
v -3.7 1.5 -1
v -3.7 1.6 -1
v -3.6 1.9 -1
v -3.5 1.9 -1
v -3.5 2 -1
v -3.1 1.8 -1
v -3.1 1.9 -1
v -3 1.8 -1
v -3 2 -1
v -2.4 1.7 -1
v -2.4 1.8 -1
v -1.6 1.7 -1
v -1.6 1.8 -1
v -1 1.8 -1
v -1 2 -1
v -0.9 1.8 -1
v -0.9 1.9 -1
v -0.5 1.9 -1
v -0.5 2 -1
v -0.4 1.9 -1
v -0.3 0.4 -1
v -0.3 0.5 -1
v -0.3 1.5 -1
v -0.3 1.6 -1
v -0.0999999 0 -1
v -0.0999999 0.3 -1
v -0.0999999 0.4 -1
v -0.0999999 0.5 -1
v -0.0999999 1.5 -1
v -0.0999999 1.6 -1
v -0.0999999 1.7 -1
v -0.0999999 1.8 -1
v -0.0999999 1.9 -1
v 0 0 -1
v 0 0.3 -1
v 0 0.5 -1
v 0 1.5 -1
v 0 1.8 -1
v 0 2 -1
v -3.9 0.5 -1.1
v -3.9 0.6 -1.1
v -3.9 0.7 -1.1
v -3.9 1.3 -1.1
v -3.9 1.5 -1.1
v -3.7 0.5 -1.1
v -3.7 0.6 -1.1
v -3.7 0.7 -1.1
v -3.7 1.4 -1.1
v -3.7 1.5 -1.1
v -3.4 0.6 -1.1
v -3.4 0.7 -1.1
v -3.3 0.6 -1.1
v -3.3 0.7 -1.1
v -3.3 1.3 -1.1
v -3.3 1.4 -1.1
v -3 1.8 -1.1
v -3 1.9 -1.1
v -1 1.8 -1.1
v -1 1.9 -1.1
v -0.7 0.6 -1.1
v -0.7 0.7 -1.1
v -0.7 1.3 -1.1
v -0.7 1.4 -1.1
v -0.6 0.6 -1.1
v -0.6 0.7 -1.1
v -0.3 0.5 -1.1
v -0.3 0.6 -1.1
v -0.3 0.7 -1.1
v -0.3 1.4 -1.1
v -0.3 1.5 -1.1
v -0.0999999 0.5 -1.1
v -0.0999999 0.6 -1.1
v -0.0999999 0.7 -1.1
v -0.0999999 1.3 -1.1
v -0.0999999 1.5 -1.1
v -3.8 0.7 -1.2
v -3.8 1.1 -1.2
v -3.8 1.3 -1.2
v -3.7 0.7 -1.2
v -3.4 0.7 -1.2
v -3.4 1.1 -1.2
v -3.3 0.7 -1.2
v -3.3 1.3 -1.2
v -0.7 0.7 -1.2
v -0.7 1.3 -1.2
v -0.6 0.7 -1.2
v -0.6 1.1 -1.2
v -0.3 0.7 -1.2
v -0.2 0.7 -1.2
v -0.2 1.1 -1.2
v -0.2 1.3 -1.2
v -3.8 0.7 1.2
v -3.8 1.1 1.2
v -3.8 1.3 1.2
v -3.7 0.7 1.2
v -3.4 0.7 1.2
v -3.4 1.1 1.2
v -3.3 0.7 1.2
v -3.3 1.3 1.2
v -0.7 0.7 1.2
v -0.7 1.3 1.2
v -0.6 0.7 1.2
v -0.6 1.1 1.2
v -0.3 0.7 1.2
v -0.2 0.7 1.2
v -0.2 1.1 1.2
v -0.2 1.3 1.2
v -3.9 0.5 1.1
v -3.9 0.6 1.1
v -3.9 0.7 1.1
v -3.9 1.3 1.1
v -3.9 1.5 1.1
v -3.7 0.5 1.1
v -3.7 0.6 1.1
v -3.7 0.7 1.1
v -3.7 1.4 1.1
v -3.7 1.5 1.1
v -3.4 0.6 1.1
v -3.4 0.7 1.1
v -3.3 0.6 1.1
v -3.3 0.7 1.1
v -3.3 1.3 1.1
v -3.3 1.4 1.1
v -3 1.8 1.1
v -3 1.9 1.1
v -1 1.8 1.1
v -1 1.9 1.1
v -0.7 0.6 1.1
v -0.7 0.7 1.1
v -0.7 1.3 1.1
v -0.7 1.4 1.1
v -0.6 0.6 1.1
v -0.6 0.7 1.1
v -0.3 0.5 1.1
v -0.3 0.6 1.1
v -0.3 0.7 1.1
v -0.3 1.4 1.1
v -0.3 1.5 1.1
v -0.0999999 0.5 1.1
v -0.0999999 0.6 1.1
v -0.0999999 0.7 1.1
v -0.0999999 1.3 1.1
v -0.0999999 1.5 1.1
v -4 0 1
v -4 0.3 1
v -4 0.5 1
v -4 1.5 1
v -4 1.8 1
v -4 2 1
v -3.9 0 1
v -3.9 0.3 1
v -3.9 0.4 1
v -3.9 0.5 1
v -3.9 1.5 1
v -3.9 1.6 1
v -3.9 1.7 1
v -3.9 1.8 1
v -3.9 1.9 1
v -3.7 0.4 1
v -3.7 0.5 1
v -3.7 1.5 1
v -3.7 1.6 1
v -3.6 1.9 1
v -3.5 1.9 1
v -3.5 2 1
v -3.1 1.8 1
v -3.1 1.9 1
v -3 1.8 1
v -3 2 1
v -2.4 1.7 1
v -2.4 1.8 1
v -1.6 1.7 1
v -1.6 1.8 1
v -1 1.8 1
v -1 2 1
v -0.9 1.8 1
v -0.9 1.9 1
v -0.5 1.9 1
v -0.5 2 1
v -0.4 1.9 1
v -0.3 0.4 1
v -0.3 0.5 1
v -0.3 1.5 1
v -0.3 1.6 1
v -0.0999999 0 1
v -0.0999999 0.3 1
v -0.0999999 0.4 1
v -0.0999999 0.5 1
v -0.0999999 1.5 1
v -0.0999999 1.6 1
v -0.0999999 1.7 1
v -0.0999999 1.8 1
v -0.0999999 1.9 1
v 0 0 1
v 0 0.3 1
v 0 0.5 1
v 0 1.5 1
v 0 1.8 1
v 0 2 1
v -2.6 1.7 0.9
v -2.6 1.8 0.9
v -2.4 1.7 0.9
v -2.4 1.8 0.9
v -1.6 1.7 0.9
v -1.6 1.8 0.9
v -1.4 1.7 0.9
v -1.4 1.8 0.9
v -2.7 1.7 0.8
v -2.7 1.8 0.8
v -2.6 1.7 0.8
v -2.6 1.8 0.8
v -2.3 1.6 0.8
v -2.3 1.7 0.8
v -1.7 1.6 0.8
v -1.7 1.7 0.8
v -1.4 1.7 0.8
v -1.4 1.8 0.8
v -1.3 1.7 0.8
v -1.3 1.8 0.8
v -2.8 1.7 0.7
v -2.8 1.8 0.7
v -2.7 1.7 0.7
v -2.7 1.8 0.7
v -2.5 1.6 0.7
v -2.5 1.7 0.7
v -2.3 1.3 0.7
v -2.3 1.6 0.7
v -2.3 1.7 0.7
v -1.7 1.3 0.7
v -1.7 1.6 0.7
v -1.7 1.7 0.7
v -1.5 1.6 0.7
v -1.5 1.7 0.7
v -1.3 1.7 0.7
v -1.3 1.8 0.7
v -1.2 1.7 0.7
v -1.2 1.8 0.7
v -2.9 1.7 0.6
v -2.9 1.8 0.6
v -2.8 1.7 0.6
v -2.8 1.8 0.6
v -2.6 1.6 0.6
v -2.6 1.7 0.6
v -2.5 1.3 0.6
v -2.5 1.6 0.6
v -2.5 1.7 0.6
v -2.3 1.3 0.6
v -2.3 1.6 0.6
v -1.7 1.3 0.6
v -1.7 1.6 0.6
v -1.5 1.3 0.6
v -1.5 1.6 0.6
v -1.5 1.7 0.6
v -1.4 1.6 0.6
v -1.4 1.7 0.6
v -1.2 1.7 0.6
v -1.2 1.8 0.6
v -1.1 1.7 0.6
v -1.1 1.8 0.6
v -2.7 1.6 0.5
v -2.7 1.7 0.5
v -2.6 1.3 0.5
v -2.6 1.6 0.5
v -2.6 1.7 0.5
v -2.5 1.3 0.5
v -2.5 1.6 0.5
v -1.5 1.3 0.5
v -1.5 1.6 0.5
v -1.4 1.3 0.5
v -1.4 1.6 0.5
v -1.4 1.7 0.5
v -1.3 1.6 0.5
v -1.3 1.7 0.5
v -3 1.7 0.4
v -3 1.8 0.4
v -2.9 1.7 0.4
v -2.9 1.8 0.4
v -1.1 1.7 0.4
v -1.1 1.8 0.4
v -1 1.7 0.4
v -1 1.8 0.4
v -2.8 1.6 0.3
v -2.8 1.7 0.3
v -2.7 1.3 0.3
v -2.7 1.6 0.3
v -2.7 1.7 0.3
v -2.6 1.3 0.3
v -2.6 1.6 0.3
v -1.4 1.3 0.3
v -1.4 1.6 0.3
v -1.3 1.3 0.3
v -1.3 1.6 0.3
v -1.3 1.7 0.3
v -1.2 1.6 0.3
v -1.2 1.7 0.3
v -3.2 0.7 -1.3
v -3.2 1.3 -1.3
v -3.1 0.6 -1.3
v -3.1 0.7 -1.3
v -3.1 1.3 -1.3
v -3.1 1.4 -1.3
v -3 0.6 -1.3
v -3 0.8 -1.3
v -3 1.1 -1.3
v -2.9 0.7 -1.3
v -2.9 0.8 -1.3
v -2.9 1.1 -1.3
v -2.9 1.2 -1.3
v -1.1 0.7 -1.3
v -1.1 0.8 -1.3
v -1.1 1.1 -1.3
v -1.1 1.2 -1.3
v -1 0.8 -1.3
v -1 1.1 -1.3
v -0.9 0.6 -1.3
v -0.9 0.7 -1.3
v -0.9 1.3 -1.3
v -0.9 1.4 -1.3
v -0.8 0.7 -1.3
v -0.8 1.3 -1.3
v -3.1 0.5 -1.7
v -3.1 0.6 -1.7
v -3.1 1.4 -1.7
v -3.1 1.5 -1.7
v -3 0.4 -1.7
v -3 0.5 -1.7
v -3 1.5 -1.7
v -3 1.6 -1.7
v -2.8 0.5 -1.7
v -2.8 0.6 -1.7
v -1.2 0.5 -1.7
v -1.2 0.6 -1.7
v -1 0.4 -1.7
v -1 0.5 -1.7
v -1 1.5 -1.7
v -1 1.6 -1.7
v -0.9 0.5 -1.7
v -0.9 0.6 -1.7
v -0.9 1.4 -1.7
v -0.9 1.5 -1.7
v -3.8 0.7 -1.8
v -3.8 1.1 -1.8
v -3.8 1.3 -1.8
v -3.2 0.7 -1.8
v -3.2 1.1 -1.8
v -3.2 1.3 -1.8
v -0.8 0.7 -1.8
v -0.8 1.1 -1.8
v -0.8 1.3 -1.8
v -0.2 0.7 -1.8
v -0.2 1.1 -1.8
v -0.2 1.3 -1.8
v -3.9 0.5 -1.9
v -3.9 0.6 -1.9
v -3.9 0.7 -1.9
v -3.9 1.3 -1.9
v -3.9 1.5 -1.9
v -3.1 0.5 -1.9
v -3.1 0.6 -1.9
v -3.1 0.7 -1.9
v -3.1 1.3 -1.9
v -3.1 1.5 -1.9
v -3 0 -1.9
v -3 0.3 -1.9
v -3 0.4 -1.9
v -3 1.6 -1.9
v -3 1.7 -1.9
v -3 1.8 -1.9
v -3 1.9 -1.9
v -2.9 1.6 -1.9
v -2.9 1.7 -1.9
v -2.8 0.3 -1.9
v -2.8 0.4 -1.9
v -2.7 1.7 -1.9
v -2.7 1.8 -1.9
v -2.6 0.2 -1.9
v -2.6 0.3 -1.9
v -1.4 0.2 -1.9
v -1.4 0.3 -1.9
v -1.3 1.7 -1.9
v -1.3 1.8 -1.9
v -1.2 0.3 -1.9
v -1.2 0.4 -1.9
v -1.1 1.6 -1.9
v -1.1 1.7 -1.9
v -1 0 -1.9
v -1 0.3 -1.9
v -1 0.4 -1.9
v -1 1.6 -1.9
v -1 1.7 -1.9
v -1 1.8 -1.9
v -1 1.9 -1.9
v -0.9 0.5 -1.9
v -0.9 0.6 -1.9
v -0.9 0.7 -1.9
v -0.9 1.3 -1.9
v -0.9 1.5 -1.9
v -0.0999999 0.5 -1.9
v -0.0999999 0.6 -1.9
v -0.0999999 0.7 -1.9
v -0.0999999 1.3 -1.9
v -0.0999999 1.5 -1.9
v -4 0 -2
v -4 0.3 -2
v -4 0.5 -2
v -4 1.5 -2
v -4 1.9 -2
v -4 2 -2
v -3.9 1.8 -2
v -3.9 1.9 -2
v -3.8 0.2 -2
v -3.8 0.3 -2
v -3.7 1.7 -2
v -3.7 1.8 -2
v -3.2 0.2 -2
v -3.2 0.3 -2
v -3.2 1.7 -2
v -3.2 1.8 -2
v -3 0 -2
v -3 0.3 -2
v -3 0.5 -2
v -3 1.5 -2
v -3 1.8 -2
v -3 2 -2
v -1 0 -2
v -1 0.3 -2
v -1 0.5 -2
v -1 1.5 -2
v -1 1.8 -2
v -1 2 -2
v -0.8 0.2 -2
v -0.8 0.3 -2
v -0.8 1.7 -2
v -0.8 1.8 -2
v -0.3 1.7 -2
v -0.3 1.8 -2
v -0.2 0.2 -2
v -0.2 0.3 -2
v -0.0999999 1.8 -2
v -0.0999999 1.9 -2
v 0 0 -2
v 0 0.3 -2
v 0 0.5 -2
v 0 1.5 -2
v 0 1.9 -2
v 0 2 -2
v -4 0 2
v -3 0 2
v -1 0 2
v 0 0 2
v -3.9 0 1.9
v -3 0 1.9
v -1 0 1.9
v -0.0999999 0 1.9
v -3 0 1.8
v -1 0 1.8
v -4 0 1
v -3.9 0 1
v -3.8 0 1
v -3 0 1
v -1 0 1
v -0.2 0 1
v -0.0999999 0 1
v 0 0 1
v -4 0 -1
v -3.9 0 -1
v -3.8 0 -1
v -3 0 -1
v -1 0 -1
v -0.2 0 -1
v -0.0999999 0 -1
v 0 0 -1
v -3 0 -1.8
v -1 0 -1.8
v -3.9 0 -1.9
v -3 0 -1.9
v -1 0 -1.9
v -0.0999999 0 -1.9
v -4 0 -2
v -3 0 -2
v -1 0 -2
v 0 0 -2
v -3.9 1.3 1.9
v -3.1 1.3 1.9
v -0.9 1.3 1.9
v -0.0999999 1.3 1.9
v -3.8 1.3 1.8
v -3.2 1.3 1.8
v -0.8 1.3 1.8
v -0.2 1.3 1.8
v -3.2 1.3 1.3
v -3.1 1.3 1.3
v -0.9 1.3 1.3
v -0.8 1.3 1.3
v -3.8 1.3 1.2
v -3.3 1.3 1.2
v -0.7 1.3 1.2
v -0.2 1.3 1.2
v -3.9 1.3 1.1
v -3.3 1.3 1.1
v -0.7 1.3 1.1
v -0.0999999 1.3 1.1
v -3.9 1.3 -1.1
v -3.3 1.3 -1.1
v -0.7 1.3 -1.1
v -0.0999999 1.3 -1.1
v -3.8 1.3 -1.2
v -3.3 1.3 -1.2
v -0.7 1.3 -1.2
v -0.2 1.3 -1.2
v -3.2 1.3 -1.3
v -3.1 1.3 -1.3
v -0.9 1.3 -1.3
v -0.8 1.3 -1.3
v -3.8 1.3 -1.8
v -3.2 1.3 -1.8
v -0.8 1.3 -1.8
v -0.2 1.3 -1.8
v -3.9 1.3 -1.9
v -3.1 1.3 -1.9
v -0.9 1.3 -1.9
v -0.0999999 1.3 -1.9
v -3.1 1.4 1.7
v -0.9 1.4 1.7
v -2.7 1.4 1.6
v -1.3 1.4 1.6
v -2.7 1.4 1.5
v -1.3 1.4 1.5
v -3.1 1.4 1.3
v -0.9 1.4 1.3
v -3.7 1.4 1.1
v -3.3 1.4 1.1
v -0.7 1.4 1.1
v -0.3 1.4 1.1
v -3.6 1.4 0.7
v -3.5 1.4 0.7
v -0.5 1.4 0.7
v -0.4 1.4 0.7
v -3.6 1.4 -0.7
v -3.5 1.4 -0.7
v -0.5 1.4 -0.7
v -0.4 1.4 -0.7
v -3.7 1.4 -1.1
v -3.3 1.4 -1.1
v -0.7 1.4 -1.1
v -0.3 1.4 -1.1
v -3.1 1.4 -1.3
v -0.9 1.4 -1.3
v -2.7 1.4 -1.5
v -1.3 1.4 -1.5
v -2.7 1.4 -1.6
v -1.3 1.4 -1.6
v -3.1 1.4 -1.7
v -0.9 1.4 -1.7
v -4 1.5 2
v -3 1.5 2
v -1 1.5 2
v 0 1.5 2
v -3.9 1.5 1.9
v -3.1 1.5 1.9
v -3 1.5 1.9
v -1 1.5 1.9
v -0.9 1.5 1.9
v -0.0999999 1.5 1.9
v -3.1 1.5 1.7
v -3 1.5 1.7
v -1 1.5 1.7
v -0.9 1.5 1.7
v -3.9 1.5 1.1
v -3.7 1.5 1.1
v -0.3 1.5 1.1
v -0.0999999 1.5 1.1
v -4 1.5 1
v -3.9 1.5 1
v -3.7 1.5 1
v -0.3 1.5 1
v -0.0999999 1.5 1
v 0 1.5 1
v -4 1.5 -1
v -3.9 1.5 -1
v -3.7 1.5 -1
v -0.3 1.5 -1
v -0.0999999 1.5 -1
v 0 1.5 -1
v -3.9 1.5 -1.1
v -3.7 1.5 -1.1
v -0.3 1.5 -1.1
v -0.0999999 1.5 -1.1
v -3.1 1.5 -1.7
v -3 1.5 -1.7
v -1 1.5 -1.7
v -0.9 1.5 -1.7
v -3.9 1.5 -1.9
v -3.1 1.5 -1.9
v -3 1.5 -1.9
v -1 1.5 -1.9
v -0.9 1.5 -1.9
v -0.0999999 1.5 -1.9
v -4 1.5 -2
v -3 1.5 -2
v -1 1.5 -2
v 0 1.5 -2
v -3 1.6 1.9
v -2.9 1.6 1.9
v -1.1 1.6 1.9
v -1 1.6 1.9
v -2.9 1.6 1.8
v -1.1 1.6 1.8
v -3 1.6 1.7
v -1 1.6 1.7
v -3.9 1.6 1
v -3.7 1.6 1
v -0.3 1.6 1
v -0.0999999 1.6 1
v -3.9 1.6 0.9
v -3.8 1.6 0.9
v -0.2 1.6 0.9
v -0.0999999 1.6 0.9
v -3.9 1.6 -0.9
v -3.8 1.6 -0.9
v -0.2 1.6 -0.9
v -0.0999999 1.6 -0.9
v -3.9 1.6 -1
v -3.7 1.6 -1
v -0.3 1.6 -1
v -0.0999999 1.6 -1
v -3 1.6 -1.7
v -1 1.6 -1.7
v -2.9 1.6 -1.8
v -1.1 1.6 -1.8
v -3 1.6 -1.9
v -2.9 1.6 -1.9
v -1.1 1.6 -1.9
v -1 1.6 -1.9
v -3 0.4 1.9
v -2.8 0.4 1.9
v -1.2 0.4 1.9
v -1 0.4 1.9
v -2.8 0.4 1.8
v -1.2 0.4 1.8
v -3 0.4 1.7
v -1 0.4 1.7
v -3.9 0.4 1
v -3.7 0.4 1
v -0.3 0.4 1
v -0.0999999 0.4 1
v -3.9 0.4 0.8
v -3.8 0.4 0.8
v -0.2 0.4 0.8
v -0.0999999 0.4 0.8
v -3.9 0.4 -0.8
v -3.8 0.4 -0.8
v -0.2 0.4 -0.8
v -0.0999999 0.4 -0.8
v -3.9 0.4 -1
v -3.7 0.4 -1
v -0.3 0.4 -1
v -0.0999999 0.4 -1
v -3 0.4 -1.7
v -1 0.4 -1.7
v -2.8 0.4 -1.8
v -1.2 0.4 -1.8
v -3 0.4 -1.9
v -2.8 0.4 -1.9
v -1.2 0.4 -1.9
v -1 0.4 -1.9
v -4 0.5 2
v -3 0.5 2
v -1 0.5 2
v 0 0.5 2
v -3.9 0.5 1.9
v -3.1 0.5 1.9
v -3 0.5 1.9
v -1 0.5 1.9
v -0.9 0.5 1.9
v -0.0999999 0.5 1.9
v -3.1 0.5 1.7
v -3 0.5 1.7
v -1 0.5 1.7
v -0.9 0.5 1.7
v -3.9 0.5 1.1
v -3.7 0.5 1.1
v -0.3 0.5 1.1
v -0.0999999 0.5 1.1
v -4 0.5 1
v -3.9 0.5 1
v -3.7 0.5 1
v -0.3 0.5 1
v -0.0999999 0.5 1
v 0 0.5 1
v -4 0.5 -1
v -3.9 0.5 -1
v -3.7 0.5 -1
v -0.3 0.5 -1
v -0.0999999 0.5 -1
v 0 0.5 -1
v -3.9 0.5 -1.1
v -3.7 0.5 -1.1
v -0.3 0.5 -1.1
v -0.0999999 0.5 -1.1
v -3.1 0.5 -1.7
v -3 0.5 -1.7
v -1 0.5 -1.7
v -0.9 0.5 -1.7
v -3.9 0.5 -1.9
v -3.1 0.5 -1.9
v -3 0.5 -1.9
v -1 0.5 -1.9
v -0.9 0.5 -1.9
v -0.0999999 0.5 -1.9
v -4 0.5 -2
v -3 0.5 -2
v -1 0.5 -2
v 0 0.5 -2
v -3.1 0.6 1.7
v -2.8 0.6 1.7
v -1.2 0.6 1.7
v -0.9 0.6 1.7
v -2.8 0.6 1.6
v -1.2 0.6 1.6
v -3.1 0.6 1.4
v -1 0.6 1.4
v -0.9 0.6 1.4
v -3.1 0.6 1.3
v -1 0.6 1.3
v -0.9 0.6 1.3
v -3.7 0.6 1.1
v -3.4 0.6 1.1
v -3.3 0.6 1.1
v -0.7 0.6 1.1
v -0.6 0.6 1.1
v -0.3 0.6 1.1
v -3.4 0.6 1
v -3.3 0.6 1
v -3.7 0.6 0.8
v -3.6 0.6 0.8
v -0.4 0.6 0.8
v -0.3 0.6 0.8
v -3.7 0.6 -0.8
v -3.6 0.6 -0.8
v -0.4 0.6 -0.8
v -0.3 0.6 -0.8
v -0.7 0.6 -1
v -0.6 0.6 -1
v -3.7 0.6 -1.1
v -3.4 0.6 -1.1
v -3.3 0.6 -1.1
v -0.7 0.6 -1.1
v -0.6 0.6 -1.1
v -0.3 0.6 -1.1
v -3.1 0.6 -1.3
v -3 0.6 -1.3
v -0.9 0.6 -1.3
v -3.1 0.6 -1.4
v -3 0.6 -1.4
v -0.9 0.6 -1.4
v -2.8 0.6 -1.6
v -1.2 0.6 -1.6
v -3.1 0.6 -1.7
v -2.8 0.6 -1.7
v -1.2 0.6 -1.7
v -0.9 0.6 -1.7
v -3.9 0.7 1.9
v -3.1 0.7 1.9
v -0.9 0.7 1.9
v -0.0999999 0.7 1.9
v -3.8 0.7 1.8
v -3.2 0.7 1.8
v -0.8 0.7 1.8
v -0.2 0.7 1.8
v -3.2 0.7 1.7
v -3.1 0.7 1.7
v -0.9 0.7 1.7
v -0.8 0.7 1.7
v -3.2 0.7 1.4
v -3.1 0.7 1.4
v -0.9 0.7 1.4
v -0.8 0.7 1.4
v -3.2 0.7 1.3
v -3.1 0.7 1.3
v -0.9 0.7 1.3
v -0.8 0.7 1.3
v -3.8 0.7 1.2
v -3.7 0.7 1.2
v -3.4 0.7 1.2
v -3.3 0.7 1.2
v -0.7 0.7 1.2
v -0.6 0.7 1.2
v -0.3 0.7 1.2
v -0.2 0.7 1.2
v -3.9 0.7 1.1
v -3.7 0.7 1.1
v -3.4 0.7 1.1
v -3.3 0.7 1.1
v -0.7 0.7 1.1
v -0.6 0.7 1.1
v -0.3 0.7 1.1
v -0.0999999 0.7 1.1
v -3.9 0.7 -1.1
v -3.7 0.7 -1.1
v -3.4 0.7 -1.1
v -3.3 0.7 -1.1
v -0.7 0.7 -1.1
v -0.6 0.7 -1.1
v -0.3 0.7 -1.1
v -0.0999999 0.7 -1.1
v -3.8 0.7 -1.2
v -3.7 0.7 -1.2
v -3.4 0.7 -1.2
v -3.3 0.7 -1.2
v -0.7 0.7 -1.2
v -0.6 0.7 -1.2
v -0.3 0.7 -1.2
v -0.2 0.7 -1.2
v -3.2 0.7 -1.3
v -3.1 0.7 -1.3
v -0.9 0.7 -1.3
v -0.8 0.7 -1.3
v -3.2 0.7 -1.4
v -3.1 0.7 -1.4
v -0.9 0.7 -1.4
v -0.8 0.7 -1.4
v -3.2 0.7 -1.7
v -3.1 0.7 -1.7
v -0.9 0.7 -1.7
v -0.8 0.7 -1.7
v -3.8 0.7 -1.8
v -3.2 0.7 -1.8
v -0.8 0.7 -1.8
v -0.2 0.7 -1.8
v -3.9 0.7 -1.9
v -3.1 0.7 -1.9
v -0.9 0.7 -1.9
v -0.0999999 0.7 -1.9
v -2.3 1.3 0.7
v -1.7 1.3 0.7
v -2.5 1.3 0.6
v -2.3 1.3 0.6
v -1.7 1.3 0.6
v -1.5 1.3 0.6
v -2.6 1.3 0.5
v -2.5 1.3 0.5
v -1.5 1.3 0.5
v -1.4 1.3 0.5
v -2.7 1.3 0.3
v -2.6 1.3 0.3
v -1.4 1.3 0.3
v -1.3 1.3 0.3
v -2.7 1.3 -0.3
v -2.6 1.3 -0.3
v -1.4 1.3 -0.3
v -1.3 1.3 -0.3
v -2.6 1.3 -0.5
v -2.5 1.3 -0.5
v -1.5 1.3 -0.5
v -1.4 1.3 -0.5
v -2.5 1.3 -0.6
v -2.3 1.3 -0.6
v -1.7 1.3 -0.6
v -1.5 1.3 -0.6
v -2.3 1.3 -0.7
v -1.7 1.3 -0.7
v -2.3 1.6 0.8
v -1.7 1.6 0.8
v -2.5 1.6 0.7
v -2.3 1.6 0.7
v -1.7 1.6 0.7
v -1.5 1.6 0.7
v -2.6 1.6 0.6
v -2.5 1.6 0.6
v -2.3 1.6 0.6
v -1.7 1.6 0.6
v -1.5 1.6 0.6
v -1.4 1.6 0.6
v -2.7 1.6 0.5
v -2.6 1.6 0.5
v -2.5 1.6 0.5
v -1.5 1.6 0.5
v -1.4 1.6 0.5
v -1.3 1.6 0.5
v -2.8 1.6 0.3
v -2.7 1.6 0.3
v -2.6 1.6 0.3
v -1.4 1.6 0.3
v -1.3 1.6 0.3
v -1.2 1.6 0.3
v -2.8 1.6 -0.3
v -2.7 1.6 -0.3
v -2.6 1.6 -0.3
v -1.4 1.6 -0.3
v -1.3 1.6 -0.3
v -1.2 1.6 -0.3
v -2.7 1.6 -0.5
v -2.6 1.6 -0.5
v -2.5 1.6 -0.5
v -1.5 1.6 -0.5
v -1.4 1.6 -0.5
v -1.3 1.6 -0.5
v -2.6 1.6 -0.6
v -2.5 1.6 -0.6
v -2.3 1.6 -0.6
v -1.7 1.6 -0.6
v -1.5 1.6 -0.6
v -1.4 1.6 -0.6
v -2.5 1.6 -0.7
v -2.3 1.6 -0.7
v -1.7 1.6 -0.7
v -1.5 1.6 -0.7
v -2.3 1.6 -0.8
v -1.7 1.6 -0.8
v -2.4 1.7 1
v -1.6 1.7 1
v -2.6 1.7 0.9
v -2.4 1.7 0.9
v -1.6 1.7 0.9
v -1.4 1.7 0.9
v -2.7 1.7 0.8
v -2.6 1.7 0.8
v -2.3 1.7 0.8
v -1.7 1.7 0.8
v -1.4 1.7 0.8
v -1.3 1.7 0.8
v -2.8 1.7 0.7
v -2.7 1.7 0.7
v -2.5 1.7 0.7
v -2.3 1.7 0.7
v -1.7 1.7 0.7
v -1.5 1.7 0.7
v -1.3 1.7 0.7
v -1.2 1.7 0.7
v -2.9 1.7 0.6
v -2.8 1.7 0.6
v -2.6 1.7 0.6
v -2.5 1.7 0.6
v -1.5 1.7 0.6
v -1.4 1.7 0.6
v -1.2 1.7 0.6
v -1.1 1.7 0.6
v -2.7 1.7 0.5
v -2.6 1.7 0.5
v -1.4 1.7 0.5
v -1.3 1.7 0.5
v -3 1.7 0.4
v -2.9 1.7 0.4
v -1.1 1.7 0.4
v -1 1.7 0.4
v -2.8 1.7 0.3
v -2.7 1.7 0.3
v -1.3 1.7 0.3
v -1.2 1.7 0.3
v -2.8 1.7 -0.3
v -2.7 1.7 -0.3
v -1.3 1.7 -0.3
v -1.2 1.7 -0.3
v -3 1.7 -0.4
v -2.9 1.7 -0.4
v -1.1 1.7 -0.4
v -1 1.7 -0.4
v -2.7 1.7 -0.5
v -2.6 1.7 -0.5
v -1.4 1.7 -0.5
v -1.3 1.7 -0.5
v -2.9 1.7 -0.6
v -2.8 1.7 -0.6
v -2.6 1.7 -0.6
v -2.5 1.7 -0.6
v -1.5 1.7 -0.6
v -1.4 1.7 -0.6
v -1.2 1.7 -0.6
v -1.1 1.7 -0.6
v -2.8 1.7 -0.7
v -2.7 1.7 -0.7
v -2.5 1.7 -0.7
v -2.3 1.7 -0.7
v -1.7 1.7 -0.7
v -1.5 1.7 -0.7
v -1.3 1.7 -0.7
v -1.2 1.7 -0.7
v -2.7 1.7 -0.8
v -2.6 1.7 -0.8
v -2.3 1.7 -0.8
v -1.7 1.7 -0.8
v -1.4 1.7 -0.8
v -1.3 1.7 -0.8
v -2.6 1.7 -0.9
v -2.4 1.7 -0.9
v -1.6 1.7 -0.9
v -1.4 1.7 -0.9
v -2.4 1.7 -1
v -1.6 1.7 -1
v -3 1.8 1.1
v -1 1.8 1.1
v -3.1 1.8 1
v -3 1.8 1
v -2.4 1.8 1
v -1.6 1.8 1
v -1 1.8 1
v -0.9 1.8 1
v -2.6 1.8 0.9
v -2.4 1.8 0.9
v -1.6 1.8 0.9
v -1.4 1.8 0.9
v -2.7 1.8 0.8
v -2.6 1.8 0.8
v -1.4 1.8 0.8
v -1.3 1.8 0.8
v -2.8 1.8 0.7
v -2.7 1.8 0.7
v -1.3 1.8 0.7
v -1.2 1.8 0.7
v -2.9 1.8 0.6
v -2.8 1.8 0.6
v -1.2 1.8 0.6
v -1.1 1.8 0.6
v -3 1.8 0.4
v -2.9 1.8 0.4
v -1.1 1.8 0.4
v -1 1.8 0.4
v -3 1.8 -0.4
v -2.9 1.8 -0.4
v -1.1 1.8 -0.4
v -1 1.8 -0.4
v -2.9 1.8 -0.6
v -2.8 1.8 -0.6
v -1.2 1.8 -0.6
v -1.1 1.8 -0.6
v -2.8 1.8 -0.7
v -2.7 1.8 -0.7
v -1.3 1.8 -0.7
v -1.2 1.8 -0.7
v -2.7 1.8 -0.8
v -2.6 1.8 -0.8
v -1.4 1.8 -0.8
v -1.3 1.8 -0.8
v -2.6 1.8 -0.9
v -2.4 1.8 -0.9
v -1.6 1.8 -0.9
v -1.4 1.8 -0.9
v -3.1 1.8 -1
v -3 1.8 -1
v -2.4 1.8 -1
v -1.6 1.8 -1
v -1 1.8 -1
v -0.9 1.8 -1
v -3 1.8 -1.1
v -1 1.8 -1.1
v -3 1.9 1.9
v -1 1.9 1.9
v -2.5 1.9 1.8
v -1.5 1.9 1.8
v -2.8 1.9 1.7
v -2.5 1.9 1.7
v -1.5 1.9 1.7
v -1.2 1.9 1.7
v -3 1.9 1.6
v -2.8 1.9 1.6
v -1.2 1.9 1.6
v -1 1.9 1.6
v -3 1.9 1.5
v -1 1.9 1.5
v -3 1.9 1.1
v -1 1.9 1.1
v -3.9 1.9 1
v -3.6 1.9 1
v -3.5 1.9 1
v -3.1 1.9 1
v -0.9 1.9 1
v -0.5 1.9 1
v -0.4 1.9 1
v -0.0999999 1.9 1
v -3.7 1.9 0.8
v -3.6 1.9 0.8
v -0.4 1.9 0.8
v -0.3 1.9 0.8
v -3.8 1.9 0.5
v -3.7 1.9 0.5
v -0.3 1.9 0.5
v -0.2 1.9 0.5
v -3.8 1.9 -0.5
v -3.7 1.9 -0.5
v -0.3 1.9 -0.5
v -0.2 1.9 -0.5
v -3.7 1.9 -0.8
v -3.6 1.9 -0.8
v -0.4 1.9 -0.8
v -0.3 1.9 -0.8
v -3.9 1.9 -1
v -3.6 1.9 -1
v -3.5 1.9 -1
v -3.1 1.9 -1
v -0.9 1.9 -1
v -0.5 1.9 -1
v -0.4 1.9 -1
v -0.0999999 1.9 -1
v -3 1.9 -1.1
v -1 1.9 -1.1
v -3 1.9 -1.5
v -1 1.9 -1.5
v -3 1.9 -1.6
v -2.8 1.9 -1.6
v -1.2 1.9 -1.6
v -1 1.9 -1.6
v -2.8 1.9 -1.7
v -2.5 1.9 -1.7
v -1.5 1.9 -1.7
v -1.2 1.9 -1.7
v -2.5 1.9 -1.8
v -1.5 1.9 -1.8
v -3 1.9 -1.9
v -1 1.9 -1.9
v -4 2 2
v -3 2 2
v -1 2 2
v 0 2 2
v -3.1 2 1.5
v -3 2 1.5
v -1 2 1.5
v -0.9 2 1.5
v -3.2 2 1.4
v -3.1 2 1.4
v -0.9 2 1.4
v -0.8 2 1.4
v -3.3 2 1.3
v -3.2 2 1.3
v -0.8 2 1.3
v -0.7 2 1.3
v -3.4 2 1.2
v -3.3 2 1.2
v -0.7 2 1.2
v -0.6 2 1.2
v -3.5 2 1.1
v -3.4 2 1.1
v -0.6 2 1.1
v -0.5 2 1.1
v -4 2 1
v -3.5 2 1
v -3 2 1
v -1 2 1
v -0.5 2 1
v 0 2 1
v -4 2 -1
v -3.5 2 -1
v -3 2 -1
v -1 2 -1
v -0.5 2 -1
v 0 2 -1
v -3.5 2 -1.1
v -3.4 2 -1.1
v -0.6 2 -1.1
v -0.5 2 -1.1
v -3.4 2 -1.2
v -3.3 2 -1.2
v -0.7 2 -1.2
v -0.6 2 -1.2
v -3.3 2 -1.3
v -3.2 2 -1.3
v -0.8 2 -1.3
v -0.7 2 -1.3
v -3.2 2 -1.4
v -3.1 2 -1.4
v -0.9 2 -1.4
v -0.8 2 -1.4
v -3.1 2 -1.5
v -3 2 -1.5
v -1 2 -1.5
v -0.9 2 -1.5
v -4 2 -2
v -3 2 -2
v -1 2 -2
v 0 2 -2

# faces
f 5/1/1 2/1/1 1/1/1
f 6/1/1 2/1/1 5/1/1
f 7/1/1 4/1/1 3/1/1
f 8/1/1 4/1/1 7/1/1
f 9/1/1 5/1/1 1/1/1
f 10/4/1 6/4/1 5/4/1
f 10/1/1 5/1/1 9/1/1
f 11/1/1 2/1/1 6/1/1
f 11/4/1 6/4/1 10/4/1
f 12/1/1 2/1/1 11/1/1
f 13/1/1 7/1/1 3/1/1
f 14/4/1 8/4/1 7/4/1
f 14/1/1 7/1/1 13/1/1
f 15/1/1 4/1/1 8/1/1
f 15/4/1 8/4/1 14/4/1
f 16/1/1 4/1/1 15/1/1
f 17/4/1 10/4/1 9/4/1
f 17/4/1 12/4/1 11/4/1
f 17/4/1 11/4/1 10/4/1
f 18/4/1 12/4/1 17/4/1
f 19/4/1 14/4/1 13/4/1
f 19/4/1 16/4/1 15/4/1
f 19/4/1 15/4/1 14/4/1
f 20/4/1 16/4/1 19/4/1
f 25/1/1 22/1/1 21/1/1
f 26/1/1 22/1/1 25/1/1
f 27/1/1 24/1/1 23/1/1
f 28/1/1 24/1/1 27/1/1
f 29/1/1 25/1/1 21/1/1
f 30/4/1 26/4/1 25/4/1
f 30/1/1 25/1/1 29/1/1
f 31/1/1 22/1/1 26/1/1
f 31/4/1 26/4/1 30/4/1
f 32/1/1 22/1/1 31/1/1
f 33/1/1 27/1/1 23/1/1
f 34/4/1 28/4/1 27/4/1
f 34/1/1 27/1/1 33/1/1
f 35/1/1 24/1/1 28/1/1
f 35/4/1 28/4/1 34/4/1
f 36/1/1 24/1/1 35/1/1
f 37/1/1 29/1/1 21/1/1
f 38/4/1 30/4/1 29/4/1
f 38/1/1 29/1/1 37/1/1
f 38/4/1 32/4/1 31/4/1
f 38/4/1 31/4/1 30/4/1
f 39/4/1 34/4/1 33/4/1
f 39/1/1 24/1/1 36/1/1
f 39/4/1 36/4/1 35/4/1
f 39/4/1 35/4/1 34/4/1
f 40/1/1 24/1/1 39/1/1
f 41/4/1 38/4/1 37/4/1
f 42/4/1 32/4/1 38/4/1
f 42/4/1 38/4/1 41/4/1
f 43/4/1 39/4/1 33/4/1
f 43/4/1 40/4/1 39/4/1
f 44/4/1 40/4/1 43/4/1
f 47/1/1 46/1/1 45/1/1
f 48/1/1 46/1/1 47/1/1
f 49/1/1 47/1/1 45/1/1
f 50/1/1 47/1/1 49/1/1
f 51/4/1 48/4/1 47/4/1
f 51/1/1 47/1/1 50/1/1
f 52/1/1 46/1/1 48/1/1
f 52/4/1 48/4/1 51/4/1
f 53/1/1 46/1/1 52/1/1
f 54/1/1 46/1/1 53/1/1
f 55/1/1 50/1/1 49/1/1
f 56/4/1 51/4/1 50/4/1
f 56/1/1 50/1/1 55/1/1
f 56/4/1 52/4/1 51/4/1
f 56/4/1 53/4/1 52/4/1
f 57/1/1 54/1/1 53/1/1
f 57/4/1 53/4/1 56/4/1
f 58/1/1 54/1/1 57/1/1
f 63/1/1 60/1/1 59/1/1
f 64/1/1 60/1/1 63/1/1
f 65/1/1 62/1/1 61/1/1
f 66/1/1 62/1/1 65/1/1
f 67/4/1 64/4/1 63/4/1
f 68/4/1 64/4/1 67/4/1
f 69/4/1 66/4/1 65/4/1
f 70/4/1 66/4/1 69/4/1
f 75/3/1 72/3/1 71/3/1
f 76/3/1 72/3/1 75/3/1
f 77/3/1 74/3/1 73/3/1
f 78/3/1 74/3/1 77/3/1
f 83/3/1 80/3/1 79/3/1
f 84/1/1 81/1/1 80/1/1
f 84/3/1 80/3/1 83/3/1
f 85/1/1 81/1/1 84/1/1
f 86/1/1 81/1/1 85/1/1
f 87/3/1 82/3/1 81/3/1
f 87/1/1 81/1/1 86/1/1
f 88/3/1 82/3/1 87/3/1
f 89/1/1 84/1/1 83/1/1
f 89/1/1 85/1/1 84/1/1
f 90/4/1 86/4/1 85/4/1
f 90/1/1 85/1/1 89/1/1
f 91/1/1 88/1/1 87/1/1
f 91/4/1 86/4/1 90/4/1
f 91/1/1 87/1/1 86/1/1
f 92/1/1 88/1/1 91/1/1
f 93/4/1 90/4/1 89/4/1
f 93/4/1 91/4/1 90/4/1
f 93/4/1 92/4/1 91/4/1
f 94/4/1 92/4/1 93/4/1
f 99/1/1 96/1/1 95/1/1
f 100/1/1 96/1/1 99/1/1
f 101/1/1 98/1/1 97/1/1
f 102/1/1 98/1/1 101/1/1
f 103/3/1 100/3/1 99/3/1
f 104/3/1 100/3/1 103/3/1
f 105/3/1 102/3/1 101/3/1
f 106/3/1 102/3/1 105/3/1
f 110/1/1 108/1/1 107/1/1
f 111/1/1 108/1/1 110/1/1
f 112/1/1 108/1/1 111/1/1
f 113/1/1 108/1/1 112/1/1
f 115/1/1 110/1/1 109/1/1
f 115/1/1 111/1/1 110/1/1
f 116/4/1 112/4/1 111/4/1
f 116/1/1 111/1/1 115/1/1
f 117/1/1 114/1/1 113/1/1
f 117/4/1 112/4/1 116/4/1
f 117/1/1 113/1/1 112/1/1
f 118/1/1 114/1/1 117/1/1
f 121/3/1 120/3/1 119/3/1
f 122/3/1 120/3/1 121/3/1
f 123/3/1 120/3/1 122/3/1
f 124/3/1 120/3/1 123/3/1
f 125/3/1 123/3/1 122/3/1
f 126/3/1 123/3/1 125/3/1
f 131/3/1 128/3/1 127/3/1
f 131/3/1 129/3/1 128/3/1
f 132/3/1 129/3/1 131/3/1
f 133/3/1 129/3/1 132/3/1
f 134/3/1 129/3/1 133/3/1
f 136/3/1 131/3/1 130/3/1
f 136/3/1 132/3/1 131/3/1
f 137/1/1 133/1/1 132/1/1
f 137/3/1 132/3/1 136/3/1
f 138/3/1 135/3/1 134/3/1
f 138/1/1 133/1/1 137/1/1
f 138/3/1 134/3/1 133/3/1
f 139/3/1 135/3/1 138/3/1
f 140/1/1 137/1/1 136/1/1
f 140/3/1 136/3/1 130/3/1
f 140/1/1 139/1/1 138/1/1
f 140/1/1 138/1/1 137/1/1
f 141/1/1 139/1/1 140/1/1
f 142/1/1 139/1/1 141/1/1
f 143/3/1 135/3/1 139/3/1
f 143/1/1 139/1/1 142/1/1
f 144/1/1 142/1/1 141/1/1
f 144/3/1 141/3/1 140/3/1
f 145/3/1 143/3/1 142/3/1
f 145/1/1 142/1/1 144/1/1
f 146/3/1 140/3/1 130/3/1
f 146/3/1 144/3/1 140/3/1
f 146/3/1 145/3/1 144/3/1
f 147/3/1 145/3/1 146/3/1
f 148/3/1 135/3/1 143/3/1
f 148/3/1 145/3/1 147/3/1
f 148/3/1 143/3/1 145/3/1
f 149/3/1 135/3/1 148/3/1
f 150/3/1 148/3/1 147/3/1
f 151/3/1 148/3/1 150/3/1
f 157/2/1 153/2/1 152/2/1
f 158/2/1 153/2/1 157/2/1
f 159/2/1 155/2/1 154/2/1
f 160/2/1 155/2/1 159/2/1
f 162/2/1 157/2/1 156/2/1
f 163/2/1 157/2/1 162/2/1
f 164/2/1 161/2/1 160/2/1
f 165/2/1 161/2/1 164/2/1
f 170/2/1 167/2/1 166/2/1
f 171/2/1 167/2/1 170/2/1
f 172/2/1 169/2/1 168/2/1
f 173/2/1 169/2/1 172/2/1
f 179/2/1 175/2/1 174/2/1
f 180/2/1 175/2/1 179/2/1
f 181/2/1 177/2/1 176/2/1
f 182/2/1 177/2/1 181/2/1
f 184/2/1 179/2/1 178/2/1
f 185/2/1 179/2/1 184/2/1
f 186/2/1 183/2/1 182/2/1
f 187/2/1 183/2/1 186/2/1
f 193/2/1 189/2/1 188/2/1
f 194/2/1 189/2/1 193/2/1
f 195/2/1 191/2/1 190/2/1
f 196/2/1 191/2/1 195/2/1
f 200/2/1 193/2/1 192/2/1
f 201/2/1 193/2/1 200/2/1
f 202/2/1 197/2/1 196/2/1
f 203/2/1 197/2/1 202/2/1
f 206/2/1 199/2/1 198/2/1
f 207/2/1 199/2/1 206/2/1
f 208/2/1 205/2/1 204/2/1
f 209/2/1 205/2/1 208/2/1
f 213/2/1 211/2/1 210/2/1
f 214/2/1 211/2/1 213/2/1
f 218/2/1 213/2/1 212/2/1
f 219/2/1 213/2/1 218/2/1
f 220/2/1 215/2/1 214/2/1
f 221/2/1 215/2/1 220/2/1
f 224/2/1 217/2/1 216/2/1
f 225/2/1 217/2/1 224/2/1
f 226/2/1 223/2/1 222/2/1
f 227/2/1 223/2/1 226/2/1
f 232/2/1 229/2/1 228/2/1
f 233/2/1 229/2/1 232/2/1
f 236/2/1 231/2/1 230/2/1
f 237/2/1 231/2/1 236/2/1
f 238/2/1 235/2/1 234/2/1
f 239/2/1 235/2/1 238/2/1
f 244/2/1 241/2/1 240/2/1
f 245/2/1 241/2/1 244/2/1
f 246/2/1 243/2/1 242/2/1
f 247/2/1 243/2/1 246/2/1
f 252/1/1 249/1/1 248/1/1
f 253/1/1 249/1/1 252/1/1
f 254/1/1 251/1/1 250/1/1
f 255/1/1 251/1/1 254/1/1
f 256/4/1 253/4/1 252/4/1
f 259/4/1 255/4/1 254/4/1
f 260/4/1 256/4/1 252/4/1
f 261/1/1 257/1/1 256/1/1
f 261/4/1 256/4/1 260/4/1
f 262/1/1 257/1/1 261/1/1
f 263/1/1 259/1/1 258/1/1
f 264/4/1 255/4/1 259/4/1
f 264/1/1 259/1/1 263/1/1
f 265/4/1 255/4/1 264/4/1
f 272/1/1 267/1/1 266/1/1
f 272/3/1 268/3/1 267/3/1
f 273/3/1 268/3/1 272/3/1
f 274/3/1 270/3/1 269/3/1
f 275/1/1 271/1/1 270/1/1
f 275/3/1 270/3/1 274/3/1
f 276/1/1 272/1/1 266/1/1
f 279/1/1 271/1/1 275/1/1
f 280/1/1 276/1/1 266/1/1
f 281/1/1 276/1/1 280/1/1
f 284/2/1 278/2/1 277/2/1
f 285/2/1 278/2/1 284/2/1
f 288/1/1 271/1/1 279/1/1
f 289/1/1 271/1/1 288/1/1
f 290/4/1 281/4/1 280/4/1
f 293/2/1 283/2/1 282/2/1
f 294/2/1 287/2/1 286/2/1
f 297/4/1 289/4/1 288/4/1
f 298/4/1 292/4/1 291/4/1
f 298/4/1 290/4/1 280/4/1
f 298/4/1 291/4/1 290/4/1
f 299/2/1 293/2/1 292/2/1
f 299/4/1 292/4/1 298/4/1
f 300/2/1 283/2/1 293/2/1
f 300/2/1 293/2/1 299/2/1
f 301/2/1 294/2/1 286/2/1
f 301/2/1 295/2/1 294/2/1
f 302/4/1 297/4/1 296/4/1
f 302/2/1 295/2/1 301/2/1
f 302/4/1 296/4/1 295/4/1
f 303/4/1 289/4/1 297/4/1
f 303/4/1 297/4/1 302/4/1
f 308/1/1 305/1/1 304/1/1
f 309/1/1 305/1/1 308/1/1
f 314/1/1 307/1/1 306/1/1
f 315/1/1 307/1/1 314/1/1
f 316/4/1 309/4/1 308/4/1
f 317/1/1 310/1/1 309/1/1
f 317/4/1 309/4/1 316/4/1
f 318/3/1 311/3/1 310/3/1
f 318/1/1 310/1/1 317/1/1
f 319/3/1 311/3/1 318/3/1
f 320/3/1 313/3/1 312/3/1
f 321/1/1 314/1/1 313/1/1
f 321/3/1 313/3/1 320/3/1
f 322/4/1 315/4/1 314/4/1
f 322/1/1 314/1/1 321/1/1
f 323/4/1 315/4/1 322/4/1
f 328/3/1 325/3/1 324/3/1
f 329/3/1 325/3/1 328/3/1
f 330/3/1 327/3/1 326/3/1
f 331/3/1 327/3/1 330/3/1
f 332/3/1 328/3/1 324/3/1
f 333/3/1 328/3/1 332/3/1
f 334/3/1 327/3/1 331/3/1
f 335/3/1 327/3/1 334/3/1
f 338/2/1 337/2/1 336/2/1
f 339/2/1 337/2/1 338/2/1
f 348/1/1 341/1/1 340/1/1
f 348/1/1 342/1/1 341/1/1
f 349/3/1 343/3/1 342/3/1
f 349/1/1 342/1/1 348/1/1
f 350/1/1 347/1/1 346/1/1
f 350/1/1 346/1/1 345/1/1
f 350/3/1 345/3/1 344/3/1
f 351/1/1 347/1/1 350/1/1
f 352/3/1 349/3/1 348/3/1
f 353/3/1 343/3/1 349/3/1
f 353/3/1 349/3/1 352/3/1
f 354/3/1 350/3/1 344/3/1
f 354/3/1 351/3/1 350/3/1
f 355/3/1 351/3/1 354/3/1
f 356/1/2 357/1/2 364/1/2
f 357/1/2 358/1/2 364/1/2
f 358/3/2 359/3/2 365/3/2
f 364/1/2 358/1/2 365/1/2
f 362/1/2 363/1/2 366/1/2
f 361/1/2 362/1/2 366/1/2
f 360/3/2 361/3/2 366/3/2
f 366/1/2 363/1/2 367/1/2
f 364/3/2 365/3/2 368/3/2
f 365/3/2 359/3/2 369/3/2
f 368/3/2 365/3/2 369/3/2
f 360/3/2 366/3/2 370/3/2
f 366/3/2 367/3/2 370/3/2
f 370/3/2 367/3/2 371/3/2
f 372/1/2 373/1/2 376/1/2
f 376/1/2 373/1/2 377/1/2
f 374/1/2 375/1/2 382/1/2
f 382/1/2 375/1/2 383/1/2
f 376/4/2 377/4/2 384/4/2
f 377/1/2 378/1/2 385/1/2
f 384/4/2 377/4/2 385/4/2
f 378/3/2 379/3/2 386/3/2
f 385/1/2 378/1/2 386/1/2
f 386/3/2 379/3/2 387/3/2
f 380/3/2 381/3/2 388/3/2
f 381/1/2 382/1/2 389/1/2
f 388/3/2 381/3/2 389/3/2
f 382/4/2 383/4/2 390/4/2
f 389/1/2 382/1/2 390/1/2
f 390/4/2 383/4/2 391/4/2
f 392/3/2 393/3/2 396/3/2
f 396/3/2 393/3/2 397/3/2
f 394/3/2 395/3/2 398/3/2
f 398/3/2 395/3/2 399/3/2
f 392/3/2 396/3/2 400/3/2
f 400/3/2 396/3/2 401/3/2
f 399/3/2 395/3/2 402/3/2
f 402/3/2 395/3/2 403/3/2
f 404/2/2 405/2/2 406/2/2
f 406/2/2 405/2/2 407/2/2
f 408/1/2 409/1/2 412/1/2
f 412/1/2 409/1/2 413/1/2
f 410/1/2 411/1/2 414/1/2
f 414/1/2 411/1/2 415/1/2
f 412/4/2 413/4/2 416/4/2
f 414/4/2 415/4/2 419/4/2
f 412/4/2 416/4/2 420/4/2
f 416/1/2 417/1/2 421/1/2
f 420/4/2 416/4/2 421/4/2
f 421/1/2 417/1/2 422/1/2
f 418/1/2 419/1/2 423/1/2
f 419/4/2 415/4/2 424/4/2
f 423/1/2 419/1/2 424/1/2
f 424/4/2 415/4/2 425/4/2
f 426/1/2 427/1/2 432/1/2
f 427/3/2 428/3/2 432/3/2
f 432/3/2 428/3/2 433/3/2
f 429/3/2 430/3/2 434/3/2
f 430/1/2 431/1/2 435/1/2
f 434/3/2 430/3/2 435/3/2
f 426/1/2 432/1/2 436/1/2
f 435/1/2 431/1/2 439/1/2
f 426/1/2 436/1/2 440/1/2
f 440/1/2 436/1/2 441/1/2
f 437/2/2 438/2/2 444/2/2
f 444/2/2 438/2/2 445/2/2
f 439/1/2 431/1/2 448/1/2
f 448/1/2 431/1/2 449/1/2
f 440/4/2 441/4/2 450/4/2
f 442/2/2 443/2/2 453/2/2
f 446/2/2 447/2/2 454/2/2
f 448/4/2 449/4/2 457/4/2
f 451/4/2 452/4/2 458/4/2
f 440/4/2 450/4/2 458/4/2
f 450/4/2 451/4/2 458/4/2
f 452/2/2 453/2/2 459/2/2
f 458/4/2 452/4/2 459/4/2
f 453/2/2 443/2/2 460/2/2
f 459/2/2 453/2/2 460/2/2
f 446/2/2 454/2/2 461/2/2
f 454/2/2 455/2/2 461/2/2
f 456/4/2 457/4/2 462/4/2
f 461/2/2 455/2/2 462/2/2
f 455/4/2 456/4/2 462/4/2
f 457/4/2 449/4/2 463/4/2
f 462/4/2 457/4/2 463/4/2
f 464/2/2 465/2/2 468/2/2
f 468/2/2 465/2/2 469/2/2
f 466/2/2 467/2/2 470/2/2
f 470/2/2 467/2/2 471/2/2
f 472/2/2 473/2/2 476/2/2
f 476/2/2 473/2/2 477/2/2
f 474/2/2 475/2/2 480/2/2
f 480/2/2 475/2/2 481/2/2
f 478/2/2 479/2/2 482/2/2
f 482/2/2 479/2/2 483/2/2
f 484/2/2 485/2/2 487/2/2
f 487/2/2 485/2/2 488/2/2
f 486/2/2 487/2/2 492/2/2
f 492/2/2 487/2/2 493/2/2
f 488/2/2 489/2/2 494/2/2
f 494/2/2 489/2/2 495/2/2
f 490/2/2 491/2/2 498/2/2
f 498/2/2 491/2/2 499/2/2
f 496/2/2 497/2/2 500/2/2
f 500/2/2 497/2/2 501/2/2
f 502/2/2 503/2/2 507/2/2
f 507/2/2 503/2/2 508/2/2
f 504/2/2 505/2/2 509/2/2
f 509/2/2 505/2/2 510/2/2
f 506/2/2 507/2/2 514/2/2
f 514/2/2 507/2/2 515/2/2
f 510/2/2 511/2/2 516/2/2
f 516/2/2 511/2/2 517/2/2
f 512/2/2 513/2/2 520/2/2
f 520/2/2 513/2/2 521/2/2
f 518/2/2 519/2/2 522/2/2
f 522/2/2 519/2/2 523/2/2
f 524/2/2 525/2/2 529/2/2
f 529/2/2 525/2/2 530/2/2
f 526/2/2 527/2/2 531/2/2
f 531/2/2 527/2/2 532/2/2
f 528/2/2 529/2/2 534/2/2
f 534/2/2 529/2/2 535/2/2
f 532/2/2 533/2/2 536/2/2
f 536/2/2 533/2/2 537/2/2
f 538/2/2 539/2/2 542/2/2
f 542/2/2 539/2/2 543/2/2
f 540/2/2 541/2/2 544/2/2
f 544/2/2 541/2/2 545/2/2
f 546/2/2 547/2/2 551/2/2
f 551/2/2 547/2/2 552/2/2
f 548/2/2 549/2/2 553/2/2
f 553/2/2 549/2/2 554/2/2
f 550/2/2 551/2/2 556/2/2
f 556/2/2 551/2/2 557/2/2
f 554/2/2 555/2/2 558/2/2
f 558/2/2 555/2/2 559/2/2
f 560/3/2 561/3/2 564/3/2
f 561/3/2 562/3/2 564/3/2
f 564/3/2 562/3/2 565/3/2
f 565/3/2 562/3/2 566/3/2
f 566/3/2 562/3/2 567/3/2
f 563/3/2 564/3/2 569/3/2
f 564/3/2 565/3/2 569/3/2
f 565/1/2 566/1/2 570/1/2
f 569/3/2 565/3/2 570/3/2
f 567/3/2 568/3/2 571/3/2
f 570/1/2 566/1/2 571/1/2
f 566/3/2 567/3/2 571/3/2
f 571/3/2 568/3/2 572/3/2
f 569/1/2 570/1/2 573/1/2
f 563/3/2 569/3/2 573/3/2
f 571/1/2 572/1/2 573/1/2
f 570/1/2 571/1/2 573/1/2
f 573/1/2 572/1/2 574/1/2
f 574/1/2 572/1/2 575/1/2
f 572/3/2 568/3/2 576/3/2
f 575/1/2 572/1/2 576/1/2
f 574/1/2 575/1/2 577/1/2
f 573/3/2 574/3/2 577/3/2
f 575/3/2 576/3/2 578/3/2
f 577/1/2 575/1/2 578/1/2
f 563/3/2 573/3/2 579/3/2
f 573/3/2 577/3/2 579/3/2
f 577/3/2 578/3/2 579/3/2
f 579/3/2 578/3/2 580/3/2
f 576/3/2 568/3/2 581/3/2
f 580/3/2 578/3/2 581/3/2
f 578/3/2 576/3/2 581/3/2
f 581/3/2 568/3/2 582/3/2
f 580/3/2 581/3/2 583/3/2
f 583/3/2 581/3/2 584/3/2
f 585/1/2 586/1/2 588/1/2
f 588/1/2 586/1/2 589/1/2
f 589/1/2 586/1/2 590/1/2
f 590/1/2 586/1/2 591/1/2
f 587/1/2 588/1/2 593/1/2
f 588/1/2 589/1/2 593/1/2
f 589/4/2 590/4/2 594/4/2
f 593/1/2 589/1/2 594/1/2
f 591/1/2 592/1/2 595/1/2
f 594/4/2 590/4/2 595/4/2
f 590/1/2 591/1/2 595/1/2
f 595/1/2 592/1/2 596/1/2
f 597/3/2 598/3/2 599/3/2
f 599/3/2 598/3/2 600/3/2
f 600/3/2 598/3/2 601/3/2
f 601/3/2 598/3/2 602/3/2
f 600/3/2 601/3/2 603/3/2
f 603/3/2 601/3/2 604/3/2
f 605/1/2 606/1/2 609/1/2
f 609/1/2 606/1/2 610/1/2
f 607/1/2 608/1/2 611/1/2
f 611/1/2 608/1/2 612/1/2
f 609/3/2 610/3/2 613/3/2
f 613/3/2 610/3/2 614/3/2
f 611/3/2 612/3/2 615/3/2
f 615/3/2 612/3/2 616/3/2
f 617/1/2 618/1/2 619/1/2
f 619/1/2 618/1/2 620/1/2
f 617/1/2 619/1/2 621/1/2
f 621/1/2 619/1/2 622/1/2
f 619/4/2 620/4/2 623/4/2
f 622/1/2 619/1/2 623/1/2
f 620/1/2 618/1/2 624/1/2
f 623/4/2 620/4/2 624/4/2
f 624/1/2 618/1/2 625/1/2
f 625/1/2 618/1/2 626/1/2
f 621/1/2 622/1/2 627/1/2
f 622/4/2 623/4/2 628/4/2
f 627/1/2 622/1/2 628/1/2
f 623/4/2 624/4/2 628/4/2
f 624/4/2 625/4/2 628/4/2
f 625/1/2 626/1/2 629/1/2
f 628/4/2 625/4/2 629/4/2
f 629/1/2 626/1/2 630/1/2
f 631/1/2 632/1/2 635/1/2
f 635/1/2 632/1/2 636/1/2
f 633/1/2 634/1/2 637/1/2
f 637/1/2 634/1/2 638/1/2
f 635/4/2 636/4/2 639/4/2
f 639/4/2 636/4/2 640/4/2
f 637/4/2 638/4/2 641/4/2
f 641/4/2 638/4/2 642/4/2
f 643/3/2 644/3/2 647/3/2
f 647/3/2 644/3/2 648/3/2
f 645/3/2 646/3/2 649/3/2
f 649/3/2 646/3/2 650/3/2
f 651/3/2 652/3/2 655/3/2
f 652/1/2 653/1/2 656/1/2
f 655/3/2 652/3/2 656/3/2
f 656/1/2 653/1/2 657/1/2
f 657/1/2 653/1/2 658/1/2
f 653/3/2 654/3/2 659/3/2
f 658/1/2 653/1/2 659/1/2
f 659/3/2 654/3/2 660/3/2
f 655/1/2 656/1/2 661/1/2
f 656/1/2 657/1/2 661/1/2
f 657/4/2 658/4/2 662/4/2
f 661/1/2 657/1/2 662/1/2
f 659/1/2 660/1/2 663/1/2
f 662/4/2 658/4/2 663/4/2
f 658/1/2 659/1/2 663/1/2
f 663/1/2 660/1/2 664/1/2
f 661/4/2 662/4/2 665/4/2
f 662/4/2 663/4/2 665/4/2
f 663/4/2 664/4/2 665/4/2
f 665/4/2 664/4/2 666/4/2
f 667/1/2 668/1/2 671/1/2
f 671/1/2 668/1/2 672/1/2
f 669/1/2 670/1/2 673/1/2
f 673/1/2 670/1/2 674/1/2
f 667/1/2 671/1/2 675/1/2
f 671/4/2 672/4/2 676/4/2
f 675/1/2 671/1/2 676/1/2
f 672/1/2 668/1/2 677/1/2
f 676/4/2 672/4/2 677/4/2
f 677/1/2 668/1/2 678/1/2
f 669/1/2 673/1/2 679/1/2
f 673/4/2 674/4/2 680/4/2
f 679/1/2 673/1/2 680/1/2
f 674/1/2 670/1/2 681/1/2
f 680/4/2 674/4/2 681/4/2
f 681/1/2 670/1/2 682/1/2
f 675/4/2 676/4/2 683/4/2
f 677/4/2 678/4/2 683/4/2
f 676/4/2 677/4/2 683/4/2
f 683/4/2 678/4/2 684/4/2
f 679/4/2 680/4/2 685/4/2
f 681/4/2 682/4/2 685/4/2
f 680/4/2 681/4/2 685/4/2
f 685/4/2 682/4/2 686/4/2
f 687/1/2 688/1/2 691/1/2
f 691/1/2 688/1/2 692/1/2
f 689/1/2 690/1/2 693/1/2
f 693/1/2 690/1/2 694/1/2
f 687/1/2 691/1/2 695/1/2
f 691/4/2 692/4/2 696/4/2
f 695/1/2 691/1/2 696/1/2
f 692/1/2 688/1/2 697/1/2
f 696/4/2 692/4/2 697/4/2
f 697/1/2 688/1/2 698/1/2
f 689/1/2 693/1/2 699/1/2
f 693/4/2 694/4/2 700/4/2
f 699/1/2 693/1/2 700/1/2
f 694/1/2 690/1/2 701/1/2
f 700/4/2 694/4/2 701/4/2
f 701/1/2 690/1/2 702/1/2
f 687/1/2 695/1/2 703/1/2
f 695/4/2 696/4/2 704/4/2
f 703/1/2 695/1/2 704/1/2
f 697/4/2 698/4/2 704/4/2
f 696/4/2 697/4/2 704/4/2
f 699/4/2 700/4/2 705/4/2
f 702/1/2 690/1/2 705/1/2
f 701/4/2 702/4/2 705/4/2
f 700/4/2 701/4/2 705/4/2
f 705/1/2 690/1/2 706/1/2
f 703/4/2 704/4/2 707/4/2
f 704/4/2 698/4/2 708/4/2
f 707/4/2 704/4/2 708/4/2
f 699/4/2 705/4/2 709/4/2
f 705/4/2 706/4/2 709/4/2
f 709/4/2 706/4/2 710/4/2
f 717/1/3 715/1/3 714/1/3
f 718/4/3 716/4/3 715/4/3
f 718/1/3 715/1/3 717/1/3
f 719/1/3 712/1/3 711/1/3
f 720/4/3 713/4/3 712/4/3
f 720/1/3 712/1/3 719/1/3
f 721/1/3 717/1/3 714/1/3
f 722/4/3 718/4/3 717/4/3
f 722/1/3 717/1/3 721/1/3
f 723/1/3 719/1/3 711/1/3
f 723/4/3 720/4/3 719/4/3
f 724/4/3 713/4/3 720/4/3
f 724/4/3 720/4/3 723/4/3
f 725/1/3 721/1/3 714/1/3
f 725/4/3 722/4/3 721/4/3
f 726/4/3 718/4/3 722/4/3
f 726/4/3 722/4/3 725/4/3
f 727/1/3 723/1/3 711/1/3
f 727/1/3 724/1/3 723/1/3
f 728/4/3 713/4/3 724/4/3
f 728/1/3 724/1/3 727/1/3
f 729/4/3 713/4/3 728/4/3
f 730/1/3 725/1/3 714/1/3
f 730/1/3 726/1/3 725/1/3
f 731/4/3 718/4/3 726/4/3
f 731/1/3 726/1/3 730/1/3
f 732/4/3 716/4/3 718/4/3
f 732/4/3 718/4/3 731/4/3
f 739/1/3 734/1/3 733/1/3
f 740/4/3 735/4/3 734/4/3
f 740/1/3 734/1/3 739/1/3
f 741/1/3 737/1/3 736/1/3
f 742/4/3 738/4/3 737/4/3
f 742/1/3 737/1/3 741/1/3
f 743/1/3 741/1/3 736/1/3
f 743/4/3 742/4/3 741/4/3
f 744/4/3 738/4/3 742/4/3
f 744/4/3 742/4/3 743/4/3
f 745/1/3 739/1/3 733/1/3
f 745/4/3 740/4/3 739/4/3
f 746/4/3 735/4/3 740/4/3
f 746/4/3 740/4/3 745/4/3
f 747/4/3 738/4/3 744/4/3
f 747/1/3 744/1/3 743/1/3
f 748/4/3 738/4/3 747/4/3
f 749/1/3 745/1/3 733/1/3
f 749/1/3 746/1/3 745/1/3
f 750/4/3 735/4/3 746/4/3
f 750/1/3 746/1/3 749/1/3
f 751/4/3 735/4/3 750/4/3
f 752/1/3 743/1/3 736/1/3
f 752/1/3 748/1/3 747/1/3
f 752/1/3 747/1/3 743/1/3
f 753/4/3 738/4/3 748/4/3
f 753/1/3 748/1/3 752/1/3
f 754/4/3 738/4/3 753/4/3
f 760/1/3 756/1/3 755/1/3
f 761/4/3 757/4/3 756/4/3
f 761/1/3 756/1/3 760/1/3
f 762/4/3 757/4/3 761/4/3
f 763/3/3 759/3/3 758/3/3
f 764/3/3 759/3/3 763/3/3
f 772/3/3 769/3/3 768/3/3
f 773/1/3 770/1/3 769/1/3
f 773/3/3 769/3/3 772/3/3
f 774/1/3 767/1/3 766/1/3
f 774/1/3 766/1/3 765/1/3
f 775/1/3 767/1/3 774/1/3
f 776/1/3 770/1/3 773/1/3
f 776/1/3 773/1/3 772/1/3
f 777/4/3 771/4/3 770/4/3
f 777/1/3 770/1/3 776/1/3
f 778/1/3 774/1/3 765/1/3
f 779/4/3 775/4/3 774/4/3
f 779/1/3 774/1/3 778/1/3
f 780/1/3 778/1/3 765/1/3
f 780/4/3 779/4/3 778/4/3
f 781/4/3 775/4/3 779/4/3
f 781/4/3 779/4/3 780/4/3
f 782/1/3 776/1/3 772/1/3
f 782/4/3 777/4/3 776/4/3
f 783/4/3 771/4/3 777/4/3
f 783/4/3 777/4/3 782/4/3
f 784/4/3 775/4/3 781/4/3
f 784/1/3 781/1/3 780/1/3
f 785/4/3 775/4/3 784/4/3
f 786/1/3 782/1/3 772/1/3
f 786/1/3 783/1/3 782/1/3
f 787/1/3 783/1/3 786/1/3
f 788/1/3 780/1/3 765/1/3
f 788/1/3 785/1/3 784/1/3
f 788/1/3 784/1/3 780/1/3
f 789/1/3 785/1/3 788/1/3
f 790/1/3 785/1/3 789/1/3
f 791/3/3 787/3/3 786/3/3
f 792/1/3 783/1/3 787/1/3
f 792/3/3 787/3/3 791/3/3
f 793/4/3 771/4/3 783/4/3
f 793/1/3 783/1/3 792/1/3
f 794/4/3 771/4/3 793/4/3
f 800/1/3 796/1/3 795/1/3
f 801/4/3 797/4/3 796/4/3
f 801/1/3 796/1/3 800/1/3
f 802/4/3 797/4/3 801/4/3
f 803/3/3 799/3/3 798/3/3
f 804/3/3 799/3/3 803/3/3
f 808/1/3 806/1/3 805/1/3
f 809/3/3 807/3/3 806/3/3
f 809/1/3 806/1/3 808/1/3
f 810/3/3 807/3/3 809/3/3
f 814/1/3 812/1/3 811/1/3
f 815/3/3 813/3/3 812/3/3
f 815/1/3 812/1/3 814/1/3
f 816/3/3 813/3/3 815/3/3
f 822/1/3 818/1/3 817/1/3
f 823/3/3 820/3/3 819/3/3
f 825/1/3 822/1/3 821/1/3
f 825/1/3 818/1/3 822/1/3
f 826/1/3 818/1/3 825/1/3
f 827/1/3 825/1/3 821/1/3
f 827/4/3 826/4/3 825/4/3
f 828/4/3 826/4/3 827/4/3
f 829/1/3 827/1/3 821/1/3
f 829/1/3 828/1/3 827/1/3
f 830/1/3 828/1/3 829/1/3
f 831/3/3 824/3/3 823/3/3
f 831/3/3 823/3/3 819/3/3
f 832/3/3 824/3/3 831/3/3
f 833/1/3 828/1/3 830/1/3
f 834/1/3 828/1/3 833/1/3
f 835/3/3 831/3/3 819/3/3
f 836/3/3 831/3/3 835/3/3
f 840/3/3 838/3/3 837/3/3
f 841/3/3 838/3/3 840/3/3
f 843/3/3 840/3/3 839/3/3
f 843/3/3 842/3/3 841/3/3
f 843/3/3 841/3/3 840/3/3
f 844/3/3 842/3/3 843/3/3
f 845/3/3 843/3/3 839/3/3
f 846/1/3 844/1/3 843/1/3
f 846/3/3 843/3/3 845/3/3
f 847/3/3 842/3/3 844/3/3
f 847/1/3 844/1/3 846/1/3
f 848/3/3 842/3/3 847/3/3
f 849/1/3 846/1/3 845/1/3
f 849/3/3 845/3/3 839/3/3
f 849/1/3 848/1/3 847/1/3
f 849/1/3 847/1/3 846/1/3
f 850/1/3 848/1/3 849/1/3
f 851/1/3 848/1/3 850/1/3
f 852/3/3 842/3/3 848/3/3
f 852/1/3 848/1/3 851/1/3
f 853/3/3 849/3/3 839/3/3
f 853/3/3 850/3/3 849/3/3
f 854/1/3 851/1/3 850/1/3
f 854/3/3 850/3/3 853/3/3
f 855/3/3 852/3/3 851/3/3
f 855/1/3 851/1/3 854/1/3
f 856/3/3 854/3/3 853/3/3
f 856/3/3 855/3/3 854/3/3
f 857/3/3 855/3/3 856/3/3
f 858/3/3 842/3/3 852/3/3
f 858/3/3 855/3/3 857/3/3
f 858/3/3 852/3/3 855/3/3
f 859/3/3 842/3/3 858/3/3
f 860/3/3 858/3/3 857/3/3
f 861/3/3 858/3/3 860/3/3
f 865/2/3 863/2/3 862/2/3
f 866/2/3 863/2/3 865/2/3
f 867/2/3 865/2/3 864/2/3
f 868/2/3 865/2/3 867/2/3
f 871/2/3 870/2/3 869/2/3
f 872/2/3 870/2/3 871/2/3
f 874/2/3 873/2/3 872/2/3
f 875/2/3 873/2/3 874/2/3
f 878/2/3 877/2/3 876/2/3
f 879/2/3 877/2/3 878/2/3
f 882/2/3 881/2/3 880/2/3
f 883/2/3 881/2/3 882/2/3
f 887/2/3 885/2/3 884/2/3
f 888/2/3 885/2/3 887/2/3
f 889/2/3 887/2/3 886/2/3
f 890/2/3 887/2/3 889/2/3
f 893/2/3 892/2/3 891/2/3
f 894/2/3 892/2/3 893/2/3
f 896/2/3 895/2/3 894/2/3
f 897/2/3 895/2/3 896/2/3
f 900/2/3 899/2/3 898/2/3
f 901/2/3 899/2/3 900/2/3
f 905/2/3 903/2/3 902/2/3
f 906/2/3 903/2/3 905/2/3
f 907/2/3 905/2/3 904/2/3
f 908/2/3 905/2/3 907/2/3
f 911/2/3 910/2/3 909/2/3
f 912/2/3 910/2/3 911/2/3
f 914/2/3 913/2/3 912/2/3
f 915/2/3 913/2/3 914/2/3
f 918/2/3 917/2/3 916/2/3
f 919/2/3 917/2/3 918/2/3
f 922/2/3 921/2/3 920/2/3
f 923/2/3 921/2/3 922/2/3
f 927/2/3 925/2/3 924/2/3
f 928/2/3 925/2/3 927/2/3
f 929/2/3 927/2/3 926/2/3
f 930/2/3 927/2/3 929/2/3
f 932/2/3 931/2/3 930/2/3
f 933/2/3 931/2/3 932/2/3
f 936/2/3 935/2/3 934/2/3
f 937/2/3 935/2/3 936/2/3
f 940/2/3 939/2/3 938/2/3
f 941/2/3 939/2/3 940/2/3
f 944/2/3 943/2/3 942/2/3
f 945/2/3 943/2/3 944/2/3
f 948/2/3 947/2/3 946/2/3
f 949/2/3 947/2/3 948/2/3
f 952/2/3 951/2/3 950/2/3
f 953/2/3 951/2/3 952/2/3
f 956/2/3 955/2/3 954/2/3
f 957/2/3 955/2/3 956/2/3
f 964/1/3 959/1/3 958/1/3
f 965/4/3 960/4/3 959/4/3
f 965/1/3 959/1/3 964/1/3
f 966/4/3 960/4/3 965/4/3
f 967/4/3 960/4/3 966/4/3
f 968/1/3 962/1/3 961/1/3
f 969/1/3 962/1/3 968/1/3
f 970/1/3 962/1/3 969/1/3
f 971/4/3 963/4/3 962/4/3
f 971/1/3 962/1/3 970/1/3
f 972/4/3 963/4/3 971/4/3
f 973/1/3 967/1/3 966/1/3
f 974/1/3 967/1/3 973/1/3
f 975/3/3 969/3/3 968/3/3
f 976/3/3 969/3/3 975/3/3
f 977/4/3 963/4/3 972/4/3
f 978/4/3 963/4/3 977/4/3
f 979/4/3 963/4/3 978/4/3
f 981/2/3 979/2/3 978/2/3
f 982/2/3 981/2/3 980/2/3
f 983/2/3 979/2/3 981/2/3
f 983/2/3 981/2/3 982/2/3
f 986/2/3 985/2/3 984/2/3
f 987/2/3 985/2/3 986/2/3
f 990/2/3 989/2/3 988/2/3
f 991/2/3 989/2/3 990/2/3
f 992/2/3 989/2/3 991/2/3
f 993/2/3 989/2/3 992/2/3
f 994/4/3 993/4/3 992/4/3
f 1001/1/3 996/1/3 995/1/3
f 1002/1/3 996/1/3 1001/1/3
f 1003/3/3 998/3/3 997/3/3
f 1004/3/3 998/3/3 1003/3/3
f 1007/4/3 993/4/3 994/4/3
f 1008/1/3 1000/1/3 999/1/3
f 1009/4/3 1002/4/3 1001/4/3
f 1009/1/3 1000/1/3 1008/1/3
f 1009/4/3 1001/4/3 1000/4/3
f 1010/4/3 1002/4/3 1009/4/3
f 1011/1/3 1006/1/3 1005/1/3
f 1011/1/3 1004/1/3 1003/1/3
f 1011/1/3 1005/1/3 1004/1/3
f 1012/4/3 1007/4/3 1006/4/3
f 1012/1/3 1006/1/3 1011/1/3
f 1013/4/3 993/4/3 1007/4/3
f 1013/4/3 1007/4/3 1012/4/3
f 1019/1/3 1015/1/3 1014/1/3
f 1020/4/3 1016/4/3 1015/4/3
f 1020/1/3 1015/1/3 1019/1/3
f 1021/4/3 1016/4/3 1020/4/3
f 1022/3/3 1018/3/3 1017/3/3
f 1023/3/3 1018/3/3 1022/3/3
f 1024/1/3 1021/1/3 1020/1/3
f 1025/1/3 1021/1/3 1024/1/3
f 1026/3/3 1025/3/3 1024/3/3
f 1027/3/3 1025/3/3 1026/3/3
f 1028/3/3 1022/3/3 1017/3/3
f 1029/3/3 1022/3/3 1028/3/3
f 1032/2/3 1031/2/3 1030/2/3
f 1033/2/3 1031/2/3 1032/2/3
f 1038/3/3 1035/3/3 1034/3/3
f 1039/3/3 1035/3/3 1038/3/3
f 1041/1/3 1039/1/3 1038/1/3
f 1042/1/3 1039/1/3 1041/1/3
f 1043/3/3 1037/3/3 1036/3/3
f 1045/1/3 1041/1/3 1040/1/3
f 1046/4/3 1042/4/3 1041/4/3
f 1046/1/3 1041/1/3 1045/1/3
f 1047/4/3 1042/4/3 1046/4/3
f 1048/3/3 1044/3/3 1043/3/3
f 1048/3/3 1043/3/3 1036/3/3
f 1049/3/3 1044/3/3 1048/3/3
f 1053/1/3 1051/1/3 1050/1/3
f 1054/1/3 1051/1/3 1053/1/3
f 1055/3/3 1052/3/3 1051/3/3
f 1055/1/3 1051/1/3 1054/1/3
f 1056/3/3 1055/3/3 1054/3/3
f 1057/3/3 1052/3/3 1055/3/3
f 1057/3/3 1055/3/3 1056/3/3
f 1060/3/3 1059/3/3 1058/3/3
f 1061/3/3 1059/3/3 1060/3/3
f 1062/1/3 1061/1/3 1060/1/3
f 1063/1/3 1061/1/3 1062/1/3
f 1064/3/3 1059/3/3 1061/3/3
f 1064/1/3 1061/1/3 1063/1/3
f 1065/3/3 1059/3/3 1064/3/3
f 1066/1/4 1067/1/4 1069/1/4
f 1069/1/4 1067/1/4 1070/1/4
f 1067/3/4 1068/3/4 1071/3/4
f 1070/1/4 1067/1/4 1071/1/4
f 1070/3/4 1071/3/4 1072/3/4
f 1071/3/4 1068/3/4 1073/3/4
f 1072/3/4 1071/3/4 1073/3/4
f 1074/3/4 1075/3/4 1076/3/4
f 1076/3/4 1075/3/4 1077/3/4
f 1076/1/4 1077/1/4 1078/1/4
f 1078/1/4 1077/1/4 1079/1/4
f 1077/3/4 1075/3/4 1080/3/4
f 1079/1/4 1077/1/4 1080/1/4
f 1080/3/4 1075/3/4 1081/3/4
f 1082/1/4 1083/1/4 1087/1/4
f 1083/4/4 1084/4/4 1088/4/4
f 1087/1/4 1083/1/4 1088/1/4
f 1088/4/4 1084/4/4 1089/4/4
f 1085/3/4 1086/3/4 1090/3/4
f 1090/3/4 1086/3/4 1091/3/4
f 1088/1/4 1089/1/4 1092/1/4
f 1092/1/4 1089/1/4 1093/1/4
f 1092/3/4 1093/3/4 1094/3/4
f 1094/3/4 1093/3/4 1095/3/4
f 1085/3/4 1090/3/4 1096/3/4
f 1096/3/4 1090/3/4 1097/3/4
f 1098/2/4 1099/2/4 1100/2/4
f 1100/2/4 1099/2/4 1101/2/4
f 1102/3/4 1103/3/4 1106/3/4
f 1106/3/4 1103/3/4 1107/3/4
f 1106/1/4 1107/1/4 1109/1/4
f 1109/1/4 1107/1/4 1110/1/4
f 1104/3/4 1105/3/4 1111/3/4
f 1108/1/4 1109/1/4 1113/1/4
f 1109/4/4 1110/4/4 1114/4/4
f 1113/1/4 1109/1/4 1114/1/4
f 1114/4/4 1110/4/4 1115/4/4
f 1111/3/4 1112/3/4 1116/3/4
f 1104/3/4 1111/3/4 1116/3/4
f 1116/3/4 1112/3/4 1117/3/4
f 1118/1/4 1119/1/4 1124/1/4
f 1119/4/4 1120/4/4 1125/4/4
f 1124/1/4 1119/1/4 1125/1/4
f 1125/4/4 1120/4/4 1126/4/4
f 1126/4/4 1120/4/4 1127/4/4
f 1121/1/4 1122/1/4 1128/1/4
f 1128/1/4 1122/1/4 1129/1/4
f 1129/1/4 1122/1/4 1130/1/4
f 1122/4/4 1123/4/4 1131/4/4
f 1130/1/4 1122/1/4 1131/1/4
f 1131/4/4 1123/4/4 1132/4/4
f 1126/1/4 1127/1/4 1133/1/4
f 1133/1/4 1127/1/4 1134/1/4
f 1128/3/4 1129/3/4 1135/3/4
f 1135/3/4 1129/3/4 1136/3/4
f 1132/4/4 1123/4/4 1137/4/4
f 1137/4/4 1123/4/4 1138/4/4
f 1138/4/4 1123/4/4 1139/4/4
f 1138/2/4 1139/2/4 1141/2/4
f 1140/2/4 1141/2/4 1142/2/4
f 1141/2/4 1139/2/4 1143/2/4
f 1142/2/4 1141/2/4 1143/2/4
f 1144/2/4 1145/2/4 1146/2/4
f 1146/2/4 1145/2/4 1147/2/4
f 1148/2/4 1149/2/4 1150/2/4
f 1150/2/4 1149/2/4 1151/2/4
f 1151/2/4 1149/2/4 1152/2/4
f 1152/2/4 1149/2/4 1153/2/4
f 1152/4/4 1153/4/4 1154/4/4
f 1155/1/4 1156/1/4 1161/1/4
f 1161/1/4 1156/1/4 1162/1/4
f 1157/3/4 1158/3/4 1163/3/4
f 1163/3/4 1158/3/4 1164/3/4
f 1154/4/4 1153/4/4 1167/4/4
f 1159/1/4 1160/1/4 1168/1/4
f 1161/4/4 1162/4/4 1169/4/4
f 1168/1/4 1160/1/4 1169/1/4
f 1160/4/4 1161/4/4 1169/4/4
f 1169/4/4 1162/4/4 1170/4/4
f 1165/1/4 1166/1/4 1171/1/4
f 1163/1/4 1164/1/4 1171/1/4
f 1164/1/4 1165/1/4 1171/1/4
f 1166/4/4 1167/4/4 1172/4/4
f 1171/1/4 1166/1/4 1172/1/4
f 1167/4/4 1153/4/4 1173/4/4
f 1172/4/4 1167/4/4 1173/4/4
f 1174/2/4 1175/2/4 1176/2/4
f 1176/2/4 1175/2/4 1177/2/4
f 1178/2/4 1179/2/4 1180/2/4
f 1180/2/4 1179/2/4 1181/2/4
f 1182/2/4 1183/2/4 1184/2/4
f 1184/2/4 1183/2/4 1185/2/4
f 1186/2/4 1187/2/4 1188/2/4
f 1188/2/4 1187/2/4 1189/2/4
f 1190/2/4 1191/2/4 1192/2/4
f 1192/2/4 1191/2/4 1193/2/4
f 1194/2/4 1195/2/4 1196/2/4
f 1196/2/4 1195/2/4 1197/2/4
f 1198/2/4 1199/2/4 1201/2/4
f 1201/2/4 1199/2/4 1202/2/4
f 1200/2/4 1201/2/4 1203/2/4
f 1203/2/4 1201/2/4 1204/2/4
f 1204/2/4 1205/2/4 1206/2/4
f 1206/2/4 1205/2/4 1207/2/4
f 1208/2/4 1209/2/4 1210/2/4
f 1210/2/4 1209/2/4 1211/2/4
f 1212/2/4 1213/2/4 1214/2/4
f 1214/2/4 1213/2/4 1215/2/4
f 1216/2/4 1217/2/4 1219/2/4
f 1219/2/4 1217/2/4 1220/2/4
f 1218/2/4 1219/2/4 1221/2/4
f 1221/2/4 1219/2/4 1222/2/4
f 1223/2/4 1224/2/4 1225/2/4
f 1225/2/4 1224/2/4 1226/2/4
f 1226/2/4 1227/2/4 1228/2/4
f 1228/2/4 1227/2/4 1229/2/4
f 1230/2/4 1231/2/4 1232/2/4
f 1232/2/4 1231/2/4 1233/2/4
f 1234/2/4 1235/2/4 1237/2/4
f 1237/2/4 1235/2/4 1238/2/4
f 1236/2/4 1237/2/4 1239/2/4
f 1239/2/4 1237/2/4 1240/2/4
f 1241/2/4 1242/2/4 1243/2/4
f 1243/2/4 1242/2/4 1244/2/4
f 1244/2/4 1245/2/4 1246/2/4
f 1246/2/4 1245/2/4 1247/2/4
f 1248/2/4 1249/2/4 1250/2/4
f 1250/2/4 1249/2/4 1251/2/4
f 1252/2/4 1253/2/4 1254/2/4
f 1254/2/4 1253/2/4 1255/2/4
f 1256/2/4 1257/2/4 1259/2/4
f 1259/2/4 1257/2/4 1260/2/4
f 1258/2/4 1259/2/4 1261/2/4
f 1261/2/4 1259/2/4 1262/2/4
f 1263/2/4 1264/2/4 1265/2/4
f 1265/2/4 1264/2/4 1266/2/4
f 1266/2/4 1267/2/4 1268/2/4
f 1268/2/4 1267/2/4 1269/2/4
f 1270/3/4 1271/3/4 1273/3/4
f 1273/3/4 1271/3/4 1274/3/4
f 1272/3/4 1273/3/4 1276/3/4
f 1274/3/4 1275/3/4 1276/3/4
f 1273/3/4 1274/3/4 1276/3/4
f 1276/3/4 1275/3/4 1277/3/4
f 1277/3/4 1275/3/4 1278/3/4
f 1276/3/4 1277/3/4 1279/3/4
f 1277/1/4 1278/1/4 1280/1/4
f 1279/3/4 1277/3/4 1280/3/4
f 1278/3/4 1275/3/4 1281/3/4
f 1280/1/4 1278/1/4 1281/1/4
f 1281/3/4 1275/3/4 1282/3/4
f 1279/1/4 1280/1/4 1283/1/4
f 1276/3/4 1279/3/4 1283/3/4
f 1281/1/4 1282/1/4 1283/1/4
f 1280/1/4 1281/1/4 1283/1/4
f 1283/1/4 1282/1/4 1284/1/4
f 1284/1/4 1282/1/4 1285/1/4
f 1282/3/4 1275/3/4 1286/3/4
f 1285/1/4 1282/1/4 1286/1/4
f 1284/1/4 1285/1/4 1287/1/4
f 1283/3/4 1284/3/4 1287/3/4
f 1285/3/4 1286/3/4 1288/3/4
f 1287/1/4 1285/1/4 1288/1/4
f 1276/3/4 1283/3/4 1289/3/4
f 1283/3/4 1287/3/4 1289/3/4
f 1287/3/4 1288/3/4 1289/3/4
f 1289/3/4 1288/3/4 1290/3/4
f 1286/3/4 1275/3/4 1291/3/4
f 1290/3/4 1288/3/4 1291/3/4
f 1288/3/4 1286/3/4 1291/3/4
f 1291/3/4 1275/3/4 1292/3/4
f 1290/3/4 1291/3/4 1293/3/4
f 1293/3/4 1291/3/4 1294/3/4
f 1295/1/4 1296/1/4 1300/1/4
f 1297/3/4 1298/3/4 1301/3/4
f 1299/1/4 1300/1/4 1303/1/4
f 1300/1/4 1296/1/4 1303/1/4
f 1303/1/4 1296/1/4 1304/1/4
f 1299/1/4 1303/1/4 1305/1/4
f 1303/4/4 1304/4/4 1305/4/4
f 1305/4/4 1304/4/4 1306/4/4
f 1299/1/4 1305/1/4 1307/1/4
f 1305/1/4 1306/1/4 1307/1/4
f 1307/1/4 1306/1/4 1308/1/4
f 1301/3/4 1302/3/4 1309/3/4
f 1297/3/4 1301/3/4 1309/3/4
f 1309/3/4 1302/3/4 1310/3/4
f 1308/1/4 1306/1/4 1311/1/4
f 1311/1/4 1306/1/4 1312/1/4
f 1297/3/4 1309/3/4 1313/3/4
f 1313/3/4 1309/3/4 1314/3/4
f 1315/1/4 1316/1/4 1318/1/4
f 1316/3/4 1317/3/4 1319/3/4
f 1318/1/4 1316/1/4 1319/1/4
f 1319/3/4 1317/3/4 1320/3/4
f 1321/1/4 1322/1/4 1324/1/4
f 1322/3/4 1323/3/4 1325/3/4
f 1324/1/4 1322/1/4 1325/1/4
f 1325/3/4 1323/3/4 1326/3/4
f 1327/1/4 1328/1/4 1332/1/4
f 1328/4/4 1329/4/4 1333/4/4
f 1332/1/4 1328/1/4 1333/1/4
f 1333/4/4 1329/4/4 1334/4/4
f 1330/3/4 1331/3/4 1335/3/4
f 1335/3/4 1331/3/4 1336/3/4
f 1340/3/4 1341/3/4 1344/3/4
f 1341/1/4 1342/1/4 1345/1/4
f 1344/3/4 1341/3/4 1345/3/4
f 1338/1/4 1339/1/4 1346/1/4
f 1337/1/4 1338/1/4 1346/1/4
f 1346/1/4 1339/1/4 1347/1/4
f 1345/1/4 1342/1/4 1348/1/4
f 1344/1/4 1345/1/4 1348/1/4
f 1342/4/4 1343/4/4 1349/4/4
f 1348/1/4 1342/1/4 1349/1/4
f 1337/1/4 1346/1/4 1350/1/4
f 1346/4/4 1347/4/4 1351/4/4
f 1350/1/4 1346/1/4 1351/1/4
f 1337/1/4 1350/1/4 1352/1/4
f 1350/4/4 1351/4/4 1352/4/4
f 1351/4/4 1347/4/4 1353/4/4
f 1352/4/4 1351/4/4 1353/4/4
f 1344/1/4 1348/1/4 1354/1/4
f 1348/4/4 1349/4/4 1354/4/4
f 1349/4/4 1343/4/4 1355/4/4
f 1354/4/4 1349/4/4 1355/4/4
f 1353/4/4 1347/4/4 1356/4/4
f 1352/1/4 1353/1/4 1356/1/4
f 1356/4/4 1347/4/4 1357/4/4
f 1344/1/4 1354/1/4 1358/1/4
f 1354/1/4 1355/1/4 1358/1/4
f 1358/1/4 1355/1/4 1359/1/4
f 1337/1/4 1352/1/4 1360/1/4
f 1356/1/4 1357/1/4 1360/1/4
f 1352/1/4 1356/1/4 1360/1/4
f 1360/1/4 1357/1/4 1361/1/4
f 1361/1/4 1357/1/4 1362/1/4
f 1358/3/4 1359/3/4 1363/3/4
f 1359/1/4 1355/1/4 1364/1/4
f 1363/3/4 1359/3/4 1364/3/4
f 1355/4/4 1343/4/4 1365/4/4
f 1364/1/4 1355/1/4 1365/1/4
f 1365/4/4 1343/4/4 1366/4/4
f 1367/1/4 1368/1/4 1372/1/4
f 1368/4/4 1369/4/4 1373/4/4
f 1372/1/4 1368/1/4 1373/1/4
f 1373/4/4 1369/4/4 1374/4/4
f 1370/3/4 1371/3/4 1375/3/4
f 1375/3/4 1371/3/4 1376/3/4
f 1380/1/4 1381/1/4 1383/1/4
f 1381/4/4 1382/4/4 1384/4/4
f 1383/1/4 1381/1/4 1384/1/4
f 1377/1/4 1378/1/4 1385/1/4
f 1378/4/4 1379/4/4 1386/4/4
f 1385/1/4 1378/1/4 1386/1/4
f 1380/1/4 1383/1/4 1387/1/4
f 1383/4/4 1384/4/4 1388/4/4
f 1387/1/4 1383/1/4 1388/1/4
f 1377/1/4 1385/1/4 1389/1/4
f 1385/4/4 1386/4/4 1389/4/4
f 1386/4/4 1379/4/4 1390/4/4
f 1389/4/4 1386/4/4 1390/4/4
f 1380/1/4 1387/1/4 1391/1/4
f 1387/4/4 1388/4/4 1391/4/4
f 1388/4/4 1384/4/4 1392/4/4
f 1391/4/4 1388/4/4 1392/4/4
f 1377/1/4 1389/1/4 1393/1/4
f 1389/1/4 1390/1/4 1393/1/4
f 1390/4/4 1379/4/4 1394/4/4
f 1393/1/4 1390/1/4 1394/1/4
f 1394/4/4 1379/4/4 1395/4/4
f 1380/1/4 1391/1/4 1396/1/4
f 1391/1/4 1392/1/4 1396/1/4
f 1392/4/4 1384/4/4 1397/4/4
f 1396/1/4 1392/1/4 1397/1/4
f 1384/4/4 1382/4/4 1398/4/4
f 1397/4/4 1384/4/4 1398/4/4
f 1399/1/4 1400/1/4 1405/1/4
f 1400/4/4 1401/4/4 1406/4/4
f 1405/1/4 1400/1/4 1406/1/4
f 1402/1/4 1403/1/4 1407/1/4
f 1403/4/4 1404/4/4 1408/4/4
f 1407/1/4 1403/1/4 1408/1/4
f 1402/1/4 1407/1/4 1409/1/4
f 1407/4/4 1408/4/4 1409/4/4
f 1408/4/4 1404/4/4 1410/4/4
f 1409/4/4 1408/4/4 1410/4/4
f 1399/1/4 1405/1/4 1411/1/4
f 1405/4/4 1406/4/4 1411/4/4
f 1406/4/4 1401/4/4 1412/4/4
f 1411/4/4 1406/4/4 1412/4/4
f 1410/4/4 1404/4/4 1413/4/4
f 1409/1/4 1410/1/4 1413/1/4
f 1413/4/4 1404/4/4 1414/4/4
f 1399/1/4 1411/1/4 1415/1/4
f 1411/1/4 1412/1/4 1415/1/4
f 1412/4/4 1401/4/4 1416/4/4
f 1415/1/4 1412/1/4 1416/1/4
f 1416/4/4 1401/4/4 1417/4/4
f 1402/1/4 1409/1/4 1418/1/4
f 1413/1/4 1414/1/4 1418/1/4
f 1409/1/4 1413/1/4 1418/1/4
f 1414/4/4 1404/4/4 1419/4/4
f 1418/1/4 1414/1/4 1419/1/4
f 1419/4/4 1404/4/4 1420/4/4
f 1425/1/5 1422/1/5 1421/1/5
f 1426/1/5 1422/1/5 1425/1/5
f 1427/1/5 1424/1/5 1423/1/5
f 1428/1/5 1424/1/5 1427/1/5
f 1429/4/5 1426/4/5 1425/4/5
f 1429/1/5 1427/1/5 1426/1/5
f 1430/4/5 1428/4/5 1427/4/5
f 1430/1/5 1427/1/5 1429/1/5
f 1431/1/5 1425/1/5 1421/1/5
f 1432/4/5 1429/4/5 1425/4/5
f 1432/1/5 1425/1/5 1431/1/5
f 1432/4/5 1430/4/5 1429/4/5
f 1433/4/5 1430/4/5 1432/4/5
f 1434/4/5 1430/4/5 1433/4/5
f 1435/4/5 1428/4/5 1430/4/5
f 1435/4/5 1430/4/5 1434/4/5
f 1436/4/5 1428/4/5 1435/4/5
f 1437/1/5 1424/1/5 1428/1/5
f 1437/4/5 1428/4/5 1436/4/5
f 1438/1/5 1424/1/5 1437/1/5
f 1440/1/5 1433/1/5 1432/1/5
f 1441/4/5 1434/4/5 1433/4/5
f 1441/1/5 1433/1/5 1440/1/5
f 1442/3/5 1435/3/5 1434/3/5
f 1442/4/5 1434/4/5 1441/4/5
f 1443/4/5 1436/4/5 1435/4/5
f 1443/3/5 1435/3/5 1442/3/5
f 1444/1/5 1437/1/5 1436/1/5
f 1444/4/5 1436/4/5 1443/4/5
f 1445/1/5 1437/1/5 1444/1/5
f 1447/4/5 1442/4/5 1441/4/5
f 1447/4/5 1443/4/5 1442/4/5
f 1447/4/5 1445/4/5 1444/4/5
f 1447/4/5 1444/4/5 1443/4/5
f 1447/4/5 1441/4/5 1440/4/5
f 1448/4/5 1445/4/5 1447/4/5
f 1449/1/5 1440/1/5 1439/1/5
f 1449/4/5 1447/4/5 1440/4/5
f 1450/1/5 1448/1/5 1447/1/5
f 1450/4/5 1447/4/5 1449/4/5
f 1451/4/5 1445/4/5 1448/4/5
f 1451/1/5 1448/1/5 1450/1/5
f 1452/1/5 1446/1/5 1445/1/5
f 1452/4/5 1445/4/5 1451/4/5
f 1453/1/5 1450/1/5 1449/1/5
f 1453/1/5 1449/1/5 1439/1/5
f 1454/1/5 1450/1/5 1453/1/5
f 1455/1/5 1452/1/5 1451/1/5
f 1456/1/5 1446/1/5 1452/1/5
f 1456/1/5 1452/1/5 1455/1/5
f 1461/3/5 1458/3/5 1457/3/5
f 1462/3/5 1458/3/5 1461/3/5
f 1463/3/5 1460/3/5 1459/3/5
f 1464/3/5 1460/3/5 1463/3/5
f 1465/3/5 1458/3/5 1462/3/5
f 1466/3/5 1458/3/5 1465/3/5
f 1467/3/5 1463/3/5 1459/3/5
f 1468/3/5 1463/3/5 1467/3/5
f 1469/3/5 1461/3/5 1457/3/5
f 1472/3/5 1460/3/5 1464/3/5
f 1473/3/5 1469/3/5 1457/3/5
f 1473/3/5 1470/3/5 1469/3/5
f 1474/3/5 1470/3/5 1473/3/5
f 1475/3/5 1472/3/5 1471/3/5
f 1476/3/5 1460/3/5 1472/3/5
f 1476/3/5 1472/3/5 1475/3/5
f 1481/3/5 1478/3/5 1477/3/5
f 1482/3/5 1478/3/5 1481/3/5
f 1483/3/5 1480/3/5 1479/3/5
f 1484/3/5 1480/3/5 1483/3/5
f 1489/3/5 1481/3/5 1477/3/5
f 1490/3/5 1486/3/5 1485/3/5
f 1491/3/5 1488/3/5 1487/3/5
f 1492/3/5 1480/3/5 1484/3/5
f 1493/3/5 1490/3/5 1489/3/5
f 1493/3/5 1489/3/5 1477/3/5
f 1494/3/5 1486/3/5 1490/3/5
f 1494/3/5 1490/3/5 1493/3/5
f 1495/3/5 1491/3/5 1487/3/5
f 1495/3/5 1492/3/5 1491/3/5
f 1496/3/5 1480/3/5 1492/3/5
f 1496/3/5 1492/3/5 1495/3/5
f 1499/3/5 1498/3/5 1497/3/5
f 1500/3/5 1498/3/5 1499/3/5
f 1501/3/5 1499/3/5 1497/3/5
f 1501/1/5 1500/1/5 1499/1/5
f 1502/3/5 1498/3/5 1500/3/5
f 1502/1/5 1500/1/5 1501/1/5
f 1503/3/5 1501/3/5 1497/3/5
f 1503/3/5 1502/3/5 1501/3/5
f 1504/3/5 1498/3/5 1502/3/5
f 1504/3/5 1502/3/5 1503/3/5
f 1509/3/5 1506/3/5 1505/3/5
f 1510/3/5 1506/3/5 1509/3/5
f 1511/3/5 1508/3/5 1507/3/5
f 1512/3/5 1508/3/5 1511/3/5
f 1513/3/5 1509/3/5 1505/3/5
f 1513/1/5 1510/1/5 1509/1/5
f 1514/3/5 1506/3/5 1510/3/5
f 1514/1/5 1510/1/5 1513/1/5
f 1515/1/5 1512/1/5 1511/1/5
f 1515/3/5 1511/3/5 1507/3/5
f 1516/3/5 1508/3/5 1512/3/5
f 1516/1/5 1512/1/5 1515/1/5
f 1517/3/5 1513/3/5 1505/3/5
f 1517/3/5 1514/3/5 1513/3/5
f 1518/3/5 1506/3/5 1514/3/5
f 1518/3/5 1514/3/5 1517/3/5
f 1519/3/5 1515/3/5 1507/3/5
f 1519/3/5 1516/3/5 1515/3/5
f 1520/3/5 1508/3/5 1516/3/5
f 1520/3/5 1516/3/5 1519/3/5
f 1523/3/5 1522/3/5 1521/3/5
f 1524/3/5 1522/3/5 1523/3/5
f 1525/3/5 1523/3/5 1521/3/5
f 1525/1/5 1524/1/5 1523/1/5
f 1526/3/5 1522/3/5 1524/3/5
f 1526/1/5 1524/1/5 1525/1/5
f 1527/3/5 1525/3/5 1521/3/5
f 1527/3/5 1526/3/5 1525/3/5
f 1528/3/5 1522/3/5 1526/3/5
f 1528/3/5 1526/3/5 1527/3/5
f 1533/1/5 1530/1/5 1529/1/5
f 1534/1/5 1530/1/5 1533/1/5
f 1535/1/5 1530/1/5 1534/1/5
f 1536/1/5 1532/1/5 1531/1/5
f 1537/1/5 1532/1/5 1536/1/5
f 1538/1/5 1532/1/5 1537/1/5
f 1539/3/5 1535/3/5 1534/3/5
f 1540/3/5 1535/3/5 1539/3/5
f 1541/3/5 1537/3/5 1536/3/5
f 1542/3/5 1537/3/5 1541/3/5
f 1543/1/5 1533/1/5 1529/1/5
f 1546/1/5 1532/1/5 1538/1/5
f 1547/1/5 1543/1/5 1529/1/5
f 1548/3/5 1544/3/5 1543/3/5
f 1548/1/5 1543/1/5 1547/1/5
f 1549/3/5 1544/3/5 1548/3/5
f 1550/3/5 1546/3/5 1545/3/5
f 1551/1/5 1532/1/5 1546/1/5
f 1551/3/5 1546/3/5 1550/3/5
f 1552/1/5 1532/1/5 1551/1/5
f 1559/1/5 1554/1/5 1553/1/5
f 1559/3/5 1555/3/5 1554/3/5
f 1560/3/5 1555/3/5 1559/3/5
f 1561/3/5 1557/3/5 1556/3/5
f 1562/1/5 1558/1/5 1557/1/5
f 1562/3/5 1557/3/5 1561/3/5
f 1567/1/5 1559/1/5 1553/1/5
f 1568/3/5 1564/3/5 1563/3/5
f 1569/3/5 1564/3/5 1568/3/5
f 1570/3/5 1566/3/5 1565/3/5
f 1571/3/5 1566/3/5 1570/3/5
f 1572/1/5 1558/1/5 1562/1/5
f 1573/1/5 1569/1/5 1568/1/5
f 1573/1/5 1567/1/5 1553/1/5
f 1573/1/5 1568/1/5 1567/1/5
f 1574/1/5 1569/1/5 1573/1/5
f 1575/1/5 1571/1/5 1570/1/5
f 1575/1/5 1572/1/5 1571/1/5
f 1576/1/5 1558/1/5 1572/1/5
f 1576/1/5 1572/1/5 1575/1/5
f 1581/3/5 1578/3/5 1577/3/5
f 1581/1/5 1579/1/5 1578/1/5
f 1582/3/5 1580/3/5 1579/3/5
f 1582/1/5 1579/1/5 1581/1/5
f 1583/3/5 1581/3/5 1577/3/5
f 1583/3/5 1582/3/5 1581/3/5
f 1584/3/5 1580/3/5 1582/3/5
f 1584/3/5 1582/3/5 1583/3/5
f 1589/3/5 1586/3/5 1585/3/5
f 1590/3/5 1586/3/5 1589/3/5
f 1591/3/5 1588/3/5 1587/3/5
f 1592/3/5 1588/3/5 1591/3/5
f 1593/1/5 1590/1/5 1589/1/5
f 1594/3/5 1586/3/5 1590/3/5
f 1594/1/5 1590/1/5 1593/1/5
f 1595/3/5 1591/3/5 1587/3/5
f 1595/1/5 1592/1/5 1591/1/5
f 1596/1/5 1592/1/5 1595/1/5
f 1597/3/5 1594/3/5 1593/3/5
f 1598/3/5 1586/3/5 1594/3/5
f 1598/3/5 1594/3/5 1597/3/5
f 1599/3/5 1595/3/5 1587/3/5
f 1599/3/5 1596/3/5 1595/3/5
f 1600/3/5 1596/3/5 1599/3/5
f 1603/3/5 1602/3/5 1601/3/5
f 1604/3/5 1602/3/5 1603/3/5
f 1605/3/5 1603/3/5 1601/3/5
f 1606/1/5 1604/1/5 1603/1/5
f 1606/3/5 1603/3/5 1605/3/5
f 1607/3/5 1602/3/5 1604/3/5
f 1607/1/5 1604/1/5 1606/1/5
f 1608/3/5 1602/3/5 1607/3/5
f 1609/1/6 1610/1/6 1613/1/6
f 1610/4/6 1611/4/6 1613/4/6
f 1611/1/6 1612/1/6 1614/1/6
f 1613/4/6 1611/4/6 1614/4/6
f 1609/1/6 1613/1/6 1615/1/6
f 1613/1/6 1614/1/6 1615/1/6
f 1614/1/6 1612/1/6 1616/1/6
f 1615/1/6 1614/1/6 1616/1/6
f 1617/1/6 1618/1/6 1621/1/6
f 1621/1/6 1618/1/6 1622/1/6
f 1619/1/6 1620/1/6 1623/1/6
f 1623/1/6 1620/1/6 1624/1/6
f 1621/4/6 1622/4/6 1625/4/6
f 1622/1/6 1618/1/6 1626/1/6
f 1625/4/6 1622/4/6 1626/4/6
f 1619/1/6 1623/1/6 1627/1/6
f 1623/4/6 1624/4/6 1627/4/6
f 1627/4/6 1624/4/6 1628/4/6
f 1625/1/6 1626/1/6 1629/1/6
f 1626/1/6 1618/1/6 1630/1/6
f 1629/1/6 1626/1/6 1630/1/6
f 1619/1/6 1627/1/6 1631/1/6
f 1627/1/6 1628/1/6 1631/1/6
f 1631/1/6 1628/1/6 1632/1/6
f 1633/1/6 1634/1/6 1635/1/6
f 1635/1/6 1634/1/6 1636/1/6
f 1633/1/6 1635/1/6 1637/1/6
f 1635/4/6 1636/4/6 1638/4/6
f 1637/1/6 1635/1/6 1638/1/6
f 1636/1/6 1634/1/6 1639/1/6
f 1638/4/6 1636/4/6 1639/4/6
f 1639/1/6 1634/1/6 1640/1/6
f 1641/4/6 1642/4/6 1645/4/6
f 1645/4/6 1642/4/6 1646/4/6
f 1646/4/6 1642/4/6 1647/4/6
f 1643/4/6 1644/4/6 1648/4/6
f 1648/4/6 1644/4/6 1649/4/6
f 1649/4/6 1644/4/6 1650/4/6
f 1646/1/6 1647/1/6 1651/1/6
f 1651/1/6 1647/1/6 1652/1/6
f 1648/1/6 1649/1/6 1653/1/6
f 1653/1/6 1649/1/6 1654/1/6
f 1641/4/6 1645/4/6 1655/4/6
f 1650/4/6 1644/4/6 1658/4/6
f 1641/4/6 1655/4/6 1659/4/6
f 1655/1/6 1656/1/6 1660/1/6
f 1659/4/6 1655/4/6 1660/4/6
f 1660/1/6 1656/1/6 1661/1/6
f 1657/1/6 1658/1/6 1662/1/6
f 1658/4/6 1644/4/6 1663/4/6
f 1662/1/6 1658/1/6 1663/1/6
f 1663/4/6 1644/4/6 1664/4/6
f 1665/4/6 1666/4/6 1671/4/6
f 1666/1/6 1667/1/6 1671/1/6
f 1671/1/6 1667/1/6 1672/1/6
f 1668/1/6 1669/1/6 1673/1/6
f 1669/4/6 1670/4/6 1674/4/6
f 1673/1/6 1669/1/6 1674/1/6
f 1665/4/6 1671/4/6 1679/4/6
f 1675/1/6 1676/1/6 1680/1/6
f 1680/1/6 1676/1/6 1681/1/6
f 1677/1/6 1678/1/6 1682/1/6
f 1682/1/6 1678/1/6 1683/1/6
f 1674/4/6 1670/4/6 1684/4/6
f 1680/4/6 1681/4/6 1685/4/6
f 1665/4/6 1679/4/6 1685/4/6
f 1679/4/6 1680/4/6 1685/4/6
f 1685/4/6 1681/4/6 1686/4/6
f 1682/4/6 1683/4/6 1687/4/6
f 1683/4/6 1684/4/6 1687/4/6
f 1684/4/6 1670/4/6 1688/4/6
f 1687/4/6 1684/4/6 1688/4/6
f 1689/1/6 1690/1/6 1693/1/6
f 1690/4/6 1691/4/6 1693/4/6
f 1691/1/6 1692/1/6 1694/1/6
f 1693/4/6 1691/4/6 1694/4/6
f 1689/1/6 1693/1/6 1695/1/6
f 1693/1/6 1694/1/6 1695/1/6
f 1694/1/6 1692/1/6 1696/1/6
f 1695/1/6 1694/1/6 1696/1/6
f 1696/1/6 1692/1/6 1697/1/6
f 1695/3/6 1696/3/6 1698/3/6
f 1696/1/6 1697/1/6 1699/1/6
f 1698/3/6 1696/3/6 1699/3/6
f 1699/1/6 1697/1/6 1700/1/6
f 1702/1/6 1703/1/6 1707/1/6
f 1701/1/6 1702/1/6 1707/1/6
f 1707/1/6 1703/1/6 1708/1/6
f 1701/1/6 1707/1/6 1709/1/6
f 1709/1/6 1707/1/6 1710/1/6
f 1705/1/6 1706/1/6 1711/1/6
f 1711/1/6 1706/1/6 1712/1/6
f 1709/4/6 1710/4/6 1713/4/6
f 1710/1/6 1707/1/6 1714/1/6
f 1713/4/6 1710/4/6 1714/4/6
f 1705/1/6 1711/1/6 1715/1/6
f 1711/4/6 1712/4/6 1715/4/6
f 1715/4/6 1712/4/6 1716/4/6
f 1704/3/6 1705/3/6 1717/3/6
f 1705/1/6 1715/1/6 1718/1/6
f 1717/3/6 1705/3/6 1718/3/6
f 1715/1/6 1716/1/6 1718/1/6
f 1713/1/6 1714/1/6 1719/1/6
f 1707/3/6 1708/3/6 1720/3/6
f 1719/1/6 1714/1/6 1720/1/6
f 1714/1/6 1707/1/6 1720/1/6
f 1720/3/6 1708/3/6 1721/3/6
f 1717/1/6 1718/1/6 1722/1/6
f 1718/1/6 1716/1/6 1723/1/6
f 1722/1/6 1718/1/6 1723/1/6
f 1723/1/6 1716/1/6 1724/1/6
f 1725/1/6 1726/1/6 1728/1/6
f 1726/3/6 1727/3/6 1729/3/6
f 1728/1/6 1726/1/6 1729/1/6
f 1729/3/6 1727/3/6 1730/3/6
f 1728/1/6 1729/1/6 1731/1/6
f 1729/1/6 1730/1/6 1731/1/6
f 1731/1/6 1730/1/6 1732/1/6
f 1728/1/6 1731/1/6 1733/1/6
f 1731/4/6 1732/4/6 1734/4/6
f 1733/1/6 1731/1/6 1734/1/6
f 1732/1/6 1730/1/6 1735/1/6
f 1734/4/6 1732/4/6 1735/4/6
f 1735/1/6 1730/1/6 1736/1/6
f 1737/4/6 1738/4/6 1741/4/6
f 1741/4/6 1738/4/6 1742/4/6
f 1739/4/6 1740/4/6 1743/4/6
f 1743/4/6 1740/4/6 1744/4/6
f 1742/4/6 1738/4/6 1745/4/6
f 1745/4/6 1738/4/6 1746/4/6
f 1739/4/6 1743/4/6 1747/4/6
f 1747/4/6 1743/4/6 1748/4/6
f 1745/1/6 1746/1/6 1749/1/6
f 1749/1/6 1746/1/6 1750/1/6
f 1747/1/6 1748/1/6 1751/1/6
f 1751/1/6 1748/1/6 1752/1/6
f 1749/3/6 1750/3/6 1753/3/6
f 1753/3/6 1750/3/6 1754/3/6
f 1751/3/6 1752/3/6 1755/3/6
f 1755/3/6 1752/3/6 1756/3/6
f 1737/4/6 1741/4/6 1757/4/6
f 1744/4/6 1740/4/6 1764/4/6
f 1757/4/6 1758/4/6 1765/4/6
f 1737/4/6 1757/4/6 1765/4/6
f 1758/1/6 1759/1/6 1766/1/6
f 1765/4/6 1758/4/6 1766/4/6
f 1759/3/6 1760/3/6 1767/3/6
f 1766/1/6 1759/1/6 1767/1/6
f 1767/3/6 1760/3/6 1768/3/6
f 1761/3/6 1762/3/6 1769/3/6
f 1762/1/6 1763/1/6 1770/1/6
f 1769/3/6 1762/3/6 1770/3/6
f 1763/4/6 1764/4/6 1771/4/6
f 1770/1/6 1763/1/6 1771/1/6
f 1764/4/6 1740/4/6 1772/4/6
f 1771/4/6 1764/4/6 1772/4/6
f 1773/4/6 1774/4/6 1781/4/6
f 1774/1/6 1775/1/6 1782/1/6
f 1781/4/6 1774/4/6 1782/4/6
f 1775/3/6 1776/3/6 1783/3/6
f 1782/1/6 1775/1/6 1783/1/6
f 1783/3/6 1776/3/6 1784/3/6
f 1777/3/6 1778/3/6 1785/3/6
f 1778/1/6 1779/1/6 1786/1/6
f 1785/3/6 1778/3/6 1786/3/6
f 1779/4/6 1780/4/6 1787/4/6
f 1786/1/6 1779/1/6 1787/1/6
f 1787/4/6 1780/4/6 1788/4/6
f 1789/3/6 1790/3/6 1793/3/6
f 1793/3/6 1790/3/6 1794/3/6
f 1791/3/6 1792/3/6 1795/3/6
f 1795/3/6 1792/3/6 1796/3/6
f 1793/1/6 1794/1/6 1797/1/6
f 1797/1/6 1794/1/6 1798/1/6
f 1795/1/6 1796/1/6 1799/1/6
f 1799/1/6 1796/1/6 1800/1/6
f 1773/4/6 1781/4/6 1801/4/6
f 1797/4/6 1798/4/6 1802/4/6
f 1799/4/6 1800/4/6 1803/4/6
f 1788/4/6 1780/4/6 1804/4/6
f 1773/4/6 1801/4/6 1805/4/6
f 1801/4/6 1802/4/6 1805/4/6
f 1802/4/6 1798/4/6 1806/4/6
f 1805/4/6 1802/4/6 1806/4/6
f 1799/4/6 1803/4/6 1807/4/6
f 1803/4/6 1804/4/6 1807/4/6
f 1804/4/6 1780/4/6 1808/4/6
f 1807/4/6 1804/4/6 1808/4/6
f 1809/2/6 1810/2/6 1812/2/6
f 1812/2/6 1810/2/6 1813/2/6
f 1811/2/6 1812/2/6 1816/2/6
f 1813/2/6 1814/2/6 1816/2/6
f 1812/2/6 1813/2/6 1816/2/6
f 1816/2/6 1814/2/6 1817/2/6
f 1815/2/6 1816/2/6 1820/2/6
f 1817/2/6 1818/2/6 1820/2/6
f 1816/2/6 1817/2/6 1820/2/6
f 1820/2/6 1818/2/6 1821/2/6
f 1819/2/6 1820/2/6 1823/2/6
f 1821/2/6 1822/2/6 1823/2/6
f 1820/2/6 1821/2/6 1823/2/6
f 1823/2/6 1822/2/6 1824/2/6
f 1824/2/6 1822/2/6 1825/2/6
f 1825/2/6 1822/2/6 1826/2/6
f 1824/2/6 1825/2/6 1827/2/6
f 1827/2/6 1825/2/6 1828/2/6
f 1828/2/6 1825/2/6 1829/2/6
f 1829/2/6 1825/2/6 1830/2/6
f 1828/2/6 1829/2/6 1831/2/6
f 1831/2/6 1829/2/6 1832/2/6
f 1832/2/6 1829/2/6 1833/2/6
f 1833/2/6 1829/2/6 1834/2/6
f 1832/2/6 1833/2/6 1835/2/6
f 1835/2/6 1833/2/6 1836/2/6
f 1837/2/6 1838/2/6 1840/2/6
f 1840/2/6 1838/2/6 1841/2/6
f 1839/2/6 1840/2/6 1844/2/6
f 1844/2/6 1840/2/6 1845/2/6
f 1841/2/6 1842/2/6 1846/2/6
f 1846/2/6 1842/2/6 1847/2/6
f 1843/2/6 1844/2/6 1850/2/6
f 1850/2/6 1844/2/6 1851/2/6
f 1847/2/6 1848/2/6 1852/2/6
f 1852/2/6 1848/2/6 1853/2/6
f 1849/2/6 1850/2/6 1856/2/6
f 1856/2/6 1850/2/6 1857/2/6
f 1853/2/6 1854/2/6 1858/2/6
f 1858/2/6 1854/2/6 1859/2/6
f 1855/2/6 1856/2/6 1861/2/6
f 1861/2/6 1856/2/6 1862/2/6
f 1859/2/6 1860/2/6 1865/2/6
f 1865/2/6 1860/2/6 1866/2/6
f 1862/2/6 1863/2/6 1867/2/6
f 1867/2/6 1863/2/6 1868/2/6
f 1864/2/6 1865/2/6 1871/2/6
f 1871/2/6 1865/2/6 1872/2/6
f 1868/2/6 1869/2/6 1873/2/6
f 1873/2/6 1869/2/6 1874/2/6
f 1870/2/6 1871/2/6 1877/2/6
f 1877/2/6 1871/2/6 1878/2/6
f 1874/2/6 1875/2/6 1879/2/6
f 1879/2/6 1875/2/6 1880/2/6
f 1876/2/6 1877/2/6 1881/2/6
f 1881/2/6 1877/2/6 1882/2/6
f 1880/2/6 1881/2/6 1883/2/6
f 1883/2/6 1881/2/6 1884/2/6
f 1885/2/6 1886/2/6 1888/2/6
f 1888/2/6 1886/2/6 1889/2/6
f 1887/2/6 1888/2/6 1892/2/6
f 1889/2/6 1890/2/6 1892/2/6
f 1888/2/6 1889/2/6 1892/2/6
f 1892/2/6 1890/2/6 1893/2/6
f 1893/2/6 1890/2/6 1894/2/6
f 1894/2/6 1890/2/6 1895/2/6
f 1891/2/6 1892/2/6 1898/2/6
f 1892/2/6 1893/2/6 1898/2/6
f 1898/2/6 1893/2/6 1899/2/6
f 1899/2/6 1893/2/6 1900/2/6
f 1894/2/6 1895/2/6 1901/2/6
f 1895/2/6 1896/2/6 1901/2/6
f 1901/2/6 1896/2/6 1902/2/6
f 1902/2/6 1896/2/6 1903/2/6
f 1898/2/6 1899/2/6 1906/2/6
f 1897/2/6 1898/2/6 1906/2/6
f 1906/2/6 1899/2/6 1907/2/6
f 1907/2/6 1899/2/6 1908/2/6
f 1903/2/6 1904/2/6 1909/2/6
f 1902/2/6 1903/2/6 1909/2/6
f 1909/2/6 1904/2/6 1910/2/6
f 1910/2/6 1904/2/6 1911/2/6
f 1906/2/6 1907/2/6 1913/2/6
f 1905/2/6 1906/2/6 1913/2/6
f 1913/2/6 1907/2/6 1914/2/6
f 1911/2/6 1912/2/6 1915/2/6
f 1910/2/6 1911/2/6 1915/2/6
f 1915/2/6 1912/2/6 1916/2/6
f 1905/2/6 1913/2/6 1918/2/6
f 1916/2/6 1912/2/6 1919/2/6
f 1917/2/6 1918/2/6 1921/2/6
f 1918/2/6 1913/2/6 1921/2/6
f 1921/2/6 1913/2/6 1922/2/6
f 1919/2/6 1920/2/6 1923/2/6
f 1916/2/6 1919/2/6 1923/2/6
f 1923/2/6 1920/2/6 1924/2/6
f 1917/2/6 1921/2/6 1925/2/6
f 1924/2/6 1920/2/6 1928/2/6
f 1925/2/6 1926/2/6 1929/2/6
f 1917/2/6 1925/2/6 1929/2/6
f 1929/2/6 1926/2/6 1930/2/6
f 1927/2/6 1928/2/6 1931/2/6
f 1928/2/6 1920/2/6 1931/2/6
f 1931/2/6 1920/2/6 1932/2/6
f 1930/2/6 1926/2/6 1933/2/6
f 1927/2/6 1931/2/6 1936/2/6
f 1933/2/6 1934/2/6 1937/2/6
f 1930/2/6 1933/2/6 1937/2/6
f 1937/2/6 1934/2/6 1938/2/6
f 1938/2/6 1934/2/6 1939/2/6
f 1935/2/6 1936/2/6 1942/2/6
f 1936/2/6 1931/2/6 1943/2/6
f 1942/2/6 1936/2/6 1943/2/6
f 1943/2/6 1931/2/6 1944/2/6
f 1939/2/6 1940/2/6 1945/2/6
f 1938/2/6 1939/2/6 1945/2/6
f 1945/2/6 1940/2/6 1946/2/6
f 1946/2/6 1940/2/6 1947/2/6
f 1941/2/6 1942/2/6 1950/2/6
f 1942/2/6 1943/2/6 1950/2/6
f 1950/2/6 1943/2/6 1951/2/6
f 1951/2/6 1943/2/6 1952/2/6
f 1947/2/6 1948/2/6 1953/2/6
f 1946/2/6 1947/2/6 1953/2/6
f 1953/2/6 1948/2/6 1954/2/6
f 1954/2/6 1948/2/6 1955/2/6
f 1950/2/6 1951/2/6 1956/2/6
f 1949/2/6 1950/2/6 1956/2/6
f 1956/2/6 1951/2/6 1957/2/6
f 1957/2/6 1951/2/6 1958/2/6
f 1954/2/6 1955/2/6 1959/2/6
f 1956/2/6 1957/2/6 1959/2/6
f 1955/2/6 1956/2/6 1959/2/6
f 1959/2/6 1957/2/6 1960/2/6
f 1960/2/6 1957/2/6 1961/2/6
f 1961/2/6 1957/2/6 1962/2/6
f 1960/2/6 1961/2/6 1963/2/6
f 1963/2/6 1961/2/6 1964/2/6
f 1965/2/6 1966/2/6 1968/2/6
f 1968/2/6 1966/2/6 1969/2/6
f 1969/2/6 1966/2/6 1970/2/6
f 1970/2/6 1966/2/6 1971/2/6
f 1967/2/6 1968/2/6 1973/2/6
f 1968/2/6 1969/2/6 1973/2/6
f 1973/2/6 1969/2/6 1974/2/6
f 1971/2/6 1972/2/6 1975/2/6
f 1970/2/6 1971/2/6 1975/2/6
f 1975/2/6 1972/2/6 1976/2/6
f 1967/2/6 1973/2/6 1977/2/6
f 1977/2/6 1973/2/6 1978/2/6
f 1976/2/6 1972/2/6 1979/2/6
f 1979/2/6 1972/2/6 1980/2/6
f 1967/2/6 1977/2/6 1981/2/6
f 1981/2/6 1977/2/6 1982/2/6
f 1980/2/6 1972/2/6 1983/2/6
f 1983/2/6 1972/2/6 1984/2/6
f 1967/2/6 1981/2/6 1985/2/6
f 1985/2/6 1981/2/6 1986/2/6
f 1984/2/6 1972/2/6 1987/2/6
f 1987/2/6 1972/2/6 1988/2/6
f 1967/2/6 1985/2/6 1989/2/6
f 1989/2/6 1985/2/6 1990/2/6
f 1988/2/6 1972/2/6 1991/2/6
f 1991/2/6 1972/2/6 1992/2/6
f 1967/2/6 1989/2/6 1993/2/6
f 1992/2/6 1972/2/6 1996/2/6
f 1993/2/6 1994/2/6 1997/2/6
f 1995/2/6 1996/2/6 2000/2/6
f 1997/2/6 1998/2/6 2001/2/6
f 1999/2/6 2000/2/6 2004/2/6
f 2001/2/6 2002/2/6 2005/2/6
f 2003/2/6 2004/2/6 2008/2/6
f 2005/2/6 2006/2/6 2009/2/6
f 2007/2/6 2008/2/6 2012/2/6
f 2009/2/6 2010/2/6 2013/2/6
f 1967/2/6 1993/2/6 2013/2/6
f 1993/2/6 1997/2/6 2013/2/6
f 1997/2/6 2001/2/6 2013/2/6
f 2005/2/6 2009/2/6 2013/2/6
f 2001/2/6 2005/2/6 2013/2/6
f 2013/2/6 2010/2/6 2014/2/6
f 2014/2/6 2010/2/6 2015/2/6
f 2011/2/6 2012/2/6 2016/2/6
f 2012/2/6 2008/2/6 2017/2/6
f 1996/2/6 1972/2/6 2017/2/6
f 2016/2/6 2012/2/6 2017/2/6
f 2000/2/6 1996/2/6 2017/2/6
f 2008/2/6 2004/2/6 2017/2/6
f 2004/2/6 2000/2/6 2017/2/6
f 2017/2/6 1972/2/6 2018/2/6
f 2014/2/6 2015/2/6 2019/2/6
f 2015/2/6 2016/2/6 2019/2/6
f 2016/2/6 2017/2/6 2019/2/6
f 2019/2/6 2017/2/6 2020/2/6
f 2021/4/6 2022/4/6 2023/4/6
f 2023/4/6 2022/4/6 2024/4/6
f 2021/4/6 2023/4/6 2025/4/6
f 2023/2/6 2024/2/6 2026/2/6
f 2025/4/6 2023/4/6 2026/4/6
f 2024/4/6 2022/4/6 2027/4/6
f 2026/2/6 2024/2/6 2027/2/6
f 2027/4/6 2022/4/6 2028/4/6
f 2021/4/6 2025/4/6 2029/4/6
f 2025/2/6 2026/2/6 2030/2/6
f 2029/4/6 2025/4/6 2030/4/6
f 2026/2/6 2027/2/6 2030/2/6
f 2027/2/6 2028/2/6 2030/2/6
f 2028/4/6 2022/4/6 2031/4/6
f 2030/2/6 2028/2/6 2031/2/6
f 2031/4/6 2022/4/6 2032/4/6
f 2029/2/6 2030/2/6 2033/2/6
f 2030/2/6 2031/2/6 2033/2/6
f 2031/2/6 2032/2/6 2033/2/6
f 2033/2/6 2032/2/6 2034/2/6
f 2033/2/6 2034/2/6 2035/2/6
f 2035/2/6 2034/2/6 2036/2/6
f 2037/4/6 2038/4/6 2045/4/6
f 2039/2/6 2040/2/6 2046/2/6
f 2045/4/6 2038/4/6 2046/4/6
f 2038/2/6 2039/2/6 2046/2/6
f 2042/2/6 2043/2/6 2047/2/6
f 2043/4/6 2044/4/6 2047/4/6
f 2041/2/6 2042/2/6 2047/2/6
f 2047/4/6 2044/4/6 2048/4/6
f 2037/4/6 2045/4/6 2049/4/6
f 2045/2/6 2046/2/6 2050/2/6
f 2049/4/6 2045/4/6 2050/4/6
f 2048/4/6 2044/4/6 2051/4/6
f 2047/2/6 2048/2/6 2051/2/6
f 2051/4/6 2044/4/6 2052/4/6
f 2037/4/6 2049/4/6 2053/4/6
f 2049/2/6 2050/2/6 2053/2/6
f 2050/2/6 2046/2/6 2054/2/6
f 2053/2/6 2050/2/6 2054/2/6
f 2051/2/6 2052/2/6 2055/2/6
f 2047/2/6 2051/2/6 2055/2/6
f 2052/4/6 2044/4/6 2056/4/6
f 2055/2/6 2052/2/6 2056/2/6
f 2054/2/6 2046/2/6 2057/2/6
f 2053/4/6 2054/4/6 2057/4/6
f 2046/2/6 2040/2/6 2058/2/6
f 2057/2/6 2046/2/6 2058/2/6
f 2047/2/6 2055/2/6 2059/2/6
f 2041/2/6 2047/2/6 2059/2/6
f 2055/4/6 2056/4/6 2060/4/6
f 2059/2/6 2055/2/6 2060/2/6
f 2037/4/6 2053/4/6 2061/4/6
f 2053/4/6 2057/4/6 2061/4/6
f 2057/4/6 2058/4/6 2061/4/6
f 2058/2/6 2040/2/6 2062/2/6
f 2061/4/6 2058/4/6 2062/4/6
f 2062/2/6 2040/2/6 2063/2/6
f 2063/2/6 2040/2/6 2064/2/6
f 2041/2/6 2059/2/6 2065/2/6
f 2065/2/6 2059/2/6 2066/2/6
f 2059/4/6 2060/4/6 2067/4/6
f 2066/2/6 2059/2/6 2067/2/6
f 2060/4/6 2056/4/6 2068/4/6
f 2067/4/6 2060/4/6 2068/4/6
f 2056/4/6 2044/4/6 2068/4/6
f 2069/2/6 2070/2/6 2071/2/6
f 2071/2/6 2070/2/6 2072/2/6
f 2071/2/6 2072/2/6 2073/2/6
f 2073/2/6 2072/2/6 2074/2/6
f 2074/2/6 2072/2/6 2075/2/6
f 2075/2/6 2072/2/6 2076/2/6
f 2073/4/6 2074/4/6 2077/4/6
f 2074/2/6 2075/2/6 2077/2/6
f 2077/2/6 2075/2/6 2078/2/6
f 2078/2/6 2075/2/6 2079/2/6
f 2075/4/6 2076/4/6 2080/4/6
f 2079/2/6 2075/2/6 2080/2/6
f 2078/2/6 2079/2/6 2081/2/6
f 2077/4/6 2078/4/6 2081/4/6
f 2079/4/6 2080/4/6 2082/4/6
f 2081/2/6 2079/2/6 2082/2/6
f 2073/4/6 2077/4/6 2083/4/6
f 2077/4/6 2081/4/6 2083/4/6
f 2081/4/6 2082/4/6 2083/4/6
f 2080/4/6 2076/4/6 2084/4/6
f 2083/4/6 2082/4/6 2084/4/6
f 2082/4/6 2080/4/6 2084/4/6
f 2085/4/6 2086/4/6 2089/4/6
f 2089/4/6 2086/4/6 2090/4/6
f 2087/4/6 2088/4/6 2091/4/6
f 2091/4/6 2088/4/6 2092/4/6
f 2085/4/6 2089/4/6 2093/4/6
f 2089/2/6 2090/2/6 2094/2/6
f 2093/4/6 2089/4/6 2094/4/6
f 2092/4/6 2088/4/6 2095/4/6
f 2091/2/6 2092/2/6 2095/2/6
f 2095/4/6 2088/4/6 2096/4/6
f 2085/4/6 2093/4/6 2097/4/6
f 2093/2/6 2094/2/6 2098/2/6
f 2097/4/6 2093/4/6 2098/4/6
f 2096/4/6 2088/4/6 2099/4/6
f 2095/2/6 2096/2/6 2099/2/6
f 2099/4/6 2088/4/6 2100/4/6
f 2085/4/6 2097/4/6 2101/4/6
f 2097/2/6 2098/2/6 2102/2/6
f 2101/4/6 2097/4/6 2102/4/6
f 2100/4/6 2088/4/6 2103/4/6
f 2099/2/6 2100/2/6 2103/2/6
f 2103/4/6 2088/4/6 2104/4/6
f 2085/4/6 2101/4/6 2105/4/6
f 2101/2/6 2102/2/6 2106/2/6
f 2105/4/6 2101/4/6 2106/4/6
f 2104/4/6 2088/4/6 2107/4/6
f 2103/2/6 2104/2/6 2107/2/6
f 2107/4/6 2088/4/6 2108/4/6
f 2085/4/6 2105/4/6 2109/4/6
f 2105/2/6 2106/2/6 2110/2/6
f 2109/4/6 2105/4/6 2110/4/6
f 2098/2/6 2094/2/6 2111/2/6
f 2110/2/6 2106/2/6 2111/2/6
f 2094/2/6 2090/2/6 2111/2/6
f 2102/2/6 2098/2/6 2111/2/6
f 2106/2/6 2102/2/6 2111/2/6
f 2107/2/6 2108/2/6 2112/2/6
f 2103/2/6 2107/2/6 2112/2/6
f 2099/2/6 2103/2/6 2112/2/6
f 2091/2/6 2095/2/6 2112/2/6
f 2095/2/6 2099/2/6 2112/2/6
f 2108/4/6 2088/4/6 2113/4/6
f 2112/2/6 2108/2/6 2113/2/6
f 2113/4/6 2088/4/6 2114/4/6
f 2115/4/6 2116/4/6 2121/4/6
f 2116/2/6 2117/2/6 2121/2/6
f 2121/2/6 2117/2/6 2122/2/6
f 2118/2/6 2119/2/6 2123/2/6
f 2119/4/6 2120/4/6 2124/4/6
f 2123/2/6 2119/2/6 2124/2/6
f 2122/2/6 2117/2/6 2125/2/6
f 2121/4/6 2122/4/6 2125/4/6
f 2125/2/6 2117/2/6 2126/2/6
f 2118/2/6 2123/2/6 2127/2/6
f 2123/4/6 2124/4/6 2128/4/6
f 2127/2/6 2123/2/6 2128/2/6
f 2126/2/6 2117/2/6 2129/2/6
f 2125/4/6 2126/4/6 2129/4/6
f 2129/2/6 2117/2/6 2130/2/6
f 2118/2/6 2127/2/6 2131/2/6
f 2127/4/6 2128/4/6 2132/4/6
f 2131/2/6 2127/2/6 2132/2/6
f 2130/2/6 2117/2/6 2133/2/6
f 2129/4/6 2130/4/6 2133/4/6
f 2133/2/6 2117/2/6 2134/2/6
f 2118/2/6 2131/2/6 2135/2/6
f 2131/4/6 2132/4/6 2136/4/6
f 2135/2/6 2131/2/6 2136/2/6
f 2134/2/6 2117/2/6 2137/2/6
f 2133/4/6 2134/4/6 2137/4/6
f 2137/2/6 2117/2/6 2138/2/6
f 2118/2/6 2135/2/6 2139/2/6
f 2135/4/6 2136/4/6 2140/4/6
f 2139/2/6 2135/2/6 2140/2/6
f 2115/4/6 2121/4/6 2141/4/6
f 2121/4/6 2125/4/6 2141/4/6
f 2125/4/6 2129/4/6 2141/4/6
f 2133/4/6 2137/4/6 2141/4/6
f 2137/4/6 2138/4/6 2141/4/6
f 2129/4/6 2133/4/6 2141/4/6
f 2141/4/6 2138/4/6 2142/4/6
f 2139/4/6 2140/4/6 2143/4/6
f 2128/4/6 2124/4/6 2144/4/6
f 2143/4/6 2140/4/6 2144/4/6
f 2124/4/6 2120/4/6 2144/4/6
f 2140/4/6 2136/4/6 2144/4/6
f 2132/4/6 2128/4/6 2144/4/6
f 2136/4/6 2132/4/6 2144/4/6
