# MagicaVoxel @ Ephtracy

# group
o 

# material
mtllib Slime_Attack_01.mtl
usemtl palette

# normals
vn -1 0 0
vn 1 0 0
vn 0 0 1
vn 0 0 -1
vn 0 -1 0
vn 0 1 0

# texcoords
vt 0.0214844 0.5
vt 0.0253906 0.5
vt 0.0292969 0.5
vt 0.0527344 0.5
vt 0.0566406 0.5
vt 0.0605469 0.5

# verts
v -2 0.3 0.1
v -2 0.3 -0.1
v -2 0.6 0.1
v -2 0.6 -0.1
v -1.9 0.2 0.1
v -1.9 0.2 -0.1
v -1.9 0.3 0.1
v -1.9 0.3 -0.1
v -1.9 0.6 0.1
v -1.9 0.6 -0.1
v -1.9 0.7 0.1
v -1.9 0.7 -0.1
v -1.8 0.7 0.1
v -1.8 0.7 -0.1
v -1.8 0.8 0.1
v -1.8 0.8 -0.1
v -1.7 0.1 0.1
v -1.7 0.1 -0.1
v -1.7 0.2 0.1
v -1.7 0.2 -0.1
v -1.6 0.8 0.1
v -1.6 0.8 -0.1
v -1.6 0.9 0.1
v -1.6 0.9 -0.1
v -1.5 0.9 0.1
v -1.5 0.9 -0.1
v -1.5 1 0.1
v -1.5 1 -0.1
v -1.4 1 0.1
v -1.4 1 -0.1
v -1.4 1.3 0.1
v -1.4 1.3 -0.1
v -1.3 0 0.1
v -1.3 0 -0.1
v -1.3 0.1 0.1
v -1.3 0.1 -0.1
v -1.3 1.3 0.1
v -1.3 1.3 -0.1
v -1.3 1.6 0.1
v -1.3 1.6 -0.1
v -1.2 1.6 0.1
v -1.2 1.6 -0.1
v -1.2 1.7 0.1
v -1.2 1.7 -0.1
v -1.1 1.7 0.1
v -1.1 1.7 -0.1
v -1.1 1.8 0.1
v -1.1 1.8 -0.1
v -1 1.8 0.1
v -1 1.8 -0.1
v -1 1.9 0.1
v -1 1.9 -0.1
v -0.9 1.9 0.1
v -0.9 1.9 -0.1
v -0.9 2 0.1
v -0.9 2 -0.1
v -0.7 2 0.1
v -0.7 2 -0.1
v -0.7 2.1 0.1
v -0.7 2.1 -0.1
v -0.5 2.1 0.1
v -0.5 2.1 -0.1
v -0.5 2.2 0.1
v -0.5 2.2 -0.1
v 0.2 0 0.1
v 0.2 0 -0.1
v 0.2 0.1 0.1
v 0.2 0.1 -0.1
v -0.4 0 0.1
v -0.4 0 -0.1
v -0.4 0.1 0.1
v -0.4 0.1 -0.1
v 0.4 2.1 0.1
v 0.4 2.1 -0.1
v 0.4 2.2 0.1
v 0.4 2.2 -0.1
v 0.6 2 0.1
v 0.6 2 -0.1
v 0.6 2.1 0.1
v 0.6 2.1 -0.1
v 0.8 1.9 0.1
v 0.8 1.9 -0.1
v 0.8 2 0.1
v 0.8 2 -0.1
v 0.9 1.8 0.1
v 0.9 1.8 -0.1
v 0.9 1.9 0.1
v 0.9 1.9 -0.1
v 1 1.7 0.1
v 1 1.7 -0.1
v 1 1.8 0.1
v 1 1.8 -0.1
v 1.1 1.6 0.1
v 1.1 1.6 -0.1
v 1.1 1.7 0.1
v 1.1 1.7 -0.1
v 1.2 1.4 0.1
v 1.2 1.4 -0.1
v 1.2 1.6 0.1
v 1.2 1.6 -0.1
v 1.3 1 0.1
v 1.3 1 -0.1
v 1.3 1.4 0.1
v 1.3 1.4 -0.1
v 1.4 0 0.1
v 1.4 0 -0.1
v 1.4 0.1 0.1
v 1.4 0.1 -0.1
v 1.4 0.9 0.1
v 1.4 0.9 -0.1
v 1.4 1 0.1
v 1.4 1 -0.1
v 1.5 0.8 0.1
v 1.5 0.8 -0.1
v 1.5 0.9 0.1
v 1.5 0.9 -0.1
v 1.6 0.1 0.1
v 1.6 0.1 -0.1
v 1.6 0.2 0.1
v 1.6 0.2 -0.1
v 1.7 0.7 0.1
v 1.7 0.7 -0.1
v 1.7 0.8 0.1
v 1.7 0.8 -0.1
v 1.9 0.2 0.1
v 1.9 0.2 -0.1
v 1.9 0.3 0.1
v 1.9 0.3 -0.1
v 1.9 0.6 0.1
v 1.9 0.6 -0.1
v 1.9 0.7 0.1
v 1.9 0.7 -0.1
v 2 0.3 0.1
v 2 0.3 -0.1
v 2 0.6 0.1
v 2 0.6 -0.1
v -2 0.3 0.1
v -2 0.6 0.1
v -1.9 0.2 0.1
v -1.9 0.3 0.1
v -1.9 0.5 0.1
v -1.9 0.6 0.1
v -1.9 0.7 0.1
v -1.8 0.4 0.1
v -1.8 0.5 0.1
v -1.8 0.6 0.1
v -1.8 0.7 0.1
v -1.8 0.8 0.1
v -1.7 0.1 0.1
v -1.7 0.2 0.1
v -1.7 0.3 0.1
v -1.7 0.4 0.1
v -1.7 0.5 0.1
v -1.7 0.7 0.1
v -1.6 0.2 0.1
v -1.6 0.3 0.1
v -1.6 0.4 0.1
v -1.6 0.5 0.1
v -1.6 0.6 0.1
v -1.6 0.7 0.1
v -1.6 0.8 0.1
v -1.6 0.9 0.1
v -1.5 0.3 0.1
v -1.5 0.4 0.1
v -1.5 0.6 0.1
v -1.5 0.7 0.1
v -1.5 0.8 0.1
v -1.5 0.9 0.1
v -1.5 1 0.1
v -1.4 0.2 0.1
v -1.4 0.3 0.1
v -1.4 0.5 0.1
v -1.4 0.6 0.1
v -1.4 0.8 0.1
v -1.4 0.9 0.1
v -1.4 1 0.1
v -1.4 1.3 0.1
v -1.3 0 0.1
v -1.3 0.1 0.1
v -1.3 0.2 0.1
v -1.3 0.4 0.1
v -1.3 0.5 0.1
v -1.3 0.7 0.1
v -1.3 1 0.1
v -1.3 1.2 0.1
v -1.3 1.3 0.1
v -1.3 1.6 0.1
v -1.2 0.1 0.1
v -1.2 0.2 0.1
v -1.2 0.4 0.1
v -1.2 0.6 0.1
v -1.2 0.7 0.1
v -1.2 1 0.1
v -1.2 1.1 0.1
v -1.2 1.2 0.1
v -1.2 1.3 0.1
v -1.2 1.5 0.1
v -1.2 1.6 0.1
v -1.2 1.7 0.1
v -1.1 0.2 0.1
v -1.1 0.3 0.1
v -1.1 0.5 0.1
v -1.1 0.6 0.1
v -1.1 1 0.1
v -1.1 1.1 0.1
v -1.1 1.3 0.1
v -1.1 1.5 0.1
v -1.1 1.6 0.1
v -1.1 1.7 0.1
v -1.1 1.8 0.1
v -1 0.1 0.1
v -1 0.2 0.1
v -1 0.3 0.1
v -1 0.4 0.1
v -1 0.5 0.1
v -1 1.5 0.1
v -1 1.6 0.1
v -1 1.7 0.1
v -1 1.8 0.1
v -1 1.9 0.1
v -0.9 0.4 0.1
v -0.9 0.5 0.1
v -0.9 1.1 0.1
v -0.9 1.5 0.1
v -0.9 1.7 0.1
v -0.9 1.8 0.1
v -0.9 1.9 0.1
v -0.9 2 0.1
v -0.8 0.4 0.1
v -0.8 0.5 0.1
v -0.8 0.9 0.1
v -0.8 1 0.1
v -0.8 1.1 0.1
v -0.8 1.3 0.1
v -0.8 1.4 0.1
v -0.8 1.6 0.1
v -0.8 1.9 0.1
v -0.7 1.3 0.1
v -0.7 1.4 0.1
v -0.7 1.5 0.1
v -0.7 1.9 0.1
v -0.7 2 0.1
v -0.7 2.1 0.1
v -0.6 0.1 0.1
v -0.6 0.2 0.1
v -0.6 0.3 0.1
v -0.6 1 0.1
v -0.6 1.1 0.1
v -0.6 1.3 0.1
v -0.6 1.4 0.1
v -0.6 1.6 0.1
v -0.6 1.7 0.1
v -0.6 1.8 0.1
v -0.6 1.9 0.1
v -0.6 2 0.1
v -0.5 0.8 0.1
v -0.5 0.9 0.1
v -0.5 1.1 0.1
v -0.5 1.3 0.1
v -0.5 2 0.1
v -0.5 2.1 0.1
v -0.5 2.2 0.1
v -0.4 0 0.1
v -0.4 0.1 0.1
v -0.4 0.2 0.1
v -0.4 0.3 0.1
v -0.4 0.4 0.1
v -0.4 0.7 0.1
v -0.4 0.8 0.1
v -0.4 1.7 0.1
v -0.4 1.8 0.1
v -0.4 1.9 0.1
v -0.3 0.1 0.1
v -0.3 0.2 0.1
v -0.3 0.9 0.1
v -0.3 1 0.1
v -0.3 2 0.1
v -0.3 2.1 0.1
v -0.2 0.9 0.1
v -0.2 1 0.1
v -0.2 1.1 0.1
v -0.0999999 0.9 0.1
v -0.0999999 1 0.1
v -0.0999999 1.1 0.1
v 2.38419e-07 0.7 0.1
v 2.38419e-07 0.8 0.1
v 2.38419e-07 0.9 0.1
v 2.38419e-07 1 0.1
v 2.38419e-07 2 0.1
v 2.38419e-07 2.1 0.1
v 0.1 0.1 0.1
v 0.1 0.2 0.1
v 0.1 0.3 0.1
v 0.1 0.8 0.1
v 0.1 0.9 0.1
v 0.1 1.8 0.1
v 0.1 1.9 0.1
v 0.2 0 0.1
v 0.2 0.1 0.1
v 0.2 0.3 0.1
v 0.2 0.4 0.1
v 0.2 1.1 0.1
v 0.2 1.3 0.1
v 0.2 2 0.1
v 0.2 2.1 0.1
v 0.3 0.4 0.1
v 0.3 0.5 0.1
v 0.3 1 0.1
v 0.3 1.1 0.1
v 0.3 1.3 0.1
v 0.3 1.4 0.1
v 0.4 0.3 0.1
v 0.4 0.5 0.1
v 0.4 0.9 0.1
v 0.4 1 0.1
v 0.4 1.3 0.1
v 0.4 1.4 0.1
v 0.4 1.5 0.1
v 0.4 1.8 0.1
v 0.4 1.9 0.1
v 0.4 2 0.1
v 0.4 2.1 0.1
v 0.4 2.2 0.1
v 0.5 0.1 0.1
v 0.5 0.2 0.1
v 0.5 0.3 0.1
v 0.5 0.5 0.1
v 0.5 0.6 0.1
v 0.5 1 0.1
v 0.5 1.1 0.1
v 0.5 1.3 0.1
v 0.5 1.4 0.1
v 0.5 1.5 0.1
v 0.5 1.6 0.1
v 0.5 1.9 0.1
v 0.5 2 0.1
v 0.6 0.3 0.1
v 0.6 0.4 0.1
v 0.6 0.5 0.1
v 0.6 0.8 0.1
v 0.6 0.9 0.1
v 0.6 1.1 0.1
v 0.6 1.5 0.1
v 0.6 1.6 0.1
v 0.6 1.8 0.1
v 0.6 1.9 0.1
v 0.6 2 0.1
v 0.6 2.1 0.1
v 0.7 0.1 0.1
v 0.7 0.2 0.1
v 0.7 0.3 0.1
v 0.7 0.9 0.1
v 0.7 1 0.1
v 0.7 1.7 0.1
v 0.7 1.8 0.1
v 0.7 1.9 0.1
v 0.8 0.6 0.1
v 0.8 0.8 0.1
v 0.8 1 0.1
v 0.8 1.1 0.1
v 0.8 1.6 0.1
v 0.8 1.7 0.1
v 0.8 1.8 0.1
v 0.8 1.9 0.1
v 0.8 2 0.1
v 0.9 0.2 0.1
v 0.9 0.3 0.1
v 0.9 0.4 0.1
v 0.9 0.5 0.1
v 0.9 0.6 0.1
v 0.9 1.5 0.1
v 0.9 1.6 0.1
v 0.9 1.7 0.1
v 0.9 1.8 0.1
v 0.9 1.9 0.1
v 1 0.1 0.1
v 1 0.2 0.1
v 1 0.3 0.1
v 1 1 0.1
v 1 1.1 0.1
v 1 1.2 0.1
v 1 1.3 0.1
v 1 1.5 0.1
v 1 1.6 0.1
v 1 1.7 0.1
v 1 1.8 0.1
v 1.1 0.4 0.1
v 1.1 0.5 0.1
v 1.1 0.6 0.1
v 1.1 0.7 0.1
v 1.1 0.9 0.1
v 1.1 1 0.1
v 1.1 1.2 0.1
v 1.1 1.3 0.1
v 1.1 1.4 0.1
v 1.1 1.5 0.1
v 1.1 1.6 0.1
v 1.1 1.7 0.1
v 1.2 0.5 0.1
v 1.2 0.6 0.1
v 1.2 0.8 0.1
v 1.2 0.9 0.1
v 1.2 1 0.1
v 1.2 1.1 0.1
v 1.2 1.3 0.1
v 1.2 1.4 0.1
v 1.2 1.6 0.1
v 1.3 0.1 0.1
v 1.3 0.2 0.1
v 1.3 0.3 0.1
v 1.3 0.4 0.1
v 1.3 0.6 0.1
v 1.3 0.7 0.1
v 1.3 0.8 0.1
v 1.3 0.9 0.1
v 1.3 1 0.1
v 1.3 1.4 0.1
v 1.4 0 0.1
v 1.4 0.1 0.1
v 1.4 0.2 0.1
v 1.4 0.3 0.1
v 1.4 0.4 0.1
v 1.4 0.5 0.1
v 1.4 0.6 0.1
v 1.4 0.7 0.1
v 1.4 0.8 0.1
v 1.4 0.9 0.1
v 1.4 1 0.1
v 1.5 0.2 0.1
v 1.5 0.3 0.1
v 1.5 0.5 0.1
v 1.5 0.6 0.1
v 1.5 0.7 0.1
v 1.5 0.8 0.1
v 1.5 0.9 0.1
v 1.6 0.1 0.1
v 1.6 0.2 0.1
v 1.6 0.3 0.1
v 1.6 0.4 0.1
v 1.6 0.5 0.1
v 1.6 0.6 0.1
v 1.6 0.7 0.1
v 1.7 0.3 0.1
v 1.7 0.4 0.1
v 1.7 0.5 0.1
v 1.7 0.6 0.1
v 1.7 0.7 0.1
v 1.7 0.8 0.1
v 1.8 0.5 0.1
v 1.8 0.6 0.1
v 1.9 0.2 0.1
v 1.9 0.3 0.1
v 1.9 0.4 0.1
v 1.9 0.5 0.1
v 1.9 0.6 0.1
v 1.9 0.7 0.1
v 2 0.3 0.1
v 2 0.6 0.1
v -2 0.3 -0.1
v -2 0.6 -0.1
v -1.9 0.2 -0.1
v -1.9 0.3 -0.1
v -1.9 0.5 -0.1
v -1.9 0.6 -0.1
v -1.9 0.7 -0.1
v -1.8 0.4 -0.1
v -1.8 0.5 -0.1
v -1.8 0.6 -0.1
v -1.8 0.7 -0.1
v -1.8 0.8 -0.1
v -1.7 0.1 -0.1
v -1.7 0.2 -0.1
v -1.7 0.3 -0.1
v -1.7 0.4 -0.1
v -1.7 0.5 -0.1
v -1.7 0.7 -0.1
v -1.6 0.2 -0.1
v -1.6 0.3 -0.1
v -1.6 0.4 -0.1
v -1.6 0.5 -0.1
v -1.6 0.6 -0.1
v -1.6 0.7 -0.1
v -1.6 0.8 -0.1
v -1.6 0.9 -0.1
v -1.5 0.3 -0.1
v -1.5 0.4 -0.1
v -1.5 0.6 -0.1
v -1.5 0.7 -0.1
v -1.5 0.8 -0.1
v -1.5 0.9 -0.1
v -1.5 1 -0.1
v -1.4 0.2 -0.1
v -1.4 0.3 -0.1
v -1.4 0.5 -0.1
v -1.4 0.6 -0.1
v -1.4 0.8 -0.1
v -1.4 0.9 -0.1
v -1.4 1 -0.1
v -1.4 1.3 -0.1
v -1.3 0 -0.1
v -1.3 0.1 -0.1
v -1.3 0.2 -0.1
v -1.3 0.4 -0.1
v -1.3 0.5 -0.1
v -1.3 0.7 -0.1
v -1.3 1 -0.1
v -1.3 1.2 -0.1
v -1.3 1.3 -0.1
v -1.3 1.6 -0.1
v -1.2 0.1 -0.1
v -1.2 0.2 -0.1
v -1.2 0.4 -0.1
v -1.2 0.6 -0.1
v -1.2 0.7 -0.1
v -1.2 1 -0.1
v -1.2 1.1 -0.1
v -1.2 1.2 -0.1
v -1.2 1.3 -0.1
v -1.2 1.5 -0.1
v -1.2 1.6 -0.1
v -1.2 1.7 -0.1
v -1.1 0.2 -0.1
v -1.1 0.3 -0.1
v -1.1 0.5 -0.1
v -1.1 0.6 -0.1
v -1.1 1 -0.1
v -1.1 1.1 -0.1
v -1.1 1.3 -0.1
v -1.1 1.5 -0.1
v -1.1 1.6 -0.1
v -1.1 1.7 -0.1
v -1.1 1.8 -0.1
v -1 0.1 -0.1
v -1 0.2 -0.1
v -1 0.3 -0.1
v -1 0.4 -0.1
v -1 0.5 -0.1
v -1 1.5 -0.1
v -1 1.6 -0.1
v -1 1.7 -0.1
v -1 1.8 -0.1
v -1 1.9 -0.1
v -0.9 0.4 -0.1
v -0.9 0.5 -0.1
v -0.9 1.1 -0.1
v -0.9 1.5 -0.1
v -0.9 1.7 -0.1
v -0.9 1.8 -0.1
v -0.9 1.9 -0.1
v -0.9 2 -0.1
v -0.8 0.4 -0.1
v -0.8 0.5 -0.1
v -0.8 0.9 -0.1
v -0.8 1 -0.1
v -0.8 1.1 -0.1
v -0.8 1.3 -0.1
v -0.8 1.4 -0.1
v -0.8 1.6 -0.1
v -0.8 1.9 -0.1
v -0.7 1.3 -0.1
v -0.7 1.4 -0.1
v -0.7 1.5 -0.1
v -0.7 1.9 -0.1
v -0.7 2 -0.1
v -0.7 2.1 -0.1
v -0.6 0.1 -0.1
v -0.6 0.2 -0.1
v -0.6 0.3 -0.1
v -0.6 1 -0.1
v -0.6 1.1 -0.1
v -0.6 1.3 -0.1
v -0.6 1.4 -0.1
v -0.6 1.6 -0.1
v -0.6 1.7 -0.1
v -0.6 1.8 -0.1
v -0.6 1.9 -0.1
v -0.6 2 -0.1
v -0.5 0.8 -0.1
v -0.5 0.9 -0.1
v -0.5 1.1 -0.1
v -0.5 1.3 -0.1
v -0.5 2 -0.1
v -0.5 2.1 -0.1
v -0.5 2.2 -0.1
v -0.4 0 -0.1
v -0.4 0.1 -0.1
v -0.4 0.2 -0.1
v -0.4 0.3 -0.1
v -0.4 0.4 -0.1
v -0.4 0.7 -0.1
v -0.4 0.8 -0.1
v -0.4 1.7 -0.1
v -0.4 1.8 -0.1
v -0.4 1.9 -0.1
v -0.3 0.1 -0.1
v -0.3 0.2 -0.1
v -0.3 0.9 -0.1
v -0.3 1 -0.1
v -0.3 2 -0.1
v -0.3 2.1 -0.1
v -0.2 0.9 -0.1
v -0.2 1 -0.1
v -0.2 1.1 -0.1
v -0.0999999 0.9 -0.1
v -0.0999999 1 -0.1
v -0.0999999 1.1 -0.1
v 2.38419e-07 0.7 -0.1
v 2.38419e-07 0.8 -0.1
v 2.38419e-07 0.9 -0.1
v 2.38419e-07 1 -0.1
v 2.38419e-07 2 -0.1
v 2.38419e-07 2.1 -0.1
v 0.1 0.1 -0.1
v 0.1 0.2 -0.1
v 0.1 0.3 -0.1
v 0.1 0.8 -0.1
v 0.1 0.9 -0.1
v 0.1 1.8 -0.1
v 0.1 1.9 -0.1
v 0.2 0 -0.1
v 0.2 0.1 -0.1
v 0.2 0.3 -0.1
v 0.2 0.4 -0.1
v 0.2 1.1 -0.1
v 0.2 1.3 -0.1
v 0.2 2 -0.1
v 0.2 2.1 -0.1
v 0.3 0.4 -0.1
v 0.3 0.5 -0.1
v 0.3 1 -0.1
v 0.3 1.1 -0.1
v 0.3 1.3 -0.1
v 0.3 1.4 -0.1
v 0.4 0.3 -0.1
v 0.4 0.5 -0.1
v 0.4 0.9 -0.1
v 0.4 1 -0.1
v 0.4 1.3 -0.1
v 0.4 1.4 -0.1
v 0.4 1.5 -0.1
v 0.4 1.8 -0.1
v 0.4 1.9 -0.1
v 0.4 2 -0.1
v 0.4 2.1 -0.1
v 0.4 2.2 -0.1
v 0.5 0.1 -0.1
v 0.5 0.2 -0.1
v 0.5 0.3 -0.1
v 0.5 0.5 -0.1
v 0.5 0.6 -0.1
v 0.5 1 -0.1
v 0.5 1.1 -0.1
v 0.5 1.3 -0.1
v 0.5 1.4 -0.1
v 0.5 1.5 -0.1
v 0.5 1.6 -0.1
v 0.5 1.9 -0.1
v 0.5 2 -0.1
v 0.6 0.3 -0.1
v 0.6 0.4 -0.1
v 0.6 0.5 -0.1
v 0.6 0.8 -0.1
v 0.6 0.9 -0.1
v 0.6 1.1 -0.1
v 0.6 1.5 -0.1
v 0.6 1.6 -0.1
v 0.6 1.8 -0.1
v 0.6 1.9 -0.1
v 0.6 2 -0.1
v 0.6 2.1 -0.1
v 0.7 0.1 -0.1
v 0.7 0.2 -0.1
v 0.7 0.3 -0.1
v 0.7 0.9 -0.1
v 0.7 1 -0.1
v 0.7 1.7 -0.1
v 0.7 1.8 -0.1
v 0.7 1.9 -0.1
v 0.8 0.6 -0.1
v 0.8 0.8 -0.1
v 0.8 1 -0.1
v 0.8 1.1 -0.1
v 0.8 1.6 -0.1
v 0.8 1.7 -0.1
v 0.8 1.8 -0.1
v 0.8 1.9 -0.1
v 0.8 2 -0.1
v 0.9 0.2 -0.1
v 0.9 0.3 -0.1
v 0.9 0.4 -0.1
v 0.9 0.5 -0.1
v 0.9 0.6 -0.1
v 0.9 1.5 -0.1
v 0.9 1.6 -0.1
v 0.9 1.7 -0.1
v 0.9 1.8 -0.1
v 0.9 1.9 -0.1
v 1 0.1 -0.1
v 1 0.2 -0.1
v 1 0.3 -0.1
v 1 1 -0.1
v 1 1.1 -0.1
v 1 1.2 -0.1
v 1 1.3 -0.1
v 1 1.5 -0.1
v 1 1.6 -0.1
v 1 1.7 -0.1
v 1 1.8 -0.1
v 1.1 0.4 -0.1
v 1.1 0.5 -0.1
v 1.1 0.6 -0.1
v 1.1 0.7 -0.1
v 1.1 0.9 -0.1
v 1.1 1 -0.1
v 1.1 1.2 -0.1
v 1.1 1.3 -0.1
v 1.1 1.4 -0.1
v 1.1 1.5 -0.1
v 1.1 1.6 -0.1
v 1.1 1.7 -0.1
v 1.2 0.5 -0.1
v 1.2 0.6 -0.1
v 1.2 0.8 -0.1
v 1.2 0.9 -0.1
v 1.2 1 -0.1
v 1.2 1.1 -0.1
v 1.2 1.3 -0.1
v 1.2 1.4 -0.1
v 1.2 1.6 -0.1
v 1.3 0.1 -0.1
v 1.3 0.2 -0.1
v 1.3 0.3 -0.1
v 1.3 0.4 -0.1
v 1.3 0.6 -0.1
v 1.3 0.7 -0.1
v 1.3 0.8 -0.1
v 1.3 0.9 -0.1
v 1.3 1 -0.1
v 1.3 1.4 -0.1
v 1.4 0 -0.1
v 1.4 0.1 -0.1
v 1.4 0.2 -0.1
v 1.4 0.3 -0.1
v 1.4 0.4 -0.1
v 1.4 0.5 -0.1
v 1.4 0.6 -0.1
v 1.4 0.7 -0.1
v 1.4 0.8 -0.1
v 1.4 0.9 -0.1
v 1.4 1 -0.1
v 1.5 0.2 -0.1
v 1.5 0.3 -0.1
v 1.5 0.5 -0.1
v 1.5 0.6 -0.1
v 1.5 0.7 -0.1
v 1.5 0.8 -0.1
v 1.5 0.9 -0.1
v 1.6 0.1 -0.1
v 1.6 0.2 -0.1
v 1.6 0.3 -0.1
v 1.6 0.4 -0.1
v 1.6 0.5 -0.1
v 1.6 0.6 -0.1
v 1.6 0.7 -0.1
v 1.7 0.3 -0.1
v 1.7 0.4 -0.1
v 1.7 0.5 -0.1
v 1.7 0.6 -0.1
v 1.7 0.7 -0.1
v 1.7 0.8 -0.1
v 1.8 0.5 -0.1
v 1.8 0.6 -0.1
v 1.9 0.2 -0.1
v 1.9 0.3 -0.1
v 1.9 0.4 -0.1
v 1.9 0.5 -0.1
v 1.9 0.6 -0.1
v 1.9 0.7 -0.1
v 2 0.3 -0.1
v 2 0.6 -0.1
v -1.3 0 0.1
v -0.4 0 0.1
v 0.2 0 0.1
v 1.4 0 0.1
v -1.3 0 -0.1
v -0.4 0 -0.1
v 0.2 0 -0.1
v 1.4 0 -0.1
v -1.7 0.1 0.1
v -1.3 0.1 0.1
v -0.4 0.1 0.1
v -0.3 0.1 0.1
v 0.1 0.1 0.1
v 0.2 0.1 0.1
v 1.4 0.1 0.1
v 1.6 0.1 0.1
v -1.7 0.1 -0.1
v -1.3 0.1 -0.1
v -0.4 0.1 -0.1
v -0.3 0.1 -0.1
v 0.1 0.1 -0.1
v 0.2 0.1 -0.1
v 1.4 0.1 -0.1
v 1.6 0.1 -0.1
v -1.9 0.2 0.1
v -1.7 0.2 0.1
v 1.6 0.2 0.1
v 1.9 0.2 0.1
v -1.9 0.2 -0.1
v -1.7 0.2 -0.1
v 1.6 0.2 -0.1
v 1.9 0.2 -0.1
v -2 0.3 0.1
v -1.9 0.3 0.1
v 1.9 0.3 0.1
v 2 0.3 0.1
v -2 0.3 -0.1
v -1.9 0.3 -0.1
v 1.9 0.3 -0.1
v 2 0.3 -0.1
v -2 0.6 0.1
v -1.9 0.6 0.1
v 1.9 0.6 0.1
v 2 0.6 0.1
v -2 0.6 -0.1
v -1.9 0.6 -0.1
v 1.9 0.6 -0.1
v 2 0.6 -0.1
v -1.9 0.7 0.1
v -1.8 0.7 0.1
v 1.7 0.7 0.1
v 1.9 0.7 0.1
v -1.9 0.7 -0.1
v -1.8 0.7 -0.1
v 1.7 0.7 -0.1
v 1.9 0.7 -0.1
v -1.8 0.8 0.1
v -1.6 0.8 0.1
v 1.5 0.8 0.1
v 1.7 0.8 0.1
v -1.8 0.8 -0.1
v -1.6 0.8 -0.1
v 1.5 0.8 -0.1
v 1.7 0.8 -0.1
v -1.6 0.9 0.1
v -1.5 0.9 0.1
v 1.4 0.9 0.1
v 1.5 0.9 0.1
v -1.6 0.9 -0.1
v -1.5 0.9 -0.1
v 1.4 0.9 -0.1
v 1.5 0.9 -0.1
v -1.5 1 0.1
v -1.4 1 0.1
v 1.3 1 0.1
v 1.4 1 0.1
v -1.5 1 -0.1
v -1.4 1 -0.1
v 1.3 1 -0.1
v 1.4 1 -0.1
v -1.4 1.3 0.1
v -1.3 1.3 0.1
v -1.4 1.3 -0.1
v -1.3 1.3 -0.1
v 1.2 1.4 0.1
v 1.3 1.4 0.1
v 1.2 1.4 -0.1
v 1.3 1.4 -0.1
v -1.3 1.6 0.1
v -1.2 1.6 0.1
v 1.1 1.6 0.1
v 1.2 1.6 0.1
v -1.3 1.6 -0.1
v -1.2 1.6 -0.1
v 1.1 1.6 -0.1
v 1.2 1.6 -0.1
v -1.2 1.7 0.1
v -1.1 1.7 0.1
v 1 1.7 0.1
v 1.1 1.7 0.1
v -1.2 1.7 -0.1
v -1.1 1.7 -0.1
v 1 1.7 -0.1
v 1.1 1.7 -0.1
v -1.1 1.8 0.1
v -1 1.8 0.1
v 0.9 1.8 0.1
v 1 1.8 0.1
v -1.1 1.8 -0.1
v -1 1.8 -0.1
v 0.9 1.8 -0.1
v 1 1.8 -0.1
v -1 1.9 0.1
v -0.9 1.9 0.1
v 0.8 1.9 0.1
v 0.9 1.9 0.1
v -1 1.9 -0.1
v -0.9 1.9 -0.1
v 0.8 1.9 -0.1
v 0.9 1.9 -0.1
v -0.9 2 0.1
v -0.7 2 0.1
v 0.6 2 0.1
v 0.8 2 0.1
v -0.9 2 -0.1
v -0.7 2 -0.1
v 0.6 2 -0.1
v 0.8 2 -0.1
v -0.7 2.1 0.1
v -0.5 2.1 0.1
v 0.4 2.1 0.1
v 0.6 2.1 0.1
v -0.7 2.1 -0.1
v -0.5 2.1 -0.1
v 0.4 2.1 -0.1
v 0.6 2.1 -0.1
v -0.5 2.2 0.1
v 0.4 2.2 0.1
v -0.5 2.2 -0.1
v 0.4 2.2 -0.1

# faces
f 3/3/1 2/3/1 1/3/1
f 4/3/1 2/3/1 3/3/1
f 7/3/1 6/3/1 5/3/1
f 8/3/1 6/3/1 7/3/1
f 11/3/1 10/3/1 9/3/1
f 12/3/1 10/3/1 11/3/1
f 15/3/1 14/3/1 13/3/1
f 16/3/1 14/3/1 15/3/1
f 19/3/1 18/3/1 17/3/1
f 20/3/1 18/3/1 19/3/1
f 23/3/1 22/3/1 21/3/1
f 24/3/1 22/3/1 23/3/1
f 27/3/1 26/3/1 25/3/1
f 28/3/1 26/3/1 27/3/1
f 31/3/1 30/3/1 29/3/1
f 32/3/1 30/3/1 31/3/1
f 35/3/1 34/3/1 33/3/1
f 36/3/1 34/3/1 35/3/1
f 39/3/1 38/3/1 37/3/1
f 40/3/1 38/3/1 39/3/1
f 43/3/1 42/3/1 41/3/1
f 44/3/1 42/3/1 43/3/1
f 47/3/1 46/3/1 45/3/1
f 48/3/1 46/3/1 47/3/1
f 51/3/1 50/3/1 49/3/1
f 52/3/1 50/3/1 51/3/1
f 55/3/1 54/3/1 53/3/1
f 56/3/1 54/3/1 55/3/1
f 59/3/1 58/3/1 57/3/1
f 60/3/1 58/3/1 59/3/1
f 63/3/1 62/3/1 61/3/1
f 64/3/1 62/3/1 63/3/1
f 67/3/1 66/3/1 65/3/1
f 68/3/1 66/3/1 67/3/1
f 69/3/2 70/3/2 71/3/2
f 71/3/2 70/3/2 72/3/2
f 73/3/2 74/3/2 75/3/2
f 75/3/2 74/3/2 76/3/2
f 77/3/2 78/3/2 79/3/2
f 79/3/2 78/3/2 80/3/2
f 81/3/2 82/3/2 83/3/2
f 83/3/2 82/3/2 84/3/2
f 85/3/2 86/3/2 87/3/2
f 87/3/2 86/3/2 88/3/2
f 89/3/2 90/3/2 91/3/2
f 91/3/2 90/3/2 92/3/2
f 93/3/2 94/3/2 95/3/2
f 95/3/2 94/3/2 96/3/2
f 97/3/2 98/3/2 99/3/2
f 99/3/2 98/3/2 100/3/2
f 101/3/2 102/3/2 103/3/2
f 103/3/2 102/3/2 104/3/2
f 105/3/2 106/3/2 107/3/2
f 107/3/2 106/3/2 108/3/2
f 109/3/2 110/3/2 111/3/2
f 111/3/2 110/3/2 112/3/2
f 113/3/2 114/3/2 115/3/2
f 115/3/2 114/3/2 116/3/2
f 117/3/2 118/3/2 119/3/2
f 119/3/2 118/3/2 120/3/2
f 121/3/2 122/3/2 123/3/2
f 123/3/2 122/3/2 124/3/2
f 125/3/2 126/3/2 127/3/2
f 127/3/2 126/3/2 128/3/2
f 129/3/2 130/3/2 131/3/2
f 131/3/2 130/3/2 132/3/2
f 133/3/2 134/3/2 135/3/2
f 135/3/2 134/3/2 136/3/2
f 140/3/3 138/3/3 137/3/3
f 141/3/3 138/3/3 140/3/3
f 142/3/3 138/3/3 141/3/3
f 144/6/3 141/6/3 140/6/3
f 145/2/3 142/2/3 141/2/3
f 145/6/3 141/6/3 144/6/3
f 146/3/3 143/3/3 142/3/3
f 146/2/3 142/2/3 145/2/3
f 147/3/3 143/3/3 146/3/3
f 150/3/3 140/3/3 139/3/3
f 151/6/3 144/6/3 140/6/3
f 151/3/3 140/3/3 150/3/3
f 152/2/3 145/2/3 144/2/3
f 152/6/3 144/6/3 151/6/3
f 152/2/3 146/2/3 145/2/3
f 152/2/3 147/2/3 146/2/3
f 153/2/3 147/2/3 152/2/3
f 154/3/3 148/3/3 147/3/3
f 154/2/3 147/2/3 153/2/3
f 155/3/3 151/3/3 150/3/3
f 155/3/3 150/3/3 149/3/3
f 156/2/3 153/2/3 152/2/3
f 156/3/3 151/3/3 155/3/3
f 156/2/3 152/2/3 151/2/3
f 157/2/3 153/2/3 156/2/3
f 158/5/3 154/5/3 153/5/3
f 158/2/3 153/2/3 157/2/3
f 159/5/3 154/5/3 158/5/3
f 160/3/3 148/3/3 154/3/3
f 160/5/3 154/5/3 159/5/3
f 161/3/3 148/3/3 160/3/3
f 163/2/3 157/2/3 156/2/3
f 163/4/3 156/4/3 155/4/3
f 164/1/3 159/1/3 158/1/3
f 164/2/3 157/2/3 163/2/3
f 164/1/3 158/1/3 157/1/3
f 165/5/3 160/5/3 159/5/3
f 165/1/3 159/1/3 164/1/3
f 166/2/3 161/2/3 160/2/3
f 166/5/3 160/5/3 165/5/3
f 167/3/3 162/3/3 161/3/3
f 167/2/3 161/2/3 166/2/3
f 168/3/3 162/3/3 167/3/3
f 170/3/3 155/3/3 149/3/3
f 170/4/3 163/4/3 155/4/3
f 171/6/3 164/6/3 163/6/3
f 171/4/3 163/4/3 170/4/3
f 172/5/3 165/5/3 164/5/3
f 173/2/3 166/2/3 165/2/3
f 173/5/3 165/5/3 172/5/3
f 173/2/3 167/2/3 166/2/3
f 174/6/3 168/6/3 167/6/3
f 174/2/3 167/2/3 173/2/3
f 175/3/3 169/3/3 168/3/3
f 175/6/3 168/6/3 174/6/3
f 176/3/3 169/3/3 175/3/3
f 179/3/3 170/3/3 149/3/3
f 180/6/3 171/6/3 170/6/3
f 180/3/3 170/3/3 179/3/3
f 181/5/3 172/5/3 164/5/3
f 181/6/3 171/6/3 180/6/3
f 181/6/3 164/6/3 171/6/3
f 182/2/3 174/2/3 173/2/3
f 182/5/3 172/5/3 181/5/3
f 182/2/3 173/2/3 172/2/3
f 182/2/3 176/2/3 175/2/3
f 182/2/3 175/2/3 174/2/3
f 183/2/3 176/2/3 182/2/3
f 184/3/3 177/3/3 176/3/3
f 184/2/3 176/2/3 183/2/3
f 185/3/3 177/3/3 184/3/3
f 186/3/3 177/3/3 185/3/3
f 188/3/3 179/3/3 178/3/3
f 188/4/3 180/4/3 179/4/3
f 189/6/3 181/6/3 180/6/3
f 189/4/3 180/4/3 188/4/3
f 190/2/3 183/2/3 182/2/3
f 190/6/3 181/6/3 189/6/3
f 190/2/3 182/2/3 181/2/3
f 191/2/3 183/2/3 190/2/3
f 192/6/3 184/6/3 183/6/3
f 192/2/3 183/2/3 191/2/3
f 193/2/3 185/2/3 184/2/3
f 193/6/3 184/6/3 192/6/3
f 194/2/3 185/2/3 193/2/3
f 195/6/3 186/6/3 185/6/3
f 195/2/3 185/2/3 194/2/3
f 196/3/3 187/3/3 186/3/3
f 196/6/3 186/6/3 195/6/3
f 197/3/3 187/3/3 196/3/3
f 198/3/3 187/3/3 197/3/3
f 200/6/3 189/6/3 188/6/3
f 200/2/3 191/2/3 190/2/3
f 200/2/3 190/2/3 189/2/3
f 201/2/3 191/2/3 200/2/3
f 202/2/3 191/2/3 201/2/3
f 203/6/3 194/6/3 193/6/3
f 203/2/3 191/2/3 202/2/3
f 203/6/3 192/6/3 191/6/3
f 203/6/3 193/6/3 192/6/3
f 204/6/3 194/6/3 203/6/3
f 205/2/3 195/2/3 194/2/3
f 205/6/3 194/6/3 204/6/3
f 205/2/3 196/2/3 195/2/3
f 206/5/3 197/5/3 196/5/3
f 206/2/3 196/2/3 205/2/3
f 207/2/3 198/2/3 197/2/3
f 207/5/3 197/5/3 206/5/3
f 208/3/3 199/3/3 198/3/3
f 208/2/3 198/2/3 207/2/3
f 209/3/3 199/3/3 208/3/3
f 211/3/3 188/3/3 178/3/3
f 211/6/3 200/6/3 188/6/3
f 212/5/3 201/5/3 200/5/3
f 212/6/3 200/6/3 211/6/3
f 213/2/3 202/2/3 201/2/3
f 213/5/3 201/5/3 212/5/3
f 214/2/3 202/2/3 213/2/3
f 215/6/3 204/6/3 203/6/3
f 215/2/3 202/2/3 214/2/3
f 215/6/3 203/6/3 202/6/3
f 216/2/3 207/2/3 206/2/3
f 216/2/3 206/2/3 205/2/3
f 216/2/3 205/2/3 204/2/3
f 216/5/3 208/5/3 207/5/3
f 217/2/3 209/2/3 208/2/3
f 217/5/3 208/5/3 216/5/3
f 218/3/3 210/3/3 209/3/3
f 218/2/3 209/2/3 217/2/3
f 219/3/3 210/3/3 218/3/3
f 221/2/3 214/2/3 213/2/3
f 221/6/3 215/6/3 214/6/3
f 222/6/3 204/6/3 215/6/3
f 222/6/3 215/6/3 221/6/3
f 223/2/3 217/2/3 216/2/3
f 223/2/3 216/2/3 204/2/3
f 223/2/3 218/2/3 217/2/3
f 224/2/3 218/2/3 223/2/3
f 225/5/3 219/5/3 218/5/3
f 225/2/3 218/2/3 224/2/3
f 226/3/3 220/3/3 219/3/3
f 226/5/3 219/5/3 225/5/3
f 227/3/3 220/3/3 226/3/3
f 229/2/3 221/2/3 213/2/3
f 229/2/3 222/2/3 221/2/3
f 230/6/3 204/6/3 222/6/3
f 230/2/3 222/2/3 229/2/3
f 231/6/3 204/6/3 230/6/3
f 232/2/3 223/2/3 204/2/3
f 232/6/3 204/6/3 231/6/3
f 233/3/3 224/3/3 223/3/3
f 233/2/3 223/2/3 232/2/3
f 234/3/3 224/3/3 233/3/3
f 235/3/3 224/3/3 234/3/3
f 236/2/3 225/2/3 224/2/3
f 236/2/3 227/2/3 226/2/3
f 236/2/3 226/2/3 225/2/3
f 237/3/3 228/3/3 227/3/3
f 237/2/3 227/2/3 236/2/3
f 238/1/3 235/1/3 234/1/3
f 238/3/3 234/3/3 233/3/3
f 238/3/3 233/3/3 232/3/3
f 239/3/3 224/3/3 235/3/3
f 239/1/3 235/1/3 238/1/3
f 240/2/3 236/2/3 224/2/3
f 240/3/3 224/3/3 239/3/3
f 241/3/3 228/3/3 237/3/3
f 241/5/3 237/5/3 236/5/3
f 242/3/3 228/3/3 241/3/3
f 244/5/3 212/5/3 211/5/3
f 244/3/3 211/3/3 178/3/3
f 245/1/3 213/1/3 212/1/3
f 245/5/3 212/5/3 244/5/3
f 246/2/3 229/2/3 213/2/3
f 246/1/3 213/1/3 245/1/3
f 247/3/3 238/3/3 232/3/3
f 247/3/3 239/3/3 238/3/3
f 247/2/3 232/2/3 231/2/3
f 248/3/3 239/3/3 247/3/3
f 249/3/3 239/3/3 248/3/3
f 250/2/3 240/2/3 239/2/3
f 250/3/3 239/3/3 249/3/3
f 251/5/3 241/5/3 236/5/3
f 251/2/3 240/2/3 250/2/3
f 251/2/3 236/2/3 240/2/3
f 252/5/3 241/5/3 251/5/3
f 253/5/3 241/5/3 252/5/3
f 254/2/3 242/2/3 241/2/3
f 254/5/3 241/5/3 253/5/3
f 255/3/3 243/3/3 242/3/3
f 255/2/3 242/2/3 254/2/3
f 256/6/3 231/6/3 230/6/3
f 256/6/3 230/6/3 229/6/3
f 257/2/3 248/2/3 247/2/3
f 257/6/3 231/6/3 256/6/3
f 257/2/3 247/2/3 231/2/3
f 258/3/3 249/3/3 248/3/3
f 258/2/3 248/2/3 257/2/3
f 259/2/3 250/2/3 249/2/3
f 259/3/3 249/3/3 258/3/3
f 259/2/3 252/2/3 251/2/3
f 259/2/3 251/2/3 250/2/3
f 260/3/3 243/3/3 255/3/3
f 260/5/3 255/5/3 254/5/3
f 261/3/3 243/3/3 260/3/3
f 263/3/3 244/3/3 178/3/3
f 264/6/3 245/6/3 244/6/3
f 264/3/3 244/3/3 263/3/3
f 265/5/3 246/5/3 245/5/3
f 265/6/3 245/6/3 264/6/3
f 266/2/3 229/2/3 246/2/3
f 266/5/3 246/5/3 265/5/3
f 267/6/3 256/6/3 229/6/3
f 267/2/3 229/2/3 266/2/3
f 268/6/3 256/6/3 267/6/3
f 269/2/3 258/2/3 257/2/3
f 269/6/3 256/6/3 268/6/3
f 269/2/3 257/2/3 256/2/3
f 269/2/3 259/2/3 258/2/3
f 270/5/3 253/5/3 252/5/3
f 270/2/3 259/2/3 269/2/3
f 270/2/3 252/2/3 259/2/3
f 271/1/3 254/1/3 253/1/3
f 271/5/3 253/5/3 270/5/3
f 272/5/3 260/5/3 254/5/3
f 272/1/3 254/1/3 271/1/3
f 273/6/3 265/6/3 264/6/3
f 273/6/3 268/6/3 267/6/3
f 273/6/3 266/6/3 265/6/3
f 273/6/3 267/6/3 266/6/3
f 274/6/3 268/6/3 273/6/3
f 275/2/3 270/2/3 269/2/3
f 275/2/3 269/2/3 268/2/3
f 275/2/3 271/2/3 270/2/3
f 276/2/3 271/2/3 275/2/3
f 277/5/3 260/5/3 272/5/3
f 277/5/3 272/5/3 271/5/3
f 277/2/3 261/2/3 260/2/3
f 278/3/3 262/3/3 261/3/3
f 278/2/3 261/2/3 277/2/3
f 279/3/3 276/3/3 275/3/3
f 279/2/3 275/2/3 268/2/3
f 280/2/3 271/2/3 276/2/3
f 280/3/3 276/3/3 279/3/3
f 281/2/3 271/2/3 280/2/3
f 282/2/3 279/2/3 268/2/3
f 282/2/3 280/2/3 279/2/3
f 283/3/3 281/3/3 280/3/3
f 283/2/3 280/2/3 282/2/3
f 284/2/3 271/2/3 281/2/3
f 284/3/3 281/3/3 283/3/3
f 285/6/3 268/6/3 274/6/3
f 285/2/3 282/2/3 268/2/3
f 286/2/3 282/2/3 285/2/3
f 287/3/3 283/3/3 282/3/3
f 287/2/3 282/2/3 286/2/3
f 288/2/3 284/2/3 283/2/3
f 288/3/3 283/3/3 287/3/3
f 289/5/3 278/5/3 277/5/3
f 289/5/3 277/5/3 271/5/3
f 290/3/3 262/3/3 278/3/3
f 290/5/3 278/5/3 289/5/3
f 291/4/3 274/4/3 273/4/3
f 292/6/3 286/6/3 285/6/3
f 292/4/3 274/4/3 291/4/3
f 292/6/3 285/6/3 274/6/3
f 293/6/3 286/6/3 292/6/3
f 294/2/3 288/2/3 287/2/3
f 294/6/3 286/6/3 293/6/3
f 294/2/3 287/2/3 286/2/3
f 295/2/3 288/2/3 294/2/3
f 296/2/3 271/2/3 284/2/3
f 296/2/3 288/2/3 295/2/3
f 296/5/3 289/5/3 271/5/3
f 296/2/3 284/2/3 288/2/3
f 297/5/3 289/5/3 296/5/3
f 299/6/3 292/6/3 291/6/3
f 300/6/3 295/6/3 294/6/3
f 300/6/3 294/6/3 293/6/3
f 300/2/3 293/2/3 292/2/3
f 301/6/3 295/6/3 300/6/3
f 302/2/3 296/2/3 295/2/3
f 302/2/3 297/2/3 296/2/3
f 303/2/3 297/2/3 302/2/3
f 304/2/3 290/2/3 289/2/3
f 304/5/3 289/5/3 297/5/3
f 305/3/3 262/3/3 290/3/3
f 305/2/3 290/2/3 304/2/3
f 306/6/3 295/6/3 301/6/3
f 306/2/3 301/2/3 300/2/3
f 307/6/3 295/6/3 306/6/3
f 308/2/3 302/2/3 295/2/3
f 309/3/3 303/3/3 302/3/3
f 309/2/3 302/2/3 308/2/3
f 310/2/3 297/2/3 303/2/3
f 310/3/3 303/3/3 309/3/3
f 311/2/3 297/2/3 310/2/3
f 312/2/3 300/2/3 292/2/3
f 312/2/3 306/2/3 300/2/3
f 312/2/3 307/2/3 306/2/3
f 313/6/3 295/6/3 307/6/3
f 313/2/3 307/2/3 312/2/3
f 314/2/3 308/2/3 295/2/3
f 314/6/3 295/6/3 313/6/3
f 315/3/3 309/3/3 308/3/3
f 315/2/3 308/2/3 314/2/3
f 315/3/3 311/3/3 310/3/3
f 315/3/3 310/3/3 309/3/3
f 316/3/3 311/3/3 315/3/3
f 317/2/3 297/2/3 311/2/3
f 317/3/3 311/3/3 316/3/3
f 318/2/3 297/2/3 317/2/3
f 319/2/3 297/2/3 318/2/3
f 320/5/3 304/5/3 297/5/3
f 320/2/3 297/2/3 319/2/3
f 321/6/3 305/6/3 304/6/3
f 321/5/3 304/5/3 320/5/3
f 322/3/3 262/3/3 305/3/3
f 322/6/3 305/6/3 321/6/3
f 323/3/3 262/3/3 322/3/3
f 324/3/3 299/3/3 298/3/3
f 324/6/3 292/6/3 299/6/3
f 325/2/3 312/2/3 292/2/3
f 325/6/3 292/6/3 324/6/3
f 326/5/3 313/5/3 312/5/3
f 326/2/3 312/2/3 325/2/3
f 327/6/3 314/6/3 313/6/3
f 327/5/3 313/5/3 326/5/3
f 327/6/3 315/6/3 314/6/3
f 328/6/3 315/6/3 327/6/3
f 329/3/3 316/3/3 315/3/3
f 329/6/3 315/6/3 328/6/3
f 330/3/3 316/3/3 329/3/3
f 331/1/3 317/1/3 316/1/3
f 331/3/3 316/3/3 330/3/3
f 332/3/3 318/3/3 317/3/3
f 332/1/3 317/1/3 331/1/3
f 333/2/3 319/2/3 318/2/3
f 333/3/3 318/3/3 332/3/3
f 334/2/3 319/2/3 333/2/3
f 335/5/3 321/5/3 320/5/3
f 335/5/3 320/5/3 319/5/3
f 336/3/3 322/3/3 321/3/3
f 336/5/3 321/5/3 335/5/3
f 337/6/3 326/6/3 325/6/3
f 337/5/3 327/5/3 326/5/3
f 338/5/3 327/5/3 337/5/3
f 339/2/3 328/2/3 327/2/3
f 339/5/3 327/5/3 338/5/3
f 340/6/3 330/6/3 329/6/3
f 340/6/3 329/6/3 328/6/3
f 341/6/3 330/6/3 340/6/3
f 342/3/3 332/3/3 331/3/3
f 342/6/3 330/6/3 341/6/3
f 342/3/3 331/3/3 330/3/3
f 342/3/3 333/3/3 332/3/3
f 343/6/3 334/6/3 333/6/3
f 343/3/3 333/3/3 342/3/3
f 344/2/3 319/2/3 334/2/3
f 344/6/3 334/6/3 343/6/3
f 345/5/3 335/5/3 319/5/3
f 345/2/3 319/2/3 344/2/3
f 346/2/3 336/2/3 335/2/3
f 346/5/3 335/5/3 345/5/3
f 347/3/3 322/3/3 336/3/3
f 347/2/3 336/2/3 346/2/3
f 348/3/3 322/3/3 347/3/3
f 349/5/3 325/5/3 324/5/3
f 349/3/3 324/3/3 298/3/3
f 350/6/3 338/6/3 337/6/3
f 350/5/3 325/5/3 349/5/3
f 350/6/3 337/6/3 325/6/3
f 351/6/3 338/6/3 350/6/3
f 352/6/3 344/6/3 343/6/3
f 352/4/3 341/4/3 340/4/3
f 352/6/3 343/6/3 342/6/3
f 352/6/3 342/6/3 341/6/3
f 352/6/3 345/6/3 344/6/3
f 353/6/3 345/6/3 352/6/3
f 354/6/3 345/6/3 353/6/3
f 355/2/3 346/2/3 345/2/3
f 355/6/3 345/6/3 354/6/3
f 356/3/3 347/3/3 346/3/3
f 356/2/3 346/2/3 355/2/3
f 357/2/3 339/2/3 338/2/3
f 357/6/3 340/6/3 328/6/3
f 357/2/3 328/2/3 339/2/3
f 358/4/3 353/4/3 352/4/3
f 358/6/3 340/6/3 357/6/3
f 358/4/3 352/4/3 340/4/3
f 359/6/3 354/6/3 353/6/3
f 359/4/3 353/4/3 358/4/3
f 360/6/3 354/6/3 359/6/3
f 361/6/3 354/6/3 360/6/3
f 362/2/3 355/2/3 354/2/3
f 362/6/3 354/6/3 361/6/3
f 363/6/3 356/6/3 355/6/3
f 363/2/3 355/2/3 362/2/3
f 364/3/3 347/3/3 356/3/3
f 364/6/3 356/6/3 363/6/3
f 365/3/3 347/3/3 364/3/3
f 366/4/3 351/4/3 350/4/3
f 366/2/3 350/2/3 349/2/3
f 367/6/3 338/6/3 351/6/3
f 367/4/3 351/4/3 366/4/3
f 368/2/3 357/2/3 338/2/3
f 368/6/3 338/6/3 367/6/3
f 369/2/3 357/2/3 368/2/3
f 370/4/3 358/4/3 357/4/3
f 370/2/3 357/2/3 369/2/3
f 370/4/3 359/4/3 358/4/3
f 370/4/3 360/4/3 359/4/3
f 371/6/3 361/6/3 360/6/3
f 372/2/3 363/2/3 362/2/3
f 372/6/3 361/6/3 371/6/3
f 372/2/3 362/2/3 361/2/3
f 373/2/3 363/2/3 372/2/3
f 374/3/3 364/3/3 363/3/3
f 374/2/3 363/2/3 373/2/3
f 375/3/3 364/3/3 374/3/3
f 376/2/3 366/2/3 349/2/3
f 376/3/3 349/3/3 298/3/3
f 377/6/3 367/6/3 366/6/3
f 377/2/3 366/2/3 376/2/3
f 378/2/3 369/2/3 368/2/3
f 378/6/3 367/6/3 377/6/3
f 378/2/3 368/2/3 367/2/3
f 379/4/3 360/4/3 370/4/3
f 379/4/3 370/4/3 369/4/3
f 380/6/3 371/6/3 360/6/3
f 380/4/3 360/4/3 379/4/3
f 381/6/3 371/6/3 380/6/3
f 382/6/3 371/6/3 381/6/3
f 383/2/3 373/2/3 372/2/3
f 383/6/3 371/6/3 382/6/3
f 383/2/3 372/2/3 371/2/3
f 384/2/3 373/2/3 383/2/3
f 385/3/3 374/3/3 373/3/3
f 385/2/3 373/2/3 384/2/3
f 386/3/3 374/3/3 385/3/3
f 387/2/3 369/2/3 378/2/3
f 387/2/3 378/2/3 377/2/3
f 388/4/3 379/4/3 369/4/3
f 388/2/3 369/2/3 387/2/3
f 389/4/3 379/4/3 388/4/3
f 390/4/3 379/4/3 389/4/3
f 391/4/3 379/4/3 390/4/3
f 392/6/3 380/6/3 379/6/3
f 392/4/3 379/4/3 391/4/3
f 393/6/3 382/6/3 381/6/3
f 393/2/3 381/2/3 380/2/3
f 394/2/3 383/2/3 382/2/3
f 394/6/3 382/6/3 393/6/3
f 395/2/3 383/2/3 394/2/3
f 396/6/3 384/6/3 383/6/3
f 396/2/3 383/2/3 395/2/3
f 397/3/3 385/3/3 384/3/3
f 397/6/3 384/6/3 396/6/3
f 398/3/3 385/3/3 397/3/3
f 399/6/3 388/6/3 387/6/3
f 399/4/3 389/4/3 388/4/3
f 400/6/3 390/6/3 389/6/3
f 400/4/3 389/4/3 399/4/3
f 401/4/3 391/4/3 390/4/3
f 402/6/3 392/6/3 391/6/3
f 402/4/3 391/4/3 401/4/3
f 403/6/3 380/6/3 392/6/3
f 403/6/3 392/6/3 402/6/3
f 404/2/3 393/2/3 380/2/3
f 404/6/3 380/6/3 403/6/3
f 404/2/3 394/2/3 393/2/3
f 405/6/3 395/6/3 394/6/3
f 405/2/3 394/2/3 404/2/3
f 406/3/3 396/3/3 395/3/3
f 406/6/3 395/6/3 405/6/3
f 406/3/3 397/3/3 396/3/3
f 407/3/3 397/3/3 406/3/3
f 408/6/3 377/6/3 376/6/3
f 408/3/3 376/3/3 298/3/3
f 409/2/3 387/2/3 377/2/3
f 409/6/3 377/6/3 408/6/3
f 410/2/3 387/2/3 409/2/3
f 411/6/3 400/6/3 399/6/3
f 411/2/3 387/2/3 410/2/3
f 411/6/3 399/6/3 387/6/3
f 412/6/3 390/6/3 400/6/3
f 412/6/3 400/6/3 411/6/3
f 413/4/3 401/4/3 390/4/3
f 413/6/3 390/6/3 412/6/3
f 414/6/3 402/6/3 401/6/3
f 414/4/3 401/4/3 413/4/3
f 415/2/3 403/2/3 402/2/3
f 415/6/3 402/6/3 414/6/3
f 416/3/3 404/3/3 403/3/3
f 416/2/3 403/2/3 415/2/3
f 416/3/3 405/3/3 404/3/3
f 416/3/3 406/3/3 405/3/3
f 417/3/3 406/3/3 416/3/3
f 418/3/3 408/3/3 298/3/3
f 419/4/3 409/4/3 408/4/3
f 419/3/3 408/3/3 418/3/3
f 420/6/3 410/6/3 409/6/3
f 420/4/3 409/4/3 419/4/3
f 421/4/3 411/4/3 410/4/3
f 421/6/3 410/6/3 420/6/3
f 422/6/3 412/6/3 411/6/3
f 422/4/3 411/4/3 421/4/3
f 423/6/3 412/6/3 422/6/3
f 424/4/3 413/4/3 412/4/3
f 424/6/3 412/6/3 423/6/3
f 425/6/3 415/6/3 414/6/3
f 425/4/3 413/4/3 424/4/3
f 425/6/3 414/6/3 413/6/3
f 426/6/3 415/6/3 425/6/3
f 427/3/3 416/3/3 415/3/3
f 427/6/3 415/6/3 426/6/3
f 428/3/3 416/3/3 427/3/3
f 429/4/3 423/4/3 422/4/3
f 429/4/3 421/4/3 420/4/3
f 429/3/3 420/3/3 419/3/3
f 429/4/3 422/4/3 421/4/3
f 430/4/3 423/4/3 429/4/3
f 431/6/3 424/6/3 423/6/3
f 431/4/3 423/4/3 430/4/3
f 432/2/3 425/2/3 424/2/3
f 432/6/3 424/6/3 431/6/3
f 432/2/3 426/2/3 425/2/3
f 433/2/3 426/2/3 432/2/3
f 434/3/3 427/3/3 426/3/3
f 434/2/3 426/2/3 433/2/3
f 435/3/3 427/3/3 434/3/3
f 436/3/3 430/3/3 429/3/3
f 436/3/3 429/3/3 419/3/3
f 437/3/3 430/3/3 436/3/3
f 438/4/3 431/4/3 430/4/3
f 438/3/3 430/3/3 437/3/3
f 438/4/3 432/4/3 431/4/3
f 439/4/3 432/4/3 438/4/3
f 440/4/3 432/4/3 439/4/3
f 441/2/3 433/2/3 432/2/3
f 441/4/3 432/4/3 440/4/3
f 442/3/3 434/3/3 433/3/3
f 442/2/3 433/2/3 441/2/3
f 443/3/3 438/3/3 437/3/3
f 443/2/3 439/2/3 438/2/3
f 444/4/3 440/4/3 439/4/3
f 444/2/3 439/2/3 443/2/3
f 445/2/3 441/2/3 440/2/3
f 445/4/3 440/4/3 444/4/3
f 446/6/3 442/6/3 441/6/3
f 446/2/3 441/2/3 445/2/3
f 447/3/3 434/3/3 442/3/3
f 447/6/3 442/6/3 446/6/3
f 448/3/3 434/3/3 447/3/3
f 449/2/3 446/2/3 445/2/3
f 449/2/3 445/2/3 444/2/3
f 450/3/3 447/3/3 446/3/3
f 450/2/3 446/2/3 449/2/3
f 451/3/3 443/3/3 437/3/3
f 452/6/3 444/6/3 443/6/3
f 452/3/3 443/3/3 451/3/3
f 453/2/3 449/2/3 444/2/3
f 453/6/3 444/6/3 452/6/3
f 454/6/3 450/6/3 449/6/3
f 454/2/3 449/2/3 453/2/3
f 455/3/3 447/3/3 450/3/3
f 455/6/3 450/6/3 454/6/3
f 456/3/3 447/3/3 455/3/3
f 457/3/3 454/3/3 453/3/3
f 457/3/3 455/3/3 454/3/3
f 457/3/3 453/3/3 452/3/3
f 458/3/3 455/3/3 457/3/3
f 459/3/4 460/3/4 462/3/4
f 462/3/4 460/3/4 463/3/4
f 463/3/4 460/3/4 464/3/4
f 462/6/4 463/6/4 466/6/4
f 463/2/4 464/2/4 467/2/4
f 466/6/4 463/6/4 467/6/4
f 464/3/4 465/3/4 468/3/4
f 467/2/4 464/2/4 468/2/4
f 468/3/4 465/3/4 469/3/4
f 461/3/4 462/3/4 472/3/4
f 462/6/4 466/6/4 473/6/4
f 472/3/4 462/3/4 473/3/4
f 466/2/4 467/2/4 474/2/4
f 473/6/4 466/6/4 474/6/4
f 467/2/4 468/2/4 474/2/4
f 468/2/4 469/2/4 474/2/4
f 474/2/4 469/2/4 475/2/4
f 469/3/4 470/3/4 476/3/4
f 475/2/4 469/2/4 476/2/4
f 472/3/4 473/3/4 477/3/4
f 471/3/4 472/3/4 477/3/4
f 474/2/4 475/2/4 478/2/4
f 477/3/4 473/3/4 478/3/4
f 473/2/4 474/2/4 478/2/4
f 478/2/4 475/2/4 479/2/4
f 475/5/4 476/5/4 480/5/4
f 479/2/4 475/2/4 480/2/4
f 480/5/4 476/5/4 481/5/4
f 476/3/4 470/3/4 482/3/4
f 481/5/4 476/5/4 482/5/4
f 482/3/4 470/3/4 483/3/4
f 478/2/4 479/2/4 485/2/4
f 477/4/4 478/4/4 485/4/4
f 480/1/4 481/1/4 486/1/4
f 485/2/4 479/2/4 486/2/4
f 479/1/4 480/1/4 486/1/4
f 481/5/4 482/5/4 487/5/4
f 486/1/4 481/1/4 487/1/4
f 482/2/4 483/2/4 488/2/4
f 487/5/4 482/5/4 488/5/4
f 483/3/4 484/3/4 489/3/4
f 488/2/4 483/2/4 489/2/4
f 489/3/4 484/3/4 490/3/4
f 471/3/4 477/3/4 492/3/4
f 477/4/4 485/4/4 492/4/4
f 485/6/4 486/6/4 493/6/4
f 492/4/4 485/4/4 493/4/4
f 486/5/4 487/5/4 494/5/4
f 487/2/4 488/2/4 495/2/4
f 494/5/4 487/5/4 495/5/4
f 488/2/4 489/2/4 495/2/4
f 489/6/4 490/6/4 496/6/4
f 495/2/4 489/2/4 496/2/4
f 490/3/4 491/3/4 497/3/4
f 496/6/4 490/6/4 497/6/4
f 497/3/4 491/3/4 498/3/4
f 471/3/4 492/3/4 501/3/4
f 492/6/4 493/6/4 502/6/4
f 501/3/4 492/3/4 502/3/4
f 486/5/4 494/5/4 503/5/4
f 502/6/4 493/6/4 503/6/4
f 493/6/4 486/6/4 503/6/4
f 495/2/4 496/2/4 504/2/4
f 503/5/4 494/5/4 504/5/4
f 494/2/4 495/2/4 504/2/4
f 497/2/4 498/2/4 504/2/4
f 496/2/4 497/2/4 504/2/4
f 504/2/4 498/2/4 505/2/4
f 498/3/4 499/3/4 506/3/4
f 505/2/4 498/2/4 506/2/4
f 506/3/4 499/3/4 507/3/4
f 507/3/4 499/3/4 508/3/4
f 500/3/4 501/3/4 510/3/4
f 501/4/4 502/4/4 510/4/4
f 502/6/4 503/6/4 511/6/4
f 510/4/4 502/4/4 511/4/4
f 504/2/4 505/2/4 512/2/4
f 511/6/4 503/6/4 512/6/4
f 503/2/4 504/2/4 512/2/4
f 512/2/4 505/2/4 513/2/4
f 505/6/4 506/6/4 514/6/4
f 513/2/4 505/2/4 514/2/4
f 506/2/4 507/2/4 515/2/4
f 514/6/4 506/6/4 515/6/4
f 515/2/4 507/2/4 516/2/4
f 507/6/4 508/6/4 517/6/4
f 516/2/4 507/2/4 517/2/4
f 508/3/4 509/3/4 518/3/4
f 517/6/4 508/6/4 518/6/4
f 518/3/4 509/3/4 519/3/4
f 519/3/4 509/3/4 520/3/4
f 510/6/4 511/6/4 522/6/4
f 512/2/4 513/2/4 522/2/4
f 511/2/4 512/2/4 522/2/4
f 522/2/4 513/2/4 523/2/4
f 523/2/4 513/2/4 524/2/4
f 515/6/4 516/6/4 525/6/4
f 524/2/4 513/2/4 525/2/4
f 513/6/4 514/6/4 525/6/4
f 514/6/4 515/6/4 525/6/4
f 525/6/4 516/6/4 526/6/4
f 516/2/4 517/2/4 527/2/4
f 526/6/4 516/6/4 527/6/4
f 517/2/4 518/2/4 527/2/4
f 518/5/4 519/5/4 528/5/4
f 527/2/4 518/2/4 528/2/4
f 519/2/4 520/2/4 529/2/4
f 528/5/4 519/5/4 529/5/4
f 520/3/4 521/3/4 530/3/4
f 529/2/4 520/2/4 530/2/4
f 530/3/4 521/3/4 531/3/4
f 500/3/4 510/3/4 533/3/4
f 510/6/4 522/6/4 533/6/4
f 522/5/4 523/5/4 534/5/4
f 533/6/4 522/6/4 534/6/4
f 523/2/4 524/2/4 535/2/4
f 534/5/4 523/5/4 535/5/4
f 535/2/4 524/2/4 536/2/4
f 525/6/4 526/6/4 537/6/4
f 536/2/4 524/2/4 537/2/4
f 524/6/4 525/6/4 537/6/4
f 528/2/4 529/2/4 538/2/4
f 527/2/4 528/2/4 538/2/4
f 526/2/4 527/2/4 538/2/4
f 529/5/4 530/5/4 538/5/4
f 530/2/4 531/2/4 539/2/4
f 538/5/4 530/5/4 539/5/4
f 531/3/4 532/3/4 540/3/4
f 539/2/4 531/2/4 540/2/4
f 540/3/4 532/3/4 541/3/4
f 535/2/4 536/2/4 543/2/4
f 536/6/4 537/6/4 543/6/4
f 537/6/4 526/6/4 544/6/4
f 543/6/4 537/6/4 544/6/4
f 538/2/4 539/2/4 545/2/4
f 526/2/4 538/2/4 545/2/4
f 539/2/4 540/2/4 545/2/4
f 545/2/4 540/2/4 546/2/4
f 540/5/4 541/5/4 547/5/4
f 546/2/4 540/2/4 547/2/4
f 541/3/4 542/3/4 548/3/4
f 547/5/4 541/5/4 548/5/4
f 548/3/4 542/3/4 549/3/4
f 535/2/4 543/2/4 551/2/4
f 543/2/4 544/2/4 551/2/4
f 544/6/4 526/6/4 552/6/4
f 551/2/4 544/2/4 552/2/4
f 552/6/4 526/6/4 553/6/4
f 526/2/4 545/2/4 554/2/4
f 553/6/4 526/6/4 554/6/4
f 545/3/4 546/3/4 555/3/4
f 554/2/4 545/2/4 555/2/4
f 555/3/4 546/3/4 556/3/4
f 556/3/4 546/3/4 557/3/4
f 546/2/4 547/2/4 558/2/4
f 548/2/4 549/2/4 558/2/4
f 547/2/4 548/2/4 558/2/4
f 549/3/4 550/3/4 559/3/4
f 558/2/4 549/2/4 559/2/4
f 556/1/4 557/1/4 560/1/4
f 555/3/4 556/3/4 560/3/4
f 554/3/4 555/3/4 560/3/4
f 557/3/4 546/3/4 561/3/4
f 560/1/4 557/1/4 561/1/4
f 546/2/4 558/2/4 562/2/4
f 561/3/4 546/3/4 562/3/4
f 559/3/4 550/3/4 563/3/4
f 558/5/4 559/5/4 563/5/4
f 563/3/4 550/3/4 564/3/4
f 533/5/4 534/5/4 566/5/4
f 500/3/4 533/3/4 566/3/4
f 534/1/4 535/1/4 567/1/4
f 566/5/4 534/5/4 567/5/4
f 535/2/4 551/2/4 568/2/4
f 567/1/4 535/1/4 568/1/4
f 554/3/4 560/3/4 569/3/4
f 560/3/4 561/3/4 569/3/4
f 553/2/4 554/2/4 569/2/4
f 569/3/4 561/3/4 570/3/4
f 570/3/4 561/3/4 571/3/4
f 561/2/4 562/2/4 572/2/4
f 571/3/4 561/3/4 572/3/4
f 558/5/4 563/5/4 573/5/4
f 572/2/4 562/2/4 573/2/4
f 562/2/4 558/2/4 573/2/4
f 573/5/4 563/5/4 574/5/4
f 574/5/4 563/5/4 575/5/4
f 563/2/4 564/2/4 576/2/4
f 575/5/4 563/5/4 576/5/4
f 564/3/4 565/3/4 577/3/4
f 576/2/4 564/2/4 577/2/4
f 552/6/4 553/6/4 578/6/4
f 551/6/4 552/6/4 578/6/4
f 569/2/4 570/2/4 579/2/4
f 578/6/4 553/6/4 579/6/4
f 553/2/4 569/2/4 579/2/4
f 570/3/4 571/3/4 580/3/4
f 579/2/4 570/2/4 580/2/4
f 571/2/4 572/2/4 581/2/4
f 580/3/4 571/3/4 581/3/4
f 573/2/4 574/2/4 581/2/4
f 572/2/4 573/2/4 581/2/4
f 577/3/4 565/3/4 582/3/4
f 576/5/4 577/5/4 582/5/4
f 582/3/4 565/3/4 583/3/4
f 500/3/4 566/3/4 585/3/4
f 566/6/4 567/6/4 586/6/4
f 585/3/4 566/3/4 586/3/4
f 567/5/4 568/5/4 587/5/4
f 586/6/4 567/6/4 587/6/4
f 568/2/4 551/2/4 588/2/4
f 587/5/4 568/5/4 588/5/4
f 551/6/4 578/6/4 589/6/4
f 588/2/4 551/2/4 589/2/4
f 589/6/4 578/6/4 590/6/4
f 579/2/4 580/2/4 591/2/4
f 590/6/4 578/6/4 591/6/4
f 578/2/4 579/2/4 591/2/4
f 580/2/4 581/2/4 591/2/4
f 574/5/4 575/5/4 592/5/4
f 591/2/4 581/2/4 592/2/4
f 581/2/4 574/2/4 592/2/4
f 575/1/4 576/1/4 593/1/4
f 592/5/4 575/5/4 593/5/4
f 576/5/4 582/5/4 594/5/4
f 593/1/4 576/1/4 594/1/4
f 586/6/4 587/6/4 595/6/4
f 589/6/4 590/6/4 595/6/4
f 587/6/4 588/6/4 595/6/4
f 588/6/4 589/6/4 595/6/4
f 595/6/4 590/6/4 596/6/4
f 591/2/4 592/2/4 597/2/4
f 590/2/4 591/2/4 597/2/4
f 592/2/4 593/2/4 597/2/4
f 597/2/4 593/2/4 598/2/4
f 594/5/4 582/5/4 599/5/4
f 593/5/4 594/5/4 599/5/4
f 582/2/4 583/2/4 599/2/4
f 583/3/4 584/3/4 600/3/4
f 599/2/4 583/2/4 600/2/4
f 597/3/4 598/3/4 601/3/4
f 590/2/4 597/2/4 601/2/4
f 598/2/4 593/2/4 602/2/4
f 601/3/4 598/3/4 602/3/4
f 602/2/4 593/2/4 603/2/4
f 590/2/4 601/2/4 604/2/4
f 601/2/4 602/2/4 604/2/4
f 602/3/4 603/3/4 605/3/4
f 604/2/4 602/2/4 605/2/4
f 603/2/4 593/2/4 606/2/4
f 605/3/4 603/3/4 606/3/4
f 596/6/4 590/6/4 607/6/4
f 590/2/4 604/2/4 607/2/4
f 607/2/4 604/2/4 608/2/4
f 604/3/4 605/3/4 609/3/4
f 608/2/4 604/2/4 609/2/4
f 605/2/4 606/2/4 610/2/4
f 609/3/4 605/3/4 610/3/4
f 599/5/4 600/5/4 611/5/4
f 593/5/4 599/5/4 611/5/4
f 600/3/4 584/3/4 612/3/4
f 611/5/4 600/5/4 612/5/4
f 595/4/4 596/4/4 613/4/4
f 607/6/4 608/6/4 614/6/4
f 613/4/4 596/4/4 614/4/4
f 596/6/4 607/6/4 614/6/4
f 614/6/4 608/6/4 615/6/4
f 609/2/4 610/2/4 616/2/4
f 615/6/4 608/6/4 616/6/4
f 608/2/4 609/2/4 616/2/4
f 616/2/4 610/2/4 617/2/4
f 606/2/4 593/2/4 618/2/4
f 617/2/4 610/2/4 618/2/4
f 593/5/4 611/5/4 618/5/4
f 610/2/4 606/2/4 618/2/4
f 618/5/4 611/5/4 619/5/4
f 613/6/4 614/6/4 621/6/4
f 616/6/4 617/6/4 622/6/4
f 615/6/4 616/6/4 622/6/4
f 614/2/4 615/2/4 622/2/4
f 622/6/4 617/6/4 623/6/4
f 617/2/4 618/2/4 624/2/4
f 618/2/4 619/2/4 624/2/4
f 624/2/4 619/2/4 625/2/4
f 611/2/4 612/2/4 626/2/4
f 619/5/4 611/5/4 626/5/4
f 612/3/4 584/3/4 627/3/4
f 626/2/4 612/2/4 627/2/4
f 623/6/4 617/6/4 628/6/4
f 622/2/4 623/2/4 628/2/4
f 628/6/4 617/6/4 629/6/4
f 617/2/4 624/2/4 630/2/4
f 624/3/4 625/3/4 631/3/4
f 630/2/4 624/2/4 631/2/4
f 625/2/4 619/2/4 632/2/4
f 631/3/4 625/3/4 632/3/4
f 632/2/4 619/2/4 633/2/4
f 614/2/4 622/2/4 634/2/4
f 622/2/4 628/2/4 634/2/4
f 628/2/4 629/2/4 634/2/4
f 629/6/4 617/6/4 635/6/4
f 634/2/4 629/2/4 635/2/4
f 617/2/4 630/2/4 636/2/4
f 635/6/4 617/6/4 636/6/4
f 630/3/4 631/3/4 637/3/4
f 636/2/4 630/2/4 637/2/4
f 632/3/4 633/3/4 637/3/4
f 631/3/4 632/3/4 637/3/4
f 637/3/4 633/3/4 638/3/4
f 633/2/4 619/2/4 639/2/4
f 638/3/4 633/3/4 639/3/4
f 639/2/4 619/2/4 640/2/4
f 640/2/4 619/2/4 641/2/4
f 619/5/4 626/5/4 642/5/4
f 641/2/4 619/2/4 642/2/4
f 626/6/4 627/6/4 643/6/4
f 642/5/4 626/5/4 643/5/4
f 627/3/4 584/3/4 644/3/4
f 643/6/4 627/6/4 644/6/4
f 644/3/4 584/3/4 645/3/4
f 620/3/4 621/3/4 646/3/4
f 621/6/4 614/6/4 646/6/4
f 614/2/4 634/2/4 647/2/4
f 646/6/4 614/6/4 647/6/4
f 634/5/4 635/5/4 648/5/4
f 647/2/4 634/2/4 648/2/4
f 635/6/4 636/6/4 649/6/4
f 648/5/4 635/5/4 649/5/4
f 636/6/4 637/6/4 649/6/4
f 649/6/4 637/6/4 650/6/4
f 637/3/4 638/3/4 651/3/4
f 650/6/4 637/6/4 651/6/4
f 651/3/4 638/3/4 652/3/4
f 638/1/4 639/1/4 653/1/4
f 652/3/4 638/3/4 653/3/4
f 639/3/4 640/3/4 654/3/4
f 653/1/4 639/1/4 654/1/4
f 640/2/4 641/2/4 655/2/4
f 654/3/4 640/3/4 655/3/4
f 655/2/4 641/2/4 656/2/4
f 642/5/4 643/5/4 657/5/4
f 641/5/4 642/5/4 657/5/4
f 643/3/4 644/3/4 658/3/4
f 657/5/4 643/5/4 658/5/4
f 647/6/4 648/6/4 659/6/4
f 648/5/4 649/5/4 659/5/4
f 659/5/4 649/5/4 660/5/4
f 649/2/4 650/2/4 661/2/4
f 660/5/4 649/5/4 661/5/4
f 651/6/4 652/6/4 662/6/4
f 650/6/4 651/6/4 662/6/4
f 662/6/4 652/6/4 663/6/4
f 653/3/4 654/3/4 664/3/4
f 663/6/4 652/6/4 664/6/4
f 652/3/4 653/3/4 664/3/4
f 654/3/4 655/3/4 664/3/4
f 655/6/4 656/6/4 665/6/4
f 664/3/4 655/3/4 665/3/4
f 656/2/4 641/2/4 666/2/4
f 665/6/4 656/6/4 666/6/4
f 641/5/4 657/5/4 667/5/4
f 666/2/4 641/2/4 667/2/4
f 657/2/4 658/2/4 668/2/4
f 667/5/4 657/5/4 668/5/4
f 658/3/4 644/3/4 669/3/4
f 668/2/4 658/2/4 669/2/4
f 669/3/4 644/3/4 670/3/4
f 646/5/4 647/5/4 671/5/4
f 620/3/4 646/3/4 671/3/4
f 659/6/4 660/6/4 672/6/4
f 671/5/4 647/5/4 672/5/4
f 647/6/4 659/6/4 672/6/4
f 672/6/4 660/6/4 673/6/4
f 665/6/4 666/6/4 674/6/4
f 662/4/4 663/4/4 674/4/4
f 664/6/4 665/6/4 674/6/4
f 663/6/4 664/6/4 674/6/4
f 666/6/4 667/6/4 674/6/4
f 674/6/4 667/6/4 675/6/4
f 675/6/4 667/6/4 676/6/4
f 667/2/4 668/2/4 677/2/4
f 676/6/4 667/6/4 677/6/4
f 668/3/4 669/3/4 678/3/4
f 677/2/4 668/2/4 678/2/4
f 660/2/4 661/2/4 679/2/4
f 650/6/4 662/6/4 679/6/4
f 661/2/4 650/2/4 679/2/4
f 674/4/4 675/4/4 680/4/4
f 679/6/4 662/6/4 680/6/4
f 662/4/4 674/4/4 680/4/4
f 675/6/4 676/6/4 681/6/4
f 680/4/4 675/4/4 681/4/4
f 681/6/4 676/6/4 682/6/4
f 682/6/4 676/6/4 683/6/4
f 676/2/4 677/2/4 684/2/4
f 683/6/4 676/6/4 684/6/4
f 677/6/4 678/6/4 685/6/4
f 684/2/4 677/2/4 685/2/4
f 678/3/4 669/3/4 686/3/4
f 685/6/4 678/6/4 686/6/4
f 686/3/4 669/3/4 687/3/4
f 672/4/4 673/4/4 688/4/4
f 671/2/4 672/2/4 688/2/4
f 673/6/4 660/6/4 689/6/4
f 688/4/4 673/4/4 689/4/4
f 660/2/4 679/2/4 690/2/4
f 689/6/4 660/6/4 690/6/4
f 690/2/4 679/2/4 691/2/4
f 679/4/4 680/4/4 692/4/4
f 691/2/4 679/2/4 692/2/4
f 680/4/4 681/4/4 692/4/4
f 681/4/4 682/4/4 692/4/4
f 682/6/4 683/6/4 693/6/4
f 684/2/4 685/2/4 694/2/4
f 693/6/4 683/6/4 694/6/4
f 683/2/4 684/2/4 694/2/4
f 694/2/4 685/2/4 695/2/4
f 685/3/4 686/3/4 696/3/4
f 695/2/4 685/2/4 696/2/4
f 696/3/4 686/3/4 697/3/4
f 671/2/4 688/2/4 698/2/4
f 620/3/4 671/3/4 698/3/4
f 688/6/4 689/6/4 699/6/4
f 698/2/4 688/2/4 699/2/4
f 690/2/4 691/2/4 700/2/4
f 699/6/4 689/6/4 700/6/4
f 689/2/4 690/2/4 700/2/4
f 692/4/4 682/4/4 701/4/4
f 691/4/4 692/4/4 701/4/4
f 682/6/4 693/6/4 702/6/4
f 701/4/4 682/4/4 702/4/4
f 702/6/4 693/6/4 703/6/4
f 703/6/4 693/6/4 704/6/4
f 694/2/4 695/2/4 705/2/4
f 704/6/4 693/6/4 705/6/4
f 693/2/4 694/2/4 705/2/4
f 705/2/4 695/2/4 706/2/4
f 695/3/4 696/3/4 707/3/4
f 706/2/4 695/2/4 707/2/4
f 707/3/4 696/3/4 708/3/4
f 700/2/4 691/2/4 709/2/4
f 699/2/4 700/2/4 709/2/4
f 691/4/4 701/4/4 710/4/4
f 709/2/4 691/2/4 710/2/4
f 710/4/4 701/4/4 711/4/4
f 711/4/4 701/4/4 712/4/4
f 712/4/4 701/4/4 713/4/4
f 701/6/4 702/6/4 714/6/4
f 713/4/4 701/4/4 714/4/4
f 703/6/4 704/6/4 715/6/4
f 702/2/4 703/2/4 715/2/4
f 704/2/4 705/2/4 716/2/4
f 715/6/4 704/6/4 716/6/4
f 716/2/4 705/2/4 717/2/4
f 705/6/4 706/6/4 718/6/4
f 717/2/4 705/2/4 718/2/4
f 706/3/4 707/3/4 719/3/4
f 718/6/4 706/6/4 719/6/4
f 719/3/4 707/3/4 720/3/4
f 709/6/4 710/6/4 721/6/4
f 710/4/4 711/4/4 721/4/4
f 711/6/4 712/6/4 722/6/4
f 721/4/4 711/4/4 722/4/4
f 712/4/4 713/4/4 723/4/4
f 713/6/4 714/6/4 724/6/4
f 723/4/4 713/4/4 724/4/4
f 714/6/4 702/6/4 725/6/4
f 724/6/4 714/6/4 725/6/4
f 702/2/4 715/2/4 726/2/4
f 725/6/4 702/6/4 726/6/4
f 715/2/4 716/2/4 726/2/4
f 716/6/4 717/6/4 727/6/4
f 726/2/4 716/2/4 727/2/4
f 717/3/4 718/3/4 728/3/4
f 727/6/4 717/6/4 728/6/4
f 718/3/4 719/3/4 728/3/4
f 728/3/4 719/3/4 729/3/4
f 698/6/4 699/6/4 730/6/4
f 620/3/4 698/3/4 730/3/4
f 699/2/4 709/2/4 731/2/4
f 730/6/4 699/6/4 731/6/4
f 731/2/4 709/2/4 732/2/4
f 721/6/4 722/6/4 733/6/4
f 732/2/4 709/2/4 733/2/4
f 709/6/4 721/6/4 733/6/4
f 722/6/4 712/6/4 734/6/4
f 733/6/4 722/6/4 734/6/4
f 712/4/4 723/4/4 735/4/4
f 734/6/4 712/6/4 735/6/4
f 723/6/4 724/6/4 736/6/4
f 735/4/4 723/4/4 736/4/4
f 724/2/4 725/2/4 737/2/4
f 736/6/4 724/6/4 737/6/4
f 725/3/4 726/3/4 738/3/4
f 737/2/4 725/2/4 738/2/4
f 726/3/4 727/3/4 738/3/4
f 727/3/4 728/3/4 738/3/4
f 738/3/4 728/3/4 739/3/4
f 620/3/4 730/3/4 740/3/4
f 730/4/4 731/4/4 741/4/4
f 740/3/4 730/3/4 741/3/4
f 731/6/4 732/6/4 742/6/4
f 741/4/4 731/4/4 742/4/4
f 732/4/4 733/4/4 743/4/4
f 742/6/4 732/6/4 743/6/4
f 733/6/4 734/6/4 744/6/4
f 743/4/4 733/4/4 744/4/4
f 744/6/4 734/6/4 745/6/4
f 734/4/4 735/4/4 746/4/4
f 745/6/4 734/6/4 746/6/4
f 736/6/4 737/6/4 747/6/4
f 746/4/4 735/4/4 747/4/4
f 735/6/4 736/6/4 747/6/4
f 747/6/4 737/6/4 748/6/4
f 737/3/4 738/3/4 749/3/4
f 748/6/4 737/6/4 749/6/4
f 749/3/4 738/3/4 750/3/4
f 744/4/4 745/4/4 751/4/4
f 742/4/4 743/4/4 751/4/4
f 741/3/4 742/3/4 751/3/4
f 743/4/4 744/4/4 751/4/4
f 751/4/4 745/4/4 752/4/4
f 745/6/4 746/6/4 753/6/4
f 752/4/4 745/4/4 753/4/4
f 746/2/4 747/2/4 754/2/4
f 753/6/4 746/6/4 754/6/4
f 747/2/4 748/2/4 754/2/4
f 754/2/4 748/2/4 755/2/4
f 748/3/4 749/3/4 756/3/4
f 755/2/4 748/2/4 756/2/4
f 756/3/4 749/3/4 757/3/4
f 751/3/4 752/3/4 758/3/4
f 741/3/4 751/3/4 758/3/4
f 758/3/4 752/3/4 759/3/4
f 752/4/4 753/4/4 760/4/4
f 759/3/4 752/3/4 760/3/4
f 753/4/4 754/4/4 760/4/4
f 760/4/4 754/4/4 761/4/4
f 761/4/4 754/4/4 762/4/4
f 754/2/4 755/2/4 763/2/4
f 762/4/4 754/4/4 763/4/4
f 755/3/4 756/3/4 764/3/4
f 763/2/4 755/2/4 764/2/4
f 759/3/4 760/3/4 765/3/4
f 760/2/4 761/2/4 765/2/4
f 761/4/4 762/4/4 766/4/4
f 765/2/4 761/2/4 766/2/4
f 762/2/4 763/2/4 767/2/4
f 766/4/4 762/4/4 767/4/4
f 763/6/4 764/6/4 768/6/4
f 767/2/4 763/2/4 768/2/4
f 764/3/4 756/3/4 769/3/4
f 768/6/4 764/6/4 769/6/4
f 769/3/4 756/3/4 770/3/4
f 767/2/4 768/2/4 771/2/4
f 766/2/4 767/2/4 771/2/4
f 768/3/4 769/3/4 772/3/4
f 771/2/4 768/2/4 772/2/4
f 759/3/4 765/3/4 773/3/4
f 765/6/4 766/6/4 774/6/4
f 773/3/4 765/3/4 774/3/4
f 766/2/4 771/2/4 775/2/4
f 774/6/4 766/6/4 775/6/4
f 771/6/4 772/6/4 776/6/4
f 775/2/4 771/2/4 776/2/4
f 772/3/4 769/3/4 777/3/4
f 776/6/4 772/6/4 777/6/4
f 777/3/4 769/3/4 778/3/4
f 775/3/4 776/3/4 779/3/4
f 776/3/4 777/3/4 779/3/4
f 774/3/4 775/3/4 779/3/4
f 779/3/4 777/3/4 780/3/4
f 785/3/5 782/3/5 781/3/5
f 786/3/5 782/3/5 785/3/5
f 787/3/5 784/3/5 783/3/5
f 788/3/5 784/3/5 787/3/5
f 797/3/5 790/3/5 789/3/5
f 798/3/5 790/3/5 797/3/5
f 799/6/5 792/6/5 791/6/5
f 800/4/5 793/4/5 792/4/5
f 800/6/5 792/6/5 799/6/5
f 801/6/5 794/6/5 793/6/5
f 801/4/5 793/4/5 800/4/5
f 802/6/5 794/6/5 801/6/5
f 803/3/5 796/3/5 795/3/5
f 804/3/5 796/3/5 803/3/5
f 809/3/5 806/3/5 805/3/5
f 810/3/5 806/3/5 809/3/5
f 811/3/5 808/3/5 807/3/5
f 812/3/5 808/3/5 811/3/5
f 817/3/5 814/3/5 813/3/5
f 818/3/5 814/3/5 817/3/5
f 819/3/5 816/3/5 815/3/5
f 820/3/5 816/3/5 819/3/5
f 821/3/6 822/3/6 825/3/6
f 825/3/6 822/3/6 826/3/6
f 823/3/6 824/3/6 827/3/6
f 827/3/6 824/3/6 828/3/6
f 829/3/6 830/3/6 833/3/6
f 833/3/6 830/3/6 834/3/6
f 831/3/6 832/3/6 835/3/6
f 835/3/6 832/3/6 836/3/6
f 837/3/6 838/3/6 841/3/6
f 841/3/6 838/3/6 842/3/6
f 839/3/6 840/3/6 843/3/6
f 843/3/6 840/3/6 844/3/6
f 845/3/6 846/3/6 849/3/6
f 849/3/6 846/3/6 850/3/6
f 847/3/6 848/3/6 851/3/6
f 851/3/6 848/3/6 852/3/6
f 853/3/6 854/3/6 857/3/6
f 857/3/6 854/3/6 858/3/6
f 855/3/6 856/3/6 859/3/6
f 859/3/6 856/3/6 860/3/6
f 861/3/6 862/3/6 863/3/6
f 863/3/6 862/3/6 864/3/6
f 865/3/6 866/3/6 867/3/6
f 867/3/6 866/3/6 868/3/6
f 869/3/6 870/3/6 873/3/6
f 873/3/6 870/3/6 874/3/6
f 871/3/6 872/3/6 875/3/6
f 875/3/6 872/3/6 876/3/6
f 877/3/6 878/3/6 881/3/6
f 881/3/6 878/3/6 882/3/6
f 879/3/6 880/3/6 883/3/6
f 883/3/6 880/3/6 884/3/6
f 885/3/6 886/3/6 889/3/6
f 889/3/6 886/3/6 890/3/6
f 887/3/6 888/3/6 891/3/6
f 891/3/6 888/3/6 892/3/6
f 893/3/6 894/3/6 897/3/6
f 897/3/6 894/3/6 898/3/6
f 895/3/6 896/3/6 899/3/6
f 899/3/6 896/3/6 900/3/6
f 901/3/6 902/3/6 905/3/6
f 905/3/6 902/3/6 906/3/6
f 903/3/6 904/3/6 907/3/6
f 907/3/6 904/3/6 908/3/6
f 909/3/6 910/3/6 913/3/6
f 913/3/6 910/3/6 914/3/6
f 911/3/6 912/3/6 915/3/6
f 915/3/6 912/3/6 916/3/6
f 917/3/6 918/3/6 919/3/6
f 919/3/6 918/3/6 920/3/6
