# MagicaVoxel @ Ephtracy

# group
o 

# material
mtllib Slime_Idle_02.mtl
usemtl palette

# normals
vn -1 0 0
vn 1 0 0
vn 0 0 1
vn 0 0 -1
vn 0 -1 0
vn 0 1 0

# texcoords
vt 0.0214844 0.5
vt 0.0253906 0.5
vt 0.0292969 0.5
vt 0.0527344 0.5
vt 0.0566406 0.5
vt 0.0605469 0.5

# verts
v -2 0.4 0.1
v -2 0.4 -0.1
v -2 0.6 0.1
v -2 0.6 -0.1
v -1.9 0.3 0.1
v -1.9 0.3 -0.1
v -1.9 0.4 0.1
v -1.9 0.4 -0.1
v -1.9 0.6 0.1
v -1.9 0.6 -0.1
v -1.9 0.7 0.1
v -1.9 0.7 -0.1
v -1.8 0.7 0.1
v -1.8 0.7 -0.1
v -1.8 0.8 0.1
v -1.8 0.8 -0.1
v -1.7 0.2 0.1
v -1.7 0.2 -0.1
v -1.7 0.3 0.1
v -1.7 0.3 -0.1
v -1.6 0.8 0.1
v -1.6 0.8 -0.1
v -1.6 0.9 0.1
v -1.6 0.9 -0.1
v -1.5 0.9 0.1
v -1.5 0.9 -0.1
v -1.5 1.1 0.1
v -1.5 1.1 -0.1
v -1.4 0.1 0.1
v -1.4 0.1 -0.1
v -1.4 0.2 0.1
v -1.4 0.2 -0.1
v -1.4 1.1 0.1
v -1.4 1.1 -0.1
v -1.4 1.4 0.1
v -1.4 1.4 -0.1
v -1.3 1.4 0.1
v -1.3 1.4 -0.1
v -1.3 1.6 0.1
v -1.3 1.6 -0.1
v -1.2 0 0.1
v -1.2 0 -0.1
v -1.2 0.1 0.1
v -1.2 0.1 -0.1
v -1.2 1.6 0.1
v -1.2 1.6 -0.1
v -1.2 1.7 0.1
v -1.2 1.7 -0.1
v -1.1 1.7 0.1
v -1.1 1.7 -0.1
v -1.1 1.8 0.1
v -1.1 1.8 -0.1
v -1 1.8 0.1
v -1 1.8 -0.1
v -1 1.9 0.1
v -1 1.9 -0.1
v -0.9 1.9 0.1
v -0.9 1.9 -0.1
v -0.9 2 0.1
v -0.9 2 -0.1
v -0.7 2 0.1
v -0.7 2 -0.1
v -0.7 2.1 0.1
v -0.7 2.1 -0.1
v -0.5 2.1 0.1
v -0.5 2.1 -0.1
v -0.5 2.2 0.1
v -0.5 2.2 -0.1
v 0.2 0 0.1
v 0.2 0 -0.1
v 0.2 0.1 0.1
v 0.2 0.1 -0.1
v -0.4 0 0.1
v -0.4 0 -0.1
v -0.4 0.1 0.1
v -0.4 0.1 -0.1
v 0.4 2.1 0.1
v 0.4 2.1 -0.1
v 0.4 2.2 0.1
v 0.4 2.2 -0.1
v 0.6 2 0.1
v 0.6 2 -0.1
v 0.6 2.1 0.1
v 0.6 2.1 -0.1
v 0.8 1.9 0.1
v 0.8 1.9 -0.1
v 0.8 2 0.1
v 0.8 2 -0.1
v 0.9 1.8 0.1
v 0.9 1.8 -0.1
v 0.9 1.9 0.1
v 0.9 1.9 -0.1
v 1 1.7 0.1
v 1 1.7 -0.1
v 1 1.8 0.1
v 1 1.8 -0.1
v 1.1 1.6 0.1
v 1.1 1.6 -0.1
v 1.1 1.7 0.1
v 1.1 1.7 -0.1
v 1.2 0 0.1
v 1.2 0 -0.1
v 1.2 0.1 0.1
v 1.2 0.1 -0.1
v 1.2 1.5 0.1
v 1.2 1.5 -0.1
v 1.2 1.6 0.1
v 1.2 1.6 -0.1
v 1.3 1.1 0.1
v 1.3 1.1 -0.1
v 1.3 1.5 0.1
v 1.3 1.5 -0.1
v 1.4 0.1 0.1
v 1.4 0.1 -0.1
v 1.4 0.2 0.1
v 1.4 0.2 -0.1
v 1.4 0.9 0.1
v 1.4 0.9 -0.1
v 1.4 1.1 0.1
v 1.4 1.1 -0.1
v 1.5 0.8 0.1
v 1.5 0.8 -0.1
v 1.5 0.9 0.1
v 1.5 0.9 -0.1
v 1.6 0.2 0.1
v 1.6 0.2 -0.1
v 1.6 0.3 0.1
v 1.6 0.3 -0.1
v 1.7 0.7 0.1
v 1.7 0.7 -0.1
v 1.7 0.8 0.1
v 1.7 0.8 -0.1
v 1.9 0.3 0.1
v 1.9 0.3 -0.1
v 1.9 0.4 0.1
v 1.9 0.4 -0.1
v 1.9 0.6 0.1
v 1.9 0.6 -0.1
v 1.9 0.7 0.1
v 1.9 0.7 -0.1
v 2 0.4 0.1
v 2 0.4 -0.1
v 2 0.6 0.1
v 2 0.6 -0.1
v -2 0.4 0.1
v -2 0.6 0.1
v -1.9 0.3 0.1
v -1.9 0.4 0.1
v -1.9 0.5 0.1
v -1.9 0.6 0.1
v -1.9 0.7 0.1
v -1.8 0.4 0.1
v -1.8 0.5 0.1
v -1.8 0.6 0.1
v -1.8 0.7 0.1
v -1.8 0.8 0.1
v -1.7 0.2 0.1
v -1.7 0.3 0.1
v -1.7 0.5 0.1
v -1.7 0.7 0.1
v -1.6 0.3 0.1
v -1.6 0.4 0.1
v -1.6 0.5 0.1
v -1.6 0.6 0.1
v -1.6 0.7 0.1
v -1.6 0.8 0.1
v -1.6 0.9 0.1
v -1.5 0.4 0.1
v -1.5 0.5 0.1
v -1.5 0.6 0.1
v -1.5 0.7 0.1
v -1.5 0.8 0.1
v -1.5 0.9 0.1
v -1.5 1.1 0.1
v -1.4 0.1 0.1
v -1.4 0.2 0.1
v -1.4 0.3 0.1
v -1.4 0.4 0.1
v -1.4 0.5 0.1
v -1.4 0.6 0.1
v -1.4 0.8 0.1
v -1.4 0.9 0.1
v -1.4 1 0.1
v -1.4 1.1 0.1
v -1.4 1.4 0.1
v -1.3 0.2 0.1
v -1.3 0.3 0.1
v -1.3 0.4 0.1
v -1.3 0.5 0.1
v -1.3 0.7 0.1
v -1.3 1 0.1
v -1.3 1.1 0.1
v -1.3 1.3 0.1
v -1.3 1.4 0.1
v -1.3 1.6 0.1
v -1.2 0 0.1
v -1.2 0.1 0.1
v -1.2 0.2 0.1
v -1.2 0.3 0.1
v -1.2 0.4 0.1
v -1.2 0.6 0.1
v -1.2 0.7 0.1
v -1.2 1 0.1
v -1.2 1.2 0.1
v -1.2 1.3 0.1
v -1.2 1.4 0.1
v -1.2 1.6 0.1
v -1.2 1.7 0.1
v -1.1 0.3 0.1
v -1.1 0.4 0.1
v -1.1 0.5 0.1
v -1.1 0.6 0.1
v -1.1 1.1 0.1
v -1.1 1.2 0.1
v -1.1 1.4 0.1
v -1.1 1.6 0.1
v -1.1 1.7 0.1
v -1.1 1.8 0.1
v -1 0.1 0.1
v -1 0.2 0.1
v -1 0.3 0.1
v -1 0.4 0.1
v -1 0.5 0.1
v -1 1 0.1
v -1 1.1 0.1
v -1 1.6 0.1
v -1 1.7 0.1
v -1 1.8 0.1
v -1 1.9 0.1
v -0.9 1.2 0.1
v -0.9 1.3 0.1
v -0.9 1.6 0.1
v -0.9 1.7 0.1
v -0.9 1.8 0.1
v -0.9 1.9 0.1
v -0.9 2 0.1
v -0.8 0.4 0.1
v -0.8 0.5 0.1
v -0.8 0.9 0.1
v -0.8 1 0.1
v -0.8 1.6 0.1
v -0.8 1.7 0.1
v -0.8 1.8 0.1
v -0.8 1.9 0.1
v -0.7 1.7 0.1
v -0.7 1.8 0.1
v -0.7 1.9 0.1
v -0.7 2 0.1
v -0.7 2.1 0.1
v -0.6 0.2 0.1
v -0.6 0.3 0.1
v -0.6 0.4 0.1
v -0.6 0.5 0.1
v -0.6 1.8 0.1
v -0.6 1.9 0.1
v -0.6 2 0.1
v -0.5 0.1 0.1
v -0.5 0.2 0.1
v -0.5 0.8 0.1
v -0.5 0.9 0.1
v -0.5 1.2 0.1
v -0.5 1.3 0.1
v -0.5 2 0.1
v -0.5 2.1 0.1
v -0.5 2.2 0.1
v -0.4 0 0.1
v -0.4 0.1 0.1
v -0.4 0.2 0.1
v -0.4 0.3 0.1
v -0.4 0.4 0.1
v -0.4 0.7 0.1
v -0.4 0.8 0.1
v -0.4 1.1 0.1
v -0.4 1.2 0.1
v -0.4 1.6 0.1
v -0.4 1.7 0.1
v -0.4 1.9 0.1
v -0.3 0.2 0.1
v -0.3 0.3 0.1
v -0.3 1 0.1
v -0.3 1.1 0.1
v -0.3 1.2 0.1
v -0.3 2 0.1
v -0.3 2.1 0.1
v -0.2 0.4 0.1
v -0.2 0.5 0.1
v -0.2 1.7 0.1
v -0.2 1.8 0.1
v 2.38419e-07 0.4 0.1
v 2.38419e-07 0.5 0.1
v 2.38419e-07 0.7 0.1
v 2.38419e-07 0.8 0.1
v 2.38419e-07 1 0.1
v 2.38419e-07 1.1 0.1
v 2.38419e-07 1.2 0.1
v 2.38419e-07 2 0.1
v 2.38419e-07 2.1 0.1
v 0.1 0.2 0.1
v 0.1 0.3 0.1
v 0.1 0.4 0.1
v 0.1 0.8 0.1
v 0.1 0.9 0.1
v 0.1 1.1 0.1
v 0.1 1.2 0.1
v 0.1 1.8 0.1
v 0.1 1.9 0.1
v 0.2 0 0.1
v 0.2 0.1 0.1
v 0.2 0.2 0.1
v 0.2 1.2 0.1
v 0.2 1.3 0.1
v 0.2 2 0.1
v 0.2 2.1 0.1
v 0.4 0.1 0.1
v 0.4 0.2 0.1
v 0.4 0.4 0.1
v 0.4 0.5 0.1
v 0.4 0.9 0.1
v 0.4 1 0.1
v 0.4 1.8 0.1
v 0.4 1.9 0.1
v 0.4 2 0.1
v 0.4 2.1 0.1
v 0.4 2.2 0.1
v 0.5 0.2 0.1
v 0.5 0.3 0.1
v 0.5 0.4 0.1
v 0.5 0.5 0.1
v 0.5 0.6 0.1
v 0.5 1 0.1
v 0.5 1.2 0.1
v 0.5 1.3 0.1
v 0.5 1.6 0.1
v 0.5 1.9 0.1
v 0.5 2 0.1
v 0.6 0.8 0.1
v 0.6 0.9 0.1
v 0.6 1.2 0.1
v 0.6 1.3 0.1
v 0.6 1.6 0.1
v 0.6 1.7 0.1
v 0.6 1.8 0.1
v 0.6 1.9 0.1
v 0.6 2 0.1
v 0.6 2.1 0.1
v 0.7 0.2 0.1
v 0.7 0.3 0.1
v 0.7 0.4 0.1
v 0.7 0.9 0.1
v 0.7 1 0.1
v 0.7 1.6 0.1
v 0.7 1.7 0.1
v 0.7 1.8 0.1
v 0.7 1.9 0.1
v 0.8 0.6 0.1
v 0.8 0.8 0.1
v 0.8 1 0.1
v 0.8 1.2 0.1
v 0.8 1.7 0.1
v 0.8 1.8 0.1
v 0.8 1.9 0.1
v 0.8 2 0.1
v 0.9 0.1 0.1
v 0.9 0.2 0.1
v 0.9 0.3 0.1
v 0.9 0.4 0.1
v 0.9 0.5 0.1
v 0.9 0.6 0.1
v 0.9 1.6 0.1
v 0.9 1.7 0.1
v 0.9 1.8 0.1
v 0.9 1.9 0.1
v 1 0.2 0.1
v 1 0.3 0.1
v 1 0.4 0.1
v 1 0.5 0.1
v 1 1.1 0.1
v 1 1.2 0.1
v 1 1.3 0.1
v 1 1.4 0.1
v 1 1.6 0.1
v 1 1.7 0.1
v 1 1.8 0.1
v 1.1 0.6 0.1
v 1.1 0.7 0.1
v 1.1 0.9 0.1
v 1.1 1.1 0.1
v 1.1 1.3 0.1
v 1.1 1.4 0.1
v 1.1 1.5 0.1
v 1.1 1.6 0.1
v 1.1 1.7 0.1
v 1.2 0 0.1
v 1.2 0.1 0.1
v 1.2 0.2 0.1
v 1.2 0.5 0.1
v 1.2 0.6 0.1
v 1.2 0.8 0.1
v 1.2 0.9 0.1
v 1.2 1 0.1
v 1.2 1.1 0.1
v 1.2 1.2 0.1
v 1.2 1.4 0.1
v 1.2 1.5 0.1
v 1.2 1.6 0.1
v 1.3 0.2 0.1
v 1.3 0.3 0.1
v 1.3 0.4 0.1
v 1.3 0.6 0.1
v 1.3 0.7 0.1
v 1.3 0.8 0.1
v 1.3 0.9 0.1
v 1.3 1 0.1
v 1.3 1.1 0.1
v 1.3 1.5 0.1
v 1.4 0.1 0.1
v 1.4 0.2 0.1
v 1.4 0.3 0.1
v 1.4 0.4 0.1
v 1.4 0.6 0.1
v 1.4 0.7 0.1
v 1.4 0.8 0.1
v 1.4 0.9 0.1
v 1.4 1.1 0.1
v 1.5 0.3 0.1
v 1.5 0.4 0.1
v 1.5 0.5 0.1
v 1.5 0.6 0.1
v 1.5 0.7 0.1
v 1.5 0.8 0.1
v 1.5 0.9 0.1
v 1.6 0.2 0.1
v 1.6 0.3 0.1
v 1.6 0.4 0.1
v 1.6 0.5 0.1
v 1.6 0.6 0.1
v 1.6 0.7 0.1
v 1.7 0.4 0.1
v 1.7 0.5 0.1
v 1.7 0.6 0.1
v 1.7 0.7 0.1
v 1.7 0.8 0.1
v 1.8 0.5 0.1
v 1.8 0.6 0.1
v 1.9 0.3 0.1
v 1.9 0.4 0.1
v 1.9 0.5 0.1
v 1.9 0.6 0.1
v 1.9 0.7 0.1
v 2 0.4 0.1
v 2 0.6 0.1
v -2 0.4 -0.1
v -2 0.6 -0.1
v -1.9 0.3 -0.1
v -1.9 0.4 -0.1
v -1.9 0.5 -0.1
v -1.9 0.6 -0.1
v -1.9 0.7 -0.1
v -1.8 0.4 -0.1
v -1.8 0.5 -0.1
v -1.8 0.6 -0.1
v -1.8 0.7 -0.1
v -1.8 0.8 -0.1
v -1.7 0.2 -0.1
v -1.7 0.3 -0.1
v -1.7 0.5 -0.1
v -1.7 0.7 -0.1
v -1.6 0.3 -0.1
v -1.6 0.4 -0.1
v -1.6 0.5 -0.1
v -1.6 0.6 -0.1
v -1.6 0.7 -0.1
v -1.6 0.8 -0.1
v -1.6 0.9 -0.1
v -1.5 0.4 -0.1
v -1.5 0.5 -0.1
v -1.5 0.6 -0.1
v -1.5 0.7 -0.1
v -1.5 0.8 -0.1
v -1.5 0.9 -0.1
v -1.5 1.1 -0.1
v -1.4 0.1 -0.1
v -1.4 0.2 -0.1
v -1.4 0.3 -0.1
v -1.4 0.4 -0.1
v -1.4 0.5 -0.1
v -1.4 0.6 -0.1
v -1.4 0.8 -0.1
v -1.4 0.9 -0.1
v -1.4 1 -0.1
v -1.4 1.1 -0.1
v -1.4 1.4 -0.1
v -1.3 0.2 -0.1
v -1.3 0.3 -0.1
v -1.3 0.4 -0.1
v -1.3 0.5 -0.1
v -1.3 0.7 -0.1
v -1.3 1 -0.1
v -1.3 1.1 -0.1
v -1.3 1.3 -0.1
v -1.3 1.4 -0.1
v -1.3 1.6 -0.1
v -1.2 0 -0.1
v -1.2 0.1 -0.1
v -1.2 0.2 -0.1
v -1.2 0.3 -0.1
v -1.2 0.4 -0.1
v -1.2 0.6 -0.1
v -1.2 0.7 -0.1
v -1.2 1 -0.1
v -1.2 1.2 -0.1
v -1.2 1.3 -0.1
v -1.2 1.4 -0.1
v -1.2 1.6 -0.1
v -1.2 1.7 -0.1
v -1.1 0.3 -0.1
v -1.1 0.4 -0.1
v -1.1 0.5 -0.1
v -1.1 0.6 -0.1
v -1.1 1.1 -0.1
v -1.1 1.2 -0.1
v -1.1 1.4 -0.1
v -1.1 1.6 -0.1
v -1.1 1.7 -0.1
v -1.1 1.8 -0.1
v -1 0.1 -0.1
v -1 0.2 -0.1
v -1 0.3 -0.1
v -1 0.4 -0.1
v -1 0.5 -0.1
v -1 1 -0.1
v -1 1.1 -0.1
v -1 1.6 -0.1
v -1 1.7 -0.1
v -1 1.8 -0.1
v -1 1.9 -0.1
v -0.9 1.2 -0.1
v -0.9 1.3 -0.1
v -0.9 1.6 -0.1
v -0.9 1.7 -0.1
v -0.9 1.8 -0.1
v -0.9 1.9 -0.1
v -0.9 2 -0.1
v -0.8 0.4 -0.1
v -0.8 0.5 -0.1
v -0.8 0.9 -0.1
v -0.8 1 -0.1
v -0.8 1.6 -0.1
v -0.8 1.7 -0.1
v -0.8 1.8 -0.1
v -0.8 1.9 -0.1
v -0.7 1.7 -0.1
v -0.7 1.8 -0.1
v -0.7 1.9 -0.1
v -0.7 2 -0.1
v -0.7 2.1 -0.1
v -0.6 0.2 -0.1
v -0.6 0.3 -0.1
v -0.6 0.4 -0.1
v -0.6 0.5 -0.1
v -0.6 1.8 -0.1
v -0.6 1.9 -0.1
v -0.6 2 -0.1
v -0.5 0.1 -0.1
v -0.5 0.2 -0.1
v -0.5 0.8 -0.1
v -0.5 0.9 -0.1
v -0.5 1.2 -0.1
v -0.5 1.3 -0.1
v -0.5 2 -0.1
v -0.5 2.1 -0.1
v -0.5 2.2 -0.1
v -0.4 0 -0.1
v -0.4 0.1 -0.1
v -0.4 0.2 -0.1
v -0.4 0.3 -0.1
v -0.4 0.4 -0.1
v -0.4 0.7 -0.1
v -0.4 0.8 -0.1
v -0.4 1.1 -0.1
v -0.4 1.2 -0.1
v -0.4 1.6 -0.1
v -0.4 1.7 -0.1
v -0.4 1.9 -0.1
v -0.3 0.2 -0.1
v -0.3 0.3 -0.1
v -0.3 1 -0.1
v -0.3 1.1 -0.1
v -0.3 1.2 -0.1
v -0.3 2 -0.1
v -0.3 2.1 -0.1
v -0.2 0.4 -0.1
v -0.2 0.5 -0.1
v -0.2 1.7 -0.1
v -0.2 1.8 -0.1
v 2.38419e-07 0.4 -0.1
v 2.38419e-07 0.5 -0.1
v 2.38419e-07 0.7 -0.1
v 2.38419e-07 0.8 -0.1
v 2.38419e-07 1 -0.1
v 2.38419e-07 1.1 -0.1
v 2.38419e-07 1.2 -0.1
v 2.38419e-07 2 -0.1
v 2.38419e-07 2.1 -0.1
v 0.1 0.2 -0.1
v 0.1 0.3 -0.1
v 0.1 0.4 -0.1
v 0.1 0.8 -0.1
v 0.1 0.9 -0.1
v 0.1 1.1 -0.1
v 0.1 1.2 -0.1
v 0.1 1.8 -0.1
v 0.1 1.9 -0.1
v 0.2 0 -0.1
v 0.2 0.1 -0.1
v 0.2 0.2 -0.1
v 0.2 1.2 -0.1
v 0.2 1.3 -0.1
v 0.2 2 -0.1
v 0.2 2.1 -0.1
v 0.4 0.1 -0.1
v 0.4 0.2 -0.1
v 0.4 0.4 -0.1
v 0.4 0.5 -0.1
v 0.4 0.9 -0.1
v 0.4 1 -0.1
v 0.4 1.8 -0.1
v 0.4 1.9 -0.1
v 0.4 2 -0.1
v 0.4 2.1 -0.1
v 0.4 2.2 -0.1
v 0.5 0.2 -0.1
v 0.5 0.3 -0.1
v 0.5 0.4 -0.1
v 0.5 0.5 -0.1
v 0.5 0.6 -0.1
v 0.5 1 -0.1
v 0.5 1.2 -0.1
v 0.5 1.3 -0.1
v 0.5 1.6 -0.1
v 0.5 1.9 -0.1
v 0.5 2 -0.1
v 0.6 0.8 -0.1
v 0.6 0.9 -0.1
v 0.6 1.2 -0.1
v 0.6 1.3 -0.1
v 0.6 1.6 -0.1
v 0.6 1.7 -0.1
v 0.6 1.8 -0.1
v 0.6 1.9 -0.1
v 0.6 2 -0.1
v 0.6 2.1 -0.1
v 0.7 0.2 -0.1
v 0.7 0.3 -0.1
v 0.7 0.4 -0.1
v 0.7 0.9 -0.1
v 0.7 1 -0.1
v 0.7 1.6 -0.1
v 0.7 1.7 -0.1
v 0.7 1.8 -0.1
v 0.7 1.9 -0.1
v 0.8 0.6 -0.1
v 0.8 0.8 -0.1
v 0.8 1 -0.1
v 0.8 1.2 -0.1
v 0.8 1.7 -0.1
v 0.8 1.8 -0.1
v 0.8 1.9 -0.1
v 0.8 2 -0.1
v 0.9 0.1 -0.1
v 0.9 0.2 -0.1
v 0.9 0.3 -0.1
v 0.9 0.4 -0.1
v 0.9 0.5 -0.1
v 0.9 0.6 -0.1
v 0.9 1.6 -0.1
v 0.9 1.7 -0.1
v 0.9 1.8 -0.1
v 0.9 1.9 -0.1
v 1 0.2 -0.1
v 1 0.3 -0.1
v 1 0.4 -0.1
v 1 0.5 -0.1
v 1 1.1 -0.1
v 1 1.2 -0.1
v 1 1.3 -0.1
v 1 1.4 -0.1
v 1 1.6 -0.1
v 1 1.7 -0.1
v 1 1.8 -0.1
v 1.1 0.6 -0.1
v 1.1 0.7 -0.1
v 1.1 0.9 -0.1
v 1.1 1.1 -0.1
v 1.1 1.3 -0.1
v 1.1 1.4 -0.1
v 1.1 1.5 -0.1
v 1.1 1.6 -0.1
v 1.1 1.7 -0.1
v 1.2 0 -0.1
v 1.2 0.1 -0.1
v 1.2 0.2 -0.1
v 1.2 0.5 -0.1
v 1.2 0.6 -0.1
v 1.2 0.8 -0.1
v 1.2 0.9 -0.1
v 1.2 1 -0.1
v 1.2 1.1 -0.1
v 1.2 1.2 -0.1
v 1.2 1.4 -0.1
v 1.2 1.5 -0.1
v 1.2 1.6 -0.1
v 1.3 0.2 -0.1
v 1.3 0.3 -0.1
v 1.3 0.4 -0.1
v 1.3 0.6 -0.1
v 1.3 0.7 -0.1
v 1.3 0.8 -0.1
v 1.3 0.9 -0.1
v 1.3 1 -0.1
v 1.3 1.1 -0.1
v 1.3 1.5 -0.1
v 1.4 0.1 -0.1
v 1.4 0.2 -0.1
v 1.4 0.3 -0.1
v 1.4 0.4 -0.1
v 1.4 0.6 -0.1
v 1.4 0.7 -0.1
v 1.4 0.8 -0.1
v 1.4 0.9 -0.1
v 1.4 1.1 -0.1
v 1.5 0.3 -0.1
v 1.5 0.4 -0.1
v 1.5 0.5 -0.1
v 1.5 0.6 -0.1
v 1.5 0.7 -0.1
v 1.5 0.8 -0.1
v 1.5 0.9 -0.1
v 1.6 0.2 -0.1
v 1.6 0.3 -0.1
v 1.6 0.4 -0.1
v 1.6 0.5 -0.1
v 1.6 0.6 -0.1
v 1.6 0.7 -0.1
v 1.7 0.4 -0.1
v 1.7 0.5 -0.1
v 1.7 0.6 -0.1
v 1.7 0.7 -0.1
v 1.7 0.8 -0.1
v 1.8 0.5 -0.1
v 1.8 0.6 -0.1
v 1.9 0.3 -0.1
v 1.9 0.4 -0.1
v 1.9 0.5 -0.1
v 1.9 0.6 -0.1
v 1.9 0.7 -0.1
v 2 0.4 -0.1
v 2 0.6 -0.1
v -1.2 0 0.1
v -0.4 0 0.1
v 0.2 0 0.1
v 1.2 0 0.1
v -1.2 0 -0.1
v -0.4 0 -0.1
v 0.2 0 -0.1
v 1.2 0 -0.1
v -1.4 0.1 0.1
v -1.2 0.1 0.1
v -0.4 0.1 0.1
v 0.2 0.1 0.1
v 1.2 0.1 0.1
v 1.4 0.1 0.1
v -1.4 0.1 -0.1
v -1.2 0.1 -0.1
v -0.4 0.1 -0.1
v 0.2 0.1 -0.1
v 1.2 0.1 -0.1
v 1.4 0.1 -0.1
v -1.7 0.2 0.1
v -1.4 0.2 0.1
v 1.4 0.2 0.1
v 1.6 0.2 0.1
v -1.7 0.2 -0.1
v -1.4 0.2 -0.1
v 1.4 0.2 -0.1
v 1.6 0.2 -0.1
v -1.9 0.3 0.1
v -1.7 0.3 0.1
v 1.6 0.3 0.1
v 1.9 0.3 0.1
v -1.9 0.3 -0.1
v -1.7 0.3 -0.1
v 1.6 0.3 -0.1
v 1.9 0.3 -0.1
v -2 0.4 0.1
v -1.9 0.4 0.1
v 1.9 0.4 0.1
v 2 0.4 0.1
v -2 0.4 -0.1
v -1.9 0.4 -0.1
v 1.9 0.4 -0.1
v 2 0.4 -0.1
v -2 0.6 0.1
v -1.9 0.6 0.1
v 1.9 0.6 0.1
v 2 0.6 0.1
v -2 0.6 -0.1
v -1.9 0.6 -0.1
v 1.9 0.6 -0.1
v 2 0.6 -0.1
v -1.9 0.7 0.1
v -1.8 0.7 0.1
v 1.7 0.7 0.1
v 1.9 0.7 0.1
v -1.9 0.7 -0.1
v -1.8 0.7 -0.1
v 1.7 0.7 -0.1
v 1.9 0.7 -0.1
v -1.8 0.8 0.1
v -1.6 0.8 0.1
v 1.5 0.8 0.1
v 1.7 0.8 0.1
v -1.8 0.8 -0.1
v -1.6 0.8 -0.1
v 1.5 0.8 -0.1
v 1.7 0.8 -0.1
v -1.6 0.9 0.1
v -1.5 0.9 0.1
v 1.4 0.9 0.1
v 1.5 0.9 0.1
v -1.6 0.9 -0.1
v -1.5 0.9 -0.1
v 1.4 0.9 -0.1
v 1.5 0.9 -0.1
v -1.5 1.1 0.1
v -1.4 1.1 0.1
v 1.3 1.1 0.1
v 1.4 1.1 0.1
v -1.5 1.1 -0.1
v -1.4 1.1 -0.1
v 1.3 1.1 -0.1
v 1.4 1.1 -0.1
v -1.4 1.4 0.1
v -1.3 1.4 0.1
v -1.4 1.4 -0.1
v -1.3 1.4 -0.1
v 1.2 1.5 0.1
v 1.3 1.5 0.1
v 1.2 1.5 -0.1
v 1.3 1.5 -0.1
v -1.3 1.6 0.1
v -1.2 1.6 0.1
v 1.1 1.6 0.1
v 1.2 1.6 0.1
v -1.3 1.6 -0.1
v -1.2 1.6 -0.1
v 1.1 1.6 -0.1
v 1.2 1.6 -0.1
v -1.2 1.7 0.1
v -1.1 1.7 0.1
v 1 1.7 0.1
v 1.1 1.7 0.1
v -1.2 1.7 -0.1
v -1.1 1.7 -0.1
v 1 1.7 -0.1
v 1.1 1.7 -0.1
v -1.1 1.8 0.1
v -1 1.8 0.1
v 0.9 1.8 0.1
v 1 1.8 0.1
v -1.1 1.8 -0.1
v -1 1.8 -0.1
v 0.9 1.8 -0.1
v 1 1.8 -0.1
v -1 1.9 0.1
v -0.9 1.9 0.1
v 0.8 1.9 0.1
v 0.9 1.9 0.1
v -1 1.9 -0.1
v -0.9 1.9 -0.1
v 0.8 1.9 -0.1
v 0.9 1.9 -0.1
v -0.9 2 0.1
v -0.7 2 0.1
v 0.6 2 0.1
v 0.8 2 0.1
v -0.9 2 -0.1
v -0.7 2 -0.1
v 0.6 2 -0.1
v 0.8 2 -0.1
v -0.7 2.1 0.1
v -0.5 2.1 0.1
v 0.4 2.1 0.1
v 0.6 2.1 0.1
v -0.7 2.1 -0.1
v -0.5 2.1 -0.1
v 0.4 2.1 -0.1
v 0.6 2.1 -0.1
v -0.5 2.2 0.1
v 0.4 2.2 0.1
v -0.5 2.2 -0.1
v 0.4 2.2 -0.1

# faces
f 3/3/1 2/3/1 1/3/1
f 4/3/1 2/3/1 3/3/1
f 7/3/1 6/3/1 5/3/1
f 8/3/1 6/3/1 7/3/1
f 11/3/1 10/3/1 9/3/1
f 12/3/1 10/3/1 11/3/1
f 15/3/1 14/3/1 13/3/1
f 16/3/1 14/3/1 15/3/1
f 19/3/1 18/3/1 17/3/1
f 20/3/1 18/3/1 19/3/1
f 23/3/1 22/3/1 21/3/1
f 24/3/1 22/3/1 23/3/1
f 27/3/1 26/3/1 25/3/1
f 28/3/1 26/3/1 27/3/1
f 31/3/1 30/3/1 29/3/1
f 32/3/1 30/3/1 31/3/1
f 35/3/1 34/3/1 33/3/1
f 36/3/1 34/3/1 35/3/1
f 39/3/1 38/3/1 37/3/1
f 40/3/1 38/3/1 39/3/1
f 43/3/1 42/3/1 41/3/1
f 44/3/1 42/3/1 43/3/1
f 47/3/1 46/3/1 45/3/1
f 48/3/1 46/3/1 47/3/1
f 51/3/1 50/3/1 49/3/1
f 52/3/1 50/3/1 51/3/1
f 55/3/1 54/3/1 53/3/1
f 56/3/1 54/3/1 55/3/1
f 59/3/1 58/3/1 57/3/1
f 60/3/1 58/3/1 59/3/1
f 63/3/1 62/3/1 61/3/1
f 64/3/1 62/3/1 63/3/1
f 67/3/1 66/3/1 65/3/1
f 68/3/1 66/3/1 67/3/1
f 71/3/1 70/3/1 69/3/1
f 72/3/1 70/3/1 71/3/1
f 73/3/2 74/3/2 75/3/2
f 75/3/2 74/3/2 76/3/2
f 77/3/2 78/3/2 79/3/2
f 79/3/2 78/3/2 80/3/2
f 81/3/2 82/3/2 83/3/2
f 83/3/2 82/3/2 84/3/2
f 85/3/2 86/3/2 87/3/2
f 87/3/2 86/3/2 88/3/2
f 89/3/2 90/3/2 91/3/2
f 91/3/2 90/3/2 92/3/2
f 93/3/2 94/3/2 95/3/2
f 95/3/2 94/3/2 96/3/2
f 97/3/2 98/3/2 99/3/2
f 99/3/2 98/3/2 100/3/2
f 101/3/2 102/3/2 103/3/2
f 103/3/2 102/3/2 104/3/2
f 105/3/2 106/3/2 107/3/2
f 107/3/2 106/3/2 108/3/2
f 109/3/2 110/3/2 111/3/2
f 111/3/2 110/3/2 112/3/2
f 113/3/2 114/3/2 115/3/2
f 115/3/2 114/3/2 116/3/2
f 117/3/2 118/3/2 119/3/2
f 119/3/2 118/3/2 120/3/2
f 121/3/2 122/3/2 123/3/2
f 123/3/2 122/3/2 124/3/2
f 125/3/2 126/3/2 127/3/2
f 127/3/2 126/3/2 128/3/2
f 129/3/2 130/3/2 131/3/2
f 131/3/2 130/3/2 132/3/2
f 133/3/2 134/3/2 135/3/2
f 135/3/2 134/3/2 136/3/2
f 137/3/2 138/3/2 139/3/2
f 139/3/2 138/3/2 140/3/2
f 141/3/2 142/3/2 143/3/2
f 143/3/2 142/3/2 144/3/2
f 148/3/3 146/3/3 145/3/3
f 149/3/3 146/3/3 148/3/3
f 150/3/3 146/3/3 149/3/3
f 152/3/3 148/3/3 147/3/3
f 152/4/3 149/4/3 148/4/3
f 153/2/3 150/2/3 149/2/3
f 153/4/3 149/4/3 152/4/3
f 154/3/3 151/3/3 150/3/3
f 154/2/3 150/2/3 153/2/3
f 155/3/3 151/3/3 154/3/3
f 158/3/3 152/3/3 147/3/3
f 159/6/3 153/6/3 152/6/3
f 159/2/3 154/2/3 153/2/3
f 159/2/3 155/2/3 154/2/3
f 160/3/3 156/3/3 155/3/3
f 160/2/3 155/2/3 159/2/3
f 161/3/3 158/3/3 157/3/3
f 161/3/3 152/3/3 158/3/3
f 162/6/3 159/6/3 152/6/3
f 162/3/3 152/3/3 161/3/3
f 163/5/3 160/5/3 159/5/3
f 163/6/3 159/6/3 162/6/3
f 164/5/3 160/5/3 163/5/3
f 165/3/3 156/3/3 160/3/3
f 165/5/3 160/5/3 164/5/3
f 166/3/3 156/3/3 165/3/3
f 168/4/3 162/4/3 161/4/3
f 168/6/3 163/6/3 162/6/3
f 169/1/3 164/1/3 163/1/3
f 169/6/3 163/6/3 168/6/3
f 170/5/3 165/5/3 164/5/3
f 170/1/3 164/1/3 169/1/3
f 171/2/3 166/2/3 165/2/3
f 171/5/3 165/5/3 170/5/3
f 172/3/3 167/3/3 166/3/3
f 172/2/3 166/2/3 171/2/3
f 173/3/3 167/3/3 172/3/3
f 176/3/3 161/3/3 157/3/3
f 177/4/3 168/4/3 161/4/3
f 177/4/3 169/4/3 168/4/3
f 177/3/3 161/3/3 176/3/3
f 178/4/3 169/4/3 177/4/3
f 179/5/3 170/5/3 169/5/3
f 179/4/3 169/4/3 178/4/3
f 180/2/3 171/2/3 170/2/3
f 180/5/3 170/5/3 179/5/3
f 180/2/3 172/2/3 171/2/3
f 181/6/3 173/6/3 172/6/3
f 181/2/3 172/2/3 180/2/3
f 182/3/3 174/3/3 173/3/3
f 182/6/3 173/6/3 181/6/3
f 183/3/3 174/3/3 182/3/3
f 184/3/3 174/3/3 183/3/3
f 186/3/3 176/3/3 175/3/3
f 186/3/3 177/3/3 176/3/3
f 187/6/3 178/6/3 177/6/3
f 187/3/3 177/3/3 186/3/3
f 188/4/3 179/4/3 178/4/3
f 188/6/3 178/6/3 187/6/3
f 189/2/3 181/2/3 180/2/3
f 189/4/3 179/4/3 188/4/3
f 189/2/3 180/2/3 179/2/3
f 189/2/3 183/2/3 182/2/3
f 189/2/3 182/2/3 181/2/3
f 190/2/3 183/2/3 189/2/3
f 191/6/3 184/6/3 183/6/3
f 191/2/3 183/2/3 190/2/3
f 192/3/3 185/3/3 184/3/3
f 192/6/3 184/6/3 191/6/3
f 193/3/3 185/3/3 192/3/3
f 194/3/3 185/3/3 193/3/3
f 197/3/3 186/3/3 175/3/3
f 198/4/3 187/4/3 186/4/3
f 198/3/3 186/3/3 197/3/3
f 199/6/3 188/6/3 187/6/3
f 199/4/3 187/4/3 198/4/3
f 200/2/3 190/2/3 189/2/3
f 200/6/3 188/6/3 199/6/3
f 200/2/3 189/2/3 188/2/3
f 201/2/3 190/2/3 200/2/3
f 202/6/3 191/6/3 190/6/3
f 202/2/3 190/2/3 201/2/3
f 203/2/3 192/2/3 191/2/3
f 203/6/3 191/6/3 202/6/3
f 203/2/3 193/2/3 192/2/3
f 204/2/3 193/2/3 203/2/3
f 205/6/3 194/6/3 193/6/3
f 205/2/3 193/2/3 204/2/3
f 206/3/3 195/3/3 194/3/3
f 206/6/3 194/6/3 205/6/3
f 207/3/3 195/3/3 206/3/3
f 209/2/3 201/2/3 200/2/3
f 209/6/3 199/6/3 198/6/3
f 209/2/3 200/2/3 199/2/3
f 210/2/3 201/2/3 209/2/3
f 211/2/3 201/2/3 210/2/3
f 212/6/3 202/6/3 201/6/3
f 212/2/3 201/2/3 211/2/3
f 212/6/3 204/6/3 203/6/3
f 212/6/3 203/6/3 202/6/3
f 213/6/3 204/6/3 212/6/3
f 214/2/3 205/2/3 204/2/3
f 214/6/3 204/6/3 213/6/3
f 214/2/3 206/2/3 205/2/3
f 215/5/3 207/5/3 206/5/3
f 215/2/3 206/2/3 214/2/3
f 216/3/3 208/3/3 207/3/3
f 216/5/3 207/5/3 215/5/3
f 217/3/3 208/3/3 216/3/3
f 219/4/3 198/4/3 197/4/3
f 219/3/3 197/3/3 196/3/3
f 220/6/3 209/6/3 198/6/3
f 220/4/3 198/4/3 219/4/3
f 221/5/3 210/5/3 209/5/3
f 221/6/3 209/6/3 220/6/3
f 222/2/3 211/2/3 210/2/3
f 222/5/3 210/5/3 221/5/3
f 223/6/3 213/6/3 212/6/3
f 223/2/3 211/2/3 222/2/3
f 223/6/3 212/6/3 211/6/3
f 224/6/3 213/6/3 223/6/3
f 225/2/3 215/2/3 214/2/3
f 225/6/3 213/6/3 224/6/3
f 225/2/3 217/2/3 216/2/3
f 225/2/3 214/2/3 213/2/3
f 225/2/3 216/2/3 215/2/3
f 226/2/3 217/2/3 225/2/3
f 227/3/3 218/3/3 217/3/3
f 227/2/3 217/2/3 226/2/3
f 228/3/3 218/3/3 227/3/3
f 230/2/3 226/2/3 225/2/3
f 230/2/3 225/2/3 224/2/3
f 231/2/3 226/2/3 230/2/3
f 232/5/3 227/5/3 226/5/3
f 232/2/3 226/2/3 231/2/3
f 233/2/3 228/2/3 227/2/3
f 233/5/3 227/5/3 232/5/3
f 234/3/3 229/3/3 228/3/3
f 234/2/3 228/2/3 233/2/3
f 235/3/3 229/3/3 234/3/3
f 237/1/3 223/1/3 222/1/3
f 237/1/3 222/1/3 221/1/3
f 238/6/3 224/6/3 223/6/3
f 238/1/3 223/1/3 237/1/3
f 239/6/3 224/6/3 238/6/3
f 240/2/3 230/2/3 224/2/3
f 240/6/3 224/6/3 239/6/3
f 241/2/3 233/2/3 232/2/3
f 241/2/3 232/2/3 231/2/3
f 242/5/3 234/5/3 233/5/3
f 242/2/3 233/2/3 241/2/3
f 243/2/3 235/2/3 234/2/3
f 243/5/3 234/5/3 242/5/3
f 244/3/3 236/3/3 235/3/3
f 244/2/3 235/2/3 243/2/3
f 245/5/3 243/5/3 242/5/3
f 245/5/3 242/5/3 241/5/3
f 245/5/3 244/5/3 243/5/3
f 246/5/3 244/5/3 245/5/3
f 247/3/3 236/3/3 244/3/3
f 247/5/3 244/5/3 246/5/3
f 248/3/3 236/3/3 247/3/3
f 250/5/3 221/5/3 220/5/3
f 250/6/3 220/6/3 219/6/3
f 251/1/3 237/1/3 221/1/3
f 251/5/3 221/5/3 250/5/3
f 252/5/3 238/5/3 237/5/3
f 252/1/3 237/1/3 251/1/3
f 253/6/3 239/6/3 238/6/3
f 253/5/3 238/5/3 252/5/3
f 254/1/3 246/1/3 245/1/3
f 254/5/3 247/5/3 246/5/3
f 255/2/3 248/2/3 247/2/3
f 255/5/3 247/5/3 254/5/3
f 256/3/3 249/3/3 248/3/3
f 256/2/3 248/2/3 255/2/3
f 257/6/3 250/6/3 219/6/3
f 257/6/3 251/6/3 250/6/3
f 257/3/3 219/3/3 196/3/3
f 258/6/3 251/6/3 257/6/3
f 259/6/3 239/6/3 253/6/3
f 260/2/3 240/2/3 239/2/3
f 260/6/3 239/6/3 259/6/3
f 261/2/3 230/2/3 240/2/3
f 261/2/3 240/2/3 260/2/3
f 261/3/3 231/3/3 230/3/3
f 262/2/3 241/2/3 231/2/3
f 262/3/3 231/3/3 261/3/3
f 263/3/3 249/3/3 256/3/3
f 263/5/3 256/5/3 255/5/3
f 264/3/3 249/3/3 263/3/3
f 266/3/3 257/3/3 196/3/3
f 267/4/3 258/4/3 257/4/3
f 267/3/3 257/3/3 266/3/3
f 268/6/3 251/6/3 258/6/3
f 268/4/3 258/4/3 267/4/3
f 269/5/3 252/5/3 251/5/3
f 269/6/3 251/6/3 268/6/3
f 270/2/3 253/2/3 252/2/3
f 270/5/3 252/5/3 269/5/3
f 271/6/3 259/6/3 253/6/3
f 272/2/3 260/2/3 259/2/3
f 272/6/3 259/6/3 271/6/3
f 272/2/3 262/2/3 261/2/3
f 272/2/3 261/2/3 260/2/3
f 273/2/3 262/2/3 272/2/3
f 274/2/3 262/2/3 273/2/3
f 275/2/3 241/2/3 262/2/3
f 275/2/3 262/2/3 274/2/3
f 275/5/3 245/5/3 241/5/3
f 276/1/3 255/1/3 254/1/3
f 276/5/3 245/5/3 275/5/3
f 276/1/3 254/1/3 245/1/3
f 277/5/3 263/5/3 255/5/3
f 277/1/3 255/1/3 276/1/3
f 278/6/3 270/6/3 269/6/3
f 278/6/3 269/6/3 268/6/3
f 278/3/3 268/3/3 267/3/3
f 279/6/3 270/6/3 278/6/3
f 280/2/3 272/2/3 271/2/3
f 280/2/3 273/2/3 272/2/3
f 281/3/3 274/3/3 273/3/3
f 281/2/3 273/2/3 280/2/3
f 282/2/3 276/2/3 275/2/3
f 282/3/3 274/3/3 281/3/3
f 282/2/3 275/2/3 274/2/3
f 283/5/3 263/5/3 277/5/3
f 283/5/3 277/5/3 276/5/3
f 283/2/3 264/2/3 263/2/3
f 284/3/3 265/3/3 264/3/3
f 284/2/3 264/2/3 283/2/3
f 285/6/3 270/6/3 279/6/3
f 285/2/3 253/2/3 270/2/3
f 286/6/3 271/6/3 253/6/3
f 286/2/3 253/2/3 285/2/3
f 287/2/3 276/2/3 282/2/3
f 287/2/3 282/2/3 281/2/3
f 287/5/3 284/5/3 283/5/3
f 287/5/3 283/5/3 276/5/3
f 288/5/3 284/5/3 287/5/3
f 289/6/3 285/6/3 279/6/3
f 289/6/3 286/6/3 285/6/3
f 290/6/3 271/6/3 286/6/3
f 290/6/3 286/6/3 289/6/3
f 291/2/3 280/2/3 271/2/3
f 291/6/3 271/6/3 290/6/3
f 292/2/3 280/2/3 291/2/3
f 293/3/3 281/3/3 280/3/3
f 293/2/3 280/2/3 292/2/3
f 294/2/3 288/2/3 287/2/3
f 294/3/3 281/3/3 293/3/3
f 294/2/3 287/2/3 281/2/3
f 295/2/3 288/2/3 294/2/3
f 296/5/3 284/5/3 288/5/3
f 297/3/3 265/3/3 284/3/3
f 297/5/3 284/5/3 296/5/3
f 298/3/3 278/3/3 267/3/3
f 298/4/3 279/4/3 278/4/3
f 299/6/3 289/6/3 279/6/3
f 299/4/3 279/4/3 298/4/3
f 300/2/3 290/2/3 289/2/3
f 300/6/3 289/6/3 299/6/3
f 301/2/3 293/2/3 292/2/3
f 301/6/3 292/6/3 291/6/3
f 301/6/3 291/6/3 290/6/3
f 301/2/3 294/2/3 293/2/3
f 302/2/3 294/2/3 301/2/3
f 303/3/3 295/3/3 294/3/3
f 303/2/3 294/2/3 302/2/3
f 304/2/3 288/2/3 295/2/3
f 304/3/3 295/3/3 303/3/3
f 305/5/3 296/5/3 288/5/3
f 305/2/3 288/2/3 304/2/3
f 306/5/3 296/5/3 305/5/3
f 308/3/3 298/3/3 267/3/3
f 309/6/3 299/6/3 298/6/3
f 309/3/3 298/3/3 308/3/3
f 310/2/3 303/2/3 302/2/3
f 310/2/3 304/2/3 303/2/3
f 310/2/3 305/2/3 304/2/3
f 310/2/3 306/2/3 305/2/3
f 311/2/3 306/2/3 310/2/3
f 312/5/3 296/5/3 306/5/3
f 312/2/3 297/2/3 296/2/3
f 313/3/3 265/3/3 297/3/3
f 313/2/3 297/2/3 312/2/3
f 314/3/3 308/3/3 307/3/3
f 314/4/3 309/4/3 308/4/3
f 315/6/3 299/6/3 309/6/3
f 315/4/3 309/4/3 314/4/3
f 316/2/3 290/2/3 300/2/3
f 316/2/3 300/2/3 299/2/3
f 317/6/3 302/6/3 301/6/3
f 317/2/3 290/2/3 316/2/3
f 317/6/3 301/6/3 290/6/3
f 318/2/3 310/2/3 302/2/3
f 318/6/3 302/6/3 317/6/3
f 319/2/3 310/2/3 318/2/3
f 320/2/3 306/2/3 311/2/3
f 321/5/3 312/5/3 306/5/3
f 321/2/3 306/2/3 320/2/3
f 322/6/3 313/6/3 312/6/3
f 322/5/3 312/5/3 321/5/3
f 323/3/3 265/3/3 313/3/3
f 323/6/3 313/6/3 322/6/3
f 324/3/3 265/3/3 323/3/3
f 325/6/3 299/6/3 315/6/3
f 325/6/3 315/6/3 314/6/3
f 326/2/3 316/2/3 299/2/3
f 326/6/3 299/6/3 325/6/3
f 327/6/3 317/6/3 316/6/3
f 327/2/3 316/2/3 326/2/3
f 327/6/3 318/6/3 317/6/3
f 327/6/3 319/6/3 318/6/3
f 328/6/3 319/6/3 327/6/3
f 329/6/3 319/6/3 328/6/3
f 330/2/3 310/2/3 319/2/3
f 330/6/3 319/6/3 329/6/3
f 331/3/3 311/3/3 310/3/3
f 331/2/3 310/2/3 330/2/3
f 332/2/3 320/2/3 311/2/3
f 332/3/3 311/3/3 331/3/3
f 333/2/3 320/2/3 332/2/3
f 334/5/3 322/5/3 321/5/3
f 334/5/3 321/5/3 320/5/3
f 335/3/3 323/3/3 322/3/3
f 335/5/3 322/5/3 334/5/3
f 336/6/3 331/6/3 330/6/3
f 336/6/3 330/6/3 329/6/3
f 337/6/3 331/6/3 336/6/3
f 338/3/3 332/3/3 331/3/3
f 338/6/3 331/6/3 337/6/3
f 339/6/3 333/6/3 332/6/3
f 339/3/3 332/3/3 338/3/3
f 340/2/3 320/2/3 333/2/3
f 340/6/3 333/6/3 339/6/3
f 341/2/3 320/2/3 340/2/3
f 342/5/3 334/5/3 320/5/3
f 342/2/3 320/2/3 341/2/3
f 343/2/3 335/2/3 334/2/3
f 343/5/3 334/5/3 342/5/3
f 344/3/3 323/3/3 335/3/3
f 344/2/3 335/2/3 343/2/3
f 345/3/3 323/3/3 344/3/3
f 346/6/3 325/6/3 314/6/3
f 346/5/3 326/5/3 325/5/3
f 347/6/3 327/6/3 326/6/3
f 347/5/3 326/5/3 346/5/3
f 347/6/3 328/6/3 327/6/3
f 348/6/3 328/6/3 347/6/3
f 349/6/3 339/6/3 338/6/3
f 349/6/3 341/6/3 340/6/3
f 349/6/3 338/6/3 337/6/3
f 349/6/3 340/6/3 339/6/3
f 349/4/3 337/4/3 336/4/3
f 350/6/3 341/6/3 349/6/3
f 351/6/3 341/6/3 350/6/3
f 352/2/3 343/2/3 342/2/3
f 352/6/3 341/6/3 351/6/3
f 352/2/3 342/2/3 341/2/3
f 353/2/3 343/2/3 352/2/3
f 354/3/3 344/3/3 343/3/3
f 354/2/3 343/2/3 353/2/3
f 355/2/3 329/2/3 328/2/3
f 355/6/3 336/6/3 329/6/3
f 356/4/3 350/4/3 349/4/3
f 356/6/3 336/6/3 355/6/3
f 356/4/3 349/4/3 336/4/3
f 357/6/3 351/6/3 350/6/3
f 357/4/3 350/4/3 356/4/3
f 358/6/3 351/6/3 357/6/3
f 359/5/3 353/5/3 352/5/3
f 359/2/3 352/2/3 351/2/3
f 360/6/3 354/6/3 353/6/3
f 360/5/3 353/5/3 359/5/3
f 361/3/3 344/3/3 354/3/3
f 361/6/3 354/6/3 360/6/3
f 362/3/3 344/3/3 361/3/3
f 363/3/3 314/3/3 307/3/3
f 363/6/3 346/6/3 314/6/3
f 364/2/3 347/2/3 346/2/3
f 364/6/3 346/6/3 363/6/3
f 365/4/3 348/4/3 347/4/3
f 365/2/3 347/2/3 364/2/3
f 366/6/3 328/6/3 348/6/3
f 366/4/3 348/4/3 365/4/3
f 367/2/3 355/2/3 328/2/3
f 367/6/3 328/6/3 366/6/3
f 368/4/3 356/4/3 355/4/3
f 368/2/3 355/2/3 367/2/3
f 368/4/3 358/4/3 357/4/3
f 368/4/3 357/4/3 356/4/3
f 369/6/3 351/6/3 358/6/3
f 369/2/3 359/2/3 351/2/3
f 370/6/3 360/6/3 359/6/3
f 370/2/3 359/2/3 369/2/3
f 371/3/3 361/3/3 360/3/3
f 371/6/3 360/6/3 370/6/3
f 372/3/3 361/3/3 371/3/3
f 373/2/3 365/2/3 364/2/3
f 373/4/3 364/4/3 363/4/3
f 374/6/3 366/6/3 365/6/3
f 374/2/3 365/2/3 373/2/3
f 375/4/3 367/4/3 366/4/3
f 375/6/3 366/6/3 374/6/3
f 375/4/3 368/4/3 367/4/3
f 376/4/3 368/4/3 375/4/3
f 377/4/3 358/4/3 368/4/3
f 377/4/3 368/4/3 376/4/3
f 378/6/3 369/6/3 358/6/3
f 378/4/3 358/4/3 377/4/3
f 378/6/3 370/6/3 369/6/3
f 379/6/3 370/6/3 378/6/3
f 380/6/3 370/6/3 379/6/3
f 381/6/3 370/6/3 380/6/3
f 382/3/3 371/3/3 370/3/3
f 382/6/3 370/6/3 381/6/3
f 383/3/3 371/3/3 382/3/3
f 384/4/3 377/4/3 376/4/3
f 385/4/3 377/4/3 384/4/3
f 386/4/3 377/4/3 385/4/3
f 387/6/3 378/6/3 377/6/3
f 387/4/3 377/4/3 386/4/3
f 388/2/3 379/2/3 378/2/3
f 388/6/3 380/6/3 379/6/3
f 389/2/3 381/2/3 380/2/3
f 389/6/3 380/6/3 388/6/3
f 390/2/3 381/2/3 389/2/3
f 391/3/3 382/3/3 381/3/3
f 391/2/3 381/2/3 390/2/3
f 392/3/3 382/3/3 391/3/3
f 393/3/3 363/3/3 307/3/3
f 394/4/3 373/4/3 363/4/3
f 394/3/3 363/3/3 393/3/3
f 395/6/3 374/6/3 373/6/3
f 395/4/3 373/4/3 394/4/3
f 396/2/3 376/2/3 375/2/3
f 396/2/3 375/2/3 374/2/3
f 396/4/3 384/4/3 376/4/3
f 397/6/3 385/6/3 384/6/3
f 397/4/3 384/4/3 396/4/3
f 398/4/3 386/4/3 385/4/3
f 399/6/3 387/6/3 386/6/3
f 399/4/3 386/4/3 398/4/3
f 400/6/3 387/6/3 399/6/3
f 401/6/3 378/6/3 387/6/3
f 401/6/3 387/6/3 400/6/3
f 402/2/3 388/2/3 378/2/3
f 402/6/3 378/6/3 401/6/3
f 402/2/3 389/2/3 388/2/3
f 403/6/3 390/6/3 389/6/3
f 403/2/3 389/2/3 402/2/3
f 404/3/3 391/3/3 390/3/3
f 404/6/3 390/6/3 403/6/3
f 405/3/3 391/3/3 404/3/3
f 406/6/3 374/6/3 395/6/3
f 406/3/3 395/3/3 394/3/3
f 407/2/3 396/2/3 374/2/3
f 407/6/3 374/6/3 406/6/3
f 408/2/3 396/2/3 407/2/3
f 409/6/3 397/6/3 396/6/3
f 409/6/3 385/6/3 397/6/3
f 410/4/3 398/4/3 385/4/3
f 410/6/3 385/6/3 409/6/3
f 411/6/3 399/6/3 398/6/3
f 411/4/3 398/4/3 410/4/3
f 412/2/3 400/2/3 399/2/3
f 412/6/3 399/6/3 411/6/3
f 413/6/3 401/6/3 400/6/3
f 413/2/3 400/2/3 412/2/3
f 414/3/3 404/3/3 403/3/3
f 414/6/3 401/6/3 413/6/3
f 414/3/3 402/3/3 401/3/3
f 414/3/3 403/3/3 402/3/3
f 415/3/3 404/3/3 414/3/3
f 416/3/3 406/3/3 394/3/3
f 417/4/3 407/4/3 406/4/3
f 417/3/3 406/3/3 416/3/3
f 418/6/3 408/6/3 407/6/3
f 418/4/3 407/4/3 417/4/3
f 419/2/3 396/2/3 408/2/3
f 419/6/3 408/6/3 418/6/3
f 420/6/3 409/6/3 396/6/3
f 420/4/3 410/4/3 409/4/3
f 421/6/3 412/6/3 411/6/3
f 421/4/3 410/4/3 420/4/3
f 421/6/3 411/6/3 410/6/3
f 422/6/3 412/6/3 421/6/3
f 423/3/3 413/3/3 412/3/3
f 423/6/3 412/6/3 422/6/3
f 423/3/3 414/3/3 413/3/3
f 424/3/3 414/3/3 423/3/3
f 425/3/3 418/3/3 417/3/3
f 425/4/3 419/4/3 418/4/3
f 426/2/3 396/2/3 419/2/3
f 426/4/3 419/4/3 425/4/3
f 427/6/3 420/6/3 396/6/3
f 427/2/3 396/2/3 426/2/3
f 428/2/3 422/2/3 421/2/3
f 428/6/3 420/6/3 427/6/3
f 428/2/3 421/2/3 420/2/3
f 429/2/3 422/2/3 428/2/3
f 430/3/3 423/3/3 422/3/3
f 430/2/3 422/2/3 429/2/3
f 431/3/3 423/3/3 430/3/3
f 432/3/3 426/3/3 425/3/3
f 432/3/3 425/3/3 417/3/3
f 433/3/3 426/3/3 432/3/3
f 434/2/3 427/2/3 426/2/3
f 434/3/3 426/3/3 433/3/3
f 435/4/3 428/4/3 427/4/3
f 435/2/3 427/2/3 434/2/3
f 436/2/3 429/2/3 428/2/3
f 436/4/3 428/4/3 435/4/3
f 437/3/3 430/3/3 429/3/3
f 437/2/3 429/2/3 436/2/3
f 438/6/3 435/6/3 434/6/3
f 438/3/3 434/3/3 433/3/3
f 439/2/3 436/2/3 435/2/3
f 439/6/3 435/6/3 438/6/3
f 440/6/3 437/6/3 436/6/3
f 440/2/3 436/2/3 439/2/3
f 441/3/3 430/3/3 437/3/3
f 441/6/3 437/6/3 440/6/3
f 442/3/3 430/3/3 441/3/3
f 443/2/3 440/2/3 439/2/3
f 443/4/3 439/4/3 438/4/3
f 444/3/3 441/3/3 440/3/3
f 444/2/3 440/2/3 443/2/3
f 445/3/3 438/3/3 433/3/3
f 446/4/3 443/4/3 438/4/3
f 446/3/3 438/3/3 445/3/3
f 447/6/3 444/6/3 443/6/3
f 447/4/3 443/4/3 446/4/3
f 448/3/3 441/3/3 444/3/3
f 448/6/3 444/6/3 447/6/3
f 449/3/3 441/3/3 448/3/3
f 450/3/3 447/3/3 446/3/3
f 450/3/3 448/3/3 447/3/3
f 451/3/3 448/3/3 450/3/3
f 452/3/4 453/3/4 455/3/4
f 455/3/4 453/3/4 456/3/4
f 456/3/4 453/3/4 457/3/4
f 454/3/4 455/3/4 459/3/4
f 455/4/4 456/4/4 459/4/4
f 456/2/4 457/2/4 460/2/4
f 459/4/4 456/4/4 460/4/4
f 457/3/4 458/3/4 461/3/4
f 460/2/4 457/2/4 461/2/4
f 461/3/4 458/3/4 462/3/4
f 454/3/4 459/3/4 465/3/4
f 459/6/4 460/6/4 466/6/4
f 460/2/4 461/2/4 466/2/4
f 461/2/4 462/2/4 466/2/4
f 462/3/4 463/3/4 467/3/4
f 466/2/4 462/2/4 467/2/4
f 464/3/4 465/3/4 468/3/4
f 465/3/4 459/3/4 468/3/4
f 459/6/4 466/6/4 469/6/4
f 468/3/4 459/3/4 469/3/4
f 466/5/4 467/5/4 470/5/4
f 469/6/4 466/6/4 470/6/4
f 470/5/4 467/5/4 471/5/4
f 467/3/4 463/3/4 472/3/4
f 471/5/4 467/5/4 472/5/4
f 472/3/4 463/3/4 473/3/4
f 468/4/4 469/4/4 475/4/4
f 469/6/4 470/6/4 475/6/4
f 470/1/4 471/1/4 476/1/4
f 475/6/4 470/6/4 476/6/4
f 471/5/4 472/5/4 477/5/4
f 476/1/4 471/1/4 477/1/4
f 472/2/4 473/2/4 478/2/4
f 477/5/4 472/5/4 478/5/4
f 473/3/4 474/3/4 479/3/4
f 478/2/4 473/2/4 479/2/4
f 479/3/4 474/3/4 480/3/4
f 464/3/4 468/3/4 483/3/4
f 468/4/4 475/4/4 484/4/4
f 475/4/4 476/4/4 484/4/4
f 483/3/4 468/3/4 484/3/4
f 484/4/4 476/4/4 485/4/4
f 476/5/4 477/5/4 486/5/4
f 485/4/4 476/4/4 486/4/4
f 477/2/4 478/2/4 487/2/4
f 486/5/4 477/5/4 487/5/4
f 478/2/4 479/2/4 487/2/4
f 479/6/4 480/6/4 488/6/4
f 487/2/4 479/2/4 488/2/4
f 480/3/4 481/3/4 489/3/4
f 488/6/4 480/6/4 489/6/4
f 489/3/4 481/3/4 490/3/4
f 490/3/4 481/3/4 491/3/4
f 482/3/4 483/3/4 493/3/4
f 483/3/4 484/3/4 493/3/4
f 484/6/4 485/6/4 494/6/4
f 493/3/4 484/3/4 494/3/4
f 485/4/4 486/4/4 495/4/4
f 494/6/4 485/6/4 495/6/4
f 487/2/4 488/2/4 496/2/4
f 495/4/4 486/4/4 496/4/4
f 486/2/4 487/2/4 496/2/4
f 489/2/4 490/2/4 496/2/4
f 488/2/4 489/2/4 496/2/4
f 496/2/4 490/2/4 497/2/4
f 490/6/4 491/6/4 498/6/4
f 497/2/4 490/2/4 498/2/4
f 491/3/4 492/3/4 499/3/4
f 498/6/4 491/6/4 499/6/4
f 499/3/4 492/3/4 500/3/4
f 500/3/4 492/3/4 501/3/4
f 482/3/4 493/3/4 504/3/4
f 493/4/4 494/4/4 505/4/4
f 504/3/4 493/3/4 505/3/4
f 494/6/4 495/6/4 506/6/4
f 505/4/4 494/4/4 506/4/4
f 496/2/4 497/2/4 507/2/4
f 506/6/4 495/6/4 507/6/4
f 495/2/4 496/2/4 507/2/4
f 507/2/4 497/2/4 508/2/4
f 497/6/4 498/6/4 509/6/4
f 508/2/4 497/2/4 509/2/4
f 498/2/4 499/2/4 510/2/4
f 509/6/4 498/6/4 510/6/4
f 499/2/4 500/2/4 510/2/4
f 510/2/4 500/2/4 511/2/4
f 500/6/4 501/6/4 512/6/4
f 511/2/4 500/2/4 512/2/4
f 501/3/4 502/3/4 513/3/4
f 512/6/4 501/6/4 513/6/4
f 513/3/4 502/3/4 514/3/4
f 507/2/4 508/2/4 516/2/4
f 505/6/4 506/6/4 516/6/4
f 506/2/4 507/2/4 516/2/4
f 516/2/4 508/2/4 517/2/4
f 517/2/4 508/2/4 518/2/4
f 508/6/4 509/6/4 519/6/4
f 518/2/4 508/2/4 519/2/4
f 510/6/4 511/6/4 519/6/4
f 509/6/4 510/6/4 519/6/4
f 519/6/4 511/6/4 520/6/4
f 511/2/4 512/2/4 521/2/4
f 520/6/4 511/6/4 521/6/4
f 512/2/4 513/2/4 521/2/4
f 513/5/4 514/5/4 522/5/4
f 521/2/4 513/2/4 522/2/4
f 514/3/4 515/3/4 523/3/4
f 522/5/4 514/5/4 523/5/4
f 523/3/4 515/3/4 524/3/4
f 504/4/4 505/4/4 526/4/4
f 503/3/4 504/3/4 526/3/4
f 505/6/4 516/6/4 527/6/4
f 526/4/4 505/4/4 527/4/4
f 516/5/4 517/5/4 528/5/4
f 527/6/4 516/6/4 528/6/4
f 517/2/4 518/2/4 529/2/4
f 528/5/4 517/5/4 529/5/4
f 519/6/4 520/6/4 530/6/4
f 529/2/4 518/2/4 530/2/4
f 518/6/4 519/6/4 530/6/4
f 530/6/4 520/6/4 531/6/4
f 521/2/4 522/2/4 532/2/4
f 531/6/4 520/6/4 532/6/4
f 523/2/4 524/2/4 532/2/4
f 520/2/4 521/2/4 532/2/4
f 522/2/4 523/2/4 532/2/4
f 532/2/4 524/2/4 533/2/4
f 524/3/4 525/3/4 534/3/4
f 533/2/4 524/2/4 534/2/4
f 534/3/4 525/3/4 535/3/4
f 532/2/4 533/2/4 537/2/4
f 531/2/4 532/2/4 537/2/4
f 537/2/4 533/2/4 538/2/4
f 533/5/4 534/5/4 539/5/4
f 538/2/4 533/2/4 539/2/4
f 534/2/4 535/2/4 540/2/4
f 539/5/4 534/5/4 540/5/4
f 535/3/4 536/3/4 541/3/4
f 540/2/4 535/2/4 541/2/4
f 541/3/4 536/3/4 542/3/4
f 529/1/4 530/1/4 544/1/4
f 528/1/4 529/1/4 544/1/4
f 530/6/4 531/6/4 545/6/4
f 544/1/4 530/1/4 545/1/4
f 545/6/4 531/6/4 546/6/4
f 531/2/4 537/2/4 547/2/4
f 546/6/4 531/6/4 547/6/4
f 539/2/4 540/2/4 548/2/4
f 538/2/4 539/2/4 548/2/4
f 540/5/4 541/5/4 549/5/4
f 548/2/4 540/2/4 549/2/4
f 541/2/4 542/2/4 550/2/4
f 549/5/4 541/5/4 550/5/4
f 542/3/4 543/3/4 551/3/4
f 550/2/4 542/2/4 551/2/4
f 549/5/4 550/5/4 552/5/4
f 548/5/4 549/5/4 552/5/4
f 550/5/4 551/5/4 552/5/4
f 552/5/4 551/5/4 553/5/4
f 551/3/4 543/3/4 554/3/4
f 553/5/4 551/5/4 554/5/4
f 554/3/4 543/3/4 555/3/4
f 527/5/4 528/5/4 557/5/4
f 526/6/4 527/6/4 557/6/4
f 528/1/4 544/1/4 558/1/4
f 557/5/4 528/5/4 558/5/4
f 544/5/4 545/5/4 559/5/4
f 558/1/4 544/1/4 559/1/4
f 545/6/4 546/6/4 560/6/4
f 559/5/4 545/5/4 560/5/4
f 552/1/4 553/1/4 561/1/4
f 553/5/4 554/5/4 561/5/4
f 554/2/4 555/2/4 562/2/4
f 561/5/4 554/5/4 562/5/4
f 555/3/4 556/3/4 563/3/4
f 562/2/4 555/2/4 563/2/4
f 526/6/4 557/6/4 564/6/4
f 557/6/4 558/6/4 564/6/4
f 503/3/4 526/3/4 564/3/4
f 564/6/4 558/6/4 565/6/4
f 560/6/4 546/6/4 566/6/4
f 546/2/4 547/2/4 567/2/4
f 566/6/4 546/6/4 567/6/4
f 547/2/4 537/2/4 568/2/4
f 567/2/4 547/2/4 568/2/4
f 537/3/4 538/3/4 568/3/4
f 538/2/4 548/2/4 569/2/4
f 568/3/4 538/3/4 569/3/4
f 563/3/4 556/3/4 570/3/4
f 562/5/4 563/5/4 570/5/4
f 570/3/4 556/3/4 571/3/4
f 503/3/4 564/3/4 573/3/4
f 564/4/4 565/4/4 574/4/4
f 573/3/4 564/3/4 574/3/4
f 565/6/4 558/6/4 575/6/4
f 574/4/4 565/4/4 575/4/4
f 558/5/4 559/5/4 576/5/4
f 575/6/4 558/6/4 576/6/4
f 559/2/4 560/2/4 577/2/4
f 576/5/4 559/5/4 577/5/4
f 560/6/4 566/6/4 578/6/4
f 566/2/4 567/2/4 579/2/4
f 578/6/4 566/6/4 579/6/4
f 568/2/4 569/2/4 579/2/4
f 567/2/4 568/2/4 579/2/4
f 579/2/4 569/2/4 580/2/4
f 580/2/4 569/2/4 581/2/4
f 569/2/4 548/2/4 582/2/4
f 581/2/4 569/2/4 582/2/4
f 548/5/4 552/5/4 582/5/4
f 561/1/4 562/1/4 583/1/4
f 582/5/4 552/5/4 583/5/4
f 552/1/4 561/1/4 583/1/4
f 562/5/4 570/5/4 584/5/4
f 583/1/4 562/1/4 584/1/4
f 576/6/4 577/6/4 585/6/4
f 575/6/4 576/6/4 585/6/4
f 574/3/4 575/3/4 585/3/4
f 585/6/4 577/6/4 586/6/4
f 578/2/4 579/2/4 587/2/4
f 579/2/4 580/2/4 587/2/4
f 580/3/4 581/3/4 588/3/4
f 587/2/4 580/2/4 588/2/4
f 582/2/4 583/2/4 589/2/4
f 588/3/4 581/3/4 589/3/4
f 581/2/4 582/2/4 589/2/4
f 584/5/4 570/5/4 590/5/4
f 583/5/4 584/5/4 590/5/4
f 570/2/4 571/2/4 590/2/4
f 571/3/4 572/3/4 591/3/4
f 590/2/4 571/2/4 591/2/4
f 586/6/4 577/6/4 592/6/4
f 577/2/4 560/2/4 592/2/4
f 560/6/4 578/6/4 593/6/4
f 592/2/4 560/2/4 593/2/4
f 589/2/4 583/2/4 594/2/4
f 588/2/4 589/2/4 594/2/4
f 590/5/4 591/5/4 594/5/4
f 583/5/4 590/5/4 594/5/4
f 594/5/4 591/5/4 595/5/4
f 586/6/4 592/6/4 596/6/4
f 592/6/4 593/6/4 596/6/4
f 593/6/4 578/6/4 597/6/4
f 596/6/4 593/6/4 597/6/4
f 578/2/4 587/2/4 598/2/4
f 597/6/4 578/6/4 598/6/4
f 598/2/4 587/2/4 599/2/4
f 587/3/4 588/3/4 600/3/4
f 599/2/4 587/2/4 600/2/4
f 594/2/4 595/2/4 601/2/4
f 600/3/4 588/3/4 601/3/4
f 588/2/4 594/2/4 601/2/4
f 601/2/4 595/2/4 602/2/4
f 595/5/4 591/5/4 603/5/4
f 591/3/4 572/3/4 604/3/4
f 603/5/4 591/5/4 604/5/4
f 574/3/4 585/3/4 605/3/4
f 585/4/4 586/4/4 605/4/4
f 586/6/4 596/6/4 606/6/4
f 605/4/4 586/4/4 606/4/4
f 596/2/4 597/2/4 607/2/4
f 606/6/4 596/6/4 607/6/4
f 599/2/4 600/2/4 608/2/4
f 598/6/4 599/6/4 608/6/4
f 597/6/4 598/6/4 608/6/4
f 600/2/4 601/2/4 608/2/4
f 608/2/4 601/2/4 609/2/4
f 601/3/4 602/3/4 610/3/4
f 609/2/4 601/2/4 610/2/4
f 602/2/4 595/2/4 611/2/4
f 610/3/4 602/3/4 611/3/4
f 595/5/4 603/5/4 612/5/4
f 611/2/4 595/2/4 612/2/4
f 612/5/4 603/5/4 613/5/4
f 574/3/4 605/3/4 615/3/4
f 605/6/4 606/6/4 616/6/4
f 615/3/4 605/3/4 616/3/4
f 609/2/4 610/2/4 617/2/4
f 610/2/4 611/2/4 617/2/4
f 611/2/4 612/2/4 617/2/4
f 612/2/4 613/2/4 617/2/4
f 617/2/4 613/2/4 618/2/4
f 613/5/4 603/5/4 619/5/4
f 603/2/4 604/2/4 619/2/4
f 604/3/4 572/3/4 620/3/4
f 619/2/4 604/2/4 620/2/4
f 614/3/4 615/3/4 621/3/4
f 615/4/4 616/4/4 621/4/4
f 616/6/4 606/6/4 622/6/4
f 621/4/4 616/4/4 622/4/4
f 607/2/4 597/2/4 623/2/4
f 606/2/4 607/2/4 623/2/4
f 608/6/4 609/6/4 624/6/4
f 623/2/4 597/2/4 624/2/4
f 597/6/4 608/6/4 624/6/4
f 609/2/4 617/2/4 625/2/4
f 624/6/4 609/6/4 625/6/4
f 625/2/4 617/2/4 626/2/4
f 618/2/4 613/2/4 627/2/4
f 613/5/4 619/5/4 628/5/4
f 627/2/4 613/2/4 628/2/4
f 619/6/4 620/6/4 629/6/4
f 628/5/4 619/5/4 629/5/4
f 620/3/4 572/3/4 630/3/4
f 629/6/4 620/6/4 630/6/4
f 630/3/4 572/3/4 631/3/4
f 622/6/4 606/6/4 632/6/4
f 621/6/4 622/6/4 632/6/4
f 606/2/4 623/2/4 633/2/4
f 632/6/4 606/6/4 633/6/4
f 623/6/4 624/6/4 634/6/4
f 633/2/4 623/2/4 634/2/4
f 624/6/4 625/6/4 634/6/4
f 625/6/4 626/6/4 634/6/4
f 634/6/4 626/6/4 635/6/4
f 635/6/4 626/6/4 636/6/4
f 626/2/4 617/2/4 637/2/4
f 636/6/4 626/6/4 637/6/4
f 617/3/4 618/3/4 638/3/4
f 637/2/4 617/2/4 638/2/4
f 618/2/4 627/2/4 639/2/4
f 638/3/4 618/3/4 639/3/4
f 639/2/4 627/2/4 640/2/4
f 628/5/4 629/5/4 641/5/4
f 627/5/4 628/5/4 641/5/4
f 629/3/4 630/3/4 642/3/4
f 641/5/4 629/5/4 642/5/4
f 637/6/4 638/6/4 643/6/4
f 636/6/4 637/6/4 643/6/4
f 643/6/4 638/6/4 644/6/4
f 638/3/4 639/3/4 645/3/4
f 644/6/4 638/6/4 645/6/4
f 639/6/4 640/6/4 646/6/4
f 645/3/4 639/3/4 646/3/4
f 640/2/4 627/2/4 647/2/4
f 646/6/4 640/6/4 647/6/4
f 647/2/4 627/2/4 648/2/4
f 627/5/4 641/5/4 649/5/4
f 648/2/4 627/2/4 649/2/4
f 641/2/4 642/2/4 650/2/4
f 649/5/4 641/5/4 650/5/4
f 642/3/4 630/3/4 651/3/4
f 650/2/4 642/2/4 651/2/4
f 651/3/4 630/3/4 652/3/4
f 621/6/4 632/6/4 653/6/4
f 632/5/4 633/5/4 653/5/4
f 633/6/4 634/6/4 654/6/4
f 653/5/4 633/5/4 654/5/4
f 634/6/4 635/6/4 654/6/4
f 654/6/4 635/6/4 655/6/4
f 645/6/4 646/6/4 656/6/4
f 647/6/4 648/6/4 656/6/4
f 644/6/4 645/6/4 656/6/4
f 646/6/4 647/6/4 656/6/4
f 643/4/4 644/4/4 656/4/4
f 656/6/4 648/6/4 657/6/4
f 657/6/4 648/6/4 658/6/4
f 649/2/4 650/2/4 659/2/4
f 658/6/4 648/6/4 659/6/4
f 648/2/4 649/2/4 659/2/4
f 659/2/4 650/2/4 660/2/4
f 650/3/4 651/3/4 661/3/4
f 660/2/4 650/2/4 661/2/4
f 635/2/4 636/2/4 662/2/4
f 636/6/4 643/6/4 662/6/4
f 656/4/4 657/4/4 663/4/4
f 662/6/4 643/6/4 663/6/4
f 643/4/4 656/4/4 663/4/4
f 657/6/4 658/6/4 664/6/4
f 663/4/4 657/4/4 664/4/4
f 664/6/4 658/6/4 665/6/4
f 659/5/4 660/5/4 666/5/4
f 658/2/4 659/2/4 666/2/4
f 660/6/4 661/6/4 667/6/4
f 666/5/4 660/5/4 667/5/4
f 661/3/4 651/3/4 668/3/4
f 667/6/4 661/6/4 668/6/4
f 668/3/4 651/3/4 669/3/4
f 614/3/4 621/3/4 670/3/4
f 621/6/4 653/6/4 670/6/4
f 653/2/4 654/2/4 671/2/4
f 670/6/4 653/6/4 671/6/4
f 654/4/4 655/4/4 672/4/4
f 671/2/4 654/2/4 672/2/4
f 655/6/4 635/6/4 673/6/4
f 672/4/4 655/4/4 673/4/4
f 635/2/4 662/2/4 674/2/4
f 673/6/4 635/6/4 674/6/4
f 662/4/4 663/4/4 675/4/4
f 674/2/4 662/2/4 675/2/4
f 664/4/4 665/4/4 675/4/4
f 663/4/4 664/4/4 675/4/4
f 665/6/4 658/6/4 676/6/4
f 658/2/4 666/2/4 676/2/4
f 666/6/4 667/6/4 677/6/4
f 676/2/4 666/2/4 677/2/4
f 667/3/4 668/3/4 678/3/4
f 677/6/4 667/6/4 678/6/4
f 678/3/4 668/3/4 679/3/4
f 671/2/4 672/2/4 680/2/4
f 670/4/4 671/4/4 680/4/4
f 672/6/4 673/6/4 681/6/4
f 680/2/4 672/2/4 681/2/4
f 673/4/4 674/4/4 682/4/4
f 681/6/4 673/6/4 682/6/4
f 674/4/4 675/4/4 682/4/4
f 682/4/4 675/4/4 683/4/4
f 675/4/4 665/4/4 684/4/4
f 683/4/4 675/4/4 684/4/4
f 665/6/4 676/6/4 685/6/4
f 684/4/4 665/4/4 685/4/4
f 676/6/4 677/6/4 685/6/4
f 685/6/4 677/6/4 686/6/4
f 686/6/4 677/6/4 687/6/4
f 687/6/4 677/6/4 688/6/4
f 677/3/4 678/3/4 689/3/4
f 688/6/4 677/6/4 689/6/4
f 689/3/4 678/3/4 690/3/4
f 683/4/4 684/4/4 691/4/4
f 691/4/4 684/4/4 692/4/4
f 692/4/4 684/4/4 693/4/4
f 684/6/4 685/6/4 694/6/4
f 693/4/4 684/4/4 694/4/4
f 685/2/4 686/2/4 695/2/4
f 686/6/4 687/6/4 695/6/4
f 687/2/4 688/2/4 696/2/4
f 695/6/4 687/6/4 696/6/4
f 696/2/4 688/2/4 697/2/4
f 688/3/4 689/3/4 698/3/4
f 697/2/4 688/2/4 698/2/4
f 698/3/4 689/3/4 699/3/4
f 614/3/4 670/3/4 700/3/4
f 670/4/4 680/4/4 701/4/4
f 700/3/4 670/3/4 701/3/4
f 680/6/4 681/6/4 702/6/4
f 701/4/4 680/4/4 702/4/4
f 682/2/4 683/2/4 703/2/4
f 681/2/4 682/2/4 703/2/4
f 683/4/4 691/4/4 703/4/4
f 691/6/4 692/6/4 704/6/4
f 703/4/4 691/4/4 704/4/4
f 692/4/4 693/4/4 705/4/4
f 693/6/4 694/6/4 706/6/4
f 705/4/4 693/4/4 706/4/4
f 706/6/4 694/6/4 707/6/4
f 694/6/4 685/6/4 708/6/4
f 707/6/4 694/6/4 708/6/4
f 685/2/4 695/2/4 709/2/4
f 708/6/4 685/6/4 709/6/4
f 695/2/4 696/2/4 709/2/4
f 696/6/4 697/6/4 710/6/4
f 709/2/4 696/2/4 710/2/4
f 697/3/4 698/3/4 711/3/4
f 710/6/4 697/6/4 711/6/4
f 711/3/4 698/3/4 712/3/4
f 702/6/4 681/6/4 713/6/4
f 701/3/4 702/3/4 713/3/4
f 681/2/4 703/2/4 714/2/4
f 713/6/4 681/6/4 714/6/4
f 714/2/4 703/2/4 715/2/4
f 703/6/4 704/6/4 716/6/4
f 704/6/4 692/6/4 716/6/4
f 692/4/4 705/4/4 717/4/4
f 716/6/4 692/6/4 717/6/4
f 705/6/4 706/6/4 718/6/4
f 717/4/4 705/4/4 718/4/4
f 706/2/4 707/2/4 719/2/4
f 718/6/4 706/6/4 719/6/4
f 707/6/4 708/6/4 720/6/4
f 719/2/4 707/2/4 720/2/4
f 710/3/4 711/3/4 721/3/4
f 720/6/4 708/6/4 721/6/4
f 708/3/4 709/3/4 721/3/4
f 709/3/4 710/3/4 721/3/4
f 721/3/4 711/3/4 722/3/4
f 701/3/4 713/3/4 723/3/4
f 713/4/4 714/4/4 724/4/4
f 723/3/4 713/3/4 724/3/4
f 714/6/4 715/6/4 725/6/4
f 724/4/4 714/4/4 725/4/4
f 715/2/4 703/2/4 726/2/4
f 725/6/4 715/6/4 726/6/4
f 703/6/4 716/6/4 727/6/4
f 716/4/4 717/4/4 727/4/4
f 718/6/4 719/6/4 728/6/4
f 727/4/4 717/4/4 728/4/4
f 717/6/4 718/6/4 728/6/4
f 728/6/4 719/6/4 729/6/4
f 719/3/4 720/3/4 730/3/4
f 729/6/4 719/6/4 730/6/4
f 720/3/4 721/3/4 730/3/4
f 730/3/4 721/3/4 731/3/4
f 724/3/4 725/3/4 732/3/4
f 725/4/4 726/4/4 732/4/4
f 726/2/4 703/2/4 733/2/4
f 732/4/4 726/4/4 733/4/4
f 703/6/4 727/6/4 734/6/4
f 733/2/4 703/2/4 734/2/4
f 728/2/4 729/2/4 735/2/4
f 734/6/4 727/6/4 735/6/4
f 727/2/4 728/2/4 735/2/4
f 735/2/4 729/2/4 736/2/4
f 729/3/4 730/3/4 737/3/4
f 736/2/4 729/2/4 737/2/4
f 737/3/4 730/3/4 738/3/4
f 732/3/4 733/3/4 739/3/4
f 724/3/4 732/3/4 739/3/4
f 739/3/4 733/3/4 740/3/4
f 733/2/4 734/2/4 741/2/4
f 740/3/4 733/3/4 741/3/4
f 734/4/4 735/4/4 742/4/4
f 741/2/4 734/2/4 742/2/4
f 735/2/4 736/2/4 743/2/4
f 742/4/4 735/4/4 743/4/4
f 736/3/4 737/3/4 744/3/4
f 743/2/4 736/2/4 744/2/4
f 741/6/4 742/6/4 745/6/4
f 740/3/4 741/3/4 745/3/4
f 742/2/4 743/2/4 746/2/4
f 745/6/4 742/6/4 746/6/4
f 743/6/4 744/6/4 747/6/4
f 746/2/4 743/2/4 747/2/4
f 744/3/4 737/3/4 748/3/4
f 747/6/4 744/6/4 748/6/4
f 748/3/4 737/3/4 749/3/4
f 746/2/4 747/2/4 750/2/4
f 745/4/4 746/4/4 750/4/4
f 747/3/4 748/3/4 751/3/4
f 750/2/4 747/2/4 751/2/4
f 740/3/4 745/3/4 752/3/4
f 745/4/4 750/4/4 753/4/4
f 752/3/4 745/3/4 753/3/4
f 750/6/4 751/6/4 754/6/4
f 753/4/4 750/4/4 754/4/4
f 751/3/4 748/3/4 755/3/4
f 754/6/4 751/6/4 755/6/4
f 755/3/4 748/3/4 756/3/4
f 753/3/4 754/3/4 757/3/4
f 754/3/4 755/3/4 757/3/4
f 757/3/4 755/3/4 758/3/4
f 763/3/5 760/3/5 759/3/5
f 764/3/5 760/3/5 763/3/5
f 765/3/5 762/3/5 761/3/5
f 766/3/5 762/3/5 765/3/5
f 773/3/5 768/3/5 767/3/5
f 774/3/5 768/3/5 773/3/5
f 775/3/5 770/3/5 769/3/5
f 776/3/5 770/3/5 775/3/5
f 777/3/5 772/3/5 771/3/5
f 778/3/5 772/3/5 777/3/5
f 783/3/5 780/3/5 779/3/5
f 784/3/5 780/3/5 783/3/5
f 785/3/5 782/3/5 781/3/5
f 786/3/5 782/3/5 785/3/5
f 791/3/5 788/3/5 787/3/5
f 792/3/5 788/3/5 791/3/5
f 793/3/5 790/3/5 789/3/5
f 794/3/5 790/3/5 793/3/5
f 799/3/5 796/3/5 795/3/5
f 800/3/5 796/3/5 799/3/5
f 801/3/5 798/3/5 797/3/5
f 802/3/5 798/3/5 801/3/5
f 803/3/6 804/3/6 807/3/6
f 807/3/6 804/3/6 808/3/6
f 805/3/6 806/3/6 809/3/6
f 809/3/6 806/3/6 810/3/6
f 811/3/6 812/3/6 815/3/6
f 815/3/6 812/3/6 816/3/6
f 813/3/6 814/3/6 817/3/6
f 817/3/6 814/3/6 818/3/6
f 819/3/6 820/3/6 823/3/6
f 823/3/6 820/3/6 824/3/6
f 821/3/6 822/3/6 825/3/6
f 825/3/6 822/3/6 826/3/6
f 827/3/6 828/3/6 831/3/6
f 831/3/6 828/3/6 832/3/6
f 829/3/6 830/3/6 833/3/6
f 833/3/6 830/3/6 834/3/6
f 835/3/6 836/3/6 839/3/6
f 839/3/6 836/3/6 840/3/6
f 837/3/6 838/3/6 841/3/6
f 841/3/6 838/3/6 842/3/6
f 843/3/6 844/3/6 845/3/6
f 845/3/6 844/3/6 846/3/6
f 847/3/6 848/3/6 849/3/6
f 849/3/6 848/3/6 850/3/6
f 851/3/6 852/3/6 855/3/6
f 855/3/6 852/3/6 856/3/6
f 853/3/6 854/3/6 857/3/6
f 857/3/6 854/3/6 858/3/6
f 859/3/6 860/3/6 863/3/6
f 863/3/6 860/3/6 864/3/6
f 861/3/6 862/3/6 865/3/6
f 865/3/6 862/3/6 866/3/6
f 867/3/6 868/3/6 871/3/6
f 871/3/6 868/3/6 872/3/6
f 869/3/6 870/3/6 873/3/6
f 873/3/6 870/3/6 874/3/6
f 875/3/6 876/3/6 879/3/6
f 879/3/6 876/3/6 880/3/6
f 877/3/6 878/3/6 881/3/6
f 881/3/6 878/3/6 882/3/6
f 883/3/6 884/3/6 887/3/6
f 887/3/6 884/3/6 888/3/6
f 885/3/6 886/3/6 889/3/6
f 889/3/6 886/3/6 890/3/6
f 891/3/6 892/3/6 895/3/6
f 895/3/6 892/3/6 896/3/6
f 893/3/6 894/3/6 897/3/6
f 897/3/6 894/3/6 898/3/6
f 899/3/6 900/3/6 901/3/6
f 901/3/6 900/3/6 902/3/6
