# MagicaVoxel @ Ephtracy

# group
o 

# material
mtllib Floor_01.mtl
usemtl palette

# normals
vn -1 0 0
vn 1 0 0
vn 0 0 1
vn 0 0 -1
vn 0 -1 0
vn 0 1 0

# texcoords
vt 0.0214844 0.5
vt 0.0253906 0.5
vt 0.0292969 0.5

# verts
v -4 0 2
v -4 0 -2
v -4 3.5 1.8
v -4 3.5 1.7
v -4 3.5 1.4
v -4 3.5 1.3
v -4 3.5 0.8
v -4 3.5 0.7
v -4 3.5 0.4
v -4 3.5 0.3
v -4 3.5 -0.2
v -4 3.5 -0.3
v -4 3.5 -0.6
v -4 3.5 -0.7
v -4 3.5 -1.2
v -4 3.5 -1.3
v -4 3.5 -1.6
v -4 3.5 -1.7
v -4 3.6 2
v -4 3.6 1.9
v -4 3.6 1.8
v -4 3.6 1.7
v -4 3.6 1.6
v -4 3.6 1.5
v -4 3.6 1.4
v -4 3.6 1
v -4 3.6 0.9
v -4 3.6 0.8
v -4 3.6 0.7
v -4 3.6 0.6
v -4 3.6 0.5
v -4 3.6 0.4
v -4 3.6 -2.38419e-07
v -4 3.6 -0.1
v -4 3.6 -0.2
v -4 3.6 -0.3
v -4 3.6 -0.4
v -4 3.6 -0.5
v -4 3.6 -0.6
v -4 3.6 -1
v -4 3.6 -1.1
v -4 3.6 -1.2
v -4 3.6 -1.3
v -4 3.6 -1.4
v -4 3.6 -1.5
v -4 3.6 -1.6
v -4 3.7 2
v -4 3.7 1.9
v -4 3.7 1.8
v -4 3.7 1.7
v -4 3.7 1.6
v -4 3.7 1.5
v -4 3.7 1.4
v -4 3.7 1.3
v -4 3.7 1.1
v -4 3.7 1
v -4 3.7 0.9
v -4 3.7 0.8
v -4 3.7 0.7
v -4 3.7 0.6
v -4 3.7 0.5
v -4 3.7 0.4
v -4 3.7 0.3
v -4 3.7 0.0999999
v -4 3.7 -2.38419e-07
v -4 3.7 -0.1
v -4 3.7 -0.2
v -4 3.7 -0.3
v -4 3.7 -0.4
v -4 3.7 -0.5
v -4 3.7 -0.6
v -4 3.7 -0.7
v -4 3.7 -0.9
v -4 3.7 -1
v -4 3.7 -1.1
v -4 3.7 -1.2
v -4 3.7 -1.3
v -4 3.7 -1.4
v -4 3.7 -1.5
v -4 3.7 -1.6
v -4 3.7 -1.7
v -4 3.7 -1.9
v -4 3.8 1.9
v -4 3.8 1.8
v -4 3.8 1.7
v -4 3.8 1.6
v -4 3.8 1.5
v -4 3.8 1.4
v -4 3.8 1.3
v -4 3.8 0.9
v -4 3.8 0.8
v -4 3.8 0.7
v -4 3.8 0.6
v -4 3.8 0.5
v -4 3.8 0.4
v -4 3.8 0.3
v -4 3.8 -0.1
v -4 3.8 -0.2
v -4 3.8 -0.3
v -4 3.8 -0.4
v -4 3.8 -0.5
v -4 3.8 -0.6
v -4 3.8 -0.7
v -4 3.8 -1.1
v -4 3.8 -1.2
v -4 3.8 -1.3
v -4 3.8 -1.4
v -4 3.8 -1.5
v -4 3.8 -1.6
v -4 3.8 -1.7
v -4 3.9 2
v -4 3.9 1.9
v -4 3.9 1.4
v -4 3.9 1.3
v -4 3.9 1.2
v -4 3.9 1.1
v -4 3.9 1
v -4 3.9 0.9
v -4 3.9 0.4
v -4 3.9 0.3
v -4 3.9 0.2
v -4 3.9 0.0999999
v -4 3.9 -2.38419e-07
v -4 3.9 -0.1
v -4 3.9 -0.6
v -4 3.9 -0.7
v -4 3.9 -0.8
v -4 3.9 -0.9
v -4 3.9 -1
v -4 3.9 -1.1
v -4 3.9 -1.6
v -4 3.9 -1.7
v -4 3.9 -1.8
v -4 3.9 -1.9
v -4 3.9 -2
v -4 4 1.9
v -4 4 1.2
v -4 4 0.9
v -4 4 0.2
v -4 4 -0.1
v -4 4 -0.8
v -4 4 -1.1
v -4 4 -1.8
v -3.9 3.9 2
v -3.9 3.9 1.9
v -3.9 3.9 1.2
v -3.9 3.9 1.1
v -3.9 3.9 1
v -3.9 3.9 0.9
v -3.9 3.9 0.2
v -3.9 3.9 0.0999999
v -3.9 3.9 -2.38419e-07
v -3.9 3.9 -0.1
v -3.9 3.9 -0.8
v -3.9 3.9 -0.9
v -3.9 3.9 -1
v -3.9 3.9 -1.1
v -3.9 3.9 -1.8
v -3.9 3.9 -1.9
v -3.9 4 2
v -3.9 4 1.9
v -3.9 4 1.2
v -3.9 4 1.1
v -3.9 4 1
v -3.9 4 0.9
v -3.9 4 0.2
v -3.9 4 0.0999999
v -3.9 4 -2.38419e-07
v -3.9 4 -0.1
v -3.9 4 -0.8
v -3.9 4 -0.9
v -3.9 4 -1
v -3.9 4 -1.1
v -3.9 4 -1.8
v -3.9 4 -1.9
v -3 3.9 1.9
v -3 3.9 1.2
v -3 3.9 0.9
v -3 3.9 0.2
v -3 3.9 -0.1
v -3 3.9 -0.8
v -3 3.9 -1.1
v -3 3.9 -1.8
v -3 4 1.9
v -3 4 1.2
v -3 4 0.9
v -3 4 0.2
v -3 4 -0.1
v -3 4 -0.8
v -3 4 -1.1
v -3 4 -1.8
v -2.9 3.9 2
v -2.9 3.9 1.9
v -2.9 3.9 1.2
v -2.9 3.9 1.1
v -2.9 3.9 1
v -2.9 3.9 0.9
v -2.9 3.9 0.2
v -2.9 3.9 0.0999999
v -2.9 3.9 -2.38419e-07
v -2.9 3.9 -0.1
v -2.9 3.9 -0.8
v -2.9 3.9 -0.9
v -2.9 3.9 -1
v -2.9 3.9 -1.1
v -2.9 3.9 -1.8
v -2.9 3.9 -1.9
v -2.9 4 2
v -2.9 4 1.9
v -2.9 4 1.2
v -2.9 4 1.1
v -2.9 4 1
v -2.9 4 0.9
v -2.9 4 0.2
v -2.9 4 0.0999999
v -2.9 4 -2.38419e-07
v -2.9 4 -0.1
v -2.9 4 -0.8
v -2.9 4 -0.9
v -2.9 4 -1
v -2.9 4 -1.1
v -2.9 4 -1.8
v -2.9 4 -1.9
v -2 3.9 1.9
v -2 3.9 1.2
v -2 3.9 0.9
v -2 3.9 0.2
v -2 3.9 -0.1
v -2 3.9 -0.8
v -2 3.9 -1.1
v -2 3.9 -1.8
v -2 4 1.9
v -2 4 1.2
v -2 4 0.9
v -2 4 0.2
v -2 4 -0.1
v -2 4 -0.8
v -2 4 -1.1
v -2 4 -1.8
v -1.9 3.9 2
v -1.9 3.9 1.9
v -1.9 3.9 1.2
v -1.9 3.9 1.1
v -1.9 3.9 1
v -1.9 3.9 0.9
v -1.9 3.9 0.2
v -1.9 3.9 0.0999999
v -1.9 3.9 -2.38419e-07
v -1.9 3.9 -0.1
v -1.9 3.9 -0.8
v -1.9 3.9 -0.9
v -1.9 3.9 -1
v -1.9 3.9 -1.1
v -1.9 3.9 -1.8
v -1.9 3.9 -1.9
v -1.9 4 2
v -1.9 4 1.9
v -1.9 4 1.2
v -1.9 4 1.1
v -1.9 4 1
v -1.9 4 0.9
v -1.9 4 0.2
v -1.9 4 0.0999999
v -1.9 4 -2.38419e-07
v -1.9 4 -0.1
v -1.9 4 -0.8
v -1.9 4 -0.9
v -1.9 4 -1
v -1.9 4 -1.1
v -1.9 4 -1.8
v -1.9 4 -1.9
v -1 3.9 1.9
v -1 3.9 1.2
v -1 3.9 0.9
v -1 3.9 0.2
v -1 3.9 -0.1
v -1 3.9 -0.8
v -1 3.9 -1.1
v -1 3.9 -1.8
v -1 4 1.9
v -1 4 1.2
v -1 4 0.9
v -1 4 0.2
v -1 4 -0.1
v -1 4 -0.8
v -1 4 -1.1
v -1 4 -1.8
v -0.9 3.9 2
v -0.9 3.9 1.9
v -0.9 3.9 1.2
v -0.9 3.9 1.1
v -0.9 3.9 1
v -0.9 3.9 0.9
v -0.9 3.9 0.2
v -0.9 3.9 0.0999999
v -0.9 3.9 -2.38419e-07
v -0.9 3.9 -0.1
v -0.9 3.9 -0.8
v -0.9 3.9 -0.9
v -0.9 3.9 -1
v -0.9 3.9 -1.1
v -0.9 3.9 -1.8
v -0.9 3.9 -1.9
v -0.9 4 2
v -0.9 4 1.9
v -0.9 4 1.2
v -0.9 4 1.1
v -0.9 4 1
v -0.9 4 0.9
v -0.9 4 0.2
v -0.9 4 0.0999999
v -0.9 4 -2.38419e-07
v -0.9 4 -0.1
v -0.9 4 -0.8
v -0.9 4 -0.9
v -0.9 4 -1
v -0.9 4 -1.1
v -0.9 4 -1.8
v -0.9 4 -1.9
v -3.2 3.9 2
v -3.2 3.9 1.9
v -3.2 3.9 1.2
v -3.2 3.9 1.1
v -3.2 3.9 1
v -3.2 3.9 0.9
v -3.2 3.9 0.2
v -3.2 3.9 0.0999999
v -3.2 3.9 -2.38419e-07
v -3.2 3.9 -0.1
v -3.2 3.9 -0.8
v -3.2 3.9 -0.9
v -3.2 3.9 -1
v -3.2 3.9 -1.1
v -3.2 3.9 -1.8
v -3.2 3.9 -1.9
v -3.2 4 2
v -3.2 4 1.9
v -3.2 4 1.2
v -3.2 4 1.1
v -3.2 4 1
v -3.2 4 0.9
v -3.2 4 0.2
v -3.2 4 0.0999999
v -3.2 4 -2.38419e-07
v -3.2 4 -0.1
v -3.2 4 -0.8
v -3.2 4 -0.9
v -3.2 4 -1
v -3.2 4 -1.1
v -3.2 4 -1.8
v -3.2 4 -1.9
v -3.1 3.9 1.9
v -3.1 3.9 1.2
v -3.1 3.9 0.9
v -3.1 3.9 0.2
v -3.1 3.9 -0.1
v -3.1 3.9 -0.8
v -3.1 3.9 -1.1
v -3.1 3.9 -1.8
v -3.1 4 1.9
v -3.1 4 1.2
v -3.1 4 0.9
v -3.1 4 0.2
v -3.1 4 -0.1
v -3.1 4 -0.8
v -3.1 4 -1.1
v -3.1 4 -1.8
v -2.2 3.9 2
v -2.2 3.9 1.9
v -2.2 3.9 1.2
v -2.2 3.9 1.1
v -2.2 3.9 1
v -2.2 3.9 0.9
v -2.2 3.9 0.2
v -2.2 3.9 0.0999999
v -2.2 3.9 -2.38419e-07
v -2.2 3.9 -0.1
v -2.2 3.9 -0.8
v -2.2 3.9 -0.9
v -2.2 3.9 -1
v -2.2 3.9 -1.1
v -2.2 3.9 -1.8
v -2.2 3.9 -1.9
v -2.2 4 2
v -2.2 4 1.9
v -2.2 4 1.2
v -2.2 4 1.1
v -2.2 4 1
v -2.2 4 0.9
v -2.2 4 0.2
v -2.2 4 0.0999999
v -2.2 4 -2.38419e-07
v -2.2 4 -0.1
v -2.2 4 -0.8
v -2.2 4 -0.9
v -2.2 4 -1
v -2.2 4 -1.1
v -2.2 4 -1.8
v -2.2 4 -1.9
v -2.1 3.9 1.9
v -2.1 3.9 1.2
v -2.1 3.9 0.9
v -2.1 3.9 0.2
v -2.1 3.9 -0.1
v -2.1 3.9 -0.8
v -2.1 3.9 -1.1
v -2.1 3.9 -1.8
v -2.1 4 1.9
v -2.1 4 1.2
v -2.1 4 0.9
v -2.1 4 0.2
v -2.1 4 -0.1
v -2.1 4 -0.8
v -2.1 4 -1.1
v -2.1 4 -1.8
v -1.2 3.9 2
v -1.2 3.9 1.9
v -1.2 3.9 1.2
v -1.2 3.9 1.1
v -1.2 3.9 1
v -1.2 3.9 0.9
v -1.2 3.9 0.2
v -1.2 3.9 0.0999999
v -1.2 3.9 -2.38419e-07
v -1.2 3.9 -0.1
v -1.2 3.9 -0.8
v -1.2 3.9 -0.9
v -1.2 3.9 -1
v -1.2 3.9 -1.1
v -1.2 3.9 -1.8
v -1.2 3.9 -1.9
v -1.2 4 2
v -1.2 4 1.9
v -1.2 4 1.2
v -1.2 4 1.1
v -1.2 4 1
v -1.2 4 0.9
v -1.2 4 0.2
v -1.2 4 0.0999999
v -1.2 4 -2.38419e-07
v -1.2 4 -0.1
v -1.2 4 -0.8
v -1.2 4 -0.9
v -1.2 4 -1
v -1.2 4 -1.1
v -1.2 4 -1.8
v -1.2 4 -1.9
v -1.1 3.9 1.9
v -1.1 3.9 1.2
v -1.1 3.9 0.9
v -1.1 3.9 0.2
v -1.1 3.9 -0.1
v -1.1 3.9 -0.8
v -1.1 3.9 -1.1
v -1.1 3.9 -1.8
v -1.1 4 1.9
v -1.1 4 1.2
v -1.1 4 0.9
v -1.1 4 0.2
v -1.1 4 -0.1
v -1.1 4 -0.8
v -1.1 4 -1.1
v -1.1 4 -1.8
v -0.2 3.9 2
v -0.2 3.9 1.9
v -0.2 3.9 1.2
v -0.2 3.9 1.1
v -0.2 3.9 1
v -0.2 3.9 0.9
v -0.2 3.9 0.2
v -0.2 3.9 0.0999999
v -0.2 3.9 -2.38419e-07
v -0.2 3.9 -0.1
v -0.2 3.9 -0.8
v -0.2 3.9 -0.9
v -0.2 3.9 -1
v -0.2 3.9 -1.1
v -0.2 3.9 -1.8
v -0.2 3.9 -1.9
v -0.2 4 2
v -0.2 4 1.9
v -0.2 4 1.2
v -0.2 4 1.1
v -0.2 4 1
v -0.2 4 0.9
v -0.2 4 0.2
v -0.2 4 0.0999999
v -0.2 4 -2.38419e-07
v -0.2 4 -0.1
v -0.2 4 -0.8
v -0.2 4 -0.9
v -0.2 4 -1
v -0.2 4 -1.1
v -0.2 4 -1.8
v -0.2 4 -1.9
v -0.0999999 3.9 1.9
v -0.0999999 3.9 1.2
v -0.0999999 3.9 0.9
v -0.0999999 3.9 0.2
v -0.0999999 3.9 -0.1
v -0.0999999 3.9 -0.8
v -0.0999999 3.9 -1.1
v -0.0999999 3.9 -1.8
v -0.0999999 4 1.9
v -0.0999999 4 1.2
v -0.0999999 4 0.9
v -0.0999999 4 0.2
v -0.0999999 4 -0.1
v -0.0999999 4 -0.8
v -0.0999999 4 -1.1
v -0.0999999 4 -1.8
v 0 0 2
v 0 0 -2
v 0 3.9 2
v 0 3.9 -2
v -4 0 2
v -4 3.6 2
v -4 3.7 2
v -4 3.9 2
v -3.9 3.6 2
v -3.9 3.7 2
v -3.9 3.8 2
v -3.9 3.9 2
v -3.9 4 2
v -3.8 3.5 2
v -3.8 3.6 2
v -3.8 3.7 2
v -3.8 3.8 2
v -3.7 3.5 2
v -3.7 3.6 2
v -3.7 3.7 2
v -3.7 3.8 2
v -3.6 3.6 2
v -3.6 3.7 2
v -3.6 3.8 2
v -3.5 3.6 2
v -3.5 3.7 2
v -3.5 3.8 2
v -3.4 3.5 2
v -3.4 3.6 2
v -3.4 3.7 2
v -3.4 3.8 2
v -3.4 3.9 2
v -3.3 3.5 2
v -3.3 3.7 2
v -3.3 3.8 2
v -3.3 3.9 2
v -3.2 3.6 2
v -3.2 3.7 2
v -3.2 3.8 2
v -3.2 3.9 2
v -3.2 4 2
v -3.1 3.6 2
v -3.1 3.7 2
v -3.1 3.8 2
v -3.1 3.9 2
v -3 3.6 2
v -3 3.7 2
v -3 3.8 2
v -3 3.9 2
v -2.9 3.5 2
v -2.9 3.6 2
v -2.9 3.7 2
v -2.9 3.8 2
v -2.9 3.9 2
v -2.9 4 2
v -2.8 3.5 2
v -2.8 3.6 2
v -2.8 3.7 2
v -2.8 3.8 2
v -2.8 3.9 2
v -2.7 3.6 2
v -2.7 3.7 2
v -2.7 3.8 2
v -2.7 3.9 2
v -2.6 3.6 2
v -2.6 3.7 2
v -2.6 3.8 2
v -2.6 3.9 2
v -2.5 3.6 2
v -2.5 3.7 2
v -2.5 3.8 2
v -2.4 3.6 2
v -2.4 3.7 2
v -2.4 3.8 2
v -2.4 3.9 2
v -2.3 3.5 2
v -2.3 3.7 2
v -2.3 3.8 2
v -2.3 3.9 2
v -2.2 3.5 2
v -2.2 3.7 2
v -2.2 3.8 2
v -2.2 3.9 2
v -2.2 4 2
v -2.1 3.7 2
v -2.1 3.9 2
v -2 3.6 2
v -2 3.7 2
v -2 3.8 2
v -2 3.9 2
v -1.9 3.6 2
v -1.9 3.7 2
v -1.9 3.8 2
v -1.9 3.9 2
v -1.9 4 2
v -1.8 3.6 2
v -1.8 3.7 2
v -1.8 3.8 2
v -1.8 3.9 2
v -1.7 3.6 2
v -1.7 3.7 2
v -1.6 3.5 2
v -1.6 3.6 2
v -1.6 3.7 2
v -1.6 3.8 2
v -1.5 3.5 2
v -1.5 3.6 2
v -1.5 3.7 2
v -1.5 3.8 2
v -1.5 3.9 2
v -1.4 3.6 2
v -1.4 3.7 2
v -1.4 3.8 2
v -1.4 3.9 2
v -1.3 3.6 2
v -1.3 3.7 2
v -1.3 3.8 2
v -1.3 3.9 2
v -1.2 3.6 2
v -1.2 3.7 2
v -1.2 3.8 2
v -1.2 3.9 2
v -1.2 4 2
v -1.1 3.7 2
v -1.1 3.9 2
v -1 3.7 2
v -1 3.8 2
v -1 3.9 2
v -0.9 3.5 2
v -0.9 3.6 2
v -0.9 3.7 2
v -0.9 3.8 2
v -0.9 3.9 2
v -0.9 4 2
v -0.8 3.5 2
v -0.8 3.6 2
v -0.8 3.7 2
v -0.8 3.8 2
v -0.7 3.6 2
v -0.7 3.7 2
v -0.7 3.8 2
v -0.7 3.9 2
v -0.6 3.6 2
v -0.6 3.7 2
v -0.6 3.8 2
v -0.6 3.9 2
v -0.5 3.7 2
v -0.5 3.8 2
v -0.4 3.5 2
v -0.4 3.7 2
v -0.4 3.8 2
v -0.3 3.5 2
v -0.3 3.6 2
v -0.3 3.7 2
v -0.3 3.8 2
v -0.3 3.9 2
v -0.2 3.6 2
v -0.2 3.7 2
v -0.2 3.8 2
v -0.2 3.9 2
v -0.2 4 2
v -0.0999999 3.7 2
v -0.0999999 3.9 2
v 0 0 2
v 0 3.9 2
v -4 3.9 1.9
v -4 4 1.9
v -3.9 3.9 1.9
v -3.9 4 1.9
v -3.2 3.9 1.9
v -3.2 4 1.9
v -3.1 3.9 1.9
v -3.1 4 1.9
v -3 3.9 1.9
v -3 4 1.9
v -2.9 3.9 1.9
v -2.9 4 1.9
v -2.2 3.9 1.9
v -2.2 4 1.9
v -2.1 3.9 1.9
v -2.1 4 1.9
v -2 3.9 1.9
v -2 4 1.9
v -1.9 3.9 1.9
v -1.9 4 1.9
v -1.2 3.9 1.9
v -1.2 4 1.9
v -1.1 3.9 1.9
v -1.1 4 1.9
v -1 3.9 1.9
v -1 4 1.9
v -0.9 3.9 1.9
v -0.9 4 1.9
v -0.2 3.9 1.9
v -0.2 4 1.9
v -0.0999999 3.9 1.9
v -0.0999999 4 1.9
v -3.9 3.9 1
v -3.9 4 1
v -3.2 3.9 1
v -3.2 4 1
v -2.9 3.9 1
v -2.9 4 1
v -2.2 3.9 1
v -2.2 4 1
v -1.9 3.9 1
v -1.9 4 1
v -1.2 3.9 1
v -1.2 4 1
v -0.9 3.9 1
v -0.9 4 1
v -0.2 3.9 1
v -0.2 4 1
v -4 3.9 0.9
v -4 4 0.9
v -3.9 3.9 0.9
v -3.9 4 0.9
v -3.2 3.9 0.9
v -3.2 4 0.9
v -3.1 3.9 0.9
v -3.1 4 0.9
v -3 3.9 0.9
v -3 4 0.9
v -2.9 3.9 0.9
v -2.9 4 0.9
v -2.2 3.9 0.9
v -2.2 4 0.9
v -2.1 3.9 0.9
v -2.1 4 0.9
v -2 3.9 0.9
v -2 4 0.9
v -1.9 3.9 0.9
v -1.9 4 0.9
v -1.2 3.9 0.9
v -1.2 4 0.9
v -1.1 3.9 0.9
v -1.1 4 0.9
v -1 3.9 0.9
v -1 4 0.9
v -0.9 3.9 0.9
v -0.9 4 0.9
v -0.2 3.9 0.9
v -0.2 4 0.9
v -0.0999999 3.9 0.9
v -0.0999999 4 0.9
v -3.9 3.9 -2.38419e-07
v -3.9 4 -2.38419e-07
v -3.2 3.9 -2.38419e-07
v -3.2 4 -2.38419e-07
v -2.9 3.9 -2.38419e-07
v -2.9 4 -2.38419e-07
v -2.2 3.9 -2.38419e-07
v -2.2 4 -2.38419e-07
v -1.9 3.9 -2.38419e-07
v -1.9 4 -2.38419e-07
v -1.2 3.9 -2.38419e-07
v -1.2 4 -2.38419e-07
v -0.9 3.9 -2.38419e-07
v -0.9 4 -2.38419e-07
v -0.2 3.9 -2.38419e-07
v -0.2 4 -2.38419e-07
v -4 3.9 -0.1
v -4 4 -0.1
v -3.9 3.9 -0.1
v -3.9 4 -0.1
v -3.2 3.9 -0.1
v -3.2 4 -0.1
v -3.1 3.9 -0.1
v -3.1 4 -0.1
v -3 3.9 -0.1
v -3 4 -0.1
v -2.9 3.9 -0.1
v -2.9 4 -0.1
v -2.2 3.9 -0.1
v -2.2 4 -0.1
v -2.1 3.9 -0.1
v -2.1 4 -0.1
v -2 3.9 -0.1
v -2 4 -0.1
v -1.9 3.9 -0.1
v -1.9 4 -0.1
v -1.2 3.9 -0.1
v -1.2 4 -0.1
v -1.1 3.9 -0.1
v -1.1 4 -0.1
v -1 3.9 -0.1
v -1 4 -0.1
v -0.9 3.9 -0.1
v -0.9 4 -0.1
v -0.2 3.9 -0.1
v -0.2 4 -0.1
v -0.0999999 3.9 -0.1
v -0.0999999 4 -0.1
v -3.9 3.9 -1
v -3.9 4 -1
v -3.2 3.9 -1
v -3.2 4 -1
v -2.9 3.9 -1
v -2.9 4 -1
v -2.2 3.9 -1
v -2.2 4 -1
v -1.9 3.9 -1
v -1.9 4 -1
v -1.2 3.9 -1
v -1.2 4 -1
v -0.9 3.9 -1
v -0.9 4 -1
v -0.2 3.9 -1
v -0.2 4 -1
v -4 3.9 -1.1
v -4 4 -1.1
v -3.9 3.9 -1.1
v -3.9 4 -1.1
v -3.2 3.9 -1.1
v -3.2 4 -1.1
v -3.1 3.9 -1.1
v -3.1 4 -1.1
v -3 3.9 -1.1
v -3 4 -1.1
v -2.9 3.9 -1.1
v -2.9 4 -1.1
v -2.2 3.9 -1.1
v -2.2 4 -1.1
v -2.1 3.9 -1.1
v -2.1 4 -1.1
v -2 3.9 -1.1
v -2 4 -1.1
v -1.9 3.9 -1.1
v -1.9 4 -1.1
v -1.2 3.9 -1.1
v -1.2 4 -1.1
v -1.1 3.9 -1.1
v -1.1 4 -1.1
v -1 3.9 -1.1
v -1 4 -1.1
v -0.9 3.9 -1.1
v -0.9 4 -1.1
v -0.2 3.9 -1.1
v -0.2 4 -1.1
v -0.0999999 3.9 -1.1
v -0.0999999 4 -1.1
v -4 3.9 1.2
v -4 4 1.2
v -3.9 3.9 1.2
v -3.9 4 1.2
v -3.2 3.9 1.2
v -3.2 4 1.2
v -3.1 3.9 1.2
v -3.1 4 1.2
v -3 3.9 1.2
v -3 4 1.2
v -2.9 3.9 1.2
v -2.9 4 1.2
v -2.2 3.9 1.2
v -2.2 4 1.2
v -2.1 3.9 1.2
v -2.1 4 1.2
v -2 3.9 1.2
v -2 4 1.2
v -1.9 3.9 1.2
v -1.9 4 1.2
v -1.2 3.9 1.2
v -1.2 4 1.2
v -1.1 3.9 1.2
v -1.1 4 1.2
v -1 3.9 1.2
v -1 4 1.2
v -0.9 3.9 1.2
v -0.9 4 1.2
v -0.2 3.9 1.2
v -0.2 4 1.2
v -0.0999999 3.9 1.2
v -0.0999999 4 1.2
v -3.9 3.9 1.1
v -3.9 4 1.1
v -3.2 3.9 1.1
v -3.2 4 1.1
v -2.9 3.9 1.1
v -2.9 4 1.1
v -2.2 3.9 1.1
v -2.2 4 1.1
v -1.9 3.9 1.1
v -1.9 4 1.1
v -1.2 3.9 1.1
v -1.2 4 1.1
v -0.9 3.9 1.1
v -0.9 4 1.1
v -0.2 3.9 1.1
v -0.2 4 1.1
v -4 3.9 0.2
v -4 4 0.2
v -3.9 3.9 0.2
v -3.9 4 0.2
v -3.2 3.9 0.2
v -3.2 4 0.2
v -3.1 3.9 0.2
v -3.1 4 0.2
v -3 3.9 0.2
v -3 4 0.2
v -2.9 3.9 0.2
v -2.9 4 0.2
v -2.2 3.9 0.2
v -2.2 4 0.2
v -2.1 3.9 0.2
v -2.1 4 0.2
v -2 3.9 0.2
v -2 4 0.2
v -1.9 3.9 0.2
v -1.9 4 0.2
v -1.2 3.9 0.2
v -1.2 4 0.2
v -1.1 3.9 0.2
v -1.1 4 0.2
v -1 3.9 0.2
v -1 4 0.2
v -0.9 3.9 0.2
v -0.9 4 0.2
v -0.2 3.9 0.2
v -0.2 4 0.2
v -0.0999999 3.9 0.2
v -0.0999999 4 0.2
v -3.9 3.9 0.0999999
v -3.9 4 0.0999999
v -3.2 3.9 0.0999999
v -3.2 4 0.0999999
v -2.9 3.9 0.0999999
v -2.9 4 0.0999999
v -2.2 3.9 0.0999999
v -2.2 4 0.0999999
v -1.9 3.9 0.0999999
v -1.9 4 0.0999999
v -1.2 3.9 0.0999999
v -1.2 4 0.0999999
v -0.9 3.9 0.0999999
v -0.9 4 0.0999999
v -0.2 3.9 0.0999999
v -0.2 4 0.0999999
v -4 3.9 -0.8
v -4 4 -0.8
v -3.9 3.9 -0.8
v -3.9 4 -0.8
v -3.2 3.9 -0.8
v -3.2 4 -0.8
v -3.1 3.9 -0.8
v -3.1 4 -0.8
v -3 3.9 -0.8
v -3 4 -0.8
v -2.9 3.9 -0.8
v -2.9 4 -0.8
v -2.2 3.9 -0.8
v -2.2 4 -0.8
v -2.1 3.9 -0.8
v -2.1 4 -0.8
v -2 3.9 -0.8
v -2 4 -0.8
v -1.9 3.9 -0.8
v -1.9 4 -0.8
v -1.2 3.9 -0.8
v -1.2 4 -0.8
v -1.1 3.9 -0.8
v -1.1 4 -0.8
v -1 3.9 -0.8
v -1 4 -0.8
v -0.9 3.9 -0.8
v -0.9 4 -0.8
v -0.2 3.9 -0.8
v -0.2 4 -0.8
v -0.0999999 3.9 -0.8
v -0.0999999 4 -0.8
v -3.9 3.9 -0.9
v -3.9 4 -0.9
v -3.2 3.9 -0.9
v -3.2 4 -0.9
v -2.9 3.9 -0.9
v -2.9 4 -0.9
v -2.2 3.9 -0.9
v -2.2 4 -0.9
v -1.9 3.9 -0.9
v -1.9 4 -0.9
v -1.2 3.9 -0.9
v -1.2 4 -0.9
v -0.9 3.9 -0.9
v -0.9 4 -0.9
v -0.2 3.9 -0.9
v -0.2 4 -0.9
v -4 3.9 -1.8
v -4 4 -1.8
v -3.9 3.9 -1.8
v -3.9 4 -1.8
v -3.2 3.9 -1.8
v -3.2 4 -1.8
v -3.1 3.9 -1.8
v -3.1 4 -1.8
v -3 3.9 -1.8
v -3 4 -1.8
v -2.9 3.9 -1.8
v -2.9 4 -1.8
v -2.2 3.9 -1.8
v -2.2 4 -1.8
v -2.1 3.9 -1.8
v -2.1 4 -1.8
v -2 3.9 -1.8
v -2 4 -1.8
v -1.9 3.9 -1.8
v -1.9 4 -1.8
v -1.2 3.9 -1.8
v -1.2 4 -1.8
v -1.1 3.9 -1.8
v -1.1 4 -1.8
v -1 3.9 -1.8
v -1 4 -1.8
v -0.9 3.9 -1.8
v -0.9 4 -1.8
v -0.2 3.9 -1.8
v -0.2 4 -1.8
v -0.0999999 3.9 -1.8
v -0.0999999 4 -1.8
v -3.9 3.9 -1.9
v -3.9 4 -1.9
v -3.2 3.9 -1.9
v -3.2 4 -1.9
v -2.9 3.9 -1.9
v -2.9 4 -1.9
v -2.2 3.9 -1.9
v -2.2 4 -1.9
v -1.9 3.9 -1.9
v -1.9 4 -1.9
v -1.2 3.9 -1.9
v -1.2 4 -1.9
v -0.9 3.9 -1.9
v -0.9 4 -1.9
v -0.2 3.9 -1.9
v -0.2 4 -1.9
v -4 0 -2
v -4 3.9 -2
v 0 0 -2
v 0 3.9 -2
v -4 0 2
v 0 0 2
v -4 0 -2
v 0 0 -2
v -4 3.9 2
v -3.9 3.9 2
v -3.2 3.9 2
v -3.1 3.9 2
v -3 3.9 2
v -2.9 3.9 2
v -2.2 3.9 2
v -2.1 3.9 2
v -2 3.9 2
v -1.9 3.9 2
v -1.2 3.9 2
v -1.1 3.9 2
v -1 3.9 2
v -0.9 3.9 2
v -0.2 3.9 2
v -0.0999999 3.9 2
v 0 3.9 2
v -4 3.9 1.9
v -3.9 3.9 1.9
v -3.2 3.9 1.9
v -3.1 3.9 1.9
v -3 3.9 1.9
v -2.9 3.9 1.9
v -2.2 3.9 1.9
v -2.1 3.9 1.9
v -2 3.9 1.9
v -1.9 3.9 1.9
v -1.2 3.9 1.9
v -1.1 3.9 1.9
v -1 3.9 1.9
v -0.9 3.9 1.9
v -0.2 3.9 1.9
v -0.0999999 3.9 1.9
v -4 3.9 1.2
v -3.9 3.9 1.2
v -3.2 3.9 1.2
v -3.1 3.9 1.2
v -3 3.9 1.2
v -2.9 3.9 1.2
v -2.2 3.9 1.2
v -2.1 3.9 1.2
v -2 3.9 1.2
v -1.9 3.9 1.2
v -1.2 3.9 1.2
v -1.1 3.9 1.2
v -1 3.9 1.2
v -0.9 3.9 1.2
v -0.2 3.9 1.2
v -0.0999999 3.9 1.2
v -4 3.9 1.1
v -3.9 3.9 1.1
v -3.2 3.9 1.1
v -3.1 3.9 1.1
v -3 3.9 1.1
v -2.9 3.9 1.1
v -2.2 3.9 1.1
v -2.1 3.9 1.1
v -2 3.9 1.1
v -1.9 3.9 1.1
v -1.2 3.9 1.1
v -1.1 3.9 1.1
v -1 3.9 1.1
v -0.9 3.9 1.1
v -0.2 3.9 1.1
v -0.0999999 3.9 1.1
v -4 3.9 1
v -3.9 3.9 1
v -3.2 3.9 1
v -3.1 3.9 1
v -3 3.9 1
v -2.9 3.9 1
v -2.2 3.9 1
v -2.1 3.9 1
v -2 3.9 1
v -1.9 3.9 1
v -1.2 3.9 1
v -1.1 3.9 1
v -1 3.9 1
v -0.9 3.9 1
v -0.2 3.9 1
v -0.0999999 3.9 1
v -4 3.9 0.9
v -3.9 3.9 0.9
v -3.2 3.9 0.9
v -3.1 3.9 0.9
v -3 3.9 0.9
v -2.9 3.9 0.9
v -2.2 3.9 0.9
v -2.1 3.9 0.9
v -2 3.9 0.9
v -1.9 3.9 0.9
v -1.2 3.9 0.9
v -1.1 3.9 0.9
v -1 3.9 0.9
v -0.9 3.9 0.9
v -0.2 3.9 0.9
v -0.0999999 3.9 0.9
v -4 3.9 0.2
v -3.9 3.9 0.2
v -3.2 3.9 0.2
v -3.1 3.9 0.2
v -3 3.9 0.2
v -2.9 3.9 0.2
v -2.2 3.9 0.2
v -2.1 3.9 0.2
v -2 3.9 0.2
v -1.9 3.9 0.2
v -1.2 3.9 0.2
v -1.1 3.9 0.2
v -1 3.9 0.2
v -0.9 3.9 0.2
v -0.2 3.9 0.2
v -0.0999999 3.9 0.2
v -4 3.9 0.0999999
v -3.9 3.9 0.0999999
v -3.2 3.9 0.0999999
v -3.1 3.9 0.0999999
v -3 3.9 0.0999999
v -2.9 3.9 0.0999999
v -2.2 3.9 0.0999999
v -2.1 3.9 0.0999999
v -2 3.9 0.0999999
v -1.9 3.9 0.0999999
v -1.2 3.9 0.0999999
v -1.1 3.9 0.0999999
v -1 3.9 0.0999999
v -0.9 3.9 0.0999999
v -0.2 3.9 0.0999999
v -0.0999999 3.9 0.0999999
v -4 3.9 -2.38419e-07
v -3.9 3.9 -2.38419e-07
v -3.2 3.9 -2.38419e-07
v -3.1 3.9 -2.38419e-07
v -3 3.9 -2.38419e-07
v -2.9 3.9 -2.38419e-07
v -2.2 3.9 -2.38419e-07
v -2.1 3.9 -2.38419e-07
v -2 3.9 -2.38419e-07
v -1.9 3.9 -2.38419e-07
v -1.2 3.9 -2.38419e-07
v -1.1 3.9 -2.38419e-07
v -1 3.9 -2.38419e-07
v -0.9 3.9 -2.38419e-07
v -0.2 3.9 -2.38419e-07
v -0.0999999 3.9 -2.38419e-07
v -4 3.9 -0.1
v -3.9 3.9 -0.1
v -3.2 3.9 -0.1
v -3.1 3.9 -0.1
v -3 3.9 -0.1
v -2.9 3.9 -0.1
v -2.2 3.9 -0.1
v -2.1 3.9 -0.1
v -2 3.9 -0.1
v -1.9 3.9 -0.1
v -1.2 3.9 -0.1
v -1.1 3.9 -0.1
v -1 3.9 -0.1
v -0.9 3.9 -0.1
v -0.2 3.9 -0.1
v -0.0999999 3.9 -0.1
v -4 3.9 -0.8
v -3.9 3.9 -0.8
v -3.2 3.9 -0.8
v -3.1 3.9 -0.8
v -3 3.9 -0.8
v -2.9 3.9 -0.8
v -2.2 3.9 -0.8
v -2.1 3.9 -0.8
v -2 3.9 -0.8
v -1.9 3.9 -0.8
v -1.2 3.9 -0.8
v -1.1 3.9 -0.8
v -1 3.9 -0.8
v -0.9 3.9 -0.8
v -0.2 3.9 -0.8
v -0.0999999 3.9 -0.8
v -4 3.9 -0.9
v -3.9 3.9 -0.9
v -3.2 3.9 -0.9
v -3.1 3.9 -0.9
v -3 3.9 -0.9
v -2.9 3.9 -0.9
v -2.2 3.9 -0.9
v -2.1 3.9 -0.9
v -2 3.9 -0.9
v -1.9 3.9 -0.9
v -1.2 3.9 -0.9
v -1.1 3.9 -0.9
v -1 3.9 -0.9
v -0.9 3.9 -0.9
v -0.2 3.9 -0.9
v -0.0999999 3.9 -0.9
v -4 3.9 -1
v -3.9 3.9 -1
v -3.2 3.9 -1
v -3.1 3.9 -1
v -3 3.9 -1
v -2.9 3.9 -1
v -2.2 3.9 -1
v -2.1 3.9 -1
v -2 3.9 -1
v -1.9 3.9 -1
v -1.2 3.9 -1
v -1.1 3.9 -1
v -1 3.9 -1
v -0.9 3.9 -1
v -0.2 3.9 -1
v -0.0999999 3.9 -1
v -4 3.9 -1.1
v -3.9 3.9 -1.1
v -3.2 3.9 -1.1
v -3.1 3.9 -1.1
v -3 3.9 -1.1
v -2.9 3.9 -1.1
v -2.2 3.9 -1.1
v -2.1 3.9 -1.1
v -2 3.9 -1.1
v -1.9 3.9 -1.1
v -1.2 3.9 -1.1
v -1.1 3.9 -1.1
v -1 3.9 -1.1
v -0.9 3.9 -1.1
v -0.2 3.9 -1.1
v -0.0999999 3.9 -1.1
v -4 3.9 -1.8
v -3.9 3.9 -1.8
v -3.2 3.9 -1.8
v -3.1 3.9 -1.8
v -3 3.9 -1.8
v -2.9 3.9 -1.8
v -2.2 3.9 -1.8
v -2.1 3.9 -1.8
v -2 3.9 -1.8
v -1.9 3.9 -1.8
v -1.2 3.9 -1.8
v -1.1 3.9 -1.8
v -1 3.9 -1.8
v -0.9 3.9 -1.8
v -0.2 3.9 -1.8
v -0.0999999 3.9 -1.8
v -4 3.9 -1.9
v -3.9 3.9 -1.9
v -3.2 3.9 -1.9
v -3.1 3.9 -1.9
v -3 3.9 -1.9
v -2.9 3.9 -1.9
v -2.2 3.9 -1.9
v -2.1 3.9 -1.9
v -2 3.9 -1.9
v -1.9 3.9 -1.9
v -1.2 3.9 -1.9
v -1.1 3.9 -1.9
v -1 3.9 -1.9
v -0.9 3.9 -1.9
v -0.2 3.9 -1.9
v -0.0999999 3.9 -1.9
v -4 3.9 -2
v 0 3.9 -2
v -3.9 4 2
v -3.2 4 2
v -2.9 4 2
v -2.2 4 2
v -1.9 4 2
v -1.2 4 2
v -0.9 4 2
v -0.2 4 2
v -4 4 1.9
v -3.9 4 1.9
v -3.2 4 1.9
v -3.1 4 1.9
v -3 4 1.9
v -2.9 4 1.9
v -2.2 4 1.9
v -2.1 4 1.9
v -2 4 1.9
v -1.9 4 1.9
v -1.2 4 1.9
v -1.1 4 1.9
v -1 4 1.9
v -0.9 4 1.9
v -0.2 4 1.9
v -0.0999999 4 1.9
v -4 4 1.2
v -3.9 4 1.2
v -3.2 4 1.2
v -3.1 4 1.2
v -3 4 1.2
v -2.9 4 1.2
v -2.2 4 1.2
v -2.1 4 1.2
v -2 4 1.2
v -1.9 4 1.2
v -1.2 4 1.2
v -1.1 4 1.2
v -1 4 1.2
v -0.9 4 1.2
v -0.2 4 1.2
v -0.0999999 4 1.2
v -3.9 4 1.1
v -3.2 4 1.1
v -2.9 4 1.1
v -2.2 4 1.1
v -1.9 4 1.1
v -1.2 4 1.1
v -0.9 4 1.1
v -0.2 4 1.1
v -3.9 4 1
v -3.2 4 1
v -2.9 4 1
v -2.2 4 1
v -1.9 4 1
v -1.2 4 1
v -0.9 4 1
v -0.2 4 1
v -4 4 0.9
v -3.9 4 0.9
v -3.2 4 0.9
v -3.1 4 0.9
v -3 4 0.9
v -2.9 4 0.9
v -2.2 4 0.9
v -2.1 4 0.9
v -2 4 0.9
v -1.9 4 0.9
v -1.2 4 0.9
v -1.1 4 0.9
v -1 4 0.9
v -0.9 4 0.9
v -0.2 4 0.9
v -0.0999999 4 0.9
v -4 4 0.2
v -3.9 4 0.2
v -3.2 4 0.2
v -3.1 4 0.2
v -3 4 0.2
v -2.9 4 0.2
v -2.2 4 0.2
v -2.1 4 0.2
v -2 4 0.2
v -1.9 4 0.2
v -1.2 4 0.2
v -1.1 4 0.2
v -1 4 0.2
v -0.9 4 0.2
v -0.2 4 0.2
v -0.0999999 4 0.2
v -3.9 4 0.0999999
v -3.2 4 0.0999999
v -2.9 4 0.0999999
v -2.2 4 0.0999999
v -1.9 4 0.0999999
v -1.2 4 0.0999999
v -0.9 4 0.0999999
v -0.2 4 0.0999999
v -3.9 4 -2.38419e-07
v -3.2 4 -2.38419e-07
v -2.9 4 -2.38419e-07
v -2.2 4 -2.38419e-07
v -1.9 4 -2.38419e-07
v -1.2 4 -2.38419e-07
v -0.9 4 -2.38419e-07
v -0.2 4 -2.38419e-07
v -4 4 -0.1
v -3.9 4 -0.1
v -3.2 4 -0.1
v -3.1 4 -0.1
v -3 4 -0.1
v -2.9 4 -0.1
v -2.2 4 -0.1
v -2.1 4 -0.1
v -2 4 -0.1
v -1.9 4 -0.1
v -1.2 4 -0.1
v -1.1 4 -0.1
v -1 4 -0.1
v -0.9 4 -0.1
v -0.2 4 -0.1
v -0.0999999 4 -0.1
v -4 4 -0.8
v -3.9 4 -0.8
v -3.2 4 -0.8
v -3.1 4 -0.8
v -3 4 -0.8
v -2.9 4 -0.8
v -2.2 4 -0.8
v -2.1 4 -0.8
v -2 4 -0.8
v -1.9 4 -0.8
v -1.2 4 -0.8
v -1.1 4 -0.8
v -1 4 -0.8
v -0.9 4 -0.8
v -0.2 4 -0.8
v -0.0999999 4 -0.8
v -3.9 4 -0.9
v -3.2 4 -0.9
v -2.9 4 -0.9
v -2.2 4 -0.9
v -1.9 4 -0.9
v -1.2 4 -0.9
v -0.9 4 -0.9
v -0.2 4 -0.9
v -3.9 4 -1
v -3.2 4 -1
v -2.9 4 -1
v -2.2 4 -1
v -1.9 4 -1
v -1.2 4 -1
v -0.9 4 -1
v -0.2 4 -1
v -4 4 -1.1
v -3.9 4 -1.1
v -3.2 4 -1.1
v -3.1 4 -1.1
v -3 4 -1.1
v -2.9 4 -1.1
v -2.2 4 -1.1
v -2.1 4 -1.1
v -2 4 -1.1
v -1.9 4 -1.1
v -1.2 4 -1.1
v -1.1 4 -1.1
v -1 4 -1.1
v -0.9 4 -1.1
v -0.2 4 -1.1
v -0.0999999 4 -1.1
v -4 4 -1.8
v -3.9 4 -1.8
v -3.2 4 -1.8
v -3.1 4 -1.8
v -3 4 -1.8
v -2.9 4 -1.8
v -2.2 4 -1.8
v -2.1 4 -1.8
v -2 4 -1.8
v -1.9 4 -1.8
v -1.2 4 -1.8
v -1.1 4 -1.8
v -1 4 -1.8
v -0.9 4 -1.8
v -0.2 4 -1.8
v -0.0999999 4 -1.8
v -3.9 4 -1.9
v -3.2 4 -1.9
v -2.9 4 -1.9
v -2.2 4 -1.9
v -1.9 4 -1.9
v -1.2 4 -1.9
v -0.9 4 -1.9
v -0.2 4 -1.9

# faces
f 3/2/1 2/2/1 1/2/1
f 4/2/1 2/2/1 3/2/1
f 5/2/1 2/2/1 4/2/1
f 6/2/1 2/2/1 5/2/1
f 7/2/1 2/2/1 6/2/1
f 8/2/1 2/2/1 7/2/1
f 9/2/1 2/2/1 8/2/1
f 10/2/1 2/2/1 9/2/1
f 11/2/1 2/2/1 10/2/1
f 12/2/1 2/2/1 11/2/1
f 13/2/1 2/2/1 12/2/1
f 14/2/1 2/2/1 13/2/1
f 15/2/1 2/2/1 14/2/1
f 16/2/1 2/2/1 15/2/1
f 17/2/1 2/2/1 16/2/1
f 18/2/1 2/2/1 17/2/1
f 19/2/1 3/2/1 1/2/1
f 20/2/1 3/2/1 19/2/1
f 21/3/1 4/3/1 3/3/1
f 21/2/1 3/2/1 20/2/1
f 22/2/1 5/2/1 4/2/1
f 22/3/1 4/3/1 21/3/1
f 23/2/1 5/2/1 22/2/1
f 24/2/1 5/2/1 23/2/1
f 25/3/1 6/3/1 5/3/1
f 25/2/1 5/2/1 24/2/1
f 26/2/1 7/2/1 6/2/1
f 27/2/1 7/2/1 26/2/1
f 28/3/1 8/3/1 7/3/1
f 28/2/1 7/2/1 27/2/1
f 29/2/1 9/2/1 8/2/1
f 29/3/1 8/3/1 28/3/1
f 30/2/1 9/2/1 29/2/1
f 31/2/1 9/2/1 30/2/1
f 32/3/1 10/3/1 9/3/1
f 32/2/1 9/2/1 31/2/1
f 33/2/1 11/2/1 10/2/1
f 34/2/1 11/2/1 33/2/1
f 35/3/1 12/3/1 11/3/1
f 35/2/1 11/2/1 34/2/1
f 36/2/1 13/2/1 12/2/1
f 36/3/1 12/3/1 35/3/1
f 37/2/1 13/2/1 36/2/1
f 38/2/1 13/2/1 37/2/1
f 39/3/1 14/3/1 13/3/1
f 39/2/1 13/2/1 38/2/1
f 40/2/1 15/2/1 14/2/1
f 41/2/1 15/2/1 40/2/1
f 42/3/1 16/3/1 15/3/1
f 42/2/1 15/2/1 41/2/1
f 43/2/1 17/2/1 16/2/1
f 43/3/1 16/3/1 42/3/1
f 44/2/1 17/2/1 43/2/1
f 45/2/1 17/2/1 44/2/1
f 46/3/1 18/3/1 17/3/1
f 46/2/1 17/2/1 45/2/1
f 47/1/1 20/1/1 19/1/1
f 48/3/1 21/3/1 20/3/1
f 48/1/1 20/1/1 47/1/1
f 49/2/1 22/2/1 21/2/1
f 49/3/1 21/3/1 48/3/1
f 49/2/1 23/2/1 22/2/1
f 50/2/1 23/2/1 49/2/1
f 51/1/1 24/1/1 23/1/1
f 51/2/1 23/2/1 50/2/1
f 52/3/1 25/3/1 24/3/1
f 52/1/1 24/1/1 51/1/1
f 53/3/1 6/3/1 25/3/1
f 53/3/1 25/3/1 52/3/1
f 54/2/1 26/2/1 6/2/1
f 54/3/1 6/3/1 53/3/1
f 55/2/1 26/2/1 54/2/1
f 56/1/1 27/1/1 26/1/1
f 56/2/1 26/2/1 55/2/1
f 57/3/1 28/3/1 27/3/1
f 57/1/1 27/1/1 56/1/1
f 58/2/1 29/2/1 28/2/1
f 58/3/1 28/3/1 57/3/1
f 58/2/1 30/2/1 29/2/1
f 59/2/1 30/2/1 58/2/1
f 60/1/1 31/1/1 30/1/1
f 60/2/1 30/2/1 59/2/1
f 61/3/1 32/3/1 31/3/1
f 61/1/1 31/1/1 60/1/1
f 62/3/1 10/3/1 32/3/1
f 62/3/1 32/3/1 61/3/1
f 63/2/1 33/2/1 10/2/1
f 63/3/1 10/3/1 62/3/1
f 64/2/1 33/2/1 63/2/1
f 65/1/1 34/1/1 33/1/1
f 65/2/1 33/2/1 64/2/1
f 66/3/1 35/3/1 34/3/1
f 66/1/1 34/1/1 65/1/1
f 67/2/1 36/2/1 35/2/1
f 67/3/1 35/3/1 66/3/1
f 67/2/1 37/2/1 36/2/1
f 68/2/1 37/2/1 67/2/1
f 69/1/1 38/1/1 37/1/1
f 69/2/1 37/2/1 68/2/1
f 70/3/1 39/3/1 38/3/1
f 70/1/1 38/1/1 69/1/1
f 71/3/1 14/3/1 39/3/1
f 71/3/1 39/3/1 70/3/1
f 72/2/1 40/2/1 14/2/1
f 72/3/1 14/3/1 71/3/1
f 73/2/1 40/2/1 72/2/1
f 74/1/1 41/1/1 40/1/1
f 74/2/1 40/2/1 73/2/1
f 75/3/1 42/3/1 41/3/1
f 75/1/1 41/1/1 74/1/1
f 76/2/1 43/2/1 42/2/1
f 76/3/1 42/3/1 75/3/1
f 76/2/1 44/2/1 43/2/1
f 77/2/1 44/2/1 76/2/1
f 78/1/1 45/1/1 44/1/1
f 78/2/1 44/2/1 77/2/1
f 79/3/1 46/3/1 45/3/1
f 79/1/1 45/1/1 78/1/1
f 80/3/1 18/3/1 46/3/1
f 80/3/1 46/3/1 79/3/1
f 81/2/1 2/2/1 18/2/1
f 81/3/1 18/3/1 80/3/1
f 82/2/1 2/2/1 81/2/1
f 83/3/1 48/3/1 47/3/1
f 83/1/1 49/1/1 48/1/1
f 84/3/1 50/3/1 49/3/1
f 84/1/1 49/1/1 83/1/1
f 85/1/1 51/1/1 50/1/1
f 85/3/1 50/3/1 84/3/1
f 86/3/1 52/3/1 51/3/1
f 86/1/1 51/1/1 85/1/1
f 87/1/1 53/1/1 52/1/1
f 87/3/1 52/3/1 86/3/1
f 88/3/1 55/3/1 54/3/1
f 88/1/1 53/1/1 87/1/1
f 88/3/1 54/3/1 53/3/1
f 89/3/1 55/3/1 88/3/1
f 90/3/1 57/3/1 56/3/1
f 90/1/1 58/1/1 57/1/1
f 91/3/1 59/3/1 58/3/1
f 91/1/1 58/1/1 90/1/1
f 92/1/1 60/1/1 59/1/1
f 92/3/1 59/3/1 91/3/1
f 93/3/1 61/3/1 60/3/1
f 93/1/1 60/1/1 92/1/1
f 94/1/1 62/1/1 61/1/1
f 94/3/1 61/3/1 93/3/1
f 95/3/1 64/3/1 63/3/1
f 95/1/1 62/1/1 94/1/1
f 95/3/1 63/3/1 62/3/1
f 96/3/1 64/3/1 95/3/1
f 97/3/1 66/3/1 65/3/1
f 97/1/1 67/1/1 66/1/1
f 98/3/1 68/3/1 67/3/1
f 98/1/1 67/1/1 97/1/1
f 99/1/1 69/1/1 68/1/1
f 99/3/1 68/3/1 98/3/1
f 100/3/1 70/3/1 69/3/1
f 100/1/1 69/1/1 99/1/1
f 101/1/1 71/1/1 70/1/1
f 101/3/1 70/3/1 100/3/1
f 102/3/1 73/3/1 72/3/1
f 102/1/1 71/1/1 101/1/1
f 102/3/1 72/3/1 71/3/1
f 103/3/1 73/3/1 102/3/1
f 104/3/1 75/3/1 74/3/1
f 104/1/1 76/1/1 75/1/1
f 105/3/1 77/3/1 76/3/1
f 105/1/1 76/1/1 104/1/1
f 106/1/1 78/1/1 77/1/1
f 106/3/1 77/3/1 105/3/1
f 107/3/1 79/3/1 78/3/1
f 107/1/1 78/1/1 106/1/1
f 108/1/1 80/1/1 79/1/1
f 108/3/1 79/3/1 107/3/1
f 109/3/1 81/3/1 80/3/1
f 109/1/1 80/1/1 108/1/1
f 109/3/1 82/3/1 81/3/1
f 110/3/1 82/3/1 109/3/1
f 111/3/1 83/3/1 47/3/1
f 111/3/1 85/3/1 84/3/1
f 111/3/1 87/3/1 86/3/1
f 111/3/1 84/3/1 83/3/1
f 111/3/1 86/3/1 85/3/1
f 111/3/1 88/3/1 87/3/1
f 112/3/1 88/3/1 111/3/1
f 113/1/1 89/1/1 88/1/1
f 113/3/1 88/3/1 112/3/1
f 114/3/1 55/3/1 89/3/1
f 114/1/1 89/1/1 113/1/1
f 115/3/1 55/3/1 114/3/1
f 116/2/1 56/2/1 55/2/1
f 116/3/1 55/3/1 115/3/1
f 117/3/1 90/3/1 56/3/1
f 117/2/1 56/2/1 116/2/1
f 117/3/1 92/3/1 91/3/1
f 117/3/1 94/3/1 93/3/1
f 117/3/1 91/3/1 90/3/1
f 117/3/1 93/3/1 92/3/1
f 117/3/1 95/3/1 94/3/1
f 118/3/1 95/3/1 117/3/1
f 119/1/1 96/1/1 95/1/1
f 119/3/1 95/3/1 118/3/1
f 120/3/1 64/3/1 96/3/1
f 120/1/1 96/1/1 119/1/1
f 121/3/1 64/3/1 120/3/1
f 122/2/1 65/2/1 64/2/1
f 122/3/1 64/3/1 121/3/1
f 123/3/1 97/3/1 65/3/1
f 123/2/1 65/2/1 122/2/1
f 123/3/1 99/3/1 98/3/1
f 123/3/1 101/3/1 100/3/1
f 123/3/1 102/3/1 101/3/1
f 123/3/1 100/3/1 99/3/1
f 123/3/1 98/3/1 97/3/1
f 124/3/1 102/3/1 123/3/1
f 125/1/1 103/1/1 102/1/1
f 125/3/1 102/3/1 124/3/1
f 126/3/1 73/3/1 103/3/1
f 126/1/1 103/1/1 125/1/1
f 127/3/1 73/3/1 126/3/1
f 128/2/1 74/2/1 73/2/1
f 128/3/1 73/3/1 127/3/1
f 129/3/1 107/3/1 106/3/1
f 129/2/1 74/2/1 128/2/1
f 129/3/1 106/3/1 105/3/1
f 129/3/1 109/3/1 108/3/1
f 129/3/1 104/3/1 74/3/1
f 129/3/1 105/3/1 104/3/1
f 129/3/1 108/3/1 107/3/1
f 130/3/1 109/3/1 129/3/1
f 131/1/1 110/1/1 109/1/1
f 131/3/1 109/3/1 130/3/1
f 132/3/1 82/3/1 110/3/1
f 132/1/1 110/1/1 131/1/1
f 133/3/1 82/3/1 132/3/1
f 134/2/1 2/2/1 82/2/1
f 134/3/1 82/3/1 133/3/1
f 135/2/1 2/2/1 134/2/1
f 136/3/1 113/3/1 112/3/1
f 136/3/1 115/3/1 114/3/1
f 136/3/1 114/3/1 113/3/1
f 137/3/1 115/3/1 136/3/1
f 138/3/1 119/3/1 118/3/1
f 138/3/1 121/3/1 120/3/1
f 138/3/1 120/3/1 119/3/1
f 139/3/1 121/3/1 138/3/1
f 140/3/1 126/3/1 125/3/1
f 140/3/1 125/3/1 124/3/1
f 140/3/1 127/3/1 126/3/1
f 141/3/1 127/3/1 140/3/1
f 142/3/1 131/3/1 130/3/1
f 142/3/1 132/3/1 131/3/1
f 142/3/1 133/3/1 132/3/1
f 143/3/1 133/3/1 142/3/1
f 160/3/1 145/3/1 144/3/1
f 161/3/1 145/3/1 160/3/1
f 162/3/1 147/3/1 146/3/1
f 163/3/1 147/3/1 162/3/1
f 164/3/1 149/3/1 148/3/1
f 165/3/1 149/3/1 164/3/1
f 166/3/1 151/3/1 150/3/1
f 167/3/1 151/3/1 166/3/1
f 168/3/1 153/3/1 152/3/1
f 169/3/1 153/3/1 168/3/1
f 170/3/1 155/3/1 154/3/1
f 171/3/1 155/3/1 170/3/1
f 172/3/1 157/3/1 156/3/1
f 173/3/1 157/3/1 172/3/1
f 174/3/1 159/3/1 158/3/1
f 175/3/1 159/3/1 174/3/1
f 184/3/1 177/3/1 176/3/1
f 185/3/1 177/3/1 184/3/1
f 186/3/1 179/3/1 178/3/1
f 187/3/1 179/3/1 186/3/1
f 188/3/1 181/3/1 180/3/1
f 189/3/1 181/3/1 188/3/1
f 190/3/1 183/3/1 182/3/1
f 191/3/1 183/3/1 190/3/1
f 208/3/1 193/3/1 192/3/1
f 209/3/1 193/3/1 208/3/1
f 210/3/1 195/3/1 194/3/1
f 211/3/1 195/3/1 210/3/1
f 212/3/1 197/3/1 196/3/1
f 213/3/1 197/3/1 212/3/1
f 214/3/1 199/3/1 198/3/1
f 215/3/1 199/3/1 214/3/1
f 216/3/1 201/3/1 200/3/1
f 217/3/1 201/3/1 216/3/1
f 218/3/1 203/3/1 202/3/1
f 219/3/1 203/3/1 218/3/1
f 220/3/1 205/3/1 204/3/1
f 221/3/1 205/3/1 220/3/1
f 222/3/1 207/3/1 206/3/1
f 223/3/1 207/3/1 222/3/1
f 232/3/1 225/3/1 224/3/1
f 233/3/1 225/3/1 232/3/1
f 234/3/1 227/3/1 226/3/1
f 235/3/1 227/3/1 234/3/1
f 236/3/1 229/3/1 228/3/1
f 237/3/1 229/3/1 236/3/1
f 238/3/1 231/3/1 230/3/1
f 239/3/1 231/3/1 238/3/1
f 256/3/1 241/3/1 240/3/1
f 257/3/1 241/3/1 256/3/1
f 258/3/1 243/3/1 242/3/1
f 259/3/1 243/3/1 258/3/1
f 260/3/1 245/3/1 244/3/1
f 261/3/1 245/3/1 260/3/1
f 262/3/1 247/3/1 246/3/1
f 263/3/1 247/3/1 262/3/1
f 264/3/1 249/3/1 248/3/1
f 265/3/1 249/3/1 264/3/1
f 266/3/1 251/3/1 250/3/1
f 267/3/1 251/3/1 266/3/1
f 268/3/1 253/3/1 252/3/1
f 269/3/1 253/3/1 268/3/1
f 270/3/1 255/3/1 254/3/1
f 271/3/1 255/3/1 270/3/1
f 280/3/1 273/3/1 272/3/1
f 281/3/1 273/3/1 280/3/1
f 282/3/1 275/3/1 274/3/1
f 283/3/1 275/3/1 282/3/1
f 284/3/1 277/3/1 276/3/1
f 285/3/1 277/3/1 284/3/1
f 286/3/1 279/3/1 278/3/1
f 287/3/1 279/3/1 286/3/1
f 304/3/1 289/3/1 288/3/1
f 305/3/1 289/3/1 304/3/1
f 306/3/1 291/3/1 290/3/1
f 307/3/1 291/3/1 306/3/1
f 308/3/1 293/3/1 292/3/1
f 309/3/1 293/3/1 308/3/1
f 310/3/1 295/3/1 294/3/1
f 311/3/1 295/3/1 310/3/1
f 312/3/1 297/3/1 296/3/1
f 313/3/1 297/3/1 312/3/1
f 314/3/1 299/3/1 298/3/1
f 315/3/1 299/3/1 314/3/1
f 316/3/1 301/3/1 300/3/1
f 317/3/1 301/3/1 316/3/1
f 318/3/1 303/3/1 302/3/1
f 319/3/1 303/3/1 318/3/1
f 320/3/2 321/3/2 336/3/2
f 336/3/2 321/3/2 337/3/2
f 322/3/2 323/3/2 338/3/2
f 338/3/2 323/3/2 339/3/2
f 324/3/2 325/3/2 340/3/2
f 340/3/2 325/3/2 341/3/2
f 326/3/2 327/3/2 342/3/2
f 342/3/2 327/3/2 343/3/2
f 328/3/2 329/3/2 344/3/2
f 344/3/2 329/3/2 345/3/2
f 330/3/2 331/3/2 346/3/2
f 346/3/2 331/3/2 347/3/2
f 332/3/2 333/3/2 348/3/2
f 348/3/2 333/3/2 349/3/2
f 334/3/2 335/3/2 350/3/2
f 350/3/2 335/3/2 351/3/2
f 352/3/2 353/3/2 360/3/2
f 360/3/2 353/3/2 361/3/2
f 354/3/2 355/3/2 362/3/2
f 362/3/2 355/3/2 363/3/2
f 356/3/2 357/3/2 364/3/2
f 364/3/2 357/3/2 365/3/2
f 358/3/2 359/3/2 366/3/2
f 366/3/2 359/3/2 367/3/2
f 368/3/2 369/3/2 384/3/2
f 384/3/2 369/3/2 385/3/2
f 370/3/2 371/3/2 386/3/2
f 386/3/2 371/3/2 387/3/2
f 372/3/2 373/3/2 388/3/2
f 388/3/2 373/3/2 389/3/2
f 374/3/2 375/3/2 390/3/2
f 390/3/2 375/3/2 391/3/2
f 376/3/2 377/3/2 392/3/2
f 392/3/2 377/3/2 393/3/2
f 378/3/2 379/3/2 394/3/2
f 394/3/2 379/3/2 395/3/2
f 380/3/2 381/3/2 396/3/2
f 396/3/2 381/3/2 397/3/2
f 382/3/2 383/3/2 398/3/2
f 398/3/2 383/3/2 399/3/2
f 400/3/2 401/3/2 408/3/2
f 408/3/2 401/3/2 409/3/2
f 402/3/2 403/3/2 410/3/2
f 410/3/2 403/3/2 411/3/2
f 404/3/2 405/3/2 412/3/2
f 412/3/2 405/3/2 413/3/2
f 406/3/2 407/3/2 414/3/2
f 414/3/2 407/3/2 415/3/2
f 416/3/2 417/3/2 432/3/2
f 432/3/2 417/3/2 433/3/2
f 418/3/2 419/3/2 434/3/2
f 434/3/2 419/3/2 435/3/2
f 420/3/2 421/3/2 436/3/2
f 436/3/2 421/3/2 437/3/2
f 422/3/2 423/3/2 438/3/2
f 438/3/2 423/3/2 439/3/2
f 424/3/2 425/3/2 440/3/2
f 440/3/2 425/3/2 441/3/2
f 426/3/2 427/3/2 442/3/2
f 442/3/2 427/3/2 443/3/2
f 428/3/2 429/3/2 444/3/2
f 444/3/2 429/3/2 445/3/2
f 430/3/2 431/3/2 446/3/2
f 446/3/2 431/3/2 447/3/2
f 448/3/2 449/3/2 456/3/2
f 456/3/2 449/3/2 457/3/2
f 450/3/2 451/3/2 458/3/2
f 458/3/2 451/3/2 459/3/2
f 452/3/2 453/3/2 460/3/2
f 460/3/2 453/3/2 461/3/2
f 454/3/2 455/3/2 462/3/2
f 462/3/2 455/3/2 463/3/2
f 464/3/2 465/3/2 480/3/2
f 480/3/2 465/3/2 481/3/2
f 466/3/2 467/3/2 482/3/2
f 482/3/2 467/3/2 483/3/2
f 468/3/2 469/3/2 484/3/2
f 484/3/2 469/3/2 485/3/2
f 470/3/2 471/3/2 486/3/2
f 486/3/2 471/3/2 487/3/2
f 472/3/2 473/3/2 488/3/2
f 488/3/2 473/3/2 489/3/2
f 474/3/2 475/3/2 490/3/2
f 490/3/2 475/3/2 491/3/2
f 476/3/2 477/3/2 492/3/2
f 492/3/2 477/3/2 493/3/2
f 478/3/2 479/3/2 494/3/2
f 494/3/2 479/3/2 495/3/2
f 496/3/2 497/3/2 504/3/2
f 504/3/2 497/3/2 505/3/2
f 498/3/2 499/3/2 506/3/2
f 506/3/2 499/3/2 507/3/2
f 500/3/2 501/3/2 508/3/2
f 508/3/2 501/3/2 509/3/2
f 502/3/2 503/3/2 510/3/2
f 510/3/2 503/3/2 511/3/2
f 512/2/2 513/2/2 514/2/2
f 514/2/2 513/2/2 515/2/2
f 520/2/3 517/2/3 516/2/3
f 520/1/3 518/1/3 517/1/3
f 521/3/3 519/3/3 518/3/3
f 521/1/3 518/1/3 520/1/3
f 522/3/3 519/3/3 521/3/3
f 523/3/3 519/3/3 522/3/3
f 525/2/3 520/2/3 516/2/3
f 526/3/3 521/3/3 520/3/3
f 526/2/3 520/2/3 525/2/3
f 527/1/3 522/1/3 521/1/3
f 527/3/3 521/3/3 526/3/3
f 528/3/3 524/3/3 523/3/3
f 528/1/3 522/1/3 527/1/3
f 528/3/3 523/3/3 522/3/3
f 529/2/3 525/2/3 516/2/3
f 529/3/3 526/3/3 525/3/3
f 530/2/3 527/2/3 526/2/3
f 530/3/3 526/3/3 529/3/3
f 531/3/3 528/3/3 527/3/3
f 531/2/3 527/2/3 530/2/3
f 532/3/3 524/3/3 528/3/3
f 532/3/3 528/3/3 531/3/3
f 533/2/3 531/2/3 530/2/3
f 533/2/3 530/2/3 529/2/3
f 534/1/3 532/1/3 531/1/3
f 534/2/3 531/2/3 533/2/3
f 535/3/3 524/3/3 532/3/3
f 535/1/3 532/1/3 534/1/3
f 536/1/3 534/1/3 533/1/3
f 536/2/3 533/2/3 529/2/3
f 537/3/3 535/3/3 534/3/3
f 537/1/3 534/1/3 536/1/3
f 538/3/3 524/3/3 535/3/3
f 538/3/3 535/3/3 537/3/3
f 539/2/3 529/2/3 516/2/3
f 539/2/3 536/2/3 529/2/3
f 540/3/3 537/3/3 536/3/3
f 540/2/3 536/2/3 539/2/3
f 541/1/3 538/1/3 537/1/3
f 541/3/3 537/3/3 540/3/3
f 542/3/3 524/3/3 538/3/3
f 542/1/3 538/1/3 541/1/3
f 543/3/3 524/3/3 542/3/3
f 544/3/3 541/3/3 540/3/3
f 544/2/3 539/2/3 516/2/3
f 544/3/3 540/3/3 539/3/3
f 544/3/3 542/3/3 541/3/3
f 545/3/3 542/3/3 544/3/3
f 546/1/3 543/1/3 542/1/3
f 546/3/3 542/3/3 545/3/3
f 547/3/3 524/3/3 543/3/3
f 547/1/3 543/1/3 546/1/3
f 548/2/3 545/2/3 544/2/3
f 549/3/3 546/3/3 545/3/3
f 549/2/3 545/2/3 548/2/3
f 549/3/3 547/3/3 546/3/3
f 550/3/3 547/3/3 549/3/3
f 551/3/3 524/3/3 547/3/3
f 551/3/3 547/3/3 550/3/3
f 552/3/3 524/3/3 551/3/3
f 553/2/3 548/2/3 544/2/3
f 553/3/3 549/3/3 548/3/3
f 554/1/3 550/1/3 549/1/3
f 554/3/3 549/3/3 553/3/3
f 555/3/3 551/3/3 550/3/3
f 555/1/3 550/1/3 554/1/3
f 556/3/3 551/3/3 555/3/3
f 557/2/3 553/2/3 544/2/3
f 557/2/3 554/2/3 553/2/3
f 557/2/3 556/2/3 555/2/3
f 557/2/3 555/2/3 554/2/3
f 558/2/3 556/2/3 557/2/3
f 559/2/3 556/2/3 558/2/3
f 560/2/3 556/2/3 559/2/3
f 561/2/3 544/2/3 516/2/3
f 561/2/3 557/2/3 544/2/3
f 562/3/3 558/3/3 557/3/3
f 562/2/3 557/2/3 561/2/3
f 563/1/3 559/1/3 558/1/3
f 563/3/3 558/3/3 562/3/3
f 564/3/3 560/3/3 559/3/3
f 564/1/3 559/1/3 563/1/3
f 565/3/3 560/3/3 564/3/3
f 567/2/3 561/2/3 516/2/3
f 567/3/3 562/3/3 561/3/3
f 568/1/3 563/1/3 562/1/3
f 568/3/3 562/3/3 567/3/3
f 569/3/3 564/3/3 563/3/3
f 569/1/3 563/1/3 568/1/3
f 570/1/3 565/1/3 564/1/3
f 570/3/3 564/3/3 569/3/3
f 571/3/3 566/3/3 565/3/3
f 571/1/3 565/1/3 570/1/3
f 572/2/3 569/2/3 568/2/3
f 572/2/3 568/2/3 567/2/3
f 573/1/3 570/1/3 569/1/3
f 573/2/3 569/2/3 572/2/3
f 574/3/3 571/3/3 570/3/3
f 574/1/3 570/1/3 573/1/3
f 575/3/3 566/3/3 571/3/3
f 575/3/3 571/3/3 574/3/3
f 576/3/3 574/3/3 573/3/3
f 576/3/3 573/3/3 572/3/3
f 576/2/3 572/2/3 567/2/3
f 577/3/3 574/3/3 576/3/3
f 578/1/3 575/1/3 574/1/3
f 578/3/3 574/3/3 577/3/3
f 579/3/3 566/3/3 575/3/3
f 579/1/3 575/1/3 578/1/3
f 580/2/3 577/2/3 576/2/3
f 580/2/3 576/2/3 567/2/3
f 581/3/3 578/3/3 577/3/3
f 581/2/3 577/2/3 580/2/3
f 581/3/3 579/3/3 578/3/3
f 582/3/3 579/3/3 581/3/3
f 583/2/3 580/2/3 567/2/3
f 583/3/3 581/3/3 580/3/3
f 584/1/3 582/1/3 581/1/3
f 584/3/3 581/3/3 583/3/3
f 585/3/3 579/3/3 582/3/3
f 585/1/3 582/1/3 584/1/3
f 586/3/3 566/3/3 579/3/3
f 586/3/3 579/3/3 585/3/3
f 587/2/3 584/2/3 583/2/3
f 587/2/3 567/2/3 516/2/3
f 587/2/3 583/2/3 567/2/3
f 588/3/3 585/3/3 584/3/3
f 588/2/3 584/2/3 587/2/3
f 589/1/3 586/1/3 585/1/3
f 589/3/3 585/3/3 588/3/3
f 590/3/3 566/3/3 586/3/3
f 590/1/3 586/1/3 589/1/3
f 591/2/3 587/2/3 516/2/3
f 591/3/3 588/3/3 587/3/3
f 592/2/3 589/2/3 588/2/3
f 592/3/3 588/3/3 591/3/3
f 593/3/3 590/3/3 589/3/3
f 593/2/3 589/2/3 592/2/3
f 594/3/3 566/3/3 590/3/3
f 594/3/3 590/3/3 593/3/3
f 595/3/3 566/3/3 594/3/3
f 596/3/3 593/3/3 592/3/3
f 596/2/3 592/2/3 591/2/3
f 596/3/3 594/3/3 593/3/3
f 597/3/3 594/3/3 596/3/3
f 598/2/3 596/2/3 591/2/3
f 598/2/3 597/2/3 596/2/3
f 599/2/3 597/2/3 598/2/3
f 600/2/3 597/2/3 599/2/3
f 601/2/3 597/2/3 600/2/3
f 602/2/3 598/2/3 591/2/3
f 602/3/3 599/3/3 598/3/3
f 603/2/3 600/2/3 599/2/3
f 603/3/3 599/3/3 602/3/3
f 604/3/3 601/3/3 600/3/3
f 604/2/3 600/2/3 603/2/3
f 605/3/3 601/3/3 604/3/3
f 607/2/3 603/2/3 602/2/3
f 607/2/3 602/2/3 591/2/3
f 608/3/3 604/3/3 603/3/3
f 608/2/3 603/2/3 607/2/3
f 609/1/3 605/1/3 604/1/3
f 609/3/3 604/3/3 608/3/3
f 610/3/3 606/3/3 605/3/3
f 610/1/3 605/1/3 609/1/3
f 611/1/3 608/1/3 607/1/3
f 611/2/3 607/2/3 591/2/3
f 612/3/3 610/3/3 609/3/3
f 612/1/3 608/1/3 611/1/3
f 612/3/3 609/3/3 608/3/3
f 613/2/3 591/2/3 516/2/3
f 613/2/3 611/2/3 591/2/3
f 614/3/3 612/3/3 611/3/3
f 614/2/3 611/2/3 613/2/3
f 615/3/3 610/3/3 612/3/3
f 615/3/3 612/3/3 614/3/3
f 616/3/3 610/3/3 615/3/3
f 617/3/3 614/3/3 613/3/3
f 617/2/3 613/2/3 516/2/3
f 617/3/3 615/3/3 614/3/3
f 618/3/3 615/3/3 617/3/3
f 619/1/3 616/1/3 615/1/3
f 619/3/3 615/3/3 618/3/3
f 620/3/3 610/3/3 616/3/3
f 620/1/3 616/1/3 619/1/3
f 621/3/3 606/3/3 610/3/3
f 621/3/3 610/3/3 620/3/3
f 622/3/3 619/3/3 618/3/3
f 622/3/3 620/3/3 619/3/3
f 622/2/3 618/2/3 617/2/3
f 623/3/3 620/3/3 622/3/3
f 624/1/3 621/1/3 620/1/3
f 624/3/3 620/3/3 623/3/3
f 625/3/3 606/3/3 621/3/3
f 625/1/3 621/1/3 624/1/3
f 626/2/3 623/2/3 622/2/3
f 626/2/3 622/2/3 617/2/3
f 627/3/3 624/3/3 623/3/3
f 627/2/3 623/2/3 626/2/3
f 627/3/3 625/3/3 624/3/3
f 628/3/3 625/3/3 627/3/3
f 629/3/3 606/3/3 625/3/3
f 629/3/3 625/3/3 628/3/3
f 630/2/3 626/2/3 617/2/3
f 630/3/3 628/3/3 627/3/3
f 630/3/3 627/3/3 626/3/3
f 631/3/3 628/3/3 630/3/3
f 632/1/3 629/1/3 628/1/3
f 632/3/3 628/3/3 631/3/3
f 633/3/3 606/3/3 629/3/3
f 633/1/3 629/1/3 632/1/3
f 634/3/3 606/3/3 633/3/3
f 635/3/3 632/3/3 631/3/3
f 635/2/3 631/2/3 630/2/3
f 635/3/3 633/3/3 632/3/3
f 636/3/3 633/3/3 635/3/3
f 637/2/3 635/2/3 630/2/3
f 637/2/3 636/2/3 635/2/3
f 638/2/3 636/2/3 637/2/3
f 639/2/3 636/2/3 638/2/3
f 640/2/3 630/2/3 617/2/3
f 640/2/3 617/2/3 516/2/3
f 640/2/3 637/2/3 630/2/3
f 641/2/3 637/2/3 640/2/3
f 642/3/3 638/3/3 637/3/3
f 642/2/3 637/2/3 641/2/3
f 643/1/3 639/1/3 638/1/3
f 643/3/3 638/3/3 642/3/3
f 644/1/3 639/1/3 643/1/3
f 646/3/3 641/3/3 640/3/3
f 646/2/3 640/2/3 516/2/3
f 647/2/3 642/2/3 641/2/3
f 647/3/3 641/3/3 646/3/3
f 648/1/3 643/1/3 642/1/3
f 648/2/3 642/2/3 647/2/3
f 649/3/3 644/3/3 643/3/3
f 649/1/3 643/1/3 648/1/3
f 649/3/3 645/3/3 644/3/3
f 650/3/3 648/3/3 647/3/3
f 650/2/3 647/2/3 646/2/3
f 650/3/3 649/3/3 648/3/3
f 651/3/3 649/3/3 650/3/3
f 652/3/3 645/3/3 649/3/3
f 652/3/3 649/3/3 651/3/3
f 653/3/3 645/3/3 652/3/3
f 654/1/3 651/1/3 650/1/3
f 654/2/3 650/2/3 646/2/3
f 655/3/3 652/3/3 651/3/3
f 655/1/3 651/1/3 654/1/3
f 656/1/3 653/1/3 652/1/3
f 656/3/3 652/3/3 655/3/3
f 657/3/3 645/3/3 653/3/3
f 657/1/3 653/1/3 656/1/3
f 658/1/3 656/1/3 655/1/3
f 658/2/3 655/2/3 654/2/3
f 659/3/3 657/3/3 656/3/3
f 659/1/3 656/1/3 658/1/3
f 660/2/3 646/2/3 516/2/3
f 660/2/3 658/2/3 654/2/3
f 660/2/3 654/2/3 646/2/3
f 661/3/3 659/3/3 658/3/3
f 661/2/3 658/2/3 660/2/3
f 662/3/3 657/3/3 659/3/3
f 662/3/3 659/3/3 661/3/3
f 663/3/3 661/3/3 660/3/3
f 663/2/3 660/2/3 516/2/3
f 664/3/3 661/3/3 663/3/3
f 665/2/3 662/2/3 661/2/3
f 665/3/3 661/3/3 664/3/3
f 666/3/3 657/3/3 662/3/3
f 666/2/3 662/2/3 665/2/3
f 667/3/3 645/3/3 657/3/3
f 667/3/3 657/3/3 666/3/3
f 668/3/3 666/3/3 665/3/3
f 668/3/3 665/3/3 664/3/3
f 668/2/3 664/2/3 663/2/3
f 669/3/3 666/3/3 668/3/3
f 670/1/3 667/1/3 666/1/3
f 670/3/3 666/3/3 669/3/3
f 671/3/3 645/3/3 667/3/3
f 671/1/3 667/1/3 670/1/3
f 672/3/3 645/3/3 671/3/3
f 673/3/3 670/3/3 669/3/3
f 673/2/3 669/2/3 668/2/3
f 673/3/3 671/3/3 670/3/3
f 674/3/3 671/3/3 673/3/3
f 675/2/3 668/2/3 663/2/3
f 675/2/3 663/2/3 516/2/3
f 675/2/3 674/2/3 673/2/3
f 675/2/3 673/2/3 668/2/3
f 676/2/3 674/2/3 675/2/3
f 679/3/3 678/3/3 677/3/3
f 680/3/3 678/3/3 679/3/3
f 683/3/3 682/3/3 681/3/3
f 684/3/3 682/3/3 683/3/3
f 687/3/3 686/3/3 685/3/3
f 688/3/3 686/3/3 687/3/3
f 691/3/3 690/3/3 689/3/3
f 692/3/3 690/3/3 691/3/3
f 695/3/3 694/3/3 693/3/3
f 696/3/3 694/3/3 695/3/3
f 699/3/3 698/3/3 697/3/3
f 700/3/3 698/3/3 699/3/3
f 703/3/3 702/3/3 701/3/3
f 704/3/3 702/3/3 703/3/3
f 707/3/3 706/3/3 705/3/3
f 708/3/3 706/3/3 707/3/3
f 711/3/3 710/3/3 709/3/3
f 712/3/3 710/3/3 711/3/3
f 715/3/3 714/3/3 713/3/3
f 716/3/3 714/3/3 715/3/3
f 719/3/3 718/3/3 717/3/3
f 720/3/3 718/3/3 719/3/3
f 723/3/3 722/3/3 721/3/3
f 724/3/3 722/3/3 723/3/3
f 727/3/3 726/3/3 725/3/3
f 728/3/3 726/3/3 727/3/3
f 731/3/3 730/3/3 729/3/3
f 732/3/3 730/3/3 731/3/3
f 735/3/3 734/3/3 733/3/3
f 736/3/3 734/3/3 735/3/3
f 739/3/3 738/3/3 737/3/3
f 740/3/3 738/3/3 739/3/3
f 743/3/3 742/3/3 741/3/3
f 744/3/3 742/3/3 743/3/3
f 747/3/3 746/3/3 745/3/3
f 748/3/3 746/3/3 747/3/3
f 751/3/3 750/3/3 749/3/3
f 752/3/3 750/3/3 751/3/3
f 755/3/3 754/3/3 753/3/3
f 756/3/3 754/3/3 755/3/3
f 759/3/3 758/3/3 757/3/3
f 760/3/3 758/3/3 759/3/3
f 763/3/3 762/3/3 761/3/3
f 764/3/3 762/3/3 763/3/3
f 767/3/3 766/3/3 765/3/3
f 768/3/3 766/3/3 767/3/3
f 771/3/3 770/3/3 769/3/3
f 772/3/3 770/3/3 771/3/3
f 775/3/3 774/3/3 773/3/3
f 776/3/3 774/3/3 775/3/3
f 779/3/3 778/3/3 777/3/3
f 780/3/3 778/3/3 779/3/3
f 783/3/3 782/3/3 781/3/3
f 784/3/3 782/3/3 783/3/3
f 787/3/3 786/3/3 785/3/3
f 788/3/3 786/3/3 787/3/3
f 791/3/3 790/3/3 789/3/3
f 792/3/3 790/3/3 791/3/3
f 795/3/3 794/3/3 793/3/3
f 796/3/3 794/3/3 795/3/3
f 799/3/3 798/3/3 797/3/3
f 800/3/3 798/3/3 799/3/3
f 803/3/3 802/3/3 801/3/3
f 804/3/3 802/3/3 803/3/3
f 807/3/3 806/3/3 805/3/3
f 808/3/3 806/3/3 807/3/3
f 811/3/3 810/3/3 809/3/3
f 812/3/3 810/3/3 811/3/3
f 815/3/3 814/3/3 813/3/3
f 816/3/3 814/3/3 815/3/3
f 819/3/3 818/3/3 817/3/3
f 820/3/3 818/3/3 819/3/3
f 823/3/3 822/3/3 821/3/3
f 824/3/3 822/3/3 823/3/3
f 827/3/3 826/3/3 825/3/3
f 828/3/3 826/3/3 827/3/3
f 831/3/3 830/3/3 829/3/3
f 832/3/3 830/3/3 831/3/3
f 835/3/3 834/3/3 833/3/3
f 836/3/3 834/3/3 835/3/3
f 839/3/3 838/3/3 837/3/3
f 840/3/3 838/3/3 839/3/3
f 843/3/3 842/3/3 841/3/3
f 844/3/3 842/3/3 843/3/3
f 847/3/3 846/3/3 845/3/3
f 848/3/3 846/3/3 847/3/3
f 851/3/3 850/3/3 849/3/3
f 852/3/3 850/3/3 851/3/3
f 853/3/4 854/3/4 855/3/4
f 855/3/4 854/3/4 856/3/4
f 857/3/4 858/3/4 859/3/4
f 859/3/4 858/3/4 860/3/4
f 861/3/4 862/3/4 863/3/4
f 863/3/4 862/3/4 864/3/4
f 865/3/4 866/3/4 867/3/4
f 867/3/4 866/3/4 868/3/4
f 869/3/4 870/3/4 871/3/4
f 871/3/4 870/3/4 872/3/4
f 873/3/4 874/3/4 875/3/4
f 875/3/4 874/3/4 876/3/4
f 877/3/4 878/3/4 879/3/4
f 879/3/4 878/3/4 880/3/4
f 881/3/4 882/3/4 883/3/4
f 883/3/4 882/3/4 884/3/4
f 885/3/4 886/3/4 887/3/4
f 887/3/4 886/3/4 888/3/4
f 889/3/4 890/3/4 891/3/4
f 891/3/4 890/3/4 892/3/4
f 893/3/4 894/3/4 895/3/4
f 895/3/4 894/3/4 896/3/4
f 897/3/4 898/3/4 899/3/4
f 899/3/4 898/3/4 900/3/4
f 901/3/4 902/3/4 903/3/4
f 903/3/4 902/3/4 904/3/4
f 905/3/4 906/3/4 907/3/4
f 907/3/4 906/3/4 908/3/4
f 909/3/4 910/3/4 911/3/4
f 911/3/4 910/3/4 912/3/4
f 913/3/4 914/3/4 915/3/4
f 915/3/4 914/3/4 916/3/4
f 917/3/4 918/3/4 919/3/4
f 919/3/4 918/3/4 920/3/4
f 921/3/4 922/3/4 923/3/4
f 923/3/4 922/3/4 924/3/4
f 925/3/4 926/3/4 927/3/4
f 927/3/4 926/3/4 928/3/4
f 929/3/4 930/3/4 931/3/4
f 931/3/4 930/3/4 932/3/4
f 933/3/4 934/3/4 935/3/4
f 935/3/4 934/3/4 936/3/4
f 937/3/4 938/3/4 939/3/4
f 939/3/4 938/3/4 940/3/4
f 941/3/4 942/3/4 943/3/4
f 943/3/4 942/3/4 944/3/4
f 945/3/4 946/3/4 947/3/4
f 947/3/4 946/3/4 948/3/4
f 949/3/4 950/3/4 951/3/4
f 951/3/4 950/3/4 952/3/4
f 953/3/4 954/3/4 955/3/4
f 955/3/4 954/3/4 956/3/4
f 957/3/4 958/3/4 959/3/4
f 959/3/4 958/3/4 960/3/4
f 961/3/4 962/3/4 963/3/4
f 963/3/4 962/3/4 964/3/4
f 965/3/4 966/3/4 967/3/4
f 967/3/4 966/3/4 968/3/4
f 969/3/4 970/3/4 971/3/4
f 971/3/4 970/3/4 972/3/4
f 973/3/4 974/3/4 975/3/4
f 975/3/4 974/3/4 976/3/4
f 977/3/4 978/3/4 979/3/4
f 979/3/4 978/3/4 980/3/4
f 981/3/4 982/3/4 983/3/4
f 983/3/4 982/3/4 984/3/4
f 985/3/4 986/3/4 987/3/4
f 987/3/4 986/3/4 988/3/4
f 989/3/4 990/3/4 991/3/4
f 991/3/4 990/3/4 992/3/4
f 993/3/4 994/3/4 995/3/4
f 995/3/4 994/3/4 996/3/4
f 997/3/4 998/3/4 999/3/4
f 999/3/4 998/3/4 1000/3/4
f 1001/3/4 1002/3/4 1003/3/4
f 1003/3/4 1002/3/4 1004/3/4
f 1005/3/4 1006/3/4 1007/3/4
f 1007/3/4 1006/3/4 1008/3/4
f 1009/3/4 1010/3/4 1011/3/4
f 1011/3/4 1010/3/4 1012/3/4
f 1013/3/4 1014/3/4 1015/3/4
f 1015/3/4 1014/3/4 1016/3/4
f 1017/3/4 1018/3/4 1019/3/4
f 1019/3/4 1018/3/4 1020/3/4
f 1021/3/4 1022/3/4 1023/3/4
f 1023/3/4 1022/3/4 1024/3/4
f 1025/3/4 1026/3/4 1027/3/4
f 1027/3/4 1026/3/4 1028/3/4
f 1029/3/4 1030/3/4 1031/3/4
f 1031/3/4 1030/3/4 1032/3/4
f 1033/3/4 1034/3/4 1035/3/4
f 1035/3/4 1034/3/4 1036/3/4
f 1037/3/4 1038/3/4 1039/3/4
f 1039/3/4 1038/3/4 1040/3/4
f 1041/3/4 1042/3/4 1043/3/4
f 1043/3/4 1042/3/4 1044/3/4
f 1045/2/4 1046/2/4 1047/2/4
f 1047/2/4 1046/2/4 1048/2/4
f 1051/2/5 1050/2/5 1049/2/5
f 1052/2/5 1050/2/5 1051/2/5
f 1053/3/6 1054/3/6 1070/3/6
f 1070/3/6 1054/3/6 1071/3/6
f 1055/3/6 1056/3/6 1072/3/6
f 1056/2/6 1057/2/6 1073/2/6
f 1072/3/6 1056/3/6 1073/3/6
f 1057/3/6 1058/3/6 1074/3/6
f 1073/2/6 1057/2/6 1074/2/6
f 1074/3/6 1058/3/6 1075/3/6
f 1059/3/6 1060/3/6 1076/3/6
f 1060/2/6 1061/2/6 1077/2/6
f 1076/3/6 1060/3/6 1077/3/6
f 1061/3/6 1062/3/6 1078/3/6
f 1077/2/6 1061/2/6 1078/2/6
f 1078/3/6 1062/3/6 1079/3/6
f 1063/3/6 1064/3/6 1080/3/6
f 1064/2/6 1065/2/6 1081/2/6
f 1080/3/6 1064/3/6 1081/3/6
f 1065/1/6 1066/1/6 1082/1/6
f 1081/2/6 1065/2/6 1082/2/6
f 1082/1/6 1066/1/6 1083/1/6
f 1067/3/6 1068/3/6 1084/3/6
f 1068/2/6 1069/2/6 1085/2/6
f 1084/3/6 1068/3/6 1085/3/6
f 1073/2/6 1074/2/6 1089/2/6
f 1089/2/6 1074/2/6 1090/2/6
f 1077/2/6 1078/2/6 1093/2/6
f 1093/2/6 1078/2/6 1094/2/6
f 1081/2/6 1082/2/6 1097/2/6
f 1097/2/6 1082/2/6 1098/2/6
f 1085/2/6 1069/2/6 1101/2/6
f 1086/3/6 1087/3/6 1102/3/6
f 1102/3/6 1087/3/6 1103/3/6
f 1088/1/6 1089/1/6 1104/1/6
f 1089/2/6 1090/2/6 1105/2/6
f 1104/1/6 1089/1/6 1105/1/6
f 1090/3/6 1091/3/6 1106/3/6
f 1105/2/6 1090/2/6 1106/2/6
f 1106/3/6 1091/3/6 1107/3/6
f 1092/3/6 1093/3/6 1108/3/6
f 1093/2/6 1094/2/6 1109/2/6
f 1108/3/6 1093/3/6 1109/3/6
f 1094/3/6 1095/3/6 1110/3/6
f 1109/2/6 1094/2/6 1110/2/6
f 1110/3/6 1095/3/6 1111/3/6
f 1096/3/6 1097/3/6 1112/3/6
f 1097/2/6 1098/2/6 1113/2/6
f 1112/3/6 1097/3/6 1113/3/6
f 1098/3/6 1099/3/6 1114/3/6
f 1113/2/6 1098/2/6 1114/2/6
f 1114/3/6 1099/3/6 1115/3/6
f 1100/1/6 1101/1/6 1116/1/6
f 1101/2/6 1069/2/6 1117/2/6
f 1116/1/6 1101/1/6 1117/1/6
f 1112/2/6 1113/2/6 1118/2/6
f 1108/2/6 1109/2/6 1118/2/6
f 1116/2/6 1117/2/6 1118/2/6
f 1104/2/6 1105/2/6 1118/2/6
f 1113/2/6 1114/2/6 1118/2/6
f 1114/2/6 1115/2/6 1118/2/6
f 1109/2/6 1110/2/6 1118/2/6
f 1102/2/6 1103/2/6 1118/2/6
f 1105/2/6 1106/2/6 1118/2/6
f 1103/2/6 1104/2/6 1118/2/6
f 1106/2/6 1107/2/6 1118/2/6
f 1115/2/6 1116/2/6 1118/2/6
f 1107/2/6 1108/2/6 1118/2/6
f 1111/2/6 1112/2/6 1118/2/6
f 1110/2/6 1111/2/6 1118/2/6
f 1118/2/6 1117/2/6 1119/2/6
f 1119/2/6 1117/2/6 1120/2/6
f 1120/2/6 1117/2/6 1121/2/6
f 1121/2/6 1117/2/6 1122/2/6
f 1122/2/6 1117/2/6 1123/2/6
f 1123/2/6 1117/2/6 1124/2/6
f 1124/2/6 1117/2/6 1125/2/6
f 1125/2/6 1117/2/6 1126/2/6
f 1126/2/6 1117/2/6 1127/2/6
f 1127/2/6 1117/2/6 1128/2/6
f 1128/2/6 1117/2/6 1129/2/6
f 1129/2/6 1117/2/6 1130/2/6
f 1130/2/6 1117/2/6 1131/2/6
f 1131/2/6 1117/2/6 1132/2/6
f 1117/2/6 1069/2/6 1133/2/6
f 1132/2/6 1117/2/6 1133/2/6
f 1118/3/6 1119/3/6 1134/3/6
f 1134/3/6 1119/3/6 1135/3/6
f 1120/3/6 1121/3/6 1136/3/6
f 1121/2/6 1122/2/6 1137/2/6
f 1136/3/6 1121/3/6 1137/3/6
f 1122/3/6 1123/3/6 1138/3/6
f 1137/2/6 1122/2/6 1138/2/6
f 1138/3/6 1123/3/6 1139/3/6
f 1124/3/6 1125/3/6 1140/3/6
f 1125/2/6 1126/2/6 1141/2/6
f 1140/3/6 1125/3/6 1141/3/6
f 1126/3/6 1127/3/6 1142/3/6
f 1141/2/6 1126/2/6 1142/2/6
f 1142/3/6 1127/3/6 1143/3/6
f 1128/3/6 1129/3/6 1144/3/6
f 1129/2/6 1130/2/6 1145/2/6
f 1144/3/6 1129/3/6 1145/3/6
f 1130/1/6 1131/1/6 1146/1/6
f 1145/2/6 1130/2/6 1146/2/6
f 1146/1/6 1131/1/6 1147/1/6
f 1132/3/6 1133/3/6 1148/3/6
f 1133/2/6 1069/2/6 1149/2/6
f 1148/3/6 1133/3/6 1149/3/6
f 1137/2/6 1138/2/6 1153/2/6
f 1153/2/6 1138/2/6 1154/2/6
f 1141/2/6 1142/2/6 1157/2/6
f 1157/2/6 1142/2/6 1158/2/6
f 1145/2/6 1146/2/6 1161/2/6
f 1161/2/6 1146/2/6 1162/2/6
f 1149/2/6 1069/2/6 1165/2/6
f 1150/3/6 1151/3/6 1166/3/6
f 1166/3/6 1151/3/6 1167/3/6
f 1152/1/6 1153/1/6 1168/1/6
f 1153/2/6 1154/2/6 1169/2/6
f 1168/1/6 1153/1/6 1169/1/6
f 1154/3/6 1155/3/6 1170/3/6
f 1169/2/6 1154/2/6 1170/2/6
f 1170/3/6 1155/3/6 1171/3/6
f 1156/3/6 1157/3/6 1172/3/6
f 1157/2/6 1158/2/6 1173/2/6
f 1172/3/6 1157/3/6 1173/3/6
f 1158/3/6 1159/3/6 1174/3/6
f 1173/2/6 1158/2/6 1174/2/6
f 1174/3/6 1159/3/6 1175/3/6
f 1160/3/6 1161/3/6 1176/3/6
f 1161/2/6 1162/2/6 1177/2/6
f 1176/3/6 1161/3/6 1177/3/6
f 1162/3/6 1163/3/6 1178/3/6
f 1177/2/6 1162/2/6 1178/2/6
f 1178/3/6 1163/3/6 1179/3/6
f 1164/1/6 1165/1/6 1180/1/6
f 1165/2/6 1069/2/6 1181/2/6
f 1180/1/6 1165/1/6 1181/1/6
f 1176/2/6 1177/2/6 1182/2/6
f 1172/2/6 1173/2/6 1182/2/6
f 1180/2/6 1181/2/6 1182/2/6
f 1168/2/6 1169/2/6 1182/2/6
f 1177/2/6 1178/2/6 1182/2/6
f 1178/2/6 1179/2/6 1182/2/6
f 1173/2/6 1174/2/6 1182/2/6
f 1166/2/6 1167/2/6 1182/2/6
f 1169/2/6 1170/2/6 1182/2/6
f 1167/2/6 1168/2/6 1182/2/6
f 1170/2/6 1171/2/6 1182/2/6
f 1179/2/6 1180/2/6 1182/2/6
f 1171/2/6 1172/2/6 1182/2/6
f 1175/2/6 1176/2/6 1182/2/6
f 1174/2/6 1175/2/6 1182/2/6
f 1182/2/6 1181/2/6 1183/2/6
f 1183/2/6 1181/2/6 1184/2/6
f 1184/2/6 1181/2/6 1185/2/6
f 1185/2/6 1181/2/6 1186/2/6
f 1186/2/6 1181/2/6 1187/2/6
f 1187/2/6 1181/2/6 1188/2/6
f 1188/2/6 1181/2/6 1189/2/6
f 1189/2/6 1181/2/6 1190/2/6
f 1190/2/6 1181/2/6 1191/2/6
f 1191/2/6 1181/2/6 1192/2/6
f 1192/2/6 1181/2/6 1193/2/6
f 1193/2/6 1181/2/6 1194/2/6
f 1194/2/6 1181/2/6 1195/2/6
f 1195/2/6 1181/2/6 1196/2/6
f 1181/2/6 1069/2/6 1197/2/6
f 1196/2/6 1181/2/6 1197/2/6
f 1182/3/6 1183/3/6 1198/3/6
f 1198/3/6 1183/3/6 1199/3/6
f 1184/3/6 1185/3/6 1200/3/6
f 1185/2/6 1186/2/6 1201/2/6
f 1200/3/6 1185/3/6 1201/3/6
f 1186/3/6 1187/3/6 1202/3/6
f 1201/2/6 1186/2/6 1202/2/6
f 1202/3/6 1187/3/6 1203/3/6
f 1188/3/6 1189/3/6 1204/3/6
f 1189/2/6 1190/2/6 1205/2/6
f 1204/3/6 1189/3/6 1205/3/6
f 1190/3/6 1191/3/6 1206/3/6
f 1205/2/6 1190/2/6 1206/2/6
f 1206/3/6 1191/3/6 1207/3/6
f 1192/3/6 1193/3/6 1208/3/6
f 1193/2/6 1194/2/6 1209/2/6
f 1208/3/6 1193/3/6 1209/3/6
f 1194/1/6 1195/1/6 1210/1/6
f 1209/2/6 1194/2/6 1210/2/6
f 1210/1/6 1195/1/6 1211/1/6
f 1196/3/6 1197/3/6 1212/3/6
f 1197/2/6 1069/2/6 1213/2/6
f 1212/3/6 1197/3/6 1213/3/6
f 1201/2/6 1202/2/6 1217/2/6
f 1217/2/6 1202/2/6 1218/2/6
f 1205/2/6 1206/2/6 1221/2/6
f 1221/2/6 1206/2/6 1222/2/6
f 1209/2/6 1210/2/6 1225/2/6
f 1225/2/6 1210/2/6 1226/2/6
f 1213/2/6 1069/2/6 1229/2/6
f 1214/3/6 1215/3/6 1230/3/6
f 1230/3/6 1215/3/6 1231/3/6
f 1216/1/6 1217/1/6 1232/1/6
f 1217/2/6 1218/2/6 1233/2/6
f 1232/1/6 1217/1/6 1233/1/6
f 1218/3/6 1219/3/6 1234/3/6
f 1233/2/6 1218/2/6 1234/2/6
f 1234/3/6 1219/3/6 1235/3/6
f 1220/3/6 1221/3/6 1236/3/6
f 1221/2/6 1222/2/6 1237/2/6
f 1236/3/6 1221/3/6 1237/3/6
f 1222/3/6 1223/3/6 1238/3/6
f 1237/2/6 1222/2/6 1238/2/6
f 1238/3/6 1223/3/6 1239/3/6
f 1224/3/6 1225/3/6 1240/3/6
f 1225/2/6 1226/2/6 1241/2/6
f 1240/3/6 1225/3/6 1241/3/6
f 1226/3/6 1227/3/6 1242/3/6
f 1241/2/6 1226/2/6 1242/2/6
f 1242/3/6 1227/3/6 1243/3/6
f 1228/1/6 1229/1/6 1244/1/6
f 1229/2/6 1069/2/6 1245/2/6
f 1244/1/6 1229/1/6 1245/1/6
f 1240/2/6 1241/2/6 1246/2/6
f 1236/2/6 1237/2/6 1246/2/6
f 1244/2/6 1245/2/6 1246/2/6
f 1232/2/6 1233/2/6 1246/2/6
f 1241/2/6 1242/2/6 1246/2/6
f 1242/2/6 1243/2/6 1246/2/6
f 1237/2/6 1238/2/6 1246/2/6
f 1230/2/6 1231/2/6 1246/2/6
f 1233/2/6 1234/2/6 1246/2/6
f 1231/2/6 1232/2/6 1246/2/6
f 1234/2/6 1235/2/6 1246/2/6
f 1243/2/6 1244/2/6 1246/2/6
f 1235/2/6 1236/2/6 1246/2/6
f 1239/2/6 1240/2/6 1246/2/6
f 1238/2/6 1239/2/6 1246/2/6
f 1246/2/6 1245/2/6 1247/2/6
f 1247/2/6 1245/2/6 1248/2/6
f 1248/2/6 1245/2/6 1249/2/6
f 1249/2/6 1245/2/6 1250/2/6
f 1250/2/6 1245/2/6 1251/2/6
f 1251/2/6 1245/2/6 1252/2/6
f 1252/2/6 1245/2/6 1253/2/6
f 1253/2/6 1245/2/6 1254/2/6
f 1254/2/6 1245/2/6 1255/2/6
f 1255/2/6 1245/2/6 1256/2/6
f 1256/2/6 1245/2/6 1257/2/6
f 1257/2/6 1245/2/6 1258/2/6
f 1258/2/6 1245/2/6 1259/2/6
f 1259/2/6 1245/2/6 1260/2/6
f 1245/2/6 1069/2/6 1261/2/6
f 1260/2/6 1245/2/6 1261/2/6
f 1246/3/6 1247/3/6 1262/3/6
f 1262/3/6 1247/3/6 1263/3/6
f 1248/3/6 1249/3/6 1264/3/6
f 1249/2/6 1250/2/6 1265/2/6
f 1264/3/6 1249/3/6 1265/3/6
f 1250/3/6 1251/3/6 1266/3/6
f 1265/2/6 1250/2/6 1266/2/6
f 1266/3/6 1251/3/6 1267/3/6
f 1252/3/6 1253/3/6 1268/3/6
f 1253/2/6 1254/2/6 1269/2/6
f 1268/3/6 1253/3/6 1269/3/6
f 1254/3/6 1255/3/6 1270/3/6
f 1269/2/6 1254/2/6 1270/2/6
f 1270/3/6 1255/3/6 1271/3/6
f 1256/3/6 1257/3/6 1272/3/6
f 1257/2/6 1258/2/6 1273/2/6
f 1272/3/6 1257/3/6 1273/3/6
f 1258/1/6 1259/1/6 1274/1/6
f 1273/2/6 1258/2/6 1274/2/6
f 1274/1/6 1259/1/6 1275/1/6
f 1260/3/6 1261/3/6 1276/3/6
f 1261/2/6 1069/2/6 1277/2/6
f 1276/3/6 1261/3/6 1277/3/6
f 1265/2/6 1266/2/6 1281/2/6
f 1281/2/6 1266/2/6 1282/2/6
f 1269/2/6 1270/2/6 1285/2/6
f 1285/2/6 1270/2/6 1286/2/6
f 1273/2/6 1274/2/6 1289/2/6
f 1289/2/6 1274/2/6 1290/2/6
f 1277/2/6 1069/2/6 1293/2/6
f 1278/3/6 1279/3/6 1294/3/6
f 1294/3/6 1279/3/6 1295/3/6
f 1280/1/6 1281/1/6 1296/1/6
f 1281/2/6 1282/2/6 1297/2/6
f 1296/1/6 1281/1/6 1297/1/6
f 1282/3/6 1283/3/6 1298/3/6
f 1297/2/6 1282/2/6 1298/2/6
f 1298/3/6 1283/3/6 1299/3/6
f 1284/3/6 1285/3/6 1300/3/6
f 1285/2/6 1286/2/6 1301/2/6
f 1300/3/6 1285/3/6 1301/3/6
f 1286/3/6 1287/3/6 1302/3/6
f 1301/2/6 1286/2/6 1302/2/6
f 1302/3/6 1287/3/6 1303/3/6
f 1288/3/6 1289/3/6 1304/3/6
f 1289/2/6 1290/2/6 1305/2/6
f 1304/3/6 1289/3/6 1305/3/6
f 1290/3/6 1291/3/6 1306/3/6
f 1305/2/6 1290/2/6 1306/2/6
f 1306/3/6 1291/3/6 1307/3/6
f 1292/1/6 1293/1/6 1308/1/6
f 1293/2/6 1069/2/6 1309/2/6
f 1308/1/6 1293/1/6 1309/1/6
f 1304/2/6 1305/2/6 1310/2/6
f 1300/2/6 1301/2/6 1310/2/6
f 1308/2/6 1309/2/6 1310/2/6
f 1296/2/6 1297/2/6 1310/2/6
f 1305/2/6 1306/2/6 1310/2/6
f 1306/2/6 1307/2/6 1310/2/6
f 1301/2/6 1302/2/6 1310/2/6
f 1294/2/6 1295/2/6 1310/2/6
f 1297/2/6 1298/2/6 1310/2/6
f 1295/2/6 1296/2/6 1310/2/6
f 1298/2/6 1299/2/6 1310/2/6
f 1307/2/6 1308/2/6 1310/2/6
f 1299/2/6 1300/2/6 1310/2/6
f 1303/2/6 1304/2/6 1310/2/6
f 1302/2/6 1303/2/6 1310/2/6
f 1309/2/6 1069/2/6 1311/2/6
f 1310/2/6 1309/2/6 1311/2/6
f 1312/3/6 1313/3/6 1321/3/6
f 1321/3/6 1313/3/6 1322/3/6
f 1314/3/6 1315/3/6 1325/3/6
f 1325/3/6 1315/3/6 1326/3/6
f 1316/3/6 1317/3/6 1329/3/6
f 1329/3/6 1317/3/6 1330/3/6
f 1318/3/6 1319/3/6 1333/3/6
f 1333/3/6 1319/3/6 1334/3/6
f 1322/3/6 1323/3/6 1336/3/6
f 1320/3/6 1321/3/6 1336/3/6
f 1321/3/6 1322/3/6 1336/3/6
f 1336/3/6 1323/3/6 1337/3/6
f 1337/3/6 1323/3/6 1338/3/6
f 1338/3/6 1323/3/6 1339/3/6
f 1326/3/6 1327/3/6 1340/3/6
f 1324/3/6 1325/3/6 1340/3/6
f 1325/3/6 1326/3/6 1340/3/6
f 1340/3/6 1327/3/6 1341/3/6
f 1341/3/6 1327/3/6 1342/3/6
f 1342/3/6 1327/3/6 1343/3/6
f 1330/3/6 1331/3/6 1344/3/6
f 1328/3/6 1329/3/6 1344/3/6
f 1329/3/6 1330/3/6 1344/3/6
f 1344/3/6 1331/3/6 1345/3/6
f 1345/3/6 1331/3/6 1346/3/6
f 1346/3/6 1331/3/6 1347/3/6
f 1334/3/6 1335/3/6 1348/3/6
f 1333/3/6 1334/3/6 1348/3/6
f 1332/3/6 1333/3/6 1348/3/6
f 1348/3/6 1335/3/6 1349/3/6
f 1349/3/6 1335/3/6 1350/3/6
f 1350/3/6 1335/3/6 1351/3/6
f 1337/3/6 1338/3/6 1352/3/6
f 1352/3/6 1338/3/6 1353/3/6
f 1341/3/6 1342/3/6 1354/3/6
f 1354/3/6 1342/3/6 1355/3/6
f 1345/3/6 1346/3/6 1356/3/6
f 1356/3/6 1346/3/6 1357/3/6
f 1349/3/6 1350/3/6 1358/3/6
f 1358/3/6 1350/3/6 1359/3/6
f 1360/3/6 1361/3/6 1369/3/6
f 1369/3/6 1361/3/6 1370/3/6
f 1362/3/6 1363/3/6 1373/3/6
f 1373/3/6 1363/3/6 1374/3/6
f 1364/3/6 1365/3/6 1377/3/6
f 1377/3/6 1365/3/6 1378/3/6
f 1366/3/6 1367/3/6 1381/3/6
f 1381/3/6 1367/3/6 1382/3/6
f 1370/3/6 1371/3/6 1384/3/6
f 1368/3/6 1369/3/6 1384/3/6
f 1369/3/6 1370/3/6 1384/3/6
f 1384/3/6 1371/3/6 1385/3/6
f 1385/3/6 1371/3/6 1386/3/6
f 1386/3/6 1371/3/6 1387/3/6
f 1374/3/6 1375/3/6 1388/3/6
f 1372/3/6 1373/3/6 1388/3/6
f 1373/3/6 1374/3/6 1388/3/6
f 1388/3/6 1375/3/6 1389/3/6
f 1389/3/6 1375/3/6 1390/3/6
f 1390/3/6 1375/3/6 1391/3/6
f 1378/3/6 1379/3/6 1392/3/6
f 1376/3/6 1377/3/6 1392/3/6
f 1377/3/6 1378/3/6 1392/3/6
f 1392/3/6 1379/3/6 1393/3/6
f 1393/3/6 1379/3/6 1394/3/6
f 1394/3/6 1379/3/6 1395/3/6
f 1381/3/6 1382/3/6 1396/3/6
f 1382/3/6 1383/3/6 1396/3/6
f 1380/3/6 1381/3/6 1396/3/6
f 1396/3/6 1383/3/6 1397/3/6
f 1397/3/6 1383/3/6 1398/3/6
f 1398/3/6 1383/3/6 1399/3/6
f 1385/3/6 1386/3/6 1400/3/6
f 1400/3/6 1386/3/6 1401/3/6
f 1389/3/6 1390/3/6 1402/3/6
f 1402/3/6 1390/3/6 1403/3/6
f 1393/3/6 1394/3/6 1404/3/6
f 1404/3/6 1394/3/6 1405/3/6
f 1397/3/6 1398/3/6 1406/3/6
f 1406/3/6 1398/3/6 1407/3/6
f 1408/3/6 1409/3/6 1417/3/6
f 1417/3/6 1409/3/6 1418/3/6
f 1410/3/6 1411/3/6 1421/3/6
f 1421/3/6 1411/3/6 1422/3/6
f 1412/3/6 1413/3/6 1425/3/6
f 1425/3/6 1413/3/6 1426/3/6
f 1414/3/6 1415/3/6 1429/3/6
f 1429/3/6 1415/3/6 1430/3/6
f 1418/3/6 1419/3/6 1432/3/6
f 1416/3/6 1417/3/6 1432/3/6
f 1417/3/6 1418/3/6 1432/3/6
f 1432/3/6 1419/3/6 1433/3/6
f 1433/3/6 1419/3/6 1434/3/6
f 1434/3/6 1419/3/6 1435/3/6
f 1422/3/6 1423/3/6 1436/3/6
f 1420/3/6 1421/3/6 1436/3/6
f 1421/3/6 1422/3/6 1436/3/6
f 1436/3/6 1423/3/6 1437/3/6
f 1437/3/6 1423/3/6 1438/3/6
f 1438/3/6 1423/3/6 1439/3/6
f 1426/3/6 1427/3/6 1440/3/6
f 1424/3/6 1425/3/6 1440/3/6
f 1425/3/6 1426/3/6 1440/3/6
f 1440/3/6 1427/3/6 1441/3/6
f 1441/3/6 1427/3/6 1442/3/6
f 1442/3/6 1427/3/6 1443/3/6
f 1429/3/6 1430/3/6 1444/3/6
f 1430/3/6 1431/3/6 1444/3/6
f 1428/3/6 1429/3/6 1444/3/6
f 1444/3/6 1431/3/6 1445/3/6
f 1445/3/6 1431/3/6 1446/3/6
f 1446/3/6 1431/3/6 1447/3/6
f 1433/3/6 1434/3/6 1448/3/6
f 1448/3/6 1434/3/6 1449/3/6
f 1437/3/6 1438/3/6 1450/3/6
f 1450/3/6 1438/3/6 1451/3/6
f 1441/3/6 1442/3/6 1452/3/6
f 1452/3/6 1442/3/6 1453/3/6
f 1445/3/6 1446/3/6 1454/3/6
f 1454/3/6 1446/3/6 1455/3/6
f 1456/3/6 1457/3/6 1465/3/6
f 1465/3/6 1457/3/6 1466/3/6
f 1458/3/6 1459/3/6 1469/3/6
f 1469/3/6 1459/3/6 1470/3/6
f 1460/3/6 1461/3/6 1473/3/6
f 1473/3/6 1461/3/6 1474/3/6
f 1462/3/6 1463/3/6 1477/3/6
f 1477/3/6 1463/3/6 1478/3/6
f 1466/3/6 1467/3/6 1480/3/6
f 1464/3/6 1465/3/6 1480/3/6
f 1465/3/6 1466/3/6 1480/3/6
f 1480/3/6 1467/3/6 1481/3/6
f 1481/3/6 1467/3/6 1482/3/6
f 1482/3/6 1467/3/6 1483/3/6
f 1470/3/6 1471/3/6 1484/3/6
f 1468/3/6 1469/3/6 1484/3/6
f 1469/3/6 1470/3/6 1484/3/6
f 1484/3/6 1471/3/6 1485/3/6
f 1485/3/6 1471/3/6 1486/3/6
f 1486/3/6 1471/3/6 1487/3/6
f 1474/3/6 1475/3/6 1488/3/6
f 1472/3/6 1473/3/6 1488/3/6
f 1473/3/6 1474/3/6 1488/3/6
f 1488/3/6 1475/3/6 1489/3/6
f 1489/3/6 1475/3/6 1490/3/6
f 1490/3/6 1475/3/6 1491/3/6
f 1477/3/6 1478/3/6 1492/3/6
f 1478/3/6 1479/3/6 1492/3/6
f 1476/3/6 1477/3/6 1492/3/6
f 1492/3/6 1479/3/6 1493/3/6
f 1493/3/6 1479/3/6 1494/3/6
f 1494/3/6 1479/3/6 1495/3/6
f 1481/3/6 1482/3/6 1496/3/6
f 1496/3/6 1482/3/6 1497/3/6
f 1485/3/6 1486/3/6 1498/3/6
f 1498/3/6 1486/3/6 1499/3/6
f 1489/3/6 1490/3/6 1500/3/6
f 1500/3/6 1490/3/6 1501/3/6
f 1493/3/6 1494/3/6 1502/3/6
f 1502/3/6 1494/3/6 1503/3/6
