# MagicaVoxel @ Ephtracy

# group
o 

# material
mtllib Floor_02.mtl
usemtl palette

# normals
vn -1 0 0
vn 1 0 0
vn 0 0 1
vn 0 0 -1
vn 0 -1 0
vn 0 1 0

# texcoords
vt 0.0214844 0.5
vt 0.0253906 0.5
vt 0.0292969 0.5

# verts
v -4 0 2
v -4 0 -2
v -4 3.3 -0.4
v -4 3.3 -0.5
v -4 3.3 -1.2
v -4 3.3 -1.3
v -4 3.4 1.7
v -4 3.4 1.6
v -4 3.4 1
v -4 3.4 0.9
v -4 3.4 0.5
v -4 3.4 0.4
v -4 3.4 -2.38419e-07
v -4 3.4 -0.1
v -4 3.4 -0.4
v -4 3.4 -0.5
v -4 3.4 -0.6
v -4 3.4 -0.8
v -4 3.4 -0.9
v -4 3.4 -1.1
v -4 3.4 -1.2
v -4 3.4 -1.3
v -4 3.4 -1.4
v -4 3.4 -1.6
v -4 3.4 -1.7
v -4 3.5 2
v -4 3.5 1.9
v -4 3.5 1.8
v -4 3.5 1.7
v -4 3.5 1.6
v -4 3.5 1.5
v -4 3.5 1.4
v -4 3.5 1.2
v -4 3.5 1.1
v -4 3.5 1
v -4 3.5 0.9
v -4 3.5 0.8
v -4 3.5 0.6
v -4 3.5 0.5
v -4 3.5 0.4
v -4 3.5 0.3
v -4 3.5 -2.38419e-07
v -4 3.5 -0.1
v -4 3.5 -0.2
v -4 3.5 -0.3
v -4 3.5 -0.4
v -4 3.5 -0.5
v -4 3.5 -0.6
v -4 3.5 -0.8
v -4 3.5 -0.9
v -4 3.5 -1
v -4 3.5 -1.1
v -4 3.5 -1.2
v -4 3.5 -1.3
v -4 3.5 -1.4
v -4 3.5 -1.6
v -4 3.5 -1.7
v -4 3.5 -1.8
v -4 3.6 2
v -4 3.6 1.9
v -4 3.6 1.8
v -4 3.6 1.7
v -4 3.6 1.6
v -4 3.6 1.5
v -4 3.6 1.4
v -4 3.6 1.3
v -4 3.6 1.2
v -4 3.6 1.1
v -4 3.6 0.9
v -4 3.6 0.8
v -4 3.6 0.7
v -4 3.6 0.6
v -4 3.6 0.5
v -4 3.6 0.4
v -4 3.6 0.3
v -4 3.6 0.2
v -4 3.6 -2.38419e-07
v -4 3.6 -0.1
v -4 3.6 -0.2
v -4 3.6 -0.3
v -4 3.6 -0.4
v -4 3.6 -0.5
v -4 3.6 -0.6
v -4 3.6 -0.7
v -4 3.6 -0.8
v -4 3.6 -0.9
v -4 3.6 -1
v -4 3.6 -1.1
v -4 3.6 -1.3
v -4 3.6 -1.4
v -4 3.6 -1.5
v -4 3.6 -1.6
v -4 3.6 -1.7
v -4 3.6 -1.8
v -4 3.7 2
v -4 3.7 1.9
v -4 3.7 1.8
v -4 3.7 1.7
v -4 3.7 1.6
v -4 3.7 1.5
v -4 3.7 1.4
v -4 3.7 1.3
v -4 3.7 1.2
v -4 3.7 1
v -4 3.7 0.9
v -4 3.7 0.8
v -4 3.7 0.7
v -4 3.7 0.6
v -4 3.7 0.4
v -4 3.7 0.3
v -4 3.7 -0.1
v -4 3.7 -0.2
v -4 3.7 -0.4
v -4 3.7 -0.5
v -4 3.7 -0.7
v -4 3.7 -0.8
v -4 3.7 -0.9
v -4 3.7 -1
v -4 3.7 -1.1
v -4 3.7 -1.3
v -4 3.7 -1.4
v -4 3.7 -1.5
v -4 3.7 -1.7
v -4 3.7 -1.8
v -4 3.8 1.9
v -4 3.8 1.8
v -4 3.8 1.6
v -4 3.8 1.5
v -4 3.8 1.4
v -4 3.8 1.3
v -4 3.8 1.2
v -4 3.8 1
v -4 3.8 0.9
v -4 3.8 0.8
v -4 3.8 0.6
v -4 3.8 0.5
v -4 3.8 -0.4
v -4 3.8 -0.5
v -4 3.8 -0.6
v -4 3.8 -0.9
v -4 3.8 -1
v -4 3.8 -1.3
v -4 3.8 -1.4
v -4 3.8 -1.5
v -4 3.8 -1.6
v -4 3.9 2
v -4 3.9 1.8
v -4 3.9 1.5
v -4 3.9 1.4
v -4 3.9 0.9
v -4 3.9 0.8
v -4 3.9 0.6
v -4 3.9 0.5
v -4 3.9 0.4
v -4 3.9 0.2
v -4 3.9 -2.38419e-07
v -4 3.9 -0.2
v -4 3.9 -0.5
v -4 3.9 -0.6
v -4 3.9 -1.5
v -4 3.9 -1.6
v -4 3.9 -1.8
v -4 3.9 -2
v -4 4 1.8
v -4 4 0.4
v -4 4 -0.2
v -4 4 -1.6
v -3.8 3.9 2
v -3.8 3.9 1.8
v -3.8 3.9 0.4
v -3.8 3.9 0.2
v -3.8 3.9 -2.38419e-07
v -3.8 3.9 -0.2
v -3.8 3.9 -1.6
v -3.8 3.9 -1.8
v -3.8 4 2
v -3.8 4 1.8
v -3.8 4 0.4
v -3.8 4 0.2
v -3.8 4 -2.38419e-07
v -3.8 4 -0.2
v -3.8 4 -1.6
v -3.8 4 -1.8
v -2 3.9 1.8
v -2 3.9 0.4
v -2 3.9 -0.2
v -2 3.9 -1.6
v -2 4 1.8
v -2 4 0.4
v -2 4 -0.2
v -2 4 -1.6
v -1.8 3.9 2
v -1.8 3.9 1.8
v -1.8 3.9 0.4
v -1.8 3.9 0.2
v -1.8 3.9 -2.38419e-07
v -1.8 3.9 -0.2
v -1.8 3.9 -1.6
v -1.8 3.9 -1.8
v -1.8 4 2
v -1.8 4 1.8
v -1.8 4 0.4
v -1.8 4 0.2
v -1.8 4 -2.38419e-07
v -1.8 4 -0.2
v -1.8 4 -1.6
v -1.8 4 -1.8
v -2.4 3.9 2
v -2.4 3.9 1.8
v -2.4 3.9 0.4
v -2.4 3.9 0.2
v -2.4 3.9 -2.38419e-07
v -2.4 3.9 -0.2
v -2.4 3.9 -1.6
v -2.4 3.9 -1.8
v -2.4 4 2
v -2.4 4 1.8
v -2.4 4 0.4
v -2.4 4 0.2
v -2.4 4 -2.38419e-07
v -2.4 4 -0.2
v -2.4 4 -1.6
v -2.4 4 -1.8
v -2.2 3.9 1.8
v -2.2 3.9 0.4
v -2.2 3.9 -0.2
v -2.2 3.9 -1.6
v -2.2 4 1.8
v -2.2 4 0.4
v -2.2 4 -0.2
v -2.2 4 -1.6
v -0.4 3.9 2
v -0.4 3.9 1.8
v -0.4 3.9 0.4
v -0.4 3.9 0.2
v -0.4 3.9 -2.38419e-07
v -0.4 3.9 -0.2
v -0.4 3.9 -1.6
v -0.4 3.9 -1.8
v -0.4 4 2
v -0.4 4 1.8
v -0.4 4 0.4
v -0.4 4 0.2
v -0.4 4 -2.38419e-07
v -0.4 4 -0.2
v -0.4 4 -1.6
v -0.4 4 -1.8
v -0.2 3.9 1.8
v -0.2 3.9 0.4
v -0.2 3.9 -0.2
v -0.2 3.9 -1.6
v -0.2 4 1.8
v -0.2 4 0.4
v -0.2 4 -0.2
v -0.2 4 -1.6
v 0 0 2
v 0 0 -2
v 0 3.9 2
v 0 3.9 -2
v -4 0 2
v -4 3.5 2
v -4 3.6 2
v -4 3.7 2
v -4 3.9 2
v -3.9 3.5 2
v -3.9 3.6 2
v -3.9 3.7 2
v -3.8 3.5 2
v -3.8 3.6 2
v -3.8 3.8 2
v -3.8 3.9 2
v -3.8 4 2
v -3.7 3.6 2
v -3.7 3.7 2
v -3.7 3.8 2
v -3.7 3.9 2
v -3.6 3.4 2
v -3.6 3.5 2
v -3.6 3.6 2
v -3.6 3.7 2
v -3.6 3.8 2
v -3.5 3.3 2
v -3.5 3.4 2
v -3.5 3.5 2
v -3.5 3.6 2
v -3.5 3.7 2
v -3.5 3.8 2
v -3.4 3.3 2
v -3.4 3.4 2
v -3.4 3.5 2
v -3.3 3.4 2
v -3.3 3.5 2
v -3.3 3.6 2
v -3.3 3.7 2
v -3.2 3.5 2
v -3.2 3.6 2
v -3.2 3.7 2
v -3.2 3.8 2
v -3.1 3.4 2
v -3.1 3.5 2
v -3.1 3.6 2
v -3.1 3.7 2
v -3.1 3.8 2
v -3 3.4 2
v -3 3.5 2
v -3 3.6 2
v -3 3.7 2
v -2.9 3.6 2
v -2.9 3.7 2
v -2.8 3.4 2
v -2.8 3.5 2
v -2.8 3.6 2
v -2.8 3.8 2
v -2.8 3.9 2
v -2.7 3.3 2
v -2.7 3.4 2
v -2.7 3.5 2
v -2.7 3.6 2
v -2.7 3.7 2
v -2.7 3.8 2
v -2.7 3.9 2
v -2.6 3.3 2
v -2.6 3.4 2
v -2.6 3.5 2
v -2.6 3.6 2
v -2.6 3.7 2
v -2.6 3.8 2
v -2.5 3.5 2
v -2.5 3.6 2
v -2.4 3.5 2
v -2.4 3.6 2
v -2.4 3.9 2
v -2.4 4 2
v -2.3 3.5 2
v -2.3 3.6 2
v -2.3 3.7 2
v -2.2 3.5 2
v -2.2 3.6 2
v -2.2 3.7 2
v -2.2 3.9 2
v -2 3.5 2
v -2 3.6 2
v -2 3.7 2
v -2 3.9 2
v -1.9 3.5 2
v -1.9 3.6 2
v -1.9 3.7 2
v -1.8 3.4 2
v -1.8 3.5 2
v -1.8 3.6 2
v -1.8 3.9 2
v -1.8 4 2
v -1.7 3.4 2
v -1.7 3.5 2
v -1.7 3.6 2
v -1.7 3.8 2
v -1.7 3.9 2
v -1.6 3.5 2
v -1.6 3.6 2
v -1.6 3.7 2
v -1.6 3.8 2
v -1.6 3.9 2
v -1.5 3.6 2
v -1.5 3.7 2
v -1.4 3.5 2
v -1.4 3.6 2
v -1.4 3.7 2
v -1.4 3.8 2
v -1.4 3.9 2
v -1.3 3.4 2
v -1.3 3.5 2
v -1.3 3.6 2
v -1.3 3.7 2
v -1.3 3.8 2
v -1.3 3.9 2
v -1.2 3.4 2
v -1.2 3.5 2
v -1.2 3.7 2
v -1.2 3.8 2
v -1.1 3.5 2
v -1.1 3.6 2
v -1 3.5 2
v -1 3.6 2
v -1 3.7 2
v -1 3.8 2
v -0.9 3.6 2
v -0.9 3.7 2
v -0.9 3.8 2
v -0.8 3.5 2
v -0.8 3.6 2
v -0.8 3.7 2
v -0.8 3.8 2
v -0.8 3.9 2
v -0.7 3.5 2
v -0.7 3.6 2
v -0.7 3.7 2
v -0.7 3.8 2
v -0.7 3.9 2
v -0.6 3.4 2
v -0.6 3.5 2
v -0.6 3.6 2
v -0.6 3.7 2
v -0.6 3.8 2
v -0.5 3.4 2
v -0.5 3.5 2
v -0.5 3.6 2
v -0.5 3.7 2
v -0.4 3.5 2
v -0.4 3.6 2
v -0.4 3.7 2
v -0.4 3.9 2
v -0.4 4 2
v -0.3 3.5 2
v -0.3 3.6 2
v -0.3 3.7 2
v -0.2 3.5 2
v -0.2 3.6 2
v -0.2 3.7 2
v -0.2 3.9 2
v 0 0 2
v 0 3.9 2
v -4 3.9 1.8
v -4 4 1.8
v -3.8 3.9 1.8
v -3.8 4 1.8
v -2.4 3.9 1.8
v -2.4 4 1.8
v -2.2 3.9 1.8
v -2.2 4 1.8
v -2 3.9 1.8
v -2 4 1.8
v -1.8 3.9 1.8
v -1.8 4 1.8
v -0.4 3.9 1.8
v -0.4 4 1.8
v -0.2 3.9 1.8
v -0.2 4 1.8
v -3.8 3.9 -2.38419e-07
v -3.8 4 -2.38419e-07
v -2.4 3.9 -2.38419e-07
v -2.4 4 -2.38419e-07
v -1.8 3.9 -2.38419e-07
v -1.8 4 -2.38419e-07
v -0.4 3.9 -2.38419e-07
v -0.4 4 -2.38419e-07
v -4 3.9 -0.2
v -4 4 -0.2
v -3.8 3.9 -0.2
v -3.8 4 -0.2
v -2.4 3.9 -0.2
v -2.4 4 -0.2
v -2.2 3.9 -0.2
v -2.2 4 -0.2
v -2 3.9 -0.2
v -2 4 -0.2
v -1.8 3.9 -0.2
v -1.8 4 -0.2
v -0.4 3.9 -0.2
v -0.4 4 -0.2
v -0.2 3.9 -0.2
v -0.2 4 -0.2
v -4 3.9 0.4
v -4 4 0.4
v -3.8 3.9 0.4
v -3.8 4 0.4
v -2.4 3.9 0.4
v -2.4 4 0.4
v -2.2 3.9 0.4
v -2.2 4 0.4
v -2 3.9 0.4
v -2 4 0.4
v -1.8 3.9 0.4
v -1.8 4 0.4
v -0.4 3.9 0.4
v -0.4 4 0.4
v -0.2 3.9 0.4
v -0.2 4 0.4
v -3.8 3.9 0.2
v -3.8 4 0.2
v -2.4 3.9 0.2
v -2.4 4 0.2
v -1.8 3.9 0.2
v -1.8 4 0.2
v -0.4 3.9 0.2
v -0.4 4 0.2
v -4 3.9 -1.6
v -4 4 -1.6
v -3.8 3.9 -1.6
v -3.8 4 -1.6
v -2.4 3.9 -1.6
v -2.4 4 -1.6
v -2.2 3.9 -1.6
v -2.2 4 -1.6
v -2 3.9 -1.6
v -2 4 -1.6
v -1.8 3.9 -1.6
v -1.8 4 -1.6
v -0.4 3.9 -1.6
v -0.4 4 -1.6
v -0.2 3.9 -1.6
v -0.2 4 -1.6
v -3.8 3.9 -1.8
v -3.8 4 -1.8
v -2.4 3.9 -1.8
v -2.4 4 -1.8
v -1.8 3.9 -1.8
v -1.8 4 -1.8
v -0.4 3.9 -1.8
v -0.4 4 -1.8
v -4 0 -2
v -4 3.9 -2
v 0 0 -2
v 0 3.9 -2
v -4 0 2
v 0 0 2
v -4 0 -2
v 0 0 -2
v -4 3.9 2
v -3.8 3.9 2
v -2.4 3.9 2
v -2.2 3.9 2
v -2 3.9 2
v -1.8 3.9 2
v -0.4 3.9 2
v -0.2 3.9 2
v 0 3.9 2
v -4 3.9 1.8
v -3.8 3.9 1.8
v -2.4 3.9 1.8
v -2.2 3.9 1.8
v -2 3.9 1.8
v -1.8 3.9 1.8
v -0.4 3.9 1.8
v -0.2 3.9 1.8
v -4 3.9 0.4
v -3.8 3.9 0.4
v -2.4 3.9 0.4
v -2.2 3.9 0.4
v -2 3.9 0.4
v -1.8 3.9 0.4
v -0.4 3.9 0.4
v -0.2 3.9 0.4
v -4 3.9 0.2
v -3.8 3.9 0.2
v -2.4 3.9 0.2
v -2.2 3.9 0.2
v -2 3.9 0.2
v -1.8 3.9 0.2
v -0.4 3.9 0.2
v -0.2 3.9 0.2
v -4 3.9 -2.38419e-07
v -3.8 3.9 -2.38419e-07
v -2.4 3.9 -2.38419e-07
v -2.2 3.9 -2.38419e-07
v -2 3.9 -2.38419e-07
v -1.8 3.9 -2.38419e-07
v -0.4 3.9 -2.38419e-07
v -0.2 3.9 -2.38419e-07
v -4 3.9 -0.2
v -3.8 3.9 -0.2
v -2.4 3.9 -0.2
v -2.2 3.9 -0.2
v -2 3.9 -0.2
v -1.8 3.9 -0.2
v -0.4 3.9 -0.2
v -0.2 3.9 -0.2
v -4 3.9 -1.6
v -3.8 3.9 -1.6
v -2.4 3.9 -1.6
v -2.2 3.9 -1.6
v -2 3.9 -1.6
v -1.8 3.9 -1.6
v -0.4 3.9 -1.6
v -0.2 3.9 -1.6
v -4 3.9 -1.8
v -3.8 3.9 -1.8
v -2.4 3.9 -1.8
v -2.2 3.9 -1.8
v -2 3.9 -1.8
v -1.8 3.9 -1.8
v -0.4 3.9 -1.8
v -0.2 3.9 -1.8
v -4 3.9 -2
v 0 3.9 -2
v -3.8 4 2
v -2.4 4 2
v -1.8 4 2
v -0.4 4 2
v -4 4 1.8
v -3.8 4 1.8
v -2.4 4 1.8
v -2.2 4 1.8
v -2 4 1.8
v -1.8 4 1.8
v -0.4 4 1.8
v -0.2 4 1.8
v -4 4 0.4
v -3.8 4 0.4
v -2.4 4 0.4
v -2.2 4 0.4
v -2 4 0.4
v -1.8 4 0.4
v -0.4 4 0.4
v -0.2 4 0.4
v -3.8 4 0.2
v -2.4 4 0.2
v -1.8 4 0.2
v -0.4 4 0.2
v -3.8 4 -2.38419e-07
v -2.4 4 -2.38419e-07
v -1.8 4 -2.38419e-07
v -0.4 4 -2.38419e-07
v -4 4 -0.2
v -3.8 4 -0.2
v -2.4 4 -0.2
v -2.2 4 -0.2
v -2 4 -0.2
v -1.8 4 -0.2
v -0.4 4 -0.2
v -0.2 4 -0.2
v -4 4 -1.6
v -3.8 4 -1.6
v -2.4 4 -1.6
v -2.2 4 -1.6
v -2 4 -1.6
v -1.8 4 -1.6
v -0.4 4 -1.6
v -0.2 4 -1.6
v -3.8 4 -1.8
v -2.4 4 -1.8
v -1.8 4 -1.8
v -0.4 4 -1.8

# faces
f 3/2/1 2/2/1 1/2/1
f 4/2/1 2/2/1 3/2/1
f 5/2/1 2/2/1 4/2/1
f 6/2/1 2/2/1 5/2/1
f 7/2/1 3/2/1 1/2/1
f 8/2/1 3/2/1 7/2/1
f 9/2/1 3/2/1 8/2/1
f 10/2/1 3/2/1 9/2/1
f 11/2/1 3/2/1 10/2/1
f 12/2/1 3/2/1 11/2/1
f 13/2/1 3/2/1 12/2/1
f 14/2/1 3/2/1 13/2/1
f 15/1/1 4/1/1 3/1/1
f 15/2/1 3/2/1 14/2/1
f 16/2/1 5/2/1 4/2/1
f 16/1/1 4/1/1 15/1/1
f 17/2/1 5/2/1 16/2/1
f 18/2/1 5/2/1 17/2/1
f 19/2/1 5/2/1 18/2/1
f 20/2/1 5/2/1 19/2/1
f 21/3/1 6/3/1 5/3/1
f 21/2/1 5/2/1 20/2/1
f 22/2/1 2/2/1 6/2/1
f 22/3/1 6/3/1 21/3/1
f 23/2/1 2/2/1 22/2/1
f 24/2/1 2/2/1 23/2/1
f 25/2/1 2/2/1 24/2/1
f 26/2/1 7/2/1 1/2/1
f 27/2/1 7/2/1 26/2/1
f 28/2/1 7/2/1 27/2/1
f 29/3/1 8/3/1 7/3/1
f 29/2/1 7/2/1 28/2/1
f 30/2/1 9/2/1 8/2/1
f 30/3/1 8/3/1 29/3/1
f 31/2/1 9/2/1 30/2/1
f 32/2/1 9/2/1 31/2/1
f 33/2/1 9/2/1 32/2/1
f 34/2/1 9/2/1 33/2/1
f 35/3/1 10/3/1 9/3/1
f 35/2/1 9/2/1 34/2/1
f 36/2/1 11/2/1 10/2/1
f 36/3/1 10/3/1 35/3/1
f 37/2/1 11/2/1 36/2/1
f 38/2/1 11/2/1 37/2/1
f 39/3/1 12/3/1 11/3/1
f 39/2/1 11/2/1 38/2/1
f 40/2/1 13/2/1 12/2/1
f 40/3/1 12/3/1 39/3/1
f 41/2/1 13/2/1 40/2/1
f 42/3/1 14/3/1 13/3/1
f 42/2/1 13/2/1 41/2/1
f 43/2/1 15/2/1 14/2/1
f 43/3/1 14/3/1 42/3/1
f 44/2/1 15/2/1 43/2/1
f 45/2/1 15/2/1 44/2/1
f 46/3/1 16/3/1 15/3/1
f 46/2/1 15/2/1 45/2/1
f 46/3/1 17/3/1 16/3/1
f 47/3/1 17/3/1 46/3/1
f 48/2/1 18/2/1 17/2/1
f 48/3/1 17/3/1 47/3/1
f 49/3/1 19/3/1 18/3/1
f 49/2/1 18/2/1 48/2/1
f 50/2/1 20/2/1 19/2/1
f 50/3/1 19/3/1 49/3/1
f 51/2/1 20/2/1 50/2/1
f 52/1/1 21/1/1 20/1/1
f 52/2/1 20/2/1 51/2/1
f 53/3/1 22/3/1 21/3/1
f 53/1/1 21/1/1 52/1/1
f 53/3/1 23/3/1 22/3/1
f 54/3/1 23/3/1 53/3/1
f 55/2/1 24/2/1 23/2/1
f 55/3/1 23/3/1 54/3/1
f 56/3/1 25/3/1 24/3/1
f 56/2/1 24/2/1 55/2/1
f 57/2/1 2/2/1 25/2/1
f 57/3/1 25/3/1 56/3/1
f 58/2/1 2/2/1 57/2/1
f 59/3/1 27/3/1 26/3/1
f 60/2/1 28/2/1 27/2/1
f 60/3/1 27/3/1 59/3/1
f 61/3/1 29/3/1 28/3/1
f 61/2/1 28/2/1 60/2/1
f 61/3/1 30/3/1 29/3/1
f 62/3/1 30/3/1 61/3/1
f 63/1/1 31/1/1 30/1/1
f 63/3/1 30/3/1 62/3/1
f 64/2/1 32/2/1 31/2/1
f 64/1/1 31/1/1 63/1/1
f 65/3/1 33/3/1 32/3/1
f 65/2/1 32/2/1 64/2/1
f 66/3/1 33/3/1 65/3/1
f 67/2/1 34/2/1 33/2/1
f 67/3/1 33/3/1 66/3/1
f 68/3/1 35/3/1 34/3/1
f 68/2/1 34/2/1 67/2/1
f 68/3/1 36/3/1 35/3/1
f 68/3/1 37/3/1 36/3/1
f 69/3/1 37/3/1 68/3/1
f 70/2/1 38/2/1 37/2/1
f 70/3/1 37/3/1 69/3/1
f 71/2/1 38/2/1 70/2/1
f 72/3/1 39/3/1 38/3/1
f 72/2/1 38/2/1 71/2/1
f 73/1/1 40/1/1 39/1/1
f 73/3/1 39/3/1 72/3/1
f 74/3/1 41/3/1 40/3/1
f 74/1/1 40/1/1 73/1/1
f 75/2/1 42/2/1 41/2/1
f 75/3/1 41/3/1 74/3/1
f 76/2/1 42/2/1 75/2/1
f 77/1/1 43/1/1 42/1/1
f 77/2/1 42/2/1 76/2/1
f 78/3/1 44/3/1 43/3/1
f 78/1/1 43/1/1 77/1/1
f 79/2/1 45/2/1 44/2/1
f 79/3/1 44/3/1 78/3/1
f 80/1/1 46/1/1 45/1/1
f 80/2/1 45/2/1 79/2/1
f 81/3/1 47/3/1 46/3/1
f 81/1/1 46/1/1 80/1/1
f 82/1/1 48/1/1 47/1/1
f 82/3/1 47/3/1 81/3/1
f 83/3/1 49/3/1 48/3/1
f 83/1/1 48/1/1 82/1/1
f 84/3/1 49/3/1 83/3/1
f 85/1/1 50/1/1 49/1/1
f 85/3/1 49/3/1 84/3/1
f 86/3/1 51/3/1 50/3/1
f 86/1/1 50/1/1 85/1/1
f 87/2/1 52/2/1 51/2/1
f 87/3/1 51/3/1 86/3/1
f 88/3/1 54/3/1 53/3/1
f 88/2/1 52/2/1 87/2/1
f 88/3/1 53/3/1 52/3/1
f 89/2/1 55/2/1 54/2/1
f 89/3/1 54/3/1 88/3/1
f 90/3/1 56/3/1 55/3/1
f 90/2/1 55/2/1 89/2/1
f 91/3/1 56/3/1 90/3/1
f 92/1/1 57/1/1 56/1/1
f 92/3/1 56/3/1 91/3/1
f 93/3/1 58/3/1 57/3/1
f 93/1/1 57/1/1 92/1/1
f 94/2/1 2/2/1 58/2/1
f 94/3/1 58/3/1 93/3/1
f 95/1/1 60/1/1 59/1/1
f 96/3/1 61/3/1 60/3/1
f 96/1/1 60/1/1 95/1/1
f 97/1/1 62/1/1 61/1/1
f 97/3/1 61/3/1 96/3/1
f 98/3/1 63/3/1 62/3/1
f 98/1/1 62/1/1 97/1/1
f 98/3/1 64/3/1 63/3/1
f 98/3/1 65/3/1 64/3/1
f 99/3/1 65/3/1 98/3/1
f 100/3/1 65/3/1 99/3/1
f 101/1/1 66/1/1 65/1/1
f 101/3/1 65/3/1 100/3/1
f 102/3/1 67/3/1 66/3/1
f 102/1/1 66/1/1 101/1/1
f 102/3/1 69/3/1 68/3/1
f 102/3/1 68/3/1 67/3/1
f 103/3/1 69/3/1 102/3/1
f 104/3/1 69/3/1 103/3/1
f 105/1/1 70/1/1 69/1/1
f 105/3/1 69/3/1 104/3/1
f 106/3/1 71/3/1 70/3/1
f 106/1/1 70/1/1 105/1/1
f 107/1/1 72/1/1 71/1/1
f 107/3/1 71/3/1 106/3/1
f 108/3/1 73/3/1 72/3/1
f 108/1/1 72/1/1 107/1/1
f 108/3/1 74/3/1 73/3/1
f 109/1/1 75/1/1 74/1/1
f 109/3/1 74/3/1 108/3/1
f 110/3/1 76/3/1 75/3/1
f 110/1/1 75/1/1 109/1/1
f 111/3/1 78/3/1 77/3/1
f 111/1/1 79/1/1 78/1/1
f 112/3/1 82/3/1 81/3/1
f 112/1/1 79/1/1 111/1/1
f 112/3/1 80/3/1 79/3/1
f 112/3/1 81/3/1 80/3/1
f 112/3/1 84/3/1 83/3/1
f 112/3/1 83/3/1 82/3/1
f 113/3/1 84/3/1 112/3/1
f 114/3/1 84/3/1 113/3/1
f 115/1/1 85/1/1 84/1/1
f 115/3/1 84/3/1 114/3/1
f 116/3/1 86/3/1 85/3/1
f 116/1/1 85/1/1 115/1/1
f 116/3/1 87/3/1 86/3/1
f 117/3/1 87/3/1 116/3/1
f 118/1/1 88/1/1 87/1/1
f 118/3/1 87/3/1 117/3/1
f 119/3/1 89/3/1 88/3/1
f 119/1/1 88/1/1 118/1/1
f 119/3/1 90/3/1 89/3/1
f 120/3/1 90/3/1 119/3/1
f 121/1/1 91/1/1 90/1/1
f 121/3/1 90/3/1 120/3/1
f 122/3/1 93/3/1 92/3/1
f 122/1/1 91/1/1 121/1/1
f 122/3/1 92/3/1 91/3/1
f 123/1/1 94/1/1 93/1/1
f 123/3/1 93/3/1 122/3/1
f 124/2/1 2/2/1 94/2/1
f 124/1/1 94/1/1 123/1/1
f 125/3/1 96/3/1 95/3/1
f 125/1/1 97/1/1 96/1/1
f 126/3/1 99/3/1 98/3/1
f 126/1/1 97/1/1 125/1/1
f 126/3/1 98/3/1 97/3/1
f 127/1/1 100/1/1 99/1/1
f 127/3/1 99/3/1 126/3/1
f 128/3/1 101/3/1 100/3/1
f 128/1/1 100/1/1 127/1/1
f 128/3/1 102/3/1 101/3/1
f 129/3/1 102/3/1 128/3/1
f 130/1/1 103/1/1 102/1/1
f 130/3/1 102/3/1 129/3/1
f 131/3/1 104/3/1 103/3/1
f 131/1/1 103/1/1 130/1/1
f 132/1/1 105/1/1 104/1/1
f 132/3/1 104/3/1 131/3/1
f 133/3/1 107/3/1 106/3/1
f 133/1/1 105/1/1 132/1/1
f 133/3/1 108/3/1 107/3/1
f 133/3/1 106/3/1 105/3/1
f 133/3/1 109/3/1 108/3/1
f 133/3/1 110/3/1 109/3/1
f 134/3/1 110/3/1 133/3/1
f 135/3/1 110/3/1 134/3/1
f 136/3/1 110/3/1 135/3/1
f 137/1/1 114/1/1 113/1/1
f 137/3/1 113/3/1 112/3/1
f 137/3/1 112/3/1 111/3/1
f 138/3/1 115/3/1 114/3/1
f 138/1/1 114/1/1 137/1/1
f 138/3/1 117/3/1 116/3/1
f 138/3/1 116/3/1 115/3/1
f 139/3/1 117/3/1 138/3/1
f 140/1/1 118/1/1 117/1/1
f 140/3/1 117/3/1 139/3/1
f 141/3/1 120/3/1 119/3/1
f 141/1/1 118/1/1 140/1/1
f 141/3/1 119/3/1 118/3/1
f 142/1/1 121/1/1 120/1/1
f 142/3/1 120/3/1 141/3/1
f 143/3/1 123/3/1 122/3/1
f 143/1/1 121/1/1 142/1/1
f 143/3/1 124/3/1 123/3/1
f 143/3/1 122/3/1 121/3/1
f 144/3/1 124/3/1 143/3/1
f 145/3/1 124/3/1 144/3/1
f 146/3/1 126/3/1 125/3/1
f 146/3/1 127/3/1 126/3/1
f 146/3/1 125/3/1 95/3/1
f 146/3/1 128/3/1 127/3/1
f 147/3/1 128/3/1 146/3/1
f 148/1/1 129/1/1 128/1/1
f 148/3/1 128/3/1 147/3/1
f 149/3/1 132/3/1 131/3/1
f 149/1/1 129/1/1 148/1/1
f 149/3/1 131/3/1 130/3/1
f 149/3/1 130/3/1 129/3/1
f 149/3/1 133/3/1 132/3/1
f 150/1/1 134/1/1 133/1/1
f 150/3/1 133/3/1 149/3/1
f 151/3/1 135/3/1 134/3/1
f 151/1/1 134/1/1 150/1/1
f 152/1/1 136/1/1 135/1/1
f 152/3/1 135/3/1 151/3/1
f 153/3/1 110/3/1 136/3/1
f 153/1/1 136/1/1 152/1/1
f 154/3/1 110/3/1 153/3/1
f 155/3/1 76/3/1 110/3/1
f 155/3/1 110/3/1 154/3/1
f 155/2/1 77/2/1 76/2/1
f 156/3/1 111/3/1 77/3/1
f 156/2/1 77/2/1 155/2/1
f 156/3/1 137/3/1 111/3/1
f 156/3/1 138/3/1 137/3/1
f 157/3/1 138/3/1 156/3/1
f 158/1/1 139/1/1 138/1/1
f 158/3/1 138/3/1 157/3/1
f 159/3/1 142/3/1 141/3/1
f 159/1/1 139/1/1 158/1/1
f 159/3/1 144/3/1 143/3/1
f 159/3/1 140/3/1 139/3/1
f 159/3/1 143/3/1 142/3/1
f 159/3/1 141/3/1 140/3/1
f 160/1/1 145/1/1 144/1/1
f 160/3/1 144/3/1 159/3/1
f 161/3/1 124/3/1 145/3/1
f 161/1/1 145/1/1 160/1/1
f 162/2/1 2/2/1 124/2/1
f 162/3/1 124/3/1 161/3/1
f 163/2/1 2/2/1 162/2/1
f 164/3/1 152/3/1 151/3/1
f 164/3/1 148/3/1 147/3/1
f 164/3/1 149/3/1 148/3/1
f 164/3/1 151/3/1 150/3/1
f 164/3/1 150/3/1 149/3/1
f 164/3/1 153/3/1 152/3/1
f 164/3/1 154/3/1 153/3/1
f 165/3/1 154/3/1 164/3/1
f 166/3/1 161/3/1 160/3/1
f 166/3/1 158/3/1 157/3/1
f 166/3/1 160/3/1 159/3/1
f 166/3/1 159/3/1 158/3/1
f 167/3/1 161/3/1 166/3/1
f 176/3/1 169/3/1 168/3/1
f 177/3/1 169/3/1 176/3/1
f 178/3/1 171/3/1 170/3/1
f 179/3/1 171/3/1 178/3/1
f 180/3/1 173/3/1 172/3/1
f 181/3/1 173/3/1 180/3/1
f 182/3/1 175/3/1 174/3/1
f 183/3/1 175/3/1 182/3/1
f 188/3/1 185/3/1 184/3/1
f 189/3/1 185/3/1 188/3/1
f 190/3/1 187/3/1 186/3/1
f 191/3/1 187/3/1 190/3/1
f 200/3/1 193/3/1 192/3/1
f 201/3/1 193/3/1 200/3/1
f 202/3/1 195/3/1 194/3/1
f 203/3/1 195/3/1 202/3/1
f 204/3/1 197/3/1 196/3/1
f 205/3/1 197/3/1 204/3/1
f 206/3/1 199/3/1 198/3/1
f 207/3/1 199/3/1 206/3/1
f 208/3/2 209/3/2 216/3/2
f 216/3/2 209/3/2 217/3/2
f 210/3/2 211/3/2 218/3/2
f 218/3/2 211/3/2 219/3/2
f 212/3/2 213/3/2 220/3/2
f 220/3/2 213/3/2 221/3/2
f 214/3/2 215/3/2 222/3/2
f 222/3/2 215/3/2 223/3/2
f 224/3/2 225/3/2 228/3/2
f 228/3/2 225/3/2 229/3/2
f 226/3/2 227/3/2 230/3/2
f 230/3/2 227/3/2 231/3/2
f 232/3/2 233/3/2 240/3/2
f 240/3/2 233/3/2 241/3/2
f 234/3/2 235/3/2 242/3/2
f 242/3/2 235/3/2 243/3/2
f 236/3/2 237/3/2 244/3/2
f 244/3/2 237/3/2 245/3/2
f 238/3/2 239/3/2 246/3/2
f 246/3/2 239/3/2 247/3/2
f 248/3/2 249/3/2 252/3/2
f 252/3/2 249/3/2 253/3/2
f 250/3/2 251/3/2 254/3/2
f 254/3/2 251/3/2 255/3/2
f 256/2/2 257/2/2 258/2/2
f 258/2/2 257/2/2 259/2/2
f 265/2/3 261/2/3 260/2/3
f 265/3/3 262/3/3 261/3/3
f 266/1/3 263/1/3 262/1/3
f 266/3/3 262/3/3 265/3/3
f 267/3/3 264/3/3 263/3/3
f 267/1/3 263/1/3 266/1/3
f 268/2/3 266/2/3 265/2/3
f 268/2/3 265/2/3 260/2/3
f 269/3/3 267/3/3 266/3/3
f 269/2/3 266/2/3 268/2/3
f 270/3/3 264/3/3 267/3/3
f 270/3/3 267/3/3 269/3/3
f 271/3/3 264/3/3 270/3/3
f 273/3/3 269/3/3 268/3/3
f 273/3/3 270/3/3 269/3/3
f 274/3/3 270/3/3 273/3/3
f 275/1/3 271/1/3 270/1/3
f 275/3/3 270/3/3 274/3/3
f 276/3/3 272/3/3 271/3/3
f 276/1/3 271/1/3 275/1/3
f 277/2/3 268/2/3 260/2/3
f 278/3/3 273/3/3 268/3/3
f 278/2/3 268/2/3 277/2/3
f 279/1/3 274/1/3 273/1/3
f 279/3/3 273/3/3 278/3/3
f 280/3/3 275/3/3 274/3/3
f 280/1/3 274/1/3 279/1/3
f 280/3/3 276/3/3 275/3/3
f 281/3/3 276/3/3 280/3/3
f 282/2/3 277/2/3 260/2/3
f 283/3/3 278/3/3 277/3/3
f 283/2/3 277/2/3 282/2/3
f 284/2/3 279/2/3 278/2/3
f 284/3/3 278/3/3 283/3/3
f 285/3/3 280/3/3 279/3/3
f 285/2/3 279/2/3 284/2/3
f 286/1/3 281/1/3 280/1/3
f 286/3/3 280/3/3 285/3/3
f 287/3/3 276/3/3 281/3/3
f 287/1/3 281/1/3 286/1/3
f 288/3/3 283/3/3 282/3/3
f 288/2/3 282/2/3 260/2/3
f 288/3/3 287/3/3 286/3/3
f 288/3/3 285/3/3 284/3/3
f 288/3/3 284/3/3 283/3/3
f 288/3/3 286/3/3 285/3/3
f 289/3/3 287/3/3 288/3/3
f 290/3/3 287/3/3 289/3/3
f 291/2/3 289/2/3 288/2/3
f 291/1/3 290/1/3 289/1/3
f 292/3/3 287/3/3 290/3/3
f 292/1/3 290/1/3 291/1/3
f 293/3/3 287/3/3 292/3/3
f 294/3/3 287/3/3 293/3/3
f 295/2/3 292/2/3 291/2/3
f 295/2/3 293/2/3 292/2/3
f 296/1/3 294/1/3 293/1/3
f 296/2/3 293/2/3 295/2/3
f 297/3/3 287/3/3 294/3/3
f 297/1/3 294/1/3 296/1/3
f 298/3/3 276/3/3 287/3/3
f 298/3/3 287/3/3 297/3/3
f 299/2/3 291/2/3 288/2/3
f 299/2/3 295/2/3 291/2/3
f 300/3/3 297/3/3 296/3/3
f 300/2/3 295/2/3 299/2/3
f 300/3/3 296/3/3 295/3/3
f 301/3/3 297/3/3 300/3/3
f 302/1/3 298/1/3 297/1/3
f 302/3/3 297/3/3 301/3/3
f 303/3/3 276/3/3 298/3/3
f 303/1/3 298/1/3 302/1/3
f 304/2/3 299/2/3 288/2/3
f 304/3/3 300/3/3 299/3/3
f 305/1/3 301/1/3 300/1/3
f 305/3/3 300/3/3 304/3/3
f 306/3/3 302/3/3 301/3/3
f 306/1/3 301/1/3 305/1/3
f 306/3/3 303/3/3 302/3/3
f 307/3/3 303/3/3 306/3/3
f 308/3/3 306/3/3 305/3/3
f 308/1/3 307/1/3 306/1/3
f 309/3/3 303/3/3 307/3/3
f 309/1/3 307/1/3 308/1/3
f 310/2/3 305/2/3 304/2/3
f 310/2/3 304/2/3 288/2/3
f 311/3/3 309/3/3 308/3/3
f 311/2/3 305/2/3 310/2/3
f 311/3/3 308/3/3 305/3/3
f 312/3/3 309/3/3 311/3/3
f 313/3/3 276/3/3 303/3/3
f 313/3/3 309/3/3 312/3/3
f 313/3/3 303/3/3 309/3/3
f 314/3/3 272/3/3 276/3/3
f 314/3/3 276/3/3 313/3/3
f 315/2/3 288/2/3 260/2/3
f 315/2/3 310/2/3 288/2/3
f 316/3/3 311/3/3 310/3/3
f 316/2/3 310/2/3 315/2/3
f 317/1/3 312/1/3 311/1/3
f 317/3/3 311/3/3 316/3/3
f 318/3/3 313/3/3 312/3/3
f 318/1/3 312/1/3 317/1/3
f 319/3/3 313/3/3 318/3/3
f 320/1/3 314/1/3 313/1/3
f 320/3/3 313/3/3 319/3/3
f 321/3/3 272/3/3 314/3/3
f 321/1/3 314/1/3 320/1/3
f 322/1/3 316/1/3 315/1/3
f 322/2/3 315/2/3 260/2/3
f 323/3/3 317/3/3 316/3/3
f 323/1/3 316/1/3 322/1/3
f 323/3/3 319/3/3 318/3/3
f 323/3/3 318/3/3 317/3/3
f 324/3/3 319/3/3 323/3/3
f 325/3/3 319/3/3 324/3/3
f 326/1/3 320/1/3 319/1/3
f 326/3/3 319/3/3 325/3/3
f 327/3/3 321/3/3 320/3/3
f 327/1/3 320/1/3 326/1/3
f 328/1/3 325/1/3 324/1/3
f 328/2/3 323/2/3 322/2/3
f 328/2/3 324/2/3 323/2/3
f 329/3/3 326/3/3 325/3/3
f 329/1/3 325/1/3 328/1/3
f 329/3/3 327/3/3 326/3/3
f 330/2/3 328/2/3 322/2/3
f 330/2/3 329/2/3 328/2/3
f 331/3/3 327/3/3 329/3/3
f 331/2/3 329/2/3 330/2/3
f 332/3/3 272/3/3 321/3/3
f 332/3/3 327/3/3 331/3/3
f 332/3/3 321/3/3 327/3/3
f 333/3/3 272/3/3 332/3/3
f 334/1/3 331/1/3 330/1/3
f 334/2/3 330/2/3 322/2/3
f 335/3/3 332/3/3 331/3/3
f 335/1/3 331/1/3 334/1/3
f 336/3/3 332/3/3 335/3/3
f 337/2/3 334/2/3 322/2/3
f 337/3/3 335/3/3 334/3/3
f 338/1/3 336/1/3 335/1/3
f 338/3/3 335/3/3 337/3/3
f 339/3/3 332/3/3 336/3/3
f 339/1/3 336/1/3 338/1/3
f 340/3/3 332/3/3 339/3/3
f 341/2/3 338/2/3 337/2/3
f 341/2/3 337/2/3 322/2/3
f 341/2/3 340/2/3 339/2/3
f 341/2/3 339/2/3 338/2/3
f 342/2/3 340/2/3 341/2/3
f 343/2/3 340/2/3 342/2/3
f 344/2/3 340/2/3 343/2/3
f 345/2/3 341/2/3 322/2/3
f 345/3/3 342/3/3 341/3/3
f 346/1/3 343/1/3 342/1/3
f 346/3/3 342/3/3 345/3/3
f 347/3/3 344/3/3 343/3/3
f 347/1/3 343/1/3 346/1/3
f 348/2/3 346/2/3 345/2/3
f 348/2/3 345/2/3 322/2/3
f 349/2/3 346/2/3 348/2/3
f 350/3/3 347/3/3 346/3/3
f 350/2/3 346/2/3 349/2/3
f 351/3/3 344/3/3 347/3/3
f 351/3/3 347/3/3 350/3/3
f 353/2/3 348/2/3 322/2/3
f 353/3/3 349/3/3 348/3/3
f 354/1/3 350/1/3 349/1/3
f 354/3/3 349/3/3 353/3/3
f 355/3/3 351/3/3 350/3/3
f 355/1/3 350/1/3 354/1/3
f 355/3/3 352/3/3 351/3/3
f 356/3/3 352/3/3 355/3/3
f 357/3/3 352/3/3 356/3/3
f 358/2/3 354/2/3 353/2/3
f 358/3/3 355/3/3 354/3/3
f 358/3/3 356/3/3 355/3/3
f 359/3/3 356/3/3 358/3/3
f 360/3/3 356/3/3 359/3/3
f 361/1/3 357/1/3 356/1/3
f 361/3/3 356/3/3 360/3/3
f 362/3/3 352/3/3 357/3/3
f 362/1/3 357/1/3 361/1/3
f 363/1/3 360/1/3 359/1/3
f 363/2/3 359/2/3 358/2/3
f 364/3/3 361/3/3 360/3/3
f 364/1/3 360/1/3 363/1/3
f 364/3/3 362/3/3 361/3/3
f 365/2/3 363/2/3 358/2/3
f 365/2/3 358/2/3 353/2/3
f 366/3/3 364/3/3 363/3/3
f 366/2/3 363/2/3 365/2/3
f 367/3/3 362/3/3 364/3/3
f 367/3/3 364/3/3 366/3/3
f 368/3/3 362/3/3 367/3/3
f 369/3/3 352/3/3 362/3/3
f 369/3/3 362/3/3 368/3/3
f 370/2/3 353/2/3 322/2/3
f 370/2/3 365/2/3 353/2/3
f 371/3/3 366/3/3 365/3/3
f 371/2/3 365/2/3 370/2/3
f 372/1/3 367/1/3 366/1/3
f 372/3/3 366/3/3 371/3/3
f 373/3/3 368/3/3 367/3/3
f 373/1/3 367/1/3 372/1/3
f 374/1/3 369/1/3 368/1/3
f 374/3/3 368/3/3 373/3/3
f 375/3/3 352/3/3 369/3/3
f 375/1/3 369/1/3 374/1/3
f 376/2/3 370/2/3 322/2/3
f 376/3/3 372/3/3 371/3/3
f 376/3/3 373/3/3 372/3/3
f 376/3/3 371/3/3 370/3/3
f 377/3/3 373/3/3 376/3/3
f 378/1/3 374/1/3 373/1/3
f 378/3/3 373/3/3 377/3/3
f 379/3/3 375/3/3 374/3/3
f 379/1/3 374/1/3 378/1/3
f 380/2/3 377/2/3 376/2/3
f 380/3/3 378/3/3 377/3/3
f 380/3/3 379/3/3 378/3/3
f 381/3/3 379/3/3 380/3/3
f 382/2/3 380/2/3 376/2/3
f 382/2/3 381/2/3 380/2/3
f 383/3/3 379/3/3 381/3/3
f 383/2/3 381/2/3 382/2/3
f 384/3/3 379/3/3 383/3/3
f 385/3/3 375/3/3 379/3/3
f 385/3/3 379/3/3 384/3/3
f 386/3/3 384/3/3 383/3/3
f 386/3/3 383/3/3 382/3/3
f 387/1/3 385/1/3 384/1/3
f 387/3/3 384/3/3 386/3/3
f 388/3/3 375/3/3 385/3/3
f 388/1/3 385/1/3 387/1/3
f 389/2/3 382/2/3 376/2/3
f 389/3/3 386/3/3 382/3/3
f 390/1/3 387/1/3 386/1/3
f 390/3/3 386/3/3 389/3/3
f 391/3/3 388/3/3 387/3/3
f 391/1/3 387/1/3 390/1/3
f 392/3/3 375/3/3 388/3/3
f 392/3/3 388/3/3 391/3/3
f 393/3/3 352/3/3 375/3/3
f 393/3/3 375/3/3 392/3/3
f 394/2/3 389/2/3 376/2/3
f 394/2/3 390/2/3 389/2/3
f 395/3/3 392/3/3 391/3/3
f 395/2/3 390/2/3 394/2/3
f 395/3/3 391/3/3 390/3/3
f 396/3/3 392/3/3 395/3/3
f 397/1/3 393/1/3 392/1/3
f 397/3/3 392/3/3 396/3/3
f 398/3/3 352/3/3 393/3/3
f 398/1/3 393/1/3 397/1/3
f 399/2/3 394/2/3 376/2/3
f 399/2/3 376/2/3 322/2/3
f 400/1/3 395/1/3 394/1/3
f 400/2/3 394/2/3 399/2/3
f 401/3/3 396/3/3 395/3/3
f 401/1/3 395/1/3 400/1/3
f 402/1/3 397/1/3 396/1/3
f 402/3/3 396/3/3 401/3/3
f 403/3/3 398/3/3 397/3/3
f 403/1/3 397/1/3 402/1/3
f 404/3/3 401/3/3 400/3/3
f 404/3/3 402/3/3 401/3/3
f 404/3/3 403/3/3 402/3/3
f 404/2/3 399/2/3 322/2/3
f 404/3/3 400/3/3 399/3/3
f 405/3/3 403/3/3 404/3/3
f 406/3/3 403/3/3 405/3/3
f 407/3/3 403/3/3 406/3/3
f 408/2/3 405/2/3 404/2/3
f 408/3/3 406/3/3 405/3/3
f 409/1/3 407/1/3 406/1/3
f 409/3/3 406/3/3 408/3/3
f 410/3/3 403/3/3 407/3/3
f 410/1/3 407/1/3 409/1/3
f 411/3/3 352/3/3 398/3/3
f 411/3/3 403/3/3 410/3/3
f 411/3/3 398/3/3 403/3/3
f 412/3/3 352/3/3 411/3/3
f 413/2/3 408/2/3 404/2/3
f 413/1/3 409/1/3 408/1/3
f 414/3/3 410/3/3 409/3/3
f 414/1/3 409/1/3 413/1/3
f 414/3/3 411/3/3 410/3/3
f 415/3/3 411/3/3 414/3/3
f 416/2/3 413/2/3 404/2/3
f 416/3/3 414/3/3 413/3/3
f 417/1/3 415/1/3 414/1/3
f 417/3/3 414/3/3 416/3/3
f 418/3/3 411/3/3 415/3/3
f 418/1/3 415/1/3 417/1/3
f 419/3/3 411/3/3 418/3/3
f 420/2/3 322/2/3 260/2/3
f 420/2/3 417/2/3 416/2/3
f 420/2/3 419/2/3 418/2/3
f 420/2/3 418/2/3 417/2/3
f 420/2/3 416/2/3 404/2/3
f 420/2/3 404/2/3 322/2/3
f 421/2/3 419/2/3 420/2/3
f 424/3/3 423/3/3 422/3/3
f 425/3/3 423/3/3 424/3/3
f 428/3/3 427/3/3 426/3/3
f 429/3/3 427/3/3 428/3/3
f 432/3/3 431/3/3 430/3/3
f 433/3/3 431/3/3 432/3/3
f 436/3/3 435/3/3 434/3/3
f 437/3/3 435/3/3 436/3/3
f 440/3/3 439/3/3 438/3/3
f 441/3/3 439/3/3 440/3/3
f 444/3/3 443/3/3 442/3/3
f 445/3/3 443/3/3 444/3/3
f 448/3/3 447/3/3 446/3/3
f 449/3/3 447/3/3 448/3/3
f 452/3/3 451/3/3 450/3/3
f 453/3/3 451/3/3 452/3/3
f 456/3/3 455/3/3 454/3/3
f 457/3/3 455/3/3 456/3/3
f 460/3/3 459/3/3 458/3/3
f 461/3/3 459/3/3 460/3/3
f 462/3/4 463/3/4 464/3/4
f 464/3/4 463/3/4 465/3/4
f 466/3/4 467/3/4 468/3/4
f 468/3/4 467/3/4 469/3/4
f 470/3/4 471/3/4 472/3/4
f 472/3/4 471/3/4 473/3/4
f 474/3/4 475/3/4 476/3/4
f 476/3/4 475/3/4 477/3/4
f 478/3/4 479/3/4 480/3/4
f 480/3/4 479/3/4 481/3/4
f 482/3/4 483/3/4 484/3/4
f 484/3/4 483/3/4 485/3/4
f 486/3/4 487/3/4 488/3/4
f 488/3/4 487/3/4 489/3/4
f 490/3/4 491/3/4 492/3/4
f 492/3/4 491/3/4 493/3/4
f 494/3/4 495/3/4 496/3/4
f 496/3/4 495/3/4 497/3/4
f 498/3/4 499/3/4 500/3/4
f 500/3/4 499/3/4 501/3/4
f 502/3/4 503/3/4 504/3/4
f 504/3/4 503/3/4 505/3/4
f 506/3/4 507/3/4 508/3/4
f 508/3/4 507/3/4 509/3/4
f 510/2/4 511/2/4 512/2/4
f 512/2/4 511/2/4 513/2/4
f 516/2/5 515/2/5 514/2/5
f 517/2/5 515/2/5 516/2/5
f 518/3/6 519/3/6 527/3/6
f 527/3/6 519/3/6 528/3/6
f 520/3/6 521/3/6 529/3/6
f 521/2/6 522/2/6 530/2/6
f 529/3/6 521/3/6 530/3/6
f 522/3/6 523/3/6 531/3/6
f 530/2/6 522/2/6 531/2/6
f 531/3/6 523/3/6 532/3/6
f 524/3/6 525/3/6 533/3/6
f 525/2/6 526/2/6 534/2/6
f 533/3/6 525/3/6 534/3/6
f 530/2/6 531/2/6 538/2/6
f 538/2/6 531/2/6 539/2/6
f 534/2/6 526/2/6 542/2/6
f 535/3/6 536/3/6 543/3/6
f 543/3/6 536/3/6 544/3/6
f 537/3/6 538/3/6 545/3/6
f 538/2/6 539/2/6 546/2/6
f 545/3/6 538/3/6 546/3/6
f 539/3/6 540/3/6 547/3/6
f 546/2/6 539/2/6 547/2/6
f 547/3/6 540/3/6 548/3/6
f 541/3/6 542/3/6 549/3/6
f 542/2/6 526/2/6 550/2/6
f 549/3/6 542/3/6 550/3/6
f 545/2/6 546/2/6 551/2/6
f 547/2/6 548/2/6 551/2/6
f 549/2/6 550/2/6 551/2/6
f 543/2/6 544/2/6 551/2/6
f 546/2/6 547/2/6 551/2/6
f 544/2/6 545/2/6 551/2/6
f 548/2/6 549/2/6 551/2/6
f 551/2/6 550/2/6 552/2/6
f 552/2/6 550/2/6 553/2/6
f 553/2/6 550/2/6 554/2/6
f 554/2/6 550/2/6 555/2/6
f 555/2/6 550/2/6 556/2/6
f 556/2/6 550/2/6 557/2/6
f 550/2/6 526/2/6 558/2/6
f 557/2/6 550/2/6 558/2/6
f 551/3/6 552/3/6 559/3/6
f 559/3/6 552/3/6 560/3/6
f 553/3/6 554/3/6 561/3/6
f 554/2/6 555/2/6 562/2/6
f 561/3/6 554/3/6 562/3/6
f 555/3/6 556/3/6 563/3/6
f 562/2/6 555/2/6 563/2/6
f 563/3/6 556/3/6 564/3/6
f 557/3/6 558/3/6 565/3/6
f 558/2/6 526/2/6 566/2/6
f 565/3/6 558/3/6 566/3/6
f 562/2/6 563/2/6 570/2/6
f 570/2/6 563/2/6 571/2/6
f 566/2/6 526/2/6 574/2/6
f 567/3/6 568/3/6 575/3/6
f 575/3/6 568/3/6 576/3/6
f 569/3/6 570/3/6 577/3/6
f 570/2/6 571/2/6 578/2/6
f 577/3/6 570/3/6 578/3/6
f 571/3/6 572/3/6 579/3/6
f 578/2/6 571/2/6 579/2/6
f 579/3/6 572/3/6 580/3/6
f 573/3/6 574/3/6 581/3/6
f 574/2/6 526/2/6 582/2/6
f 581/3/6 574/3/6 582/3/6
f 577/2/6 578/2/6 583/2/6
f 579/2/6 580/2/6 583/2/6
f 581/2/6 582/2/6 583/2/6
f 575/2/6 576/2/6 583/2/6
f 578/2/6 579/2/6 583/2/6
f 576/2/6 577/2/6 583/2/6
f 580/2/6 581/2/6 583/2/6
f 582/2/6 526/2/6 584/2/6
f 583/2/6 582/2/6 584/2/6
f 585/3/6 586/3/6 590/3/6
f 590/3/6 586/3/6 591/3/6
f 587/3/6 588/3/6 594/3/6
f 594/3/6 588/3/6 595/3/6
f 591/3/6 592/3/6 597/3/6
f 589/3/6 590/3/6 597/3/6
f 590/3/6 591/3/6 597/3/6
f 597/3/6 592/3/6 598/3/6
f 598/3/6 592/3/6 599/3/6
f 599/3/6 592/3/6 600/3/6
f 595/3/6 596/3/6 601/3/6
f 594/3/6 595/3/6 601/3/6
f 593/3/6 594/3/6 601/3/6
f 601/3/6 596/3/6 602/3/6
f 602/3/6 596/3/6 603/3/6
f 603/3/6 596/3/6 604/3/6
f 598/3/6 599/3/6 605/3/6
f 605/3/6 599/3/6 606/3/6
f 602/3/6 603/3/6 607/3/6
f 607/3/6 603/3/6 608/3/6
f 609/3/6 610/3/6 614/3/6
f 614/3/6 610/3/6 615/3/6
f 611/3/6 612/3/6 618/3/6
f 618/3/6 612/3/6 619/3/6
f 615/3/6 616/3/6 621/3/6
f 613/3/6 614/3/6 621/3/6
f 614/3/6 615/3/6 621/3/6
f 621/3/6 616/3/6 622/3/6
f 622/3/6 616/3/6 623/3/6
f 623/3/6 616/3/6 624/3/6
f 618/3/6 619/3/6 625/3/6
f 619/3/6 620/3/6 625/3/6
f 617/3/6 618/3/6 625/3/6
f 625/3/6 620/3/6 626/3/6
f 626/3/6 620/3/6 627/3/6
f 627/3/6 620/3/6 628/3/6
f 622/3/6 623/3/6 629/3/6
f 629/3/6 623/3/6 630/3/6
f 626/3/6 627/3/6 631/3/6
f 631/3/6 627/3/6 632/3/6
