# MagicaVoxel @ Ephtracy

# group
o 

# material
mtllib coin.mtl
usemtl palette

# normals
vn -1 0 0
vn 1 0 0
vn 0 0 1
vn 0 0 -1
vn 0 -1 0
vn 0 1 0

# texcoords
vt 0.0175781 0.5
vt 0.0214844 0.5
vt 0.0683594 0.5

# verts
v -1 0.6 0.2
v -1 0.6 0.1
v -1 0.6 -0.1
v -1 0.6 -0.2
v -1 1.4 0.2
v -1 1.4 0.1
v -1 1.4 -0.1
v -1 1.4 -0.2
v -0.9 0.4 0.2
v -0.9 0.4 0.1
v -0.9 0.4 -0.1
v -0.9 0.4 -0.2
v -0.9 0.6 0.2
v -0.9 0.6 0.1
v -0.9 0.6 -0.1
v -0.9 0.6 -0.2
v -0.9 1.4 0.2
v -0.9 1.4 0.1
v -0.9 1.4 -0.1
v -0.9 1.4 -0.2
v -0.9 1.6 0.2
v -0.9 1.6 0.1
v -0.9 1.6 -0.1
v -0.9 1.6 -0.2
v -0.8 0.3 0.2
v -0.8 0.3 0.1
v -0.8 0.3 -0.1
v -0.8 0.3 -0.2
v -0.8 0.4 0.2
v -0.8 0.4 0.1
v -0.8 0.4 -0.1
v -0.8 0.4 -0.2
v -0.8 1.6 0.2
v -0.8 1.6 0.1
v -0.8 1.6 -0.1
v -0.8 1.6 -0.2
v -0.8 1.7 0.2
v -0.8 1.7 0.1
v -0.8 1.7 -0.1
v -0.8 1.7 -0.2
v -0.7 0.2 0.2
v -0.7 0.2 0.1
v -0.7 0.2 -0.1
v -0.7 0.2 -0.2
v -0.7 0.3 0.2
v -0.7 0.3 0.1
v -0.7 0.3 -0.1
v -0.7 0.3 -0.2
v -0.7 0.7 0.2
v -0.7 0.7 0.1
v -0.7 0.7 -0.1
v -0.7 0.7 -0.2
v -0.7 1.3 0.2
v -0.7 1.3 0.1
v -0.7 1.3 -0.1
v -0.7 1.3 -0.2
v -0.7 1.7 0.2
v -0.7 1.7 0.1
v -0.7 1.7 -0.1
v -0.7 1.7 -0.2
v -0.7 1.8 0.2
v -0.7 1.8 0.1
v -0.7 1.8 -0.1
v -0.7 1.8 -0.2
v -0.6 0.1 0.2
v -0.6 0.1 0.1
v -0.6 0.1 -0.1
v -0.6 0.1 -0.2
v -0.6 0.2 0.2
v -0.6 0.2 0.1
v -0.6 0.2 -0.1
v -0.6 0.2 -0.2
v -0.6 0.5 0.2
v -0.6 0.5 0.1
v -0.6 0.5 -0.1
v -0.6 0.5 -0.2
v -0.6 0.7 0.2
v -0.6 0.7 0.1
v -0.6 0.7 -0.1
v -0.6 0.7 -0.2
v -0.6 1.3 0.2
v -0.6 1.3 0.1
v -0.6 1.3 -0.1
v -0.6 1.3 -0.2
v -0.6 1.5 0.2
v -0.6 1.5 0.1
v -0.6 1.5 -0.1
v -0.6 1.5 -0.2
v -0.6 1.8 0.2
v -0.6 1.8 0.1
v -0.6 1.8 -0.1
v -0.6 1.8 -0.2
v -0.6 1.9 0.2
v -0.6 1.9 0.1
v -0.6 1.9 -0.1
v -0.6 1.9 -0.2
v -0.5 0.4 0.2
v -0.5 0.4 0.1
v -0.5 0.4 -0.1
v -0.5 0.4 -0.2
v -0.5 0.5 0.2
v -0.5 0.5 0.1
v -0.5 0.5 -0.1
v -0.5 0.5 -0.2
v -0.5 1.5 0.2
v -0.5 1.5 0.1
v -0.5 1.5 -0.1
v -0.5 1.5 -0.2
v -0.5 1.6 0.2
v -0.5 1.6 0.1
v -0.5 1.6 -0.1
v -0.5 1.6 -0.2
v -0.4 0 0.2
v -0.4 0 0.1
v -0.4 0 -0.1
v -0.4 0 -0.2
v -0.4 0.1 0.2
v -0.4 0.1 0.1
v -0.4 0.1 -0.1
v -0.4 0.1 -0.2
v -0.4 1.9 0.2
v -0.4 1.9 0.1
v -0.4 1.9 -0.1
v -0.4 1.9 -0.2
v -0.4 2 0.2
v -0.4 2 0.1
v -0.4 2 -0.1
v -0.4 2 -0.2
v -0.3 0.3 0.2
v -0.3 0.3 0.1
v -0.3 0.3 -0.1
v -0.3 0.3 -0.2
v -0.3 0.4 0.2
v -0.3 0.4 0.1
v -0.3 0.4 -0.1
v -0.3 0.4 -0.2
v -0.3 0.8 0.2
v -0.3 0.8 0.1
v -0.3 0.8 -0.1
v -0.3 0.8 -0.2
v -0.3 0.9 0.2
v -0.3 0.9 0.1
v -0.3 0.9 -0.1
v -0.3 0.9 -0.2
v -0.3 1.1 0.2
v -0.3 1.1 0.1
v -0.3 1.1 -0.1
v -0.3 1.1 -0.2
v -0.3 1.2 0.2
v -0.3 1.2 0.1
v -0.3 1.2 -0.1
v -0.3 1.2 -0.2
v -0.3 1.6 0.2
v -0.3 1.6 0.1
v -0.3 1.6 -0.1
v -0.3 1.6 -0.2
v -0.3 1.7 0.2
v -0.3 1.7 0.1
v -0.3 1.7 -0.1
v -0.3 1.7 -0.2
v -0.2 0.9 0.2
v -0.2 0.9 0.1
v -0.2 0.9 -0.1
v -0.2 0.9 -0.2
v -0.2 1.1 0.2
v -0.2 1.1 0.1
v -0.2 1.1 -0.1
v -0.2 1.1 -0.2
v 0.3 0.2 0.2
v 0.3 0.2 0.1
v 0.3 0.2 -0.1
v 0.3 0.2 -0.2
v 0.3 0.3 0.2
v 0.3 0.3 0.1
v 0.3 0.3 -0.1
v 0.3 0.3 -0.2
v 0.3 0.9 0.2
v 0.3 0.9 0.1
v 0.3 0.9 -0.1
v 0.3 0.9 -0.2
v 0.3 1.1 0.2
v 0.3 1.1 0.1
v 0.3 1.1 -0.1
v 0.3 1.1 -0.2
v 0.3 1.7 0.2
v 0.3 1.7 0.1
v 0.3 1.7 -0.1
v 0.3 1.7 -0.2
v 0.3 1.8 0.2
v 0.3 1.8 0.1
v 0.3 1.8 -0.1
v 0.3 1.8 -0.2
v 0.4 0.8 0.2
v 0.4 0.8 0.1
v 0.4 0.8 -0.1
v 0.4 0.8 -0.2
v 0.4 0.9 0.2
v 0.4 0.9 0.1
v 0.4 0.9 -0.1
v 0.4 0.9 -0.2
v 0.4 1.1 0.2
v 0.4 1.1 0.1
v 0.4 1.1 -0.1
v 0.4 1.1 -0.2
v 0.4 1.2 0.2
v 0.4 1.2 0.1
v 0.4 1.2 -0.1
v 0.4 1.2 -0.2
v 0.5 0.3 0.2
v 0.5 0.3 0.1
v 0.5 0.3 -0.1
v 0.5 0.3 -0.2
v 0.5 0.4 0.2
v 0.5 0.4 0.1
v 0.5 0.4 -0.1
v 0.5 0.4 -0.2
v 0.5 1.6 0.2
v 0.5 1.6 0.1
v 0.5 1.6 -0.1
v 0.5 1.6 -0.2
v 0.5 1.7 0.2
v 0.5 1.7 0.1
v 0.5 1.7 -0.1
v 0.5 1.7 -0.2
v 0.6 0.4 0.2
v 0.6 0.4 0.1
v 0.6 0.4 -0.1
v 0.6 0.4 -0.2
v 0.6 0.5 0.2
v 0.6 0.5 0.1
v 0.6 0.5 -0.1
v 0.6 0.5 -0.2
v 0.6 1.5 0.2
v 0.6 1.5 0.1
v 0.6 1.5 -0.1
v 0.6 1.5 -0.2
v 0.6 1.6 0.2
v 0.6 1.6 0.1
v 0.6 1.6 -0.1
v 0.6 1.6 -0.2
v 0.7 0.5 0.2
v 0.7 0.5 0.1
v 0.7 0.5 -0.1
v 0.7 0.5 -0.2
v 0.7 0.7 0.2
v 0.7 0.7 0.1
v 0.7 0.7 -0.1
v 0.7 0.7 -0.2
v 0.7 1.3 0.2
v 0.7 1.3 0.1
v 0.7 1.3 -0.1
v 0.7 1.3 -0.2
v 0.7 1.5 0.2
v 0.7 1.5 0.1
v 0.7 1.5 -0.1
v 0.7 1.5 -0.2
v 0.8 0.7 0.2
v 0.8 0.7 0.1
v 0.8 0.7 -0.1
v 0.8 0.7 -0.2
v 0.8 1.3 0.2
v 0.8 1.3 0.1
v 0.8 1.3 -0.1
v 0.8 1.3 -0.2
v -0.8 0.7 0.2
v -0.8 0.7 0.1
v -0.8 0.7 -0.1
v -0.8 0.7 -0.2
v -0.8 1.3 0.2
v -0.8 1.3 0.1
v -0.8 1.3 -0.1
v -0.8 1.3 -0.2
v -0.7 0.5 0.2
v -0.7 0.5 0.1
v -0.7 0.5 -0.1
v -0.7 0.5 -0.2
v -0.7 0.7 0.2
v -0.7 0.7 0.1
v -0.7 0.7 -0.1
v -0.7 0.7 -0.2
v -0.7 1.3 0.2
v -0.7 1.3 0.1
v -0.7 1.3 -0.1
v -0.7 1.3 -0.2
v -0.7 1.5 0.2
v -0.7 1.5 0.1
v -0.7 1.5 -0.1
v -0.7 1.5 -0.2
v -0.6 0.4 0.2
v -0.6 0.4 0.1
v -0.6 0.4 -0.1
v -0.6 0.4 -0.2
v -0.6 0.5 0.2
v -0.6 0.5 0.1
v -0.6 0.5 -0.1
v -0.6 0.5 -0.2
v -0.6 1.5 0.2
v -0.6 1.5 0.1
v -0.6 1.5 -0.1
v -0.6 1.5 -0.2
v -0.6 1.6 0.2
v -0.6 1.6 0.1
v -0.6 1.6 -0.1
v -0.6 1.6 -0.2
v -0.5 0.3 0.2
v -0.5 0.3 0.1
v -0.5 0.3 -0.1
v -0.5 0.3 -0.2
v -0.5 0.4 0.2
v -0.5 0.4 0.1
v -0.5 0.4 -0.1
v -0.5 0.4 -0.2
v -0.5 1.6 0.2
v -0.5 1.6 0.1
v -0.5 1.6 -0.1
v -0.5 1.6 -0.2
v -0.5 1.7 0.2
v -0.5 1.7 0.1
v -0.5 1.7 -0.1
v -0.5 1.7 -0.2
v -0.4 0.8 0.2
v -0.4 0.8 0.1
v -0.4 0.8 -0.1
v -0.4 0.8 -0.2
v -0.4 0.9 0.2
v -0.4 0.9 0.1
v -0.4 0.9 -0.1
v -0.4 0.9 -0.2
v -0.4 1.1 0.2
v -0.4 1.1 0.1
v -0.4 1.1 -0.1
v -0.4 1.1 -0.2
v -0.4 1.2 0.2
v -0.4 1.2 0.1
v -0.4 1.2 -0.1
v -0.4 1.2 -0.2
v -0.3 0.2 0.2
v -0.3 0.2 0.1
v -0.3 0.2 -0.1
v -0.3 0.2 -0.2
v -0.3 0.3 0.2
v -0.3 0.3 0.1
v -0.3 0.3 -0.1
v -0.3 0.3 -0.2
v -0.3 0.9 0.2
v -0.3 0.9 0.1
v -0.3 0.9 -0.1
v -0.3 0.9 -0.2
v -0.3 1.1 0.2
v -0.3 1.1 0.1
v -0.3 1.1 -0.1
v -0.3 1.1 -0.2
v -0.3 1.7 0.2
v -0.3 1.7 0.1
v -0.3 1.7 -0.1
v -0.3 1.7 -0.2
v -0.3 1.8 0.2
v -0.3 1.8 0.1
v -0.3 1.8 -0.1
v -0.3 1.8 -0.2
v 0.2 0.9 0.2
v 0.2 0.9 0.1
v 0.2 0.9 -0.1
v 0.2 0.9 -0.2
v 0.2 1.1 0.2
v 0.2 1.1 0.1
v 0.2 1.1 -0.1
v 0.2 1.1 -0.2
v 0.3 0.3 0.2
v 0.3 0.3 0.1
v 0.3 0.3 -0.1
v 0.3 0.3 -0.2
v 0.3 0.4 0.2
v 0.3 0.4 0.1
v 0.3 0.4 -0.1
v 0.3 0.4 -0.2
v 0.3 0.8 0.2
v 0.3 0.8 0.1
v 0.3 0.8 -0.1
v 0.3 0.8 -0.2
v 0.3 0.9 0.2
v 0.3 0.9 0.1
v 0.3 0.9 -0.1
v 0.3 0.9 -0.2
v 0.3 1.1 0.2
v 0.3 1.1 0.1
v 0.3 1.1 -0.1
v 0.3 1.1 -0.2
v 0.3 1.2 0.2
v 0.3 1.2 0.1
v 0.3 1.2 -0.1
v 0.3 1.2 -0.2
v 0.3 1.6 0.2
v 0.3 1.6 0.1
v 0.3 1.6 -0.1
v 0.3 1.6 -0.2
v 0.3 1.7 0.2
v 0.3 1.7 0.1
v 0.3 1.7 -0.1
v 0.3 1.7 -0.2
v 0.4 0 0.2
v 0.4 0 0.1
v 0.4 0 -0.1
v 0.4 0 -0.2
v 0.4 0.1 0.2
v 0.4 0.1 0.1
v 0.4 0.1 -0.1
v 0.4 0.1 -0.2
v 0.4 1.9 0.2
v 0.4 1.9 0.1
v 0.4 1.9 -0.1
v 0.4 1.9 -0.2
v 0.4 2 0.2
v 0.4 2 0.1
v 0.4 2 -0.1
v 0.4 2 -0.2
v 0.5 0.4 0.2
v 0.5 0.4 0.1
v 0.5 0.4 -0.1
v 0.5 0.4 -0.2
v 0.5 0.5 0.2
v 0.5 0.5 0.1
v 0.5 0.5 -0.1
v 0.5 0.5 -0.2
v 0.5 1.5 0.2
v 0.5 1.5 0.1
v 0.5 1.5 -0.1
v 0.5 1.5 -0.2
v 0.5 1.6 0.2
v 0.5 1.6 0.1
v 0.5 1.6 -0.1
v 0.5 1.6 -0.2
v 0.6 0.1 0.2
v 0.6 0.1 0.1
v 0.6 0.1 -0.1
v 0.6 0.1 -0.2
v 0.6 0.2 0.2
v 0.6 0.2 0.1
v 0.6 0.2 -0.1
v 0.6 0.2 -0.2
v 0.6 0.5 0.2
v 0.6 0.5 0.1
v 0.6 0.5 -0.1
v 0.6 0.5 -0.2
v 0.6 0.7 0.2
v 0.6 0.7 0.1
v 0.6 0.7 -0.1
v 0.6 0.7 -0.2
v 0.6 1.3 0.2
v 0.6 1.3 0.1
v 0.6 1.3 -0.1
v 0.6 1.3 -0.2
v 0.6 1.5 0.2
v 0.6 1.5 0.1
v 0.6 1.5 -0.1
v 0.6 1.5 -0.2
v 0.6 1.8 0.2
v 0.6 1.8 0.1
v 0.6 1.8 -0.1
v 0.6 1.8 -0.2
v 0.6 1.9 0.2
v 0.6 1.9 0.1
v 0.6 1.9 -0.1
v 0.6 1.9 -0.2
v 0.7 0.2 0.2
v 0.7 0.2 0.1
v 0.7 0.2 -0.1
v 0.7 0.2 -0.2
v 0.7 0.3 0.2
v 0.7 0.3 0.1
v 0.7 0.3 -0.1
v 0.7 0.3 -0.2
v 0.7 0.7 0.2
v 0.7 0.7 0.1
v 0.7 0.7 -0.1
v 0.7 0.7 -0.2
v 0.7 1.3 0.2
v 0.7 1.3 0.1
v 0.7 1.3 -0.1
v 0.7 1.3 -0.2
v 0.7 1.7 0.2
v 0.7 1.7 0.1
v 0.7 1.7 -0.1
v 0.7 1.7 -0.2
v 0.7 1.8 0.2
v 0.7 1.8 0.1
v 0.7 1.8 -0.1
v 0.7 1.8 -0.2
v 0.8 0.3 0.2
v 0.8 0.3 0.1
v 0.8 0.3 -0.1
v 0.8 0.3 -0.2
v 0.8 0.4 0.2
v 0.8 0.4 0.1
v 0.8 0.4 -0.1
v 0.8 0.4 -0.2
v 0.8 1.6 0.2
v 0.8 1.6 0.1
v 0.8 1.6 -0.1
v 0.8 1.6 -0.2
v 0.8 1.7 0.2
v 0.8 1.7 0.1
v 0.8 1.7 -0.1
v 0.8 1.7 -0.2
v 0.9 0.4 0.2
v 0.9 0.4 0.1
v 0.9 0.4 -0.1
v 0.9 0.4 -0.2
v 0.9 0.6 0.2
v 0.9 0.6 0.1
v 0.9 0.6 -0.1
v 0.9 0.6 -0.2
v 0.9 1.4 0.2
v 0.9 1.4 0.1
v 0.9 1.4 -0.1
v 0.9 1.4 -0.2
v 0.9 1.6 0.2
v 0.9 1.6 0.1
v 0.9 1.6 -0.1
v 0.9 1.6 -0.2
v 1 0.6 0.2
v 1 0.6 0.1
v 1 0.6 -0.1
v 1 0.6 -0.2
v 1 1.4 0.2
v 1 1.4 0.1
v 1 1.4 -0.1
v 1 1.4 -0.2
v -1 0.6 0.2
v -1 1.4 0.2
v -0.9 0.4 0.2
v -0.9 0.6 0.2
v -0.9 1.4 0.2
v -0.9 1.6 0.2
v -0.8 0.3 0.2
v -0.8 0.4 0.2
v -0.8 0.7 0.2
v -0.8 1.3 0.2
v -0.8 1.6 0.2
v -0.8 1.7 0.2
v -0.7 0.2 0.2
v -0.7 0.3 0.2
v -0.7 0.5 0.2
v -0.7 0.7 0.2
v -0.7 1.3 0.2
v -0.7 1.5 0.2
v -0.7 1.7 0.2
v -0.7 1.8 0.2
v -0.6 0.1 0.2
v -0.6 0.2 0.2
v -0.6 0.4 0.2
v -0.6 0.5 0.2
v -0.6 0.7 0.2
v -0.6 1.3 0.2
v -0.6 1.5 0.2
v -0.6 1.6 0.2
v -0.6 1.8 0.2
v -0.6 1.9 0.2
v -0.5 0.3 0.2
v -0.5 0.4 0.2
v -0.5 0.5 0.2
v -0.5 1.5 0.2
v -0.5 1.6 0.2
v -0.5 1.7 0.2
v -0.4 0 0.2
v -0.4 0.1 0.2
v -0.4 0.8 0.2
v -0.4 0.9 0.2
v -0.4 1.1 0.2
v -0.4 1.2 0.2
v -0.4 1.9 0.2
v -0.4 2 0.2
v -0.3 0.2 0.2
v -0.3 0.3 0.2
v -0.3 0.4 0.2
v -0.3 0.8 0.2
v -0.3 0.9 0.2
v -0.3 1.1 0.2
v -0.3 1.2 0.2
v -0.3 1.6 0.2
v -0.3 1.7 0.2
v -0.3 1.8 0.2
v -0.2 0.9 0.2
v -0.2 1.1 0.2
v 0.2 0.9 0.2
v 0.2 1.1 0.2
v 0.3 0.2 0.2
v 0.3 0.3 0.2
v 0.3 0.4 0.2
v 0.3 0.8 0.2
v 0.3 0.9 0.2
v 0.3 1.1 0.2
v 0.3 1.2 0.2
v 0.3 1.6 0.2
v 0.3 1.7 0.2
v 0.3 1.8 0.2
v 0.4 0 0.2
v 0.4 0.1 0.2
v 0.4 0.8 0.2
v 0.4 0.9 0.2
v 0.4 1.1 0.2
v 0.4 1.2 0.2
v 0.4 1.9 0.2
v 0.4 2 0.2
v 0.5 0.3 0.2
v 0.5 0.4 0.2
v 0.5 0.5 0.2
v 0.5 1.5 0.2
v 0.5 1.6 0.2
v 0.5 1.7 0.2
v 0.6 0.1 0.2
v 0.6 0.2 0.2
v 0.6 0.4 0.2
v 0.6 0.5 0.2
v 0.6 0.7 0.2
v 0.6 1.3 0.2
v 0.6 1.5 0.2
v 0.6 1.6 0.2
v 0.6 1.8 0.2
v 0.6 1.9 0.2
v 0.7 0.2 0.2
v 0.7 0.3 0.2
v 0.7 0.5 0.2
v 0.7 0.7 0.2
v 0.7 1.3 0.2
v 0.7 1.5 0.2
v 0.7 1.7 0.2
v 0.7 1.8 0.2
v 0.8 0.3 0.2
v 0.8 0.4 0.2
v 0.8 0.7 0.2
v 0.8 1.3 0.2
v 0.8 1.6 0.2
v 0.8 1.7 0.2
v 0.9 0.4 0.2
v 0.9 0.6 0.2
v 0.9 1.4 0.2
v 0.9 1.6 0.2
v 1 0.6 0.2
v 1 1.4 0.2
v -0.8 0.7 0.1
v -0.8 1.3 0.1
v -0.7 0.5 0.1
v -0.7 0.7 0.1
v -0.7 1.3 0.1
v -0.7 1.5 0.1
v -0.6 0.4 0.1
v -0.6 0.5 0.1
v -0.6 0.7 0.1
v -0.6 1.3 0.1
v -0.6 1.5 0.1
v -0.6 1.6 0.1
v -0.5 0.3 0.1
v -0.5 0.4 0.1
v -0.5 0.5 0.1
v -0.5 1.5 0.1
v -0.5 1.6 0.1
v -0.5 1.7 0.1
v -0.4 0.8 0.1
v -0.4 0.9 0.1
v -0.4 1.1 0.1
v -0.4 1.2 0.1
v -0.3 0.2 0.1
v -0.3 0.3 0.1
v -0.3 0.4 0.1
v -0.3 0.8 0.1
v -0.3 0.9 0.1
v -0.3 1.1 0.1
v -0.3 1.2 0.1
v -0.3 1.6 0.1
v -0.3 1.7 0.1
v -0.3 1.8 0.1
v -0.2 0.9 0.1
v -0.2 1.1 0.1
v 0.2 0.9 0.1
v 0.2 1.1 0.1
v 0.3 0.2 0.1
v 0.3 0.3 0.1
v 0.3 0.4 0.1
v 0.3 0.8 0.1
v 0.3 0.9 0.1
v 0.3 1.1 0.1
v 0.3 1.2 0.1
v 0.3 1.6 0.1
v 0.3 1.7 0.1
v 0.3 1.8 0.1
v 0.4 0.8 0.1
v 0.4 0.9 0.1
v 0.4 1.1 0.1
v 0.4 1.2 0.1
v 0.5 0.3 0.1
v 0.5 0.4 0.1
v 0.5 0.5 0.1
v 0.5 1.5 0.1
v 0.5 1.6 0.1
v 0.5 1.7 0.1
v 0.6 0.4 0.1
v 0.6 0.5 0.1
v 0.6 0.7 0.1
v 0.6 1.3 0.1
v 0.6 1.5 0.1
v 0.6 1.6 0.1
v 0.7 0.5 0.1
v 0.7 0.7 0.1
v 0.7 1.3 0.1
v 0.7 1.5 0.1
v 0.8 0.7 0.1
v 0.8 1.3 0.1
v -0.8 0.7 -0.1
v -0.8 1.3 -0.1
v -0.7 0.5 -0.1
v -0.7 0.7 -0.1
v -0.7 1.3 -0.1
v -0.7 1.5 -0.1
v -0.6 0.4 -0.1
v -0.6 0.5 -0.1
v -0.6 0.7 -0.1
v -0.6 1.3 -0.1
v -0.6 1.5 -0.1
v -0.6 1.6 -0.1
v -0.5 0.3 -0.1
v -0.5 0.4 -0.1
v -0.5 0.5 -0.1
v -0.5 1.5 -0.1
v -0.5 1.6 -0.1
v -0.5 1.7 -0.1
v -0.4 0.8 -0.1
v -0.4 0.9 -0.1
v -0.4 1.1 -0.1
v -0.4 1.2 -0.1
v -0.3 0.2 -0.1
v -0.3 0.3 -0.1
v -0.3 0.4 -0.1
v -0.3 0.8 -0.1
v -0.3 0.9 -0.1
v -0.3 1.1 -0.1
v -0.3 1.2 -0.1
v -0.3 1.6 -0.1
v -0.3 1.7 -0.1
v -0.3 1.8 -0.1
v -0.2 0.9 -0.1
v -0.2 1.1 -0.1
v 0.2 0.9 -0.1
v 0.2 1.1 -0.1
v 0.3 0.2 -0.1
v 0.3 0.3 -0.1
v 0.3 0.4 -0.1
v 0.3 0.8 -0.1
v 0.3 0.9 -0.1
v 0.3 1.1 -0.1
v 0.3 1.2 -0.1
v 0.3 1.6 -0.1
v 0.3 1.7 -0.1
v 0.3 1.8 -0.1
v 0.4 0.8 -0.1
v 0.4 0.9 -0.1
v 0.4 1.1 -0.1
v 0.4 1.2 -0.1
v 0.5 0.3 -0.1
v 0.5 0.4 -0.1
v 0.5 0.5 -0.1
v 0.5 1.5 -0.1
v 0.5 1.6 -0.1
v 0.5 1.7 -0.1
v 0.6 0.4 -0.1
v 0.6 0.5 -0.1
v 0.6 0.7 -0.1
v 0.6 1.3 -0.1
v 0.6 1.5 -0.1
v 0.6 1.6 -0.1
v 0.7 0.5 -0.1
v 0.7 0.7 -0.1
v 0.7 1.3 -0.1
v 0.7 1.5 -0.1
v 0.8 0.7 -0.1
v 0.8 1.3 -0.1
v -1 0.6 -0.2
v -1 1.4 -0.2
v -0.9 0.4 -0.2
v -0.9 0.6 -0.2
v -0.9 1.4 -0.2
v -0.9 1.6 -0.2
v -0.8 0.3 -0.2
v -0.8 0.4 -0.2
v -0.8 0.7 -0.2
v -0.8 1.3 -0.2
v -0.8 1.6 -0.2
v -0.8 1.7 -0.2
v -0.7 0.2 -0.2
v -0.7 0.3 -0.2
v -0.7 0.5 -0.2
v -0.7 0.7 -0.2
v -0.7 1.3 -0.2
v -0.7 1.5 -0.2
v -0.7 1.7 -0.2
v -0.7 1.8 -0.2
v -0.6 0.1 -0.2
v -0.6 0.2 -0.2
v -0.6 0.4 -0.2
v -0.6 0.5 -0.2
v -0.6 0.7 -0.2
v -0.6 1.3 -0.2
v -0.6 1.5 -0.2
v -0.6 1.6 -0.2
v -0.6 1.8 -0.2
v -0.6 1.9 -0.2
v -0.5 0.3 -0.2
v -0.5 0.4 -0.2
v -0.5 0.5 -0.2
v -0.5 1.5 -0.2
v -0.5 1.6 -0.2
v -0.5 1.7 -0.2
v -0.4 0 -0.2
v -0.4 0.1 -0.2
v -0.4 0.8 -0.2
v -0.4 0.9 -0.2
v -0.4 1.1 -0.2
v -0.4 1.2 -0.2
v -0.4 1.9 -0.2
v -0.4 2 -0.2
v -0.3 0.2 -0.2
v -0.3 0.3 -0.2
v -0.3 0.4 -0.2
v -0.3 0.8 -0.2
v -0.3 0.9 -0.2
v -0.3 1.1 -0.2
v -0.3 1.2 -0.2
v -0.3 1.6 -0.2
v -0.3 1.7 -0.2
v -0.3 1.8 -0.2
v -0.2 0.9 -0.2
v -0.2 1.1 -0.2
v 0.2 0.9 -0.2
v 0.2 1.1 -0.2
v 0.3 0.2 -0.2
v 0.3 0.3 -0.2
v 0.3 0.4 -0.2
v 0.3 0.8 -0.2
v 0.3 0.9 -0.2
v 0.3 1.1 -0.2
v 0.3 1.2 -0.2
v 0.3 1.6 -0.2
v 0.3 1.7 -0.2
v 0.3 1.8 -0.2
v 0.4 0 -0.2
v 0.4 0.1 -0.2
v 0.4 0.8 -0.2
v 0.4 0.9 -0.2
v 0.4 1.1 -0.2
v 0.4 1.2 -0.2
v 0.4 1.9 -0.2
v 0.4 2 -0.2
v 0.5 0.3 -0.2
v 0.5 0.4 -0.2
v 0.5 0.5 -0.2
v 0.5 1.5 -0.2
v 0.5 1.6 -0.2
v 0.5 1.7 -0.2
v 0.6 0.1 -0.2
v 0.6 0.2 -0.2
v 0.6 0.4 -0.2
v 0.6 0.5 -0.2
v 0.6 0.7 -0.2
v 0.6 1.3 -0.2
v 0.6 1.5 -0.2
v 0.6 1.6 -0.2
v 0.6 1.8 -0.2
v 0.6 1.9 -0.2
v 0.7 0.2 -0.2
v 0.7 0.3 -0.2
v 0.7 0.5 -0.2
v 0.7 0.7 -0.2
v 0.7 1.3 -0.2
v 0.7 1.5 -0.2
v 0.7 1.7 -0.2
v 0.7 1.8 -0.2
v 0.8 0.3 -0.2
v 0.8 0.4 -0.2
v 0.8 0.7 -0.2
v 0.8 1.3 -0.2
v 0.8 1.6 -0.2
v 0.8 1.7 -0.2
v 0.9 0.4 -0.2
v 0.9 0.6 -0.2
v 0.9 1.4 -0.2
v 0.9 1.6 -0.2
v 1 0.6 -0.2
v 1 1.4 -0.2
v -0.4 0 0.2
v 0.4 0 0.2
v -0.4 0 0.1
v 0.4 0 0.1
v -0.4 0 -0.1
v 0.4 0 -0.1
v -0.4 0 -0.2
v 0.4 0 -0.2
v -0.6 0.1 0.2
v -0.4 0.1 0.2
v 0.4 0.1 0.2
v 0.6 0.1 0.2
v -0.6 0.1 0.1
v -0.4 0.1 0.1
v 0.4 0.1 0.1
v 0.6 0.1 0.1
v -0.6 0.1 -0.1
v -0.4 0.1 -0.1
v 0.4 0.1 -0.1
v 0.6 0.1 -0.1
v -0.6 0.1 -0.2
v -0.4 0.1 -0.2
v 0.4 0.1 -0.2
v 0.6 0.1 -0.2
v -0.7 0.2 0.2
v -0.6 0.2 0.2
v 0.6 0.2 0.2
v 0.7 0.2 0.2
v -0.7 0.2 0.1
v -0.6 0.2 0.1
v 0.6 0.2 0.1
v 0.7 0.2 0.1
v -0.7 0.2 -0.1
v -0.6 0.2 -0.1
v 0.6 0.2 -0.1
v 0.7 0.2 -0.1
v -0.7 0.2 -0.2
v -0.6 0.2 -0.2
v 0.6 0.2 -0.2
v 0.7 0.2 -0.2
v -0.8 0.3 0.2
v -0.7 0.3 0.2
v -0.3 0.3 0.2
v 0.3 0.3 0.2
v 0.7 0.3 0.2
v 0.8 0.3 0.2
v -0.8 0.3 0.1
v -0.7 0.3 0.1
v -0.3 0.3 0.1
v 0.3 0.3 0.1
v 0.7 0.3 0.1
v 0.8 0.3 0.1
v -0.8 0.3 -0.1
v -0.7 0.3 -0.1
v -0.3 0.3 -0.1
v 0.3 0.3 -0.1
v 0.7 0.3 -0.1
v 0.8 0.3 -0.1
v -0.8 0.3 -0.2
v -0.7 0.3 -0.2
v -0.3 0.3 -0.2
v 0.3 0.3 -0.2
v 0.7 0.3 -0.2
v 0.8 0.3 -0.2
v -0.9 0.4 0.2
v -0.8 0.4 0.2
v -0.5 0.4 0.2
v -0.3 0.4 0.2
v 0.3 0.4 0.2
v 0.5 0.4 0.2
v 0.8 0.4 0.2
v 0.9 0.4 0.2
v -0.9 0.4 0.1
v -0.8 0.4 0.1
v -0.5 0.4 0.1
v -0.3 0.4 0.1
v 0.3 0.4 0.1
v 0.5 0.4 0.1
v 0.8 0.4 0.1
v 0.9 0.4 0.1
v -0.9 0.4 -0.1
v -0.8 0.4 -0.1
v -0.5 0.4 -0.1
v -0.3 0.4 -0.1
v 0.3 0.4 -0.1
v 0.5 0.4 -0.1
v 0.8 0.4 -0.1
v 0.9 0.4 -0.1
v -0.9 0.4 -0.2
v -0.8 0.4 -0.2
v -0.5 0.4 -0.2
v -0.3 0.4 -0.2
v 0.3 0.4 -0.2
v 0.5 0.4 -0.2
v 0.8 0.4 -0.2
v 0.9 0.4 -0.2
v -0.6 0.5 0.2
v -0.5 0.5 0.2
v 0.5 0.5 0.2
v 0.6 0.5 0.2
v -0.6 0.5 0.1
v -0.5 0.5 0.1
v 0.5 0.5 0.1
v 0.6 0.5 0.1
v -0.6 0.5 -0.1
v -0.5 0.5 -0.1
v 0.5 0.5 -0.1
v 0.6 0.5 -0.1
v -0.6 0.5 -0.2
v -0.5 0.5 -0.2
v 0.5 0.5 -0.2
v 0.6 0.5 -0.2
v -1 0.6 0.2
v -0.9 0.6 0.2
v 0.9 0.6 0.2
v 1 0.6 0.2
v -1 0.6 0.1
v -0.9 0.6 0.1
v 0.9 0.6 0.1
v 1 0.6 0.1
v -1 0.6 -0.1
v -0.9 0.6 -0.1
v 0.9 0.6 -0.1
v 1 0.6 -0.1
v -1 0.6 -0.2
v -0.9 0.6 -0.2
v 0.9 0.6 -0.2
v 1 0.6 -0.2
v -0.7 0.7 0.2
v -0.6 0.7 0.2
v 0.6 0.7 0.2
v 0.7 0.7 0.2
v -0.7 0.7 0.1
v -0.6 0.7 0.1
v 0.6 0.7 0.1
v 0.7 0.7 0.1
v -0.7 0.7 -0.1
v -0.6 0.7 -0.1
v 0.6 0.7 -0.1
v 0.7 0.7 -0.1
v -0.7 0.7 -0.2
v -0.6 0.7 -0.2
v 0.6 0.7 -0.2
v 0.7 0.7 -0.2
v -0.4 0.9 0.2
v -0.3 0.9 0.2
v 0.3 0.9 0.2
v 0.4 0.9 0.2
v -0.4 0.9 0.1
v -0.3 0.9 0.1
v 0.3 0.9 0.1
v 0.4 0.9 0.1
v -0.4 0.9 -0.1
v -0.3 0.9 -0.1
v 0.3 0.9 -0.1
v 0.4 0.9 -0.1
v -0.4 0.9 -0.2
v -0.3 0.9 -0.2
v 0.3 0.9 -0.2
v 0.4 0.9 -0.2
v -0.3 1.1 0.2
v -0.2 1.1 0.2
v 0.2 1.1 0.2
v 0.3 1.1 0.2
v -0.3 1.1 0.1
v -0.2 1.1 0.1
v 0.2 1.1 0.1
v 0.3 1.1 0.1
v -0.3 1.1 -0.1
v -0.2 1.1 -0.1
v 0.2 1.1 -0.1
v 0.3 1.1 -0.1
v -0.3 1.1 -0.2
v -0.2 1.1 -0.2
v 0.2 1.1 -0.2
v 0.3 1.1 -0.2
v -0.4 1.2 0.2
v -0.3 1.2 0.2
v 0.3 1.2 0.2
v 0.4 1.2 0.2
v -0.4 1.2 0.1
v -0.3 1.2 0.1
v 0.3 1.2 0.1
v 0.4 1.2 0.1
v -0.4 1.2 -0.1
v -0.3 1.2 -0.1
v 0.3 1.2 -0.1
v 0.4 1.2 -0.1
v -0.4 1.2 -0.2
v -0.3 1.2 -0.2
v 0.3 1.2 -0.2
v 0.4 1.2 -0.2
v -0.8 1.3 0.2
v -0.7 1.3 0.2
v 0.7 1.3 0.2
v 0.8 1.3 0.2
v -0.8 1.3 0.1
v -0.7 1.3 0.1
v 0.7 1.3 0.1
v 0.8 1.3 0.1
v -0.8 1.3 -0.1
v -0.7 1.3 -0.1
v 0.7 1.3 -0.1
v 0.8 1.3 -0.1
v -0.8 1.3 -0.2
v -0.7 1.3 -0.2
v 0.7 1.3 -0.2
v 0.8 1.3 -0.2
v -0.7 1.5 0.2
v -0.6 1.5 0.2
v 0.6 1.5 0.2
v 0.7 1.5 0.2
v -0.7 1.5 0.1
v -0.6 1.5 0.1
v 0.6 1.5 0.1
v 0.7 1.5 0.1
v -0.7 1.5 -0.1
v -0.6 1.5 -0.1
v 0.6 1.5 -0.1
v 0.7 1.5 -0.1
v -0.7 1.5 -0.2
v -0.6 1.5 -0.2
v 0.6 1.5 -0.2
v 0.7 1.5 -0.2
v -0.6 1.6 0.2
v -0.5 1.6 0.2
v 0.5 1.6 0.2
v 0.6 1.6 0.2
v -0.6 1.6 0.1
v -0.5 1.6 0.1
v 0.5 1.6 0.1
v 0.6 1.6 0.1
v -0.6 1.6 -0.1
v -0.5 1.6 -0.1
v 0.5 1.6 -0.1
v 0.6 1.6 -0.1
v -0.6 1.6 -0.2
v -0.5 1.6 -0.2
v 0.5 1.6 -0.2
v 0.6 1.6 -0.2
v -0.5 1.7 0.2
v -0.3 1.7 0.2
v 0.3 1.7 0.2
v 0.5 1.7 0.2
v -0.5 1.7 0.1
v -0.3 1.7 0.1
v 0.3 1.7 0.1
v 0.5 1.7 0.1
v -0.5 1.7 -0.1
v -0.3 1.7 -0.1
v 0.3 1.7 -0.1
v 0.5 1.7 -0.1
v -0.5 1.7 -0.2
v -0.3 1.7 -0.2
v 0.3 1.7 -0.2
v 0.5 1.7 -0.2
v -0.3 1.8 0.2
v 0.3 1.8 0.2
v -0.3 1.8 0.1
v 0.3 1.8 0.1
v -0.3 1.8 -0.1
v 0.3 1.8 -0.1
v -0.3 1.8 -0.2
v 0.3 1.8 -0.2
v -0.3 0.2 0.2
v 0.3 0.2 0.2
v -0.3 0.2 0.1
v 0.3 0.2 0.1
v -0.3 0.2 -0.1
v 0.3 0.2 -0.1
v -0.3 0.2 -0.2
v 0.3 0.2 -0.2
v -0.5 0.3 0.2
v -0.3 0.3 0.2
v 0.3 0.3 0.2
v 0.5 0.3 0.2
v -0.5 0.3 0.1
v -0.3 0.3 0.1
v 0.3 0.3 0.1
v 0.5 0.3 0.1
v -0.5 0.3 -0.1
v -0.3 0.3 -0.1
v 0.3 0.3 -0.1
v 0.5 0.3 -0.1
v -0.5 0.3 -0.2
v -0.3 0.3 -0.2
v 0.3 0.3 -0.2
v 0.5 0.3 -0.2
v -0.6 0.4 0.2
v -0.5 0.4 0.2
v 0.5 0.4 0.2
v 0.6 0.4 0.2
v -0.6 0.4 0.1
v -0.5 0.4 0.1
v 0.5 0.4 0.1
v 0.6 0.4 0.1
v -0.6 0.4 -0.1
v -0.5 0.4 -0.1
v 0.5 0.4 -0.1
v 0.6 0.4 -0.1
v -0.6 0.4 -0.2
v -0.5 0.4 -0.2
v 0.5 0.4 -0.2
v 0.6 0.4 -0.2
v -0.7 0.5 0.2
v -0.6 0.5 0.2
v 0.6 0.5 0.2
v 0.7 0.5 0.2
v -0.7 0.5 0.1
v -0.6 0.5 0.1
v 0.6 0.5 0.1
v 0.7 0.5 0.1
v -0.7 0.5 -0.1
v -0.6 0.5 -0.1
v 0.6 0.5 -0.1
v 0.7 0.5 -0.1
v -0.7 0.5 -0.2
v -0.6 0.5 -0.2
v 0.6 0.5 -0.2
v 0.7 0.5 -0.2
v -0.8 0.7 0.2
v -0.7 0.7 0.2
v 0.7 0.7 0.2
v 0.8 0.7 0.2
v -0.8 0.7 0.1
v -0.7 0.7 0.1
v 0.7 0.7 0.1
v 0.8 0.7 0.1
v -0.8 0.7 -0.1
v -0.7 0.7 -0.1
v 0.7 0.7 -0.1
v 0.8 0.7 -0.1
v -0.8 0.7 -0.2
v -0.7 0.7 -0.2
v 0.7 0.7 -0.2
v 0.8 0.7 -0.2
v -0.4 0.8 0.2
v -0.3 0.8 0.2
v 0.3 0.8 0.2
v 0.4 0.8 0.2
v -0.4 0.8 0.1
v -0.3 0.8 0.1
v 0.3 0.8 0.1
v 0.4 0.8 0.1
v -0.4 0.8 -0.1
v -0.3 0.8 -0.1
v 0.3 0.8 -0.1
v 0.4 0.8 -0.1
v -0.4 0.8 -0.2
v -0.3 0.8 -0.2
v 0.3 0.8 -0.2
v 0.4 0.8 -0.2
v -0.3 0.9 0.2
v -0.2 0.9 0.2
v 0.2 0.9 0.2
v 0.3 0.9 0.2
v -0.3 0.9 0.1
v -0.2 0.9 0.1
v 0.2 0.9 0.1
v 0.3 0.9 0.1
v -0.3 0.9 -0.1
v -0.2 0.9 -0.1
v 0.2 0.9 -0.1
v 0.3 0.9 -0.1
v -0.3 0.9 -0.2
v -0.2 0.9 -0.2
v 0.2 0.9 -0.2
v 0.3 0.9 -0.2
v -0.4 1.1 0.2
v -0.3 1.1 0.2
v 0.3 1.1 0.2
v 0.4 1.1 0.2
v -0.4 1.1 0.1
v -0.3 1.1 0.1
v 0.3 1.1 0.1
v 0.4 1.1 0.1
v -0.4 1.1 -0.1
v -0.3 1.1 -0.1
v 0.3 1.1 -0.1
v 0.4 1.1 -0.1
v -0.4 1.1 -0.2
v -0.3 1.1 -0.2
v 0.3 1.1 -0.2
v 0.4 1.1 -0.2
v -0.7 1.3 0.2
v -0.6 1.3 0.2
v 0.6 1.3 0.2
v 0.7 1.3 0.2
v -0.7 1.3 0.1
v -0.6 1.3 0.1
v 0.6 1.3 0.1
v 0.7 1.3 0.1
v -0.7 1.3 -0.1
v -0.6 1.3 -0.1
v 0.6 1.3 -0.1
v 0.7 1.3 -0.1
v -0.7 1.3 -0.2
v -0.6 1.3 -0.2
v 0.6 1.3 -0.2
v 0.7 1.3 -0.2
v -1 1.4 0.2
v -0.9 1.4 0.2
v 0.9 1.4 0.2
v 1 1.4 0.2
v -1 1.4 0.1
v -0.9 1.4 0.1
v 0.9 1.4 0.1
v 1 1.4 0.1
v -1 1.4 -0.1
v -0.9 1.4 -0.1
v 0.9 1.4 -0.1
v 1 1.4 -0.1
v -1 1.4 -0.2
v -0.9 1.4 -0.2
v 0.9 1.4 -0.2
v 1 1.4 -0.2
v -0.6 1.5 0.2
v -0.5 1.5 0.2
v 0.5 1.5 0.2
v 0.6 1.5 0.2
v -0.6 1.5 0.1
v -0.5 1.5 0.1
v 0.5 1.5 0.1
v 0.6 1.5 0.1
v -0.6 1.5 -0.1
v -0.5 1.5 -0.1
v 0.5 1.5 -0.1
v 0.6 1.5 -0.1
v -0.6 1.5 -0.2
v -0.5 1.5 -0.2
v 0.5 1.5 -0.2
v 0.6 1.5 -0.2
v -0.9 1.6 0.2
v -0.8 1.6 0.2
v -0.5 1.6 0.2
v -0.3 1.6 0.2
v 0.3 1.6 0.2
v 0.5 1.6 0.2
v 0.8 1.6 0.2
v 0.9 1.6 0.2
v -0.9 1.6 0.1
v -0.8 1.6 0.1
v -0.5 1.6 0.1
v -0.3 1.6 0.1
v 0.3 1.6 0.1
v 0.5 1.6 0.1
v 0.8 1.6 0.1
v 0.9 1.6 0.1
v -0.9 1.6 -0.1
v -0.8 1.6 -0.1
v -0.5 1.6 -0.1
v -0.3 1.6 -0.1
v 0.3 1.6 -0.1
v 0.5 1.6 -0.1
v 0.8 1.6 -0.1
v 0.9 1.6 -0.1
v -0.9 1.6 -0.2
v -0.8 1.6 -0.2
v -0.5 1.6 -0.2
v -0.3 1.6 -0.2
v 0.3 1.6 -0.2
v 0.5 1.6 -0.2
v 0.8 1.6 -0.2
v 0.9 1.6 -0.2
v -0.8 1.7 0.2
v -0.7 1.7 0.2
v -0.3 1.7 0.2
v 0.3 1.7 0.2
v 0.7 1.7 0.2
v 0.8 1.7 0.2
v -0.8 1.7 0.1
v -0.7 1.7 0.1
v -0.3 1.7 0.1
v 0.3 1.7 0.1
v 0.7 1.7 0.1
v 0.8 1.7 0.1
v -0.8 1.7 -0.1
v -0.7 1.7 -0.1
v -0.3 1.7 -0.1
v 0.3 1.7 -0.1
v 0.7 1.7 -0.1
v 0.8 1.7 -0.1
v -0.8 1.7 -0.2
v -0.7 1.7 -0.2
v -0.3 1.7 -0.2
v 0.3 1.7 -0.2
v 0.7 1.7 -0.2
v 0.8 1.7 -0.2
v -0.7 1.8 0.2
v -0.6 1.8 0.2
v 0.6 1.8 0.2
v 0.7 1.8 0.2
v -0.7 1.8 0.1
v -0.6 1.8 0.1
v 0.6 1.8 0.1
v 0.7 1.8 0.1
v -0.7 1.8 -0.1
v -0.6 1.8 -0.1
v 0.6 1.8 -0.1
v 0.7 1.8 -0.1
v -0.7 1.8 -0.2
v -0.6 1.8 -0.2
v 0.6 1.8 -0.2
v 0.7 1.8 -0.2
v -0.6 1.9 0.2
v -0.4 1.9 0.2
v 0.4 1.9 0.2
v 0.6 1.9 0.2
v -0.6 1.9 0.1
v -0.4 1.9 0.1
v 0.4 1.9 0.1
v 0.6 1.9 0.1
v -0.6 1.9 -0.1
v -0.4 1.9 -0.1
v 0.4 1.9 -0.1
v 0.6 1.9 -0.1
v -0.6 1.9 -0.2
v -0.4 1.9 -0.2
v 0.4 1.9 -0.2
v 0.6 1.9 -0.2
v -0.4 2 0.2
v 0.4 2 0.2
v -0.4 2 0.1
v 0.4 2 0.1
v -0.4 2 -0.1
v 0.4 2 -0.1
v -0.4 2 -0.2
v 0.4 2 -0.2

# faces
f 5/1/1 2/1/1 1/1/1
f 6/3/1 3/3/1 2/3/1
f 6/1/1 2/1/1 5/1/1
f 7/1/1 4/1/1 3/1/1
f 7/3/1 3/3/1 6/3/1
f 8/1/1 4/1/1 7/1/1
f 13/1/1 10/1/1 9/1/1
f 14/3/1 11/3/1 10/3/1
f 14/1/1 10/1/1 13/1/1
f 15/1/1 12/1/1 11/1/1
f 15/3/1 11/3/1 14/3/1
f 16/1/1 12/1/1 15/1/1
f 21/1/1 18/1/1 17/1/1
f 22/3/1 19/3/1 18/3/1
f 22/1/1 18/1/1 21/1/1
f 23/1/1 20/1/1 19/1/1
f 23/3/1 19/3/1 22/3/1
f 24/1/1 20/1/1 23/1/1
f 29/1/1 26/1/1 25/1/1
f 30/3/1 27/3/1 26/3/1
f 30/1/1 26/1/1 29/1/1
f 31/1/1 28/1/1 27/1/1
f 31/3/1 27/3/1 30/3/1
f 32/1/1 28/1/1 31/1/1
f 37/1/1 34/1/1 33/1/1
f 38/3/1 35/3/1 34/3/1
f 38/1/1 34/1/1 37/1/1
f 39/1/1 36/1/1 35/1/1
f 39/3/1 35/3/1 38/3/1
f 40/1/1 36/1/1 39/1/1
f 45/1/1 42/1/1 41/1/1
f 46/3/1 43/3/1 42/3/1
f 46/1/1 42/1/1 45/1/1
f 47/1/1 44/1/1 43/1/1
f 47/3/1 43/3/1 46/3/1
f 48/1/1 44/1/1 47/1/1
f 53/2/1 50/2/1 49/2/1
f 54/2/1 50/2/1 53/2/1
f 55/2/1 52/2/1 51/2/1
f 56/2/1 52/2/1 55/2/1
f 61/1/1 58/1/1 57/1/1
f 62/3/1 59/3/1 58/3/1
f 62/1/1 58/1/1 61/1/1
f 63/1/1 60/1/1 59/1/1
f 63/3/1 59/3/1 62/3/1
f 64/1/1 60/1/1 63/1/1
f 69/1/1 66/1/1 65/1/1
f 70/3/1 67/3/1 66/3/1
f 70/1/1 66/1/1 69/1/1
f 71/1/1 68/1/1 67/1/1
f 71/3/1 67/3/1 70/3/1
f 72/1/1 68/1/1 71/1/1
f 77/2/1 74/2/1 73/2/1
f 78/2/1 74/2/1 77/2/1
f 79/2/1 76/2/1 75/2/1
f 80/2/1 76/2/1 79/2/1
f 85/2/1 82/2/1 81/2/1
f 86/2/1 82/2/1 85/2/1
f 87/2/1 84/2/1 83/2/1
f 88/2/1 84/2/1 87/2/1
f 93/1/1 90/1/1 89/1/1
f 94/3/1 91/3/1 90/3/1
f 94/1/1 90/1/1 93/1/1
f 95/1/1 92/1/1 91/1/1
f 95/3/1 91/3/1 94/3/1
f 96/1/1 92/1/1 95/1/1
f 101/2/1 98/2/1 97/2/1
f 102/2/1 98/2/1 101/2/1
f 103/2/1 100/2/1 99/2/1
f 104/2/1 100/2/1 103/2/1
f 109/2/1 106/2/1 105/2/1
f 110/2/1 106/2/1 109/2/1
f 111/2/1 108/2/1 107/2/1
f 112/2/1 108/2/1 111/2/1
f 117/1/1 114/1/1 113/1/1
f 118/3/1 115/3/1 114/3/1
f 118/1/1 114/1/1 117/1/1
f 119/1/1 116/1/1 115/1/1
f 119/3/1 115/3/1 118/3/1
f 120/1/1 116/1/1 119/1/1
f 125/1/1 122/1/1 121/1/1
f 126/3/1 123/3/1 122/3/1
f 126/1/1 122/1/1 125/1/1
f 127/1/1 124/1/1 123/1/1
f 127/3/1 123/3/1 126/3/1
f 128/1/1 124/1/1 127/1/1
f 133/2/1 130/2/1 129/2/1
f 134/2/1 130/2/1 133/2/1
f 135/2/1 132/2/1 131/2/1
f 136/2/1 132/2/1 135/2/1
f 141/2/1 138/2/1 137/2/1
f 142/2/1 138/2/1 141/2/1
f 143/2/1 140/2/1 139/2/1
f 144/2/1 140/2/1 143/2/1
f 149/2/1 146/2/1 145/2/1
f 150/2/1 146/2/1 149/2/1
f 151/2/1 148/2/1 147/2/1
f 152/2/1 148/2/1 151/2/1
f 157/2/1 154/2/1 153/2/1
f 158/2/1 154/2/1 157/2/1
f 159/2/1 156/2/1 155/2/1
f 160/2/1 156/2/1 159/2/1
f 165/2/1 162/2/1 161/2/1
f 166/2/1 162/2/1 165/2/1
f 167/2/1 164/2/1 163/2/1
f 168/2/1 164/2/1 167/2/1
f 173/1/1 170/1/1 169/1/1
f 174/1/1 170/1/1 173/1/1
f 175/1/1 172/1/1 171/1/1
f 176/1/1 172/1/1 175/1/1
f 181/2/1 178/2/1 177/2/1
f 182/2/1 178/2/1 181/2/1
f 183/2/1 180/2/1 179/2/1
f 184/2/1 180/2/1 183/2/1
f 189/1/1 186/1/1 185/1/1
f 190/1/1 186/1/1 189/1/1
f 191/1/1 188/1/1 187/1/1
f 192/1/1 188/1/1 191/1/1
f 197/2/1 194/2/1 193/2/1
f 198/2/1 194/2/1 197/2/1
f 199/2/1 196/2/1 195/2/1
f 200/2/1 196/2/1 199/2/1
f 205/2/1 202/2/1 201/2/1
f 206/2/1 202/2/1 205/2/1
f 207/2/1 204/2/1 203/2/1
f 208/2/1 204/2/1 207/2/1
f 213/1/1 210/1/1 209/1/1
f 214/1/1 210/1/1 213/1/1
f 215/1/1 212/1/1 211/1/1
f 216/1/1 212/1/1 215/1/1
f 221/1/1 218/1/1 217/1/1
f 222/1/1 218/1/1 221/1/1
f 223/1/1 220/1/1 219/1/1
f 224/1/1 220/1/1 223/1/1
f 229/1/1 226/1/1 225/1/1
f 230/1/1 226/1/1 229/1/1
f 231/1/1 228/1/1 227/1/1
f 232/1/1 228/1/1 231/1/1
f 237/1/1 234/1/1 233/1/1
f 238/1/1 234/1/1 237/1/1
f 239/1/1 236/1/1 235/1/1
f 240/1/1 236/1/1 239/1/1
f 245/1/1 242/1/1 241/1/1
f 246/1/1 242/1/1 245/1/1
f 247/1/1 244/1/1 243/1/1
f 248/1/1 244/1/1 247/1/1
f 253/1/1 250/1/1 249/1/1
f 254/1/1 250/1/1 253/1/1
f 255/1/1 252/1/1 251/1/1
f 256/1/1 252/1/1 255/1/1
f 261/1/1 258/1/1 257/1/1
f 262/1/1 258/1/1 261/1/1
f 263/1/1 260/1/1 259/1/1
f 264/1/1 260/1/1 263/1/1
f 265/1/2 266/1/2 269/1/2
f 269/1/2 266/1/2 270/1/2
f 267/1/2 268/1/2 271/1/2
f 271/1/2 268/1/2 272/1/2
f 273/1/2 274/1/2 277/1/2
f 277/1/2 274/1/2 278/1/2
f 275/1/2 276/1/2 279/1/2
f 279/1/2 276/1/2 280/1/2
f 281/1/2 282/1/2 285/1/2
f 285/1/2 282/1/2 286/1/2
f 283/1/2 284/1/2 287/1/2
f 287/1/2 284/1/2 288/1/2
f 289/1/2 290/1/2 293/1/2
f 293/1/2 290/1/2 294/1/2
f 291/1/2 292/1/2 295/1/2
f 295/1/2 292/1/2 296/1/2
f 297/1/2 298/1/2 301/1/2
f 301/1/2 298/1/2 302/1/2
f 299/1/2 300/1/2 303/1/2
f 303/1/2 300/1/2 304/1/2
f 305/1/2 306/1/2 309/1/2
f 309/1/2 306/1/2 310/1/2
f 307/1/2 308/1/2 311/1/2
f 311/1/2 308/1/2 312/1/2
f 313/1/2 314/1/2 317/1/2
f 317/1/2 314/1/2 318/1/2
f 315/1/2 316/1/2 319/1/2
f 319/1/2 316/1/2 320/1/2
f 321/2/2 322/2/2 325/2/2
f 325/2/2 322/2/2 326/2/2
f 323/2/2 324/2/2 327/2/2
f 327/2/2 324/2/2 328/2/2
f 329/2/2 330/2/2 333/2/2
f 333/2/2 330/2/2 334/2/2
f 331/2/2 332/2/2 335/2/2
f 335/2/2 332/2/2 336/2/2
f 337/1/2 338/1/2 341/1/2
f 341/1/2 338/1/2 342/1/2
f 339/1/2 340/1/2 343/1/2
f 343/1/2 340/1/2 344/1/2
f 345/2/2 346/2/2 349/2/2
f 349/2/2 346/2/2 350/2/2
f 347/2/2 348/2/2 351/2/2
f 351/2/2 348/2/2 352/2/2
f 353/1/2 354/1/2 357/1/2
f 357/1/2 354/1/2 358/1/2
f 355/1/2 356/1/2 359/1/2
f 359/1/2 356/1/2 360/1/2
f 361/2/2 362/2/2 365/2/2
f 365/2/2 362/2/2 366/2/2
f 363/2/2 364/2/2 367/2/2
f 367/2/2 364/2/2 368/2/2
f 369/2/2 370/2/2 373/2/2
f 373/2/2 370/2/2 374/2/2
f 371/2/2 372/2/2 375/2/2
f 375/2/2 372/2/2 376/2/2
f 377/2/2 378/2/2 381/2/2
f 381/2/2 378/2/2 382/2/2
f 379/2/2 380/2/2 383/2/2
f 383/2/2 380/2/2 384/2/2
f 385/2/2 386/2/2 389/2/2
f 389/2/2 386/2/2 390/2/2
f 387/2/2 388/2/2 391/2/2
f 391/2/2 388/2/2 392/2/2
f 393/2/2 394/2/2 397/2/2
f 397/2/2 394/2/2 398/2/2
f 395/2/2 396/2/2 399/2/2
f 399/2/2 396/2/2 400/2/2
f 401/1/2 402/1/2 405/1/2
f 402/3/2 403/3/2 406/3/2
f 405/1/2 402/1/2 406/1/2
f 403/1/2 404/1/2 407/1/2
f 406/3/2 403/3/2 407/3/2
f 407/1/2 404/1/2 408/1/2
f 409/1/2 410/1/2 413/1/2
f 410/3/2 411/3/2 414/3/2
f 413/1/2 410/1/2 414/1/2
f 411/1/2 412/1/2 415/1/2
f 414/3/2 411/3/2 415/3/2
f 415/1/2 412/1/2 416/1/2
f 417/2/2 418/2/2 421/2/2
f 421/2/2 418/2/2 422/2/2
f 419/2/2 420/2/2 423/2/2
f 423/2/2 420/2/2 424/2/2
f 425/2/2 426/2/2 429/2/2
f 429/2/2 426/2/2 430/2/2
f 427/2/2 428/2/2 431/2/2
f 431/2/2 428/2/2 432/2/2
f 433/1/2 434/1/2 437/1/2
f 434/3/2 435/3/2 438/3/2
f 437/1/2 434/1/2 438/1/2
f 435/1/2 436/1/2 439/1/2
f 438/3/2 435/3/2 439/3/2
f 439/1/2 436/1/2 440/1/2
f 441/2/2 442/2/2 445/2/2
f 445/2/2 442/2/2 446/2/2
f 443/2/2 444/2/2 447/2/2
f 447/2/2 444/2/2 448/2/2
f 449/2/2 450/2/2 453/2/2
f 453/2/2 450/2/2 454/2/2
f 451/2/2 452/2/2 455/2/2
f 455/2/2 452/2/2 456/2/2
f 457/1/2 458/1/2 461/1/2
f 458/3/2 459/3/2 462/3/2
f 461/1/2 458/1/2 462/1/2
f 459/1/2 460/1/2 463/1/2
f 462/3/2 459/3/2 463/3/2
f 463/1/2 460/1/2 464/1/2
f 465/1/2 466/1/2 469/1/2
f 466/3/2 467/3/2 470/3/2
f 469/1/2 466/1/2 470/1/2
f 467/1/2 468/1/2 471/1/2
f 470/3/2 467/3/2 471/3/2
f 471/1/2 468/1/2 472/1/2
f 473/2/2 474/2/2 477/2/2
f 477/2/2 474/2/2 478/2/2
f 475/2/2 476/2/2 479/2/2
f 479/2/2 476/2/2 480/2/2
f 481/1/2 482/1/2 485/1/2
f 482/3/2 483/3/2 486/3/2
f 485/1/2 482/1/2 486/1/2
f 483/1/2 484/1/2 487/1/2
f 486/3/2 483/3/2 487/3/2
f 487/1/2 484/1/2 488/1/2
f 489/1/2 490/1/2 493/1/2
f 490/3/2 491/3/2 494/3/2
f 493/1/2 490/1/2 494/1/2
f 491/1/2 492/1/2 495/1/2
f 494/3/2 491/3/2 495/3/2
f 495/1/2 492/1/2 496/1/2
f 497/1/2 498/1/2 501/1/2
f 498/3/2 499/3/2 502/3/2
f 501/1/2 498/1/2 502/1/2
f 499/1/2 500/1/2 503/1/2
f 502/3/2 499/3/2 503/3/2
f 503/1/2 500/1/2 504/1/2
f 505/1/2 506/1/2 509/1/2
f 506/3/2 507/3/2 510/3/2
f 509/1/2 506/1/2 510/1/2
f 507/1/2 508/1/2 511/1/2
f 510/3/2 507/3/2 511/3/2
f 511/1/2 508/1/2 512/1/2
f 513/1/2 514/1/2 517/1/2
f 514/3/2 515/3/2 518/3/2
f 517/1/2 514/1/2 518/1/2
f 515/1/2 516/1/2 519/1/2
f 518/3/2 515/3/2 519/3/2
f 519/1/2 516/1/2 520/1/2
f 521/1/2 522/1/2 525/1/2
f 522/3/2 523/3/2 526/3/2
f 525/1/2 522/1/2 526/1/2
f 523/1/2 524/1/2 527/1/2
f 526/3/2 523/3/2 527/3/2
f 527/1/2 524/1/2 528/1/2
f 532/1/3 530/1/3 529/1/3
f 533/1/3 530/1/3 532/1/3
f 536/1/3 532/1/3 531/1/3
f 536/1/3 534/1/3 533/1/3
f 536/1/3 533/1/3 532/1/3
f 537/1/3 534/1/3 536/1/3
f 538/1/3 534/1/3 537/1/3
f 539/1/3 534/1/3 538/1/3
f 542/1/3 536/1/3 535/1/3
f 542/1/3 537/1/3 536/1/3
f 543/1/3 537/1/3 542/1/3
f 544/1/3 537/1/3 543/1/3
f 545/1/3 539/1/3 538/1/3
f 545/1/3 540/1/3 539/1/3
f 546/1/3 540/1/3 545/1/3
f 547/1/3 540/1/3 546/1/3
f 550/1/3 543/1/3 542/1/3
f 550/1/3 542/1/3 541/1/3
f 551/1/3 543/1/3 550/1/3
f 552/1/3 543/1/3 551/1/3
f 553/2/3 545/2/3 544/2/3
f 554/2/3 545/2/3 553/2/3
f 555/1/3 548/1/3 547/1/3
f 555/1/3 547/1/3 546/1/3
f 556/1/3 548/1/3 555/1/3
f 557/1/3 548/1/3 556/1/3
f 559/1/3 550/1/3 549/1/3
f 559/1/3 551/1/3 550/1/3
f 560/1/3 551/1/3 559/1/3
f 561/2/3 554/2/3 553/2/3
f 561/2/3 553/2/3 552/2/3
f 561/2/3 555/2/3 554/2/3
f 562/2/3 555/2/3 561/2/3
f 563/1/3 558/1/3 557/1/3
f 563/1/3 557/1/3 556/1/3
f 564/1/3 558/1/3 563/1/3
f 566/1/3 559/1/3 549/1/3
f 567/2/3 563/2/3 562/2/3
f 567/2/3 562/2/3 561/2/3
f 567/2/3 561/2/3 560/2/3
f 568/2/3 563/2/3 567/2/3
f 569/2/3 563/2/3 568/2/3
f 570/2/3 563/2/3 569/2/3
f 571/1/3 558/1/3 564/1/3
f 573/1/3 566/1/3 565/1/3
f 573/1/3 559/1/3 566/1/3
f 574/1/3 559/1/3 573/1/3
f 575/2/3 567/2/3 560/2/3
f 576/2/3 567/2/3 575/2/3
f 577/2/3 569/2/3 568/2/3
f 578/2/3 569/2/3 577/2/3
f 579/2/3 563/2/3 570/2/3
f 580/2/3 563/2/3 579/2/3
f 581/1/3 572/1/3 571/1/3
f 581/1/3 571/1/3 564/1/3
f 582/1/3 572/1/3 581/1/3
f 583/2/3 576/2/3 575/2/3
f 583/2/3 575/2/3 574/2/3
f 583/2/3 577/2/3 576/2/3
f 584/2/3 580/2/3 579/2/3
f 584/2/3 579/2/3 578/2/3
f 584/2/3 581/2/3 580/2/3
f 585/2/3 583/2/3 574/2/3
f 585/2/3 584/2/3 583/2/3
f 586/2/3 581/2/3 584/2/3
f 586/2/3 584/2/3 585/2/3
f 587/1/3 573/1/3 565/1/3
f 588/2/3 585/2/3 574/2/3
f 589/2/3 585/2/3 588/2/3
f 590/2/3 585/2/3 589/2/3
f 591/2/3 585/2/3 590/2/3
f 592/2/3 581/2/3 586/2/3
f 593/2/3 581/2/3 592/2/3
f 594/2/3 581/2/3 593/2/3
f 595/2/3 581/2/3 594/2/3
f 596/1/3 572/1/3 582/1/3
f 597/1/3 587/1/3 565/1/3
f 597/1/3 588/1/3 587/1/3
f 598/1/3 588/1/3 597/1/3
f 599/2/3 590/2/3 589/2/3
f 600/2/3 592/2/3 591/2/3
f 601/2/3 592/2/3 600/2/3
f 602/2/3 594/2/3 593/2/3
f 603/1/3 596/1/3 595/1/3
f 603/1/3 572/1/3 596/1/3
f 604/1/3 572/1/3 603/1/3
f 605/1/3 588/1/3 598/1/3
f 606/2/3 602/2/3 601/2/3
f 606/2/3 601/2/3 600/2/3
f 606/2/3 599/2/3 589/2/3
f 606/2/3 600/2/3 599/2/3
f 607/2/3 602/2/3 606/2/3
f 608/2/3 594/2/3 602/2/3
f 608/2/3 602/2/3 607/2/3
f 609/2/3 594/2/3 608/2/3
f 610/1/3 603/1/3 595/1/3
f 611/1/3 605/1/3 598/1/3
f 611/1/3 606/1/3 605/1/3
f 612/1/3 606/1/3 611/1/3
f 613/1/3 606/1/3 612/1/3
f 614/2/3 608/2/3 607/2/3
f 615/2/3 608/2/3 614/2/3
f 616/2/3 608/2/3 615/2/3
f 617/2/3 608/2/3 616/2/3
f 618/1/3 610/1/3 609/1/3
f 619/1/3 603/1/3 610/1/3
f 619/1/3 610/1/3 618/1/3
f 620/1/3 603/1/3 619/1/3
f 621/1/3 613/1/3 612/1/3
f 621/1/3 614/1/3 613/1/3
f 622/1/3 614/1/3 621/1/3
f 623/1/3 614/1/3 622/1/3
f 624/2/3 616/2/3 615/2/3
f 625/2/3 616/2/3 624/2/3
f 626/1/3 618/1/3 617/1/3
f 626/1/3 619/1/3 618/1/3
f 627/1/3 619/1/3 626/1/3
f 628/1/3 619/1/3 627/1/3
f 629/1/3 624/1/3 623/1/3
f 629/1/3 623/1/3 622/1/3
f 630/1/3 624/1/3 629/1/3
f 631/1/3 624/1/3 630/1/3
f 632/1/3 627/1/3 626/1/3
f 632/1/3 626/1/3 625/1/3
f 633/1/3 627/1/3 632/1/3
f 634/1/3 627/1/3 633/1/3
f 635/1/3 631/1/3 630/1/3
f 635/1/3 633/1/3 632/1/3
f 635/1/3 632/1/3 631/1/3
f 636/1/3 633/1/3 635/1/3
f 637/1/3 633/1/3 636/1/3
f 638/1/3 633/1/3 637/1/3
f 639/1/3 637/1/3 636/1/3
f 640/1/3 637/1/3 639/1/3
f 644/3/3 642/3/3 641/3/3
f 645/3/3 642/3/3 644/3/3
f 648/3/3 644/3/3 643/3/3
f 649/3/3 644/3/3 648/3/3
f 650/3/3 646/3/3 645/3/3
f 651/3/3 646/3/3 650/3/3
f 654/3/3 648/3/3 647/3/3
f 655/3/3 648/3/3 654/3/3
f 656/3/3 652/3/3 651/3/3
f 657/3/3 652/3/3 656/3/3
f 664/3/3 654/3/3 653/3/3
f 665/3/3 654/3/3 664/3/3
f 666/3/3 660/3/3 659/3/3
f 667/3/3 660/3/3 666/3/3
f 668/3/3 662/3/3 661/3/3
f 669/3/3 662/3/3 668/3/3
f 670/3/3 658/3/3 657/3/3
f 671/3/3 658/3/3 670/3/3
f 673/3/3 668/3/3 667/3/3
f 674/3/3 668/3/3 673/3/3
f 677/3/3 664/3/3 663/3/3
f 678/3/3 664/3/3 677/3/3
f 681/3/3 676/3/3 675/3/3
f 682/3/3 676/3/3 681/3/3
f 685/3/3 672/3/3 671/3/3
f 686/3/3 672/3/3 685/3/3
f 687/3/3 681/3/3 680/3/3
f 688/3/3 681/3/3 687/3/3
f 689/3/3 683/3/3 682/3/3
f 690/3/3 683/3/3 689/3/3
f 691/3/3 679/3/3 678/3/3
f 692/3/3 679/3/3 691/3/3
f 695/3/3 685/3/3 684/3/3
f 696/3/3 685/3/3 695/3/3
f 697/3/3 693/3/3 692/3/3
f 698/3/3 693/3/3 697/3/3
f 701/3/3 695/3/3 694/3/3
f 702/3/3 695/3/3 701/3/3
f 703/3/3 699/3/3 698/3/3
f 704/3/3 699/3/3 703/3/3
f 705/3/3 701/3/3 700/3/3
f 706/3/3 701/3/3 705/3/3
f 707/3/3 705/3/3 704/3/3
f 708/3/3 705/3/3 707/3/3
f 709/3/4 710/3/4 712/3/4
f 712/3/4 710/3/4 713/3/4
f 711/3/4 712/3/4 716/3/4
f 716/3/4 712/3/4 717/3/4
f 713/3/4 714/3/4 718/3/4
f 718/3/4 714/3/4 719/3/4
f 715/3/4 716/3/4 722/3/4
f 722/3/4 716/3/4 723/3/4
f 719/3/4 720/3/4 724/3/4
f 724/3/4 720/3/4 725/3/4
f 721/3/4 722/3/4 732/3/4
f 732/3/4 722/3/4 733/3/4
f 727/3/4 728/3/4 734/3/4
f 734/3/4 728/3/4 735/3/4
f 729/3/4 730/3/4 736/3/4
f 736/3/4 730/3/4 737/3/4
f 725/3/4 726/3/4 738/3/4
f 738/3/4 726/3/4 739/3/4
f 735/3/4 736/3/4 741/3/4
f 741/3/4 736/3/4 742/3/4
f 731/3/4 732/3/4 745/3/4
f 745/3/4 732/3/4 746/3/4
f 743/3/4 744/3/4 749/3/4
f 749/3/4 744/3/4 750/3/4
f 739/3/4 740/3/4 753/3/4
f 753/3/4 740/3/4 754/3/4
f 748/3/4 749/3/4 755/3/4
f 755/3/4 749/3/4 756/3/4
f 750/3/4 751/3/4 757/3/4
f 757/3/4 751/3/4 758/3/4
f 746/3/4 747/3/4 759/3/4
f 759/3/4 747/3/4 760/3/4
f 752/3/4 753/3/4 763/3/4
f 763/3/4 753/3/4 764/3/4
f 760/3/4 761/3/4 765/3/4
f 765/3/4 761/3/4 766/3/4
f 762/3/4 763/3/4 769/3/4
f 769/3/4 763/3/4 770/3/4
f 766/3/4 767/3/4 771/3/4
f 771/3/4 767/3/4 772/3/4
f 768/3/4 769/3/4 773/3/4
f 773/3/4 769/3/4 774/3/4
f 772/3/4 773/3/4 775/3/4
f 775/3/4 773/3/4 776/3/4
f 777/1/4 778/1/4 780/1/4
f 780/1/4 778/1/4 781/1/4
f 779/1/4 780/1/4 784/1/4
f 781/1/4 782/1/4 784/1/4
f 780/1/4 781/1/4 784/1/4
f 784/1/4 782/1/4 785/1/4
f 785/1/4 782/1/4 786/1/4
f 786/1/4 782/1/4 787/1/4
f 783/1/4 784/1/4 790/1/4
f 784/1/4 785/1/4 790/1/4
f 790/1/4 785/1/4 791/1/4
f 791/1/4 785/1/4 792/1/4
f 786/1/4 787/1/4 793/1/4
f 787/1/4 788/1/4 793/1/4
f 793/1/4 788/1/4 794/1/4
f 794/1/4 788/1/4 795/1/4
f 790/1/4 791/1/4 798/1/4
f 789/1/4 790/1/4 798/1/4
f 798/1/4 791/1/4 799/1/4
f 799/1/4 791/1/4 800/1/4
f 792/2/4 793/2/4 801/2/4
f 801/2/4 793/2/4 802/2/4
f 795/1/4 796/1/4 803/1/4
f 794/1/4 795/1/4 803/1/4
f 803/1/4 796/1/4 804/1/4
f 804/1/4 796/1/4 805/1/4
f 797/1/4 798/1/4 807/1/4
f 798/1/4 799/1/4 807/1/4
f 807/1/4 799/1/4 808/1/4
f 801/2/4 802/2/4 809/2/4
f 800/2/4 801/2/4 809/2/4
f 802/2/4 803/2/4 809/2/4
f 809/2/4 803/2/4 810/2/4
f 805/1/4 806/1/4 811/1/4
f 804/1/4 805/1/4 811/1/4
f 811/1/4 806/1/4 812/1/4
f 797/1/4 807/1/4 814/1/4
f 810/2/4 811/2/4 815/2/4
f 809/2/4 810/2/4 815/2/4
f 808/2/4 809/2/4 815/2/4
f 815/2/4 811/2/4 816/2/4
f 816/2/4 811/2/4 817/2/4
f 817/2/4 811/2/4 818/2/4
f 812/1/4 806/1/4 819/1/4
f 813/1/4 814/1/4 821/1/4
f 814/1/4 807/1/4 821/1/4
f 821/1/4 807/1/4 822/1/4
f 808/2/4 815/2/4 823/2/4
f 823/2/4 815/2/4 824/2/4
f 816/2/4 817/2/4 825/2/4
f 825/2/4 817/2/4 826/2/4
f 818/2/4 811/2/4 827/2/4
f 827/2/4 811/2/4 828/2/4
f 819/1/4 820/1/4 829/1/4
f 812/1/4 819/1/4 829/1/4
f 829/1/4 820/1/4 830/1/4
f 823/2/4 824/2/4 831/2/4
f 822/2/4 823/2/4 831/2/4
f 824/2/4 825/2/4 831/2/4
f 827/2/4 828/2/4 832/2/4
f 826/2/4 827/2/4 832/2/4
f 828/2/4 829/2/4 832/2/4
f 822/2/4 831/2/4 833/2/4
f 831/2/4 832/2/4 833/2/4
f 832/2/4 829/2/4 834/2/4
f 833/2/4 832/2/4 834/2/4
f 813/1/4 821/1/4 835/1/4
f 822/2/4 833/2/4 836/2/4
f 836/2/4 833/2/4 837/2/4
f 837/2/4 833/2/4 838/2/4
f 838/2/4 833/2/4 839/2/4
f 834/2/4 829/2/4 840/2/4
f 840/2/4 829/2/4 841/2/4
f 841/2/4 829/2/4 842/2/4
f 842/2/4 829/2/4 843/2/4
f 830/1/4 820/1/4 844/1/4
f 813/1/4 835/1/4 845/1/4
f 835/1/4 836/1/4 845/1/4
f 845/1/4 836/1/4 846/1/4
f 837/2/4 838/2/4 847/2/4
f 839/2/4 840/2/4 848/2/4
f 848/2/4 840/2/4 849/2/4
f 841/2/4 842/2/4 850/2/4
f 843/1/4 844/1/4 851/1/4
f 844/1/4 820/1/4 851/1/4
f 851/1/4 820/1/4 852/1/4
f 846/1/4 836/1/4 853/1/4
f 849/2/4 850/2/4 854/2/4
f 848/2/4 849/2/4 854/2/4
f 837/2/4 847/2/4 854/2/4
f 847/2/4 848/2/4 854/2/4
f 854/2/4 850/2/4 855/2/4
f 850/2/4 842/2/4 856/2/4
f 855/2/4 850/2/4 856/2/4
f 856/2/4 842/2/4 857/2/4
f 843/1/4 851/1/4 858/1/4
f 846/1/4 853/1/4 859/1/4
f 853/1/4 854/1/4 859/1/4
f 859/1/4 854/1/4 860/1/4
f 860/1/4 854/1/4 861/1/4
f 855/2/4 856/2/4 862/2/4
f 862/2/4 856/2/4 863/2/4
f 863/2/4 856/2/4 864/2/4
f 864/2/4 856/2/4 865/2/4
f 857/1/4 858/1/4 866/1/4
f 858/1/4 851/1/4 867/1/4
f 866/1/4 858/1/4 867/1/4
f 867/1/4 851/1/4 868/1/4
f 860/1/4 861/1/4 869/1/4
f 861/1/4 862/1/4 869/1/4
f 869/1/4 862/1/4 870/1/4
f 870/1/4 862/1/4 871/1/4
f 863/2/4 864/2/4 872/2/4
f 872/2/4 864/2/4 873/2/4
f 865/1/4 866/1/4 874/1/4
f 866/1/4 867/1/4 874/1/4
f 874/1/4 867/1/4 875/1/4
f 875/1/4 867/1/4 876/1/4
f 871/1/4 872/1/4 877/1/4
f 870/1/4 871/1/4 877/1/4
f 877/1/4 872/1/4 878/1/4
f 878/1/4 872/1/4 879/1/4
f 874/1/4 875/1/4 880/1/4
f 873/1/4 874/1/4 880/1/4
f 880/1/4 875/1/4 881/1/4
f 881/1/4 875/1/4 882/1/4
f 878/1/4 879/1/4 883/1/4
f 880/1/4 881/1/4 883/1/4
f 879/1/4 880/1/4 883/1/4
f 883/1/4 881/1/4 884/1/4
f 884/1/4 881/1/4 885/1/4
f 885/1/4 881/1/4 886/1/4
f 884/1/4 885/1/4 887/1/4
f 887/1/4 885/1/4 888/1/4
f 891/1/5 890/1/5 889/1/5
f 892/1/5 890/1/5 891/1/5
f 893/3/5 892/3/5 891/3/5
f 894/3/5 892/3/5 893/3/5
f 895/1/5 894/1/5 893/1/5
f 896/1/5 894/1/5 895/1/5
f 901/1/5 898/1/5 897/1/5
f 902/1/5 898/1/5 901/1/5
f 903/1/5 900/1/5 899/1/5
f 904/1/5 900/1/5 903/1/5
f 905/3/5 902/3/5 901/3/5
f 906/3/5 902/3/5 905/3/5
f 907/3/5 904/3/5 903/3/5
f 908/3/5 904/3/5 907/3/5
f 909/1/5 906/1/5 905/1/5
f 910/1/5 906/1/5 909/1/5
f 911/1/5 908/1/5 907/1/5
f 912/1/5 908/1/5 911/1/5
f 917/1/5 914/1/5 913/1/5
f 918/1/5 914/1/5 917/1/5
f 919/1/5 916/1/5 915/1/5
f 920/1/5 916/1/5 919/1/5
f 921/3/5 918/3/5 917/3/5
f 922/3/5 918/3/5 921/3/5
f 923/3/5 920/3/5 919/3/5
f 924/3/5 920/3/5 923/3/5
f 925/1/5 922/1/5 921/1/5
f 926/1/5 922/1/5 925/1/5
f 927/1/5 924/1/5 923/1/5
f 928/1/5 924/1/5 927/1/5
f 935/1/5 930/1/5 929/1/5
f 936/1/5 930/1/5 935/1/5
f 937/2/5 932/2/5 931/2/5
f 938/2/5 932/2/5 937/2/5
f 939/1/5 934/1/5 933/1/5
f 940/1/5 934/1/5 939/1/5
f 941/3/5 936/3/5 935/3/5
f 942/3/5 936/3/5 941/3/5
f 945/3/5 940/3/5 939/3/5
f 946/3/5 940/3/5 945/3/5
f 947/1/5 942/1/5 941/1/5
f 948/1/5 942/1/5 947/1/5
f 949/2/5 944/2/5 943/2/5
f 950/2/5 944/2/5 949/2/5
f 951/1/5 946/1/5 945/1/5
f 952/1/5 946/1/5 951/1/5
f 961/1/5 954/1/5 953/1/5
f 962/1/5 954/1/5 961/1/5
f 963/2/5 956/2/5 955/2/5
f 964/2/5 956/2/5 963/2/5
f 965/2/5 958/2/5 957/2/5
f 966/2/5 958/2/5 965/2/5
f 967/1/5 960/1/5 959/1/5
f 968/1/5 960/1/5 967/1/5
f 969/3/5 962/3/5 961/3/5
f 970/3/5 962/3/5 969/3/5
f 975/3/5 968/3/5 967/3/5
f 976/3/5 968/3/5 975/3/5
f 977/1/5 970/1/5 969/1/5
f 978/1/5 970/1/5 977/1/5
f 979/2/5 972/2/5 971/2/5
f 980/2/5 972/2/5 979/2/5
f 981/2/5 974/2/5 973/2/5
f 982/2/5 974/2/5 981/2/5
f 983/1/5 976/1/5 975/1/5
f 984/1/5 976/1/5 983/1/5
f 989/2/5 986/2/5 985/2/5
f 990/2/5 986/2/5 989/2/5
f 991/2/5 988/2/5 987/2/5
f 992/2/5 988/2/5 991/2/5
f 997/2/5 994/2/5 993/2/5
f 998/2/5 994/2/5 997/2/5
f 999/2/5 996/2/5 995/2/5
f 1000/2/5 996/2/5 999/2/5
f 1005/1/5 1002/1/5 1001/1/5
f 1006/1/5 1002/1/5 1005/1/5
f 1007/1/5 1004/1/5 1003/1/5
f 1008/1/5 1004/1/5 1007/1/5
f 1009/3/5 1006/3/5 1005/3/5
f 1010/3/5 1006/3/5 1009/3/5
f 1011/3/5 1008/3/5 1007/3/5
f 1012/3/5 1008/3/5 1011/3/5
f 1013/1/5 1010/1/5 1009/1/5
f 1014/1/5 1010/1/5 1013/1/5
f 1015/1/5 1012/1/5 1011/1/5
f 1016/1/5 1012/1/5 1015/1/5
f 1021/2/5 1018/2/5 1017/2/5
f 1022/2/5 1018/2/5 1021/2/5
f 1023/2/5 1020/2/5 1019/2/5
f 1024/2/5 1020/2/5 1023/2/5
f 1029/2/5 1026/2/5 1025/2/5
f 1030/2/5 1026/2/5 1029/2/5
f 1031/2/5 1028/2/5 1027/2/5
f 1032/2/5 1028/2/5 1031/2/5
f 1037/2/5 1034/2/5 1033/2/5
f 1038/2/5 1034/2/5 1037/2/5
f 1039/2/5 1036/2/5 1035/2/5
f 1040/2/5 1036/2/5 1039/2/5
f 1045/2/5 1042/2/5 1041/2/5
f 1046/2/5 1042/2/5 1045/2/5
f 1047/2/5 1044/2/5 1043/2/5
f 1048/2/5 1044/2/5 1047/2/5
f 1053/2/5 1050/2/5 1049/2/5
f 1054/2/5 1050/2/5 1053/2/5
f 1055/2/5 1052/2/5 1051/2/5
f 1056/2/5 1052/2/5 1055/2/5
f 1061/2/5 1058/2/5 1057/2/5
f 1062/2/5 1058/2/5 1061/2/5
f 1063/2/5 1060/2/5 1059/2/5
f 1064/2/5 1060/2/5 1063/2/5
f 1069/2/5 1066/2/5 1065/2/5
f 1070/2/5 1066/2/5 1069/2/5
f 1071/2/5 1068/2/5 1067/2/5
f 1072/2/5 1068/2/5 1071/2/5
f 1077/2/5 1074/2/5 1073/2/5
f 1078/2/5 1074/2/5 1077/2/5
f 1079/2/5 1076/2/5 1075/2/5
f 1080/2/5 1076/2/5 1079/2/5
f 1085/1/5 1082/1/5 1081/1/5
f 1086/1/5 1082/1/5 1085/1/5
f 1087/1/5 1084/1/5 1083/1/5
f 1088/1/5 1084/1/5 1087/1/5
f 1093/1/5 1090/1/5 1089/1/5
f 1094/1/5 1090/1/5 1093/1/5
f 1095/1/5 1092/1/5 1091/1/5
f 1096/1/5 1092/1/5 1095/1/5
f 1101/1/5 1098/1/5 1097/1/5
f 1102/1/5 1098/1/5 1101/1/5
f 1103/1/5 1100/1/5 1099/1/5
f 1104/1/5 1100/1/5 1103/1/5
f 1109/1/5 1106/1/5 1105/1/5
f 1110/1/5 1106/1/5 1109/1/5
f 1111/1/5 1108/1/5 1107/1/5
f 1112/1/5 1108/1/5 1111/1/5
f 1117/1/5 1114/1/5 1113/1/5
f 1118/1/5 1114/1/5 1117/1/5
f 1119/1/5 1116/1/5 1115/1/5
f 1120/1/5 1116/1/5 1119/1/5
f 1125/1/5 1122/1/5 1121/1/5
f 1126/1/5 1122/1/5 1125/1/5
f 1127/1/5 1124/1/5 1123/1/5
f 1128/1/5 1124/1/5 1127/1/5
f 1133/1/5 1130/1/5 1129/1/5
f 1134/1/5 1130/1/5 1133/1/5
f 1135/1/5 1132/1/5 1131/1/5
f 1136/1/5 1132/1/5 1135/1/5
f 1141/1/5 1138/1/5 1137/1/5
f 1142/1/5 1138/1/5 1141/1/5
f 1143/1/5 1140/1/5 1139/1/5
f 1144/1/5 1140/1/5 1143/1/5
f 1147/1/5 1146/1/5 1145/1/5
f 1148/1/5 1146/1/5 1147/1/5
f 1151/1/5 1150/1/5 1149/1/5
f 1152/1/5 1150/1/5 1151/1/5
f 1153/1/6 1154/1/6 1155/1/6
f 1155/1/6 1154/1/6 1156/1/6
f 1157/1/6 1158/1/6 1159/1/6
f 1159/1/6 1158/1/6 1160/1/6
f 1161/1/6 1162/1/6 1165/1/6
f 1165/1/6 1162/1/6 1166/1/6
f 1163/1/6 1164/1/6 1167/1/6
f 1167/1/6 1164/1/6 1168/1/6
f 1169/1/6 1170/1/6 1173/1/6
f 1173/1/6 1170/1/6 1174/1/6
f 1171/1/6 1172/1/6 1175/1/6
f 1175/1/6 1172/1/6 1176/1/6
f 1177/1/6 1178/1/6 1181/1/6
f 1181/1/6 1178/1/6 1182/1/6
f 1179/1/6 1180/1/6 1183/1/6
f 1183/1/6 1180/1/6 1184/1/6
f 1185/1/6 1186/1/6 1189/1/6
f 1189/1/6 1186/1/6 1190/1/6
f 1187/1/6 1188/1/6 1191/1/6
f 1191/1/6 1188/1/6 1192/1/6
f 1193/1/6 1194/1/6 1197/1/6
f 1197/1/6 1194/1/6 1198/1/6
f 1195/1/6 1196/1/6 1199/1/6
f 1199/1/6 1196/1/6 1200/1/6
f 1201/1/6 1202/1/6 1205/1/6
f 1205/1/6 1202/1/6 1206/1/6
f 1203/1/6 1204/1/6 1207/1/6
f 1207/1/6 1204/1/6 1208/1/6
f 1209/1/6 1210/1/6 1213/1/6
f 1213/1/6 1210/1/6 1214/1/6
f 1211/1/6 1212/1/6 1215/1/6
f 1215/1/6 1212/1/6 1216/1/6
f 1217/1/6 1218/1/6 1221/1/6
f 1221/1/6 1218/1/6 1222/1/6
f 1219/1/6 1220/1/6 1223/1/6
f 1223/1/6 1220/1/6 1224/1/6
f 1225/2/6 1226/2/6 1229/2/6
f 1229/2/6 1226/2/6 1230/2/6
f 1227/2/6 1228/2/6 1231/2/6
f 1231/2/6 1228/2/6 1232/2/6
f 1233/2/6 1234/2/6 1237/2/6
f 1237/2/6 1234/2/6 1238/2/6
f 1235/2/6 1236/2/6 1239/2/6
f 1239/2/6 1236/2/6 1240/2/6
f 1241/2/6 1242/2/6 1245/2/6
f 1245/2/6 1242/2/6 1246/2/6
f 1243/2/6 1244/2/6 1247/2/6
f 1247/2/6 1244/2/6 1248/2/6
f 1249/2/6 1250/2/6 1253/2/6
f 1253/2/6 1250/2/6 1254/2/6
f 1251/2/6 1252/2/6 1255/2/6
f 1255/2/6 1252/2/6 1256/2/6
f 1257/2/6 1258/2/6 1261/2/6
f 1261/2/6 1258/2/6 1262/2/6
f 1259/2/6 1260/2/6 1263/2/6
f 1263/2/6 1260/2/6 1264/2/6
f 1265/2/6 1266/2/6 1269/2/6
f 1269/2/6 1266/2/6 1270/2/6
f 1267/2/6 1268/2/6 1271/2/6
f 1271/2/6 1268/2/6 1272/2/6
f 1273/2/6 1274/2/6 1277/2/6
f 1277/2/6 1274/2/6 1278/2/6
f 1275/2/6 1276/2/6 1279/2/6
f 1279/2/6 1276/2/6 1280/2/6
f 1281/2/6 1282/2/6 1285/2/6
f 1285/2/6 1282/2/6 1286/2/6
f 1283/2/6 1284/2/6 1287/2/6
f 1287/2/6 1284/2/6 1288/2/6
f 1289/1/6 1290/1/6 1293/1/6
f 1293/1/6 1290/1/6 1294/1/6
f 1291/1/6 1292/1/6 1295/1/6
f 1295/1/6 1292/1/6 1296/1/6
f 1293/3/6 1294/3/6 1297/3/6
f 1297/3/6 1294/3/6 1298/3/6
f 1295/3/6 1296/3/6 1299/3/6
f 1299/3/6 1296/3/6 1300/3/6
f 1297/1/6 1298/1/6 1301/1/6
f 1301/1/6 1298/1/6 1302/1/6
f 1299/1/6 1300/1/6 1303/1/6
f 1303/1/6 1300/1/6 1304/1/6
f 1305/2/6 1306/2/6 1309/2/6
f 1309/2/6 1306/2/6 1310/2/6
f 1307/2/6 1308/2/6 1311/2/6
f 1311/2/6 1308/2/6 1312/2/6
f 1313/2/6 1314/2/6 1317/2/6
f 1317/2/6 1314/2/6 1318/2/6
f 1315/2/6 1316/2/6 1319/2/6
f 1319/2/6 1316/2/6 1320/2/6
f 1321/1/6 1322/1/6 1329/1/6
f 1329/1/6 1322/1/6 1330/1/6
f 1323/2/6 1324/2/6 1331/2/6
f 1331/2/6 1324/2/6 1332/2/6
f 1325/2/6 1326/2/6 1333/2/6
f 1333/2/6 1326/2/6 1334/2/6
f 1327/1/6 1328/1/6 1335/1/6
f 1335/1/6 1328/1/6 1336/1/6
f 1329/3/6 1330/3/6 1337/3/6
f 1337/3/6 1330/3/6 1338/3/6
f 1335/3/6 1336/3/6 1343/3/6
f 1343/3/6 1336/3/6 1344/3/6
f 1337/1/6 1338/1/6 1345/1/6
f 1345/1/6 1338/1/6 1346/1/6
f 1339/2/6 1340/2/6 1347/2/6
f 1347/2/6 1340/2/6 1348/2/6
f 1341/2/6 1342/2/6 1349/2/6
f 1349/2/6 1342/2/6 1350/2/6
f 1343/1/6 1344/1/6 1351/1/6
f 1351/1/6 1344/1/6 1352/1/6
f 1353/1/6 1354/1/6 1359/1/6
f 1359/1/6 1354/1/6 1360/1/6
f 1355/2/6 1356/2/6 1361/2/6
f 1361/2/6 1356/2/6 1362/2/6
f 1357/1/6 1358/1/6 1363/1/6
f 1363/1/6 1358/1/6 1364/1/6
f 1359/3/6 1360/3/6 1365/3/6
f 1365/3/6 1360/3/6 1366/3/6
f 1363/3/6 1364/3/6 1369/3/6
f 1369/3/6 1364/3/6 1370/3/6
f 1365/1/6 1366/1/6 1371/1/6
f 1371/1/6 1366/1/6 1372/1/6
f 1367/2/6 1368/2/6 1373/2/6
f 1373/2/6 1368/2/6 1374/2/6
f 1369/1/6 1370/1/6 1375/1/6
f 1375/1/6 1370/1/6 1376/1/6
f 1377/1/6 1378/1/6 1381/1/6
f 1381/1/6 1378/1/6 1382/1/6
f 1379/1/6 1380/1/6 1383/1/6
f 1383/1/6 1380/1/6 1384/1/6
f 1381/3/6 1382/3/6 1385/3/6
f 1385/3/6 1382/3/6 1386/3/6
f 1383/3/6 1384/3/6 1387/3/6
f 1387/3/6 1384/3/6 1388/3/6
f 1385/1/6 1386/1/6 1389/1/6
f 1389/1/6 1386/1/6 1390/1/6
f 1387/1/6 1388/1/6 1391/1/6
f 1391/1/6 1388/1/6 1392/1/6
f 1393/1/6 1394/1/6 1397/1/6
f 1397/1/6 1394/1/6 1398/1/6
f 1395/1/6 1396/1/6 1399/1/6
f 1399/1/6 1396/1/6 1400/1/6
f 1397/3/6 1398/3/6 1401/3/6
f 1401/3/6 1398/3/6 1402/3/6
f 1399/3/6 1400/3/6 1403/3/6
f 1403/3/6 1400/3/6 1404/3/6
f 1401/1/6 1402/1/6 1405/1/6
f 1405/1/6 1402/1/6 1406/1/6
f 1403/1/6 1404/1/6 1407/1/6
f 1407/1/6 1404/1/6 1408/1/6
f 1409/1/6 1410/1/6 1411/1/6
f 1411/1/6 1410/1/6 1412/1/6
f 1411/3/6 1412/3/6 1413/3/6
f 1413/3/6 1412/3/6 1414/3/6
f 1413/1/6 1414/1/6 1415/1/6
f 1415/1/6 1414/1/6 1416/1/6
