# MagicaVoxel @ Ephtracy

# group
o 

# material
mtllib GreenKey.mtl
usemtl palette

# normals
vn -1 0 0
vn 1 0 0
vn 0 0 1
vn 0 0 -1
vn 0 -1 0
vn 0 1 0

# texcoords
vt 0.0917969 0.5
vt 0.115234 0.5
vt 0.232422 0.5
vt 0.396484 0.5
vt 0.560547 0.5
vt 0.701172 0.5
vt 0.748047 0.5
vt 0.880859 0.5
vt 0.888672 0.5
vt 0.896484 0.5
vt 0.904297 0.5

# verts
v -0.6 0.1 0.1
v -0.6 0.1 -0.1
v -0.6 0.2 0.1
v -0.6 0.2 -0.1
v -0.6 0.3 0.1
v -0.6 0.3 -0.1
v -0.6 0.6 0.1
v -0.6 0.6 -0.1
v -0.6 0.7 0.1
v -0.6 0.7 -0.1
v -0.6 0.8 0.1
v -0.6 0.8 -0.1
v -0.6 1.3 0.1
v -0.6 1.3 -0.1
v -0.6 1.8 0.1
v -0.6 1.8 -0.1
v -0.5 0 0.1
v -0.5 0 -0.1
v -0.5 0.1 0.1
v -0.5 0.1 -0.1
v -0.5 0.3 0.1
v -0.5 0.3 -0.1
v -0.5 0.4 0.1
v -0.5 0.4 -0.1
v -0.5 0.5 0.1
v -0.5 0.5 -0.1
v -0.5 0.6 0.1
v -0.5 0.6 -0.1
v -0.5 0.8 0.1
v -0.5 0.8 -0.1
v -0.5 0.9 0.1
v -0.5 0.9 -0.1
v -0.5 1.2 0.1
v -0.5 1.2 -0.1
v -0.5 1.3 0.1
v -0.5 1.3 -0.1
v -0.5 1.8 0.1
v -0.5 1.8 -0.1
v -0.5 1.9 0.1
v -0.5 1.9 -0.1
v -0.3 1.1 0.1
v -0.3 1.1 -0.1
v -0.3 1.2 0.1
v -0.3 1.2 -0.1
v -0.3 1.9 0.1
v -0.3 1.9 -0.1
v -0.3 2 0.1
v -0.3 2 -0.1
v -0.2 0.4 0.1
v -0.2 0.4 -0.1
v -0.2 0.5 0.1
v -0.2 0.5 -0.1
v -0.2 0.9 0.1
v -0.2 0.9 -0.1
v -0.2 1.1 0.1
v -0.2 1.1 -0.1
v 0.1 0 0.1
v 0.1 0 -0.1
v 0.1 0.1 0.1
v 0.1 0.1 -0.1
v 0.2 0.1 0.1
v 0.2 0.1 -0.1
v 0.2 1.1 0.1
v 0.2 1.1 -0.1
v 0.3 1.1 0.1
v 0.3 1.1 -0.1
v 0.3 1.2 0.1
v 0.3 1.2 -0.1
v 0.3 1.9 0.1
v 0.3 1.9 -0.1
v 0.3 2 0.1
v 0.3 2 -0.1
v 0.5 1.2 0.1
v 0.5 1.2 -0.1
v 0.5 1.3 0.1
v 0.5 1.3 -0.1
v 0.5 1.8 0.1
v 0.5 1.8 -0.1
v 0.5 1.9 0.1
v 0.5 1.9 -0.1
v 0.6 1.3 0.1
v 0.6 1.3 -0.1
v 0.6 1.8 0.1
v 0.6 1.8 -0.1
v -0.6 0.1 0.1
v -0.6 0.2 0.1
v -0.6 0.3 0.1
v -0.6 0.6 0.1
v -0.6 0.7 0.1
v -0.6 0.8 0.1
v -0.6 1.3 0.1
v -0.6 1.8 0.1
v -0.5 0 0.1
v -0.5 0.1 0.1
v -0.5 0.2 0.1
v -0.5 0.3 0.1
v -0.5 0.4 0.1
v -0.5 0.5 0.1
v -0.5 0.6 0.1
v -0.5 0.7 0.1
v -0.5 0.8 0.1
v -0.5 0.9 0.1
v -0.5 1.2 0.1
v -0.5 1.3 0.1
v -0.5 1.5 0.1
v -0.5 1.7 0.1
v -0.5 1.8 0.1
v -0.5 1.9 0.1
v -0.4 0.6 0.1
v -0.4 0.7 0.1
v -0.4 1.3 0.1
v -0.4 1.5 0.1
v -0.4 1.6 0.1
v -0.4 1.7 0.1
v -0.4 1.8 0.1
v -0.3 0.2 0.1
v -0.3 0.3 0.1
v -0.3 0.4 0.1
v -0.3 0.7 0.1
v -0.3 0.8 0.1
v -0.3 0.9 0.1
v -0.3 1.1 0.1
v -0.3 1.2 0.1
v -0.3 1.3 0.1
v -0.3 1.4 0.1
v -0.3 1.5 0.1
v -0.3 1.6 0.1
v -0.3 1.7 0.1
v -0.3 1.9 0.1
v -0.3 2 0.1
v -0.2 0.1 0.1
v -0.2 0.2 0.1
v -0.2 0.3 0.1
v -0.2 0.4 0.1
v -0.2 0.5 0.1
v -0.2 0.6 0.1
v -0.2 0.7 0.1
v -0.2 0.9 0.1
v -0.2 1.1 0.1
v -0.2 1.2 0.1
v -0.2 1.3 0.1
v -0.2 1.4 0.1
v -0.2 1.5 0.1
v -0.2 1.8 0.1
v -0.2 1.9 0.1
v -0.1 0.3 0.1
v -0.1 0.4 0.1
v -0.1 0.5 0.1
v -0.1 0.6 0.1
v -0.1 0.7 0.1
v -0.1 0.8 0.1
v -0.1 0.9 0.1
v -0.1 1.1 0.1
v -0.1 1.2 0.1
v -0.1 1.3 0.1
v -0.1 1.4 0.1
v -0.1 1.6 0.1
v -0.1 1.7 0.1
v -0.1 1.8 0.1
v 0 0.2 0.1
v 0 0.4 0.1
v 0 0.5 0.1
v 0 0.6 0.1
v 0 0.7 0.1
v 0 0.9 0.1
v 0 1.1 0.1
v 0 1.3 0.1
v 0 1.7 0.1
v 0 1.8 0.1
v 0.1 0 0.1
v 0.1 0.1 0.1
v 0.1 1.1 0.1
v 0.1 1.2 0.1
v 0.1 1.3 0.1
v 0.1 1.4 0.1
v 0.1 1.5 0.1
v 0.1 1.7 0.1
v 0.1 1.8 0.1
v 0.2 0.1 0.1
v 0.2 1.1 0.1
v 0.2 1.2 0.1
v 0.2 1.3 0.1
v 0.2 1.4 0.1
v 0.2 1.5 0.1
v 0.2 1.6 0.1
v 0.2 1.8 0.1
v 0.2 1.9 0.1
v 0.3 1.1 0.1
v 0.3 1.2 0.1
v 0.3 1.3 0.1
v 0.3 1.4 0.1
v 0.3 1.5 0.1
v 0.3 1.6 0.1
v 0.3 1.7 0.1
v 0.3 1.8 0.1
v 0.3 1.9 0.1
v 0.3 2 0.1
v 0.4 1.3 0.1
v 0.4 1.4 0.1
v 0.4 1.5 0.1
v 0.4 1.6 0.1
v 0.4 1.7 0.1
v 0.4 1.8 0.1
v 0.4 1.9 0.1
v 0.5 1.2 0.1
v 0.5 1.3 0.1
v 0.5 1.4 0.1
v 0.5 1.7 0.1
v 0.5 1.8 0.1
v 0.5 1.9 0.1
v 0.6 1.3 0.1
v 0.6 1.8 0.1
v -0.6 0.1 -0.1
v -0.6 0.2 -0.1
v -0.6 0.3 -0.1
v -0.6 0.6 -0.1
v -0.6 0.7 -0.1
v -0.6 0.8 -0.1
v -0.6 1.3 -0.1
v -0.6 1.8 -0.1
v -0.5 0 -0.1
v -0.5 0.1 -0.1
v -0.5 0.2 -0.1
v -0.5 0.3 -0.1
v -0.5 0.4 -0.1
v -0.5 0.5 -0.1
v -0.5 0.6 -0.1
v -0.5 0.7 -0.1
v -0.5 0.8 -0.1
v -0.5 0.9 -0.1
v -0.5 1.2 -0.1
v -0.5 1.3 -0.1
v -0.5 1.5 -0.1
v -0.5 1.7 -0.1
v -0.5 1.8 -0.1
v -0.5 1.9 -0.1
v -0.4 0.6 -0.1
v -0.4 0.7 -0.1
v -0.4 1.3 -0.1
v -0.4 1.5 -0.1
v -0.4 1.6 -0.1
v -0.4 1.7 -0.1
v -0.4 1.8 -0.1
v -0.3 0.2 -0.1
v -0.3 0.3 -0.1
v -0.3 0.4 -0.1
v -0.3 0.7 -0.1
v -0.3 0.8 -0.1
v -0.3 0.9 -0.1
v -0.3 1.1 -0.1
v -0.3 1.2 -0.1
v -0.3 1.3 -0.1
v -0.3 1.4 -0.1
v -0.3 1.5 -0.1
v -0.3 1.6 -0.1
v -0.3 1.7 -0.1
v -0.3 1.9 -0.1
v -0.3 2 -0.1
v -0.2 0.1 -0.1
v -0.2 0.2 -0.1
v -0.2 0.3 -0.1
v -0.2 0.4 -0.1
v -0.2 0.5 -0.1
v -0.2 0.6 -0.1
v -0.2 0.7 -0.1
v -0.2 0.9 -0.1
v -0.2 1.1 -0.1
v -0.2 1.2 -0.1
v -0.2 1.3 -0.1
v -0.2 1.4 -0.1
v -0.2 1.5 -0.1
v -0.2 1.8 -0.1
v -0.2 1.9 -0.1
v -0.1 0.3 -0.1
v -0.1 0.4 -0.1
v -0.1 0.5 -0.1
v -0.1 0.6 -0.1
v -0.1 0.7 -0.1
v -0.1 0.8 -0.1
v -0.1 0.9 -0.1
v -0.1 1.1 -0.1
v -0.1 1.2 -0.1
v -0.1 1.3 -0.1
v -0.1 1.4 -0.1
v -0.1 1.6 -0.1
v -0.1 1.7 -0.1
v -0.1 1.8 -0.1
v 0 0.2 -0.1
v 0 0.4 -0.1
v 0 0.5 -0.1
v 0 0.6 -0.1
v 0 0.7 -0.1
v 0 0.9 -0.1
v 0 1.1 -0.1
v 0 1.3 -0.1
v 0 1.7 -0.1
v 0 1.8 -0.1
v 0.1 0 -0.1
v 0.1 0.1 -0.1
v 0.1 1.1 -0.1
v 0.1 1.2 -0.1
v 0.1 1.3 -0.1
v 0.1 1.4 -0.1
v 0.1 1.5 -0.1
v 0.1 1.7 -0.1
v 0.1 1.8 -0.1
v 0.2 0.1 -0.1
v 0.2 1.1 -0.1
v 0.2 1.2 -0.1
v 0.2 1.3 -0.1
v 0.2 1.4 -0.1
v 0.2 1.5 -0.1
v 0.2 1.6 -0.1
v 0.2 1.8 -0.1
v 0.2 1.9 -0.1
v 0.3 1.1 -0.1
v 0.3 1.2 -0.1
v 0.3 1.3 -0.1
v 0.3 1.4 -0.1
v 0.3 1.5 -0.1
v 0.3 1.6 -0.1
v 0.3 1.7 -0.1
v 0.3 1.8 -0.1
v 0.3 1.9 -0.1
v 0.3 2 -0.1
v 0.4 1.3 -0.1
v 0.4 1.4 -0.1
v 0.4 1.5 -0.1
v 0.4 1.6 -0.1
v 0.4 1.7 -0.1
v 0.4 1.8 -0.1
v 0.4 1.9 -0.1
v 0.5 1.2 -0.1
v 0.5 1.3 -0.1
v 0.5 1.4 -0.1
v 0.5 1.7 -0.1
v 0.5 1.8 -0.1
v 0.5 1.9 -0.1
v 0.6 1.3 -0.1
v 0.6 1.8 -0.1
v -0.5 0 0.1
v 0.1 0 0.1
v -0.5 0 -0.1
v 0.1 0 -0.1
v -0.6 0.1 0.1
v -0.5 0.1 0.1
v 0.1 0.1 0.1
v 0.2 0.1 0.1
v -0.6 0.1 -0.1
v -0.5 0.1 -0.1
v 0.1 0.1 -0.1
v 0.2 0.1 -0.1
v -0.5 0.5 0.1
v -0.2 0.5 0.1
v -0.5 0.5 -0.1
v -0.2 0.5 -0.1
v -0.6 0.6 0.1
v -0.5 0.6 0.1
v -0.6 0.6 -0.1
v -0.5 0.6 -0.1
v -0.3 1.1 0.1
v -0.2 1.1 0.1
v 0.2 1.1 0.1
v 0.3 1.1 0.1
v -0.3 1.1 -0.1
v -0.2 1.1 -0.1
v 0.2 1.1 -0.1
v 0.3 1.1 -0.1
v -0.5 1.2 0.1
v -0.3 1.2 0.1
v 0.3 1.2 0.1
v 0.5 1.2 0.1
v -0.5 1.2 -0.1
v -0.3 1.2 -0.1
v 0.3 1.2 -0.1
v 0.5 1.2 -0.1
v -0.6 1.3 0.1
v -0.5 1.3 0.1
v 0.5 1.3 0.1
v 0.6 1.3 0.1
v -0.6 1.3 -0.1
v -0.5 1.3 -0.1
v 0.5 1.3 -0.1
v 0.6 1.3 -0.1
v -0.6 0.3 0.1
v -0.5 0.3 0.1
v -0.6 0.3 -0.1
v -0.5 0.3 -0.1
v -0.5 0.4 0.1
v -0.3 0.4 0.1
v -0.2 0.4 0.1
v -0.5 0.4 -0.1
v -0.3 0.4 -0.1
v -0.2 0.4 -0.1
v -0.6 0.8 0.1
v -0.5 0.8 0.1
v -0.6 0.8 -0.1
v -0.5 0.8 -0.1
v -0.5 0.9 0.1
v -0.3 0.9 0.1
v -0.2 0.9 0.1
v -0.5 0.9 -0.1
v -0.3 0.9 -0.1
v -0.2 0.9 -0.1
v -0.6 1.8 0.1
v -0.5 1.8 0.1
v 0.5 1.8 0.1
v 0.6 1.8 0.1
v -0.6 1.8 -0.1
v -0.5 1.8 -0.1
v 0.5 1.8 -0.1
v 0.6 1.8 -0.1
v -0.5 1.9 0.1
v -0.3 1.9 0.1
v 0.3 1.9 0.1
v 0.4 1.9 0.1
v 0.5 1.9 0.1
v -0.5 1.9 -0.1
v -0.3 1.9 -0.1
v 0.3 1.9 -0.1
v 0.4 1.9 -0.1
v 0.5 1.9 -0.1
v -0.3 2 0.1
v 0.3 2 0.1
v -0.3 2 -0.1
v 0.3 2 -0.1

# faces
f 3/6/1 2/6/1 1/6/1
f 4/6/1 2/6/1 3/6/1
f 5/5/1 4/5/1 3/5/1
f 6/5/1 4/5/1 5/5/1
f 9/6/1 8/6/1 7/6/1
f 10/6/1 8/6/1 9/6/1
f 11/5/1 10/5/1 9/5/1
f 12/5/1 10/5/1 11/5/1
f 15/5/1 14/5/1 13/5/1
f 16/5/1 14/5/1 15/5/1
f 19/6/1 18/6/1 17/6/1
f 20/6/1 18/6/1 19/6/1
f 23/5/1 22/5/1 21/5/1
f 24/5/1 22/5/1 23/5/1
f 27/6/1 26/6/1 25/6/1
f 28/6/1 26/6/1 27/6/1
f 31/5/1 30/5/1 29/5/1
f 32/5/1 30/5/1 31/5/1
f 35/5/1 34/5/1 33/5/1
f 36/5/1 34/5/1 35/5/1
f 39/5/1 38/5/1 37/5/1
f 40/5/1 38/5/1 39/5/1
f 43/5/1 42/5/1 41/5/1
f 44/5/1 42/5/1 43/5/1
f 47/5/1 46/5/1 45/5/1
f 48/5/1 46/5/1 47/5/1
f 51/6/1 50/6/1 49/6/1
f 52/6/1 50/6/1 51/6/1
f 55/6/1 54/6/1 53/6/1
f 56/6/1 54/6/1 55/6/1
f 57/6/2 58/6/2 59/6/2
f 59/6/2 58/6/2 60/6/2
f 61/6/2 62/6/2 63/6/2
f 63/6/2 62/6/2 64/6/2
f 65/6/2 66/6/2 67/6/2
f 67/6/2 66/6/2 68/6/2
f 69/5/2 70/5/2 71/5/2
f 71/5/2 70/5/2 72/5/2
f 73/6/2 74/6/2 75/6/2
f 75/6/2 74/6/2 76/6/2
f 77/6/2 78/6/2 79/6/2
f 79/6/2 78/6/2 80/6/2
f 81/6/2 82/6/2 83/6/2
f 83/6/2 82/6/2 84/6/2
f 94/6/3 86/6/3 85/6/3
f 95/5/3 87/5/3 86/5/3
f 95/6/3 86/6/3 94/6/3
f 96/5/3 87/5/3 95/5/3
f 99/6/3 89/6/3 88/6/3
f 100/5/3 90/5/3 89/5/3
f 100/6/3 89/6/3 99/6/3
f 101/5/3 90/5/3 100/5/3
f 104/5/3 92/5/3 91/5/3
f 105/5/3 92/5/3 104/5/3
f 106/5/3 92/5/3 105/5/3
f 107/5/3 92/5/3 106/5/3
f 109/6/3 99/6/3 98/6/3
f 109/2/3 100/2/3 99/2/3
f 110/1/3 101/1/3 100/1/3
f 110/2/3 100/2/3 109/2/3
f 111/5/3 104/5/3 103/5/3
f 111/5/3 105/5/3 104/5/3
f 112/1/3 106/1/3 105/1/3
f 112/5/3 105/5/3 111/5/3
f 113/1/3 106/1/3 112/1/3
f 114/5/3 108/5/3 107/5/3
f 114/1/3 106/1/3 113/1/3
f 114/5/3 107/5/3 106/5/3
f 115/5/3 108/5/3 114/5/3
f 116/3/3 95/3/3 94/3/3
f 116/1/3 96/1/3 95/1/3
f 117/5/3 97/5/3 96/5/3
f 117/1/3 96/1/3 116/1/3
f 118/5/3 97/5/3 117/5/3
f 119/1/3 101/1/3 110/1/3
f 119/3/3 110/3/3 109/3/3
f 120/5/3 102/5/3 101/5/3
f 120/1/3 101/1/3 119/1/3
f 121/5/3 102/5/3 120/5/3
f 123/5/3 111/5/3 103/5/3
f 124/1/3 112/1/3 111/1/3
f 124/5/3 111/5/3 123/5/3
f 125/1/3 112/1/3 124/1/3
f 126/8/3 113/8/3 112/8/3
f 126/1/3 112/1/3 125/1/3
f 127/1/3 115/1/3 114/1/3
f 127/8/3 113/8/3 126/8/3
f 127/1/3 114/1/3 113/1/3
f 128/1/3 115/1/3 127/1/3
f 129/5/3 108/5/3 115/5/3
f 131/6/3 94/6/3 93/6/3
f 131/3/3 116/3/3 94/3/3
f 132/2/3 117/2/3 116/2/3
f 132/3/3 116/3/3 131/3/3
f 133/6/3 118/6/3 117/6/3
f 133/2/3 117/2/3 132/2/3
f 134/6/3 118/6/3 133/6/3
f 135/6/3 109/6/3 98/6/3
f 136/3/3 119/3/3 109/3/3
f 136/6/3 109/6/3 135/6/3
f 137/2/3 120/2/3 119/2/3
f 137/3/3 119/3/3 136/3/3
f 138/6/3 121/6/3 120/6/3
f 139/5/3 123/5/3 122/5/3
f 139/5/3 124/5/3 123/5/3
f 140/5/3 124/5/3 139/5/3
f 141/2/3 125/2/3 124/2/3
f 141/5/3 124/5/3 140/5/3
f 142/9/3 126/9/3 125/9/3
f 142/2/3 125/2/3 141/2/3
f 142/9/3 127/9/3 126/9/3
f 143/9/3 127/9/3 142/9/3
f 144/5/3 130/5/3 129/5/3
f 144/5/3 129/5/3 115/5/3
f 144/1/3 115/1/3 128/1/3
f 145/5/3 130/5/3 144/5/3
f 146/6/3 135/6/3 134/6/3
f 146/6/3 134/6/3 133/6/3
f 146/3/3 133/3/3 132/3/3
f 147/6/3 135/6/3 146/6/3
f 148/5/3 136/5/3 135/5/3
f 148/6/3 135/6/3 147/6/3
f 149/4/3 137/4/3 136/4/3
f 149/5/3 136/5/3 148/5/3
f 150/2/3 120/2/3 137/2/3
f 150/4/3 137/4/3 149/4/3
f 151/6/3 138/6/3 120/6/3
f 151/2/3 120/2/3 150/2/3
f 151/6/3 139/6/3 138/6/3
f 152/6/3 139/6/3 151/6/3
f 153/5/3 140/5/3 139/5/3
f 153/6/3 139/6/3 152/6/3
f 154/2/3 142/2/3 141/2/3
f 154/5/3 140/5/3 153/5/3
f 154/2/3 141/2/3 140/2/3
f 155/2/3 142/2/3 154/2/3
f 156/10/3 143/10/3 142/10/3
f 156/2/3 142/2/3 155/2/3
f 157/9/3 127/9/3 143/9/3
f 157/8/3 128/8/3 127/8/3
f 158/1/3 145/1/3 144/1/3
f 158/8/3 128/8/3 157/8/3
f 158/1/3 144/1/3 128/1/3
f 159/1/3 145/1/3 158/1/3
f 160/4/3 132/4/3 131/4/3
f 160/3/3 147/3/3 146/3/3
f 160/3/3 146/3/3 132/3/3
f 161/2/3 148/2/3 147/2/3
f 161/3/3 147/3/3 160/3/3
f 162/3/3 149/3/3 148/3/3
f 162/2/3 148/2/3 161/2/3
f 163/4/3 150/4/3 149/4/3
f 163/3/3 149/3/3 162/3/3
f 164/3/3 152/3/3 151/3/3
f 164/4/3 150/4/3 163/4/3
f 164/3/3 151/3/3 150/3/3
f 165/2/3 155/2/3 154/2/3
f 165/3/3 152/3/3 164/3/3
f 165/2/3 153/2/3 152/2/3
f 165/2/3 154/2/3 153/2/3
f 166/2/3 155/2/3 165/2/3
f 167/11/3 156/11/3 155/11/3
f 167/2/3 155/2/3 166/2/3
f 168/8/3 159/8/3 158/8/3
f 168/9/3 158/9/3 157/9/3
f 169/1/3 145/1/3 159/1/3
f 169/8/3 159/8/3 168/8/3
f 170/6/3 131/6/3 93/6/3
f 171/4/3 164/4/3 163/4/3
f 171/6/3 131/6/3 170/6/3
f 171/4/3 163/4/3 162/4/3
f 171/4/3 162/4/3 161/4/3
f 171/4/3 165/4/3 164/4/3
f 171/4/3 166/4/3 165/4/3
f 171/4/3 161/4/3 160/4/3
f 171/4/3 160/4/3 131/4/3
f 172/3/3 167/3/3 166/3/3
f 172/4/3 166/4/3 171/4/3
f 173/3/3 167/3/3 172/3/3
f 174/11/3 156/11/3 167/11/3
f 174/3/3 167/3/3 173/3/3
f 175/10/3 143/10/3 156/10/3
f 175/11/3 156/11/3 174/11/3
f 176/9/3 157/9/3 143/9/3
f 176/10/3 143/10/3 175/10/3
f 176/9/3 168/9/3 157/9/3
f 177/7/3 169/7/3 168/7/3
f 177/9/3 168/9/3 176/9/3
f 178/1/3 145/1/3 169/1/3
f 178/7/3 169/7/3 177/7/3
f 179/6/3 172/6/3 171/6/3
f 179/6/3 173/6/3 172/6/3
f 180/6/3 173/6/3 179/6/3
f 181/4/3 174/4/3 173/4/3
f 181/6/3 173/6/3 180/6/3
f 182/3/3 175/3/3 174/3/3
f 182/4/3 174/4/3 181/4/3
f 183/11/3 176/11/3 175/11/3
f 183/3/3 175/3/3 182/3/3
f 184/10/3 177/10/3 176/10/3
f 184/11/3 176/11/3 183/11/3
f 185/10/3 177/10/3 184/10/3
f 186/1/3 145/1/3 178/1/3
f 186/2/3 178/2/3 177/2/3
f 187/5/3 130/5/3 145/5/3
f 187/1/3 145/1/3 186/1/3
f 188/6/3 181/6/3 180/6/3
f 189/5/3 182/5/3 181/5/3
f 189/6/3 181/6/3 188/6/3
f 190/4/3 183/4/3 182/4/3
f 190/5/3 182/5/3 189/5/3
f 191/11/3 185/11/3 184/11/3
f 191/4/3 183/4/3 190/4/3
f 191/11/3 184/11/3 183/11/3
f 192/11/3 185/11/3 191/11/3
f 193/10/3 177/10/3 185/10/3
f 193/11/3 185/11/3 192/11/3
f 194/2/3 186/2/3 177/2/3
f 194/10/3 177/10/3 193/10/3
f 195/5/3 187/5/3 186/5/3
f 195/2/3 186/2/3 194/2/3
f 196/5/3 130/5/3 187/5/3
f 196/5/3 187/5/3 195/5/3
f 197/5/3 130/5/3 196/5/3
f 198/4/3 192/4/3 191/4/3
f 198/6/3 190/6/3 189/6/3
f 198/4/3 191/4/3 190/4/3
f 199/4/3 192/4/3 198/4/3
f 200/11/3 193/11/3 192/11/3
f 200/4/3 192/4/3 199/4/3
f 201/3/3 195/3/3 194/3/3
f 201/11/3 193/11/3 200/11/3
f 201/3/3 194/3/3 193/3/3
f 202/3/3 195/3/3 201/3/3
f 203/5/3 196/5/3 195/5/3
f 203/3/3 195/3/3 202/3/3
f 204/5/3 196/5/3 203/5/3
f 205/6/3 198/6/3 189/6/3
f 206/5/3 199/5/3 198/5/3
f 206/6/3 198/6/3 205/6/3
f 207/4/3 200/4/3 199/4/3
f 207/5/3 199/5/3 206/5/3
f 207/4/3 202/4/3 201/4/3
f 207/4/3 201/4/3 200/4/3
f 208/5/3 203/5/3 202/5/3
f 208/4/3 202/4/3 207/4/3
f 209/6/3 204/6/3 203/6/3
f 209/5/3 203/5/3 208/5/3
f 210/6/3 204/6/3 209/6/3
f 211/6/3 208/6/3 207/6/3
f 211/6/3 209/6/3 208/6/3
f 211/6/3 207/6/3 206/6/3
f 212/6/3 209/6/3 211/6/3
f 213/6/4 214/6/4 222/6/4
f 214/5/4 215/5/4 223/5/4
f 222/6/4 214/6/4 223/6/4
f 223/5/4 215/5/4 224/5/4
f 216/6/4 217/6/4 227/6/4
f 217/5/4 218/5/4 228/5/4
f 227/6/4 217/6/4 228/6/4
f 228/5/4 218/5/4 229/5/4
f 219/5/4 220/5/4 232/5/4
f 232/5/4 220/5/4 233/5/4
f 233/5/4 220/5/4 234/5/4
f 234/5/4 220/5/4 235/5/4
f 226/6/4 227/6/4 237/6/4
f 227/2/4 228/2/4 237/2/4
f 228/1/4 229/1/4 238/1/4
f 237/2/4 228/2/4 238/2/4
f 231/5/4 232/5/4 239/5/4
f 232/5/4 233/5/4 239/5/4
f 233/1/4 234/1/4 240/1/4
f 239/5/4 233/5/4 240/5/4
f 240/1/4 234/1/4 241/1/4
f 235/5/4 236/5/4 242/5/4
f 241/1/4 234/1/4 242/1/4
f 234/5/4 235/5/4 242/5/4
f 242/5/4 236/5/4 243/5/4
f 222/3/4 223/3/4 244/3/4
f 223/1/4 224/1/4 244/1/4
f 224/5/4 225/5/4 245/5/4
f 244/1/4 224/1/4 245/1/4
f 245/5/4 225/5/4 246/5/4
f 238/1/4 229/1/4 247/1/4
f 237/3/4 238/3/4 247/3/4
f 229/5/4 230/5/4 248/5/4
f 247/1/4 229/1/4 248/1/4
f 248/5/4 230/5/4 249/5/4
f 231/5/4 239/5/4 251/5/4
f 239/1/4 240/1/4 252/1/4
f 251/5/4 239/5/4 252/5/4
f 252/1/4 240/1/4 253/1/4
f 240/8/4 241/8/4 254/8/4
f 253/1/4 240/1/4 254/1/4
f 242/1/4 243/1/4 255/1/4
f 254/8/4 241/8/4 255/8/4
f 241/1/4 242/1/4 255/1/4
f 255/1/4 243/1/4 256/1/4
f 243/5/4 236/5/4 257/5/4
f 221/6/4 222/6/4 259/6/4
f 222/3/4 244/3/4 259/3/4
f 244/2/4 245/2/4 260/2/4
f 259/3/4 244/3/4 260/3/4
f 245/6/4 246/6/4 261/6/4
f 260/2/4 245/2/4 261/2/4
f 261/6/4 246/6/4 262/6/4
f 226/6/4 237/6/4 263/6/4
f 237/3/4 247/3/4 264/3/4
f 263/6/4 237/6/4 264/6/4
f 247/2/4 248/2/4 265/2/4
f 264/3/4 247/3/4 265/3/4
f 248/6/4 249/6/4 266/6/4
f 250/5/4 251/5/4 267/5/4
f 251/5/4 252/5/4 267/5/4
f 267/5/4 252/5/4 268/5/4
f 252/2/4 253/2/4 269/2/4
f 268/5/4 252/5/4 269/5/4
f 253/9/4 254/9/4 270/9/4
f 269/2/4 253/2/4 270/2/4
f 254/9/4 255/9/4 270/9/4
f 270/9/4 255/9/4 271/9/4
f 257/5/4 258/5/4 272/5/4
f 243/5/4 257/5/4 272/5/4
f 256/1/4 243/1/4 272/1/4
f 272/5/4 258/5/4 273/5/4
f 262/6/4 263/6/4 274/6/4
f 261/6/4 262/6/4 274/6/4
f 260/3/4 261/3/4 274/3/4
f 274/6/4 263/6/4 275/6/4
f 263/5/4 264/5/4 276/5/4
f 275/6/4 263/6/4 276/6/4
f 264/4/4 265/4/4 277/4/4
f 276/5/4 264/5/4 277/5/4
f 265/2/4 248/2/4 278/2/4
f 277/4/4 265/4/4 278/4/4
f 248/6/4 266/6/4 279/6/4
f 278/2/4 248/2/4 279/2/4
f 266/6/4 267/6/4 279/6/4
f 279/6/4 267/6/4 280/6/4
f 267/5/4 268/5/4 281/5/4
f 280/6/4 267/6/4 281/6/4
f 269/2/4 270/2/4 282/2/4
f 281/5/4 268/5/4 282/5/4
f 268/2/4 269/2/4 282/2/4
f 282/2/4 270/2/4 283/2/4
f 270/10/4 271/10/4 284/10/4
f 283/2/4 270/2/4 284/2/4
f 271/9/4 255/9/4 285/9/4
f 255/8/4 256/8/4 285/8/4
f 272/1/4 273/1/4 286/1/4
f 285/8/4 256/8/4 286/8/4
f 256/1/4 272/1/4 286/1/4
f 286/1/4 273/1/4 287/1/4
f 259/4/4 260/4/4 288/4/4
f 274/3/4 275/3/4 288/3/4
f 260/3/4 274/3/4 288/3/4
f 275/2/4 276/2/4 289/2/4
f 288/3/4 275/3/4 289/3/4
f 276/3/4 277/3/4 290/3/4
f 289/2/4 276/2/4 290/2/4
f 277/4/4 278/4/4 291/4/4
f 290/3/4 277/3/4 291/3/4
f 279/3/4 280/3/4 292/3/4
f 291/4/4 278/4/4 292/4/4
f 278/3/4 279/3/4 292/3/4
f 282/2/4 283/2/4 293/2/4
f 292/3/4 280/3/4 293/3/4
f 280/2/4 281/2/4 293/2/4
f 281/2/4 282/2/4 293/2/4
f 293/2/4 283/2/4 294/2/4
f 283/11/4 284/11/4 295/11/4
f 294/2/4 283/2/4 295/2/4
f 286/8/4 287/8/4 296/8/4
f 285/9/4 286/9/4 296/9/4
f 287/1/4 273/1/4 297/1/4
f 296/8/4 287/8/4 297/8/4
f 221/6/4 259/6/4 298/6/4
f 291/4/4 292/4/4 299/4/4
f 298/6/4 259/6/4 299/6/4
f 290/4/4 291/4/4 299/4/4
f 289/4/4 290/4/4 299/4/4
f 292/4/4 293/4/4 299/4/4
f 293/4/4 294/4/4 299/4/4
f 288/4/4 289/4/4 299/4/4
f 259/4/4 288/4/4 299/4/4
f 294/3/4 295/3/4 300/3/4
f 299/4/4 294/4/4 300/4/4
f 300/3/4 295/3/4 301/3/4
f 295/11/4 284/11/4 302/11/4
f 301/3/4 295/3/4 302/3/4
f 284/10/4 271/10/4 303/10/4
f 302/11/4 284/11/4 303/11/4
f 271/9/4 285/9/4 304/9/4
f 303/10/4 271/10/4 304/10/4
f 285/9/4 296/9/4 304/9/4
f 296/7/4 297/7/4 305/7/4
f 304/9/4 296/9/4 305/9/4
f 297/1/4 273/1/4 306/1/4
f 305/7/4 297/7/4 306/7/4
f 299/6/4 300/6/4 307/6/4
f 300/6/4 301/6/4 307/6/4
f 307/6/4 301/6/4 308/6/4
f 301/4/4 302/4/4 309/4/4
f 308/6/4 301/6/4 309/6/4
f 302/3/4 303/3/4 310/3/4
f 309/4/4 302/4/4 310/4/4
f 303/11/4 304/11/4 311/11/4
f 310/3/4 303/3/4 311/3/4
f 304/10/4 305/10/4 312/10/4
f 311/11/4 304/11/4 312/11/4
f 312/10/4 305/10/4 313/10/4
f 306/1/4 273/1/4 314/1/4
f 305/2/4 306/2/4 314/2/4
f 273/5/4 258/5/4 315/5/4
f 314/1/4 273/1/4 315/1/4
f 308/6/4 309/6/4 316/6/4
f 309/5/4 310/5/4 317/5/4
f 316/6/4 309/6/4 317/6/4
f 310/4/4 311/4/4 318/4/4
f 317/5/4 310/5/4 318/5/4
f 312/11/4 313/11/4 319/11/4
f 318/4/4 311/4/4 319/4/4
f 311/11/4 312/11/4 319/11/4
f 319/11/4 313/11/4 320/11/4
f 313/10/4 305/10/4 321/10/4
f 320/11/4 313/11/4 321/11/4
f 305/2/4 314/2/4 322/2/4
f 321/10/4 305/10/4 322/10/4
f 314/5/4 315/5/4 323/5/4
f 322/2/4 314/2/4 323/2/4
f 315/5/4 258/5/4 324/5/4
f 323/5/4 315/5/4 324/5/4
f 324/5/4 258/5/4 325/5/4
f 319/4/4 320/4/4 326/4/4
f 317/6/4 318/6/4 326/6/4
f 318/4/4 319/4/4 326/4/4
f 326/4/4 320/4/4 327/4/4
f 320/11/4 321/11/4 328/11/4
f 327/4/4 320/4/4 328/4/4
f 322/3/4 323/3/4 329/3/4
f 328/11/4 321/11/4 329/11/4
f 321/3/4 322/3/4 329/3/4
f 329/3/4 323/3/4 330/3/4
f 323/5/4 324/5/4 331/5/4
f 330/3/4 323/3/4 331/3/4
f 331/5/4 324/5/4 332/5/4
f 317/6/4 326/6/4 333/6/4
f 326/5/4 327/5/4 334/5/4
f 333/6/4 326/6/4 334/6/4
f 327/4/4 328/4/4 335/4/4
f 334/5/4 327/5/4 335/5/4
f 329/4/4 330/4/4 335/4/4
f 328/4/4 329/4/4 335/4/4
f 330/5/4 331/5/4 336/5/4
f 335/4/4 330/4/4 336/4/4
f 331/6/4 332/6/4 337/6/4
f 336/5/4 331/5/4 337/5/4
f 337/6/4 332/6/4 338/6/4
f 335/6/4 336/6/4 339/6/4
f 336/6/4 337/6/4 339/6/4
f 334/6/4 335/6/4 339/6/4
f 339/6/4 337/6/4 340/6/4
f 343/6/5 342/6/5 341/6/5
f 344/6/5 342/6/5 343/6/5
f 349/6/5 346/6/5 345/6/5
f 350/6/5 346/6/5 349/6/5
f 351/6/5 348/6/5 347/6/5
f 352/6/5 348/6/5 351/6/5
f 355/6/5 354/6/5 353/6/5
f 356/6/5 354/6/5 355/6/5
f 359/6/5 358/6/5 357/6/5
f 360/6/5 358/6/5 359/6/5
f 365/5/5 362/5/5 361/5/5
f 366/5/5 362/5/5 365/5/5
f 367/6/5 364/6/5 363/6/5
f 368/6/5 364/6/5 367/6/5
f 373/5/5 370/5/5 369/5/5
f 374/5/5 370/5/5 373/5/5
f 375/6/5 372/6/5 371/6/5
f 376/6/5 372/6/5 375/6/5
f 381/5/5 378/5/5 377/5/5
f 382/5/5 378/5/5 381/5/5
f 383/6/5 380/6/5 379/6/5
f 384/6/5 380/6/5 383/6/5
f 385/5/6 386/5/6 387/5/6
f 387/5/6 386/5/6 388/5/6
f 389/5/6 390/5/6 392/5/6
f 390/6/6 391/6/6 393/6/6
f 392/5/6 390/5/6 393/5/6
f 393/6/6 391/6/6 394/6/6
f 395/5/6 396/5/6 397/5/6
f 397/5/6 396/5/6 398/5/6
f 399/5/6 400/5/6 402/5/6
f 400/6/6 401/6/6 403/6/6
f 402/5/6 400/5/6 403/5/6
f 403/6/6 401/6/6 404/6/6
f 405/5/6 406/5/6 409/5/6
f 409/5/6 406/5/6 410/5/6
f 407/6/6 408/6/6 411/6/6
f 411/6/6 408/6/6 412/6/6
f 413/5/6 414/5/6 418/5/6
f 418/5/6 414/5/6 419/5/6
f 415/5/6 416/5/6 420/5/6
f 416/6/6 417/6/6 421/6/6
f 420/5/6 416/5/6 421/5/6
f 421/6/6 417/6/6 422/6/6
f 423/5/6 424/5/6 425/5/6
f 425/5/6 424/5/6 426/5/6
