# MagicaVoxel @ Ephtracy

# group
o 

# material
mtllib GreenChest.mtl
usemtl palette

# normals
vn -1 0 0
vn 1 0 0
vn 0 0 1
vn 0 0 -1
vn 0 -1 0
vn 0 1 0

# texcoords
vt 0.0175781 0.5
vt 0.0214844 0.5
vt 0.0410156 0.5
vt 0.0449219 0.5
vt 0.306641 0.5
vt 0.369141 0.5
vt 0.794922 0.5
vt 0.818359 0.5
vt 0.896484 0.5
vt 0.900391 0.5
vt 0.904297 0.5
vt 0.994141 0.5

# verts
v -2 0 1
v -2 0 -1
v -2 0.1 0.7
v -2 0.1 -0.7
v -2 0.2 1
v -2 0.2 0.8
v -2 0.2 0.7
v -2 0.2 -0.7
v -2 0.2 -0.8
v -2 0.2 -1
v -2 0.7 1
v -2 0.7 0.8
v -2 0.7 -0.8
v -2 0.7 -1
v -2 0.9 1
v -2 0.9 0.8
v -2 0.9 -0.8
v -2 0.9 -1
v -2 1 0.8
v -2 1 -0.8
v -2 1.1 0.9
v -2 1.1 0.8
v -2 1.1 -0.8
v -2 1.1 -0.9
v -2 1.3 1
v -2 1.3 0.9
v -2 1.3 0.8
v -2 1.3 0.7
v -2 1.3 -0.7
v -2 1.3 -0.8
v -2 1.3 -0.9
v -2 1.3 -1
v -2 1.4 1
v -2 1.4 0.9
v -2 1.4 0.8
v -2 1.4 0.7
v -2 1.4 -0.7
v -2 1.4 -0.8
v -2 1.4 -0.9
v -2 1.4 -1
v -2 1.5 0.9
v -2 1.5 0.8
v -2 1.5 0.7
v -2 1.5 0.6
v -2 1.5 -0.6
v -2 1.5 -0.7
v -2 1.5 -0.8
v -2 1.5 -0.9
v -2 1.6 0.9
v -2 1.6 0.8
v -2 1.6 0.7
v -2 1.6 0.6
v -2 1.6 0.5
v -2 1.6 -0.5
v -2 1.6 -0.6
v -2 1.6 -0.7
v -2 1.6 -0.8
v -2 1.6 -0.9
v -2 1.7 0.8
v -2 1.7 0.7
v -2 1.7 0.5
v -2 1.7 0.3
v -2 1.7 -0.3
v -2 1.7 -0.5
v -2 1.7 -0.7
v -2 1.7 -0.8
v -2 1.8 0.7
v -2 1.8 0.6
v -2 1.8 0.5
v -2 1.8 0.3
v -2 1.8 -0.3
v -2 1.8 -0.5
v -2 1.8 -0.6
v -2 1.8 -0.7
v -2 1.9 0.6
v -2 1.9 0.4
v -2 1.9 0.3
v -2 1.9 -0.3
v -2 1.9 -0.4
v -2 1.9 -0.6
v -2 2 0.4
v -2 2 0.3
v -2 2 -0.3
v -2 2 -0.4
v -1.9 0.2 0.8
v -1.9 0.2 0.7
v -1.9 0.2 -0.7
v -1.9 0.2 -0.8
v -1.9 0.6 0.8
v -1.9 0.6 0.7
v -1.9 0.6 -0.7
v -1.9 0.6 -0.8
v -1.9 0.7 0.8
v -1.9 0.7 -0.8
v -1.9 0.8 0.7
v -1.9 0.8 -0.7
v -1.9 0.9 0.8
v -1.9 0.9 -0.8
v -1.9 1.1 0.8
v -1.9 1.1 0.6
v -1.9 1.1 -0.6
v -1.9 1.1 -0.8
v -1.9 1.3 0.8
v -1.9 1.3 0.7
v -1.9 1.3 0.6
v -1.9 1.3 0.5
v -1.9 1.3 -0.5
v -1.9 1.3 -0.6
v -1.9 1.3 -0.7
v -1.9 1.3 -0.8
v -1.9 1.4 0.7
v -1.9 1.4 0.5
v -1.9 1.4 0.4
v -1.9 1.4 -0.4
v -1.9 1.4 -0.5
v -1.9 1.4 -0.7
v -1.9 1.5 0.7
v -1.9 1.5 0.6
v -1.9 1.5 0.4
v -1.9 1.5 0.3
v -1.9 1.5 -0.3
v -1.9 1.5 -0.4
v -1.9 1.5 -0.6
v -1.9 1.5 -0.7
v -1.9 1.6 0.6
v -1.9 1.6 0.5
v -1.9 1.6 0.3
v -1.9 1.6 -0.3
v -1.9 1.6 -0.5
v -1.9 1.6 -0.6
v -1.9 1.7 0.5
v -1.9 1.7 0.3
v -1.9 1.7 -0.3
v -1.9 1.7 -0.5
v -1.9 1.8 0.3
v -1.9 1.8 -0.3
v -1.1 0.2 1
v -1.1 0.2 0.9
v -1.1 0.2 -0.9
v -1.1 0.2 -1
v -1.1 0.6 0.9
v -1.1 0.6 -0.9
v -1.1 0.7 1
v -1.1 0.7 0.9
v -1.1 0.7 -0.9
v -1.1 0.7 -1
v -1.1 0.9 1
v -1.1 0.9 0.9
v -1.1 0.9 -0.9
v -1.1 0.9 -1
v -1.1 1.1 1
v -1.1 1.1 0.9
v -1.1 1.1 -0.9
v -1.1 1.1 -1
v -1.1 1.3 1
v -1.1 1.3 0.9
v -1.1 1.3 -0.9
v -1.1 1.3 -1
v -1.1 1.4 1
v -1.1 1.4 0.9
v -1.1 1.4 0.8
v -1.1 1.4 -0.8
v -1.1 1.4 -0.9
v -1.1 1.4 -1
v -1.1 1.5 0.9
v -1.1 1.5 0.8
v -1.1 1.5 -0.8
v -1.1 1.5 -0.9
v -1.1 1.6 0.9
v -1.1 1.6 0.8
v -1.1 1.6 0.7
v -1.1 1.6 -0.7
v -1.1 1.6 -0.8
v -1.1 1.6 -0.9
v -1.1 1.7 0.8
v -1.1 1.7 0.7
v -1.1 1.7 0.6
v -1.1 1.7 -0.6
v -1.1 1.7 -0.7
v -1.1 1.7 -0.8
v -1.1 1.8 0.7
v -1.1 1.8 0.6
v -1.1 1.8 0.4
v -1.1 1.8 -0.4
v -1.1 1.8 -0.6
v -1.1 1.8 -0.7
v -1.1 1.9 0.6
v -1.1 1.9 0.4
v -1.1 1.9 0.3
v -1.1 1.9 -0.3
v -1.1 1.9 -0.4
v -1.1 1.9 -0.6
v -1.1 2 0.4
v -1.1 2 0.3
v -1.1 2 -0.3
v -1.1 2 -0.4
v -0.2 0.7 1
v -0.2 0.7 0.9
v -0.2 0.9 1
v -0.2 0.9 0.9
v -0.2 1.1 1
v -0.2 1.1 0.9
v -0.2 1.2 1
v -0.2 1.2 0.9
v -0.0999999 0.6 1
v -0.0999999 0.6 0.9
v -0.0999999 0.7 1
v -0.0999999 0.7 0.9
v -0.0999999 1.2 1
v -0.0999999 1.2 0.9
v -0.0999999 1.3 1
v -0.0999999 1.3 0.9
v 0.1 0.9 1
v 0.1 0.9 0.9
v 0.1 0.9 0.8
v 0.1 1 1
v 0.1 1 0.9
v 0.1 1 0.8
v 0.9 0.2 1
v 0.9 0.2 0.9
v 0.9 0.2 -0.9
v 0.9 0.2 -1
v 0.9 0.6 0.9
v 0.9 0.6 -0.9
v 0.9 0.7 1
v 0.9 0.7 0.9
v 0.9 0.7 -0.9
v 0.9 0.7 -1
v 0.9 0.9 1
v 0.9 0.9 0.9
v 0.9 0.9 -0.9
v 0.9 0.9 -1
v 0.9 1.1 1
v 0.9 1.1 0.9
v 0.9 1.1 -0.9
v 0.9 1.1 -1
v 0.9 1.3 1
v 0.9 1.3 0.9
v 0.9 1.3 -0.9
v 0.9 1.3 -1
v 0.9 1.4 1
v 0.9 1.4 0.9
v 0.9 1.4 0.8
v 0.9 1.4 -0.8
v 0.9 1.4 -0.9
v 0.9 1.4 -1
v 0.9 1.5 0.9
v 0.9 1.5 0.8
v 0.9 1.5 -0.8
v 0.9 1.5 -0.9
v 0.9 1.6 0.9
v 0.9 1.6 0.8
v 0.9 1.6 0.7
v 0.9 1.6 -0.7
v 0.9 1.6 -0.8
v 0.9 1.6 -0.9
v 0.9 1.7 0.8
v 0.9 1.7 0.7
v 0.9 1.7 0.6
v 0.9 1.7 -0.6
v 0.9 1.7 -0.7
v 0.9 1.7 -0.8
v 0.9 1.8 0.7
v 0.9 1.8 0.6
v 0.9 1.8 0.4
v 0.9 1.8 -0.4
v 0.9 1.8 -0.6
v 0.9 1.8 -0.7
v 0.9 1.9 0.6
v 0.9 1.9 0.4
v 0.9 1.9 0.3
v 0.9 1.9 -0.3
v 0.9 1.9 -0.4
v 0.9 1.9 -0.6
v 0.9 2 0.4
v 0.9 2 0.3
v 0.9 2 -0.3
v 0.9 2 -0.4
v 1.7 0.2 1
v 1.7 0.2 0.9
v 1.7 0.2 -0.9
v 1.7 0.2 -1
v 1.7 0.6 0.9
v 1.7 0.6 -0.9
v 1.7 0.7 1
v 1.7 0.7 0.9
v 1.7 0.7 -0.9
v 1.7 0.7 -1
v 1.7 0.9 1
v 1.7 0.9 0.9
v 1.7 0.9 -0.9
v 1.7 0.9 -1
v 1.7 1.1 1
v 1.7 1.1 0.9
v 1.7 1.1 -0.9
v 1.7 1.1 -1
v 1.7 1.3 1
v 1.7 1.3 0.9
v 1.7 1.3 -0.9
v 1.7 1.3 -1
v 1.7 1.4 1
v 1.7 1.4 0.9
v 1.7 1.4 0.8
v 1.7 1.4 -0.8
v 1.7 1.4 -0.9
v 1.7 1.4 -1
v 1.7 1.5 0.9
v 1.7 1.5 0.8
v 1.7 1.5 -0.8
v 1.7 1.5 -0.9
v 1.7 1.6 0.9
v 1.7 1.6 0.8
v 1.7 1.6 0.7
v 1.7 1.6 -0.7
v 1.7 1.6 -0.8
v 1.7 1.6 -0.9
v 1.7 1.7 0.8
v 1.7 1.7 0.7
v 1.7 1.7 0.6
v 1.7 1.7 -0.6
v 1.7 1.7 -0.7
v 1.7 1.7 -0.8
v 1.7 1.8 0.7
v 1.7 1.8 0.6
v 1.7 1.8 0.5
v 1.7 1.8 0.4
v 1.7 1.8 -0.4
v 1.7 1.8 -0.6
v 1.7 1.8 -0.7
v 1.7 1.9 0.6
v 1.7 1.9 0.4
v 1.7 1.9 0.3
v 1.7 1.9 -0.3
v 1.7 1.9 -0.4
v 1.7 1.9 -0.6
v 1.7 2 0.4
v 1.7 2 0.3
v 1.7 2 -0.3
v 1.7 2 -0.4
v -1.7 0.2 1
v -1.7 0.2 0.9
v -1.7 0.2 -0.9
v -1.7 0.2 -1
v -1.7 0.6 0.9
v -1.7 0.6 -0.9
v -1.7 0.7 1
v -1.7 0.7 0.9
v -1.7 0.7 -0.9
v -1.7 0.7 -1
v -1.7 0.9 1
v -1.7 0.9 0.9
v -1.7 0.9 -0.9
v -1.7 0.9 -1
v -1.7 1.1 1
v -1.7 1.1 0.9
v -1.7 1.1 -0.9
v -1.7 1.1 -1
v -1.7 1.3 1
v -1.7 1.3 0.9
v -1.7 1.3 -0.9
v -1.7 1.3 -1
v -1.7 1.4 1
v -1.7 1.4 0.9
v -1.7 1.4 0.8
v -1.7 1.4 -0.8
v -1.7 1.4 -0.9
v -1.7 1.4 -1
v -1.7 1.5 0.9
v -1.7 1.5 0.8
v -1.7 1.5 -0.8
v -1.7 1.5 -0.9
v -1.7 1.6 0.9
v -1.7 1.6 0.8
v -1.7 1.6 0.7
v -1.7 1.6 -0.7
v -1.7 1.6 -0.8
v -1.7 1.6 -0.9
v -1.7 1.7 0.8
v -1.7 1.7 0.7
v -1.7 1.7 0.6
v -1.7 1.7 -0.6
v -1.7 1.7 -0.7
v -1.7 1.7 -0.8
v -1.7 1.8 0.7
v -1.7 1.8 0.6
v -1.7 1.8 0.4
v -1.7 1.8 -0.4
v -1.7 1.8 -0.6
v -1.7 1.8 -0.7
v -1.7 1.9 0.6
v -1.7 1.9 0.4
v -1.7 1.9 0.3
v -1.7 1.9 -0.3
v -1.7 1.9 -0.4
v -1.7 1.9 -0.6
v -1.7 2 0.4
v -1.7 2 0.3
v -1.7 2 -0.3
v -1.7 2 -0.4
v -0.9 0.2 1
v -0.9 0.2 0.9
v -0.9 0.2 -0.9
v -0.9 0.2 -1
v -0.9 0.6 0.9
v -0.9 0.6 -0.9
v -0.9 0.7 1
v -0.9 0.7 0.9
v -0.9 0.7 -0.9
v -0.9 0.7 -1
v -0.9 0.9 1
v -0.9 0.9 0.9
v -0.9 0.9 -0.9
v -0.9 0.9 -1
v -0.9 1.1 1
v -0.9 1.1 0.9
v -0.9 1.1 -0.9
v -0.9 1.1 -1
v -0.9 1.3 1
v -0.9 1.3 0.9
v -0.9 1.3 -0.9
v -0.9 1.3 -1
v -0.9 1.4 1
v -0.9 1.4 0.9
v -0.9 1.4 0.8
v -0.9 1.4 -0.8
v -0.9 1.4 -0.9
v -0.9 1.4 -1
v -0.9 1.5 0.9
v -0.9 1.5 0.8
v -0.9 1.5 -0.8
v -0.9 1.5 -0.9
v -0.9 1.6 0.9
v -0.9 1.6 0.8
v -0.9 1.6 0.7
v -0.9 1.6 -0.7
v -0.9 1.6 -0.8
v -0.9 1.6 -0.9
v -0.9 1.7 0.8
v -0.9 1.7 0.7
v -0.9 1.7 0.6
v -0.9 1.7 -0.6
v -0.9 1.7 -0.7
v -0.9 1.7 -0.8
v -0.9 1.8 0.7
v -0.9 1.8 0.6
v -0.9 1.8 0.4
v -0.9 1.8 -0.4
v -0.9 1.8 -0.6
v -0.9 1.8 -0.7
v -0.9 1.9 0.6
v -0.9 1.9 0.4
v -0.9 1.9 0.3
v -0.9 1.9 -0.3
v -0.9 1.9 -0.4
v -0.9 1.9 -0.6
v -0.9 2 0.4
v -0.9 2 0.3
v -0.9 2 -0.3
v -0.9 2 -0.4
v -0.0999999 0.9 1
v -0.0999999 0.9 0.9
v -0.0999999 0.9 0.8
v -0.0999999 1 1
v -0.0999999 1 0.9
v -0.0999999 1 0.8
v 0.1 0.6 1
v 0.1 0.6 0.9
v 0.1 0.7 1
v 0.1 0.7 0.9
v 0.1 1.2 1
v 0.1 1.2 0.9
v 0.1 1.3 1
v 0.1 1.3 0.9
v 0.2 0.7 1
v 0.2 0.7 0.9
v 0.2 0.9 1
v 0.2 0.9 0.9
v 0.2 1.1 1
v 0.2 1.1 0.9
v 0.2 1.2 1
v 0.2 1.2 0.9
v 1.1 0.2 1
v 1.1 0.2 0.9
v 1.1 0.2 -0.9
v 1.1 0.2 -1
v 1.1 0.6 0.9
v 1.1 0.6 -0.9
v 1.1 0.7 1
v 1.1 0.7 0.9
v 1.1 0.7 -0.9
v 1.1 0.7 -1
v 1.1 0.9 1
v 1.1 0.9 0.9
v 1.1 0.9 -0.9
v 1.1 0.9 -1
v 1.1 1.1 1
v 1.1 1.1 0.9
v 1.1 1.1 -0.9
v 1.1 1.1 -1
v 1.1 1.3 1
v 1.1 1.3 0.9
v 1.1 1.3 -0.9
v 1.1 1.3 -1
v 1.1 1.4 1
v 1.1 1.4 0.9
v 1.1 1.4 0.8
v 1.1 1.4 -0.8
v 1.1 1.4 -0.9
v 1.1 1.4 -1
v 1.1 1.5 0.9
v 1.1 1.5 0.8
v 1.1 1.5 -0.8
v 1.1 1.5 -0.9
v 1.1 1.6 0.9
v 1.1 1.6 0.8
v 1.1 1.6 0.7
v 1.1 1.6 -0.7
v 1.1 1.6 -0.8
v 1.1 1.6 -0.9
v 1.1 1.7 0.8
v 1.1 1.7 0.7
v 1.1 1.7 0.6
v 1.1 1.7 -0.6
v 1.1 1.7 -0.7
v 1.1 1.7 -0.8
v 1.1 1.8 0.7
v 1.1 1.8 0.6
v 1.1 1.8 0.4
v 1.1 1.8 -0.4
v 1.1 1.8 -0.6
v 1.1 1.8 -0.7
v 1.1 1.9 0.6
v 1.1 1.9 0.4
v 1.1 1.9 0.3
v 1.1 1.9 -0.3
v 1.1 1.9 -0.4
v 1.1 1.9 -0.6
v 1.1 2 0.4
v 1.1 2 0.3
v 1.1 2 -0.3
v 1.1 2 -0.4
v 1.9 0.2 0.8
v 1.9 0.2 0.7
v 1.9 0.2 -0.7
v 1.9 0.2 -0.8
v 1.9 0.6 0.8
v 1.9 0.6 0.7
v 1.9 0.6 -0.7
v 1.9 0.6 -0.8
v 1.9 0.7 0.8
v 1.9 0.7 -0.8
v 1.9 0.8 0.7
v 1.9 0.8 -0.7
v 1.9 0.9 0.8
v 1.9 0.9 -0.8
v 1.9 1.1 0.8
v 1.9 1.1 0.6
v 1.9 1.1 -0.6
v 1.9 1.1 -0.8
v 1.9 1.3 0.8
v 1.9 1.3 0.7
v 1.9 1.3 0.6
v 1.9 1.3 0.5
v 1.9 1.3 -0.5
v 1.9 1.3 -0.6
v 1.9 1.3 -0.7
v 1.9 1.3 -0.8
v 1.9 1.4 0.7
v 1.9 1.4 0.5
v 1.9 1.4 0.4
v 1.9 1.4 -0.4
v 1.9 1.4 -0.5
v 1.9 1.4 -0.7
v 1.9 1.5 0.7
v 1.9 1.5 0.6
v 1.9 1.5 0.4
v 1.9 1.5 0.3
v 1.9 1.5 -0.3
v 1.9 1.5 -0.4
v 1.9 1.5 -0.6
v 1.9 1.5 -0.7
v 1.9 1.6 0.6
v 1.9 1.6 0.5
v 1.9 1.6 0.3
v 1.9 1.6 -0.3
v 1.9 1.6 -0.5
v 1.9 1.6 -0.6
v 1.9 1.7 0.5
v 1.9 1.7 0.3
v 1.9 1.7 -0.3
v 1.9 1.7 -0.5
v 1.9 1.8 0.3
v 1.9 1.8 -0.3
v 2 0 1
v 2 0 -1
v 2 0.1 0.7
v 2 0.1 -0.7
v 2 0.2 1
v 2 0.2 0.8
v 2 0.2 0.7
v 2 0.2 -0.7
v 2 0.2 -0.8
v 2 0.2 -1
v 2 0.7 1
v 2 0.7 0.8
v 2 0.7 -0.8
v 2 0.7 -1
v 2 0.9 1
v 2 0.9 0.8
v 2 0.9 -0.8
v 2 0.9 -1
v 2 1 0.8
v 2 1 -0.8
v 2 1.1 0.9
v 2 1.1 0.8
v 2 1.1 -0.8
v 2 1.1 -0.9
v 2 1.3 1
v 2 1.3 0.9
v 2 1.3 0.8
v 2 1.3 0.7
v 2 1.3 -0.7
v 2 1.3 -0.8
v 2 1.3 -0.9
v 2 1.3 -1
v 2 1.4 1
v 2 1.4 0.9
v 2 1.4 0.8
v 2 1.4 0.7
v 2 1.4 -0.7
v 2 1.4 -0.8
v 2 1.4 -0.9
v 2 1.4 -1
v 2 1.5 0.9
v 2 1.5 0.8
v 2 1.5 0.7
v 2 1.5 0.6
v 2 1.5 -0.6
v 2 1.5 -0.7
v 2 1.5 -0.8
v 2 1.5 -0.9
v 2 1.6 0.9
v 2 1.6 0.8
v 2 1.6 0.7
v 2 1.6 0.6
v 2 1.6 0.5
v 2 1.6 -0.5
v 2 1.6 -0.6
v 2 1.6 -0.7
v 2 1.6 -0.8
v 2 1.6 -0.9
v 2 1.7 0.8
v 2 1.7 0.7
v 2 1.7 0.5
v 2 1.7 0.3
v 2 1.7 -0.3
v 2 1.7 -0.5
v 2 1.7 -0.7
v 2 1.7 -0.8
v 2 1.8 0.7
v 2 1.8 0.6
v 2 1.8 0.5
v 2 1.8 0.3
v 2 1.8 -0.3
v 2 1.8 -0.5
v 2 1.8 -0.6
v 2 1.8 -0.7
v 2 1.9 0.6
v 2 1.9 0.4
v 2 1.9 0.3
v 2 1.9 -0.3
v 2 1.9 -0.4
v 2 1.9 -0.6
v 2 2 0.4
v 2 2 0.3
v 2 2 -0.3
v 2 2 -0.4
v -2 0 1
v -2 0.2 1
v -2 0.7 1
v -2 0.9 1
v -2 1.3 1
v -2 1.4 1
v -1.7 0.2 1
v -1.7 0.7 1
v -1.7 0.9 1
v -1.7 1.1 1
v -1.7 1.3 1
v -1.7 1.4 1
v -1.6 0.1 1
v -1.6 0.2 1
v -1.6 1 1
v -1.6 1.1 1
v -1.2 0.1 1
v -1.2 0.2 1
v -1.2 1 1
v -1.2 1.1 1
v -1.1 0.2 1
v -1.1 0.7 1
v -1.1 0.9 1
v -1.1 1.1 1
v -1.1 1.3 1
v -1.1 1.4 1
v -0.9 0.2 1
v -0.9 0.7 1
v -0.9 0.9 1
v -0.9 1.1 1
v -0.9 1.3 1
v -0.9 1.4 1
v -0.8 0.1 1
v -0.8 0.2 1
v -0.8 1 1
v -0.8 1.1 1
v -0.4 1 1
v -0.4 1.1 1
v -0.3 0.9 1
v -0.3 1.1 1
v -0.2 0.7 1
v -0.2 0.9 1
v -0.2 1 1
v -0.2 1.1 1
v -0.2 1.2 1
v -0.0999999 0.6 1
v -0.0999999 0.7 1
v -0.0999999 0.9 1
v -0.0999999 1 1
v -0.0999999 1.1 1
v -0.0999999 1.2 1
v -0.0999999 1.3 1
v 0.1 0.6 1
v 0.1 0.7 1
v 0.1 0.9 1
v 0.1 1 1
v 0.1 1.1 1
v 0.1 1.2 1
v 0.1 1.3 1
v 0.2 0.7 1
v 0.2 0.9 1
v 0.2 1 1
v 0.2 1.1 1
v 0.2 1.2 1
v 0.3 0.9 1
v 0.3 1.1 1
v 0.4 1 1
v 0.4 1.1 1
v 0.8 0.1 1
v 0.8 0.2 1
v 0.8 1 1
v 0.8 1.1 1
v 0.9 0.2 1
v 0.9 0.7 1
v 0.9 0.9 1
v 0.9 1.1 1
v 0.9 1.3 1
v 0.9 1.4 1
v 1.1 0.2 1
v 1.1 0.7 1
v 1.1 0.9 1
v 1.1 1.1 1
v 1.1 1.3 1
v 1.1 1.4 1
v 1.2 0.1 1
v 1.2 0.2 1
v 1.2 1 1
v 1.2 1.1 1
v 1.6 0.1 1
v 1.6 0.2 1
v 1.6 1 1
v 1.6 1.1 1
v 1.7 0.2 1
v 1.7 0.7 1
v 1.7 0.9 1
v 1.7 1.1 1
v 1.7 1.3 1
v 1.7 1.4 1
v 2 0 1
v 2 0.2 1
v 2 0.7 1
v 2 0.9 1
v 2 1.3 1
v 2 1.4 1
v -2 1.4 0.9
v -2 1.5 0.9
v -2 1.6 0.9
v -1.7 0.2 0.9
v -1.7 0.6 0.9
v -1.7 0.7 0.9
v -1.7 0.9 0.9
v -1.7 1.1 0.9
v -1.7 1.3 0.9
v -1.7 1.4 0.9
v -1.7 1.5 0.9
v -1.7 1.6 0.9
v -1.6 0.2 0.9
v -1.6 0.6 0.9
v -1.6 0.8 0.9
v -1.6 1.1 0.9
v -1.6 1.4 0.9
v -1.2 0.2 0.9
v -1.2 0.6 0.9
v -1.2 0.8 0.9
v -1.2 1.1 0.9
v -1.2 1.4 0.9
v -1.1 0.2 0.9
v -1.1 0.6 0.9
v -1.1 0.7 0.9
v -1.1 0.9 0.9
v -1.1 1.1 0.9
v -1.1 1.3 0.9
v -1.1 1.4 0.9
v -1.1 1.5 0.9
v -1.1 1.6 0.9
v -0.9 0.2 0.9
v -0.9 0.6 0.9
v -0.9 0.7 0.9
v -0.9 0.9 0.9
v -0.9 1.1 0.9
v -0.9 1.3 0.9
v -0.9 1.4 0.9
v -0.9 1.5 0.9
v -0.9 1.6 0.9
v -0.8 0.2 0.9
v -0.8 0.6 0.9
v -0.8 0.8 0.9
v -0.8 1.1 0.9
v -0.8 1.4 0.9
v -0.4 1.1 0.9
v -0.3 0.7 0.9
v -0.3 0.8 0.9
v -0.3 0.9 0.9
v -0.3 1.1 0.9
v -0.2 0.5 0.9
v -0.2 0.6 0.9
v -0.2 0.7 0.9
v -0.2 0.9 0.9
v -0.2 1.1 0.9
v -0.2 1.2 0.9
v -0.0999999 0.4 0.9
v -0.0999999 0.5 0.9
v -0.0999999 0.6 0.9
v -0.0999999 0.7 0.9
v -0.0999999 1.2 0.9
v -0.0999999 1.3 0.9
v 0.1 0.4 0.9
v 0.1 0.5 0.9
v 0.1 0.6 0.9
v 0.1 0.7 0.9
v 0.1 1.2 0.9
v 0.1 1.3 0.9
v 0.2 0.5 0.9
v 0.2 0.6 0.9
v 0.2 0.7 0.9
v 0.2 0.9 0.9
v 0.2 1.1 0.9
v 0.2 1.2 0.9
v 0.3 0.7 0.9
v 0.3 0.8 0.9
v 0.3 0.9 0.9
v 0.3 1.1 0.9
v 0.4 1.1 0.9
v 0.8 0.2 0.9
v 0.8 0.6 0.9
v 0.8 0.8 0.9
v 0.8 1.1 0.9
v 0.8 1.4 0.9
v 0.9 0.2 0.9
v 0.9 0.6 0.9
v 0.9 0.7 0.9
v 0.9 0.9 0.9
v 0.9 1.1 0.9
v 0.9 1.3 0.9
v 0.9 1.4 0.9
v 0.9 1.5 0.9
v 0.9 1.6 0.9
v 1.1 0.2 0.9
v 1.1 0.6 0.9
v 1.1 0.7 0.9
v 1.1 0.9 0.9
v 1.1 1.1 0.9
v 1.1 1.3 0.9
v 1.1 1.4 0.9
v 1.1 1.5 0.9
v 1.1 1.6 0.9
v 1.2 0.2 0.9
v 1.2 0.6 0.9
v 1.2 0.8 0.9
v 1.2 1.1 0.9
v 1.2 1.4 0.9
v 1.6 0.2 0.9
v 1.6 0.6 0.9
v 1.6 0.8 0.9
v 1.6 1.1 0.9
v 1.6 1.4 0.9
v 1.7 0.2 0.9
v 1.7 0.6 0.9
v 1.7 0.7 0.9
v 1.7 0.9 0.9
v 1.7 1.1 0.9
v 1.7 1.3 0.9
v 1.7 1.4 0.9
v 1.7 1.5 0.9
v 1.7 1.6 0.9
v 2 1.4 0.9
v 2 1.5 0.9
v 2 1.6 0.9
v -2 1.6 0.8
v -2 1.7 0.8
v -1.7 1.4 0.8
v -1.7 1.5 0.8
v -1.7 1.6 0.8
v -1.7 1.7 0.8
v -1.6 1.4 0.8
v -1.6 1.5 0.8
v -1.6 1.6 0.8
v -1.2 1.4 0.8
v -1.2 1.5 0.8
v -1.2 1.6 0.8
v -1.1 1.4 0.8
v -1.1 1.5 0.8
v -1.1 1.6 0.8
v -1.1 1.7 0.8
v -0.9 1.4 0.8
v -0.9 1.5 0.8
v -0.9 1.6 0.8
v -0.9 1.7 0.8
v -0.8 1.4 0.8
v -0.8 1.5 0.8
v -0.8 1.6 0.8
v -0.0999999 0.9 0.8
v -0.0999999 1 0.8
v 0.1 0.9 0.8
v 0.1 1 0.8
v 0.8 1.4 0.8
v 0.8 1.5 0.8
v 0.8 1.6 0.8
v 0.9 1.4 0.8
v 0.9 1.5 0.8
v 0.9 1.6 0.8
v 0.9 1.7 0.8
v 1.1 1.4 0.8
v 1.1 1.5 0.8
v 1.1 1.6 0.8
v 1.1 1.7 0.8
v 1.2 1.4 0.8
v 1.2 1.5 0.8
v 1.2 1.6 0.8
v 1.6 1.4 0.8
v 1.6 1.5 0.8
v 1.6 1.6 0.8
v 1.7 1.4 0.8
v 1.7 1.5 0.8
v 1.7 1.6 0.8
v 1.7 1.7 0.8
v 2 1.6 0.8
v 2 1.7 0.8
v -2 1.7 0.7
v -2 1.8 0.7
v -1.7 1.6 0.7
v -1.7 1.7 0.7
v -1.7 1.8 0.7
v -1.6 1.6 0.7
v -1.6 1.7 0.7
v -1.2 1.6 0.7
v -1.2 1.7 0.7
v -1.1 1.6 0.7
v -1.1 1.7 0.7
v -1.1 1.8 0.7
v -0.9 1.6 0.7
v -0.9 1.7 0.7
v -0.9 1.8 0.7
v -0.8 1.6 0.7
v -0.8 1.7 0.7
v 0.8 1.6 0.7
v 0.8 1.7 0.7
v 0.9 1.6 0.7
v 0.9 1.7 0.7
v 0.9 1.8 0.7
v 1.1 1.6 0.7
v 1.1 1.7 0.7
v 1.1 1.8 0.7
v 1.2 1.6 0.7
v 1.2 1.7 0.7
v 1.6 1.6 0.7
v 1.6 1.7 0.7
v 1.7 1.6 0.7
v 1.7 1.7 0.7
v 1.7 1.8 0.7
v 2 1.7 0.7
v 2 1.8 0.7
v -2 1.8 0.6
v -2 1.9 0.6
v -1.7 1.7 0.6
v -1.7 1.8 0.6
v -1.7 1.9 0.6
v -1.6 1.7 0.6
v -1.6 1.8 0.6
v -1.2 1.7 0.6
v -1.2 1.8 0.6
v -1.1 1.7 0.6
v -1.1 1.8 0.6
v -1.1 1.9 0.6
v -0.9 1.7 0.6
v -0.9 1.8 0.6
v -0.9 1.9 0.6
v -0.8 1.7 0.6
v -0.8 1.8 0.6
v 0.8 1.7 0.6
v 0.8 1.8 0.6
v 0.9 1.7 0.6
v 0.9 1.8 0.6
v 0.9 1.9 0.6
v 1.1 1.7 0.6
v 1.1 1.8 0.6
v 1.1 1.9 0.6
v 1.2 1.7 0.6
v 1.2 1.8 0.6
v 1.6 1.7 0.6
v 1.6 1.8 0.6
v 1.7 1.7 0.6
v 1.7 1.8 0.6
v 1.7 1.9 0.6
v 2 1.8 0.6
v 2 1.9 0.6
v -2 1.9 0.4
v -2 2 0.4
v -1.7 1.8 0.4
v -1.7 1.9 0.4
v -1.7 2 0.4
v -1.6 1.8 0.4
v -1.2 1.8 0.4
v -1.1 1.8 0.4
v -1.1 1.9 0.4
v -1.1 2 0.4
v -0.9 1.8 0.4
v -0.9 1.9 0.4
v -0.9 2 0.4
v -0.8 1.8 0.4
v 0.8 1.8 0.4
v 0.9 1.8 0.4
v 0.9 1.9 0.4
v 0.9 2 0.4
v 1.1 1.8 0.4
v 1.1 1.9 0.4
v 1.1 2 0.4
v 1.2 1.8 0.4
v 1.7 1.8 0.4
v 1.7 1.9 0.4
v 1.7 2 0.4
v 2 1.9 0.4
v 2 2 0.4
v -2 1.7 -0.3
v -2 1.8 -0.3
v -1.9 1.7 -0.3
v -1.9 1.8 -0.3
v 1.9 1.7 -0.3
v 1.9 1.8 -0.3
v 2 1.7 -0.3
v 2 1.8 -0.3
v -2 1.6 -0.5
v -2 1.7 -0.5
v -1.9 1.6 -0.5
v -1.9 1.7 -0.5
v 1.9 1.6 -0.5
v 1.9 1.7 -0.5
v 2 1.6 -0.5
v 2 1.7 -0.5
v -2 1.5 -0.6
v -2 1.6 -0.6
v -1.9 1.5 -0.6
v -1.9 1.6 -0.6
v 1.9 1.5 -0.6
v 1.9 1.6 -0.6
v 2 1.5 -0.6
v 2 1.6 -0.6
v -2 1.3 -0.7
v -2 1.4 -0.7
v -2 1.5 -0.7
v -1.9 1.3 -0.7
v -1.9 1.4 -0.7
v -1.9 1.5 -0.7
v 1.9 1.3 -0.7
v 1.9 1.4 -0.7
v 1.9 1.5 -0.7
v 2 1.3 -0.7
v 2 1.4 -0.7
v 2 1.5 -0.7
v -2 0.2 -0.8
v -2 0.7 -0.8
v -2 0.9 -0.8
v -2 1.1 -0.8
v -2 1.3 -0.8
v -1.9 0.2 -0.8
v -1.9 0.6 -0.8
v -1.9 0.7 -0.8
v -1.9 0.9 -0.8
v -1.9 1.1 -0.8
v -1.9 1.3 -0.8
v 1.9 0.2 -0.8
v 1.9 0.6 -0.8
v 1.9 0.7 -0.8
v 1.9 0.9 -0.8
v 1.9 1.1 -0.8
v 1.9 1.3 -0.8
v 2 0.2 -0.8
v 2 0.7 -0.8
v 2 0.9 -0.8
v 2 1.1 -0.8
v 2 1.3 -0.8
v -2 0.2 0.8
v -2 0.7 0.8
v -2 0.9 0.8
v -2 1.1 0.8
v -2 1.3 0.8
v -1.9 0.2 0.8
v -1.9 0.6 0.8
v -1.9 0.7 0.8
v -1.9 0.9 0.8
v -1.9 1.1 0.8
v -1.9 1.3 0.8
v 1.9 0.2 0.8
v 1.9 0.6 0.8
v 1.9 0.7 0.8
v 1.9 0.9 0.8
v 1.9 1.1 0.8
v 1.9 1.3 0.8
v 2 0.2 0.8
v 2 0.7 0.8
v 2 0.9 0.8
v 2 1.1 0.8
v 2 1.3 0.8
v -2 1.3 0.7
v -2 1.4 0.7
v -2 1.5 0.7
v -1.9 1.3 0.7
v -1.9 1.4 0.7
v -1.9 1.5 0.7
v 1.9 1.3 0.7
v 1.9 1.4 0.7
v 1.9 1.5 0.7
v 2 1.3 0.7
v 2 1.4 0.7
v 2 1.5 0.7
v -2 1.5 0.6
v -2 1.6 0.6
v -1.9 1.5 0.6
v -1.9 1.6 0.6
v 1.9 1.5 0.6
v 1.9 1.6 0.6
v 2 1.5 0.6
v 2 1.6 0.6
v -2 1.6 0.5
v -2 1.7 0.5
v -1.9 1.6 0.5
v -1.9 1.7 0.5
v 1.9 1.6 0.5
v 1.9 1.7 0.5
v 2 1.6 0.5
v 2 1.7 0.5
v -2 1.7 0.3
v -2 1.8 0.3
v -1.9 1.7 0.3
v -1.9 1.8 0.3
v 1.9 1.7 0.3
v 1.9 1.8 0.3
v 2 1.7 0.3
v 2 1.8 0.3
v -2 1.9 -0.4
v -2 2 -0.4
v -1.7 1.8 -0.4
v -1.7 1.9 -0.4
v -1.7 2 -0.4
v -1.6 1.8 -0.4
v -1.2 1.8 -0.4
v -1.1 1.8 -0.4
v -1.1 1.9 -0.4
v -1.1 2 -0.4
v -0.9 1.8 -0.4
v -0.9 1.9 -0.4
v -0.9 2 -0.4
v -0.8 1.8 -0.4
v 0.8 1.8 -0.4
v 0.9 1.8 -0.4
v 0.9 1.9 -0.4
v 0.9 2 -0.4
v 1.1 1.8 -0.4
v 1.1 1.9 -0.4
v 1.1 2 -0.4
v 1.2 1.8 -0.4
v 1.6 1.8 -0.4
v 1.7 1.8 -0.4
v 1.7 1.9 -0.4
v 1.7 2 -0.4
v 2 1.9 -0.4
v 2 2 -0.4
v -2 1.8 -0.6
v -2 1.9 -0.6
v -1.7 1.7 -0.6
v -1.7 1.8 -0.6
v -1.7 1.9 -0.6
v -1.6 1.7 -0.6
v -1.6 1.8 -0.6
v -1.2 1.7 -0.6
v -1.2 1.8 -0.6
v -1.1 1.7 -0.6
v -1.1 1.8 -0.6
v -1.1 1.9 -0.6
v -0.9 1.7 -0.6
v -0.9 1.8 -0.6
v -0.9 1.9 -0.6
v -0.8 1.7 -0.6
v -0.8 1.8 -0.6
v 0.8 1.7 -0.6
v 0.8 1.8 -0.6
v 0.9 1.7 -0.6
v 0.9 1.8 -0.6
v 0.9 1.9 -0.6
v 1.1 1.7 -0.6
v 1.1 1.8 -0.6
v 1.1 1.9 -0.6
v 1.2 1.7 -0.6
v 1.2 1.8 -0.6
v 1.6 1.7 -0.6
v 1.6 1.8 -0.6
v 1.7 1.7 -0.6
v 1.7 1.8 -0.6
v 1.7 1.9 -0.6
v 2 1.8 -0.6
v 2 1.9 -0.6
v -2 1.7 -0.7
v -2 1.8 -0.7
v -1.7 1.6 -0.7
v -1.7 1.7 -0.7
v -1.7 1.8 -0.7
v -1.6 1.6 -0.7
v -1.6 1.7 -0.7
v -1.2 1.6 -0.7
v -1.2 1.7 -0.7
v -1.1 1.6 -0.7
v -1.1 1.7 -0.7
v -1.1 1.8 -0.7
v -0.9 1.6 -0.7
v -0.9 1.7 -0.7
v -0.9 1.8 -0.7
v -0.8 1.6 -0.7
v -0.8 1.7 -0.7
v 0.8 1.6 -0.7
v 0.8 1.7 -0.7
v 0.9 1.6 -0.7
v 0.9 1.7 -0.7
v 0.9 1.8 -0.7
v 1.1 1.6 -0.7
v 1.1 1.7 -0.7
v 1.1 1.8 -0.7
v 1.2 1.6 -0.7
v 1.2 1.7 -0.7
v 1.6 1.6 -0.7
v 1.6 1.7 -0.7
v 1.7 1.6 -0.7
v 1.7 1.7 -0.7
v 1.7 1.8 -0.7
v 2 1.7 -0.7
v 2 1.8 -0.7
v -2 1.6 -0.8
v -2 1.7 -0.8
v -1.7 1.4 -0.8
v -1.7 1.5 -0.8
v -1.7 1.6 -0.8
v -1.7 1.7 -0.8
v -1.6 1.4 -0.8
v -1.6 1.5 -0.8
v -1.6 1.6 -0.8
v -1.2 1.4 -0.8
v -1.2 1.5 -0.8
v -1.2 1.6 -0.8
v -1.1 1.4 -0.8
v -1.1 1.5 -0.8
v -1.1 1.6 -0.8
v -1.1 1.7 -0.8
v -0.9 1.4 -0.8
v -0.9 1.5 -0.8
v -0.9 1.6 -0.8
v -0.9 1.7 -0.8
v -0.8 1.4 -0.8
v -0.8 1.5 -0.8
v -0.8 1.6 -0.8
v 0.8 1.4 -0.8
v 0.8 1.5 -0.8
v 0.8 1.6 -0.8
v 0.9 1.4 -0.8
v 0.9 1.5 -0.8
v 0.9 1.6 -0.8
v 0.9 1.7 -0.8
v 1.1 1.4 -0.8
v 1.1 1.5 -0.8
v 1.1 1.6 -0.8
v 1.1 1.7 -0.8
v 1.2 1.4 -0.8
v 1.2 1.5 -0.8
v 1.2 1.6 -0.8
v 1.6 1.4 -0.8
v 1.6 1.5 -0.8
v 1.6 1.6 -0.8
v 1.7 1.4 -0.8
v 1.7 1.5 -0.8
v 1.7 1.6 -0.8
v 1.7 1.7 -0.8
v 2 1.6 -0.8
v 2 1.7 -0.8
v -2 1.4 -0.9
v -2 1.5 -0.9
v -2 1.6 -0.9
v -1.7 0.2 -0.9
v -1.7 0.6 -0.9
v -1.7 0.7 -0.9
v -1.7 0.9 -0.9
v -1.7 1.1 -0.9
v -1.7 1.3 -0.9
v -1.7 1.4 -0.9
v -1.7 1.5 -0.9
v -1.7 1.6 -0.9
v -1.6 0.2 -0.9
v -1.6 0.6 -0.9
v -1.6 0.8 -0.9
v -1.6 1.1 -0.9
v -1.6 1.4 -0.9
v -1.2 0.2 -0.9
v -1.2 0.6 -0.9
v -1.2 0.8 -0.9
v -1.2 1.1 -0.9
v -1.2 1.4 -0.9
v -1.1 0.2 -0.9
v -1.1 0.6 -0.9
v -1.1 0.7 -0.9
v -1.1 0.9 -0.9
v -1.1 1.1 -0.9
v -1.1 1.3 -0.9
v -1.1 1.4 -0.9
v -1.1 1.5 -0.9
v -1.1 1.6 -0.9
v -0.9 0.2 -0.9
v -0.9 0.6 -0.9
v -0.9 0.7 -0.9
v -0.9 0.9 -0.9
v -0.9 1.1 -0.9
v -0.9 1.3 -0.9
v -0.9 1.4 -0.9
v -0.9 1.5 -0.9
v -0.9 1.6 -0.9
v -0.8 0.2 -0.9
v -0.8 0.6 -0.9
v -0.8 0.8 -0.9
v -0.8 1.1 -0.9
v -0.8 1.4 -0.9
v 0.8 0.2 -0.9
v 0.8 0.6 -0.9
v 0.8 0.8 -0.9
v 0.8 1.1 -0.9
v 0.8 1.4 -0.9
v 0.9 0.2 -0.9
v 0.9 0.6 -0.9
v 0.9 0.7 -0.9
v 0.9 0.9 -0.9
v 0.9 1.1 -0.9
v 0.9 1.3 -0.9
v 0.9 1.4 -0.9
v 0.9 1.5 -0.9
v 0.9 1.6 -0.9
v 1.1 0.2 -0.9
v 1.1 0.6 -0.9
v 1.1 0.7 -0.9
v 1.1 0.9 -0.9
v 1.1 1.1 -0.9
v 1.1 1.3 -0.9
v 1.1 1.4 -0.9
v 1.1 1.5 -0.9
v 1.1 1.6 -0.9
v 1.2 0.2 -0.9
v 1.2 0.6 -0.9
v 1.2 0.8 -0.9
v 1.2 1.1 -0.9
v 1.2 1.4 -0.9
v 1.6 0.2 -0.9
v 1.6 0.6 -0.9
v 1.6 0.8 -0.9
v 1.6 1.1 -0.9
v 1.6 1.4 -0.9
v 1.7 0.2 -0.9
v 1.7 0.6 -0.9
v 1.7 0.7 -0.9
v 1.7 0.9 -0.9
v 1.7 1.1 -0.9
v 1.7 1.3 -0.9
v 1.7 1.4 -0.9
v 1.7 1.5 -0.9
v 1.7 1.6 -0.9
v 2 1.4 -0.9
v 2 1.5 -0.9
v 2 1.6 -0.9
v -2 0 -1
v -2 0.2 -1
v -2 0.7 -1
v -2 0.9 -1
v -2 1.3 -1
v -2 1.4 -1
v -1.7 0.2 -1
v -1.7 0.7 -1
v -1.7 0.9 -1
v -1.7 1.1 -1
v -1.7 1.3 -1
v -1.7 1.4 -1
v -1.6 0.1 -1
v -1.6 0.2 -1
v -1.6 1 -1
v -1.6 1.1 -1
v -1.2 0.1 -1
v -1.2 0.2 -1
v -1.2 1 -1
v -1.2 1.1 -1
v -1.1 0.2 -1
v -1.1 0.7 -1
v -1.1 0.9 -1
v -1.1 1.1 -1
v -1.1 1.3 -1
v -1.1 1.4 -1
v -0.9 0.2 -1
v -0.9 0.7 -1
v -0.9 0.9 -1
v -0.9 1.1 -1
v -0.9 1.3 -1
v -0.9 1.4 -1
v -0.8 0.1 -1
v -0.8 0.2 -1
v -0.8 1 -1
v -0.8 1.1 -1
v 0.8 0.1 -1
v 0.8 0.2 -1
v 0.8 1 -1
v 0.8 1.1 -1
v 0.9 0.2 -1
v 0.9 0.7 -1
v 0.9 0.9 -1
v 0.9 1.1 -1
v 0.9 1.3 -1
v 0.9 1.4 -1
v 1.1 0.2 -1
v 1.1 0.7 -1
v 1.1 0.9 -1
v 1.1 1.1 -1
v 1.1 1.3 -1
v 1.1 1.4 -1
v 1.2 0.1 -1
v 1.2 0.2 -1
v 1.2 1 -1
v 1.2 1.1 -1
v 1.6 0.1 -1
v 1.6 0.2 -1
v 1.6 1 -1
v 1.6 1.1 -1
v 1.7 0.2 -1
v 1.7 0.7 -1
v 1.7 0.9 -1
v 1.7 1.1 -1
v 1.7 1.3 -1
v 1.7 1.4 -1
v 2 0 -1
v 2 0.2 -1
v 2 0.7 -1
v 2 0.9 -1
v 2 1.3 -1
v 2 1.4 -1
v -2 0 1
v 2 0 1
v -1.7 0 0.7
v 1.7 0 0.7
v -1.7 0 -0.7
v 1.7 0 -0.7
v -2 0 -1
v 2 0 -1
v -0.0999999 0.6 1
v 0.1 0.6 1
v -0.0999999 0.6 0.9
v 0.1 0.6 0.9
v -0.2 0.7 1
v -0.0999999 0.7 1
v 0.1 0.7 1
v 0.2 0.7 1
v -0.2 0.7 0.9
v -0.0999999 0.7 0.9
v 0.1 0.7 0.9
v 0.2 0.7 0.9
v -1.7 0.9 1
v -1.1 0.9 1
v -0.9 0.9 1
v -0.3 0.9 1
v -0.2 0.9 1
v 0.2 0.9 1
v 0.3 0.9 1
v 0.9 0.9 1
v 1.1 0.9 1
v 1.7 0.9 1
v -1.7 0.9 0.9
v -1.1 0.9 0.9
v -0.9 0.9 0.9
v -0.3 0.9 0.9
v -0.2 0.9 0.9
v 0.2 0.9 0.9
v 0.3 0.9 0.9
v 0.9 0.9 0.9
v 1.1 0.9 0.9
v 1.7 0.9 0.9
v -2 0.9 0.8
v -1.9 0.9 0.8
v 1.9 0.9 0.8
v 2 0.9 0.8
v -2 0.9 -0.8
v -1.9 0.9 -0.8
v 1.9 0.9 -0.8
v 2 0.9 -0.8
v -1.7 0.9 -0.9
v -1.1 0.9 -0.9
v -0.9 0.9 -0.9
v 0.9 0.9 -0.9
v 1.1 0.9 -0.9
v 1.7 0.9 -0.9
v -1.7 0.9 -1
v -1.1 0.9 -1
v -0.9 0.9 -1
v 0.9 0.9 -1
v 1.1 0.9 -1
v 1.7 0.9 -1
v -0.0999999 1 1
v 0.1 1 1
v -0.0999999 1 0.9
v 0.1 1 0.9
v -0.0999999 1 0.8
v 0.1 1 0.8
v -2 1.3 0.8
v -1.9 1.3 0.8
v 1.9 1.3 0.8
v 2 1.3 0.8
v -2 1.3 0.7
v -1.9 1.3 0.7
v 1.9 1.3 0.7
v 2 1.3 0.7
v -2 1.3 -0.7
v -1.9 1.3 -0.7
v 1.9 1.3 -0.7
v 2 1.3 -0.7
v -2 1.3 -0.8
v -1.9 1.3 -0.8
v 1.9 1.3 -0.8
v 2 1.3 -0.8
v -2 1.5 0.7
v -1.9 1.5 0.7
v 1.9 1.5 0.7
v 2 1.5 0.7
v -2 1.5 0.6
v -1.9 1.5 0.6
v 1.9 1.5 0.6
v 2 1.5 0.6
v -2 1.5 -0.6
v -1.9 1.5 -0.6
v 1.9 1.5 -0.6
v 2 1.5 -0.6
v -2 1.5 -0.7
v -1.9 1.5 -0.7
v 1.9 1.5 -0.7
v 2 1.5 -0.7
v -2 1.6 0.6
v -1.9 1.6 0.6
v 1.9 1.6 0.6
v 2 1.6 0.6
v -2 1.6 0.5
v -1.9 1.6 0.5
v 1.9 1.6 0.5
v 2 1.6 0.5
v -2 1.6 -0.5
v -1.9 1.6 -0.5
v 1.9 1.6 -0.5
v 2 1.6 -0.5
v -2 1.6 -0.6
v -1.9 1.6 -0.6
v 1.9 1.6 -0.6
v 2 1.6 -0.6
v -2 1.7 0.5
v -1.9 1.7 0.5
v 1.9 1.7 0.5
v 2 1.7 0.5
v -2 1.7 0.3
v -1.9 1.7 0.3
v 1.9 1.7 0.3
v 2 1.7 0.3
v -2 1.7 -0.3
v -1.9 1.7 -0.3
v 1.9 1.7 -0.3
v 2 1.7 -0.3
v -2 1.7 -0.5
v -1.9 1.7 -0.5
v 1.9 1.7 -0.5
v 2 1.7 -0.5
v -2 1.8 0.3
v -1.9 1.8 0.3
v 1.9 1.8 0.3
v 2 1.8 0.3
v -2 1.8 -0.3
v -1.9 1.8 -0.3
v 1.9 1.8 -0.3
v 2 1.8 -0.3
v -1.7 0.2 1
v -1.6 0.2 1
v -1.2 0.2 1
v -1.1 0.2 1
v -0.9 0.2 1
v -0.8 0.2 1
v 0.8 0.2 1
v 0.9 0.2 1
v 1.1 0.2 1
v 1.2 0.2 1
v 1.6 0.2 1
v 1.7 0.2 1
v -1.7 0.2 0.9
v -1.6 0.2 0.9
v -1.2 0.2 0.9
v -1.1 0.2 0.9
v -0.9 0.2 0.9
v -0.8 0.2 0.9
v 0.8 0.2 0.9
v 0.9 0.2 0.9
v 1.1 0.2 0.9
v 1.2 0.2 0.9
v 1.6 0.2 0.9
v 1.7 0.2 0.9
v -2 0.2 0.8
v -1.9 0.2 0.8
v 1.9 0.2 0.8
v 2 0.2 0.8
v -2 0.2 0.7
v -1.9 0.2 0.7
v 1.9 0.2 0.7
v 2 0.2 0.7
v -2 0.2 -0.7
v -1.9 0.2 -0.7
v 1.9 0.2 -0.7
v 2 0.2 -0.7
v -2 0.2 -0.8
v -1.9 0.2 -0.8
v 1.9 0.2 -0.8
v 2 0.2 -0.8
v -1.7 0.2 -0.9
v -1.6 0.2 -0.9
v -1.2 0.2 -0.9
v -1.1 0.2 -0.9
v -0.9 0.2 -0.9
v -0.8 0.2 -0.9
v 0.8 0.2 -0.9
v 0.9 0.2 -0.9
v 1.1 0.2 -0.9
v 1.2 0.2 -0.9
v 1.6 0.2 -0.9
v 1.7 0.2 -0.9
v -1.7 0.2 -1
v -1.6 0.2 -1
v -1.2 0.2 -1
v -1.1 0.2 -1
v -0.9 0.2 -1
v -0.8 0.2 -1
v 0.8 0.2 -1
v 0.9 0.2 -1
v 1.1 0.2 -1
v 1.2 0.2 -1
v 1.6 0.2 -1
v 1.7 0.2 -1
v -0.0999999 0.9 1
v 0.1 0.9 1
v -0.0999999 0.9 0.9
v 0.1 0.9 0.9
v -0.0999999 0.9 0.8
v 0.1 0.9 0.8
v -1.7 1.1 1
v -1.6 1.1 1
v -1.2 1.1 1
v -1.1 1.1 1
v -0.9 1.1 1
v -0.8 1.1 1
v -0.4 1.1 1
v -0.3 1.1 1
v -0.2 1.1 1
v 0.2 1.1 1
v 0.3 1.1 1
v 0.4 1.1 1
v 0.8 1.1 1
v 0.9 1.1 1
v 1.1 1.1 1
v 1.2 1.1 1
v 1.6 1.1 1
v 1.7 1.1 1
v -1.7 1.1 0.9
v -1.6 1.1 0.9
v -1.2 1.1 0.9
v -1.1 1.1 0.9
v -0.9 1.1 0.9
v -0.8 1.1 0.9
v -0.4 1.1 0.9
v -0.3 1.1 0.9
v -0.2 1.1 0.9
v 0.2 1.1 0.9
v 0.3 1.1 0.9
v 0.4 1.1 0.9
v 0.8 1.1 0.9
v 0.9 1.1 0.9
v 1.1 1.1 0.9
v 1.2 1.1 0.9
v 1.6 1.1 0.9
v 1.7 1.1 0.9
v -2 1.1 0.8
v -1.9 1.1 0.8
v 1.9 1.1 0.8
v 2 1.1 0.8
v -1.9 1.1 0.6
v 1.9 1.1 0.6
v -1.9 1.1 -0.6
v 1.9 1.1 -0.6
v -2 1.1 -0.8
v -1.9 1.1 -0.8
v 1.9 1.1 -0.8
v 2 1.1 -0.8
v -1.7 1.1 -0.9
v -1.6 1.1 -0.9
v -1.2 1.1 -0.9
v -1.1 1.1 -0.9
v -0.9 1.1 -0.9
v -0.8 1.1 -0.9
v 0.8 1.1 -0.9
v 0.9 1.1 -0.9
v 1.1 1.1 -0.9
v 1.2 1.1 -0.9
v 1.6 1.1 -0.9
v 1.7 1.1 -0.9
v -1.7 1.1 -1
v -1.6 1.1 -1
v -1.2 1.1 -1
v -1.1 1.1 -1
v -0.9 1.1 -1
v -0.8 1.1 -1
v 0.8 1.1 -1
v 0.9 1.1 -1
v 1.1 1.1 -1
v 1.2 1.1 -1
v 1.6 1.1 -1
v 1.7 1.1 -1
v -0.2 1.2 1
v -0.0999999 1.2 1
v 0.1 1.2 1
v 0.2 1.2 1
v -0.2 1.2 0.9
v -0.0999999 1.2 0.9
v 0.1 1.2 0.9
v 0.2 1.2 0.9
v -0.0999999 1.3 1
v 0.1 1.3 1
v -0.0999999 1.3 0.9
v 0.1 1.3 0.9
v -2 1.4 1
v -1.7 1.4 1
v -1.1 1.4 1
v -0.9 1.4 1
v 0.9 1.4 1
v 1.1 1.4 1
v 1.7 1.4 1
v 2 1.4 1
v -2 1.4 0.9
v -1.7 1.4 0.9
v -1.6 1.4 0.9
v -1.2 1.4 0.9
v -1.1 1.4 0.9
v -0.9 1.4 0.9
v -0.8 1.4 0.9
v 0.8 1.4 0.9
v 0.9 1.4 0.9
v 1.1 1.4 0.9
v 1.2 1.4 0.9
v 1.6 1.4 0.9
v 1.7 1.4 0.9
v 2 1.4 0.9
v -1.7 1.4 0.8
v -1.6 1.4 0.8
v -1.2 1.4 0.8
v -1.1 1.4 0.8
v -0.9 1.4 0.8
v -0.8 1.4 0.8
v 0.8 1.4 0.8
v 0.9 1.4 0.8
v 1.1 1.4 0.8
v 1.2 1.4 0.8
v 1.6 1.4 0.8
v 1.7 1.4 0.8
v -1.7 1.4 -0.8
v -1.6 1.4 -0.8
v -1.2 1.4 -0.8
v -1.1 1.4 -0.8
v -0.9 1.4 -0.8
v -0.8 1.4 -0.8
v 0.8 1.4 -0.8
v 0.9 1.4 -0.8
v 1.1 1.4 -0.8
v 1.2 1.4 -0.8
v 1.6 1.4 -0.8
v 1.7 1.4 -0.8
v -2 1.4 -0.9
v -1.7 1.4 -0.9
v -1.6 1.4 -0.9
v -1.2 1.4 -0.9
v -1.1 1.4 -0.9
v -0.9 1.4 -0.9
v -0.8 1.4 -0.9
v 0.8 1.4 -0.9
v 0.9 1.4 -0.9
v 1.1 1.4 -0.9
v 1.2 1.4 -0.9
v 1.6 1.4 -0.9
v 1.7 1.4 -0.9
v 2 1.4 -0.9
v -2 1.4 -1
v -1.7 1.4 -1
v -1.1 1.4 -1
v -0.9 1.4 -1
v 0.9 1.4 -1
v 1.1 1.4 -1
v 1.7 1.4 -1
v 2 1.4 -1
v -2 1.6 0.9
v -1.7 1.6 0.9
v -1.1 1.6 0.9
v -0.9 1.6 0.9
v 0.9 1.6 0.9
v 1.1 1.6 0.9
v 1.7 1.6 0.9
v 2 1.6 0.9
v -2 1.6 0.8
v -1.7 1.6 0.8
v -1.6 1.6 0.8
v -1.2 1.6 0.8
v -1.1 1.6 0.8
v -0.9 1.6 0.8
v -0.8 1.6 0.8
v 0.8 1.6 0.8
v 0.9 1.6 0.8
v 1.1 1.6 0.8
v 1.2 1.6 0.8
v 1.6 1.6 0.8
v 1.7 1.6 0.8
v 2 1.6 0.8
v -1.7 1.6 0.7
v -1.6 1.6 0.7
v -1.2 1.6 0.7
v -1.1 1.6 0.7
v -0.9 1.6 0.7
v -0.8 1.6 0.7
v 0.8 1.6 0.7
v 0.9 1.6 0.7
v 1.1 1.6 0.7
v 1.2 1.6 0.7
v 1.6 1.6 0.7
v 1.7 1.6 0.7
v -1.7 1.6 -0.7
v -1.6 1.6 -0.7
v -1.2 1.6 -0.7
v -1.1 1.6 -0.7
v -0.9 1.6 -0.7
v -0.8 1.6 -0.7
v 0.8 1.6 -0.7
v 0.9 1.6 -0.7
v 1.1 1.6 -0.7
v 1.2 1.6 -0.7
v 1.6 1.6 -0.7
v 1.7 1.6 -0.7
v -2 1.6 -0.8
v -1.7 1.6 -0.8
v -1.6 1.6 -0.8
v -1.2 1.6 -0.8
v -1.1 1.6 -0.8
v -0.9 1.6 -0.8
v -0.8 1.6 -0.8
v 0.8 1.6 -0.8
v 0.9 1.6 -0.8
v 1.1 1.6 -0.8
v 1.2 1.6 -0.8
v 1.6 1.6 -0.8
v 1.7 1.6 -0.8
v 2 1.6 -0.8
v -2 1.6 -0.9
v -1.7 1.6 -0.9
v -1.1 1.6 -0.9
v -0.9 1.6 -0.9
v 0.9 1.6 -0.9
v 1.1 1.6 -0.9
v 1.7 1.6 -0.9
v 2 1.6 -0.9
v -2 1.7 0.8
v -1.7 1.7 0.8
v -1.1 1.7 0.8
v -0.9 1.7 0.8
v 0.9 1.7 0.8
v 1.1 1.7 0.8
v 1.7 1.7 0.8
v 2 1.7 0.8
v -2 1.7 0.7
v -1.7 1.7 0.7
v -1.6 1.7 0.7
v -1.2 1.7 0.7
v -1.1 1.7 0.7
v -0.9 1.7 0.7
v -0.8 1.7 0.7
v 0.8 1.7 0.7
v 0.9 1.7 0.7
v 1.1 1.7 0.7
v 1.2 1.7 0.7
v 1.6 1.7 0.7
v 1.7 1.7 0.7
v 2 1.7 0.7
v -1.7 1.7 0.6
v -1.6 1.7 0.6
v -1.2 1.7 0.6
v -1.1 1.7 0.6
v -0.9 1.7 0.6
v -0.8 1.7 0.6
v 0.8 1.7 0.6
v 0.9 1.7 0.6
v 1.1 1.7 0.6
v 1.2 1.7 0.6
v 1.6 1.7 0.6
v 1.7 1.7 0.6
v -1.7 1.7 -0.6
v -1.6 1.7 -0.6
v -1.2 1.7 -0.6
v -1.1 1.7 -0.6
v -0.9 1.7 -0.6
v -0.8 1.7 -0.6
v 0.8 1.7 -0.6
v 0.9 1.7 -0.6
v 1.1 1.7 -0.6
v 1.2 1.7 -0.6
v 1.6 1.7 -0.6
v 1.7 1.7 -0.6
v -2 1.7 -0.7
v -1.7 1.7 -0.7
v -1.6 1.7 -0.7
v -1.2 1.7 -0.7
v -1.1 1.7 -0.7
v -0.9 1.7 -0.7
v -0.8 1.7 -0.7
v 0.8 1.7 -0.7
v 0.9 1.7 -0.7
v 1.1 1.7 -0.7
v 1.2 1.7 -0.7
v 1.6 1.7 -0.7
v 1.7 1.7 -0.7
v 2 1.7 -0.7
v -2 1.7 -0.8
v -1.7 1.7 -0.8
v -1.1 1.7 -0.8
v -0.9 1.7 -0.8
v 0.9 1.7 -0.8
v 1.1 1.7 -0.8
v 1.7 1.7 -0.8
v 2 1.7 -0.8
v -2 1.8 0.7
v -1.7 1.8 0.7
v -1.1 1.8 0.7
v -0.9 1.8 0.7
v 0.9 1.8 0.7
v 1.1 1.8 0.7
v 1.7 1.8 0.7
v 2 1.8 0.7
v -2 1.8 0.6
v -1.7 1.8 0.6
v -1.6 1.8 0.6
v -1.2 1.8 0.6
v -1.1 1.8 0.6
v -0.9 1.8 0.6
v -0.8 1.8 0.6
v 0.8 1.8 0.6
v 0.9 1.8 0.6
v 1.1 1.8 0.6
v 1.2 1.8 0.6
v 1.6 1.8 0.6
v 1.7 1.8 0.6
v 2 1.8 0.6
v 1.6 1.8 0.5
v 1.7 1.8 0.5
v -1.7 1.8 0.4
v -1.6 1.8 0.4
v -1.2 1.8 0.4
v -1.1 1.8 0.4
v -0.9 1.8 0.4
v -0.8 1.8 0.4
v 0.8 1.8 0.4
v 0.9 1.8 0.4
v 1.1 1.8 0.4
v 1.2 1.8 0.4
v 1.7 1.8 0.4
v -1.7 1.8 -0.4
v -1.6 1.8 -0.4
v -1.2 1.8 -0.4
v -1.1 1.8 -0.4
v -0.9 1.8 -0.4
v -0.8 1.8 -0.4
v 0.8 1.8 -0.4
v 0.9 1.8 -0.4
v 1.1 1.8 -0.4
v 1.2 1.8 -0.4
v 1.6 1.8 -0.4
v 1.7 1.8 -0.4
v -2 1.8 -0.6
v -1.7 1.8 -0.6
v -1.6 1.8 -0.6
v -1.2 1.8 -0.6
v -1.1 1.8 -0.6
v -0.9 1.8 -0.6
v -0.8 1.8 -0.6
v 0.8 1.8 -0.6
v 0.9 1.8 -0.6
v 1.1 1.8 -0.6
v 1.2 1.8 -0.6
v 1.6 1.8 -0.6
v 1.7 1.8 -0.6
v 2 1.8 -0.6
v -2 1.8 -0.7
v -1.7 1.8 -0.7
v -1.1 1.8 -0.7
v -0.9 1.8 -0.7
v 0.9 1.8 -0.7
v 1.1 1.8 -0.7
v 1.7 1.8 -0.7
v 2 1.8 -0.7
v -2 1.9 0.6
v -1.7 1.9 0.6
v -1.1 1.9 0.6
v -0.9 1.9 0.6
v 0.9 1.9 0.6
v 1.1 1.9 0.6
v 1.7 1.9 0.6
v 2 1.9 0.6
v -2 1.9 0.4
v -1.7 1.9 0.4
v -1.1 1.9 0.4
v -0.9 1.9 0.4
v 0.9 1.9 0.4
v 1.1 1.9 0.4
v 1.7 1.9 0.4
v 2 1.9 0.4
v -1.7 1.9 0.3
v -1.6 1.9 0.3
v -1.2 1.9 0.3
v -1.1 1.9 0.3
v -0.9 1.9 0.3
v -0.8 1.9 0.3
v 0.8 1.9 0.3
v 0.9 1.9 0.3
v 1.1 1.9 0.3
v 1.2 1.9 0.3
v 1.6 1.9 0.3
v 1.7 1.9 0.3
v -1.7 1.9 -0.3
v -1.6 1.9 -0.3
v -1.2 1.9 -0.3
v -1.1 1.9 -0.3
v -0.9 1.9 -0.3
v -0.8 1.9 -0.3
v 0.8 1.9 -0.3
v 0.9 1.9 -0.3
v 1.1 1.9 -0.3
v 1.2 1.9 -0.3
v 1.6 1.9 -0.3
v 1.7 1.9 -0.3
v -2 1.9 -0.4
v -1.7 1.9 -0.4
v -1.1 1.9 -0.4
v -0.9 1.9 -0.4
v 0.9 1.9 -0.4
v 1.1 1.9 -0.4
v 1.7 1.9 -0.4
v 2 1.9 -0.4
v -2 1.9 -0.6
v -1.7 1.9 -0.6
v -1.1 1.9 -0.6
v -0.9 1.9 -0.6
v 0.9 1.9 -0.6
v 1.1 1.9 -0.6
v 1.7 1.9 -0.6
v 2 1.9 -0.6
v -2 2 0.4
v -1.7 2 0.4
v -1.1 2 0.4
v -0.9 2 0.4
v 0.9 2 0.4
v 1.1 2 0.4
v 1.7 2 0.4
v 2 2 0.4
v -2 2 0.3
v -1.7 2 0.3
v -1.1 2 0.3
v -0.9 2 0.3
v 0.9 2 0.3
v 1.1 2 0.3
v 1.7 2 0.3
v 2 2 0.3
v -2 2 -0.3
v -1.7 2 -0.3
v -1.1 2 -0.3
v -0.9 2 -0.3
v 0.9 2 -0.3
v 1.1 2 -0.3
v 1.7 2 -0.3
v 2 2 -0.3
v -2 2 -0.4
v -1.7 2 -0.4
v -1.1 2 -0.4
v -0.9 2 -0.4
v 0.9 2 -0.4
v 1.1 2 -0.4
v 1.7 2 -0.4
v 2 2 -0.4

# faces
f 3/3/1 2/3/1 1/3/1
f 4/3/1 2/3/1 3/3/1
f 5/3/1 3/3/1 1/3/1
f 6/3/1 3/3/1 5/3/1
f 7/4/1 4/4/1 3/4/1
f 7/3/1 3/3/1 6/3/1
f 8/3/1 2/3/1 4/3/1
f 8/4/1 4/4/1 7/4/1
f 9/3/1 2/3/1 8/3/1
f 10/3/1 2/3/1 9/3/1
f 11/4/1 6/4/1 5/4/1
f 12/4/1 6/4/1 11/4/1
f 13/4/1 10/4/1 9/4/1
f 14/4/1 10/4/1 13/4/1
f 15/3/1 12/3/1 11/3/1
f 16/3/1 12/3/1 15/3/1
f 17/3/1 14/3/1 13/3/1
f 18/3/1 14/3/1 17/3/1
f 19/4/1 16/4/1 15/4/1
f 19/3/1 17/3/1 16/3/1
f 20/4/1 18/4/1 17/4/1
f 20/3/1 17/3/1 19/3/1
f 21/4/1 19/4/1 15/4/1
f 21/4/1 20/4/1 19/4/1
f 22/4/1 20/4/1 21/4/1
f 23/4/1 18/4/1 20/4/1
f 23/4/1 20/4/1 22/4/1
f 24/4/1 18/4/1 23/4/1
f 25/4/1 21/4/1 15/4/1
f 26/3/1 22/3/1 21/3/1
f 26/4/1 21/4/1 25/4/1
f 27/3/1 22/3/1 26/3/1
f 30/3/1 24/3/1 23/3/1
f 31/4/1 18/4/1 24/4/1
f 31/3/1 24/3/1 30/3/1
f 32/4/1 18/4/1 31/4/1
f 33/1/1 26/1/1 25/1/1
f 34/4/1 27/4/1 26/4/1
f 34/1/1 26/1/1 33/1/1
f 35/3/1 28/3/1 27/3/1
f 35/4/1 27/4/1 34/4/1
f 36/3/1 28/3/1 35/3/1
f 37/3/1 30/3/1 29/3/1
f 38/4/1 31/4/1 30/4/1
f 38/3/1 30/3/1 37/3/1
f 39/1/1 32/1/1 31/1/1
f 39/4/1 31/4/1 38/4/1
f 40/1/1 32/1/1 39/1/1
f 41/4/1 36/4/1 35/4/1
f 41/4/1 35/4/1 34/4/1
f 42/4/1 36/4/1 41/4/1
f 43/4/1 36/4/1 42/4/1
f 46/4/1 39/4/1 38/4/1
f 46/4/1 38/4/1 37/4/1
f 47/4/1 39/4/1 46/4/1
f 48/4/1 39/4/1 47/4/1
f 49/1/1 42/1/1 41/1/1
f 50/4/1 44/4/1 43/4/1
f 50/1/1 42/1/1 49/1/1
f 50/4/1 43/4/1 42/4/1
f 51/4/1 44/4/1 50/4/1
f 52/4/1 44/4/1 51/4/1
f 55/4/1 46/4/1 45/4/1
f 55/4/1 47/4/1 46/4/1
f 56/4/1 47/4/1 55/4/1
f 57/1/1 48/1/1 47/1/1
f 57/4/1 47/4/1 56/4/1
f 58/1/1 48/1/1 57/1/1
f 59/1/1 51/1/1 50/1/1
f 60/4/1 53/4/1 52/4/1
f 60/1/1 51/1/1 59/1/1
f 60/4/1 52/4/1 51/4/1
f 61/4/1 53/4/1 60/4/1
f 64/4/1 56/4/1 55/4/1
f 64/4/1 55/4/1 54/4/1
f 65/1/1 57/1/1 56/1/1
f 65/4/1 56/4/1 64/4/1
f 66/1/1 57/1/1 65/1/1
f 67/1/1 61/1/1 60/1/1
f 68/1/1 61/1/1 67/1/1
f 69/4/1 62/4/1 61/4/1
f 69/1/1 61/1/1 68/1/1
f 70/4/1 62/4/1 69/4/1
f 71/4/1 64/4/1 63/4/1
f 72/1/1 65/1/1 64/1/1
f 72/4/1 64/4/1 71/4/1
f 73/1/1 65/1/1 72/1/1
f 74/1/1 65/1/1 73/1/1
f 75/1/1 70/1/1 69/1/1
f 75/1/1 73/1/1 72/1/1
f 75/1/1 72/1/1 71/1/1
f 75/1/1 71/1/1 70/1/1
f 75/1/1 69/1/1 68/1/1
f 76/1/1 73/1/1 75/1/1
f 77/1/1 73/1/1 76/1/1
f 78/1/1 73/1/1 77/1/1
f 79/1/1 73/1/1 78/1/1
f 80/1/1 73/1/1 79/1/1
f 81/1/1 77/1/1 76/1/1
f 82/2/1 78/2/1 77/2/1
f 82/1/1 77/1/1 81/1/1
f 83/1/1 79/1/1 78/1/1
f 83/2/1 78/2/1 82/2/1
f 84/1/1 79/1/1 83/1/1
f 89/11/1 86/11/1 85/11/1
f 90/7/1 87/7/1 86/7/1
f 90/11/1 86/11/1 89/11/1
f 91/11/1 88/11/1 87/11/1
f 91/7/1 87/7/1 90/7/1
f 92/11/1 88/11/1 91/11/1
f 93/8/1 90/8/1 89/8/1
f 94/8/1 92/8/1 91/8/1
f 95/11/1 91/11/1 90/11/1
f 95/8/1 90/8/1 93/8/1
f 96/8/1 94/8/1 91/8/1
f 96/11/1 91/11/1 95/11/1
f 97/8/1 95/8/1 93/8/1
f 97/8/1 96/8/1 95/8/1
f 98/8/1 94/8/1 96/8/1
f 98/8/1 96/8/1 97/8/1
f 103/7/1 100/7/1 99/7/1
f 104/7/1 100/7/1 103/7/1
f 105/10/1 101/10/1 100/10/1
f 105/7/1 100/7/1 104/7/1
f 106/10/1 101/10/1 105/10/1
f 107/10/1 101/10/1 106/10/1
f 108/7/1 102/7/1 101/7/1
f 108/10/1 101/10/1 107/10/1
f 109/7/1 102/7/1 108/7/1
f 110/7/1 102/7/1 109/7/1
f 111/7/1 105/7/1 104/7/1
f 111/7/1 106/7/1 105/7/1
f 112/10/1 107/10/1 106/10/1
f 112/7/1 106/7/1 111/7/1
f 113/10/1 107/10/1 112/10/1
f 114/10/1 107/10/1 113/10/1
f 115/7/1 109/7/1 108/7/1
f 115/10/1 107/10/1 114/10/1
f 115/7/1 108/7/1 107/7/1
f 116/7/1 109/7/1 115/7/1
f 117/7/1 113/7/1 112/7/1
f 117/7/1 112/7/1 111/7/1
f 118/7/1 113/7/1 117/7/1
f 119/10/1 114/10/1 113/10/1
f 119/7/1 113/7/1 118/7/1
f 120/10/1 114/10/1 119/10/1
f 121/10/1 114/10/1 120/10/1
f 122/7/1 116/7/1 115/7/1
f 122/10/1 114/10/1 121/10/1
f 122/7/1 115/7/1 114/7/1
f 123/7/1 116/7/1 122/7/1
f 124/7/1 116/7/1 123/7/1
f 125/7/1 120/7/1 119/7/1
f 125/7/1 119/7/1 118/7/1
f 126/7/1 120/7/1 125/7/1
f 127/10/1 121/10/1 120/10/1
f 127/7/1 120/7/1 126/7/1
f 128/7/1 123/7/1 122/7/1
f 128/10/1 121/10/1 127/10/1
f 128/7/1 122/7/1 121/7/1
f 129/7/1 123/7/1 128/7/1
f 130/7/1 123/7/1 129/7/1
f 131/7/1 127/7/1 126/7/1
f 131/7/1 129/7/1 128/7/1
f 131/7/1 128/7/1 127/7/1
f 132/7/1 129/7/1 131/7/1
f 133/7/1 129/7/1 132/7/1
f 134/7/1 129/7/1 133/7/1
f 135/7/1 133/7/1 132/7/1
f 136/7/1 133/7/1 135/7/1
f 141/4/1 138/4/1 137/4/1
f 142/4/1 140/4/1 139/4/1
f 143/4/1 141/4/1 137/4/1
f 144/4/1 141/4/1 143/4/1
f 145/4/1 140/4/1 142/4/1
f 146/4/1 140/4/1 145/4/1
f 147/3/1 144/3/1 143/3/1
f 148/3/1 144/3/1 147/3/1
f 149/3/1 146/3/1 145/3/1
f 150/3/1 146/3/1 149/3/1
f 155/4/1 152/4/1 151/4/1
f 156/4/1 152/4/1 155/4/1
f 157/4/1 154/4/1 153/4/1
f 158/4/1 154/4/1 157/4/1
f 159/1/1 156/1/1 155/1/1
f 160/1/1 156/1/1 159/1/1
f 163/1/1 158/1/1 157/1/1
f 164/1/1 158/1/1 163/1/1
f 165/4/1 161/4/1 160/4/1
f 166/4/1 161/4/1 165/4/1
f 167/4/1 163/4/1 162/4/1
f 168/4/1 163/4/1 167/4/1
f 169/1/1 166/1/1 165/1/1
f 170/1/1 166/1/1 169/1/1
f 173/1/1 168/1/1 167/1/1
f 174/1/1 168/1/1 173/1/1
f 175/1/1 171/1/1 170/1/1
f 176/1/1 171/1/1 175/1/1
f 179/1/1 173/1/1 172/1/1
f 180/1/1 173/1/1 179/1/1
f 181/1/1 177/1/1 176/1/1
f 182/1/1 177/1/1 181/1/1
f 185/1/1 179/1/1 178/1/1
f 186/1/1 179/1/1 185/1/1
f 187/1/1 183/1/1 182/1/1
f 188/1/1 183/1/1 187/1/1
f 191/1/1 185/1/1 184/1/1
f 192/1/1 185/1/1 191/1/1
f 193/1/1 189/1/1 188/1/1
f 194/2/1 190/2/1 189/2/1
f 194/1/1 189/1/1 193/1/1
f 195/1/1 191/1/1 190/1/1
f 195/2/1 190/2/1 194/2/1
f 196/1/1 191/1/1 195/1/1
f 199/3/1 198/3/1 197/3/1
f 200/3/1 198/3/1 199/3/1
f 203/1/1 202/1/1 201/1/1
f 204/1/1 202/1/1 203/1/1
f 207/3/1 206/3/1 205/3/1
f 208/3/1 206/3/1 207/3/1
f 211/1/1 210/1/1 209/1/1
f 212/1/1 210/1/1 211/1/1
f 216/3/1 214/3/1 213/3/1
f 217/12/1 215/12/1 214/12/1
f 217/3/1 214/3/1 216/3/1
f 218/12/1 215/12/1 217/12/1
f 223/4/1 220/4/1 219/4/1
f 224/4/1 222/4/1 221/4/1
f 225/4/1 223/4/1 219/4/1
f 226/4/1 223/4/1 225/4/1
f 227/4/1 222/4/1 224/4/1
f 228/4/1 222/4/1 227/4/1
f 229/3/1 226/3/1 225/3/1
f 230/3/1 226/3/1 229/3/1
f 231/3/1 228/3/1 227/3/1
f 232/3/1 228/3/1 231/3/1
f 237/4/1 234/4/1 233/4/1
f 238/4/1 234/4/1 237/4/1
f 239/4/1 236/4/1 235/4/1
f 240/4/1 236/4/1 239/4/1
f 241/1/1 238/1/1 237/1/1
f 242/1/1 238/1/1 241/1/1
f 245/1/1 240/1/1 239/1/1
f 246/1/1 240/1/1 245/1/1
f 247/4/1 243/4/1 242/4/1
f 248/4/1 243/4/1 247/4/1
f 249/4/1 245/4/1 244/4/1
f 250/4/1 245/4/1 249/4/1
f 251/1/1 248/1/1 247/1/1
f 252/1/1 248/1/1 251/1/1
f 255/1/1 250/1/1 249/1/1
f 256/1/1 250/1/1 255/1/1
f 257/1/1 253/1/1 252/1/1
f 258/1/1 253/1/1 257/1/1
f 261/1/1 255/1/1 254/1/1
f 262/1/1 255/1/1 261/1/1
f 263/1/1 259/1/1 258/1/1
f 264/1/1 259/1/1 263/1/1
f 267/1/1 261/1/1 260/1/1
f 268/1/1 261/1/1 267/1/1
f 269/1/1 265/1/1 264/1/1
f 270/1/1 265/1/1 269/1/1
f 273/1/1 267/1/1 266/1/1
f 274/1/1 267/1/1 273/1/1
f 275/1/1 271/1/1 270/1/1
f 276/2/1 272/2/1 271/2/1
f 276/1/1 271/1/1 275/1/1
f 277/1/1 273/1/1 272/1/1
f 277/2/1 272/2/1 276/2/1
f 278/1/1 273/1/1 277/1/1
f 283/4/1 280/4/1 279/4/1
f 284/4/1 282/4/1 281/4/1
f 285/4/1 283/4/1 279/4/1
f 286/4/1 283/4/1 285/4/1
f 287/4/1 282/4/1 284/4/1
f 288/4/1 282/4/1 287/4/1
f 289/3/1 286/3/1 285/3/1
f 290/3/1 286/3/1 289/3/1
f 291/3/1 288/3/1 287/3/1
f 292/3/1 288/3/1 291/3/1
f 297/4/1 294/4/1 293/4/1
f 298/4/1 294/4/1 297/4/1
f 299/4/1 296/4/1 295/4/1
f 300/4/1 296/4/1 299/4/1
f 301/1/1 298/1/1 297/1/1
f 302/1/1 298/1/1 301/1/1
f 305/1/1 300/1/1 299/1/1
f 306/1/1 300/1/1 305/1/1
f 307/4/1 303/4/1 302/4/1
f 308/4/1 303/4/1 307/4/1
f 309/4/1 305/4/1 304/4/1
f 310/4/1 305/4/1 309/4/1
f 311/1/1 308/1/1 307/1/1
f 312/1/1 308/1/1 311/1/1
f 315/1/1 310/1/1 309/1/1
f 316/1/1 310/1/1 315/1/1
f 317/1/1 313/1/1 312/1/1
f 318/1/1 313/1/1 317/1/1
f 321/1/1 315/1/1 314/1/1
f 322/1/1 315/1/1 321/1/1
f 323/1/1 319/1/1 318/1/1
f 324/1/1 319/1/1 323/1/1
f 328/1/1 321/1/1 320/1/1
f 329/1/1 321/1/1 328/1/1
f 330/1/1 326/1/1 325/1/1
f 330/1/1 325/1/1 324/1/1
f 331/1/1 326/1/1 330/1/1
f 334/1/1 328/1/1 327/1/1
f 335/1/1 328/1/1 334/1/1
f 336/1/1 332/1/1 331/1/1
f 337/2/1 333/2/1 332/2/1
f 337/1/1 332/1/1 336/1/1
f 338/1/1 334/1/1 333/1/1
f 338/2/1 333/2/1 337/2/1
f 339/1/1 334/1/1 338/1/1
f 340/4/2 341/4/2 344/4/2
f 342/4/2 343/4/2 345/4/2
f 340/4/2 344/4/2 346/4/2
f 346/4/2 344/4/2 347/4/2
f 345/4/2 343/4/2 348/4/2
f 348/4/2 343/4/2 349/4/2
f 346/3/2 347/3/2 350/3/2
f 350/3/2 347/3/2 351/3/2
f 348/3/2 349/3/2 352/3/2
f 352/3/2 349/3/2 353/3/2
f 354/4/2 355/4/2 358/4/2
f 358/4/2 355/4/2 359/4/2
f 356/4/2 357/4/2 360/4/2
f 360/4/2 357/4/2 361/4/2
f 358/1/2 359/1/2 362/1/2
f 362/1/2 359/1/2 363/1/2
f 360/1/2 361/1/2 366/1/2
f 366/1/2 361/1/2 367/1/2
f 363/4/2 364/4/2 368/4/2
f 368/4/2 364/4/2 369/4/2
f 365/4/2 366/4/2 370/4/2
f 370/4/2 366/4/2 371/4/2
f 368/1/2 369/1/2 372/1/2
f 372/1/2 369/1/2 373/1/2
f 370/1/2 371/1/2 376/1/2
f 376/1/2 371/1/2 377/1/2
f 373/1/2 374/1/2 378/1/2
f 378/1/2 374/1/2 379/1/2
f 375/1/2 376/1/2 382/1/2
f 382/1/2 376/1/2 383/1/2
f 379/1/2 380/1/2 384/1/2
f 384/1/2 380/1/2 385/1/2
f 381/1/2 382/1/2 388/1/2
f 388/1/2 382/1/2 389/1/2
f 385/1/2 386/1/2 390/1/2
f 390/1/2 386/1/2 391/1/2
f 387/1/2 388/1/2 394/1/2
f 394/1/2 388/1/2 395/1/2
f 391/1/2 392/1/2 396/1/2
f 392/2/2 393/2/2 397/2/2
f 396/1/2 392/1/2 397/1/2
f 393/1/2 394/1/2 398/1/2
f 397/2/2 393/2/2 398/2/2
f 398/1/2 394/1/2 399/1/2
f 400/4/2 401/4/2 404/4/2
f 402/4/2 403/4/2 405/4/2
f 400/4/2 404/4/2 406/4/2
f 406/4/2 404/4/2 407/4/2
f 405/4/2 403/4/2 408/4/2
f 408/4/2 403/4/2 409/4/2
f 406/3/2 407/3/2 410/3/2
f 410/3/2 407/3/2 411/3/2
f 408/3/2 409/3/2 412/3/2
f 412/3/2 409/3/2 413/3/2
f 414/4/2 415/4/2 418/4/2
f 418/4/2 415/4/2 419/4/2
f 416/4/2 417/4/2 420/4/2
f 420/4/2 417/4/2 421/4/2
f 418/1/2 419/1/2 422/1/2
f 422/1/2 419/1/2 423/1/2
f 420/1/2 421/1/2 426/1/2
f 426/1/2 421/1/2 427/1/2
f 423/4/2 424/4/2 428/4/2
f 428/4/2 424/4/2 429/4/2
f 425/4/2 426/4/2 430/4/2
f 430/4/2 426/4/2 431/4/2
f 428/1/2 429/1/2 432/1/2
f 432/1/2 429/1/2 433/1/2
f 430/1/2 431/1/2 436/1/2
f 436/1/2 431/1/2 437/1/2
f 433/1/2 434/1/2 438/1/2
f 438/1/2 434/1/2 439/1/2
f 435/1/2 436/1/2 442/1/2
f 442/1/2 436/1/2 443/1/2
f 439/1/2 440/1/2 444/1/2
f 444/1/2 440/1/2 445/1/2
f 441/1/2 442/1/2 448/1/2
f 448/1/2 442/1/2 449/1/2
f 445/1/2 446/1/2 450/1/2
f 450/1/2 446/1/2 451/1/2
f 447/1/2 448/1/2 454/1/2
f 454/1/2 448/1/2 455/1/2
f 451/1/2 452/1/2 456/1/2
f 452/2/2 453/2/2 457/2/2
f 456/1/2 452/1/2 457/1/2
f 453/1/2 454/1/2 458/1/2
f 457/2/2 453/2/2 458/2/2
f 458/1/2 454/1/2 459/1/2
f 460/3/2 461/3/2 463/3/2
f 461/12/2 462/12/2 464/12/2
f 463/3/2 461/3/2 464/3/2
f 464/12/2 462/12/2 465/12/2
f 466/3/2 467/3/2 468/3/2
f 468/3/2 467/3/2 469/3/2
f 470/1/2 471/1/2 472/1/2
f 472/1/2 471/1/2 473/1/2
f 474/3/2 475/3/2 476/3/2
f 476/3/2 475/3/2 477/3/2
f 478/1/2 479/1/2 480/1/2
f 480/1/2 479/1/2 481/1/2
f 482/4/2 483/4/2 486/4/2
f 484/4/2 485/4/2 487/4/2
f 482/4/2 486/4/2 488/4/2
f 488/4/2 486/4/2 489/4/2
f 487/4/2 485/4/2 490/4/2
f 490/4/2 485/4/2 491/4/2
f 488/3/2 489/3/2 492/3/2
f 492/3/2 489/3/2 493/3/2
f 490/3/2 491/3/2 494/3/2
f 494/3/2 491/3/2 495/3/2
f 496/4/2 497/4/2 500/4/2
f 500/4/2 497/4/2 501/4/2
f 498/4/2 499/4/2 502/4/2
f 502/4/2 499/4/2 503/4/2
f 500/1/2 501/1/2 504/1/2
f 504/1/2 501/1/2 505/1/2
f 502/1/2 503/1/2 508/1/2
f 508/1/2 503/1/2 509/1/2
f 505/4/2 506/4/2 510/4/2
f 510/4/2 506/4/2 511/4/2
f 507/4/2 508/4/2 512/4/2
f 512/4/2 508/4/2 513/4/2
f 510/1/2 511/1/2 514/1/2
f 514/1/2 511/1/2 515/1/2
f 512/1/2 513/1/2 518/1/2
f 518/1/2 513/1/2 519/1/2
f 515/1/2 516/1/2 520/1/2
f 520/1/2 516/1/2 521/1/2
f 517/1/2 518/1/2 524/1/2
f 524/1/2 518/1/2 525/1/2
f 521/1/2 522/1/2 526/1/2
f 526/1/2 522/1/2 527/1/2
f 523/1/2 524/1/2 530/1/2
f 530/1/2 524/1/2 531/1/2
f 527/1/2 528/1/2 532/1/2
f 532/1/2 528/1/2 533/1/2
f 529/1/2 530/1/2 536/1/2
f 536/1/2 530/1/2 537/1/2
f 533/1/2 534/1/2 538/1/2
f 534/2/2 535/2/2 539/2/2
f 538/1/2 534/1/2 539/1/2
f 535/1/2 536/1/2 540/1/2
f 539/2/2 535/2/2 540/2/2
f 540/1/2 536/1/2 541/1/2
f 542/11/2 543/11/2 546/11/2
f 543/7/2 544/7/2 547/7/2
f 546/11/2 543/11/2 547/11/2
f 544/11/2 545/11/2 548/11/2
f 547/7/2 544/7/2 548/7/2
f 548/11/2 545/11/2 549/11/2
f 546/8/2 547/8/2 550/8/2
f 548/8/2 549/8/2 551/8/2
f 547/11/2 548/11/2 552/11/2
f 550/8/2 547/8/2 552/8/2
f 548/8/2 551/8/2 553/8/2
f 552/11/2 548/11/2 553/11/2
f 550/8/2 552/8/2 554/8/2
f 552/8/2 553/8/2 554/8/2
f 553/8/2 551/8/2 555/8/2
f 554/8/2 553/8/2 555/8/2
f 556/7/2 557/7/2 560/7/2
f 560/7/2 557/7/2 561/7/2
f 557/10/2 558/10/2 562/10/2
f 561/7/2 557/7/2 562/7/2
f 562/10/2 558/10/2 563/10/2
f 563/10/2 558/10/2 564/10/2
f 558/7/2 559/7/2 565/7/2
f 564/10/2 558/10/2 565/10/2
f 565/7/2 559/7/2 566/7/2
f 566/7/2 559/7/2 567/7/2
f 561/7/2 562/7/2 568/7/2
f 562/7/2 563/7/2 568/7/2
f 563/10/2 564/10/2 569/10/2
f 568/7/2 563/7/2 569/7/2
f 569/10/2 564/10/2 570/10/2
f 570/10/2 564/10/2 571/10/2
f 565/7/2 566/7/2 572/7/2
f 571/10/2 564/10/2 572/10/2
f 564/7/2 565/7/2 572/7/2
f 572/7/2 566/7/2 573/7/2
f 569/7/2 570/7/2 574/7/2
f 568/7/2 569/7/2 574/7/2
f 574/7/2 570/7/2 575/7/2
f 570/10/2 571/10/2 576/10/2
f 575/7/2 570/7/2 576/7/2
f 576/10/2 571/10/2 577/10/2
f 577/10/2 571/10/2 578/10/2
f 572/7/2 573/7/2 579/7/2
f 578/10/2 571/10/2 579/10/2
f 571/7/2 572/7/2 579/7/2
f 579/7/2 573/7/2 580/7/2
f 580/7/2 573/7/2 581/7/2
f 576/7/2 577/7/2 582/7/2
f 575/7/2 576/7/2 582/7/2
f 582/7/2 577/7/2 583/7/2
f 577/10/2 578/10/2 584/10/2
f 583/7/2 577/7/2 584/7/2
f 579/7/2 580/7/2 585/7/2
f 584/10/2 578/10/2 585/10/2
f 578/7/2 579/7/2 585/7/2
f 585/7/2 580/7/2 586/7/2
f 586/7/2 580/7/2 587/7/2
f 583/7/2 584/7/2 588/7/2
f 585/7/2 586/7/2 588/7/2
f 584/7/2 585/7/2 588/7/2
f 588/7/2 586/7/2 589/7/2
f 589/7/2 586/7/2 590/7/2
f 590/7/2 586/7/2 591/7/2
f 589/7/2 590/7/2 592/7/2
f 592/7/2 590/7/2 593/7/2
f 594/3/2 595/3/2 596/3/2
f 596/3/2 595/3/2 597/3/2
f 594/3/2 596/3/2 598/3/2
f 598/3/2 596/3/2 599/3/2
f 596/4/2 597/4/2 600/4/2
f 599/3/2 596/3/2 600/3/2
f 597/3/2 595/3/2 601/3/2
f 600/4/2 597/4/2 601/4/2
f 601/3/2 595/3/2 602/3/2
f 602/3/2 595/3/2 603/3/2
f 598/4/2 599/4/2 604/4/2
f 604/4/2 599/4/2 605/4/2
f 602/4/2 603/4/2 606/4/2
f 606/4/2 603/4/2 607/4/2
f 604/3/2 605/3/2 608/3/2
f 608/3/2 605/3/2 609/3/2
f 606/3/2 607/3/2 610/3/2
f 610/3/2 607/3/2 611/3/2
f 608/4/2 609/4/2 612/4/2
f 609/3/2 610/3/2 612/3/2
f 610/4/2 611/4/2 613/4/2
f 612/3/2 610/3/2 613/3/2
f 608/4/2 612/4/2 614/4/2
f 612/4/2 613/4/2 614/4/2
f 614/4/2 613/4/2 615/4/2
f 613/4/2 611/4/2 616/4/2
f 615/4/2 613/4/2 616/4/2
f 616/4/2 611/4/2 617/4/2
f 608/4/2 614/4/2 618/4/2
f 614/3/2 615/3/2 619/3/2
f 618/4/2 614/4/2 619/4/2
f 619/3/2 615/3/2 620/3/2
f 616/3/2 617/3/2 623/3/2
f 617/4/2 611/4/2 624/4/2
f 623/3/2 617/3/2 624/3/2
f 624/4/2 611/4/2 625/4/2
f 618/1/2 619/1/2 626/1/2
f 619/4/2 620/4/2 627/4/2
f 626/1/2 619/1/2 627/1/2
f 620/3/2 621/3/2 628/3/2
f 627/4/2 620/4/2 628/4/2
f 628/3/2 621/3/2 629/3/2
f 622/3/2 623/3/2 630/3/2
f 623/4/2 624/4/2 631/4/2
f 630/3/2 623/3/2 631/3/2
f 624/1/2 625/1/2 632/1/2
f 631/4/2 624/4/2 632/4/2
f 632/1/2 625/1/2 633/1/2
f 628/4/2 629/4/2 634/4/2
f 627/4/2 628/4/2 634/4/2
f 634/4/2 629/4/2 635/4/2
f 635/4/2 629/4/2 636/4/2
f 631/4/2 632/4/2 639/4/2
f 630/4/2 631/4/2 639/4/2
f 639/4/2 632/4/2 640/4/2
f 640/4/2 632/4/2 641/4/2
f 634/1/2 635/1/2 642/1/2
f 636/4/2 637/4/2 643/4/2
f 642/1/2 635/1/2 643/1/2
f 635/4/2 636/4/2 643/4/2
f 643/4/2 637/4/2 644/4/2
f 644/4/2 637/4/2 645/4/2
f 638/4/2 639/4/2 648/4/2
f 639/4/2 640/4/2 648/4/2
f 648/4/2 640/4/2 649/4/2
f 640/1/2 641/1/2 650/1/2
f 649/4/2 640/4/2 650/4/2
f 650/1/2 641/1/2 651/1/2
f 643/1/2 644/1/2 652/1/2
f 645/4/2 646/4/2 653/4/2
f 652/1/2 644/1/2 653/1/2
f 644/4/2 645/4/2 653/4/2
f 653/4/2 646/4/2 654/4/2
f 648/4/2 649/4/2 657/4/2
f 647/4/2 648/4/2 657/4/2
f 649/1/2 650/1/2 658/1/2
f 657/4/2 649/4/2 658/4/2
f 658/1/2 650/1/2 659/1/2
f 653/1/2 654/1/2 660/1/2
f 660/1/2 654/1/2 661/1/2
f 654/4/2 655/4/2 662/4/2
f 661/1/2 654/1/2 662/1/2
f 662/4/2 655/4/2 663/4/2
f 656/4/2 657/4/2 664/4/2
f 657/1/2 658/1/2 665/1/2
f 664/4/2 657/4/2 665/4/2
f 665/1/2 658/1/2 666/1/2
f 666/1/2 658/1/2 667/1/2
f 662/1/2 663/1/2 668/1/2
f 665/1/2 666/1/2 668/1/2
f 664/1/2 665/1/2 668/1/2
f 663/1/2 664/1/2 668/1/2
f 661/1/2 662/1/2 668/1/2
f 668/1/2 666/1/2 669/1/2
f 669/1/2 666/1/2 670/1/2
f 670/1/2 666/1/2 671/1/2
f 671/1/2 666/1/2 672/1/2
f 672/1/2 666/1/2 673/1/2
f 669/1/2 670/1/2 674/1/2
f 670/2/2 671/2/2 675/2/2
f 674/1/2 670/1/2 675/1/2
f 671/1/2 672/1/2 676/1/2
f 675/2/2 671/2/2 676/2/2
f 676/1/2 672/1/2 677/1/2
f 684/3/3 679/3/3 678/3/3
f 684/4/3 680/4/3 679/4/3
f 685/3/3 681/3/3 680/3/3
f 685/4/3 680/4/3 684/4/3
f 686/4/3 682/4/3 681/4/3
f 686/3/3 681/3/3 685/3/3
f 687/4/3 682/4/3 686/4/3
f 688/1/3 683/1/3 682/1/3
f 688/4/3 682/4/3 687/4/3
f 689/1/3 683/1/3 688/1/3
f 690/3/3 684/3/3 678/3/3
f 691/3/3 684/3/3 690/3/3
f 692/4/3 687/4/3 686/4/3
f 693/4/3 687/4/3 692/4/3
f 694/4/3 691/4/3 690/4/3
f 694/3/3 690/3/3 678/3/3
f 695/4/3 691/4/3 694/4/3
f 696/1/3 693/1/3 692/1/3
f 696/4/3 692/4/3 686/4/3
f 697/1/3 693/1/3 696/1/3
f 698/3/3 695/3/3 694/3/3
f 700/4/3 696/4/3 686/4/3
f 700/4/3 697/4/3 696/4/3
f 701/4/3 697/4/3 700/4/3
f 704/4/3 699/4/3 698/4/3
f 704/3/3 698/3/3 694/3/3
f 705/3/3 700/3/3 699/3/3
f 705/4/3 699/4/3 704/4/3
f 706/4/3 701/4/3 700/4/3
f 706/3/3 700/3/3 705/3/3
f 706/4/3 702/4/3 701/4/3
f 707/4/3 702/4/3 706/4/3
f 708/1/3 703/1/3 702/1/3
f 708/4/3 702/4/3 707/4/3
f 709/1/3 703/1/3 708/1/3
f 710/3/3 704/3/3 694/3/3
f 710/3/3 694/3/3 678/3/3
f 711/3/3 704/3/3 710/3/3
f 712/4/3 707/4/3 706/4/3
f 713/4/3 707/4/3 712/4/3
f 714/4/3 712/4/3 706/4/3
f 714/1/3 713/1/3 712/1/3
f 715/1/3 713/1/3 714/1/3
f 716/4/3 714/4/3 706/4/3
f 716/4/3 715/4/3 714/4/3
f 717/4/3 715/4/3 716/4/3
f 719/3/3 717/3/3 716/3/3
f 720/3/3 717/3/3 719/3/3
f 721/3/3 717/3/3 720/3/3
f 724/3/3 720/3/3 719/3/3
f 724/3/3 719/3/3 718/3/3
f 725/3/3 720/3/3 724/3/3
f 726/4/3 721/4/3 720/4/3
f 726/3/3 720/3/3 725/3/3
f 727/1/3 722/1/3 721/1/3
f 727/4/3 721/4/3 726/4/3
f 728/1/3 722/1/3 727/1/3
f 730/3/3 725/3/3 724/3/3
f 730/3/3 724/3/3 723/3/3
f 731/3/3 725/3/3 730/3/3
f 732/3/3 725/3/3 731/3/3
f 733/4/3 728/4/3 727/4/3
f 733/4/3 727/4/3 726/4/3
f 734/4/3 728/4/3 733/4/3
f 735/1/3 729/1/3 728/1/3
f 735/4/3 728/4/3 734/4/3
f 736/1/3 729/1/3 735/1/3
f 737/3/3 732/3/3 731/3/3
f 737/3/3 733/3/3 732/3/3
f 738/3/3 733/3/3 737/3/3
f 739/4/3 734/4/3 733/4/3
f 739/3/3 733/3/3 738/3/3
f 740/1/3 735/1/3 734/1/3
f 740/4/3 734/4/3 739/4/3
f 741/1/3 735/1/3 740/1/3
f 742/3/3 739/3/3 738/3/3
f 742/3/3 740/3/3 739/3/3
f 743/3/3 740/3/3 742/3/3
f 744/4/3 743/4/3 742/4/3
f 745/4/3 743/4/3 744/4/3
f 746/4/3 711/4/3 710/4/3
f 746/3/3 710/3/3 678/3/3
f 747/4/3 711/4/3 746/4/3
f 748/1/3 745/1/3 744/1/3
f 748/4/3 744/4/3 742/4/3
f 749/1/3 745/1/3 748/1/3
f 750/3/3 747/3/3 746/3/3
f 752/4/3 748/4/3 742/4/3
f 752/4/3 749/4/3 748/4/3
f 753/4/3 749/4/3 752/4/3
f 756/3/3 750/3/3 746/3/3
f 756/4/3 751/4/3 750/4/3
f 757/3/3 752/3/3 751/3/3
f 757/4/3 751/4/3 756/4/3
f 758/4/3 753/4/3 752/4/3
f 758/3/3 752/3/3 757/3/3
f 758/4/3 754/4/3 753/4/3
f 759/4/3 754/4/3 758/4/3
f 760/1/3 755/1/3 754/1/3
f 760/4/3 754/4/3 759/4/3
f 761/1/3 755/1/3 760/1/3
f 762/3/3 756/3/3 746/3/3
f 762/3/3 746/3/3 678/3/3
f 763/3/3 756/3/3 762/3/3
f 764/4/3 759/4/3 758/4/3
f 765/4/3 759/4/3 764/4/3
f 766/4/3 763/4/3 762/4/3
f 766/3/3 762/3/3 678/3/3
f 767/4/3 763/4/3 766/4/3
f 768/1/3 765/1/3 764/1/3
f 768/4/3 764/4/3 758/4/3
f 769/1/3 765/1/3 768/1/3
f 770/3/3 767/3/3 766/3/3
f 772/4/3 768/4/3 758/4/3
f 772/4/3 769/4/3 768/4/3
f 773/4/3 769/4/3 772/4/3
f 776/3/3 766/3/3 678/3/3
f 776/3/3 770/3/3 766/3/3
f 777/4/3 771/4/3 770/4/3
f 777/3/3 770/3/3 776/3/3
f 778/3/3 772/3/3 771/3/3
f 778/4/3 771/4/3 777/4/3
f 779/4/3 773/4/3 772/4/3
f 779/3/3 772/3/3 778/3/3
f 779/4/3 774/4/3 773/4/3
f 780/1/3 775/1/3 774/1/3
f 780/4/3 774/4/3 779/4/3
f 781/1/3 775/1/3 780/1/3
f 791/4/3 783/4/3 782/4/3
f 792/1/3 784/1/3 783/1/3
f 792/4/3 783/4/3 791/4/3
f 793/1/3 784/1/3 792/1/3
f 794/11/3 786/11/3 785/11/3
f 795/8/3 787/8/3 786/8/3
f 795/11/3 786/11/3 794/11/3
f 795/8/3 788/8/3 787/8/3
f 796/8/3 788/8/3 795/8/3
f 797/11/3 790/11/3 789/11/3
f 797/11/3 791/11/3 790/11/3
f 798/11/3 791/11/3 797/11/3
f 799/7/3 795/7/3 794/7/3
f 800/11/3 796/11/3 795/11/3
f 800/7/3 795/7/3 799/7/3
f 801/8/3 788/8/3 796/8/3
f 801/11/3 796/11/3 800/11/3
f 802/7/3 798/7/3 797/7/3
f 803/7/3 798/7/3 802/7/3
f 804/11/3 800/11/3 799/11/3
f 805/8/3 801/8/3 800/8/3
f 805/11/3 800/11/3 804/11/3
f 806/8/3 801/8/3 805/8/3
f 807/8/3 788/8/3 801/8/3
f 807/8/3 801/8/3 806/8/3
f 808/11/3 803/11/3 802/11/3
f 809/11/3 803/11/3 808/11/3
f 810/11/3 803/11/3 809/11/3
f 819/4/3 811/4/3 810/4/3
f 820/1/3 812/1/3 811/1/3
f 820/4/3 811/4/3 819/4/3
f 821/1/3 812/1/3 820/1/3
f 822/11/3 814/11/3 813/11/3
f 823/8/3 815/8/3 814/8/3
f 823/11/3 814/11/3 822/11/3
f 823/8/3 816/8/3 815/8/3
f 824/8/3 816/8/3 823/8/3
f 825/11/3 819/11/3 818/11/3
f 825/11/3 818/11/3 817/11/3
f 826/11/3 819/11/3 825/11/3
f 827/7/3 826/7/3 825/7/3
f 828/11/3 824/11/3 823/11/3
f 829/8/3 816/8/3 824/8/3
f 829/11/3 824/11/3 828/11/3
f 830/8/3 816/8/3 829/8/3
f 831/7/3 826/7/3 827/7/3
f 832/7/3 823/7/3 822/7/3
f 833/11/3 828/11/3 823/11/3
f 833/7/3 823/7/3 832/7/3
f 834/8/3 830/8/3 829/8/3
f 834/11/3 828/11/3 833/11/3
f 834/8/3 829/8/3 828/8/3
f 835/8/3 830/8/3 834/8/3
f 836/7/3 826/7/3 831/7/3
f 837/7/3 826/7/3 836/7/3
f 838/7/3 832/7/3 822/7/3
f 839/11/3 833/11/3 832/11/3
f 839/7/3 832/7/3 838/7/3
f 840/8/3 834/8/3 833/8/3
f 840/11/3 833/11/3 839/11/3
f 841/8/3 834/8/3 840/8/3
f 842/7/3 826/7/3 837/7/3
f 843/7/3 826/7/3 842/7/3
f 844/7/3 838/7/3 822/7/3
f 844/11/3 839/11/3 838/11/3
f 845/8/3 840/8/3 839/8/3
f 845/11/3 839/11/3 844/11/3
f 846/8/3 840/8/3 845/8/3
f 849/7/3 826/7/3 843/7/3
f 850/7/3 845/7/3 844/7/3
f 850/11/3 846/11/3 845/11/3
f 851/8/3 847/8/3 846/8/3
f 851/11/3 846/11/3 850/11/3
f 852/8/3 847/8/3 851/8/3
f 855/7/3 849/7/3 848/7/3
f 856/8/3 853/8/3 852/8/3
f 856/11/3 852/11/3 851/11/3
f 857/8/3 853/8/3 856/8/3
f 858/8/3 853/8/3 857/8/3
f 859/7/3 855/7/3 854/7/3
f 860/7/3 855/7/3 859/7/3
f 861/7/3 850/7/3 844/7/3
f 861/7/3 844/7/3 822/7/3
f 861/7/3 851/7/3 850/7/3
f 862/11/3 856/11/3 851/11/3
f 862/7/3 851/7/3 861/7/3
f 862/11/3 857/11/3 856/11/3
f 863/8/3 858/8/3 857/8/3
f 863/11/3 857/11/3 862/11/3
f 864/7/3 855/7/3 860/7/3
f 865/7/3 826/7/3 849/7/3
f 865/7/3 855/7/3 864/7/3
f 865/7/3 849/7/3 855/7/3
f 866/11/3 862/11/3 861/11/3
f 867/8/3 863/8/3 862/8/3
f 867/11/3 862/11/3 866/11/3
f 868/8/3 863/8/3 867/8/3
f 869/8/3 858/8/3 863/8/3
f 869/8/3 863/8/3 868/8/3
f 870/11/3 865/11/3 864/11/3
f 871/11/3 865/11/3 870/11/3
f 872/11/3 865/11/3 871/11/3
f 881/4/3 873/4/3 872/4/3
f 882/1/3 874/1/3 873/1/3
f 882/4/3 873/4/3 881/4/3
f 883/1/3 874/1/3 882/1/3
f 884/11/3 876/11/3 875/11/3
f 885/8/3 877/8/3 876/8/3
f 885/11/3 876/11/3 884/11/3
f 885/8/3 878/8/3 877/8/3
f 886/8/3 878/8/3 885/8/3
f 887/11/3 881/11/3 880/11/3
f 887/11/3 880/11/3 879/11/3
f 888/11/3 881/11/3 887/11/3
f 889/7/3 885/7/3 884/7/3
f 890/11/3 886/11/3 885/11/3
f 890/7/3 885/7/3 889/7/3
f 891/8/3 878/8/3 886/8/3
f 891/11/3 886/11/3 890/11/3
f 892/7/3 888/7/3 887/7/3
f 893/7/3 888/7/3 892/7/3
f 894/11/3 890/11/3 889/11/3
f 895/8/3 891/8/3 890/8/3
f 895/11/3 890/11/3 894/11/3
f 896/8/3 891/8/3 895/8/3
f 897/8/3 878/8/3 891/8/3
f 897/8/3 891/8/3 896/8/3
f 898/11/3 893/11/3 892/11/3
f 899/11/3 893/11/3 898/11/3
f 900/11/3 893/11/3 899/11/3
f 903/4/3 901/4/3 900/4/3
f 904/1/3 902/1/3 901/1/3
f 904/4/3 901/4/3 903/4/3
f 905/1/3 902/1/3 904/1/3
f 910/1/3 907/1/3 906/1/3
f 911/1/3 907/1/3 910/1/3
f 912/11/3 909/11/3 908/11/3
f 913/7/3 910/7/3 909/7/3
f 913/11/3 909/11/3 912/11/3
f 914/7/3 910/7/3 913/7/3
f 915/7/3 913/7/3 912/7/3
f 916/10/3 914/10/3 913/10/3
f 916/7/3 913/7/3 915/7/3
f 917/10/3 914/10/3 916/10/3
f 918/11/3 916/11/3 915/11/3
f 919/7/3 917/7/3 916/7/3
f 919/11/3 916/11/3 918/11/3
f 920/7/3 917/7/3 919/7/3
f 924/1/3 921/1/3 920/1/3
f 925/1/3 921/1/3 924/1/3
f 926/11/3 923/11/3 922/11/3
f 927/7/3 924/7/3 923/7/3
f 927/11/3 923/11/3 926/11/3
f 928/7/3 924/7/3 927/7/3
f 931/12/3 930/12/3 929/12/3
f 932/12/3 930/12/3 931/12/3
f 933/7/3 927/7/3 926/7/3
f 934/10/3 928/10/3 927/10/3
f 934/7/3 927/7/3 933/7/3
f 935/10/3 928/10/3 934/10/3
f 936/11/3 934/11/3 933/11/3
f 937/7/3 935/7/3 934/7/3
f 937/11/3 934/11/3 936/11/3
f 938/7/3 935/7/3 937/7/3
f 942/1/3 939/1/3 938/1/3
f 943/1/3 939/1/3 942/1/3
f 944/11/3 941/11/3 940/11/3
f 945/7/3 942/7/3 941/7/3
f 945/11/3 941/11/3 944/11/3
f 946/7/3 942/7/3 945/7/3
f 947/7/3 945/7/3 944/7/3
f 948/10/3 946/10/3 945/10/3
f 948/7/3 945/7/3 947/7/3
f 949/10/3 946/10/3 948/10/3
f 950/11/3 948/11/3 947/11/3
f 951/7/3 949/7/3 948/7/3
f 951/11/3 948/11/3 950/11/3
f 952/7/3 949/7/3 951/7/3
f 954/1/3 953/1/3 952/1/3
f 955/1/3 953/1/3 954/1/3
f 959/1/3 957/1/3 956/1/3
f 960/1/3 957/1/3 959/1/3
f 961/7/3 959/7/3 958/7/3
f 962/7/3 959/7/3 961/7/3
f 963/10/3 962/10/3 961/10/3
f 964/10/3 962/10/3 963/10/3
f 965/7/3 964/7/3 963/7/3
f 966/7/3 964/7/3 965/7/3
f 969/1/3 967/1/3 966/1/3
f 970/1/3 967/1/3 969/1/3
f 971/7/3 969/7/3 968/7/3
f 972/7/3 969/7/3 971/7/3
f 973/10/3 972/10/3 971/10/3
f 974/10/3 972/10/3 973/10/3
f 975/7/3 974/7/3 973/7/3
f 976/7/3 974/7/3 975/7/3
f 979/1/3 977/1/3 976/1/3
f 980/1/3 977/1/3 979/1/3
f 981/7/3 979/7/3 978/7/3
f 982/7/3 979/7/3 981/7/3
f 983/10/3 982/10/3 981/10/3
f 984/10/3 982/10/3 983/10/3
f 985/7/3 984/7/3 983/7/3
f 986/7/3 984/7/3 985/7/3
f 988/1/3 987/1/3 986/1/3
f 989/1/3 987/1/3 988/1/3
f 993/1/3 991/1/3 990/1/3
f 994/1/3 991/1/3 993/1/3
f 995/7/3 993/7/3 992/7/3
f 996/7/3 993/7/3 995/7/3
f 997/10/3 996/10/3 995/10/3
f 998/10/3 996/10/3 997/10/3
f 999/7/3 998/7/3 997/7/3
f 1000/7/3 998/7/3 999/7/3
f 1003/1/3 1001/1/3 1000/1/3
f 1004/1/3 1001/1/3 1003/1/3
f 1005/7/3 1003/7/3 1002/7/3
f 1006/7/3 1003/7/3 1005/7/3
f 1007/10/3 1006/10/3 1005/10/3
f 1008/10/3 1006/10/3 1007/10/3
f 1009/7/3 1008/7/3 1007/7/3
f 1010/7/3 1008/7/3 1009/7/3
f 1013/1/3 1011/1/3 1010/1/3
f 1014/1/3 1011/1/3 1013/1/3
f 1015/7/3 1013/7/3 1012/7/3
f 1016/7/3 1013/7/3 1015/7/3
f 1017/10/3 1016/10/3 1015/10/3
f 1018/10/3 1016/10/3 1017/10/3
f 1019/7/3 1018/7/3 1017/7/3
f 1020/7/3 1018/7/3 1019/7/3
f 1022/1/3 1021/1/3 1020/1/3
f 1023/1/3 1021/1/3 1022/1/3
f 1027/1/3 1025/1/3 1024/1/3
f 1028/1/3 1025/1/3 1027/1/3
f 1029/10/3 1027/10/3 1026/10/3
f 1030/10/3 1027/10/3 1029/10/3
f 1031/10/3 1027/10/3 1030/10/3
f 1032/10/3 1027/10/3 1031/10/3
f 1035/1/3 1033/1/3 1032/1/3
f 1036/1/3 1033/1/3 1035/1/3
f 1037/10/3 1035/10/3 1034/10/3
f 1038/10/3 1035/10/3 1037/10/3
f 1039/10/3 1035/10/3 1038/10/3
f 1040/10/3 1035/10/3 1039/10/3
f 1043/1/3 1041/1/3 1040/1/3
f 1044/1/3 1041/1/3 1043/1/3
f 1045/10/3 1043/10/3 1042/10/3
f 1046/10/3 1043/10/3 1045/10/3
f 1047/10/3 1043/10/3 1046/10/3
f 1049/1/3 1048/1/3 1047/1/3
f 1050/1/3 1048/1/3 1049/1/3
f 1053/4/3 1052/4/3 1051/4/3
f 1054/4/3 1052/4/3 1053/4/3
f 1057/4/3 1056/4/3 1055/4/3
f 1058/4/3 1056/4/3 1057/4/3
f 1061/4/3 1060/4/3 1059/4/3
f 1062/4/3 1060/4/3 1061/4/3
f 1065/4/3 1064/4/3 1063/4/3
f 1066/4/3 1064/4/3 1065/4/3
f 1069/4/3 1068/4/3 1067/4/3
f 1070/4/3 1068/4/3 1069/4/3
f 1073/4/3 1072/4/3 1071/4/3
f 1074/4/3 1072/4/3 1073/4/3
f 1078/3/3 1076/3/3 1075/3/3
f 1079/4/3 1077/4/3 1076/4/3
f 1079/3/3 1076/3/3 1078/3/3
f 1080/4/3 1077/4/3 1079/4/3
f 1084/3/3 1082/3/3 1081/3/3
f 1085/4/3 1083/4/3 1082/4/3
f 1085/3/3 1082/3/3 1084/3/3
f 1086/4/3 1083/4/3 1085/4/3
f 1092/4/3 1088/4/3 1087/4/3
f 1093/4/3 1088/4/3 1092/4/3
f 1094/3/3 1089/3/3 1088/3/3
f 1094/4/3 1088/4/3 1093/4/3
f 1095/3/3 1089/3/3 1094/3/3
f 1096/3/3 1091/3/3 1090/3/3
f 1097/3/3 1091/3/3 1096/3/3
f 1104/4/3 1099/4/3 1098/4/3
f 1104/4/3 1100/4/3 1099/4/3
f 1105/3/3 1101/3/3 1100/3/3
f 1105/4/3 1100/4/3 1104/4/3
f 1106/3/3 1101/3/3 1105/3/3
f 1107/3/3 1103/3/3 1102/3/3
f 1108/3/3 1103/3/3 1107/3/3
f 1109/4/4 1110/4/4 1114/4/4
f 1114/4/4 1110/4/4 1115/4/4
f 1110/3/4 1111/3/4 1116/3/4
f 1115/4/4 1110/4/4 1116/4/4
f 1116/3/4 1111/3/4 1117/3/4
f 1112/3/4 1113/3/4 1118/3/4
f 1118/3/4 1113/3/4 1119/3/4
f 1120/4/4 1121/4/4 1126/4/4
f 1121/4/4 1122/4/4 1126/4/4
f 1122/3/4 1123/3/4 1127/3/4
f 1126/4/4 1122/4/4 1127/4/4
f 1127/3/4 1123/3/4 1128/3/4
f 1124/3/4 1125/3/4 1129/3/4
f 1129/3/4 1125/3/4 1130/3/4
f 1131/3/4 1132/3/4 1134/3/4
f 1132/4/4 1133/4/4 1135/4/4
f 1134/3/4 1132/3/4 1135/3/4
f 1135/4/4 1133/4/4 1136/4/4
f 1137/3/4 1138/3/4 1140/3/4
f 1138/4/4 1139/4/4 1141/4/4
f 1140/3/4 1138/3/4 1141/3/4
f 1141/4/4 1139/4/4 1142/4/4
f 1143/4/4 1144/4/4 1145/4/4
f 1145/4/4 1144/4/4 1146/4/4
f 1147/4/4 1148/4/4 1149/4/4
f 1149/4/4 1148/4/4 1150/4/4
f 1151/4/4 1152/4/4 1153/4/4
f 1153/4/4 1152/4/4 1154/4/4
f 1155/4/4 1156/4/4 1157/4/4
f 1157/4/4 1156/4/4 1158/4/4
f 1159/4/4 1160/4/4 1161/4/4
f 1161/4/4 1160/4/4 1162/4/4
f 1163/4/4 1164/4/4 1165/4/4
f 1165/4/4 1164/4/4 1166/4/4
f 1167/1/4 1168/1/4 1170/1/4
f 1170/1/4 1168/1/4 1171/1/4
f 1169/10/4 1170/10/4 1172/10/4
f 1172/10/4 1170/10/4 1173/10/4
f 1173/10/4 1170/10/4 1174/10/4
f 1174/10/4 1170/10/4 1175/10/4
f 1175/1/4 1176/1/4 1178/1/4
f 1178/1/4 1176/1/4 1179/1/4
f 1177/10/4 1178/10/4 1180/10/4
f 1180/10/4 1178/10/4 1181/10/4
f 1181/10/4 1178/10/4 1182/10/4
f 1182/10/4 1178/10/4 1183/10/4
f 1183/1/4 1184/1/4 1186/1/4
f 1186/1/4 1184/1/4 1187/1/4
f 1185/10/4 1186/10/4 1188/10/4
f 1188/10/4 1186/10/4 1189/10/4
f 1189/10/4 1186/10/4 1190/10/4
f 1190/10/4 1186/10/4 1191/10/4
f 1191/1/4 1192/1/4 1193/1/4
f 1193/1/4 1192/1/4 1194/1/4
f 1195/1/4 1196/1/4 1198/1/4
f 1198/1/4 1196/1/4 1199/1/4
f 1197/7/4 1198/7/4 1200/7/4
f 1200/7/4 1198/7/4 1201/7/4
f 1200/10/4 1201/10/4 1202/10/4
f 1202/10/4 1201/10/4 1203/10/4
f 1202/7/4 1203/7/4 1204/7/4
f 1204/7/4 1203/7/4 1205/7/4
f 1205/1/4 1206/1/4 1208/1/4
f 1208/1/4 1206/1/4 1209/1/4
f 1207/7/4 1208/7/4 1210/7/4
f 1210/7/4 1208/7/4 1211/7/4
f 1210/10/4 1211/10/4 1212/10/4
f 1212/10/4 1211/10/4 1213/10/4
f 1212/7/4 1213/7/4 1214/7/4
f 1214/7/4 1213/7/4 1215/7/4
f 1215/1/4 1216/1/4 1218/1/4
f 1218/1/4 1216/1/4 1219/1/4
f 1217/7/4 1218/7/4 1220/7/4
f 1220/7/4 1218/7/4 1221/7/4
f 1220/10/4 1221/10/4 1222/10/4
f 1222/10/4 1221/10/4 1223/10/4
f 1222/7/4 1223/7/4 1224/7/4
f 1224/7/4 1223/7/4 1225/7/4
f 1225/1/4 1226/1/4 1227/1/4
f 1227/1/4 1226/1/4 1228/1/4
f 1229/1/4 1230/1/4 1232/1/4
f 1232/1/4 1230/1/4 1233/1/4
f 1231/7/4 1232/7/4 1234/7/4
f 1234/7/4 1232/7/4 1235/7/4
f 1234/10/4 1235/10/4 1236/10/4
f 1236/10/4 1235/10/4 1237/10/4
f 1236/7/4 1237/7/4 1238/7/4
f 1238/7/4 1237/7/4 1239/7/4
f 1239/1/4 1240/1/4 1242/1/4
f 1242/1/4 1240/1/4 1243/1/4
f 1241/7/4 1242/7/4 1244/7/4
f 1244/7/4 1242/7/4 1245/7/4
f 1244/10/4 1245/10/4 1246/10/4
f 1246/10/4 1245/10/4 1247/10/4
f 1246/7/4 1247/7/4 1248/7/4
f 1248/7/4 1247/7/4 1249/7/4
f 1249/1/4 1250/1/4 1252/1/4
f 1252/1/4 1250/1/4 1253/1/4
f 1251/7/4 1252/7/4 1254/7/4
f 1254/7/4 1252/7/4 1255/7/4
f 1254/10/4 1255/10/4 1256/10/4
f 1256/10/4 1255/10/4 1257/10/4
f 1256/7/4 1257/7/4 1258/7/4
f 1258/7/4 1257/7/4 1259/7/4
f 1259/1/4 1260/1/4 1261/1/4
f 1261/1/4 1260/1/4 1262/1/4
f 1263/1/4 1264/1/4 1267/1/4
f 1267/1/4 1264/1/4 1268/1/4
f 1265/11/4 1266/11/4 1269/11/4
f 1266/7/4 1267/7/4 1270/7/4
f 1269/11/4 1266/11/4 1270/11/4
f 1270/7/4 1267/7/4 1271/7/4
f 1269/7/4 1270/7/4 1272/7/4
f 1270/10/4 1271/10/4 1273/10/4
f 1272/7/4 1270/7/4 1273/7/4
f 1273/10/4 1271/10/4 1274/10/4
f 1272/11/4 1273/11/4 1275/11/4
f 1273/7/4 1274/7/4 1276/7/4
f 1275/11/4 1273/11/4 1276/11/4
f 1276/7/4 1274/7/4 1277/7/4
f 1277/1/4 1278/1/4 1281/1/4
f 1281/1/4 1278/1/4 1282/1/4
f 1279/11/4 1280/11/4 1283/11/4
f 1280/7/4 1281/7/4 1284/7/4
f 1283/11/4 1280/11/4 1284/11/4
f 1284/7/4 1281/7/4 1285/7/4
f 1283/7/4 1284/7/4 1286/7/4
f 1284/10/4 1285/10/4 1287/10/4
f 1286/7/4 1284/7/4 1287/7/4
f 1287/10/4 1285/10/4 1288/10/4
f 1286/11/4 1287/11/4 1289/11/4
f 1287/7/4 1288/7/4 1290/7/4
f 1289/11/4 1287/11/4 1290/11/4
f 1290/7/4 1288/7/4 1291/7/4
f 1291/1/4 1292/1/4 1295/1/4
f 1295/1/4 1292/1/4 1296/1/4
f 1293/11/4 1294/11/4 1297/11/4
f 1294/7/4 1295/7/4 1298/7/4
f 1297/11/4 1294/11/4 1298/11/4
f 1298/7/4 1295/7/4 1299/7/4
f 1297/7/4 1298/7/4 1300/7/4
f 1298/10/4 1299/10/4 1301/10/4
f 1300/7/4 1298/7/4 1301/7/4
f 1301/10/4 1299/10/4 1302/10/4
f 1300/11/4 1301/11/4 1303/11/4
f 1301/7/4 1302/7/4 1304/7/4
f 1303/11/4 1301/11/4 1304/11/4
f 1304/7/4 1302/7/4 1305/7/4
f 1305/1/4 1306/1/4 1307/1/4
f 1307/1/4 1306/1/4 1308/1/4
f 1309/4/4 1310/4/4 1318/4/4
f 1310/1/4 1311/1/4 1319/1/4
f 1318/4/4 1310/4/4 1319/4/4
f 1319/1/4 1311/1/4 1320/1/4
f 1312/11/4 1313/11/4 1321/11/4
f 1313/8/4 1314/8/4 1322/8/4
f 1321/11/4 1313/11/4 1322/11/4
f 1314/8/4 1315/8/4 1322/8/4
f 1322/8/4 1315/8/4 1323/8/4
f 1316/11/4 1317/11/4 1324/11/4
f 1317/11/4 1318/11/4 1324/11/4
f 1324/11/4 1318/11/4 1325/11/4
f 1321/7/4 1322/7/4 1326/7/4
f 1322/11/4 1323/11/4 1327/11/4
f 1326/7/4 1322/7/4 1327/7/4
f 1323/8/4 1315/8/4 1328/8/4
f 1327/11/4 1323/11/4 1328/11/4
f 1324/7/4 1325/7/4 1329/7/4
f 1329/7/4 1325/7/4 1330/7/4
f 1326/11/4 1327/11/4 1331/11/4
f 1327/8/4 1328/8/4 1332/8/4
f 1331/11/4 1327/11/4 1332/11/4
f 1332/8/4 1328/8/4 1333/8/4
f 1328/8/4 1315/8/4 1334/8/4
f 1333/8/4 1328/8/4 1334/8/4
f 1329/11/4 1330/11/4 1335/11/4
f 1335/11/4 1330/11/4 1336/11/4
f 1336/11/4 1330/11/4 1337/11/4
f 1337/4/4 1338/4/4 1346/4/4
f 1338/1/4 1339/1/4 1347/1/4
f 1346/4/4 1338/4/4 1347/4/4
f 1347/1/4 1339/1/4 1348/1/4
f 1340/11/4 1341/11/4 1349/11/4
f 1341/8/4 1342/8/4 1350/8/4
f 1349/11/4 1341/11/4 1350/11/4
f 1342/8/4 1343/8/4 1350/8/4
f 1350/8/4 1343/8/4 1351/8/4
f 1345/11/4 1346/11/4 1352/11/4
f 1344/11/4 1345/11/4 1352/11/4
f 1352/11/4 1346/11/4 1353/11/4
f 1349/7/4 1350/7/4 1354/7/4
f 1350/11/4 1351/11/4 1355/11/4
f 1354/7/4 1350/7/4 1355/7/4
f 1351/8/4 1343/8/4 1356/8/4
f 1355/11/4 1351/11/4 1356/11/4
f 1352/7/4 1353/7/4 1357/7/4
f 1357/7/4 1353/7/4 1358/7/4
f 1354/11/4 1355/11/4 1359/11/4
f 1355/8/4 1356/8/4 1360/8/4
f 1359/11/4 1355/11/4 1360/11/4
f 1360/8/4 1356/8/4 1361/8/4
f 1356/8/4 1343/8/4 1362/8/4
f 1361/8/4 1356/8/4 1362/8/4
f 1357/11/4 1358/11/4 1363/11/4
f 1363/11/4 1358/11/4 1364/11/4
f 1364/11/4 1358/11/4 1365/11/4
f 1365/4/4 1366/4/4 1374/4/4
f 1366/1/4 1367/1/4 1375/1/4
f 1374/4/4 1366/4/4 1375/4/4
f 1375/1/4 1367/1/4 1376/1/4
f 1368/11/4 1369/11/4 1377/11/4
f 1369/8/4 1370/8/4 1378/8/4
f 1377/11/4 1369/11/4 1378/11/4
f 1370/8/4 1371/8/4 1378/8/4
f 1378/8/4 1371/8/4 1379/8/4
f 1373/11/4 1374/11/4 1380/11/4
f 1372/11/4 1373/11/4 1380/11/4
f 1380/11/4 1374/11/4 1381/11/4
f 1377/7/4 1378/7/4 1382/7/4
f 1378/11/4 1379/11/4 1383/11/4
f 1382/7/4 1378/7/4 1383/7/4
f 1379/8/4 1371/8/4 1384/8/4
f 1383/11/4 1379/11/4 1384/11/4
f 1380/7/4 1381/7/4 1385/7/4
f 1385/7/4 1381/7/4 1386/7/4
f 1382/11/4 1383/11/4 1387/11/4
f 1383/8/4 1384/8/4 1388/8/4
f 1387/11/4 1383/11/4 1388/11/4
f 1388/8/4 1384/8/4 1389/8/4
f 1384/8/4 1371/8/4 1390/8/4
f 1389/8/4 1384/8/4 1390/8/4
f 1385/11/4 1386/11/4 1391/11/4
f 1391/11/4 1386/11/4 1392/11/4
f 1392/11/4 1386/11/4 1393/11/4
f 1393/4/4 1394/4/4 1396/4/4
f 1394/1/4 1395/1/4 1397/1/4
f 1396/4/4 1394/4/4 1397/4/4
f 1397/1/4 1395/1/4 1398/1/4
f 1399/3/4 1400/3/4 1405/3/4
f 1400/4/4 1401/4/4 1405/4/4
f 1401/3/4 1402/3/4 1406/3/4
f 1405/4/4 1401/4/4 1406/4/4
f 1402/4/4 1403/4/4 1407/4/4
f 1406/3/4 1402/3/4 1407/3/4
f 1407/4/4 1403/4/4 1408/4/4
f 1403/1/4 1404/1/4 1409/1/4
f 1408/4/4 1403/4/4 1409/4/4
f 1409/1/4 1404/1/4 1410/1/4
f 1399/3/4 1405/3/4 1411/3/4
f 1411/3/4 1405/3/4 1412/3/4
f 1407/4/4 1408/4/4 1413/4/4
f 1413/4/4 1408/4/4 1414/4/4
f 1411/4/4 1412/4/4 1415/4/4
f 1399/3/4 1411/3/4 1415/3/4
f 1415/4/4 1412/4/4 1416/4/4
f 1413/1/4 1414/1/4 1417/1/4
f 1407/4/4 1413/4/4 1417/4/4
f 1417/1/4 1414/1/4 1418/1/4
f 1415/3/4 1416/3/4 1419/3/4
f 1407/4/4 1417/4/4 1421/4/4
f 1417/4/4 1418/4/4 1421/4/4
f 1421/4/4 1418/4/4 1422/4/4
f 1419/4/4 1420/4/4 1425/4/4
f 1415/3/4 1419/3/4 1425/3/4
f 1420/3/4 1421/3/4 1426/3/4
f 1425/4/4 1420/4/4 1426/4/4
f 1421/4/4 1422/4/4 1427/4/4
f 1426/3/4 1421/3/4 1427/3/4
f 1422/4/4 1423/4/4 1427/4/4
f 1427/4/4 1423/4/4 1428/4/4
f 1423/1/4 1424/1/4 1429/1/4
f 1428/4/4 1423/4/4 1429/4/4
f 1429/1/4 1424/1/4 1430/1/4
f 1415/3/4 1425/3/4 1431/3/4
f 1399/3/4 1415/3/4 1431/3/4
f 1431/3/4 1425/3/4 1432/3/4
f 1427/4/4 1428/4/4 1433/4/4
f 1433/4/4 1428/4/4 1434/4/4
f 1431/4/4 1432/4/4 1435/4/4
f 1399/3/4 1431/3/4 1435/3/4
f 1435/4/4 1432/4/4 1436/4/4
f 1433/1/4 1434/1/4 1437/1/4
f 1427/4/4 1433/4/4 1437/4/4
f 1437/1/4 1434/1/4 1438/1/4
f 1435/3/4 1436/3/4 1439/3/4
f 1427/4/4 1437/4/4 1441/4/4
f 1437/4/4 1438/4/4 1441/4/4
f 1441/4/4 1438/4/4 1442/4/4
f 1439/4/4 1440/4/4 1445/4/4
f 1435/3/4 1439/3/4 1445/3/4
f 1440/3/4 1441/3/4 1446/3/4
f 1445/4/4 1440/4/4 1446/4/4
f 1441/4/4 1442/4/4 1447/4/4
f 1446/3/4 1441/3/4 1447/3/4
f 1442/4/4 1443/4/4 1447/4/4
f 1447/4/4 1443/4/4 1448/4/4
f 1443/1/4 1444/1/4 1449/1/4
f 1448/4/4 1443/4/4 1449/4/4
f 1449/1/4 1444/1/4 1450/1/4
f 1435/3/4 1445/3/4 1451/3/4
f 1399/3/4 1435/3/4 1451/3/4
f 1451/3/4 1445/3/4 1452/3/4
f 1447/4/4 1448/4/4 1453/4/4
f 1453/4/4 1448/4/4 1454/4/4
f 1451/4/4 1452/4/4 1455/4/4
f 1399/3/4 1451/3/4 1455/3/4
f 1455/4/4 1452/4/4 1456/4/4
f 1453/1/4 1454/1/4 1457/1/4
f 1447/4/4 1453/4/4 1457/4/4
f 1457/1/4 1454/1/4 1458/1/4
f 1455/3/4 1456/3/4 1459/3/4
f 1447/4/4 1457/4/4 1461/4/4
f 1457/4/4 1458/4/4 1461/4/4
f 1461/4/4 1458/4/4 1462/4/4
f 1399/3/4 1455/3/4 1465/3/4
f 1455/3/4 1459/3/4 1465/3/4
f 1459/4/4 1460/4/4 1466/4/4
f 1465/3/4 1459/3/4 1466/3/4
f 1460/3/4 1461/3/4 1467/3/4
f 1466/4/4 1460/4/4 1467/4/4
f 1461/4/4 1462/4/4 1468/4/4
f 1467/3/4 1461/3/4 1468/3/4
f 1462/4/4 1463/4/4 1468/4/4
f 1463/1/4 1464/1/4 1469/1/4
f 1468/4/4 1463/4/4 1469/4/4
f 1469/1/4 1464/1/4 1470/1/4
f 1473/3/5 1472/3/5 1471/3/5
f 1474/3/5 1472/3/5 1473/3/5
f 1475/3/5 1473/3/5 1471/3/5
f 1475/6/5 1474/6/5 1473/6/5
f 1476/3/5 1472/3/5 1474/3/5
f 1476/6/5 1474/6/5 1475/6/5
f 1477/3/5 1475/3/5 1471/3/5
f 1477/3/5 1476/3/5 1475/3/5
f 1478/3/5 1472/3/5 1476/3/5
f 1478/3/5 1476/3/5 1477/3/5
f 1481/3/5 1480/3/5 1479/3/5
f 1482/3/5 1480/3/5 1481/3/5
f 1487/3/5 1484/3/5 1483/3/5
f 1488/3/5 1484/3/5 1487/3/5
f 1489/3/5 1486/3/5 1485/3/5
f 1490/3/5 1486/3/5 1489/3/5
f 1501/4/5 1492/4/5 1491/4/5
f 1502/4/5 1492/4/5 1501/4/5
f 1503/4/5 1494/4/5 1493/4/5
f 1504/3/5 1495/3/5 1494/3/5
f 1504/4/5 1494/4/5 1503/4/5
f 1505/3/5 1495/3/5 1504/3/5
f 1506/3/5 1497/3/5 1496/3/5
f 1507/4/5 1498/4/5 1497/4/5
f 1507/3/5 1497/3/5 1506/3/5
f 1508/4/5 1498/4/5 1507/4/5
f 1509/4/5 1500/4/5 1499/4/5
f 1510/4/5 1500/4/5 1509/4/5
f 1515/3/5 1512/3/5 1511/3/5
f 1516/3/5 1512/3/5 1515/3/5
f 1517/3/5 1514/3/5 1513/3/5
f 1518/3/5 1514/3/5 1517/3/5
f 1525/4/5 1520/4/5 1519/4/5
f 1526/4/5 1520/4/5 1525/4/5
f 1527/4/5 1522/4/5 1521/4/5
f 1528/4/5 1522/4/5 1527/4/5
f 1529/4/5 1524/4/5 1523/4/5
f 1530/4/5 1524/4/5 1529/4/5
f 1533/4/5 1532/4/5 1531/4/5
f 1534/4/5 1532/4/5 1533/4/5
f 1535/12/5 1534/12/5 1533/12/5
f 1536/12/5 1534/12/5 1535/12/5
f 1541/3/5 1538/3/5 1537/3/5
f 1542/3/5 1538/3/5 1541/3/5
f 1543/3/5 1540/3/5 1539/3/5
f 1544/3/5 1540/3/5 1543/3/5
f 1549/3/5 1546/3/5 1545/3/5
f 1550/3/5 1546/3/5 1549/3/5
f 1551/3/5 1548/3/5 1547/3/5
f 1552/3/5 1548/3/5 1551/3/5
f 1557/4/5 1554/4/5 1553/4/5
f 1558/4/5 1554/4/5 1557/4/5
f 1559/4/5 1556/4/5 1555/4/5
f 1560/4/5 1556/4/5 1559/4/5
f 1565/4/5 1562/4/5 1561/4/5
f 1566/4/5 1562/4/5 1565/4/5
f 1567/4/5 1564/4/5 1563/4/5
f 1568/4/5 1564/4/5 1567/4/5
f 1573/4/5 1570/4/5 1569/4/5
f 1574/4/5 1570/4/5 1573/4/5
f 1575/4/5 1572/4/5 1571/4/5
f 1576/4/5 1572/4/5 1575/4/5
f 1581/4/5 1578/4/5 1577/4/5
f 1582/4/5 1578/4/5 1581/4/5
f 1583/4/5 1580/4/5 1579/4/5
f 1584/4/5 1580/4/5 1583/4/5
f 1589/4/5 1586/4/5 1585/4/5
f 1590/4/5 1586/4/5 1589/4/5
f 1591/4/5 1588/4/5 1587/4/5
f 1592/4/5 1588/4/5 1591/4/5
f 1597/4/5 1594/4/5 1593/4/5
f 1598/4/5 1594/4/5 1597/4/5
f 1599/4/5 1596/4/5 1595/4/5
f 1600/4/5 1596/4/5 1599/4/5
f 1605/1/5 1602/1/5 1601/1/5
f 1606/1/5 1602/1/5 1605/1/5
f 1607/1/5 1604/1/5 1603/1/5
f 1608/1/5 1604/1/5 1607/1/5
f 1609/3/6 1610/3/6 1621/3/6
f 1610/4/6 1611/4/6 1622/4/6
f 1621/3/6 1610/3/6 1622/3/6
f 1611/3/6 1612/3/6 1623/3/6
f 1622/4/6 1611/4/6 1623/4/6
f 1623/3/6 1612/3/6 1624/3/6
f 1613/3/6 1614/3/6 1625/3/6
f 1614/4/6 1615/4/6 1626/4/6
f 1625/3/6 1614/3/6 1626/3/6
f 1615/3/6 1616/3/6 1627/3/6
f 1626/4/6 1615/4/6 1627/4/6
f 1627/3/6 1616/3/6 1628/3/6
f 1617/3/6 1618/3/6 1629/3/6
f 1618/4/6 1619/4/6 1630/4/6
f 1629/3/6 1618/3/6 1630/3/6
f 1619/3/6 1620/3/6 1631/3/6
f 1630/4/6 1619/4/6 1631/4/6
f 1631/3/6 1620/3/6 1632/3/6
f 1633/3/6 1634/3/6 1637/3/6
f 1637/3/6 1634/3/6 1638/3/6
f 1635/3/6 1636/3/6 1639/3/6
f 1639/3/6 1636/3/6 1640/3/6
f 1637/4/6 1638/4/6 1641/4/6
f 1641/4/6 1638/4/6 1642/4/6
f 1639/4/6 1640/4/6 1643/4/6
f 1643/4/6 1640/4/6 1644/4/6
f 1641/3/6 1642/3/6 1645/3/6
f 1645/3/6 1642/3/6 1646/3/6
f 1643/3/6 1644/3/6 1647/3/6
f 1647/3/6 1644/3/6 1648/3/6
f 1649/3/6 1650/3/6 1661/3/6
f 1650/4/6 1651/4/6 1662/4/6
f 1661/3/6 1650/3/6 1662/3/6
f 1651/3/6 1652/3/6 1663/3/6
f 1662/4/6 1651/4/6 1663/4/6
f 1663/3/6 1652/3/6 1664/3/6
f 1653/3/6 1654/3/6 1665/3/6
f 1654/4/6 1655/4/6 1666/4/6
f 1665/3/6 1654/3/6 1666/3/6
f 1655/3/6 1656/3/6 1667/3/6
f 1666/4/6 1655/4/6 1667/4/6
f 1667/3/6 1656/3/6 1668/3/6
f 1657/3/6 1658/3/6 1669/3/6
f 1658/4/6 1659/4/6 1670/4/6
f 1669/3/6 1658/3/6 1670/3/6
f 1659/3/6 1660/3/6 1671/3/6
f 1670/4/6 1659/4/6 1671/4/6
f 1671/3/6 1660/3/6 1672/3/6
f 1673/3/6 1674/3/6 1675/3/6
f 1675/3/6 1674/3/6 1676/3/6
f 1675/12/6 1676/12/6 1677/12/6
f 1677/12/6 1676/12/6 1678/12/6
f 1679/4/6 1680/4/6 1697/4/6
f 1680/1/6 1681/1/6 1698/1/6
f 1697/4/6 1680/4/6 1698/4/6
f 1681/4/6 1682/4/6 1699/4/6
f 1698/1/6 1681/1/6 1699/1/6
f 1699/4/6 1682/4/6 1700/4/6
f 1683/4/6 1684/4/6 1701/4/6
f 1684/1/6 1685/1/6 1702/1/6
f 1701/4/6 1684/4/6 1702/4/6
f 1685/4/6 1686/4/6 1703/4/6
f 1702/1/6 1685/1/6 1703/1/6
f 1686/3/6 1687/3/6 1704/3/6
f 1703/4/6 1686/4/6 1704/4/6
f 1704/3/6 1687/3/6 1705/3/6
f 1688/3/6 1689/3/6 1706/3/6
f 1689/4/6 1690/4/6 1707/4/6
f 1706/3/6 1689/3/6 1707/3/6
f 1690/1/6 1691/1/6 1708/1/6
f 1707/4/6 1690/4/6 1708/4/6
f 1691/4/6 1692/4/6 1709/4/6
f 1708/1/6 1691/1/6 1709/1/6
f 1709/4/6 1692/4/6 1710/4/6
f 1693/4/6 1694/4/6 1711/4/6
f 1694/1/6 1695/1/6 1712/1/6
f 1711/4/6 1694/4/6 1712/4/6
f 1695/4/6 1696/4/6 1713/4/6
f 1712/1/6 1695/1/6 1713/1/6
f 1713/4/6 1696/4/6 1714/4/6
f 1715/4/6 1716/4/6 1719/4/6
f 1717/4/6 1718/4/6 1720/4/6
f 1715/4/6 1719/4/6 1721/4/6
f 1720/4/6 1718/4/6 1722/4/6
f 1715/4/6 1721/4/6 1723/4/6
f 1723/4/6 1721/4/6 1724/4/6
f 1722/4/6 1718/4/6 1725/4/6
f 1725/4/6 1718/4/6 1726/4/6
f 1727/4/6 1728/4/6 1739/4/6
f 1728/1/6 1729/1/6 1740/1/6
f 1739/4/6 1728/4/6 1740/4/6
f 1729/4/6 1730/4/6 1741/4/6
f 1740/1/6 1729/1/6 1741/1/6
f 1741/4/6 1730/4/6 1742/4/6
f 1731/4/6 1732/4/6 1743/4/6
f 1732/1/6 1733/1/6 1744/1/6
f 1743/4/6 1732/4/6 1744/4/6
f 1733/4/6 1734/4/6 1745/4/6
f 1744/1/6 1733/1/6 1745/1/6
f 1745/4/6 1734/4/6 1746/4/6
f 1735/4/6 1736/4/6 1747/4/6
f 1736/1/6 1737/1/6 1748/1/6
f 1747/4/6 1736/4/6 1748/4/6
f 1737/4/6 1738/4/6 1749/4/6
f 1748/1/6 1737/1/6 1749/1/6
f 1749/4/6 1738/4/6 1750/4/6
f 1751/1/6 1752/1/6 1755/1/6
f 1755/1/6 1752/1/6 1756/1/6
f 1753/1/6 1754/1/6 1757/1/6
f 1757/1/6 1754/1/6 1758/1/6
f 1759/1/6 1760/1/6 1761/1/6
f 1761/1/6 1760/1/6 1762/1/6
f 1763/1/6 1764/1/6 1771/1/6
f 1771/1/6 1764/1/6 1772/1/6
f 1765/1/6 1766/1/6 1775/1/6
f 1775/1/6 1766/1/6 1776/1/6
f 1767/1/6 1768/1/6 1779/1/6
f 1779/1/6 1768/1/6 1780/1/6
f 1769/1/6 1770/1/6 1783/1/6
f 1783/1/6 1770/1/6 1784/1/6
f 1772/11/6 1773/11/6 1785/11/6
f 1773/7/6 1774/7/6 1786/7/6
f 1785/11/6 1773/11/6 1786/11/6
f 1774/11/6 1775/11/6 1787/11/6
f 1786/7/6 1774/7/6 1787/7/6
f 1787/11/6 1775/11/6 1788/11/6
f 1776/11/6 1777/11/6 1789/11/6
f 1777/7/6 1778/7/6 1790/7/6
f 1789/11/6 1777/11/6 1790/11/6
f 1778/11/6 1779/11/6 1791/11/6
f 1790/7/6 1778/7/6 1791/7/6
f 1791/11/6 1779/11/6 1792/11/6
f 1780/11/6 1781/11/6 1793/11/6
f 1781/7/6 1782/7/6 1794/7/6
f 1793/11/6 1781/11/6 1794/11/6
f 1782/11/6 1783/11/6 1795/11/6
f 1794/7/6 1782/7/6 1795/7/6
f 1795/11/6 1783/11/6 1796/11/6
f 1797/11/6 1798/11/6 1810/11/6
f 1798/7/6 1799/7/6 1811/7/6
f 1810/11/6 1798/11/6 1811/11/6
f 1799/11/6 1800/11/6 1812/11/6
f 1811/7/6 1799/7/6 1812/7/6
f 1812/11/6 1800/11/6 1813/11/6
f 1801/11/6 1802/11/6 1814/11/6
f 1802/7/6 1803/7/6 1815/7/6
f 1814/11/6 1802/11/6 1815/11/6
f 1803/11/6 1804/11/6 1816/11/6
f 1815/7/6 1803/7/6 1816/7/6
f 1816/11/6 1804/11/6 1817/11/6
f 1805/11/6 1806/11/6 1818/11/6
f 1806/7/6 1807/7/6 1819/7/6
f 1818/11/6 1806/11/6 1819/11/6
f 1807/11/6 1808/11/6 1820/11/6
f 1819/7/6 1807/7/6 1820/7/6
f 1820/11/6 1808/11/6 1821/11/6
f 1809/1/6 1810/1/6 1823/1/6
f 1823/1/6 1810/1/6 1824/1/6
f 1813/1/6 1814/1/6 1825/1/6
f 1825/1/6 1814/1/6 1826/1/6
f 1817/1/6 1818/1/6 1827/1/6
f 1827/1/6 1818/1/6 1828/1/6
f 1821/1/6 1822/1/6 1829/1/6
f 1829/1/6 1822/1/6 1830/1/6
f 1831/1/6 1832/1/6 1839/1/6
f 1839/1/6 1832/1/6 1840/1/6
f 1833/1/6 1834/1/6 1843/1/6
f 1843/1/6 1834/1/6 1844/1/6
f 1835/1/6 1836/1/6 1847/1/6
f 1847/1/6 1836/1/6 1848/1/6
f 1837/1/6 1838/1/6 1851/1/6
f 1851/1/6 1838/1/6 1852/1/6
f 1840/7/6 1841/7/6 1853/7/6
f 1841/10/6 1842/10/6 1854/10/6
f 1853/7/6 1841/7/6 1854/7/6
f 1842/7/6 1843/7/6 1855/7/6
f 1854/10/6 1842/10/6 1855/10/6
f 1855/7/6 1843/7/6 1856/7/6
f 1844/7/6 1845/7/6 1857/7/6
f 1845/10/6 1846/10/6 1858/10/6
f 1857/7/6 1845/7/6 1858/7/6
f 1846/7/6 1847/7/6 1859/7/6
f 1858/10/6 1846/10/6 1859/10/6
f 1859/7/6 1847/7/6 1860/7/6
f 1848/7/6 1849/7/6 1861/7/6
f 1849/10/6 1850/10/6 1862/10/6
f 1861/7/6 1849/7/6 1862/7/6
f 1850/7/6 1851/7/6 1863/7/6
f 1862/10/6 1850/10/6 1863/10/6
f 1863/7/6 1851/7/6 1864/7/6
f 1865/7/6 1866/7/6 1878/7/6
f 1866/10/6 1867/10/6 1879/10/6
f 1878/7/6 1866/7/6 1879/7/6
f 1867/7/6 1868/7/6 1880/7/6
f 1879/10/6 1867/10/6 1880/10/6
f 1880/7/6 1868/7/6 1881/7/6
f 1869/7/6 1870/7/6 1882/7/6
f 1870/10/6 1871/10/6 1883/10/6
f 1882/7/6 1870/7/6 1883/7/6
f 1871/7/6 1872/7/6 1884/7/6
f 1883/10/6 1871/10/6 1884/10/6
f 1884/7/6 1872/7/6 1885/7/6
f 1873/7/6 1874/7/6 1886/7/6
f 1874/10/6 1875/10/6 1887/10/6
f 1886/7/6 1874/7/6 1887/7/6
f 1875/7/6 1876/7/6 1888/7/6
f 1887/10/6 1875/10/6 1888/10/6
f 1888/7/6 1876/7/6 1889/7/6
f 1877/1/6 1878/1/6 1891/1/6
f 1891/1/6 1878/1/6 1892/1/6
f 1881/1/6 1882/1/6 1893/1/6
f 1893/1/6 1882/1/6 1894/1/6
f 1885/1/6 1886/1/6 1895/1/6
f 1895/1/6 1886/1/6 1896/1/6
f 1889/1/6 1890/1/6 1897/1/6
f 1897/1/6 1890/1/6 1898/1/6
f 1899/1/6 1900/1/6 1907/1/6
f 1907/1/6 1900/1/6 1908/1/6
f 1901/1/6 1902/1/6 1911/1/6
f 1911/1/6 1902/1/6 1912/1/6
f 1903/1/6 1904/1/6 1915/1/6
f 1915/1/6 1904/1/6 1916/1/6
f 1905/1/6 1906/1/6 1919/1/6
f 1919/1/6 1906/1/6 1920/1/6
f 1908/7/6 1909/7/6 1921/7/6
f 1909/10/6 1910/10/6 1922/10/6
f 1921/7/6 1909/7/6 1922/7/6
f 1910/7/6 1911/7/6 1923/7/6
f 1922/10/6 1910/10/6 1923/10/6
f 1923/7/6 1911/7/6 1924/7/6
f 1912/7/6 1913/7/6 1925/7/6
f 1913/10/6 1914/10/6 1926/10/6
f 1925/7/6 1913/7/6 1926/7/6
f 1914/7/6 1915/7/6 1927/7/6
f 1926/10/6 1914/10/6 1927/10/6
f 1927/7/6 1915/7/6 1928/7/6
f 1916/7/6 1917/7/6 1929/7/6
f 1917/10/6 1918/10/6 1930/10/6
f 1929/7/6 1917/7/6 1930/7/6
f 1918/7/6 1919/7/6 1931/7/6
f 1930/10/6 1918/10/6 1931/10/6
f 1931/7/6 1919/7/6 1932/7/6
f 1933/7/6 1934/7/6 1946/7/6
f 1934/10/6 1935/10/6 1947/10/6
f 1946/7/6 1934/7/6 1947/7/6
f 1935/7/6 1936/7/6 1948/7/6
f 1947/10/6 1935/10/6 1948/10/6
f 1948/7/6 1936/7/6 1949/7/6
f 1937/7/6 1938/7/6 1950/7/6
f 1938/10/6 1939/10/6 1951/10/6
f 1950/7/6 1938/7/6 1951/7/6
f 1939/7/6 1940/7/6 1952/7/6
f 1951/10/6 1939/10/6 1952/10/6
f 1952/7/6 1940/7/6 1953/7/6
f 1941/7/6 1942/7/6 1954/7/6
f 1942/10/6 1943/10/6 1955/10/6
f 1954/7/6 1942/7/6 1955/7/6
f 1943/7/6 1944/7/6 1956/7/6
f 1955/10/6 1943/10/6 1956/10/6
f 1956/7/6 1944/7/6 1957/7/6
f 1945/1/6 1946/1/6 1959/1/6
f 1959/1/6 1946/1/6 1960/1/6
f 1949/1/6 1950/1/6 1961/1/6
f 1961/1/6 1950/1/6 1962/1/6
f 1953/1/6 1954/1/6 1963/1/6
f 1963/1/6 1954/1/6 1964/1/6
f 1957/1/6 1958/1/6 1965/1/6
f 1965/1/6 1958/1/6 1966/1/6
f 1967/1/6 1968/1/6 1975/1/6
f 1975/1/6 1968/1/6 1976/1/6
f 1969/1/6 1970/1/6 1979/1/6
f 1979/1/6 1970/1/6 1980/1/6
f 1971/1/6 1972/1/6 1983/1/6
f 1983/1/6 1972/1/6 1984/1/6
f 1973/1/6 1974/1/6 1987/1/6
f 1987/1/6 1974/1/6 1988/1/6
f 1985/10/6 1986/10/6 1989/10/6
f 1986/7/6 1987/7/6 1989/7/6
f 1989/7/6 1987/7/6 1990/7/6
f 1976/7/6 1977/7/6 1991/7/6
f 1977/10/6 1978/10/6 1992/10/6
f 1991/7/6 1977/7/6 1992/7/6
f 1978/7/6 1979/7/6 1993/7/6
f 1992/10/6 1978/10/6 1993/10/6
f 1993/7/6 1979/7/6 1994/7/6
f 1980/7/6 1981/7/6 1995/7/6
f 1981/10/6 1982/10/6 1996/10/6
f 1995/7/6 1981/7/6 1996/7/6
f 1982/7/6 1983/7/6 1997/7/6
f 1996/10/6 1982/10/6 1997/10/6
f 1997/7/6 1983/7/6 1998/7/6
f 1984/7/6 1985/7/6 1999/7/6
f 1985/10/6 1989/10/6 2000/10/6
f 1999/7/6 1985/7/6 2000/7/6
f 1989/10/6 1990/10/6 2000/10/6
f 2000/10/6 1990/10/6 2001/10/6
f 2002/7/6 2003/7/6 2015/7/6
f 2003/10/6 2004/10/6 2016/10/6
f 2015/7/6 2003/7/6 2016/7/6
f 2004/7/6 2005/7/6 2017/7/6
f 2016/10/6 2004/10/6 2017/10/6
f 2017/7/6 2005/7/6 2018/7/6
f 2006/7/6 2007/7/6 2019/7/6
f 2007/10/6 2008/10/6 2020/10/6
f 2019/7/6 2007/7/6 2020/7/6
f 2008/7/6 2009/7/6 2021/7/6
f 2020/10/6 2008/10/6 2021/10/6
f 2021/7/6 2009/7/6 2022/7/6
f 2010/7/6 2011/7/6 2023/7/6
f 2011/10/6 2012/10/6 2024/10/6
f 2023/7/6 2011/7/6 2024/7/6
f 2012/7/6 2013/7/6 2025/7/6
f 2024/10/6 2012/10/6 2025/10/6
f 2025/7/6 2013/7/6 2026/7/6
f 2014/1/6 2015/1/6 2028/1/6
f 2028/1/6 2015/1/6 2029/1/6
f 2018/1/6 2019/1/6 2030/1/6
f 2030/1/6 2019/1/6 2031/1/6
f 2022/1/6 2023/1/6 2032/1/6
f 2032/1/6 2023/1/6 2033/1/6
f 2026/1/6 2027/1/6 2034/1/6
f 2034/1/6 2027/1/6 2035/1/6
f 2036/1/6 2037/1/6 2044/1/6
f 2044/1/6 2037/1/6 2045/1/6
f 2038/1/6 2039/1/6 2046/1/6
f 2046/1/6 2039/1/6 2047/1/6
f 2040/1/6 2041/1/6 2048/1/6
f 2048/1/6 2041/1/6 2049/1/6
f 2042/1/6 2043/1/6 2050/1/6
f 2050/1/6 2043/1/6 2051/1/6
f 2045/10/6 2046/10/6 2052/10/6
f 2052/10/6 2046/10/6 2053/10/6
f 2053/10/6 2046/10/6 2054/10/6
f 2054/10/6 2046/10/6 2055/10/6
f 2047/10/6 2048/10/6 2056/10/6
f 2056/10/6 2048/10/6 2057/10/6
f 2057/10/6 2048/10/6 2058/10/6
f 2058/10/6 2048/10/6 2059/10/6
f 2049/10/6 2050/10/6 2060/10/6
f 2060/10/6 2050/10/6 2061/10/6
f 2061/10/6 2050/10/6 2062/10/6
f 2062/10/6 2050/10/6 2063/10/6
f 2052/10/6 2053/10/6 2064/10/6
f 2053/9/6 2054/9/6 2065/9/6
f 2064/10/6 2053/10/6 2065/10/6
f 2054/10/6 2055/10/6 2066/10/6
f 2065/9/6 2054/9/6 2066/9/6
f 2066/10/6 2055/10/6 2067/10/6
f 2056/10/6 2057/10/6 2068/10/6
f 2057/9/6 2058/9/6 2069/9/6
f 2068/10/6 2057/10/6 2069/10/6
f 2058/10/6 2059/10/6 2070/10/6
f 2069/9/6 2058/9/6 2070/9/6
f 2070/10/6 2059/10/6 2071/10/6
f 2060/10/6 2061/10/6 2072/10/6
f 2061/9/6 2062/9/6 2073/9/6
f 2072/10/6 2061/10/6 2073/10/6
f 2062/10/6 2063/10/6 2074/10/6
f 2073/9/6 2062/9/6 2074/9/6
f 2074/10/6 2063/10/6 2075/10/6
f 2064/10/6 2065/10/6 2077/10/6
f 2066/10/6 2067/10/6 2077/10/6
f 2065/10/6 2066/10/6 2077/10/6
f 2077/10/6 2067/10/6 2078/10/6
f 2068/10/6 2069/10/6 2079/10/6
f 2070/10/6 2071/10/6 2079/10/6
f 2069/10/6 2070/10/6 2079/10/6
f 2079/10/6 2071/10/6 2080/10/6
f 2074/10/6 2075/10/6 2081/10/6
f 2072/10/6 2073/10/6 2081/10/6
f 2073/10/6 2074/10/6 2081/10/6
f 2081/10/6 2075/10/6 2082/10/6
f 2076/1/6 2077/1/6 2084/1/6
f 2084/1/6 2077/1/6 2085/1/6
f 2078/1/6 2079/1/6 2086/1/6
f 2086/1/6 2079/1/6 2087/1/6
f 2080/1/6 2081/1/6 2088/1/6
f 2088/1/6 2081/1/6 2089/1/6
f 2082/1/6 2083/1/6 2090/1/6
f 2090/1/6 2083/1/6 2091/1/6
f 2092/1/6 2093/1/6 2100/1/6
f 2100/1/6 2093/1/6 2101/1/6
f 2094/1/6 2095/1/6 2102/1/6
f 2102/1/6 2095/1/6 2103/1/6
f 2096/1/6 2097/1/6 2104/1/6
f 2104/1/6 2097/1/6 2105/1/6
f 2098/1/6 2099/1/6 2106/1/6
f 2106/1/6 2099/1/6 2107/1/6
f 2100/2/6 2101/2/6 2108/2/6
f 2108/2/6 2101/2/6 2109/2/6
f 2102/2/6 2103/2/6 2110/2/6
f 2110/2/6 2103/2/6 2111/2/6
f 2104/2/6 2105/2/6 2112/2/6
f 2112/2/6 2105/2/6 2113/2/6
f 2106/2/6 2107/2/6 2114/2/6
f 2114/2/6 2107/2/6 2115/2/6
f 2108/1/6 2109/1/6 2116/1/6
f 2116/1/6 2109/1/6 2117/1/6
f 2110/1/6 2111/1/6 2118/1/6
f 2118/1/6 2111/1/6 2119/1/6
f 2112/1/6 2113/1/6 2120/1/6
f 2120/1/6 2113/1/6 2121/1/6
f 2114/1/6 2115/1/6 2122/1/6
f 2122/1/6 2115/1/6 2123/1/6
