# MagicaVoxel @ Ephtracy

# group
o 

# material
mtllib OpenChest.mtl
usemtl palette

# normals
vn -1 0 0
vn 1 0 0
vn 0 0 1
vn 0 0 -1
vn 0 -1 0
vn 0 1 0

# texcoords
vt 0.0175781 0.5
vt 0.0214844 0.5
vt 0.0410156 0.5
vt 0.0449219 0.5
vt 0.306641 0.5
vt 0.369141 0.5
vt 0.794922 0.5
vt 0.818359 0.5
vt 0.896484 0.5
vt 0.900391 0.5
vt 0.904297 0.5
vt 0.994141 0.5

# verts
v -2 0 1.5
v -2 0 -0.5
v -2 0.1 1.2
v -2 0.1 -0.2
v -2 0.2 1.5
v -2 0.2 1.3
v -2 0.2 1.2
v -2 0.2 -0.2
v -2 0.2 -0.3
v -2 0.2 -0.5
v -2 0.7 1.5
v -2 0.7 1.3
v -2 0.7 -0.3
v -2 0.7 -0.5
v -2 0.9 1.5
v -2 0.9 1.3
v -2 0.9 -0.3
v -2 0.9 -0.5
v -2 1 1.5
v -2 1 1.3
v -2 1 -0.3
v -2 1 -0.5
v -2 1 -0.8
v -2 1 -0.9
v -2 1.1 -0.6
v -2 1.1 -0.8
v -2 1.1 -0.9
v -2 1.1 -1
v -2 1.1 -1.1
v -2 1.2 -0.6
v -2 1.2 -0.8
v -2 1.2 -0.9
v -2 1.2 -1
v -2 1.2 -1.1
v -2 1.2 -1.2
v -2 1.3 -0.8
v -2 1.3 -0.9
v -2 1.3 -1
v -2 1.3 -1.1
v -2 1.3 -1.2
v -2 1.3 -1.3
v -2 1.4 -1
v -2 1.4 -1.1
v -2 1.4 -1.3
v -2 1.4 -1.4
v -2 1.5 -1.1
v -2 1.5 -1.2
v -2 1.5 -1.3
v -2 1.6 -1.4
v -2 1.6 -1.5
v -2 1.7 -1.2
v -2 1.7 -1.3
v -2 1.7 -1.4
v -2 1.7 -1.5
v -2 2.3 -1.2
v -2 2.3 -1.3
v -2 2.3 -1.4
v -2 2.3 -1.5
v -2 2.4 -1.4
v -2 2.4 -1.5
v -2 2.5 -1.1
v -2 2.5 -1.2
v -2 2.5 -1.3
v -2 2.6 -1
v -2 2.6 -1.1
v -2 2.6 -1.3
v -2 2.6 -1.4
v -2 2.7 -0.8
v -2 2.7 -0.9
v -2 2.7 -1
v -2 2.7 -1.1
v -2 2.7 -1.2
v -2 2.7 -1.3
v -2 2.8 -0.6
v -2 2.8 -0.8
v -2 2.8 -0.9
v -2 2.8 -1
v -2 2.8 -1.1
v -2 2.8 -1.2
v -2 2.9 -0.6
v -2 2.9 -0.8
v -2 2.9 -0.9
v -2 2.9 -1
v -2 2.9 -1.1
v -2 3 -0.5
v -2 3 -0.8
v -2 3 -0.9
v -1.9 0.2 1.3
v -1.9 0.2 1.2
v -1.9 0.2 -0.2
v -1.9 0.2 -0.3
v -1.9 0.6 1.3
v -1.9 0.6 1.2
v -1.9 0.6 -0.2
v -1.9 0.6 -0.3
v -1.9 0.7 1.3
v -1.9 0.7 -0.3
v -1.9 0.8 1.2
v -1.9 0.8 -0.2
v -1.9 0.9 1.3
v -1.9 0.9 -0.3
v -1.9 1.2 -0.6
v -1.9 1.2 -0.8
v -1.9 1.3 -0.8
v -1.9 1.3 -0.9
v -1.9 1.3 -1
v -1.9 1.4 -0.6
v -1.9 1.4 -0.8
v -1.9 1.4 -1
v -1.9 1.4 -1.1
v -1.9 1.5 -0.8
v -1.9 1.5 -0.9
v -1.9 1.5 -1.1
v -1.9 1.5 -1.2
v -1.9 1.6 -0.9
v -1.9 1.6 -1
v -1.9 1.7 -1
v -1.9 1.7 -1.1
v -1.9 1.7 -1.2
v -1.9 1.7 -1.3
v -1.9 2.3 -1
v -1.9 2.3 -1.1
v -1.9 2.3 -1.2
v -1.9 2.3 -1.3
v -1.9 2.4 -0.9
v -1.9 2.4 -1
v -1.9 2.5 -0.8
v -1.9 2.5 -0.9
v -1.9 2.5 -1.1
v -1.9 2.5 -1.2
v -1.9 2.6 -0.6
v -1.9 2.6 -0.8
v -1.9 2.6 -1
v -1.9 2.6 -1.1
v -1.9 2.7 -0.8
v -1.9 2.7 -0.9
v -1.9 2.7 -1
v -1.9 2.8 -0.6
v -1.9 2.8 -0.8
v -1.1 0.2 1.5
v -1.1 0.2 1.4
v -1.1 0.2 -0.4
v -1.1 0.2 -0.5
v -1.1 0.6 1.4
v -1.1 0.6 -0.4
v -1.1 0.7 1.5
v -1.1 0.7 1.4
v -1.1 0.7 -0.4
v -1.1 0.7 -0.5
v -1.1 0.9 1.5
v -1.1 0.9 1.4
v -1.1 0.9 -0.4
v -1.1 0.9 -0.5
v -1.1 1 -0.6
v -1.1 1 -0.8
v -1.1 1 -0.9
v -1.1 1.1 -0.6
v -1.1 1.1 -0.8
v -1.1 1.1 -0.9
v -1.1 1.1 -1
v -1.1 1.1 -1.1
v -1.1 1.2 -0.9
v -1.1 1.2 -1
v -1.1 1.2 -1.1
v -1.1 1.2 -1.2
v -1.1 1.3 -1.1
v -1.1 1.3 -1.2
v -1.1 1.3 -1.3
v -1.1 1.4 -1.2
v -1.1 1.4 -1.3
v -1.1 1.4 -1.4
v -1.1 1.6 -1.3
v -1.1 1.6 -1.4
v -1.1 1.6 -1.5
v -1.1 1.7 -1.4
v -1.1 1.7 -1.5
v -1.1 2.3 -1.4
v -1.1 2.3 -1.5
v -1.1 2.4 -1.3
v -1.1 2.4 -1.4
v -1.1 2.4 -1.5
v -1.1 2.6 -1.2
v -1.1 2.6 -1.3
v -1.1 2.6 -1.4
v -1.1 2.7 -1.1
v -1.1 2.7 -1.2
v -1.1 2.7 -1.3
v -1.1 2.8 -0.9
v -1.1 2.8 -1
v -1.1 2.8 -1.1
v -1.1 2.8 -1.2
v -1.1 2.9 -0.6
v -1.1 2.9 -0.8
v -1.1 2.9 -0.9
v -1.1 2.9 -1
v -1.1 2.9 -1.1
v -1.1 3 -0.6
v -1.1 3 -0.8
v -1.1 3 -0.9
v -0.2 0.7 1.5
v -0.2 0.7 1.4
v -0.2 0.9 1.5
v -0.2 0.9 1.4
v -0.2 1 1.5
v -0.2 1 1.4
v -0.2 1.1 1.5
v -0.2 1.1 1.4
v -0.2 1.2 1.5
v -0.2 1.2 1.4
v -0.0999999 0.6 1.5
v -0.0999999 0.6 1.4
v -0.0999999 0.7 1.5
v -0.0999999 0.7 1.4
v -0.0999999 1.2 1.5
v -0.0999999 1.2 1.4
v -0.0999999 1.3 1.5
v -0.0999999 1.3 1.4
v 0.1 0.9 1.5
v 0.1 0.9 1.4
v 0.1 0.9 1.3
v 0.1 1 1.5
v 0.1 1 1.4
v 0.1 1 1.3
v 0.9 0.2 1.5
v 0.9 0.2 1.4
v 0.9 0.2 -0.4
v 0.9 0.2 -0.5
v 0.9 0.6 1.4
v 0.9 0.6 -0.4
v 0.9 0.7 1.5
v 0.9 0.7 1.4
v 0.9 0.7 -0.4
v 0.9 0.7 -0.5
v 0.9 0.9 1.5
v 0.9 0.9 1.4
v 0.9 0.9 -0.4
v 0.9 0.9 -0.5
v 0.9 1 -0.6
v 0.9 1 -0.8
v 0.9 1 -0.9
v 0.9 1.1 -0.6
v 0.9 1.1 -0.8
v 0.9 1.1 -0.9
v 0.9 1.1 -1
v 0.9 1.1 -1.1
v 0.9 1.2 -0.9
v 0.9 1.2 -1
v 0.9 1.2 -1.1
v 0.9 1.2 -1.2
v 0.9 1.3 -1.1
v 0.9 1.3 -1.2
v 0.9 1.3 -1.3
v 0.9 1.4 -1.2
v 0.9 1.4 -1.3
v 0.9 1.4 -1.4
v 0.9 1.6 -1.3
v 0.9 1.6 -1.4
v 0.9 1.6 -1.5
v 0.9 1.7 -1.4
v 0.9 1.7 -1.5
v 0.9 2.3 -1.4
v 0.9 2.3 -1.5
v 0.9 2.4 -1.3
v 0.9 2.4 -1.4
v 0.9 2.4 -1.5
v 0.9 2.6 -1.2
v 0.9 2.6 -1.3
v 0.9 2.6 -1.4
v 0.9 2.7 -1.1
v 0.9 2.7 -1.2
v 0.9 2.7 -1.3
v 0.9 2.8 -0.9
v 0.9 2.8 -1
v 0.9 2.8 -1.1
v 0.9 2.8 -1.2
v 0.9 2.9 -0.6
v 0.9 2.9 -0.8
v 0.9 2.9 -0.9
v 0.9 2.9 -1
v 0.9 2.9 -1.1
v 0.9 3 -0.6
v 0.9 3 -0.8
v 0.9 3 -0.9
v 1.7 0.2 1.5
v 1.7 0.2 1.4
v 1.7 0.2 -0.4
v 1.7 0.2 -0.5
v 1.7 0.3 1.2
v 1.7 0.3 -0.2
v 1.7 0.6 1.4
v 1.7 0.6 -0.4
v 1.7 0.7 1.5
v 1.7 0.7 1.4
v 1.7 0.7 -0.4
v 1.7 0.7 -0.5
v 1.7 0.9 1.5
v 1.7 0.9 1.4
v 1.7 0.9 -0.4
v 1.7 0.9 -0.5
v 1.7 1 1.2
v 1.7 1 -0.2
v 1.7 1 -0.6
v 1.7 1 -0.8
v 1.7 1 -0.9
v 1.7 1.1 -0.6
v 1.7 1.1 -0.8
v 1.7 1.1 -0.9
v 1.7 1.1 -1
v 1.7 1.1 -1.1
v 1.7 1.2 -0.9
v 1.7 1.2 -1
v 1.7 1.2 -1.1
v 1.7 1.2 -1.2
v 1.7 1.3 -0.5
v 1.7 1.3 -0.8
v 1.7 1.3 -0.9
v 1.7 1.3 -1
v 1.7 1.3 -1.1
v 1.7 1.3 -1.2
v 1.7 1.3 -1.3
v 1.7 1.4 -1.2
v 1.7 1.4 -1.3
v 1.7 1.4 -1.4
v 1.7 1.6 -1
v 1.7 1.6 -1.3
v 1.7 1.6 -1.4
v 1.7 1.6 -1.5
v 1.7 1.7 -1.4
v 1.7 1.7 -1.5
v 1.7 2.3 -1.4
v 1.7 2.3 -1.5
v 1.7 2.4 -1.3
v 1.7 2.4 -1.4
v 1.7 2.4 -1.5
v 1.7 2.5 -1
v 1.7 2.5 -1.3
v 1.7 2.6 -1.2
v 1.7 2.6 -1.3
v 1.7 2.6 -1.4
v 1.7 2.7 -0.5
v 1.7 2.7 -0.8
v 1.7 2.7 -0.9
v 1.7 2.7 -1
v 1.7 2.7 -1.1
v 1.7 2.7 -1.2
v 1.7 2.7 -1.3
v 1.7 2.8 -0.9
v 1.7 2.8 -1
v 1.7 2.8 -1.1
v 1.7 2.8 -1.2
v 1.7 2.9 -0.6
v 1.7 2.9 -0.8
v 1.7 2.9 -0.9
v 1.7 2.9 -1
v 1.7 2.9 -1.1
v 1.7 3 -0.6
v 1.7 3 -0.8
v 1.7 3 -0.9
v -1.7 0.2 1.5
v -1.7 0.2 1.4
v -1.7 0.2 -0.4
v -1.7 0.2 -0.5
v -1.7 0.3 1.2
v -1.7 0.3 -0.2
v -1.7 0.6 1.4
v -1.7 0.6 -0.4
v -1.7 0.7 1.5
v -1.7 0.7 1.4
v -1.7 0.7 -0.4
v -1.7 0.7 -0.5
v -1.7 0.9 1.5
v -1.7 0.9 1.4
v -1.7 0.9 -0.4
v -1.7 0.9 -0.5
v -1.7 1 1.2
v -1.7 1 -0.2
v -1.7 1 -0.6
v -1.7 1 -0.8
v -1.7 1 -0.9
v -1.7 1.1 -0.6
v -1.7 1.1 -0.8
v -1.7 1.1 -0.9
v -1.7 1.1 -1
v -1.7 1.1 -1.1
v -1.7 1.2 -0.9
v -1.7 1.2 -1
v -1.7 1.2 -1.1
v -1.7 1.2 -1.2
v -1.7 1.3 -0.5
v -1.7 1.3 -0.8
v -1.7 1.3 -1.1
v -1.7 1.3 -1.2
v -1.7 1.3 -1.3
v -1.7 1.4 -1.2
v -1.7 1.4 -1.3
v -1.7 1.4 -1.4
v -1.7 1.6 -1.3
v -1.7 1.6 -1.4
v -1.7 1.6 -1.5
v -1.7 1.7 -1.4
v -1.7 1.7 -1.5
v -1.7 2.3 -1.4
v -1.7 2.3 -1.5
v -1.7 2.4 -1.3
v -1.7 2.4 -1.4
v -1.7 2.4 -1.5
v -1.7 2.6 -1.2
v -1.7 2.6 -1.3
v -1.7 2.6 -1.4
v -1.7 2.7 -0.5
v -1.7 2.7 -0.8
v -1.7 2.7 -1.1
v -1.7 2.7 -1.2
v -1.7 2.7 -1.3
v -1.7 2.8 -0.9
v -1.7 2.8 -1
v -1.7 2.8 -1.1
v -1.7 2.8 -1.2
v -1.7 2.9 -0.6
v -1.7 2.9 -0.8
v -1.7 2.9 -0.9
v -1.7 2.9 -1
v -1.7 2.9 -1.1
v -1.7 3 -0.6
v -1.7 3 -0.8
v -1.7 3 -0.9
v -0.9 0.2 1.5
v -0.9 0.2 1.4
v -0.9 0.2 -0.4
v -0.9 0.2 -0.5
v -0.9 0.6 1.4
v -0.9 0.6 -0.4
v -0.9 0.7 1.5
v -0.9 0.7 1.4
v -0.9 0.7 -0.4
v -0.9 0.7 -0.5
v -0.9 0.9 1.5
v -0.9 0.9 1.4
v -0.9 0.9 -0.4
v -0.9 0.9 -0.5
v -0.9 1 -0.6
v -0.9 1 -0.8
v -0.9 1 -0.9
v -0.9 1.1 -0.6
v -0.9 1.1 -0.8
v -0.9 1.1 -0.9
v -0.9 1.1 -1
v -0.9 1.1 -1.1
v -0.9 1.2 -0.9
v -0.9 1.2 -1
v -0.9 1.2 -1.1
v -0.9 1.2 -1.2
v -0.9 1.3 -1.1
v -0.9 1.3 -1.2
v -0.9 1.3 -1.3
v -0.9 1.4 -1.2
v -0.9 1.4 -1.3
v -0.9 1.4 -1.4
v -0.9 1.6 -1.3
v -0.9 1.6 -1.4
v -0.9 1.6 -1.5
v -0.9 1.7 -1.4
v -0.9 1.7 -1.5
v -0.9 2.3 -1.4
v -0.9 2.3 -1.5
v -0.9 2.4 -1.3
v -0.9 2.4 -1.4
v -0.9 2.4 -1.5
v -0.9 2.6 -1.2
v -0.9 2.6 -1.3
v -0.9 2.6 -1.4
v -0.9 2.7 -1.1
v -0.9 2.7 -1.2
v -0.9 2.7 -1.3
v -0.9 2.8 -0.9
v -0.9 2.8 -1
v -0.9 2.8 -1.1
v -0.9 2.8 -1.2
v -0.9 2.9 -0.6
v -0.9 2.9 -0.8
v -0.9 2.9 -0.9
v -0.9 2.9 -1
v -0.9 2.9 -1.1
v -0.9 3 -0.6
v -0.9 3 -0.8
v -0.9 3 -0.9
v -0.0999999 0.9 1.5
v -0.0999999 0.9 1.4
v -0.0999999 0.9 1.3
v -0.0999999 1 1.5
v -0.0999999 1 1.4
v -0.0999999 1 1.3
v 0.1 0.6 1.5
v 0.1 0.6 1.4
v 0.1 0.7 1.5
v 0.1 0.7 1.4
v 0.1 1.2 1.5
v 0.1 1.2 1.4
v 0.1 1.3 1.5
v 0.1 1.3 1.4
v 0.2 0.7 1.5
v 0.2 0.7 1.4
v 0.2 0.9 1.5
v 0.2 0.9 1.4
v 0.2 1 1.5
v 0.2 1 1.4
v 0.2 1.1 1.5
v 0.2 1.1 1.4
v 0.2 1.2 1.5
v 0.2 1.2 1.4
v 1.1 0.2 1.5
v 1.1 0.2 1.4
v 1.1 0.2 -0.4
v 1.1 0.2 -0.5
v 1.1 0.6 1.4
v 1.1 0.6 -0.4
v 1.1 0.7 1.5
v 1.1 0.7 1.4
v 1.1 0.7 -0.4
v 1.1 0.7 -0.5
v 1.1 0.9 1.5
v 1.1 0.9 1.4
v 1.1 0.9 -0.4
v 1.1 0.9 -0.5
v 1.1 1 -0.6
v 1.1 1 -0.8
v 1.1 1 -0.9
v 1.1 1.1 -0.6
v 1.1 1.1 -0.8
v 1.1 1.1 -0.9
v 1.1 1.1 -1
v 1.1 1.1 -1.1
v 1.1 1.2 -0.9
v 1.1 1.2 -1
v 1.1 1.2 -1.1
v 1.1 1.2 -1.2
v 1.1 1.3 -1.1
v 1.1 1.3 -1.2
v 1.1 1.3 -1.3
v 1.1 1.4 -1.2
v 1.1 1.4 -1.3
v 1.1 1.4 -1.4
v 1.1 1.6 -1.3
v 1.1 1.6 -1.4
v 1.1 1.6 -1.5
v 1.1 1.7 -1.4
v 1.1 1.7 -1.5
v 1.1 2.3 -1.4
v 1.1 2.3 -1.5
v 1.1 2.4 -1.3
v 1.1 2.4 -1.4
v 1.1 2.4 -1.5
v 1.1 2.6 -1.2
v 1.1 2.6 -1.3
v 1.1 2.6 -1.4
v 1.1 2.7 -1.1
v 1.1 2.7 -1.2
v 1.1 2.7 -1.3
v 1.1 2.8 -0.9
v 1.1 2.8 -1
v 1.1 2.8 -1.1
v 1.1 2.8 -1.2
v 1.1 2.9 -0.6
v 1.1 2.9 -0.8
v 1.1 2.9 -0.9
v 1.1 2.9 -1
v 1.1 2.9 -1.1
v 1.1 3 -0.6
v 1.1 3 -0.8
v 1.1 3 -0.9
v 1.6 1.3 -0.9
v 1.6 1.3 -1
v 1.6 1.6 -1
v 1.6 2.5 -1
v 1.6 2.7 -0.9
v 1.6 2.7 -1
v 1.9 0.2 1.3
v 1.9 0.2 1.2
v 1.9 0.2 -0.2
v 1.9 0.2 -0.3
v 1.9 0.6 1.3
v 1.9 0.6 1.2
v 1.9 0.6 -0.2
v 1.9 0.6 -0.3
v 1.9 0.7 1.3
v 1.9 0.7 -0.3
v 1.9 0.8 1.2
v 1.9 0.8 -0.2
v 1.9 0.9 1.3
v 1.9 0.9 -0.3
v 1.9 1.2 -0.6
v 1.9 1.2 -0.8
v 1.9 1.3 -0.8
v 1.9 1.3 -0.9
v 1.9 1.3 -1
v 1.9 1.4 -0.6
v 1.9 1.4 -0.8
v 1.9 1.4 -1
v 1.9 1.4 -1.1
v 1.9 1.5 -0.8
v 1.9 1.5 -0.9
v 1.9 1.5 -1.1
v 1.9 1.5 -1.2
v 1.9 1.6 -0.9
v 1.9 1.6 -1
v 1.9 1.7 -1
v 1.9 1.7 -1.1
v 1.9 1.7 -1.2
v 1.9 1.7 -1.3
v 1.9 2.3 -1
v 1.9 2.3 -1.1
v 1.9 2.3 -1.2
v 1.9 2.3 -1.3
v 1.9 2.4 -0.9
v 1.9 2.4 -1
v 1.9 2.5 -0.8
v 1.9 2.5 -0.9
v 1.9 2.5 -1.1
v 1.9 2.5 -1.2
v 1.9 2.6 -0.6
v 1.9 2.6 -0.8
v 1.9 2.6 -1
v 1.9 2.6 -1.1
v 1.9 2.7 -0.8
v 1.9 2.7 -0.9
v 1.9 2.7 -1
v 1.9 2.8 -0.6
v 1.9 2.8 -0.8
v 2 0 1.5
v 2 0 -0.5
v 2 0.1 1.2
v 2 0.1 -0.2
v 2 0.2 1.5
v 2 0.2 1.3
v 2 0.2 1.2
v 2 0.2 -0.2
v 2 0.2 -0.3
v 2 0.2 -0.5
v 2 0.7 1.5
v 2 0.7 1.3
v 2 0.7 -0.3
v 2 0.7 -0.5
v 2 0.9 1.5
v 2 0.9 1.3
v 2 0.9 -0.3
v 2 0.9 -0.5
v 2 1 1.5
v 2 1 1.3
v 2 1 -0.3
v 2 1 -0.5
v 2 1 -0.8
v 2 1 -0.9
v 2 1.1 -0.6
v 2 1.1 -0.8
v 2 1.1 -0.9
v 2 1.1 -1
v 2 1.1 -1.1
v 2 1.2 -0.6
v 2 1.2 -0.8
v 2 1.2 -0.9
v 2 1.2 -1
v 2 1.2 -1.1
v 2 1.2 -1.2
v 2 1.3 -0.8
v 2 1.3 -0.9
v 2 1.3 -1
v 2 1.3 -1.1
v 2 1.3 -1.2
v 2 1.3 -1.3
v 2 1.4 -1
v 2 1.4 -1.1
v 2 1.4 -1.3
v 2 1.4 -1.4
v 2 1.5 -1.1
v 2 1.5 -1.2
v 2 1.5 -1.3
v 2 1.6 -1.4
v 2 1.6 -1.5
v 2 1.7 -1.2
v 2 1.7 -1.3
v 2 1.7 -1.4
v 2 1.7 -1.5
v 2 2.3 -1.2
v 2 2.3 -1.3
v 2 2.3 -1.4
v 2 2.3 -1.5
v 2 2.4 -1.4
v 2 2.4 -1.5
v 2 2.5 -1.1
v 2 2.5 -1.2
v 2 2.5 -1.3
v 2 2.6 -1
v 2 2.6 -1.1
v 2 2.6 -1.3
v 2 2.6 -1.4
v 2 2.7 -0.8
v 2 2.7 -0.9
v 2 2.7 -1
v 2 2.7 -1.1
v 2 2.7 -1.2
v 2 2.7 -1.3
v 2 2.8 -0.6
v 2 2.8 -0.8
v 2 2.8 -0.9
v 2 2.8 -1
v 2 2.8 -1.1
v 2 2.8 -1.2
v 2 2.9 -0.6
v 2 2.9 -0.8
v 2 2.9 -0.9
v 2 2.9 -1
v 2 2.9 -1.1
v 2 3 -0.5
v 2 3 -0.8
v 2 3 -0.9
v -2 0 1.5
v -2 0.2 1.5
v -2 0.7 1.5
v -2 0.9 1.5
v -2 1 1.5
v -1.7 0.2 1.5
v -1.7 0.7 1.5
v -1.7 0.9 1.5
v -1.6 0.1 1.5
v -1.6 0.2 1.5
v -1.2 0.1 1.5
v -1.2 0.2 1.5
v -1.1 0.2 1.5
v -1.1 0.7 1.5
v -1.1 0.9 1.5
v -0.9 0.2 1.5
v -0.9 0.7 1.5
v -0.9 0.9 1.5
v -0.8 0.1 1.5
v -0.8 0.2 1.5
v -0.3 0.9 1.5
v -0.3 1 1.5
v -0.2 0.7 1.5
v -0.2 0.9 1.5
v -0.2 1 1.5
v -0.2 1.1 1.5
v -0.2 1.2 1.5
v -0.0999999 0.6 1.5
v -0.0999999 0.7 1.5
v -0.0999999 0.9 1.5
v -0.0999999 1 1.5
v -0.0999999 1.1 1.5
v -0.0999999 1.2 1.5
v -0.0999999 1.3 1.5
v 0.1 0.6 1.5
v 0.1 0.7 1.5
v 0.1 0.9 1.5
v 0.1 1 1.5
v 0.1 1.1 1.5
v 0.1 1.2 1.5
v 0.1 1.3 1.5
v 0.2 0.7 1.5
v 0.2 0.9 1.5
v 0.2 1 1.5
v 0.2 1.1 1.5
v 0.2 1.2 1.5
v 0.3 0.9 1.5
v 0.3 1 1.5
v 0.8 0.1 1.5
v 0.8 0.2 1.5
v 0.9 0.2 1.5
v 0.9 0.7 1.5
v 0.9 0.9 1.5
v 1.1 0.2 1.5
v 1.1 0.7 1.5
v 1.1 0.9 1.5
v 1.2 0.1 1.5
v 1.2 0.2 1.5
v 1.6 0.1 1.5
v 1.6 0.2 1.5
v 1.7 0.2 1.5
v 1.7 0.7 1.5
v 1.7 0.9 1.5
v 2 0 1.5
v 2 0.2 1.5
v 2 0.7 1.5
v 2 0.9 1.5
v 2 1 1.5
v -1.7 0.2 1.4
v -1.7 0.6 1.4
v -1.7 0.7 1.4
v -1.7 0.9 1.4
v -1.6 0.2 1.4
v -1.6 0.6 1.4
v -1.6 0.8 1.4
v -1.2 0.2 1.4
v -1.2 0.6 1.4
v -1.2 0.8 1.4
v -1.1 0.2 1.4
v -1.1 0.6 1.4
v -1.1 0.7 1.4
v -1.1 0.9 1.4
v -0.9 0.2 1.4
v -0.9 0.6 1.4
v -0.9 0.7 1.4
v -0.9 0.9 1.4
v -0.8 0.2 1.4
v -0.8 0.6 1.4
v -0.8 0.8 1.4
v -0.3 0.7 1.4
v -0.3 0.8 1.4
v -0.3 0.9 1.4
v -0.2 0.5 1.4
v -0.2 0.6 1.4
v -0.2 0.7 1.4
v -0.2 0.9 1.4
v -0.0999999 0.4 1.4
v -0.0999999 0.5 1.4
v -0.0999999 0.6 1.4
v -0.0999999 0.7 1.4
v 0.1 0.4 1.4
v 0.1 0.5 1.4
v 0.1 0.6 1.4
v 0.1 0.7 1.4
v 0.2 0.5 1.4
v 0.2 0.6 1.4
v 0.2 0.7 1.4
v 0.2 0.9 1.4
v 0.3 0.7 1.4
v 0.3 0.8 1.4
v 0.3 0.9 1.4
v 0.8 0.2 1.4
v 0.8 0.6 1.4
v 0.8 0.8 1.4
v 0.9 0.2 1.4
v 0.9 0.6 1.4
v 0.9 0.7 1.4
v 0.9 0.9 1.4
v 1.1 0.2 1.4
v 1.1 0.6 1.4
v 1.1 0.7 1.4
v 1.1 0.9 1.4
v 1.2 0.2 1.4
v 1.2 0.6 1.4
v 1.2 0.8 1.4
v 1.6 0.2 1.4
v 1.6 0.6 1.4
v 1.6 0.8 1.4
v 1.7 0.2 1.4
v 1.7 0.6 1.4
v 1.7 0.7 1.4
v 1.7 0.9 1.4
v -0.0999999 0.9 1.3
v -0.0999999 1 1.3
v 0.1 0.9 1.3
v 0.1 1 1.3
v -1.7 0.3 -0.2
v -1.7 1 -0.2
v 1.7 0.3 -0.2
v 1.7 1 -0.2
v -2 0.2 -0.3
v -2 0.7 -0.3
v -2 0.9 -0.3
v -1.9 0.2 -0.3
v -1.9 0.6 -0.3
v -1.9 0.7 -0.3
v -1.9 0.9 -0.3
v 1.9 0.2 -0.3
v 1.9 0.6 -0.3
v 1.9 0.7 -0.3
v 1.9 0.9 -0.3
v 2 0.2 -0.3
v 2 0.7 -0.3
v 2 0.9 -0.3
v -2 1 -0.5
v -2 3 -0.5
v -1.9 1.1 -0.5
v -1.9 2.9 -0.5
v -1.7 1.3 -0.5
v -1.7 2.7 -0.5
v -1.6 1 -0.5
v -1.6 1.1 -0.5
v -1.6 2.9 -0.5
v -1.6 3 -0.5
v -1.2 1 -0.5
v -1.2 1.1 -0.5
v -1.2 2.9 -0.5
v -1.2 3 -0.5
v -0.8 1 -0.5
v -0.8 1.1 -0.5
v -0.8 2.9 -0.5
v -0.8 3 -0.5
v -0.4 2.9 -0.5
v -0.4 3 -0.5
v -0.3 2.9 -0.5
v -0.3 3 -0.5
v -0.2 2.9 -0.5
v -0.2 3 -0.5
v 0.2 2.9 -0.5
v 0.2 3 -0.5
v 0.3 2.9 -0.5
v 0.3 3 -0.5
v 0.4 2.9 -0.5
v 0.4 3 -0.5
v 0.8 1 -0.5
v 0.8 1.1 -0.5
v 0.8 2.9 -0.5
v 0.8 3 -0.5
v 1.2 1 -0.5
v 1.2 1.1 -0.5
v 1.2 2.9 -0.5
v 1.2 3 -0.5
v 1.6 1 -0.5
v 1.6 1.1 -0.5
v 1.6 2.9 -0.5
v 1.6 3 -0.5
v 1.7 1.3 -0.5
v 1.7 2.7 -0.5
v 1.9 1.1 -0.5
v 1.9 2.9 -0.5
v 2 1 -0.5
v 2 3 -0.5
v -2 1.2 -0.8
v -2 1.3 -0.8
v -2 2.7 -0.8
v -2 2.8 -0.8
v -1.9 1.2 -0.8
v -1.9 1.3 -0.8
v -1.9 2.7 -0.8
v -1.9 2.8 -0.8
v -1.7 1.3 -0.8
v -1.7 2.7 -0.8
v 1.7 1.3 -0.8
v 1.7 2.7 -0.8
v 1.9 1.2 -0.8
v 1.9 1.3 -0.8
v 1.9 2.7 -0.8
v 1.9 2.8 -0.8
v 2 1.2 -0.8
v 2 1.3 -0.8
v 2 2.7 -0.8
v 2 2.8 -0.8
v -2 1.3 -1
v -2 1.4 -1
v -2 2.6 -1
v -2 2.7 -1
v -1.9 1.3 -1
v -1.9 1.4 -1
v -1.9 2.6 -1
v -1.9 2.7 -1
v 1.6 1.3 -1
v 1.6 1.6 -1
v 1.6 2.5 -1
v 1.6 2.7 -1
v 1.7 1.3 -1
v 1.7 1.6 -1
v 1.7 2.5 -1
v 1.7 2.7 -1
v 1.9 1.3 -1
v 1.9 1.4 -1
v 1.9 2.6 -1
v 1.9 2.7 -1
v 2 1.3 -1
v 2 1.4 -1
v 2 2.6 -1
v 2 2.7 -1
v -2 1.4 -1.1
v -2 1.5 -1.1
v -2 2.5 -1.1
v -2 2.6 -1.1
v -1.9 1.4 -1.1
v -1.9 1.5 -1.1
v -1.9 2.5 -1.1
v -1.9 2.6 -1.1
v 1.9 1.4 -1.1
v 1.9 1.5 -1.1
v 1.9 2.5 -1.1
v 1.9 2.6 -1.1
v 2 1.4 -1.1
v 2 1.5 -1.1
v 2 2.5 -1.1
v 2 2.6 -1.1
v -2 1.5 -1.2
v -2 1.7 -1.2
v -2 2.3 -1.2
v -2 2.5 -1.2
v -1.9 1.5 -1.2
v -1.9 1.7 -1.2
v -1.9 2.3 -1.2
v -1.9 2.5 -1.2
v 1.9 1.5 -1.2
v 1.9 1.7 -1.2
v 1.9 2.3 -1.2
v 1.9 2.5 -1.2
v 2 1.5 -1.2
v 2 1.7 -1.2
v 2 2.3 -1.2
v 2 2.5 -1.2
v -2 1.7 -1.3
v -2 2.3 -1.3
v -1.9 1.7 -1.3
v -1.9 2.3 -1.3
v 1.9 1.7 -1.3
v 1.9 2.3 -1.3
v 2 1.7 -1.3
v 2 2.3 -1.3
v -0.2 1 1.4
v -0.2 1.1 1.4
v -0.2 1.2 1.4
v -0.0999999 1 1.4
v -0.0999999 1.1 1.4
v -0.0999999 1.2 1.4
v -0.0999999 1.3 1.4
v 0.1 1 1.4
v 0.1 1.1 1.4
v 0.1 1.2 1.4
v 0.1 1.3 1.4
v 0.2 1 1.4
v 0.2 1.1 1.4
v 0.2 1.2 1.4
v -2 0.2 1.3
v -2 0.7 1.3
v -2 0.9 1.3
v -1.9 0.2 1.3
v -1.9 0.6 1.3
v -1.9 0.7 1.3
v -1.9 0.9 1.3
v 1.9 0.2 1.3
v 1.9 0.6 1.3
v 1.9 0.7 1.3
v 1.9 0.9 1.3
v 2 0.2 1.3
v 2 0.7 1.3
v 2 0.9 1.3
v -1.7 0.3 1.2
v -1.7 1 1.2
v 1.7 0.3 1.2
v 1.7 1 1.2
v -1.7 0.2 -0.4
v -1.7 0.6 -0.4
v -1.7 0.7 -0.4
v -1.7 0.9 -0.4
v -1.6 0.2 -0.4
v -1.6 0.6 -0.4
v -1.6 0.8 -0.4
v -1.2 0.2 -0.4
v -1.2 0.6 -0.4
v -1.2 0.8 -0.4
v -1.1 0.2 -0.4
v -1.1 0.6 -0.4
v -1.1 0.7 -0.4
v -1.1 0.9 -0.4
v -0.9 0.2 -0.4
v -0.9 0.6 -0.4
v -0.9 0.7 -0.4
v -0.9 0.9 -0.4
v -0.8 0.2 -0.4
v -0.8 0.6 -0.4
v -0.8 0.8 -0.4
v 0.8 0.2 -0.4
v 0.8 0.6 -0.4
v 0.8 0.8 -0.4
v 0.9 0.2 -0.4
v 0.9 0.6 -0.4
v 0.9 0.7 -0.4
v 0.9 0.9 -0.4
v 1.1 0.2 -0.4
v 1.1 0.6 -0.4
v 1.1 0.7 -0.4
v 1.1 0.9 -0.4
v 1.2 0.2 -0.4
v 1.2 0.6 -0.4
v 1.2 0.8 -0.4
v 1.6 0.2 -0.4
v 1.6 0.6 -0.4
v 1.6 0.8 -0.4
v 1.7 0.2 -0.4
v 1.7 0.6 -0.4
v 1.7 0.7 -0.4
v 1.7 0.9 -0.4
v -2 0 -0.5
v -2 0.2 -0.5
v -2 0.7 -0.5
v -2 0.9 -0.5
v -2 1 -0.5
v -1.7 0.2 -0.5
v -1.7 0.7 -0.5
v -1.7 0.9 -0.5
v -1.6 0.1 -0.5
v -1.6 0.2 -0.5
v -1.6 1 -0.5
v -1.2 0.1 -0.5
v -1.2 0.2 -0.5
v -1.2 1 -0.5
v -1.1 0.2 -0.5
v -1.1 0.7 -0.5
v -1.1 0.9 -0.5
v -0.9 0.2 -0.5
v -0.9 0.7 -0.5
v -0.9 0.9 -0.5
v -0.8 0.1 -0.5
v -0.8 0.2 -0.5
v -0.8 1 -0.5
v 0.8 0.1 -0.5
v 0.8 0.2 -0.5
v 0.8 1 -0.5
v 0.9 0.2 -0.5
v 0.9 0.7 -0.5
v 0.9 0.9 -0.5
v 1.1 0.2 -0.5
v 1.1 0.7 -0.5
v 1.1 0.9 -0.5
v 1.2 0.1 -0.5
v 1.2 0.2 -0.5
v 1.2 1 -0.5
v 1.6 0.1 -0.5
v 1.6 0.2 -0.5
v 1.6 1 -0.5
v 1.7 0.2 -0.5
v 1.7 0.7 -0.5
v 1.7 0.9 -0.5
v 2 0 -0.5
v 2 0.2 -0.5
v 2 0.7 -0.5
v 2 0.9 -0.5
v 2 1 -0.5
v -2 1.2 -0.6
v -2 2.8 -0.6
v -1.9 1.2 -0.6
v -1.9 1.4 -0.6
v -1.9 2.6 -0.6
v -1.9 2.8 -0.6
v -1.7 1 -0.6
v -1.7 1.1 -0.6
v -1.7 2.9 -0.6
v -1.7 3 -0.6
v -1.6 1 -0.6
v -1.6 1.1 -0.6
v -1.6 2.9 -0.6
v -1.6 3 -0.6
v -1.2 1 -0.6
v -1.2 1.1 -0.6
v -1.2 2.9 -0.6
v -1.2 3 -0.6
v -1.1 1 -0.6
v -1.1 1.1 -0.6
v -1.1 2.9 -0.6
v -1.1 3 -0.6
v -0.9 1 -0.6
v -0.9 1.1 -0.6
v -0.9 2.9 -0.6
v -0.9 3 -0.6
v -0.8 1 -0.6
v -0.8 1.1 -0.6
v -0.8 2.9 -0.6
v -0.8 3 -0.6
v -0.4 2.9 -0.6
v -0.4 3 -0.6
v -0.3 2.9 -0.6
v -0.3 3 -0.6
v -0.2 2.9 -0.6
v -0.2 3 -0.6
v 0.2 2.9 -0.6
v 0.2 3 -0.6
v 0.3 2.9 -0.6
v 0.3 3 -0.6
v 0.4 2.9 -0.6
v 0.4 3 -0.6
v 0.8 1 -0.6
v 0.8 1.1 -0.6
v 0.8 2.9 -0.6
v 0.8 3 -0.6
v 0.9 1 -0.6
v 0.9 1.1 -0.6
v 0.9 2.9 -0.6
v 0.9 3 -0.6
v 1.1 1 -0.6
v 1.1 1.1 -0.6
v 1.1 2.9 -0.6
v 1.1 3 -0.6
v 1.2 1 -0.6
v 1.2 1.1 -0.6
v 1.2 2.9 -0.6
v 1.2 3 -0.6
v 1.6 1 -0.6
v 1.6 1.1 -0.6
v 1.6 2.9 -0.6
v 1.6 3 -0.6
v 1.7 1 -0.6
v 1.7 1.1 -0.6
v 1.7 2.9 -0.6
v 1.7 3 -0.6
v 1.9 1.2 -0.6
v 1.9 1.4 -0.6
v 1.9 2.6 -0.6
v 1.9 2.8 -0.6
v 2 1.2 -0.6
v 2 2.8 -0.6
v -2 1 -0.9
v -2 1.1 -0.9
v -2 2.9 -0.9
v -2 3 -0.9
v -1.7 1 -0.9
v -1.7 1.1 -0.9
v -1.7 1.2 -0.9
v -1.7 2.8 -0.9
v -1.7 2.9 -0.9
v -1.7 3 -0.9
v -1.6 1.1 -0.9
v -1.6 1.2 -0.9
v -1.6 2.8 -0.9
v -1.6 2.9 -0.9
v -1.2 1.1 -0.9
v -1.2 1.2 -0.9
v -1.2 2.8 -0.9
v -1.2 2.9 -0.9
v -1.1 1 -0.9
v -1.1 1.1 -0.9
v -1.1 1.2 -0.9
v -1.1 2.8 -0.9
v -1.1 2.9 -0.9
v -1.1 3 -0.9
v -0.9 1 -0.9
v -0.9 1.1 -0.9
v -0.9 1.2 -0.9
v -0.9 2.8 -0.9
v -0.9 2.9 -0.9
v -0.9 3 -0.9
v -0.8 1.1 -0.9
v -0.8 1.2 -0.9
v -0.8 2.8 -0.9
v -0.8 2.9 -0.9
v 0.8 1.1 -0.9
v 0.8 1.2 -0.9
v 0.8 2.8 -0.9
v 0.8 2.9 -0.9
v 0.9 1 -0.9
v 0.9 1.1 -0.9
v 0.9 1.2 -0.9
v 0.9 2.8 -0.9
v 0.9 2.9 -0.9
v 0.9 3 -0.9
v 1.1 1 -0.9
v 1.1 1.1 -0.9
v 1.1 1.2 -0.9
v 1.1 2.8 -0.9
v 1.1 2.9 -0.9
v 1.1 3 -0.9
v 1.2 1.1 -0.9
v 1.2 1.2 -0.9
v 1.2 2.8 -0.9
v 1.2 2.9 -0.9
v 1.6 1.1 -0.9
v 1.6 1.2 -0.9
v 1.6 1.3 -0.9
v 1.6 2.7 -0.9
v 1.6 2.8 -0.9
v 1.6 2.9 -0.9
v 1.7 1 -0.9
v 1.7 1.1 -0.9
v 1.7 1.2 -0.9
v 1.7 1.3 -0.9
v 1.7 2.7 -0.9
v 1.7 2.8 -0.9
v 1.7 2.9 -0.9
v 1.7 3 -0.9
v 2 1 -0.9
v 2 1.1 -0.9
v 2 2.9 -0.9
v 2 3 -0.9
v -2 1.1 -1.1
v -2 1.2 -1.1
v -2 2.8 -1.1
v -2 2.9 -1.1
v -1.7 1.1 -1.1
v -1.7 1.2 -1.1
v -1.7 1.3 -1.1
v -1.7 2.7 -1.1
v -1.7 2.8 -1.1
v -1.7 2.9 -1.1
v -1.6 1.2 -1.1
v -1.6 1.3 -1.1
v -1.6 2.7 -1.1
v -1.6 2.8 -1.1
v -1.2 1.2 -1.1
v -1.2 1.3 -1.1
v -1.2 2.7 -1.1
v -1.2 2.8 -1.1
v -1.1 1.1 -1.1
v -1.1 1.2 -1.1
v -1.1 1.3 -1.1
v -1.1 2.7 -1.1
v -1.1 2.8 -1.1
v -1.1 2.9 -1.1
v -0.9 1.1 -1.1
v -0.9 1.2 -1.1
v -0.9 1.3 -1.1
v -0.9 2.7 -1.1
v -0.9 2.8 -1.1
v -0.9 2.9 -1.1
v -0.8 1.2 -1.1
v -0.8 1.3 -1.1
v -0.8 2.7 -1.1
v -0.8 2.8 -1.1
v 0.8 1.2 -1.1
v 0.8 1.3 -1.1
v 0.8 2.7 -1.1
v 0.8 2.8 -1.1
v 0.9 1.1 -1.1
v 0.9 1.2 -1.1
v 0.9 1.3 -1.1
v 0.9 2.7 -1.1
v 0.9 2.8 -1.1
v 0.9 2.9 -1.1
v 1.1 1.1 -1.1
v 1.1 1.2 -1.1
v 1.1 1.3 -1.1
v 1.1 2.7 -1.1
v 1.1 2.8 -1.1
v 1.1 2.9 -1.1
v 1.2 1.2 -1.1
v 1.2 1.3 -1.1
v 1.2 2.7 -1.1
v 1.2 2.8 -1.1
v 1.6 1.2 -1.1
v 1.6 1.3 -1.1
v 1.6 2.7 -1.1
v 1.6 2.8 -1.1
v 1.7 1.1 -1.1
v 1.7 1.2 -1.1
v 1.7 1.3 -1.1
v 1.7 2.7 -1.1
v 1.7 2.8 -1.1
v 1.7 2.9 -1.1
v 2 1.1 -1.1
v 2 1.2 -1.1
v 2 2.8 -1.1
v 2 2.9 -1.1
v -2 1.2 -1.2
v -2 1.3 -1.2
v -2 2.7 -1.2
v -2 2.8 -1.2
v -1.7 1.2 -1.2
v -1.7 1.3 -1.2
v -1.7 1.4 -1.2
v -1.7 2.6 -1.2
v -1.7 2.7 -1.2
v -1.7 2.8 -1.2
v -1.6 1.3 -1.2
v -1.6 1.4 -1.2
v -1.6 2.6 -1.2
v -1.6 2.7 -1.2
v -1.2 1.3 -1.2
v -1.2 1.4 -1.2
v -1.2 2.6 -1.2
v -1.2 2.7 -1.2
v -1.1 1.2 -1.2
v -1.1 1.3 -1.2
v -1.1 1.4 -1.2
v -1.1 2.6 -1.2
v -1.1 2.7 -1.2
v -1.1 2.8 -1.2
v -0.9 1.2 -1.2
v -0.9 1.3 -1.2
v -0.9 1.4 -1.2
v -0.9 2.6 -1.2
v -0.9 2.7 -1.2
v -0.9 2.8 -1.2
v -0.8 1.3 -1.2
v -0.8 1.4 -1.2
v -0.8 2.6 -1.2
v -0.8 2.7 -1.2
v 0.8 1.3 -1.2
v 0.8 1.4 -1.2
v 0.8 2.6 -1.2
v 0.8 2.7 -1.2
v 0.9 1.2 -1.2
v 0.9 1.3 -1.2
v 0.9 1.4 -1.2
v 0.9 2.6 -1.2
v 0.9 2.7 -1.2
v 0.9 2.8 -1.2
v 1.1 1.2 -1.2
v 1.1 1.3 -1.2
v 1.1 1.4 -1.2
v 1.1 2.6 -1.2
v 1.1 2.7 -1.2
v 1.1 2.8 -1.2
v 1.2 1.3 -1.2
v 1.2 1.4 -1.2
v 1.2 2.6 -1.2
v 1.2 2.7 -1.2
v 1.6 1.3 -1.2
v 1.6 1.4 -1.2
v 1.6 2.6 -1.2
v 1.6 2.7 -1.2
v 1.7 1.2 -1.2
v 1.7 1.3 -1.2
v 1.7 1.4 -1.2
v 1.7 2.6 -1.2
v 1.7 2.7 -1.2
v 1.7 2.8 -1.2
v 2 1.2 -1.2
v 2 1.3 -1.2
v 2 2.7 -1.2
v 2 2.8 -1.2
v -2 1.3 -1.3
v -2 1.4 -1.3
v -2 2.6 -1.3
v -2 2.7 -1.3
v -1.7 1.3 -1.3
v -1.7 1.4 -1.3
v -1.7 1.6 -1.3
v -1.7 2.4 -1.3
v -1.7 2.6 -1.3
v -1.7 2.7 -1.3
v -1.6 1.4 -1.3
v -1.6 1.6 -1.3
v -1.6 2.4 -1.3
v -1.6 2.6 -1.3
v -1.2 1.4 -1.3
v -1.2 1.6 -1.3
v -1.2 2.4 -1.3
v -1.2 2.6 -1.3
v -1.1 1.3 -1.3
v -1.1 1.4 -1.3
v -1.1 1.6 -1.3
v -1.1 2.4 -1.3
v -1.1 2.6 -1.3
v -1.1 2.7 -1.3
v -0.9 1.3 -1.3
v -0.9 1.4 -1.3
v -0.9 1.6 -1.3
v -0.9 2.4 -1.3
v -0.9 2.6 -1.3
v -0.9 2.7 -1.3
v -0.8 1.4 -1.3
v -0.8 1.6 -1.3
v -0.8 2.4 -1.3
v -0.8 2.6 -1.3
v 0.8 1.4 -1.3
v 0.8 1.6 -1.3
v 0.8 2.4 -1.3
v 0.8 2.6 -1.3
v 0.9 1.3 -1.3
v 0.9 1.4 -1.3
v 0.9 1.6 -1.3
v 0.9 2.4 -1.3
v 0.9 2.6 -1.3
v 0.9 2.7 -1.3
v 1.1 1.3 -1.3
v 1.1 1.4 -1.3
v 1.1 1.6 -1.3
v 1.1 2.4 -1.3
v 1.1 2.6 -1.3
v 1.1 2.7 -1.3
v 1.2 1.4 -1.3
v 1.2 1.6 -1.3
v 1.2 2.4 -1.3
v 1.2 2.6 -1.3
v 1.6 1.4 -1.3
v 1.6 1.6 -1.3
v 1.6 2.5 -1.3
v 1.6 2.6 -1.3
v 1.7 1.3 -1.3
v 1.7 1.4 -1.3
v 1.7 1.6 -1.3
v 1.7 2.4 -1.3
v 1.7 2.5 -1.3
v 1.7 2.6 -1.3
v 1.7 2.7 -1.3
v 2 1.3 -1.3
v 2 1.4 -1.3
v 2 2.6 -1.3
v 2 2.7 -1.3
v -2 1.4 -1.4
v -2 1.6 -1.4
v -2 2.4 -1.4
v -2 2.6 -1.4
v -1.7 1.4 -1.4
v -1.7 1.6 -1.4
v -1.7 1.7 -1.4
v -1.7 2.3 -1.4
v -1.7 2.4 -1.4
v -1.7 2.6 -1.4
v -1.6 1.7 -1.4
v -1.6 2.3 -1.4
v -1.2 1.7 -1.4
v -1.2 2.3 -1.4
v -1.1 1.4 -1.4
v -1.1 1.6 -1.4
v -1.1 1.7 -1.4
v -1.1 2.3 -1.4
v -1.1 2.4 -1.4
v -1.1 2.6 -1.4
v -0.9 1.4 -1.4
v -0.9 1.6 -1.4
v -0.9 1.7 -1.4
v -0.9 2.3 -1.4
v -0.9 2.4 -1.4
v -0.9 2.6 -1.4
v -0.8 1.7 -1.4
v -0.8 2.3 -1.4
v 0.8 1.7 -1.4
v 0.8 2.3 -1.4
v 0.9 1.4 -1.4
v 0.9 1.6 -1.4
v 0.9 1.7 -1.4
v 0.9 2.3 -1.4
v 0.9 2.4 -1.4
v 0.9 2.6 -1.4
v 1.1 1.4 -1.4
v 1.1 1.6 -1.4
v 1.1 1.7 -1.4
v 1.1 2.3 -1.4
v 1.1 2.4 -1.4
v 1.1 2.6 -1.4
v 1.2 1.7 -1.4
v 1.2 2.3 -1.4
v 1.6 1.7 -1.4
v 1.6 2.3 -1.4
v 1.7 1.4 -1.4
v 1.7 1.6 -1.4
v 1.7 1.7 -1.4
v 1.7 2.3 -1.4
v 1.7 2.4 -1.4
v 1.7 2.6 -1.4
v 2 1.4 -1.4
v 2 1.6 -1.4
v 2 2.4 -1.4
v 2 2.6 -1.4
v -2 1.6 -1.5
v -2 1.7 -1.5
v -2 2.3 -1.5
v -2 2.4 -1.5
v -1.7 1.6 -1.5
v -1.7 1.7 -1.5
v -1.7 2.3 -1.5
v -1.7 2.4 -1.5
v -1.1 1.6 -1.5
v -1.1 1.7 -1.5
v -1.1 2.3 -1.5
v -1.1 2.4 -1.5
v -0.9 1.6 -1.5
v -0.9 1.7 -1.5
v -0.9 2.3 -1.5
v -0.9 2.4 -1.5
v 0.9 1.6 -1.5
v 0.9 1.7 -1.5
v 0.9 2.3 -1.5
v 0.9 2.4 -1.5
v 1.1 1.6 -1.5
v 1.1 1.7 -1.5
v 1.1 2.3 -1.5
v 1.1 2.4 -1.5
v 1.7 1.6 -1.5
v 1.7 1.7 -1.5
v 1.7 2.3 -1.5
v 1.7 2.4 -1.5
v 2 1.6 -1.5
v 2 1.7 -1.5
v 2 2.3 -1.5
v 2 2.4 -1.5
v -2 0 1.5
v 2 0 1.5
v -1.7 0 1.2
v 1.7 0 1.2
v -1.7 0 -0.2
v 1.7 0 -0.2
v -2 0 -0.5
v 2 0 -0.5
v -0.0999999 0.6 1.5
v 0.1 0.6 1.5
v -0.0999999 0.6 1.4
v 0.1 0.6 1.4
v -0.2 0.7 1.5
v -0.0999999 0.7 1.5
v 0.1 0.7 1.5
v 0.2 0.7 1.5
v -0.2 0.7 1.4
v -0.0999999 0.7 1.4
v 0.1 0.7 1.4
v 0.2 0.7 1.4
v -1.7 0.9 1.5
v -1.1 0.9 1.5
v -0.9 0.9 1.5
v -0.3 0.9 1.5
v -0.2 0.9 1.5
v 0.2 0.9 1.5
v 0.3 0.9 1.5
v 0.9 0.9 1.5
v 1.1 0.9 1.5
v 1.7 0.9 1.5
v -1.7 0.9 1.4
v -1.1 0.9 1.4
v -0.9 0.9 1.4
v -0.3 0.9 1.4
v -0.2 0.9 1.4
v 0.2 0.9 1.4
v 0.3 0.9 1.4
v 0.9 0.9 1.4
v 1.1 0.9 1.4
v 1.7 0.9 1.4
v -2 0.9 1.3
v -1.9 0.9 1.3
v 1.9 0.9 1.3
v 2 0.9 1.3
v -2 0.9 -0.3
v -1.9 0.9 -0.3
v 1.9 0.9 -0.3
v 2 0.9 -0.3
v -1.7 0.9 -0.4
v -1.1 0.9 -0.4
v -0.9 0.9 -0.4
v 0.9 0.9 -0.4
v 1.1 0.9 -0.4
v 1.7 0.9 -0.4
v -1.7 0.9 -0.5
v -1.1 0.9 -0.5
v -0.9 0.9 -0.5
v 0.9 0.9 -0.5
v 1.1 0.9 -0.5
v 1.7 0.9 -0.5
v -0.0999999 1 1.5
v 0.1 1 1.5
v -0.0999999 1 1.4
v 0.1 1 1.4
v -2 1 -0.5
v -1.6 1 -0.5
v -1.2 1 -0.5
v -0.8 1 -0.5
v 0.8 1 -0.5
v 1.2 1 -0.5
v 1.6 1 -0.5
v 2 1 -0.5
v -1.7 1 -0.6
v -1.6 1 -0.6
v -1.2 1 -0.6
v -1.1 1 -0.6
v -0.9 1 -0.6
v -0.8 1 -0.6
v 0.8 1 -0.6
v 0.9 1 -0.6
v 1.1 1 -0.6
v 1.2 1 -0.6
v 1.6 1 -0.6
v 1.7 1 -0.6
v -2 1 -0.8
v -1.7 1 -0.8
v -1.1 1 -0.8
v -0.9 1 -0.8
v 0.9 1 -0.8
v 1.1 1 -0.8
v 1.7 1 -0.8
v 2 1 -0.8
v -2 1 -0.9
v -1.7 1 -0.9
v -1.1 1 -0.9
v -0.9 1 -0.9
v 0.9 1 -0.9
v 1.1 1 -0.9
v 1.7 1 -0.9
v 2 1 -0.9
v -1.7 1.1 -0.6
v -1.6 1.1 -0.6
v -1.2 1.1 -0.6
v -1.1 1.1 -0.6
v -0.9 1.1 -0.6
v -0.8 1.1 -0.6
v 0.8 1.1 -0.6
v 0.9 1.1 -0.6
v 1.1 1.1 -0.6
v 1.2 1.1 -0.6
v 1.6 1.1 -0.6
v 1.7 1.1 -0.6
v -1.7 1.1 -0.8
v -1.1 1.1 -0.8
v -0.9 1.1 -0.8
v 0.9 1.1 -0.8
v 1.1 1.1 -0.8
v 1.7 1.1 -0.8
v -2 1.1 -0.9
v -1.7 1.1 -0.9
v -1.6 1.1 -0.9
v -1.2 1.1 -0.9
v -1.1 1.1 -0.9
v -0.9 1.1 -0.9
v -0.8 1.1 -0.9
v 0.8 1.1 -0.9
v 0.9 1.1 -0.9
v 1.1 1.1 -0.9
v 1.2 1.1 -0.9
v 1.6 1.1 -0.9
v 1.7 1.1 -0.9
v 2 1.1 -0.9
v -2 1.1 -1
v -1.7 1.1 -1
v -1.1 1.1 -1
v -0.9 1.1 -1
v 0.9 1.1 -1
v 1.1 1.1 -1
v 1.7 1.1 -1
v 2 1.1 -1
v -2 1.1 -1.1
v -1.7 1.1 -1.1
v -1.1 1.1 -1.1
v -0.9 1.1 -1.1
v 0.9 1.1 -1.1
v 1.1 1.1 -1.1
v 1.7 1.1 -1.1
v 2 1.1 -1.1
v -1.7 1.2 -0.9
v -1.6 1.2 -0.9
v -1.2 1.2 -0.9
v -1.1 1.2 -0.9
v -0.9 1.2 -0.9
v -0.8 1.2 -0.9
v 0.8 1.2 -0.9
v 0.9 1.2 -0.9
v 1.1 1.2 -0.9
v 1.2 1.2 -0.9
v 1.6 1.2 -0.9
v 1.7 1.2 -0.9
v -1.7 1.2 -1
v -1.6 1.2 -1
v -1.2 1.2 -1
v -1.1 1.2 -1
v -0.9 1.2 -1
v -0.8 1.2 -1
v 0.8 1.2 -1
v 0.9 1.2 -1
v 1.1 1.2 -1
v 1.2 1.2 -1
v 1.6 1.2 -1
v 1.7 1.2 -1
v -2 1.2 -1.1
v -1.7 1.2 -1.1
v -1.6 1.2 -1.1
v -1.2 1.2 -1.1
v -1.1 1.2 -1.1
v -0.9 1.2 -1.1
v -0.8 1.2 -1.1
v 0.8 1.2 -1.1
v 0.9 1.2 -1.1
v 1.1 1.2 -1.1
v 1.2 1.2 -1.1
v 1.6 1.2 -1.1
v 1.7 1.2 -1.1
v 2 1.2 -1.1
v -2 1.2 -1.2
v -1.7 1.2 -1.2
v -1.1 1.2 -1.2
v -0.9 1.2 -1.2
v 0.9 1.2 -1.2
v 1.1 1.2 -1.2
v 1.7 1.2 -1.2
v 2 1.2 -1.2
v -1.7 1.3 -1.1
v -1.6 1.3 -1.1
v -1.2 1.3 -1.1
v -1.1 1.3 -1.1
v -0.9 1.3 -1.1
v -0.8 1.3 -1.1
v 0.8 1.3 -1.1
v 0.9 1.3 -1.1
v 1.1 1.3 -1.1
v 1.2 1.3 -1.1
v 1.6 1.3 -1.1
v 1.7 1.3 -1.1
v -2 1.3 -1.2
v -1.7 1.3 -1.2
v -1.6 1.3 -1.2
v -1.2 1.3 -1.2
v -1.1 1.3 -1.2
v -0.9 1.3 -1.2
v -0.8 1.3 -1.2
v 0.8 1.3 -1.2
v 0.9 1.3 -1.2
v 1.1 1.3 -1.2
v 1.2 1.3 -1.2
v 1.6 1.3 -1.2
v 1.7 1.3 -1.2
v 2 1.3 -1.2
v -2 1.3 -1.3
v -1.7 1.3 -1.3
v -1.1 1.3 -1.3
v -0.9 1.3 -1.3
v 0.9 1.3 -1.3
v 1.1 1.3 -1.3
v 1.7 1.3 -1.3
v 2 1.3 -1.3
v -1.7 1.4 -1.2
v -1.6 1.4 -1.2
v -1.2 1.4 -1.2
v -1.1 1.4 -1.2
v -0.9 1.4 -1.2
v -0.8 1.4 -1.2
v 0.8 1.4 -1.2
v 0.9 1.4 -1.2
v 1.1 1.4 -1.2
v 1.2 1.4 -1.2
v 1.6 1.4 -1.2
v 1.7 1.4 -1.2
v -2 1.4 -1.3
v -1.7 1.4 -1.3
v -1.6 1.4 -1.3
v -1.2 1.4 -1.3
v -1.1 1.4 -1.3
v -0.9 1.4 -1.3
v -0.8 1.4 -1.3
v 0.8 1.4 -1.3
v 0.9 1.4 -1.3
v 1.1 1.4 -1.3
v 1.2 1.4 -1.3
v 1.6 1.4 -1.3
v 1.7 1.4 -1.3
v 2 1.4 -1.3
v -2 1.4 -1.4
v -1.7 1.4 -1.4
v -1.1 1.4 -1.4
v -0.9 1.4 -1.4
v 0.9 1.4 -1.4
v 1.1 1.4 -1.4
v 1.7 1.4 -1.4
v 2 1.4 -1.4
v -1.7 1.6 -1.3
v -1.6 1.6 -1.3
v -1.2 1.6 -1.3
v -1.1 1.6 -1.3
v -0.9 1.6 -1.3
v -0.8 1.6 -1.3
v 0.8 1.6 -1.3
v 0.9 1.6 -1.3
v 1.1 1.6 -1.3
v 1.2 1.6 -1.3
v 1.6 1.6 -1.3
v 1.7 1.6 -1.3
v -2 1.6 -1.4
v -1.7 1.6 -1.4
v -1.1 1.6 -1.4
v -0.9 1.6 -1.4
v 0.9 1.6 -1.4
v 1.1 1.6 -1.4
v 1.7 1.6 -1.4
v 2 1.6 -1.4
v -2 1.6 -1.5
v -1.7 1.6 -1.5
v -1.1 1.6 -1.5
v -0.9 1.6 -1.5
v 0.9 1.6 -1.5
v 1.1 1.6 -1.5
v 1.7 1.6 -1.5
v 2 1.6 -1.5
v -2 2.3 -1.2
v -1.9 2.3 -1.2
v 1.9 2.3 -1.2
v 2 2.3 -1.2
v -2 2.3 -1.3
v -1.9 2.3 -1.3
v 1.9 2.3 -1.3
v 2 2.3 -1.3
v -2 2.5 -1.1
v -1.9 2.5 -1.1
v 1.9 2.5 -1.1
v 2 2.5 -1.1
v -2 2.5 -1.2
v -1.9 2.5 -1.2
v 1.9 2.5 -1.2
v 2 2.5 -1.2
v -2 2.6 -1
v -1.9 2.6 -1
v 1.9 2.6 -1
v 2 2.6 -1
v -2 2.6 -1.1
v -1.9 2.6 -1.1
v 1.9 2.6 -1.1
v 2 2.6 -1.1
v -1.7 2.7 -0.5
v 1.7 2.7 -0.5
v -2 2.7 -0.8
v -1.9 2.7 -0.8
v -1.7 2.7 -0.8
v 1.7 2.7 -0.8
v 1.9 2.7 -0.8
v 2 2.7 -0.8
v -2 2.7 -0.9
v -1.9 2.7 -0.9
v 1.6 2.7 -0.9
v 1.7 2.7 -0.9
v 1.9 2.7 -0.9
v 2 2.7 -0.9
v -2 2.7 -1
v -1.9 2.7 -1
v 1.6 2.7 -1
v 1.7 2.7 -1
v 1.9 2.7 -1
v 2 2.7 -1
v -2 2.8 -0.6
v -1.9 2.8 -0.6
v 1.9 2.8 -0.6
v 2 2.8 -0.6
v -2 2.8 -0.8
v -1.9 2.8 -0.8
v 1.9 2.8 -0.8
v 2 2.8 -0.8
v -1.7 0.2 1.5
v -1.6 0.2 1.5
v -1.2 0.2 1.5
v -1.1 0.2 1.5
v -0.9 0.2 1.5
v -0.8 0.2 1.5
v 0.8 0.2 1.5
v 0.9 0.2 1.5
v 1.1 0.2 1.5
v 1.2 0.2 1.5
v 1.6 0.2 1.5
v 1.7 0.2 1.5
v -1.7 0.2 1.4
v -1.6 0.2 1.4
v -1.2 0.2 1.4
v -1.1 0.2 1.4
v -0.9 0.2 1.4
v -0.8 0.2 1.4
v 0.8 0.2 1.4
v 0.9 0.2 1.4
v 1.1 0.2 1.4
v 1.2 0.2 1.4
v 1.6 0.2 1.4
v 1.7 0.2 1.4
v -2 0.2 1.3
v -1.9 0.2 1.3
v 1.9 0.2 1.3
v 2 0.2 1.3
v -2 0.2 1.2
v -1.9 0.2 1.2
v 1.9 0.2 1.2
v 2 0.2 1.2
v -2 0.2 -0.2
v -1.9 0.2 -0.2
v 1.9 0.2 -0.2
v 2 0.2 -0.2
v -2 0.2 -0.3
v -1.9 0.2 -0.3
v 1.9 0.2 -0.3
v 2 0.2 -0.3
v -1.7 0.2 -0.4
v -1.6 0.2 -0.4
v -1.2 0.2 -0.4
v -1.1 0.2 -0.4
v -0.9 0.2 -0.4
v -0.8 0.2 -0.4
v 0.8 0.2 -0.4
v 0.9 0.2 -0.4
v 1.1 0.2 -0.4
v 1.2 0.2 -0.4
v 1.6 0.2 -0.4
v 1.7 0.2 -0.4
v -1.7 0.2 -0.5
v -1.6 0.2 -0.5
v -1.2 0.2 -0.5
v -1.1 0.2 -0.5
v -0.9 0.2 -0.5
v -0.8 0.2 -0.5
v 0.8 0.2 -0.5
v 0.9 0.2 -0.5
v 1.1 0.2 -0.5
v 1.2 0.2 -0.5
v 1.6 0.2 -0.5
v 1.7 0.2 -0.5
v -1.7 0.3 1.2
v 1.7 0.3 1.2
v -1.7 0.3 -0.2
v 1.7 0.3 -0.2
v -0.0999999 0.9 1.5
v 0.1 0.9 1.5
v -0.0999999 0.9 1.4
v 0.1 0.9 1.4
v -0.0999999 0.9 1.3
v 0.1 0.9 1.3
v -2 1 1.5
v -0.3 1 1.5
v -0.2 1 1.5
v 0.2 1 1.5
v 0.3 1 1.5
v 2 1 1.5
v -1.9 1 1.4
v -0.3 1 1.4
v -0.2 1 1.4
v -0.0999999 1 1.4
v 0.1 1 1.4
v 0.2 1 1.4
v 0.3 1 1.4
v 1.9 1 1.4
v -2 1 1.3
v -1.9 1 1.3
v -0.0999999 1 1.3
v 0.1 1 1.3
v 1.9 1 1.3
v 2 1 1.3
v -1.7 1 1.2
v 1.7 1 1.2
v -1.7 1 -0.2
v 1.7 1 -0.2
v -2 1 -0.3
v -1.9 1 -0.3
v 1.9 1 -0.3
v 2 1 -0.3
v -1.9 1 -0.4
v 1.9 1 -0.4
v -2 1 -0.5
v -1.6 1 -0.5
v -1.2 1 -0.5
v -0.8 1 -0.5
v 0.8 1 -0.5
v 1.2 1 -0.5
v 1.6 1 -0.5
v 2 1 -0.5
v -0.2 1.2 1.5
v -0.0999999 1.2 1.5
v 0.1 1.2 1.5
v 0.2 1.2 1.5
v -0.2 1.2 1.4
v -0.0999999 1.2 1.4
v 0.1 1.2 1.4
v 0.2 1.2 1.4
v -2 1.2 -0.6
v -1.9 1.2 -0.6
v 1.9 1.2 -0.6
v 2 1.2 -0.6
v -2 1.2 -0.8
v -1.9 1.2 -0.8
v 1.9 1.2 -0.8
v 2 1.2 -0.8
v -0.0999999 1.3 1.5
v 0.1 1.3 1.5
v -0.0999999 1.3 1.4
v 0.1 1.3 1.4
v -1.7 1.3 -0.5
v 1.7 1.3 -0.5
v -2 1.3 -0.8
v -1.9 1.3 -0.8
v -1.7 1.3 -0.8
v 1.7 1.3 -0.8
v 1.9 1.3 -0.8
v 2 1.3 -0.8
v -2 1.3 -0.9
v -1.9 1.3 -0.9
v 1.6 1.3 -0.9
v 1.7 1.3 -0.9
v 1.9 1.3 -0.9
v 2 1.3 -0.9
v -2 1.3 -1
v -1.9 1.3 -1
v 1.6 1.3 -1
v 1.7 1.3 -1
v 1.9 1.3 -1
v 2 1.3 -1
v -2 1.4 -1
v -1.9 1.4 -1
v 1.9 1.4 -1
v 2 1.4 -1
v -2 1.4 -1.1
v -1.9 1.4 -1.1
v 1.9 1.4 -1.1
v 2 1.4 -1.1
v -2 1.5 -1.1
v -1.9 1.5 -1.1
v 1.9 1.5 -1.1
v 2 1.5 -1.1
v -2 1.5 -1.2
v -1.9 1.5 -1.2
v 1.9 1.5 -1.2
v 2 1.5 -1.2
v -2 1.7 -1.2
v -1.9 1.7 -1.2
v 1.9 1.7 -1.2
v 2 1.7 -1.2
v -2 1.7 -1.3
v -1.9 1.7 -1.3
v 1.9 1.7 -1.3
v 2 1.7 -1.3
v -1.7 2.4 -1.3
v -1.6 2.4 -1.3
v -1.2 2.4 -1.3
v -1.1 2.4 -1.3
v -0.9 2.4 -1.3
v -0.8 2.4 -1.3
v 0.8 2.4 -1.3
v 0.9 2.4 -1.3
v 1.1 2.4 -1.3
v 1.2 2.4 -1.3
v 1.7 2.4 -1.3
v -2 2.4 -1.4
v -1.7 2.4 -1.4
v -1.1 2.4 -1.4
v -0.9 2.4 -1.4
v 0.9 2.4 -1.4
v 1.1 2.4 -1.4
v 1.7 2.4 -1.4
v 2 2.4 -1.4
v -2 2.4 -1.5
v -1.7 2.4 -1.5
v -1.1 2.4 -1.5
v -0.9 2.4 -1.5
v 0.9 2.4 -1.5
v 1.1 2.4 -1.5
v 1.7 2.4 -1.5
v 2 2.4 -1.5
v -1.7 2.6 -1.2
v -1.6 2.6 -1.2
v -1.2 2.6 -1.2
v -1.1 2.6 -1.2
v -0.9 2.6 -1.2
v -0.8 2.6 -1.2
v 0.8 2.6 -1.2
v 0.9 2.6 -1.2
v 1.1 2.6 -1.2
v 1.2 2.6 -1.2
v 1.6 2.6 -1.2
v 1.7 2.6 -1.2
v -2 2.6 -1.3
v -1.7 2.6 -1.3
v -1.6 2.6 -1.3
v -1.2 2.6 -1.3
v -1.1 2.6 -1.3
v -0.9 2.6 -1.3
v -0.8 2.6 -1.3
v 0.8 2.6 -1.3
v 0.9 2.6 -1.3
v 1.1 2.6 -1.3
v 1.2 2.6 -1.3
v 1.6 2.6 -1.3
v 1.7 2.6 -1.3
v 2 2.6 -1.3
v -2 2.6 -1.4
v -1.7 2.6 -1.4
v -1.1 2.6 -1.4
v -0.9 2.6 -1.4
v 0.9 2.6 -1.4
v 1.1 2.6 -1.4
v 1.7 2.6 -1.4
v 2 2.6 -1.4
v -1.7 2.7 -1.1
v -1.6 2.7 -1.1
v -1.2 2.7 -1.1
v -1.1 2.7 -1.1
v -0.9 2.7 -1.1
v -0.8 2.7 -1.1
v 0.8 2.7 -1.1
v 0.9 2.7 -1.1
v 1.1 2.7 -1.1
v 1.2 2.7 -1.1
v 1.6 2.7 -1.1
v 1.7 2.7 -1.1
v -2 2.7 -1.2
v -1.7 2.7 -1.2
v -1.6 2.7 -1.2
v -1.2 2.7 -1.2
v -1.1 2.7 -1.2
v -0.9 2.7 -1.2
v -0.8 2.7 -1.2
v 0.8 2.7 -1.2
v 0.9 2.7 -1.2
v 1.1 2.7 -1.2
v 1.2 2.7 -1.2
v 1.6 2.7 -1.2
v 1.7 2.7 -1.2
v 2 2.7 -1.2
v -2 2.7 -1.3
v -1.7 2.7 -1.3
v -1.1 2.7 -1.3
v -0.9 2.7 -1.3
v 0.9 2.7 -1.3
v 1.1 2.7 -1.3
v 1.7 2.7 -1.3
v 2 2.7 -1.3
v -1.7 2.8 -0.9
v -1.6 2.8 -0.9
v -1.2 2.8 -0.9
v -1.1 2.8 -0.9
v -0.9 2.8 -0.9
v -0.8 2.8 -0.9
v 0.8 2.8 -0.9
v 0.9 2.8 -0.9
v 1.1 2.8 -0.9
v 1.2 2.8 -0.9
v 1.6 2.8 -0.9
v 1.7 2.8 -0.9
v -1.7 2.8 -1
v -1.6 2.8 -1
v -1.2 2.8 -1
v -1.1 2.8 -1
v -0.9 2.8 -1
v -0.8 2.8 -1
v 0.8 2.8 -1
v 0.9 2.8 -1
v 1.1 2.8 -1
v 1.2 2.8 -1
v 1.6 2.8 -1
v 1.7 2.8 -1
v -2 2.8 -1.1
v -1.7 2.8 -1.1
v -1.6 2.8 -1.1
v -1.2 2.8 -1.1
v -1.1 2.8 -1.1
v -0.9 2.8 -1.1
v -0.8 2.8 -1.1
v 0.8 2.8 -1.1
v 0.9 2.8 -1.1
v 1.1 2.8 -1.1
v 1.2 2.8 -1.1
v 1.6 2.8 -1.1
v 1.7 2.8 -1.1
v 2 2.8 -1.1
v -2 2.8 -1.2
v -1.7 2.8 -1.2
v -1.1 2.8 -1.2
v -0.9 2.8 -1.2
v 0.9 2.8 -1.2
v 1.1 2.8 -1.2
v 1.7 2.8 -1.2
v 2 2.8 -1.2
v -1.7 2.9 -0.6
v -1.6 2.9 -0.6
v -1.2 2.9 -0.6
v -1.1 2.9 -0.6
v -0.9 2.9 -0.6
v -0.8 2.9 -0.6
v -0.4 2.9 -0.6
v -0.3 2.9 -0.6
v -0.2 2.9 -0.6
v 0.2 2.9 -0.6
v 0.3 2.9 -0.6
v 0.4 2.9 -0.6
v 0.8 2.9 -0.6
v 0.9 2.9 -0.6
v 1.1 2.9 -0.6
v 1.2 2.9 -0.6
v 1.6 2.9 -0.6
v 1.7 2.9 -0.6
v -1.7 2.9 -0.8
v -1.1 2.9 -0.8
v -0.9 2.9 -0.8
v 0.9 2.9 -0.8
v 1.1 2.9 -0.8
v 1.7 2.9 -0.8
v -2 2.9 -0.9
v -1.7 2.9 -0.9
v -1.6 2.9 -0.9
v -1.2 2.9 -0.9
v -1.1 2.9 -0.9
v -0.9 2.9 -0.9
v -0.8 2.9 -0.9
v 0.8 2.9 -0.9
v 0.9 2.9 -0.9
v 1.1 2.9 -0.9
v 1.2 2.9 -0.9
v 1.6 2.9 -0.9
v 1.7 2.9 -0.9
v 2 2.9 -0.9
v -2 2.9 -1
v -1.7 2.9 -1
v -1.1 2.9 -1
v -0.9 2.9 -1
v 0.9 2.9 -1
v 1.1 2.9 -1
v 1.7 2.9 -1
v 2 2.9 -1
v -2 2.9 -1.1
v -1.7 2.9 -1.1
v -1.1 2.9 -1.1
v -0.9 2.9 -1.1
v 0.9 2.9 -1.1
v 1.1 2.9 -1.1
v 1.7 2.9 -1.1
v 2 2.9 -1.1
v -2 3 -0.5
v -1.6 3 -0.5
v -1.2 3 -0.5
v -0.8 3 -0.5
v -0.4 3 -0.5
v -0.3 3 -0.5
v -0.2 3 -0.5
v 0.2 3 -0.5
v 0.3 3 -0.5
v 0.4 3 -0.5
v 0.8 3 -0.5
v 1.2 3 -0.5
v 1.6 3 -0.5
v 2 3 -0.5
v -1.7 3 -0.6
v -1.6 3 -0.6
v -1.2 3 -0.6
v -1.1 3 -0.6
v -0.9 3 -0.6
v -0.8 3 -0.6
v -0.4 3 -0.6
v -0.3 3 -0.6
v -0.2 3 -0.6
v 0.2 3 -0.6
v 0.3 3 -0.6
v 0.4 3 -0.6
v 0.8 3 -0.6
v 0.9 3 -0.6
v 1.1 3 -0.6
v 1.2 3 -0.6
v 1.6 3 -0.6
v 1.7 3 -0.6
v -2 3 -0.8
v -1.7 3 -0.8
v -1.1 3 -0.8
v -0.9 3 -0.8
v 0.9 3 -0.8
v 1.1 3 -0.8
v 1.7 3 -0.8
v 2 3 -0.8
v -2 3 -0.9
v -1.7 3 -0.9
v -1.1 3 -0.9
v -0.9 3 -0.9
v 0.9 3 -0.9
v 1.1 3 -0.9
v 1.7 3 -0.9
v 2 3 -0.9

# faces
f 3/3/1 2/3/1 1/3/1
f 4/3/1 2/3/1 3/3/1
f 5/3/1 3/3/1 1/3/1
f 6/3/1 3/3/1 5/3/1
f 7/4/1 4/4/1 3/4/1
f 7/3/1 3/3/1 6/3/1
f 8/3/1 2/3/1 4/3/1
f 8/4/1 4/4/1 7/4/1
f 9/3/1 2/3/1 8/3/1
f 10/3/1 2/3/1 9/3/1
f 11/4/1 6/4/1 5/4/1
f 12/4/1 6/4/1 11/4/1
f 13/4/1 10/4/1 9/4/1
f 14/4/1 10/4/1 13/4/1
f 15/3/1 12/3/1 11/3/1
f 16/3/1 12/3/1 15/3/1
f 17/3/1 14/3/1 13/3/1
f 18/3/1 14/3/1 17/3/1
f 19/4/1 16/4/1 15/4/1
f 20/3/1 17/3/1 16/3/1
f 20/4/1 16/4/1 19/4/1
f 21/4/1 18/4/1 17/4/1
f 21/3/1 17/3/1 20/3/1
f 22/4/1 18/4/1 21/4/1
f 25/4/1 23/4/1 22/4/1
f 26/1/1 24/1/1 23/1/1
f 26/4/1 23/4/1 25/4/1
f 27/1/1 24/1/1 26/1/1
f 30/4/1 25/4/1 22/4/1
f 30/3/1 26/3/1 25/3/1
f 31/4/1 28/4/1 27/4/1
f 31/3/1 26/3/1 30/3/1
f 31/4/1 27/4/1 26/4/1
f 32/4/1 28/4/1 31/4/1
f 33/1/1 29/1/1 28/1/1
f 33/4/1 28/4/1 32/4/1
f 34/1/1 29/1/1 33/1/1
f 36/3/1 32/3/1 31/3/1
f 37/4/1 34/4/1 33/4/1
f 37/3/1 32/3/1 36/3/1
f 37/4/1 33/4/1 32/4/1
f 38/4/1 34/4/1 37/4/1
f 39/1/1 35/1/1 34/1/1
f 39/4/1 34/4/1 38/4/1
f 40/1/1 35/1/1 39/1/1
f 42/4/1 40/4/1 39/4/1
f 42/4/1 39/4/1 38/4/1
f 43/4/1 40/4/1 42/4/1
f 44/1/1 41/1/1 40/1/1
f 46/4/1 40/4/1 43/4/1
f 47/1/1 45/1/1 44/1/1
f 47/4/1 40/4/1 46/4/1
f 47/1/1 44/1/1 40/1/1
f 48/1/1 45/1/1 47/1/1
f 49/1/1 45/1/1 48/1/1
f 51/4/1 48/4/1 47/4/1
f 52/1/1 50/1/1 49/1/1
f 52/4/1 48/4/1 51/4/1
f 52/1/1 49/1/1 48/1/1
f 53/1/1 50/1/1 52/1/1
f 54/1/1 50/1/1 53/1/1
f 56/1/1 53/1/1 52/1/1
f 57/2/1 54/2/1 53/2/1
f 57/1/1 53/1/1 56/1/1
f 58/2/1 54/2/1 57/2/1
f 59/1/1 57/1/1 56/1/1
f 59/1/1 58/1/1 57/1/1
f 60/1/1 58/1/1 59/1/1
f 62/4/1 56/4/1 55/4/1
f 63/1/1 59/1/1 56/1/1
f 63/4/1 56/4/1 62/4/1
f 65/4/1 62/4/1 61/4/1
f 66/1/1 59/1/1 63/1/1
f 66/1/1 63/1/1 62/1/1
f 67/1/1 59/1/1 66/1/1
f 70/4/1 65/4/1 64/4/1
f 71/4/1 62/4/1 65/4/1
f 71/4/1 65/4/1 70/4/1
f 72/1/1 66/1/1 62/1/1
f 72/4/1 62/4/1 71/4/1
f 73/1/1 66/1/1 72/1/1
f 74/4/1 30/4/1 22/4/1
f 75/3/1 69/3/1 68/3/1
f 76/4/1 70/4/1 69/4/1
f 76/4/1 71/4/1 70/4/1
f 76/3/1 69/3/1 75/3/1
f 77/4/1 71/4/1 76/4/1
f 78/1/1 72/1/1 71/1/1
f 78/4/1 71/4/1 77/4/1
f 79/1/1 72/1/1 78/1/1
f 80/4/1 74/4/1 22/4/1
f 80/3/1 75/3/1 74/3/1
f 81/4/1 77/4/1 76/4/1
f 81/3/1 75/3/1 80/3/1
f 81/4/1 76/4/1 75/4/1
f 82/4/1 77/4/1 81/4/1
f 83/1/1 78/1/1 77/1/1
f 83/4/1 77/4/1 82/4/1
f 84/1/1 78/1/1 83/1/1
f 85/4/1 80/4/1 22/4/1
f 85/4/1 81/4/1 80/4/1
f 86/1/1 82/1/1 81/1/1
f 86/4/1 81/4/1 85/4/1
f 87/1/1 82/1/1 86/1/1
f 92/11/1 89/11/1 88/11/1
f 93/7/1 90/7/1 89/7/1
f 93/11/1 89/11/1 92/11/1
f 94/11/1 91/11/1 90/11/1
f 94/7/1 90/7/1 93/7/1
f 95/11/1 91/11/1 94/11/1
f 96/8/1 93/8/1 92/8/1
f 97/8/1 95/8/1 94/8/1
f 98/11/1 94/11/1 93/11/1
f 98/8/1 93/8/1 96/8/1
f 99/8/1 97/8/1 94/8/1
f 99/11/1 94/11/1 98/11/1
f 100/8/1 98/8/1 96/8/1
f 100/8/1 99/8/1 98/8/1
f 101/8/1 97/8/1 99/8/1
f 101/8/1 99/8/1 100/8/1
f 104/7/1 103/7/1 102/7/1
f 107/7/1 104/7/1 102/7/1
f 107/7/1 106/7/1 105/7/1
f 107/7/1 105/7/1 104/7/1
f 108/7/1 106/7/1 107/7/1
f 109/7/1 106/7/1 108/7/1
f 111/10/1 108/10/1 107/10/1
f 111/7/1 110/7/1 109/7/1
f 111/7/1 109/7/1 108/7/1
f 112/7/1 110/7/1 111/7/1
f 113/7/1 110/7/1 112/7/1
f 115/10/1 112/10/1 111/10/1
f 115/7/1 114/7/1 113/7/1
f 115/7/1 113/7/1 112/7/1
f 116/7/1 114/7/1 115/7/1
f 117/10/1 116/10/1 115/10/1
f 117/7/1 114/7/1 116/7/1
f 118/7/1 114/7/1 117/7/1
f 119/7/1 114/7/1 118/7/1
f 121/10/1 117/10/1 115/10/1
f 121/10/1 118/10/1 117/10/1
f 122/7/1 120/7/1 119/7/1
f 122/10/1 118/10/1 121/10/1
f 122/7/1 119/7/1 118/7/1
f 123/7/1 120/7/1 122/7/1
f 124/7/1 120/7/1 123/7/1
f 125/10/1 115/10/1 111/10/1
f 125/10/1 121/10/1 115/10/1
f 126/7/1 123/7/1 122/7/1
f 126/10/1 121/10/1 125/10/1
f 126/7/1 122/7/1 121/7/1
f 127/10/1 111/10/1 107/10/1
f 127/10/1 125/10/1 111/10/1
f 128/7/1 126/7/1 125/7/1
f 128/10/1 125/10/1 127/10/1
f 129/7/1 123/7/1 126/7/1
f 129/7/1 126/7/1 128/7/1
f 130/7/1 123/7/1 129/7/1
f 131/10/1 127/10/1 107/10/1
f 132/7/1 128/7/1 127/7/1
f 132/10/1 127/10/1 131/10/1
f 132/7/1 129/7/1 128/7/1
f 133/7/1 129/7/1 132/7/1
f 134/7/1 129/7/1 133/7/1
f 135/7/1 132/7/1 131/7/1
f 135/7/1 133/7/1 132/7/1
f 136/7/1 133/7/1 135/7/1
f 137/7/1 133/7/1 136/7/1
f 138/7/1 135/7/1 131/7/1
f 139/7/1 135/7/1 138/7/1
f 144/4/1 141/4/1 140/4/1
f 145/4/1 143/4/1 142/4/1
f 146/4/1 144/4/1 140/4/1
f 147/4/1 144/4/1 146/4/1
f 148/4/1 143/4/1 145/4/1
f 149/4/1 143/4/1 148/4/1
f 150/3/1 147/3/1 146/3/1
f 151/3/1 147/3/1 150/3/1
f 152/3/1 149/3/1 148/3/1
f 153/3/1 149/3/1 152/3/1
f 157/4/1 155/4/1 154/4/1
f 158/1/1 156/1/1 155/1/1
f 158/4/1 155/4/1 157/4/1
f 159/1/1 156/1/1 158/1/1
f 162/4/1 160/4/1 159/4/1
f 163/1/1 161/1/1 160/1/1
f 163/4/1 160/4/1 162/4/1
f 164/1/1 161/1/1 163/1/1
f 166/1/1 165/1/1 164/1/1
f 167/1/1 165/1/1 166/1/1
f 169/1/1 168/1/1 167/1/1
f 170/1/1 168/1/1 169/1/1
f 172/1/1 171/1/1 170/1/1
f 173/1/1 171/1/1 172/1/1
f 175/1/1 174/1/1 173/1/1
f 176/1/1 174/1/1 175/1/1
f 177/2/1 176/2/1 175/2/1
f 178/2/1 176/2/1 177/2/1
f 180/1/1 178/1/1 177/1/1
f 181/1/1 178/1/1 180/1/1
f 183/1/1 180/1/1 179/1/1
f 184/1/1 180/1/1 183/1/1
f 186/1/1 183/1/1 182/1/1
f 187/1/1 183/1/1 186/1/1
f 190/1/1 186/1/1 185/1/1
f 191/1/1 186/1/1 190/1/1
f 194/4/1 189/4/1 188/4/1
f 195/1/1 190/1/1 189/1/1
f 195/4/1 189/4/1 194/4/1
f 196/1/1 190/1/1 195/1/1
f 197/4/1 193/4/1 192/4/1
f 198/1/1 194/1/1 193/1/1
f 198/4/1 193/4/1 197/4/1
f 199/1/1 194/1/1 198/1/1
f 202/3/1 201/3/1 200/3/1
f 203/3/1 201/3/1 202/3/1
f 206/4/1 205/4/1 204/4/1
f 207/4/1 205/4/1 206/4/1
f 208/1/1 207/1/1 206/1/1
f 209/1/1 207/1/1 208/1/1
f 212/3/1 211/3/1 210/3/1
f 213/3/1 211/3/1 212/3/1
f 216/1/1 215/1/1 214/1/1
f 217/1/1 215/1/1 216/1/1
f 221/3/1 219/3/1 218/3/1
f 222/12/1 220/12/1 219/12/1
f 222/3/1 219/3/1 221/3/1
f 223/12/1 220/12/1 222/12/1
f 228/4/1 225/4/1 224/4/1
f 229/4/1 227/4/1 226/4/1
f 230/4/1 228/4/1 224/4/1
f 231/4/1 228/4/1 230/4/1
f 232/4/1 227/4/1 229/4/1
f 233/4/1 227/4/1 232/4/1
f 234/3/1 231/3/1 230/3/1
f 235/3/1 231/3/1 234/3/1
f 236/3/1 233/3/1 232/3/1
f 237/3/1 233/3/1 236/3/1
f 241/4/1 239/4/1 238/4/1
f 242/1/1 240/1/1 239/1/1
f 242/4/1 239/4/1 241/4/1
f 243/1/1 240/1/1 242/1/1
f 246/4/1 244/4/1 243/4/1
f 247/1/1 245/1/1 244/1/1
f 247/4/1 244/4/1 246/4/1
f 248/1/1 245/1/1 247/1/1
f 250/1/1 249/1/1 248/1/1
f 251/1/1 249/1/1 250/1/1
f 253/1/1 252/1/1 251/1/1
f 254/1/1 252/1/1 253/1/1
f 256/1/1 255/1/1 254/1/1
f 257/1/1 255/1/1 256/1/1
f 259/1/1 258/1/1 257/1/1
f 260/1/1 258/1/1 259/1/1
f 261/2/1 260/2/1 259/2/1
f 262/2/1 260/2/1 261/2/1
f 264/1/1 262/1/1 261/1/1
f 265/1/1 262/1/1 264/1/1
f 267/1/1 264/1/1 263/1/1
f 268/1/1 264/1/1 267/1/1
f 270/1/1 267/1/1 266/1/1
f 271/1/1 267/1/1 270/1/1
f 274/1/1 270/1/1 269/1/1
f 275/1/1 270/1/1 274/1/1
f 278/4/1 273/4/1 272/4/1
f 279/1/1 274/1/1 273/1/1
f 279/4/1 273/4/1 278/4/1
f 280/1/1 274/1/1 279/1/1
f 281/4/1 277/4/1 276/4/1
f 282/1/1 278/1/1 277/1/1
f 282/4/1 277/4/1 281/4/1
f 283/1/1 278/1/1 282/1/1
f 290/4/1 285/4/1 284/4/1
f 291/4/1 287/4/1 286/4/1
f 292/4/1 290/4/1 284/4/1
f 293/4/1 290/4/1 292/4/1
f 294/4/1 287/4/1 291/4/1
f 295/4/1 287/4/1 294/4/1
f 296/3/1 293/3/1 292/3/1
f 297/3/1 293/3/1 296/3/1
f 298/3/1 295/3/1 294/3/1
f 299/3/1 295/3/1 298/3/1
f 300/12/1 289/12/1 288/12/1
f 301/12/1 289/12/1 300/12/1
f 305/4/1 303/4/1 302/4/1
f 306/1/1 304/1/1 303/1/1
f 306/4/1 303/4/1 305/4/1
f 307/1/1 304/1/1 306/1/1
f 310/4/1 308/4/1 307/4/1
f 311/1/1 309/1/1 308/1/1
f 311/4/1 308/4/1 310/4/1
f 312/1/1 309/1/1 311/1/1
f 318/1/1 313/1/1 312/1/1
f 319/1/1 313/1/1 318/1/1
f 321/1/1 320/1/1 319/1/1
f 322/1/1 320/1/1 321/1/1
f 324/5/1 317/5/1 316/5/1
f 325/1/1 323/1/1 322/1/1
f 326/1/1 323/1/1 325/1/1
f 328/1/1 327/1/1 326/1/1
f 329/1/1 327/1/1 328/1/1
f 330/2/1 329/2/1 328/2/1
f 331/2/1 329/2/1 330/2/1
f 333/1/1 331/1/1 330/1/1
f 334/1/1 331/1/1 333/1/1
f 335/5/1 324/5/1 316/5/1
f 336/1/1 333/1/1 332/1/1
f 338/1/1 333/1/1 336/1/1
f 339/1/1 333/1/1 338/1/1
f 340/12/1 315/12/1 314/12/1
f 341/12/1 315/12/1 340/12/1
f 342/5/1 335/5/1 316/5/1
f 343/5/1 335/5/1 342/5/1
f 345/1/1 338/1/1 337/1/1
f 346/1/1 338/1/1 345/1/1
f 349/1/1 345/1/1 344/1/1
f 350/1/1 345/1/1 349/1/1
f 353/4/1 348/4/1 347/4/1
f 354/1/1 349/1/1 348/1/1
f 354/4/1 348/4/1 353/4/1
f 355/1/1 349/1/1 354/1/1
f 356/4/1 352/4/1 351/4/1
f 357/1/1 353/1/1 352/1/1
f 357/4/1 352/4/1 356/4/1
f 358/1/1 353/1/1 357/1/1
f 359/4/2 360/4/2 365/4/2
f 361/4/2 362/4/2 366/4/2
f 359/4/2 365/4/2 367/4/2
f 367/4/2 365/4/2 368/4/2
f 366/4/2 362/4/2 369/4/2
f 369/4/2 362/4/2 370/4/2
f 367/3/2 368/3/2 371/3/2
f 371/3/2 368/3/2 372/3/2
f 369/3/2 370/3/2 373/3/2
f 373/3/2 370/3/2 374/3/2
f 363/12/2 364/12/2 375/12/2
f 375/12/2 364/12/2 376/12/2
f 377/4/2 378/4/2 380/4/2
f 378/1/2 379/1/2 381/1/2
f 380/4/2 378/4/2 381/4/2
f 381/1/2 379/1/2 382/1/2
f 382/4/2 383/4/2 385/4/2
f 383/1/2 384/1/2 386/1/2
f 385/4/2 383/4/2 386/4/2
f 386/1/2 384/1/2 387/1/2
f 387/1/2 388/1/2 391/1/2
f 391/1/2 388/1/2 392/1/2
f 392/1/2 393/1/2 394/1/2
f 394/1/2 393/1/2 395/1/2
f 395/1/2 396/1/2 397/1/2
f 397/1/2 396/1/2 398/1/2
f 398/1/2 399/1/2 400/1/2
f 400/1/2 399/1/2 401/1/2
f 400/2/2 401/2/2 402/2/2
f 402/2/2 401/2/2 403/2/2
f 402/1/2 403/1/2 405/1/2
f 405/1/2 403/1/2 406/1/2
f 404/1/2 405/1/2 408/1/2
f 408/1/2 405/1/2 409/1/2
f 389/12/2 390/12/2 410/12/2
f 410/12/2 390/12/2 411/12/2
f 407/1/2 408/1/2 413/1/2
f 413/1/2 408/1/2 414/1/2
f 412/1/2 413/1/2 417/1/2
f 417/1/2 413/1/2 418/1/2
f 415/4/2 416/4/2 421/4/2
f 416/1/2 417/1/2 422/1/2
f 421/4/2 416/4/2 422/4/2
f 422/1/2 417/1/2 423/1/2
f 419/4/2 420/4/2 424/4/2
f 420/1/2 421/1/2 425/1/2
f 424/4/2 420/4/2 425/4/2
f 425/1/2 421/1/2 426/1/2
f 427/4/2 428/4/2 431/4/2
f 429/4/2 430/4/2 432/4/2
f 427/4/2 431/4/2 433/4/2
f 433/4/2 431/4/2 434/4/2
f 432/4/2 430/4/2 435/4/2
f 435/4/2 430/4/2 436/4/2
f 433/3/2 434/3/2 437/3/2
f 437/3/2 434/3/2 438/3/2
f 435/3/2 436/3/2 439/3/2
f 439/3/2 436/3/2 440/3/2
f 441/4/2 442/4/2 444/4/2
f 442/1/2 443/1/2 445/1/2
f 444/4/2 442/4/2 445/4/2
f 445/1/2 443/1/2 446/1/2
f 446/4/2 447/4/2 449/4/2
f 447/1/2 448/1/2 450/1/2
f 449/4/2 447/4/2 450/4/2
f 450/1/2 448/1/2 451/1/2
f 451/1/2 452/1/2 453/1/2
f 453/1/2 452/1/2 454/1/2
f 454/1/2 455/1/2 456/1/2
f 456/1/2 455/1/2 457/1/2
f 457/1/2 458/1/2 459/1/2
f 459/1/2 458/1/2 460/1/2
f 460/1/2 461/1/2 462/1/2
f 462/1/2 461/1/2 463/1/2
f 462/2/2 463/2/2 464/2/2
f 464/2/2 463/2/2 465/2/2
f 464/1/2 465/1/2 467/1/2
f 467/1/2 465/1/2 468/1/2
f 466/1/2 467/1/2 470/1/2
f 470/1/2 467/1/2 471/1/2
f 469/1/2 470/1/2 473/1/2
f 473/1/2 470/1/2 474/1/2
f 472/1/2 473/1/2 477/1/2
f 477/1/2 473/1/2 478/1/2
f 475/4/2 476/4/2 481/4/2
f 476/1/2 477/1/2 482/1/2
f 481/4/2 476/4/2 482/4/2
f 482/1/2 477/1/2 483/1/2
f 479/4/2 480/4/2 484/4/2
f 480/1/2 481/1/2 485/1/2
f 484/4/2 480/4/2 485/4/2
f 485/1/2 481/1/2 486/1/2
f 487/3/2 488/3/2 490/3/2
f 488/12/2 489/12/2 491/12/2
f 490/3/2 488/3/2 491/3/2
f 491/12/2 489/12/2 492/12/2
f 493/3/2 494/3/2 495/3/2
f 495/3/2 494/3/2 496/3/2
f 497/1/2 498/1/2 499/1/2
f 499/1/2 498/1/2 500/1/2
f 501/3/2 502/3/2 503/3/2
f 503/3/2 502/3/2 504/3/2
f 505/4/2 506/4/2 507/4/2
f 507/4/2 506/4/2 508/4/2
f 507/1/2 508/1/2 509/1/2
f 509/1/2 508/1/2 510/1/2
f 511/4/2 512/4/2 515/4/2
f 513/4/2 514/4/2 516/4/2
f 511/4/2 515/4/2 517/4/2
f 517/4/2 515/4/2 518/4/2
f 516/4/2 514/4/2 519/4/2
f 519/4/2 514/4/2 520/4/2
f 517/3/2 518/3/2 521/3/2
f 521/3/2 518/3/2 522/3/2
f 519/3/2 520/3/2 523/3/2
f 523/3/2 520/3/2 524/3/2
f 525/4/2 526/4/2 528/4/2
f 526/1/2 527/1/2 529/1/2
f 528/4/2 526/4/2 529/4/2
f 529/1/2 527/1/2 530/1/2
f 530/4/2 531/4/2 533/4/2
f 531/1/2 532/1/2 534/1/2
f 533/4/2 531/4/2 534/4/2
f 534/1/2 532/1/2 535/1/2
f 535/1/2 536/1/2 537/1/2
f 537/1/2 536/1/2 538/1/2
f 538/1/2 539/1/2 540/1/2
f 540/1/2 539/1/2 541/1/2
f 541/1/2 542/1/2 543/1/2
f 543/1/2 542/1/2 544/1/2
f 544/1/2 545/1/2 546/1/2
f 546/1/2 545/1/2 547/1/2
f 546/2/2 547/2/2 548/2/2
f 548/2/2 547/2/2 549/2/2
f 548/1/2 549/1/2 551/1/2
f 551/1/2 549/1/2 552/1/2
f 550/1/2 551/1/2 554/1/2
f 554/1/2 551/1/2 555/1/2
f 553/1/2 554/1/2 557/1/2
f 557/1/2 554/1/2 558/1/2
f 556/1/2 557/1/2 561/1/2
f 561/1/2 557/1/2 562/1/2
f 559/4/2 560/4/2 565/4/2
f 560/1/2 561/1/2 566/1/2
f 565/4/2 560/4/2 566/4/2
f 566/1/2 561/1/2 567/1/2
f 563/4/2 564/4/2 568/4/2
f 564/1/2 565/1/2 569/1/2
f 568/4/2 564/4/2 569/4/2
f 569/1/2 565/1/2 570/1/2
f 571/12/2 572/12/2 573/12/2
f 571/12/2 573/12/2 574/12/2
f 571/12/2 574/12/2 575/12/2
f 575/12/2 574/12/2 576/12/2
f 577/11/2 578/11/2 581/11/2
f 578/7/2 579/7/2 582/7/2
f 581/11/2 578/11/2 582/11/2
f 579/11/2 580/11/2 583/11/2
f 582/7/2 579/7/2 583/7/2
f 583/11/2 580/11/2 584/11/2
f 581/8/2 582/8/2 585/8/2
f 583/8/2 584/8/2 586/8/2
f 582/11/2 583/11/2 587/11/2
f 585/8/2 582/8/2 587/8/2
f 583/8/2 586/8/2 588/8/2
f 587/11/2 583/11/2 588/11/2
f 585/8/2 587/8/2 589/8/2
f 587/8/2 588/8/2 589/8/2
f 588/8/2 586/8/2 590/8/2
f 589/8/2 588/8/2 590/8/2
f 591/7/2 592/7/2 593/7/2
f 591/7/2 593/7/2 596/7/2
f 594/7/2 595/7/2 596/7/2
f 593/7/2 594/7/2 596/7/2
f 596/7/2 595/7/2 597/7/2
f 597/7/2 595/7/2 598/7/2
f 596/10/2 597/10/2 600/10/2
f 598/7/2 599/7/2 600/7/2
f 597/7/2 598/7/2 600/7/2
f 600/7/2 599/7/2 601/7/2
f 601/7/2 599/7/2 602/7/2
f 600/10/2 601/10/2 604/10/2
f 602/7/2 603/7/2 604/7/2
f 601/7/2 602/7/2 604/7/2
f 604/7/2 603/7/2 605/7/2
f 604/10/2 605/10/2 606/10/2
f 605/7/2 603/7/2 606/7/2
f 606/7/2 603/7/2 607/7/2
f 607/7/2 603/7/2 608/7/2
f 604/10/2 606/10/2 610/10/2
f 606/10/2 607/10/2 610/10/2
f 608/7/2 609/7/2 611/7/2
f 610/10/2 607/10/2 611/10/2
f 607/7/2 608/7/2 611/7/2
f 611/7/2 609/7/2 612/7/2
f 612/7/2 609/7/2 613/7/2
f 600/10/2 604/10/2 614/10/2
f 604/10/2 610/10/2 614/10/2
f 611/7/2 612/7/2 615/7/2
f 614/10/2 610/10/2 615/10/2
f 610/7/2 611/7/2 615/7/2
f 596/10/2 600/10/2 616/10/2
f 600/10/2 614/10/2 616/10/2
f 614/7/2 615/7/2 617/7/2
f 616/10/2 614/10/2 617/10/2
f 615/7/2 612/7/2 618/7/2
f 617/7/2 615/7/2 618/7/2
f 618/7/2 612/7/2 619/7/2
f 596/10/2 616/10/2 620/10/2
f 616/7/2 617/7/2 621/7/2
f 620/10/2 616/10/2 621/10/2
f 617/7/2 618/7/2 621/7/2
f 621/7/2 618/7/2 622/7/2
f 622/7/2 618/7/2 623/7/2
f 620/7/2 621/7/2 624/7/2
f 621/7/2 622/7/2 624/7/2
f 624/7/2 622/7/2 625/7/2
f 625/7/2 622/7/2 626/7/2
f 620/7/2 624/7/2 627/7/2
f 627/7/2 624/7/2 628/7/2
f 629/3/2 630/3/2 631/3/2
f 631/3/2 630/3/2 632/3/2
f 629/3/2 631/3/2 633/3/2
f 633/3/2 631/3/2 634/3/2
f 631/4/2 632/4/2 635/4/2
f 634/3/2 631/3/2 635/3/2
f 632/3/2 630/3/2 636/3/2
f 635/4/2 632/4/2 636/4/2
f 636/3/2 630/3/2 637/3/2
f 637/3/2 630/3/2 638/3/2
f 633/4/2 634/4/2 639/4/2
f 639/4/2 634/4/2 640/4/2
f 637/4/2 638/4/2 641/4/2
f 641/4/2 638/4/2 642/4/2
f 639/3/2 640/3/2 643/3/2
f 643/3/2 640/3/2 644/3/2
f 641/3/2 642/3/2 645/3/2
f 645/3/2 642/3/2 646/3/2
f 643/4/2 644/4/2 647/4/2
f 644/3/2 645/3/2 648/3/2
f 647/4/2 644/4/2 648/4/2
f 645/4/2 646/4/2 649/4/2
f 648/3/2 645/3/2 649/3/2
f 649/4/2 646/4/2 650/4/2
f 650/4/2 651/4/2 653/4/2
f 651/1/2 652/1/2 654/1/2
f 653/4/2 651/4/2 654/4/2
f 654/1/2 652/1/2 655/1/2
f 650/4/2 653/4/2 658/4/2
f 653/3/2 654/3/2 658/3/2
f 655/4/2 656/4/2 659/4/2
f 658/3/2 654/3/2 659/3/2
f 654/4/2 655/4/2 659/4/2
f 659/4/2 656/4/2 660/4/2
f 656/1/2 657/1/2 661/1/2
f 660/4/2 656/4/2 661/4/2
f 661/1/2 657/1/2 662/1/2
f 659/3/2 660/3/2 664/3/2
f 661/4/2 662/4/2 665/4/2
f 664/3/2 660/3/2 665/3/2
f 660/4/2 661/4/2 665/4/2
f 665/4/2 662/4/2 666/4/2
f 662/1/2 663/1/2 667/1/2
f 666/4/2 662/4/2 667/4/2
f 667/1/2 663/1/2 668/1/2
f 667/4/2 668/4/2 670/4/2
f 666/4/2 667/4/2 670/4/2
f 670/4/2 668/4/2 671/4/2
f 668/1/2 669/1/2 672/1/2
f 671/4/2 668/4/2 674/4/2
f 672/1/2 673/1/2 675/1/2
f 674/4/2 668/4/2 675/4/2
f 668/1/2 672/1/2 675/1/2
f 675/1/2 673/1/2 676/1/2
f 676/1/2 673/1/2 677/1/2
f 675/4/2 676/4/2 679/4/2
f 677/1/2 678/1/2 680/1/2
f 679/4/2 676/4/2 680/4/2
f 676/1/2 677/1/2 680/1/2
f 680/1/2 678/1/2 681/1/2
f 681/1/2 678/1/2 682/1/2
f 680/1/2 681/1/2 684/1/2
f 681/2/2 682/2/2 685/2/2
f 684/1/2 681/1/2 685/1/2
f 685/2/2 682/2/2 686/2/2
f 684/1/2 685/1/2 687/1/2
f 685/1/2 686/1/2 687/1/2
f 687/1/2 686/1/2 688/1/2
f 683/4/2 684/4/2 690/4/2
f 684/1/2 687/1/2 691/1/2
f 690/4/2 684/4/2 691/4/2
f 689/4/2 690/4/2 693/4/2
f 691/1/2 687/1/2 694/1/2
f 690/1/2 691/1/2 694/1/2
f 694/1/2 687/1/2 695/1/2
f 692/4/2 693/4/2 698/4/2
f 693/4/2 690/4/2 699/4/2
f 698/4/2 693/4/2 699/4/2
f 690/1/2 694/1/2 700/1/2
f 699/4/2 690/4/2 700/4/2
f 700/1/2 694/1/2 701/1/2
f 650/4/2 658/4/2 702/4/2
f 696/3/2 697/3/2 703/3/2
f 697/4/2 698/4/2 704/4/2
f 698/4/2 699/4/2 704/4/2
f 703/3/2 697/3/2 704/3/2
f 704/4/2 699/4/2 705/4/2
f 699/1/2 700/1/2 706/1/2
f 705/4/2 699/4/2 706/4/2
f 706/1/2 700/1/2 707/1/2
f 650/4/2 702/4/2 708/4/2
f 702/3/2 703/3/2 708/3/2
f 704/4/2 705/4/2 709/4/2
f 708/3/2 703/3/2 709/3/2
f 703/4/2 704/4/2 709/4/2
f 709/4/2 705/4/2 710/4/2
f 705/1/2 706/1/2 711/1/2
f 710/4/2 705/4/2 711/4/2
f 711/1/2 706/1/2 712/1/2
f 650/4/2 708/4/2 713/4/2
f 708/4/2 709/4/2 713/4/2
f 709/1/2 710/1/2 714/1/2
f 713/4/2 709/4/2 714/4/2
f 714/1/2 710/1/2 715/1/2
f 721/3/3 717/3/3 716/3/3
f 721/4/3 718/4/3 717/4/3
f 722/3/3 719/3/3 718/3/3
f 722/4/3 718/4/3 721/4/3
f 723/4/3 720/4/3 719/4/3
f 723/3/3 719/3/3 722/3/3
f 724/3/3 721/3/3 716/3/3
f 725/3/3 721/3/3 724/3/3
f 726/3/3 724/3/3 716/3/3
f 726/4/3 725/4/3 724/4/3
f 727/4/3 725/4/3 726/4/3
f 728/3/3 727/3/3 726/3/3
f 730/4/3 720/4/3 723/4/3
f 731/4/3 729/4/3 728/4/3
f 731/3/3 728/3/3 726/3/3
f 732/3/3 730/3/3 729/3/3
f 732/4/3 729/4/3 731/4/3
f 733/4/3 720/4/3 730/4/3
f 733/3/3 730/3/3 732/3/3
f 734/3/3 731/3/3 726/3/3
f 734/3/3 726/3/3 716/3/3
f 735/3/3 731/3/3 734/3/3
f 736/4/3 720/4/3 733/4/3
f 737/4/3 720/4/3 736/4/3
f 739/3/3 737/3/3 736/3/3
f 740/3/3 737/3/3 739/3/3
f 744/3/3 740/3/3 739/3/3
f 744/3/3 739/3/3 738/3/3
f 745/3/3 740/3/3 744/3/3
f 746/4/3 741/4/3 740/4/3
f 746/3/3 740/3/3 745/3/3
f 747/1/3 742/1/3 741/1/3
f 747/4/3 741/4/3 746/4/3
f 748/1/3 742/1/3 747/1/3
f 750/3/3 745/3/3 744/3/3
f 750/3/3 744/3/3 743/3/3
f 751/3/3 745/3/3 750/3/3
f 752/3/3 745/3/3 751/3/3
f 753/4/3 748/4/3 747/4/3
f 753/4/3 747/4/3 746/4/3
f 754/4/3 748/4/3 753/4/3
f 755/1/3 749/1/3 748/1/3
f 755/4/3 748/4/3 754/4/3
f 756/1/3 749/1/3 755/1/3
f 757/3/3 752/3/3 751/3/3
f 757/3/3 753/3/3 752/3/3
f 758/3/3 753/3/3 757/3/3
f 759/4/3 754/4/3 753/4/3
f 759/3/3 753/3/3 758/3/3
f 760/1/3 755/1/3 754/1/3
f 760/4/3 754/4/3 759/4/3
f 761/1/3 755/1/3 760/1/3
f 762/3/3 759/3/3 758/3/3
f 763/3/3 759/3/3 762/3/3
f 764/4/3 735/4/3 734/4/3
f 764/3/3 734/3/3 716/3/3
f 765/4/3 735/4/3 764/4/3
f 766/3/3 765/3/3 764/3/3
f 768/4/3 763/4/3 762/4/3
f 769/4/3 767/4/3 766/4/3
f 769/3/3 766/3/3 764/3/3
f 770/3/3 768/3/3 767/3/3
f 770/4/3 767/4/3 769/4/3
f 771/4/3 763/4/3 768/4/3
f 771/3/3 768/3/3 770/3/3
f 772/3/3 769/3/3 764/3/3
f 772/3/3 764/3/3 716/3/3
f 773/3/3 769/3/3 772/3/3
f 774/3/3 772/3/3 716/3/3
f 774/4/3 773/4/3 772/4/3
f 775/4/3 773/4/3 774/4/3
f 776/3/3 775/3/3 774/3/3
f 778/4/3 763/4/3 771/4/3
f 779/3/3 776/3/3 774/3/3
f 779/3/3 774/3/3 716/3/3
f 780/4/3 777/4/3 776/4/3
f 780/3/3 776/3/3 779/3/3
f 781/3/3 778/3/3 777/3/3
f 781/4/3 777/4/3 780/4/3
f 782/4/3 763/4/3 778/4/3
f 782/3/3 778/3/3 781/3/3
f 783/4/3 763/4/3 782/4/3
f 788/11/3 785/11/3 784/11/3
f 789/8/3 787/8/3 786/8/3
f 789/11/3 785/11/3 788/11/3
f 789/8/3 786/8/3 785/8/3
f 790/8/3 787/8/3 789/8/3
f 791/7/3 789/7/3 788/7/3
f 792/11/3 790/11/3 789/11/3
f 792/7/3 789/7/3 791/7/3
f 793/8/3 787/8/3 790/8/3
f 793/11/3 790/11/3 792/11/3
f 794/11/3 792/11/3 791/11/3
f 795/8/3 793/8/3 792/8/3
f 795/11/3 792/11/3 794/11/3
f 796/8/3 793/8/3 795/8/3
f 797/8/3 787/8/3 793/8/3
f 797/8/3 793/8/3 796/8/3
f 802/11/3 799/11/3 798/11/3
f 803/8/3 801/8/3 800/8/3
f 803/11/3 799/11/3 802/11/3
f 803/8/3 800/8/3 799/8/3
f 804/8/3 801/8/3 803/8/3
f 805/11/3 804/11/3 803/11/3
f 806/8/3 801/8/3 804/8/3
f 806/11/3 804/11/3 805/11/3
f 807/8/3 801/8/3 806/8/3
f 808/7/3 803/7/3 802/7/3
f 809/11/3 805/11/3 803/11/3
f 809/7/3 803/7/3 808/7/3
f 810/8/3 806/8/3 805/8/3
f 810/11/3 805/11/3 809/11/3
f 810/8/3 807/8/3 806/8/3
f 811/8/3 807/8/3 810/8/3
f 812/7/3 808/7/3 802/7/3
f 813/11/3 809/11/3 808/11/3
f 813/7/3 808/7/3 812/7/3
f 814/8/3 810/8/3 809/8/3
f 814/11/3 809/11/3 813/11/3
f 815/8/3 810/8/3 814/8/3
f 816/7/3 812/7/3 802/7/3
f 816/11/3 813/11/3 812/11/3
f 817/8/3 814/8/3 813/8/3
f 817/11/3 813/11/3 816/11/3
f 818/8/3 814/8/3 817/8/3
f 820/7/3 817/7/3 816/7/3
f 820/11/3 818/11/3 817/11/3
f 821/8/3 819/8/3 818/8/3
f 821/11/3 818/11/3 820/11/3
f 822/8/3 819/8/3 821/8/3
f 824/11/3 822/11/3 821/11/3
f 824/8/3 823/8/3 822/8/3
f 825/8/3 823/8/3 824/8/3
f 826/8/3 823/8/3 825/8/3
f 827/7/3 821/7/3 820/7/3
f 827/7/3 816/7/3 802/7/3
f 827/7/3 820/7/3 816/7/3
f 828/11/3 825/11/3 824/11/3
f 828/7/3 821/7/3 827/7/3
f 828/11/3 824/11/3 821/11/3
f 829/8/3 826/8/3 825/8/3
f 829/11/3 825/11/3 828/11/3
f 830/11/3 828/11/3 827/11/3
f 831/8/3 829/8/3 828/8/3
f 831/11/3 828/11/3 830/11/3
f 832/8/3 829/8/3 831/8/3
f 833/8/3 826/8/3 829/8/3
f 833/8/3 829/8/3 832/8/3
f 838/11/3 835/11/3 834/11/3
f 839/8/3 837/8/3 836/8/3
f 839/11/3 835/11/3 838/11/3
f 839/8/3 836/8/3 835/8/3
f 840/8/3 837/8/3 839/8/3
f 841/7/3 839/7/3 838/7/3
f 842/11/3 840/11/3 839/11/3
f 842/7/3 839/7/3 841/7/3
f 843/8/3 837/8/3 840/8/3
f 843/11/3 840/11/3 842/11/3
f 844/11/3 842/11/3 841/11/3
f 845/8/3 843/8/3 842/8/3
f 845/11/3 842/11/3 844/11/3
f 846/8/3 843/8/3 845/8/3
f 847/8/3 837/8/3 843/8/3
f 847/8/3 843/8/3 846/8/3
f 850/12/3 849/12/3 848/12/3
f 851/12/3 849/12/3 850/12/3
f 854/12/3 853/12/3 852/12/3
f 855/12/3 853/12/3 854/12/3
f 859/4/3 857/4/3 856/4/3
f 860/4/3 857/4/3 859/4/3
f 861/3/3 858/3/3 857/3/3
f 861/4/3 857/4/3 860/4/3
f 862/3/3 858/3/3 861/3/3
f 867/4/3 864/4/3 863/4/3
f 867/4/3 865/4/3 864/4/3
f 868/3/3 866/3/3 865/3/3
f 868/4/3 865/4/3 867/4/3
f 869/3/3 866/3/3 868/3/3
f 872/4/3 871/4/3 870/4/3
f 873/4/3 871/4/3 872/4/3
f 874/12/3 873/12/3 872/12/3
f 875/12/3 873/12/3 874/12/3
f 876/4/3 872/4/3 870/4/3
f 877/12/3 874/12/3 872/12/3
f 877/4/3 872/4/3 876/4/3
f 878/12/3 873/12/3 875/12/3
f 878/4/3 871/4/3 873/4/3
f 879/4/3 871/4/3 878/4/3
f 880/1/3 877/1/3 876/1/3
f 881/12/3 874/12/3 877/12/3
f 881/1/3 877/1/3 880/1/3
f 882/12/3 878/12/3 875/12/3
f 882/1/3 879/1/3 878/1/3
f 883/1/3 879/1/3 882/1/3
f 884/4/3 881/4/3 880/4/3
f 885/12/3 874/12/3 881/12/3
f 885/4/3 881/4/3 884/4/3
f 886/12/3 882/12/3 875/12/3
f 886/4/3 883/4/3 882/4/3
f 887/4/3 883/4/3 886/4/3
f 888/12/3 886/12/3 875/12/3
f 888/1/3 887/1/3 886/1/3
f 889/1/3 887/1/3 888/1/3
f 890/12/3 888/12/3 875/12/3
f 890/4/3 889/4/3 888/4/3
f 891/4/3 889/4/3 890/4/3
f 892/12/3 890/12/3 875/12/3
f 892/3/3 891/3/3 890/3/3
f 893/3/3 891/3/3 892/3/3
f 894/12/3 892/12/3 875/12/3
f 894/4/3 893/4/3 892/4/3
f 895/4/3 893/4/3 894/4/3
f 896/12/3 894/12/3 875/12/3
f 896/3/3 895/3/3 894/3/3
f 897/3/3 895/3/3 896/3/3
f 898/12/3 896/12/3 875/12/3
f 898/4/3 897/4/3 896/4/3
f 899/4/3 897/4/3 898/4/3
f 900/1/3 885/1/3 884/1/3
f 901/12/3 874/12/3 885/12/3
f 901/1/3 885/1/3 900/1/3
f 902/12/3 898/12/3 875/12/3
f 902/1/3 899/1/3 898/1/3
f 903/1/3 899/1/3 902/1/3
f 904/4/3 901/4/3 900/4/3
f 905/12/3 874/12/3 901/12/3
f 905/4/3 901/4/3 904/4/3
f 906/12/3 902/12/3 875/12/3
f 906/4/3 903/4/3 902/4/3
f 907/4/3 903/4/3 906/4/3
f 908/1/3 905/1/3 904/1/3
f 909/12/3 874/12/3 905/12/3
f 909/1/3 905/1/3 908/1/3
f 910/12/3 906/12/3 875/12/3
f 910/1/3 907/1/3 906/1/3
f 911/1/3 907/1/3 910/1/3
f 912/12/3 874/12/3 909/12/3
f 913/12/3 910/12/3 875/12/3
f 914/4/3 909/4/3 908/4/3
f 914/12/3 913/12/3 912/12/3
f 914/12/3 912/12/3 909/12/3
f 915/12/3 910/12/3 913/12/3
f 915/12/3 913/12/3 914/12/3
f 915/4/3 911/4/3 910/4/3
f 916/4/3 914/4/3 908/4/3
f 916/4/3 915/4/3 914/4/3
f 917/4/3 911/4/3 915/4/3
f 917/4/3 915/4/3 916/4/3
f 922/3/3 919/3/3 918/3/3
f 923/3/3 919/3/3 922/3/3
f 924/3/3 921/3/3 920/3/3
f 925/3/3 921/3/3 924/3/3
f 928/12/3 927/12/3 926/12/3
f 929/12/3 927/12/3 928/12/3
f 934/3/3 931/3/3 930/3/3
f 935/3/3 931/3/3 934/3/3
f 936/3/3 933/3/3 932/3/3
f 937/3/3 933/3/3 936/3/3
f 942/4/3 939/4/3 938/4/3
f 943/4/3 939/4/3 942/4/3
f 944/4/3 941/4/3 940/4/3
f 945/4/3 941/4/3 944/4/3
f 950/7/3 947/7/3 946/7/3
f 951/5/3 948/5/3 947/5/3
f 951/7/3 947/7/3 950/7/3
f 952/7/3 949/7/3 948/7/3
f 952/5/3 948/5/3 951/5/3
f 953/7/3 949/7/3 952/7/3
f 958/4/3 955/4/3 954/4/3
f 959/4/3 955/4/3 958/4/3
f 960/4/3 957/4/3 956/4/3
f 961/4/3 957/4/3 960/4/3
f 966/4/3 963/4/3 962/4/3
f 967/4/3 963/4/3 966/4/3
f 968/4/3 965/4/3 964/4/3
f 969/4/3 965/4/3 968/4/3
f 974/4/3 971/4/3 970/4/3
f 975/4/3 971/4/3 974/4/3
f 976/4/3 973/4/3 972/4/3
f 977/4/3 973/4/3 976/4/3
f 982/4/3 979/4/3 978/4/3
f 983/4/3 979/4/3 982/4/3
f 984/4/3 981/4/3 980/4/3
f 985/4/3 981/4/3 984/4/3
f 990/4/3 987/4/3 986/4/3
f 991/4/3 987/4/3 990/4/3
f 992/4/3 989/4/3 988/4/3
f 993/4/3 989/4/3 992/4/3
f 996/1/3 995/1/3 994/1/3
f 997/1/3 995/1/3 996/1/3
f 1000/1/3 999/1/3 998/1/3
f 1001/1/3 999/1/3 1000/1/3
f 1002/4/4 1003/4/4 1005/4/4
f 1003/1/4 1004/1/4 1006/1/4
f 1005/4/4 1003/4/4 1006/4/4
f 1006/1/4 1004/1/4 1007/1/4
f 1005/4/4 1006/4/4 1009/4/4
f 1006/4/4 1007/4/4 1009/4/4
f 1009/4/4 1007/4/4 1010/4/4
f 1007/1/4 1008/1/4 1011/1/4
f 1010/4/4 1007/4/4 1011/4/4
f 1011/1/4 1008/1/4 1012/1/4
f 1009/4/4 1010/4/4 1013/4/4
f 1010/1/4 1011/1/4 1014/1/4
f 1013/4/4 1010/4/4 1014/4/4
f 1014/1/4 1011/1/4 1015/1/4
f 1016/4/4 1017/4/4 1019/4/4
f 1019/4/4 1017/4/4 1020/4/4
f 1017/3/4 1018/3/4 1021/3/4
f 1020/4/4 1017/4/4 1021/4/4
f 1021/3/4 1018/3/4 1022/3/4
f 1023/4/4 1024/4/4 1027/4/4
f 1024/4/4 1025/4/4 1027/4/4
f 1025/3/4 1026/3/4 1028/3/4
f 1027/4/4 1025/4/4 1028/4/4
f 1028/3/4 1026/3/4 1029/3/4
f 1030/12/4 1031/12/4 1032/12/4
f 1032/12/4 1031/12/4 1033/12/4
f 1034/11/4 1035/11/4 1038/11/4
f 1036/8/4 1037/8/4 1039/8/4
f 1038/11/4 1035/11/4 1039/11/4
f 1035/8/4 1036/8/4 1039/8/4
f 1039/8/4 1037/8/4 1040/8/4
f 1038/7/4 1039/7/4 1041/7/4
f 1039/11/4 1040/11/4 1042/11/4
f 1041/7/4 1039/7/4 1042/7/4
f 1040/8/4 1037/8/4 1043/8/4
f 1042/11/4 1040/11/4 1043/11/4
f 1041/11/4 1042/11/4 1044/11/4
f 1042/8/4 1043/8/4 1045/8/4
f 1044/11/4 1042/11/4 1045/11/4
f 1045/8/4 1043/8/4 1046/8/4
f 1043/8/4 1037/8/4 1047/8/4
f 1046/8/4 1043/8/4 1047/8/4
f 1048/11/4 1049/11/4 1052/11/4
f 1050/8/4 1051/8/4 1053/8/4
f 1052/11/4 1049/11/4 1053/11/4
f 1049/8/4 1050/8/4 1053/8/4
f 1053/8/4 1051/8/4 1054/8/4
f 1052/7/4 1053/7/4 1055/7/4
f 1053/11/4 1054/11/4 1056/11/4
f 1055/7/4 1053/7/4 1056/7/4
f 1054/8/4 1051/8/4 1057/8/4
f 1056/11/4 1054/11/4 1057/11/4
f 1055/11/4 1056/11/4 1058/11/4
f 1056/8/4 1057/8/4 1059/8/4
f 1058/11/4 1056/11/4 1059/11/4
f 1059/8/4 1057/8/4 1060/8/4
f 1057/8/4 1051/8/4 1061/8/4
f 1060/8/4 1057/8/4 1061/8/4
f 1062/11/4 1063/11/4 1066/11/4
f 1064/8/4 1065/8/4 1067/8/4
f 1066/11/4 1063/11/4 1067/11/4
f 1063/8/4 1064/8/4 1067/8/4
f 1067/8/4 1065/8/4 1068/8/4
f 1066/7/4 1067/7/4 1069/7/4
f 1067/11/4 1068/11/4 1070/11/4
f 1069/7/4 1067/7/4 1070/7/4
f 1068/8/4 1065/8/4 1071/8/4
f 1070/11/4 1068/11/4 1071/11/4
f 1069/11/4 1070/11/4 1072/11/4
f 1070/8/4 1071/8/4 1073/8/4
f 1072/11/4 1070/11/4 1073/11/4
f 1073/8/4 1071/8/4 1074/8/4
f 1071/8/4 1065/8/4 1075/8/4
f 1074/8/4 1071/8/4 1075/8/4
f 1076/3/4 1077/3/4 1081/3/4
f 1077/4/4 1078/4/4 1081/4/4
f 1078/3/4 1079/3/4 1082/3/4
f 1081/4/4 1078/4/4 1082/4/4
f 1079/4/4 1080/4/4 1083/4/4
f 1082/3/4 1079/3/4 1083/3/4
f 1076/3/4 1081/3/4 1084/3/4
f 1084/3/4 1081/3/4 1085/3/4
f 1083/4/4 1080/4/4 1086/4/4
f 1084/4/4 1085/4/4 1087/4/4
f 1076/3/4 1084/3/4 1087/3/4
f 1087/4/4 1085/4/4 1088/4/4
f 1083/4/4 1086/4/4 1089/4/4
f 1087/3/4 1088/3/4 1090/3/4
f 1083/4/4 1089/4/4 1092/4/4
f 1090/4/4 1091/4/4 1093/4/4
f 1087/3/4 1090/3/4 1093/3/4
f 1091/3/4 1092/3/4 1094/3/4
f 1093/4/4 1091/4/4 1094/4/4
f 1092/4/4 1089/4/4 1095/4/4
f 1094/3/4 1092/3/4 1095/3/4
f 1076/3/4 1087/3/4 1096/3/4
f 1087/3/4 1093/3/4 1096/3/4
f 1096/3/4 1093/3/4 1097/3/4
f 1095/4/4 1089/4/4 1098/4/4
f 1096/4/4 1097/4/4 1099/4/4
f 1076/3/4 1096/3/4 1099/3/4
f 1099/4/4 1097/4/4 1100/4/4
f 1095/4/4 1098/4/4 1101/4/4
f 1099/3/4 1100/3/4 1102/3/4
f 1095/4/4 1101/4/4 1104/4/4
f 1102/4/4 1103/4/4 1105/4/4
f 1099/3/4 1102/3/4 1105/3/4
f 1103/3/4 1104/3/4 1106/3/4
f 1105/4/4 1103/4/4 1106/4/4
f 1104/4/4 1101/4/4 1107/4/4
f 1106/3/4 1104/3/4 1107/3/4
f 1076/3/4 1099/3/4 1108/3/4
f 1099/3/4 1105/3/4 1108/3/4
f 1108/3/4 1105/3/4 1109/3/4
f 1107/4/4 1101/4/4 1110/4/4
f 1108/4/4 1109/4/4 1111/4/4
f 1076/3/4 1108/3/4 1111/3/4
f 1111/4/4 1109/4/4 1112/4/4
f 1107/4/4 1110/4/4 1113/4/4
f 1111/3/4 1112/3/4 1114/3/4
f 1107/4/4 1113/4/4 1116/4/4
f 1076/3/4 1111/3/4 1117/3/4
f 1111/3/4 1114/3/4 1117/3/4
f 1114/4/4 1115/4/4 1118/4/4
f 1117/3/4 1114/3/4 1118/3/4
f 1115/3/4 1116/3/4 1119/3/4
f 1118/4/4 1115/4/4 1119/4/4
f 1116/4/4 1113/4/4 1120/4/4
f 1119/3/4 1116/3/4 1120/3/4
f 1120/4/4 1113/4/4 1121/4/4
f 1122/4/4 1123/4/4 1124/4/4
f 1124/4/4 1123/4/4 1125/4/4
f 1125/4/4 1123/4/4 1126/4/4
f 1126/4/4 1123/4/4 1127/4/4
f 1128/4/4 1129/4/4 1132/4/4
f 1132/4/4 1129/4/4 1133/4/4
f 1130/4/4 1131/4/4 1134/4/4
f 1134/4/4 1131/4/4 1135/4/4
f 1132/1/4 1133/1/4 1136/1/4
f 1136/1/4 1133/1/4 1137/1/4
f 1134/1/4 1135/1/4 1138/1/4
f 1138/1/4 1135/1/4 1139/1/4
f 1136/4/4 1137/4/4 1140/4/4
f 1140/4/4 1137/4/4 1141/4/4
f 1138/4/4 1139/4/4 1142/4/4
f 1142/4/4 1139/4/4 1143/4/4
f 1144/4/4 1145/4/4 1148/4/4
f 1148/4/4 1145/4/4 1149/4/4
f 1146/4/4 1147/4/4 1150/4/4
f 1150/4/4 1147/4/4 1151/4/4
f 1150/1/4 1151/1/4 1152/1/4
f 1152/1/4 1151/1/4 1153/1/4
f 1152/4/4 1153/4/4 1154/4/4
f 1154/4/4 1153/4/4 1155/4/4
f 1154/3/4 1155/3/4 1156/3/4
f 1156/3/4 1155/3/4 1157/3/4
f 1156/4/4 1157/4/4 1158/4/4
f 1158/4/4 1157/4/4 1159/4/4
f 1158/3/4 1159/3/4 1160/3/4
f 1160/3/4 1159/3/4 1161/3/4
f 1160/4/4 1161/4/4 1162/4/4
f 1162/4/4 1161/4/4 1163/4/4
f 1148/1/4 1149/1/4 1164/1/4
f 1164/1/4 1149/1/4 1165/1/4
f 1162/1/4 1163/1/4 1166/1/4
f 1166/1/4 1163/1/4 1167/1/4
f 1164/4/4 1165/4/4 1168/4/4
f 1168/4/4 1165/4/4 1169/4/4
f 1166/4/4 1167/4/4 1170/4/4
f 1170/4/4 1167/4/4 1171/4/4
f 1172/4/4 1173/4/4 1176/4/4
f 1176/4/4 1173/4/4 1177/4/4
f 1174/4/4 1175/4/4 1178/4/4
f 1178/4/4 1175/4/4 1179/4/4
f 1176/1/4 1177/1/4 1180/1/4
f 1180/1/4 1177/1/4 1181/1/4
f 1178/1/4 1179/1/4 1182/1/4
f 1182/1/4 1179/1/4 1183/1/4
f 1180/4/4 1181/4/4 1184/4/4
f 1184/4/4 1181/4/4 1185/4/4
f 1182/4/4 1183/4/4 1186/4/4
f 1186/4/4 1183/4/4 1187/4/4
f 1188/4/4 1189/4/4 1192/4/4
f 1190/4/4 1191/4/4 1192/4/4
f 1189/4/4 1190/4/4 1192/4/4
f 1192/4/4 1191/4/4 1193/4/4
f 1194/1/4 1195/1/4 1198/1/4
f 1198/1/4 1195/1/4 1199/1/4
f 1196/1/4 1197/1/4 1202/1/4
f 1202/1/4 1197/1/4 1203/1/4
f 1199/11/4 1200/11/4 1204/11/4
f 1204/11/4 1200/11/4 1205/11/4
f 1201/11/4 1202/11/4 1206/11/4
f 1206/11/4 1202/11/4 1207/11/4
f 1204/7/4 1205/7/4 1208/7/4
f 1208/7/4 1205/7/4 1209/7/4
f 1206/7/4 1207/7/4 1210/7/4
f 1210/7/4 1207/7/4 1211/7/4
f 1208/11/4 1209/11/4 1213/11/4
f 1213/11/4 1209/11/4 1214/11/4
f 1210/11/4 1211/11/4 1215/11/4
f 1215/11/4 1211/11/4 1216/11/4
f 1212/1/4 1213/1/4 1218/1/4
f 1218/1/4 1213/1/4 1219/1/4
f 1216/1/4 1217/1/4 1222/1/4
f 1222/1/4 1217/1/4 1223/1/4
f 1219/11/4 1220/11/4 1224/11/4
f 1224/11/4 1220/11/4 1225/11/4
f 1221/11/4 1222/11/4 1226/11/4
f 1226/11/4 1222/11/4 1227/11/4
f 1224/7/4 1225/7/4 1228/7/4
f 1228/7/4 1225/7/4 1229/7/4
f 1226/7/4 1227/7/4 1230/7/4
f 1230/7/4 1227/7/4 1231/7/4
f 1228/11/4 1229/11/4 1233/11/4
f 1233/11/4 1229/11/4 1234/11/4
f 1230/11/4 1231/11/4 1235/11/4
f 1235/11/4 1231/11/4 1236/11/4
f 1232/1/4 1233/1/4 1238/1/4
f 1238/1/4 1233/1/4 1239/1/4
f 1236/1/4 1237/1/4 1242/1/4
f 1242/1/4 1237/1/4 1243/1/4
f 1239/11/4 1240/11/4 1244/11/4
f 1244/11/4 1240/11/4 1245/11/4
f 1241/11/4 1242/11/4 1246/11/4
f 1246/11/4 1242/11/4 1247/11/4
f 1244/7/4 1245/7/4 1248/7/4
f 1248/7/4 1245/7/4 1249/7/4
f 1246/7/4 1247/7/4 1252/7/4
f 1252/7/4 1247/7/4 1253/7/4
f 1248/11/4 1249/11/4 1255/11/4
f 1255/11/4 1249/11/4 1256/11/4
f 1250/12/4 1251/12/4 1257/12/4
f 1257/12/4 1251/12/4 1258/12/4
f 1252/11/4 1253/11/4 1259/11/4
f 1259/11/4 1253/11/4 1260/11/4
f 1254/1/4 1255/1/4 1262/1/4
f 1262/1/4 1255/1/4 1263/1/4
f 1260/1/4 1261/1/4 1264/1/4
f 1264/1/4 1261/1/4 1265/1/4
f 1266/1/4 1267/1/4 1270/1/4
f 1270/1/4 1267/1/4 1271/1/4
f 1268/1/4 1269/1/4 1274/1/4
f 1274/1/4 1269/1/4 1275/1/4
f 1271/7/4 1272/7/4 1276/7/4
f 1276/7/4 1272/7/4 1277/7/4
f 1273/7/4 1274/7/4 1278/7/4
f 1278/7/4 1274/7/4 1279/7/4
f 1276/10/4 1277/10/4 1280/10/4
f 1280/10/4 1277/10/4 1281/10/4
f 1278/10/4 1279/10/4 1282/10/4
f 1282/10/4 1279/10/4 1283/10/4
f 1280/7/4 1281/7/4 1285/7/4
f 1285/7/4 1281/7/4 1286/7/4
f 1282/7/4 1283/7/4 1287/7/4
f 1287/7/4 1283/7/4 1288/7/4
f 1284/1/4 1285/1/4 1290/1/4
f 1290/1/4 1285/1/4 1291/1/4
f 1288/1/4 1289/1/4 1294/1/4
f 1294/1/4 1289/1/4 1295/1/4
f 1291/7/4 1292/7/4 1296/7/4
f 1296/7/4 1292/7/4 1297/7/4
f 1293/7/4 1294/7/4 1298/7/4
f 1298/7/4 1294/7/4 1299/7/4
f 1296/10/4 1297/10/4 1300/10/4
f 1300/10/4 1297/10/4 1301/10/4
f 1298/10/4 1299/10/4 1302/10/4
f 1302/10/4 1299/10/4 1303/10/4
f 1300/7/4 1301/7/4 1305/7/4
f 1305/7/4 1301/7/4 1306/7/4
f 1302/7/4 1303/7/4 1307/7/4
f 1307/7/4 1303/7/4 1308/7/4
f 1304/1/4 1305/1/4 1310/1/4
f 1310/1/4 1305/1/4 1311/1/4
f 1308/1/4 1309/1/4 1314/1/4
f 1314/1/4 1309/1/4 1315/1/4
f 1311/7/4 1312/7/4 1316/7/4
f 1316/7/4 1312/7/4 1317/7/4
f 1313/7/4 1314/7/4 1318/7/4
f 1318/7/4 1314/7/4 1319/7/4
f 1316/10/4 1317/10/4 1320/10/4
f 1320/10/4 1317/10/4 1321/10/4
f 1318/10/4 1319/10/4 1322/10/4
f 1322/10/4 1319/10/4 1323/10/4
f 1320/7/4 1321/7/4 1325/7/4
f 1325/7/4 1321/7/4 1326/7/4
f 1322/7/4 1323/7/4 1327/7/4
f 1327/7/4 1323/7/4 1328/7/4
f 1324/1/4 1325/1/4 1330/1/4
f 1330/1/4 1325/1/4 1331/1/4
f 1328/1/4 1329/1/4 1332/1/4
f 1332/1/4 1329/1/4 1333/1/4
f 1334/1/4 1335/1/4 1338/1/4
f 1338/1/4 1335/1/4 1339/1/4
f 1336/1/4 1337/1/4 1342/1/4
f 1342/1/4 1337/1/4 1343/1/4
f 1339/7/4 1340/7/4 1344/7/4
f 1344/7/4 1340/7/4 1345/7/4
f 1341/7/4 1342/7/4 1346/7/4
f 1346/7/4 1342/7/4 1347/7/4
f 1344/10/4 1345/10/4 1348/10/4
f 1348/10/4 1345/10/4 1349/10/4
f 1346/10/4 1347/10/4 1350/10/4
f 1350/10/4 1347/10/4 1351/10/4
f 1348/7/4 1349/7/4 1353/7/4
f 1353/7/4 1349/7/4 1354/7/4
f 1350/7/4 1351/7/4 1355/7/4
f 1355/7/4 1351/7/4 1356/7/4
f 1352/1/4 1353/1/4 1358/1/4
f 1358/1/4 1353/1/4 1359/1/4
f 1356/1/4 1357/1/4 1362/1/4
f 1362/1/4 1357/1/4 1363/1/4
f 1359/7/4 1360/7/4 1364/7/4
f 1364/7/4 1360/7/4 1365/7/4
f 1361/7/4 1362/7/4 1366/7/4
f 1366/7/4 1362/7/4 1367/7/4
f 1364/10/4 1365/10/4 1368/10/4
f 1368/10/4 1365/10/4 1369/10/4
f 1366/10/4 1367/10/4 1370/10/4
f 1370/10/4 1367/10/4 1371/10/4
f 1368/7/4 1369/7/4 1373/7/4
f 1373/7/4 1369/7/4 1374/7/4
f 1370/7/4 1371/7/4 1375/7/4
f 1375/7/4 1371/7/4 1376/7/4
f 1372/1/4 1373/1/4 1378/1/4
f 1378/1/4 1373/1/4 1379/1/4
f 1376/1/4 1377/1/4 1382/1/4
f 1382/1/4 1377/1/4 1383/1/4
f 1379/7/4 1380/7/4 1384/7/4
f 1384/7/4 1380/7/4 1385/7/4
f 1381/7/4 1382/7/4 1386/7/4
f 1386/7/4 1382/7/4 1387/7/4
f 1384/10/4 1385/10/4 1388/10/4
f 1388/10/4 1385/10/4 1389/10/4
f 1386/10/4 1387/10/4 1390/10/4
f 1390/10/4 1387/10/4 1391/10/4
f 1388/7/4 1389/7/4 1393/7/4
f 1393/7/4 1389/7/4 1394/7/4
f 1390/7/4 1391/7/4 1395/7/4
f 1395/7/4 1391/7/4 1396/7/4
f 1392/1/4 1393/1/4 1398/1/4
f 1398/1/4 1393/1/4 1399/1/4
f 1396/1/4 1397/1/4 1400/1/4
f 1400/1/4 1397/1/4 1401/1/4
f 1402/1/4 1403/1/4 1406/1/4
f 1406/1/4 1403/1/4 1407/1/4
f 1404/1/4 1405/1/4 1410/1/4
f 1410/1/4 1405/1/4 1411/1/4
f 1407/7/4 1408/7/4 1412/7/4
f 1412/7/4 1408/7/4 1413/7/4
f 1409/7/4 1410/7/4 1414/7/4
f 1414/7/4 1410/7/4 1415/7/4
f 1412/10/4 1413/10/4 1416/10/4
f 1416/10/4 1413/10/4 1417/10/4
f 1414/10/4 1415/10/4 1418/10/4
f 1418/10/4 1415/10/4 1419/10/4
f 1416/7/4 1417/7/4 1421/7/4
f 1421/7/4 1417/7/4 1422/7/4
f 1418/7/4 1419/7/4 1423/7/4
f 1423/7/4 1419/7/4 1424/7/4
f 1420/1/4 1421/1/4 1426/1/4
f 1426/1/4 1421/1/4 1427/1/4
f 1424/1/4 1425/1/4 1430/1/4
f 1430/1/4 1425/1/4 1431/1/4
f 1427/7/4 1428/7/4 1432/7/4
f 1432/7/4 1428/7/4 1433/7/4
f 1429/7/4 1430/7/4 1434/7/4
f 1434/7/4 1430/7/4 1435/7/4
f 1432/10/4 1433/10/4 1436/10/4
f 1436/10/4 1433/10/4 1437/10/4
f 1434/10/4 1435/10/4 1438/10/4
f 1438/10/4 1435/10/4 1439/10/4
f 1436/7/4 1437/7/4 1441/7/4
f 1441/7/4 1437/7/4 1442/7/4
f 1438/7/4 1439/7/4 1443/7/4
f 1443/7/4 1439/7/4 1444/7/4
f 1440/1/4 1441/1/4 1446/1/4
f 1446/1/4 1441/1/4 1447/1/4
f 1444/1/4 1445/1/4 1450/1/4
f 1450/1/4 1445/1/4 1451/1/4
f 1447/7/4 1448/7/4 1452/7/4
f 1452/7/4 1448/7/4 1453/7/4
f 1449/7/4 1450/7/4 1454/7/4
f 1454/7/4 1450/7/4 1455/7/4
f 1452/10/4 1453/10/4 1456/10/4
f 1456/10/4 1453/10/4 1457/10/4
f 1454/10/4 1455/10/4 1458/10/4
f 1458/10/4 1455/10/4 1459/10/4
f 1456/7/4 1457/7/4 1461/7/4
f 1461/7/4 1457/7/4 1462/7/4
f 1454/10/4 1458/10/4 1463/10/4
f 1458/7/4 1459/7/4 1464/7/4
f 1463/10/4 1458/10/4 1464/10/4
f 1464/7/4 1459/7/4 1465/7/4
f 1460/1/4 1461/1/4 1467/1/4
f 1467/1/4 1461/1/4 1468/1/4
f 1465/1/4 1466/1/4 1469/1/4
f 1469/1/4 1466/1/4 1470/1/4
f 1471/1/4 1472/1/4 1475/1/4
f 1475/1/4 1472/1/4 1476/1/4
f 1473/1/4 1474/1/4 1479/1/4
f 1479/1/4 1474/1/4 1480/1/4
f 1477/10/4 1478/10/4 1481/10/4
f 1478/10/4 1479/10/4 1481/10/4
f 1476/10/4 1477/10/4 1481/10/4
f 1481/10/4 1479/10/4 1482/10/4
f 1476/10/4 1481/10/4 1483/10/4
f 1481/9/4 1482/9/4 1483/9/4
f 1482/10/4 1479/10/4 1484/10/4
f 1483/9/4 1482/9/4 1484/9/4
f 1476/10/4 1483/10/4 1486/10/4
f 1483/10/4 1484/10/4 1486/10/4
f 1486/10/4 1484/10/4 1487/10/4
f 1484/10/4 1479/10/4 1488/10/4
f 1487/10/4 1484/10/4 1488/10/4
f 1488/10/4 1479/10/4 1489/10/4
f 1485/1/4 1486/1/4 1491/1/4
f 1491/1/4 1486/1/4 1492/1/4
f 1489/1/4 1490/1/4 1495/1/4
f 1495/1/4 1490/1/4 1496/1/4
f 1493/10/4 1494/10/4 1497/10/4
f 1494/10/4 1495/10/4 1497/10/4
f 1492/10/4 1493/10/4 1497/10/4
f 1497/10/4 1495/10/4 1498/10/4
f 1492/10/4 1497/10/4 1499/10/4
f 1497/9/4 1498/9/4 1499/9/4
f 1498/10/4 1495/10/4 1500/10/4
f 1499/9/4 1498/9/4 1500/9/4
f 1492/10/4 1499/10/4 1502/10/4
f 1499/10/4 1500/10/4 1502/10/4
f 1502/10/4 1500/10/4 1503/10/4
f 1500/10/4 1495/10/4 1504/10/4
f 1503/10/4 1500/10/4 1504/10/4
f 1504/10/4 1495/10/4 1505/10/4
f 1501/1/4 1502/1/4 1507/1/4
f 1507/1/4 1502/1/4 1508/1/4
f 1505/1/4 1506/1/4 1511/1/4
f 1511/1/4 1506/1/4 1512/1/4
f 1509/10/4 1510/10/4 1513/10/4
f 1510/10/4 1511/10/4 1513/10/4
f 1508/10/4 1509/10/4 1513/10/4
f 1513/10/4 1511/10/4 1514/10/4
f 1508/10/4 1513/10/4 1515/10/4
f 1513/9/4 1514/9/4 1515/9/4
f 1514/10/4 1511/10/4 1516/10/4
f 1515/9/4 1514/9/4 1516/9/4
f 1508/10/4 1515/10/4 1518/10/4
f 1515/10/4 1516/10/4 1518/10/4
f 1518/10/4 1516/10/4 1519/10/4
f 1516/10/4 1511/10/4 1520/10/4
f 1519/10/4 1516/10/4 1520/10/4
f 1520/10/4 1511/10/4 1521/10/4
f 1517/1/4 1518/1/4 1523/1/4
f 1523/1/4 1518/1/4 1524/1/4
f 1521/1/4 1522/1/4 1525/1/4
f 1525/1/4 1522/1/4 1526/1/4
f 1527/1/4 1528/1/4 1531/1/4
f 1528/2/4 1529/2/4 1532/2/4
f 1531/1/4 1528/1/4 1532/1/4
f 1529/1/4 1530/1/4 1533/1/4
f 1532/2/4 1529/2/4 1533/2/4
f 1533/1/4 1530/1/4 1534/1/4
f 1535/1/4 1536/1/4 1539/1/4
f 1536/2/4 1537/2/4 1540/2/4
f 1539/1/4 1536/1/4 1540/1/4
f 1537/1/4 1538/1/4 1541/1/4
f 1540/2/4 1537/2/4 1541/2/4
f 1541/1/4 1538/1/4 1542/1/4
f 1543/1/4 1544/1/4 1547/1/4
f 1544/2/4 1545/2/4 1548/2/4
f 1547/1/4 1544/1/4 1548/1/4
f 1545/1/4 1546/1/4 1549/1/4
f 1548/2/4 1545/2/4 1549/2/4
f 1549/1/4 1546/1/4 1550/1/4
f 1551/1/4 1552/1/4 1555/1/4
f 1552/2/4 1553/2/4 1556/2/4
f 1555/1/4 1552/1/4 1556/1/4
f 1553/1/4 1554/1/4 1557/1/4
f 1556/2/4 1553/2/4 1557/2/4
f 1557/1/4 1554/1/4 1558/1/4
f 1561/3/5 1560/3/5 1559/3/5
f 1562/3/5 1560/3/5 1561/3/5
f 1563/3/5 1561/3/5 1559/3/5
f 1563/6/5 1562/6/5 1561/6/5
f 1564/3/5 1560/3/5 1562/3/5
f 1564/6/5 1562/6/5 1563/6/5
f 1565/3/5 1563/3/5 1559/3/5
f 1565/3/5 1564/3/5 1563/3/5
f 1566/3/5 1560/3/5 1564/3/5
f 1566/3/5 1564/3/5 1565/3/5
f 1569/3/5 1568/3/5 1567/3/5
f 1570/3/5 1568/3/5 1569/3/5
f 1575/3/5 1572/3/5 1571/3/5
f 1576/3/5 1572/3/5 1575/3/5
f 1577/3/5 1574/3/5 1573/3/5
f 1578/3/5 1574/3/5 1577/3/5
f 1589/4/5 1580/4/5 1579/4/5
f 1590/4/5 1580/4/5 1589/4/5
f 1591/4/5 1582/4/5 1581/4/5
f 1592/3/5 1583/3/5 1582/3/5
f 1592/4/5 1582/4/5 1591/4/5
f 1593/3/5 1583/3/5 1592/3/5
f 1594/3/5 1585/3/5 1584/3/5
f 1595/4/5 1586/4/5 1585/4/5
f 1595/3/5 1585/3/5 1594/3/5
f 1596/4/5 1586/4/5 1595/4/5
f 1597/4/5 1588/4/5 1587/4/5
f 1598/4/5 1588/4/5 1597/4/5
f 1603/3/5 1600/3/5 1599/3/5
f 1604/3/5 1600/3/5 1603/3/5
f 1605/3/5 1602/3/5 1601/3/5
f 1606/3/5 1602/3/5 1605/3/5
f 1613/4/5 1608/4/5 1607/4/5
f 1614/4/5 1608/4/5 1613/4/5
f 1615/4/5 1610/4/5 1609/4/5
f 1616/4/5 1610/4/5 1615/4/5
f 1617/4/5 1612/4/5 1611/4/5
f 1618/4/5 1612/4/5 1617/4/5
f 1621/4/5 1620/4/5 1619/4/5
f 1622/4/5 1620/4/5 1621/4/5
f 1631/4/5 1624/4/5 1623/4/5
f 1632/1/5 1625/1/5 1624/1/5
f 1632/4/5 1624/4/5 1631/4/5
f 1633/4/5 1626/4/5 1625/4/5
f 1633/1/5 1625/1/5 1632/1/5
f 1634/4/5 1626/4/5 1633/4/5
f 1635/4/5 1626/4/5 1634/4/5
f 1636/1/5 1627/1/5 1626/1/5
f 1636/4/5 1626/4/5 1635/4/5
f 1637/4/5 1628/4/5 1627/4/5
f 1637/1/5 1627/1/5 1636/1/5
f 1638/4/5 1628/4/5 1637/4/5
f 1639/4/5 1628/4/5 1638/4/5
f 1640/1/5 1629/1/5 1628/1/5
f 1640/4/5 1628/4/5 1639/4/5
f 1641/4/5 1630/4/5 1629/4/5
f 1641/1/5 1629/1/5 1640/1/5
f 1642/4/5 1630/4/5 1641/4/5
f 1643/4/5 1631/4/5 1623/4/5
f 1644/4/5 1631/4/5 1643/4/5
f 1645/4/5 1635/4/5 1634/4/5
f 1646/4/5 1635/4/5 1645/4/5
f 1647/4/5 1639/4/5 1638/4/5
f 1648/4/5 1639/4/5 1647/4/5
f 1649/4/5 1630/4/5 1642/4/5
f 1650/4/5 1630/4/5 1649/4/5
f 1651/1/5 1644/1/5 1643/1/5
f 1652/1/5 1644/1/5 1651/1/5
f 1653/1/5 1646/1/5 1645/1/5
f 1654/1/5 1646/1/5 1653/1/5
f 1655/1/5 1648/1/5 1647/1/5
f 1656/1/5 1648/1/5 1655/1/5
f 1657/1/5 1650/1/5 1649/1/5
f 1658/1/5 1650/1/5 1657/1/5
f 1671/11/5 1660/11/5 1659/11/5
f 1672/11/5 1662/11/5 1661/11/5
f 1673/11/5 1664/11/5 1663/11/5
f 1674/11/5 1666/11/5 1665/11/5
f 1675/11/5 1668/11/5 1667/11/5
f 1676/11/5 1670/11/5 1669/11/5
f 1678/11/5 1660/11/5 1671/11/5
f 1679/7/5 1661/7/5 1660/7/5
f 1679/11/5 1660/11/5 1678/11/5
f 1680/11/5 1672/11/5 1661/11/5
f 1680/7/5 1661/7/5 1679/7/5
f 1681/11/5 1672/11/5 1680/11/5
f 1682/11/5 1664/11/5 1673/11/5
f 1683/7/5 1665/7/5 1664/7/5
f 1683/11/5 1664/11/5 1682/11/5
f 1684/11/5 1674/11/5 1665/11/5
f 1684/7/5 1665/7/5 1683/7/5
f 1685/11/5 1674/11/5 1684/11/5
f 1686/11/5 1668/11/5 1675/11/5
f 1687/7/5 1669/7/5 1668/7/5
f 1687/11/5 1668/11/5 1686/11/5
f 1688/11/5 1676/11/5 1669/11/5
f 1688/7/5 1669/7/5 1687/7/5
f 1689/11/5 1676/11/5 1688/11/5
f 1691/4/5 1678/4/5 1677/4/5
f 1692/4/5 1678/4/5 1691/4/5
f 1693/4/5 1682/4/5 1681/4/5
f 1694/4/5 1682/4/5 1693/4/5
f 1695/4/5 1686/4/5 1685/4/5
f 1696/4/5 1686/4/5 1695/4/5
f 1697/4/5 1690/4/5 1689/4/5
f 1698/4/5 1690/4/5 1697/4/5
f 1699/1/5 1692/1/5 1691/1/5
f 1700/1/5 1692/1/5 1699/1/5
f 1701/1/5 1694/1/5 1693/1/5
f 1702/1/5 1694/1/5 1701/1/5
f 1703/1/5 1696/1/5 1695/1/5
f 1704/1/5 1696/1/5 1703/1/5
f 1705/1/5 1698/1/5 1697/1/5
f 1706/1/5 1698/1/5 1705/1/5
f 1719/11/5 1708/11/5 1707/11/5
f 1720/7/5 1709/7/5 1708/7/5
f 1720/11/5 1708/11/5 1719/11/5
f 1721/11/5 1710/11/5 1709/11/5
f 1721/7/5 1709/7/5 1720/7/5
f 1722/11/5 1710/11/5 1721/11/5
f 1723/11/5 1712/11/5 1711/11/5
f 1724/7/5 1713/7/5 1712/7/5
f 1724/11/5 1712/11/5 1723/11/5
f 1725/11/5 1714/11/5 1713/11/5
f 1725/7/5 1713/7/5 1724/7/5
f 1726/11/5 1714/11/5 1725/11/5
f 1727/11/5 1716/11/5 1715/11/5
f 1728/7/5 1717/7/5 1716/7/5
f 1728/11/5 1716/11/5 1727/11/5
f 1729/11/5 1718/11/5 1717/11/5
f 1729/7/5 1717/7/5 1728/7/5
f 1730/11/5 1718/11/5 1729/11/5
f 1732/7/5 1720/7/5 1719/7/5
f 1733/10/5 1721/10/5 1720/10/5
f 1733/7/5 1720/7/5 1732/7/5
f 1734/7/5 1722/7/5 1721/7/5
f 1734/10/5 1721/10/5 1733/10/5
f 1735/7/5 1722/7/5 1734/7/5
f 1736/7/5 1724/7/5 1723/7/5
f 1737/10/5 1725/10/5 1724/10/5
f 1737/7/5 1724/7/5 1736/7/5
f 1738/7/5 1726/7/5 1725/7/5
f 1738/10/5 1725/10/5 1737/10/5
f 1739/7/5 1726/7/5 1738/7/5
f 1740/7/5 1728/7/5 1727/7/5
f 1741/10/5 1729/10/5 1728/10/5
f 1741/7/5 1728/7/5 1740/7/5
f 1742/7/5 1730/7/5 1729/7/5
f 1742/10/5 1729/10/5 1741/10/5
f 1743/7/5 1730/7/5 1742/7/5
f 1745/1/5 1732/1/5 1731/1/5
f 1746/1/5 1732/1/5 1745/1/5
f 1747/1/5 1736/1/5 1735/1/5
f 1748/1/5 1736/1/5 1747/1/5
f 1749/1/5 1740/1/5 1739/1/5
f 1750/1/5 1740/1/5 1749/1/5
f 1751/1/5 1744/1/5 1743/1/5
f 1752/1/5 1744/1/5 1751/1/5
f 1766/7/5 1754/7/5 1753/7/5
f 1767/10/5 1755/10/5 1754/10/5
f 1767/7/5 1754/7/5 1766/7/5
f 1768/7/5 1756/7/5 1755/7/5
f 1768/10/5 1755/10/5 1767/10/5
f 1769/7/5 1756/7/5 1768/7/5
f 1770/7/5 1758/7/5 1757/7/5
f 1771/10/5 1759/10/5 1758/10/5
f 1771/7/5 1758/7/5 1770/7/5
f 1772/7/5 1760/7/5 1759/7/5
f 1772/10/5 1759/10/5 1771/10/5
f 1773/7/5 1760/7/5 1772/7/5
f 1774/7/5 1762/7/5 1761/7/5
f 1775/10/5 1763/10/5 1762/10/5
f 1775/7/5 1762/7/5 1774/7/5
f 1776/7/5 1764/7/5 1763/7/5
f 1776/10/5 1763/10/5 1775/10/5
f 1777/7/5 1764/7/5 1776/7/5
f 1779/1/5 1766/1/5 1765/1/5
f 1780/1/5 1766/1/5 1779/1/5
f 1781/1/5 1770/1/5 1769/1/5
f 1782/1/5 1770/1/5 1781/1/5
f 1783/1/5 1774/1/5 1773/1/5
f 1784/1/5 1774/1/5 1783/1/5
f 1785/1/5 1778/1/5 1777/1/5
f 1786/1/5 1778/1/5 1785/1/5
f 1800/7/5 1788/7/5 1787/7/5
f 1801/10/5 1789/10/5 1788/10/5
f 1801/7/5 1788/7/5 1800/7/5
f 1802/7/5 1790/7/5 1789/7/5
f 1802/10/5 1789/10/5 1801/10/5
f 1803/7/5 1790/7/5 1802/7/5
f 1804/7/5 1792/7/5 1791/7/5
f 1805/10/5 1793/10/5 1792/10/5
f 1805/7/5 1792/7/5 1804/7/5
f 1806/7/5 1794/7/5 1793/7/5
f 1806/10/5 1793/10/5 1805/10/5
f 1807/7/5 1794/7/5 1806/7/5
f 1808/7/5 1796/7/5 1795/7/5
f 1809/10/5 1797/10/5 1796/10/5
f 1809/7/5 1796/7/5 1808/7/5
f 1810/7/5 1798/7/5 1797/7/5
f 1810/10/5 1797/10/5 1809/10/5
f 1811/7/5 1798/7/5 1810/7/5
f 1813/1/5 1800/1/5 1799/1/5
f 1814/1/5 1800/1/5 1813/1/5
f 1815/1/5 1804/1/5 1803/1/5
f 1816/1/5 1804/1/5 1815/1/5
f 1817/1/5 1808/1/5 1807/1/5
f 1818/1/5 1808/1/5 1817/1/5
f 1819/1/5 1812/1/5 1811/1/5
f 1820/1/5 1812/1/5 1819/1/5
f 1834/10/5 1822/10/5 1821/10/5
f 1834/10/5 1823/10/5 1822/10/5
f 1834/10/5 1824/10/5 1823/10/5
f 1835/10/5 1824/10/5 1834/10/5
f 1836/10/5 1826/10/5 1825/10/5
f 1836/10/5 1827/10/5 1826/10/5
f 1836/10/5 1828/10/5 1827/10/5
f 1837/10/5 1828/10/5 1836/10/5
f 1838/10/5 1832/10/5 1831/10/5
f 1838/10/5 1831/10/5 1830/10/5
f 1838/10/5 1830/10/5 1829/10/5
f 1839/10/5 1832/10/5 1838/10/5
f 1841/1/5 1834/1/5 1833/1/5
f 1842/1/5 1834/1/5 1841/1/5
f 1843/1/5 1836/1/5 1835/1/5
f 1844/1/5 1836/1/5 1843/1/5
f 1845/1/5 1838/1/5 1837/1/5
f 1846/1/5 1838/1/5 1845/1/5
f 1847/1/5 1840/1/5 1839/1/5
f 1848/1/5 1840/1/5 1847/1/5
f 1853/4/5 1850/4/5 1849/4/5
f 1854/4/5 1850/4/5 1853/4/5
f 1855/4/5 1852/4/5 1851/4/5
f 1856/4/5 1852/4/5 1855/4/5
f 1861/4/5 1858/4/5 1857/4/5
f 1862/4/5 1858/4/5 1861/4/5
f 1863/4/5 1860/4/5 1859/4/5
f 1864/4/5 1860/4/5 1863/4/5
f 1869/4/5 1866/4/5 1865/4/5
f 1870/4/5 1866/4/5 1869/4/5
f 1871/4/5 1868/4/5 1867/4/5
f 1872/4/5 1868/4/5 1871/4/5
f 1877/12/5 1874/12/5 1873/12/5
f 1878/12/5 1874/12/5 1877/12/5
f 1881/3/5 1876/3/5 1875/3/5
f 1882/3/5 1876/3/5 1881/3/5
f 1885/3/5 1880/3/5 1879/3/5
f 1886/3/5 1880/3/5 1885/3/5
f 1887/4/5 1882/4/5 1881/4/5
f 1888/4/5 1882/4/5 1887/4/5
f 1889/11/5 1884/11/5 1883/11/5
f 1890/11/5 1884/11/5 1889/11/5
f 1891/4/5 1886/4/5 1885/4/5
f 1892/4/5 1886/4/5 1891/4/5
f 1897/3/5 1894/3/5 1893/3/5
f 1898/3/5 1894/3/5 1897/3/5
f 1899/3/5 1896/3/5 1895/3/5
f 1900/3/5 1896/3/5 1899/3/5
f 1901/3/6 1902/3/6 1913/3/6
f 1902/4/6 1903/4/6 1914/4/6
f 1913/3/6 1902/3/6 1914/3/6
f 1903/3/6 1904/3/6 1915/3/6
f 1914/4/6 1903/4/6 1915/4/6
f 1915/3/6 1904/3/6 1916/3/6
f 1905/3/6 1906/3/6 1917/3/6
f 1906/4/6 1907/4/6 1918/4/6
f 1917/3/6 1906/3/6 1918/3/6
f 1907/3/6 1908/3/6 1919/3/6
f 1918/4/6 1907/4/6 1919/4/6
f 1919/3/6 1908/3/6 1920/3/6
f 1909/3/6 1910/3/6 1921/3/6
f 1910/4/6 1911/4/6 1922/4/6
f 1921/3/6 1910/3/6 1922/3/6
f 1911/3/6 1912/3/6 1923/3/6
f 1922/4/6 1911/4/6 1923/4/6
f 1923/3/6 1912/3/6 1924/3/6
f 1925/3/6 1926/3/6 1929/3/6
f 1929/3/6 1926/3/6 1930/3/6
f 1927/3/6 1928/3/6 1931/3/6
f 1931/3/6 1928/3/6 1932/3/6
f 1929/4/6 1930/4/6 1933/4/6
f 1933/4/6 1930/4/6 1934/4/6
f 1931/4/6 1932/4/6 1935/4/6
f 1935/4/6 1932/4/6 1936/4/6
f 1933/3/6 1934/3/6 1937/3/6
f 1937/3/6 1934/3/6 1938/3/6
f 1935/3/6 1936/3/6 1939/3/6
f 1939/3/6 1936/3/6 1940/3/6
f 1941/3/6 1942/3/6 1953/3/6
f 1942/4/6 1943/4/6 1954/4/6
f 1953/3/6 1942/3/6 1954/3/6
f 1943/3/6 1944/3/6 1955/3/6
f 1954/4/6 1943/4/6 1955/4/6
f 1955/3/6 1944/3/6 1956/3/6
f 1945/3/6 1946/3/6 1957/3/6
f 1946/4/6 1947/4/6 1958/4/6
f 1957/3/6 1946/3/6 1958/3/6
f 1947/3/6 1948/3/6 1959/3/6
f 1958/4/6 1947/4/6 1959/4/6
f 1959/3/6 1948/3/6 1960/3/6
f 1949/3/6 1950/3/6 1961/3/6
f 1950/4/6 1951/4/6 1962/4/6
f 1961/3/6 1950/3/6 1962/3/6
f 1951/3/6 1952/3/6 1963/3/6
f 1962/4/6 1951/4/6 1963/4/6
f 1963/3/6 1952/3/6 1964/3/6
f 1965/12/6 1966/12/6 1967/12/6
f 1967/12/6 1966/12/6 1968/12/6
f 1969/3/6 1970/3/6 1971/3/6
f 1971/3/6 1970/3/6 1972/3/6
f 1971/12/6 1972/12/6 1973/12/6
f 1973/12/6 1972/12/6 1974/12/6
f 1975/4/6 1976/4/6 1981/4/6
f 1976/3/6 1977/3/6 1982/3/6
f 1981/4/6 1976/4/6 1982/4/6
f 1982/3/6 1977/3/6 1983/3/6
f 1978/3/6 1979/3/6 1986/3/6
f 1979/4/6 1980/4/6 1987/4/6
f 1986/3/6 1979/3/6 1987/3/6
f 1987/4/6 1980/4/6 1988/4/6
f 1975/4/6 1981/4/6 1989/4/6
f 1983/12/6 1984/12/6 1990/12/6
f 1989/4/6 1981/4/6 1990/4/6
f 1981/12/6 1982/12/6 1990/12/6
f 1982/12/6 1983/12/6 1990/12/6
f 1990/12/6 1984/12/6 1991/12/6
f 1985/12/6 1986/12/6 1992/12/6
f 1987/12/6 1988/12/6 1992/12/6
f 1986/12/6 1987/12/6 1992/12/6
f 1988/4/6 1980/4/6 1993/4/6
f 1992/12/6 1988/12/6 1993/12/6
f 1993/4/6 1980/4/6 1994/4/6
f 1990/12/6 1991/12/6 1995/12/6
f 1991/12/6 1992/12/6 1995/12/6
f 1992/12/6 1993/12/6 1995/12/6
f 1995/12/6 1993/12/6 1996/12/6
f 1990/12/6 1995/12/6 1997/12/6
f 1996/12/6 1993/12/6 1998/12/6
f 1989/3/6 1990/3/6 1999/3/6
f 1997/12/6 1998/12/6 2000/12/6
f 1999/3/6 1990/3/6 2000/3/6
f 1990/12/6 1997/12/6 2000/12/6
f 1993/3/6 1994/3/6 2001/3/6
f 2000/12/6 1998/12/6 2001/12/6
f 1998/12/6 1993/12/6 2001/12/6
f 2001/3/6 1994/3/6 2002/3/6
f 1999/4/6 2000/4/6 2003/4/6
f 2000/12/6 2001/12/6 2003/12/6
f 2001/4/6 2002/4/6 2004/4/6
f 2003/12/6 2001/12/6 2004/12/6
f 1999/4/6 2003/4/6 2005/4/6
f 2003/4/6 2004/4/6 2005/4/6
f 2005/4/6 2004/4/6 2006/4/6
f 2006/4/6 2004/4/6 2007/4/6
f 2007/4/6 2004/4/6 2008/4/6
f 2008/4/6 2004/4/6 2009/4/6
f 2009/4/6 2004/4/6 2010/4/6
f 2010/4/6 2004/4/6 2011/4/6
f 2004/4/6 2002/4/6 2012/4/6
f 2011/4/6 2004/4/6 2012/4/6
f 2013/1/6 2014/1/6 2017/1/6
f 2017/1/6 2014/1/6 2018/1/6
f 2015/1/6 2016/1/6 2019/1/6
f 2019/1/6 2016/1/6 2020/1/6
f 2021/3/6 2022/3/6 2025/3/6
f 2025/3/6 2022/3/6 2026/3/6
f 2023/3/6 2024/3/6 2027/3/6
f 2027/3/6 2024/3/6 2028/3/6
f 2029/1/6 2030/1/6 2031/1/6
f 2031/1/6 2030/1/6 2032/1/6
f 2033/12/6 2034/12/6 2037/12/6
f 2037/12/6 2034/12/6 2038/12/6
f 2035/3/6 2036/3/6 2041/3/6
f 2041/3/6 2036/3/6 2042/3/6
f 2039/3/6 2040/3/6 2045/3/6
f 2045/3/6 2040/3/6 2046/3/6
f 2041/4/6 2042/4/6 2047/4/6
f 2047/4/6 2042/4/6 2048/4/6
f 2043/11/6 2044/11/6 2049/11/6
f 2049/11/6 2044/11/6 2050/11/6
f 2045/4/6 2046/4/6 2051/4/6
f 2051/4/6 2046/4/6 2052/4/6
f 2053/4/6 2054/4/6 2057/4/6
f 2057/4/6 2054/4/6 2058/4/6
f 2055/4/6 2056/4/6 2059/4/6
f 2059/4/6 2056/4/6 2060/4/6
f 2061/4/6 2062/4/6 2065/4/6
f 2065/4/6 2062/4/6 2066/4/6
f 2063/4/6 2064/4/6 2067/4/6
f 2067/4/6 2064/4/6 2068/4/6
f 2069/4/6 2070/4/6 2073/4/6
f 2073/4/6 2070/4/6 2074/4/6
f 2071/4/6 2072/4/6 2075/4/6
f 2075/4/6 2072/4/6 2076/4/6
f 2077/10/6 2078/10/6 2089/10/6
f 2078/10/6 2079/10/6 2089/10/6
f 2079/10/6 2080/10/6 2089/10/6
f 2089/10/6 2080/10/6 2090/10/6
f 2083/10/6 2084/10/6 2091/10/6
f 2081/10/6 2082/10/6 2091/10/6
f 2082/10/6 2083/10/6 2091/10/6
f 2091/10/6 2084/10/6 2092/10/6
f 2086/10/6 2087/10/6 2093/10/6
f 2085/10/6 2086/10/6 2093/10/6
f 2093/10/6 2087/10/6 2094/10/6
f 2088/1/6 2089/1/6 2096/1/6
f 2096/1/6 2089/1/6 2097/1/6
f 2090/1/6 2091/1/6 2098/1/6
f 2098/1/6 2091/1/6 2099/1/6
f 2092/1/6 2093/1/6 2100/1/6
f 2100/1/6 2093/1/6 2101/1/6
f 2094/1/6 2095/1/6 2102/1/6
f 2102/1/6 2095/1/6 2103/1/6
f 2104/7/6 2105/7/6 2117/7/6
f 2105/10/6 2106/10/6 2118/10/6
f 2117/7/6 2105/7/6 2118/7/6
f 2106/7/6 2107/7/6 2119/7/6
f 2118/10/6 2106/10/6 2119/10/6
f 2119/7/6 2107/7/6 2120/7/6
f 2108/7/6 2109/7/6 2121/7/6
f 2109/10/6 2110/10/6 2122/10/6
f 2121/7/6 2109/7/6 2122/7/6
f 2110/7/6 2111/7/6 2123/7/6
f 2122/10/6 2110/10/6 2123/10/6
f 2123/7/6 2111/7/6 2124/7/6
f 2112/7/6 2113/7/6 2125/7/6
f 2113/10/6 2114/10/6 2126/10/6
f 2125/7/6 2113/7/6 2126/7/6
f 2114/7/6 2115/7/6 2127/7/6
f 2126/10/6 2114/10/6 2127/10/6
f 2127/7/6 2115/7/6 2128/7/6
f 2116/1/6 2117/1/6 2130/1/6
f 2130/1/6 2117/1/6 2131/1/6
f 2120/1/6 2121/1/6 2132/1/6
f 2132/1/6 2121/1/6 2133/1/6
f 2124/1/6 2125/1/6 2134/1/6
f 2134/1/6 2125/1/6 2135/1/6
f 2128/1/6 2129/1/6 2136/1/6
f 2136/1/6 2129/1/6 2137/1/6
f 2138/7/6 2139/7/6 2151/7/6
f 2139/10/6 2140/10/6 2152/10/6
f 2151/7/6 2139/7/6 2152/7/6
f 2140/7/6 2141/7/6 2153/7/6
f 2152/10/6 2140/10/6 2153/10/6
f 2153/7/6 2141/7/6 2154/7/6
f 2142/7/6 2143/7/6 2155/7/6
f 2143/10/6 2144/10/6 2156/10/6
f 2155/7/6 2143/7/6 2156/7/6
f 2144/7/6 2145/7/6 2157/7/6
f 2156/10/6 2144/10/6 2157/10/6
f 2157/7/6 2145/7/6 2158/7/6
f 2146/7/6 2147/7/6 2159/7/6
f 2147/10/6 2148/10/6 2160/10/6
f 2159/7/6 2147/7/6 2160/7/6
f 2148/7/6 2149/7/6 2161/7/6
f 2160/10/6 2148/10/6 2161/10/6
f 2161/7/6 2149/7/6 2162/7/6
f 2150/1/6 2151/1/6 2164/1/6
f 2164/1/6 2151/1/6 2165/1/6
f 2154/1/6 2155/1/6 2166/1/6
f 2166/1/6 2155/1/6 2167/1/6
f 2158/1/6 2159/1/6 2168/1/6
f 2168/1/6 2159/1/6 2169/1/6
f 2162/1/6 2163/1/6 2170/1/6
f 2170/1/6 2163/1/6 2171/1/6
f 2172/11/6 2173/11/6 2184/11/6
f 2173/7/6 2174/7/6 2185/7/6
f 2184/11/6 2173/11/6 2185/11/6
f 2174/11/6 2175/11/6 2186/11/6
f 2185/7/6 2174/7/6 2186/7/6
f 2186/11/6 2175/11/6 2187/11/6
f 2176/11/6 2177/11/6 2188/11/6
f 2177/7/6 2178/7/6 2189/7/6
f 2188/11/6 2177/11/6 2189/11/6
f 2178/11/6 2179/11/6 2190/11/6
f 2189/7/6 2178/7/6 2190/7/6
f 2190/11/6 2179/11/6 2191/11/6
f 2180/11/6 2181/11/6 2192/11/6
f 2181/7/6 2182/7/6 2193/7/6
f 2192/11/6 2181/11/6 2193/11/6
f 2182/11/6 2183/11/6 2194/11/6
f 2193/7/6 2182/7/6 2194/7/6
f 2194/11/6 2183/11/6 2195/11/6
f 2184/7/6 2185/7/6 2197/7/6
f 2185/10/6 2186/10/6 2198/10/6
f 2197/7/6 2185/7/6 2198/7/6
f 2186/7/6 2187/7/6 2199/7/6
f 2198/10/6 2186/10/6 2199/10/6
f 2199/7/6 2187/7/6 2200/7/6
f 2188/7/6 2189/7/6 2201/7/6
f 2189/10/6 2190/10/6 2202/10/6
f 2201/7/6 2189/7/6 2202/7/6
f 2190/7/6 2191/7/6 2203/7/6
f 2202/10/6 2190/10/6 2203/10/6
f 2203/7/6 2191/7/6 2204/7/6
f 2192/7/6 2193/7/6 2205/7/6
f 2193/10/6 2194/10/6 2206/10/6
f 2205/7/6 2193/7/6 2206/7/6
f 2194/7/6 2195/7/6 2207/7/6
f 2206/10/6 2194/10/6 2207/10/6
f 2207/7/6 2195/7/6 2208/7/6
f 2196/1/6 2197/1/6 2210/1/6
f 2210/1/6 2197/1/6 2211/1/6
f 2200/1/6 2201/1/6 2212/1/6
f 2212/1/6 2201/1/6 2213/1/6
f 2204/1/6 2205/1/6 2214/1/6
f 2214/1/6 2205/1/6 2215/1/6
f 2208/1/6 2209/1/6 2216/1/6
f 2216/1/6 2209/1/6 2217/1/6
f 2218/11/6 2219/11/6 2236/11/6
f 2220/11/6 2221/11/6 2237/11/6
f 2222/11/6 2223/11/6 2238/11/6
f 2230/11/6 2231/11/6 2239/11/6
f 2232/11/6 2233/11/6 2240/11/6
f 2234/11/6 2235/11/6 2241/11/6
f 2236/11/6 2219/11/6 2243/11/6
f 2219/7/6 2220/7/6 2244/7/6
f 2243/11/6 2219/11/6 2244/11/6
f 2220/11/6 2237/11/6 2245/11/6
f 2244/7/6 2220/7/6 2245/7/6
f 2245/11/6 2237/11/6 2246/11/6
f 2238/11/6 2223/11/6 2247/11/6
f 2223/7/6 2224/7/6 2248/7/6
f 2224/7/6 2225/7/6 2248/7/6
f 2247/11/6 2223/11/6 2248/11/6
f 2225/7/6 2226/7/6 2248/7/6
f 2226/7/6 2227/7/6 2248/7/6
f 2227/7/6 2228/7/6 2248/7/6
f 2228/7/6 2229/7/6 2248/7/6
f 2229/7/6 2230/7/6 2248/7/6
f 2230/11/6 2239/11/6 2249/11/6
f 2248/7/6 2230/7/6 2249/7/6
f 2249/11/6 2239/11/6 2250/11/6
f 2240/11/6 2233/11/6 2251/11/6
f 2233/7/6 2234/7/6 2252/7/6
f 2251/11/6 2233/11/6 2252/11/6
f 2234/11/6 2241/11/6 2253/11/6
f 2252/7/6 2234/7/6 2253/7/6
f 2253/11/6 2241/11/6 2254/11/6
f 2242/4/6 2243/4/6 2256/4/6
f 2256/4/6 2243/4/6 2257/4/6
f 2246/4/6 2247/4/6 2258/4/6
f 2258/4/6 2247/4/6 2259/4/6
f 2250/4/6 2251/4/6 2260/4/6
f 2260/4/6 2251/4/6 2261/4/6
f 2254/4/6 2255/4/6 2262/4/6
f 2262/4/6 2255/4/6 2263/4/6
f 2256/1/6 2257/1/6 2264/1/6
f 2264/1/6 2257/1/6 2265/1/6
f 2258/1/6 2259/1/6 2266/1/6
f 2266/1/6 2259/1/6 2267/1/6
f 2260/1/6 2261/1/6 2268/1/6
f 2268/1/6 2261/1/6 2269/1/6
f 2262/1/6 2263/1/6 2270/1/6
f 2270/1/6 2263/1/6 2271/1/6
f 2272/4/6 2273/4/6 2286/4/6
f 2273/1/6 2274/1/6 2287/1/6
f 2286/4/6 2273/4/6 2287/4/6
f 2274/4/6 2275/4/6 2288/4/6
f 2287/1/6 2274/1/6 2288/1/6
f 2288/4/6 2275/4/6 2289/4/6
f 2289/4/6 2275/4/6 2290/4/6
f 2275/1/6 2276/1/6 2291/1/6
f 2290/4/6 2275/4/6 2291/4/6
f 2276/4/6 2277/4/6 2292/4/6
f 2291/1/6 2276/1/6 2292/1/6
f 2277/3/6 2278/3/6 2293/3/6
f 2292/4/6 2277/4/6 2293/4/6
f 2278/4/6 2279/4/6 2294/4/6
f 2293/3/6 2278/3/6 2294/3/6
f 2279/3/6 2280/3/6 2295/3/6
f 2294/4/6 2279/4/6 2295/4/6
f 2280/4/6 2281/4/6 2296/4/6
f 2295/3/6 2280/3/6 2296/3/6
f 2281/1/6 2282/1/6 2297/1/6
f 2296/4/6 2281/4/6 2297/4/6
f 2282/4/6 2283/4/6 2298/4/6
f 2297/1/6 2282/1/6 2298/1/6
f 2298/4/6 2283/4/6 2299/4/6
f 2299/4/6 2283/4/6 2300/4/6
f 2283/1/6 2284/1/6 2301/1/6
f 2300/4/6 2283/4/6 2301/4/6
f 2284/4/6 2285/4/6 2302/4/6
f 2301/1/6 2284/1/6 2302/1/6
f 2302/4/6 2285/4/6 2303/4/6
f 2272/4/6 2286/4/6 2304/4/6
f 2304/4/6 2286/4/6 2305/4/6
f 2289/4/6 2290/4/6 2306/4/6
f 2306/4/6 2290/4/6 2307/4/6
f 2299/4/6 2300/4/6 2308/4/6
f 2308/4/6 2300/4/6 2309/4/6
f 2303/4/6 2285/4/6 2310/4/6
f 2310/4/6 2285/4/6 2311/4/6
f 2304/1/6 2305/1/6 2312/1/6
f 2312/1/6 2305/1/6 2313/1/6
f 2306/1/6 2307/1/6 2314/1/6
f 2314/1/6 2307/1/6 2315/1/6
f 2308/1/6 2309/1/6 2316/1/6
f 2316/1/6 2309/1/6 2317/1/6
f 2310/1/6 2311/1/6 2318/1/6
f 2318/1/6 2311/1/6 2319/1/6
