# MagicaVoxel @ Ephtracy

# group
o 

# material
mtllib Arrow.mtl
usemtl palette

# normals
vn -1 0 0
vn 1 0 0
vn 0 0 1
vn 0 0 -1
vn 0 -1 0
vn 0 1 0

# texcoords
vt 0.0878906 0.5
vt 0.0917969 0.5

# verts
v -0.5 0.3 0.1
v -0.5 0.3 -0.1
v -0.5 0.4 0.1
v -0.5 0.4 -0.1
v -0.5 0.6 0.1
v -0.5 0.6 -0.1
v -0.5 0.7 0.1
v -0.5 0.7 -0.1
v -0.4 0.4 0.1
v -0.4 0.4 -0.1
v -0.4 0.6 0.1
v -0.4 0.6 -0.1
v 0.2 0.2 0.1
v 0.2 0.2 -0.1
v 0.2 0.4 0.1
v 0.2 0.4 -0.1
v 0.2 0.6 0.1
v 0.2 0.6 -0.1
v 0.2 0.8 0.1
v 0.2 0.8 -0.1
v -0.3 0.3 0.1
v -0.3 0.3 -0.1
v -0.3 0.4 0.1
v -0.3 0.4 -0.1
v -0.3 0.6 0.1
v -0.3 0.6 -0.1
v -0.3 0.7 0.1
v -0.3 0.7 -0.1
v 0.3 0.2 0.1
v 0.3 0.2 -0.1
v 0.3 0.3 0.1
v 0.3 0.3 -0.1
v 0.3 0.7 0.1
v 0.3 0.7 -0.1
v 0.3 0.8 0.1
v 0.3 0.8 -0.1
v 0.4 0.3 0.1
v 0.4 0.3 -0.1
v 0.4 0.4 0.1
v 0.4 0.4 -0.1
v 0.4 0.6 0.1
v 0.4 0.6 -0.1
v 0.4 0.7 0.1
v 0.4 0.7 -0.1
v 0.5 0.4 0.1
v 0.5 0.4 -0.1
v 0.5 0.6 0.1
v 0.5 0.6 -0.1
v -0.5 0.3 0.1
v -0.5 0.4 0.1
v -0.5 0.6 0.1
v -0.5 0.7 0.1
v -0.4 0.4 0.1
v -0.4 0.6 0.1
v -0.4 0.7 0.1
v -0.3 0.3 0.1
v -0.3 0.4 0.1
v -0.3 0.5 0.1
v -0.3 0.6 0.1
v -0.3 0.7 0.1
v 0.2 0.2 0.1
v 0.2 0.4 0.1
v 0.2 0.6 0.1
v 0.2 0.8 0.1
v 0.3 0.2 0.1
v 0.3 0.3 0.1
v 0.3 0.4 0.1
v 0.3 0.5 0.1
v 0.3 0.7 0.1
v 0.3 0.8 0.1
v 0.4 0.3 0.1
v 0.4 0.4 0.1
v 0.4 0.6 0.1
v 0.4 0.7 0.1
v 0.5 0.4 0.1
v 0.5 0.6 0.1
v -0.5 0.3 -0.1
v -0.5 0.4 -0.1
v -0.5 0.6 -0.1
v -0.5 0.7 -0.1
v -0.4 0.4 -0.1
v -0.4 0.6 -0.1
v -0.4 0.7 -0.1
v -0.3 0.3 -0.1
v -0.3 0.4 -0.1
v -0.3 0.5 -0.1
v -0.3 0.6 -0.1
v -0.3 0.7 -0.1
v 0.2 0.2 -0.1
v 0.2 0.4 -0.1
v 0.2 0.6 -0.1
v 0.2 0.8 -0.1
v 0.3 0.2 -0.1
v 0.3 0.3 -0.1
v 0.3 0.4 -0.1
v 0.3 0.5 -0.1
v 0.3 0.7 -0.1
v 0.3 0.8 -0.1
v 0.4 0.3 -0.1
v 0.4 0.4 -0.1
v 0.4 0.6 -0.1
v 0.4 0.7 -0.1
v 0.5 0.4 -0.1
v 0.5 0.6 -0.1
v 0.2 0.2 0.1
v 0.3 0.2 0.1
v 0.2 0.2 -0.1
v 0.3 0.2 -0.1
v -0.5 0.3 0.1
v -0.3 0.3 0.1
v 0.3 0.3 0.1
v 0.4 0.3 0.1
v -0.5 0.3 -0.1
v -0.3 0.3 -0.1
v 0.3 0.3 -0.1
v 0.4 0.3 -0.1
v -0.3 0.4 0.1
v 0.2 0.4 0.1
v 0.4 0.4 0.1
v 0.5 0.4 0.1
v -0.3 0.4 -0.1
v 0.2 0.4 -0.1
v 0.4 0.4 -0.1
v 0.5 0.4 -0.1
v -0.5 0.6 0.1
v -0.4 0.6 0.1
v -0.5 0.6 -0.1
v -0.4 0.6 -0.1
v -0.5 0.4 0.1
v -0.4 0.4 0.1
v -0.5 0.4 -0.1
v -0.4 0.4 -0.1
v -0.3 0.6 0.1
v 0.2 0.6 0.1
v 0.4 0.6 0.1
v 0.5 0.6 0.1
v -0.3 0.6 -0.1
v 0.2 0.6 -0.1
v 0.4 0.6 -0.1
v 0.5 0.6 -0.1
v -0.5 0.7 0.1
v -0.4 0.7 0.1
v -0.3 0.7 0.1
v 0.3 0.7 0.1
v 0.4 0.7 0.1
v -0.5 0.7 -0.1
v -0.4 0.7 -0.1
v -0.3 0.7 -0.1
v 0.3 0.7 -0.1
v 0.4 0.7 -0.1
v 0.2 0.8 0.1
v 0.3 0.8 0.1
v 0.2 0.8 -0.1
v 0.3 0.8 -0.1

# faces
f 3/1/1 2/1/1 1/1/1
f 4/1/1 2/1/1 3/1/1
f 7/1/1 6/1/1 5/1/1
f 8/1/1 6/1/1 7/1/1
f 11/1/1 10/1/1 9/1/1
f 12/1/1 10/1/1 11/1/1
f 15/1/1 14/1/1 13/1/1
f 16/1/1 14/1/1 15/1/1
f 19/2/1 18/2/1 17/2/1
f 20/2/1 18/2/1 19/2/1
f 21/1/2 22/1/2 23/1/2
f 23/1/2 22/1/2 24/1/2
f 25/2/2 26/2/2 27/2/2
f 27/2/2 26/2/2 28/2/2
f 29/1/2 30/1/2 31/1/2
f 31/1/2 30/1/2 32/1/2
f 33/2/2 34/2/2 35/2/2
f 35/2/2 34/2/2 36/2/2
f 37/1/2 38/1/2 39/1/2
f 39/1/2 38/1/2 40/1/2
f 41/2/2 42/2/2 43/2/2
f 43/2/2 42/2/2 44/2/2
f 45/2/2 46/2/2 47/2/2
f 47/2/2 46/2/2 48/2/2
f 53/1/3 50/1/3 49/1/3
f 54/1/3 52/1/3 51/1/3
f 55/1/3 52/1/3 54/1/3
f 56/1/3 53/1/3 49/1/3
f 56/1/3 54/1/3 53/1/3
f 57/1/3 54/1/3 56/1/3
f 58/1/3 54/1/3 57/1/3
f 59/2/3 55/2/3 54/2/3
f 59/1/3 54/1/3 58/1/3
f 60/2/3 55/2/3 59/2/3
f 62/1/3 58/1/3 57/1/3
f 63/2/3 59/2/3 58/2/3
f 65/1/3 62/1/3 61/1/3
f 66/1/3 62/1/3 65/1/3
f 67/1/3 58/1/3 62/1/3
f 67/1/3 62/1/3 66/1/3
f 68/2/3 63/2/3 58/2/3
f 68/1/3 58/1/3 67/1/3
f 68/2/3 64/2/3 63/2/3
f 69/2/3 64/2/3 68/2/3
f 70/2/3 64/2/3 69/2/3
f 71/1/3 67/1/3 66/1/3
f 72/2/3 69/2/3 68/2/3
f 72/1/3 67/1/3 71/1/3
f 72/2/3 68/2/3 67/2/3
f 73/2/3 69/2/3 72/2/3
f 74/2/3 69/2/3 73/2/3
f 75/2/3 73/2/3 72/2/3
f 76/2/3 73/2/3 75/2/3
f 77/1/4 78/1/4 81/1/4
f 79/1/4 80/1/4 82/1/4
f 82/1/4 80/1/4 83/1/4
f 77/1/4 81/1/4 84/1/4
f 81/1/4 82/1/4 84/1/4
f 84/1/4 82/1/4 85/1/4
f 85/1/4 82/1/4 86/1/4
f 82/2/4 83/2/4 87/2/4
f 86/1/4 82/1/4 87/1/4
f 87/2/4 83/2/4 88/2/4
f 85/1/4 86/1/4 90/1/4
f 86/2/4 87/2/4 91/2/4
f 89/1/4 90/1/4 93/1/4
f 93/1/4 90/1/4 94/1/4
f 90/1/4 86/1/4 95/1/4
f 94/1/4 90/1/4 95/1/4
f 86/2/4 91/2/4 96/2/4
f 95/1/4 86/1/4 96/1/4
f 91/2/4 92/2/4 96/2/4
f 96/2/4 92/2/4 97/2/4
f 97/2/4 92/2/4 98/2/4
f 94/1/4 95/1/4 99/1/4
f 96/2/4 97/2/4 100/2/4
f 99/1/4 95/1/4 100/1/4
f 95/2/4 96/2/4 100/2/4
f 100/2/4 97/2/4 101/2/4
f 101/2/4 97/2/4 102/2/4
f 100/2/4 101/2/4 103/2/4
f 103/2/4 101/2/4 104/2/4
f 107/1/5 106/1/5 105/1/5
f 108/1/5 106/1/5 107/1/5
f 113/1/5 110/1/5 109/1/5
f 114/1/5 110/1/5 113/1/5
f 115/1/5 112/1/5 111/1/5
f 116/1/5 112/1/5 115/1/5
f 121/1/5 118/1/5 117/1/5
f 122/1/5 118/1/5 121/1/5
f 123/2/5 120/2/5 119/2/5
f 124/2/5 120/2/5 123/2/5
f 127/1/5 126/1/5 125/1/5
f 128/1/5 126/1/5 127/1/5
f 129/1/6 130/1/6 131/1/6
f 131/1/6 130/1/6 132/1/6
f 133/2/6 134/2/6 137/2/6
f 137/2/6 134/2/6 138/2/6
f 135/2/6 136/2/6 139/2/6
f 139/2/6 136/2/6 140/2/6
f 141/1/6 142/1/6 146/1/6
f 142/2/6 143/2/6 147/2/6
f 146/1/6 142/1/6 147/1/6
f 147/2/6 143/2/6 148/2/6
f 144/2/6 145/2/6 149/2/6
f 149/2/6 145/2/6 150/2/6
f 151/2/6 152/2/6 153/2/6
f 153/2/6 152/2/6 154/2/6
